M48
; DRILL file {KiCad 8.0.1} date 2024-11-05T21:39:01+0000
; FORMAT={-:-/ absolute / inch / decimal}
; #@! TF.CreationDate,2024-11-05T21:39:01+00:00
; #@! TF.GenerationSoftware,Kicad,Pcbnew,8.0.1
; #@! TF.FileFunction,NonPlated,1,4,NPTH
FMAT,2
INCH
; #@! TA.AperFunction,NonPlated,NPTH,ComponentDrill
T1C0.0787
; #@! TA.AperFunction,NonPlated,NPTH,ComponentDrill
T2C0.1063
%
G90
G05
T2
X4.121Y-2.637
X4.121Y-3.978
X7.19Y-2.638
X7.19Y-3.978
T1
G00X4.195Y-4.3473
M15
G01X4.195Y-4.3513
M16
G05
G00X4.7541Y-4.3473
M15
G01X4.7541Y-4.3513
M16
G05
G00X4.9822Y-4.3473
M15
G01X4.9822Y-4.3513
M16
G05
G00X5.5413Y-4.3473
M15
G01X5.5413Y-4.3513
M16
G05
G00X5.7694Y-4.3473
M15
G01X5.7694Y-4.3513
M16
G05
G00X6.3285Y-4.3473
M15
G01X6.3285Y-4.3513
M16
G05
G00X6.5566Y-4.3473
M15
G01X6.5566Y-4.3513
M16
G05
G00X7.1157Y-4.3473
M15
G01X7.1157Y-4.3513
M16
G05
M30
