%TF.GenerationSoftware,KiCad,Pcbnew,8.0.1*%
%TF.CreationDate,2024-11-05T21:38:58+00:00*%
%TF.ProjectId,Tiny4xPoweredStereoMixer,54696e79-3478-4506-9f77-657265645374,C*%
%TF.SameCoordinates,Original*%
%TF.FileFunction,Soldermask,Bot*%
%TF.FilePolarity,Negative*%
%FSLAX46Y46*%
G04 Gerber Fmt 4.6, Leading zero omitted, Abs format (unit mm)*
G04 Created by KiCad (PCBNEW 8.0.1) date 2024-11-05 21:38:58*
%MOMM*%
%LPD*%
G01*
G04 APERTURE LIST*
G04 Aperture macros list*
%AMRoundRect*
0 Rectangle with rounded corners*
0 $1 Rounding radius*
0 $2 $3 $4 $5 $6 $7 $8 $9 X,Y pos of 4 corners*
0 Add a 4 corners polygon primitive as box body*
4,1,4,$2,$3,$4,$5,$6,$7,$8,$9,$2,$3,0*
0 Add four circle primitives for the rounded corners*
1,1,$1+$1,$2,$3*
1,1,$1+$1,$4,$5*
1,1,$1+$1,$6,$7*
1,1,$1+$1,$8,$9*
0 Add four rect primitives between the rounded corners*
20,1,$1+$1,$2,$3,$4,$5,0*
20,1,$1+$1,$4,$5,$6,$7,0*
20,1,$1+$1,$6,$7,$8,$9,0*
20,1,$1+$1,$8,$9,$2,$3,0*%
G04 Aperture macros list end*
%ADD10O,2.800000X1.800000*%
%ADD11C,2.700000*%
%ADD12RoundRect,0.250000X0.620000X0.845000X-0.620000X0.845000X-0.620000X-0.845000X0.620000X-0.845000X0*%
%ADD13O,1.740000X2.190000*%
%ADD14O,2.000000X2.100000*%
%ADD15C,1.524000*%
%ADD16RoundRect,0.250000X-0.475000X0.337500X-0.475000X-0.337500X0.475000X-0.337500X0.475000X0.337500X0*%
%ADD17RoundRect,0.237500X-0.237500X0.300000X-0.237500X-0.300000X0.237500X-0.300000X0.237500X0.300000X0*%
%ADD18RoundRect,0.250000X0.337500X0.475000X-0.337500X0.475000X-0.337500X-0.475000X0.337500X-0.475000X0*%
G04 APERTURE END LIST*
D10*
%TO.C,J1*%
X116631800Y-59817600D03*
X114631800Y-58017600D03*
X114631800Y-51917600D03*
X116631800Y-54317600D03*
X114631800Y-63517600D03*
%TD*%
%TO.C,J4*%
X160065800Y-59817600D03*
X158065800Y-58017600D03*
X158065800Y-51917600D03*
X160065800Y-54317600D03*
X158065800Y-63517600D03*
%TD*%
D11*
%TO.C,H4*%
X182626000Y-101041200D03*
%TD*%
D10*
%TO.C,J3*%
X145587800Y-59817600D03*
X143587800Y-58017600D03*
X143587800Y-51917600D03*
X145587800Y-54317600D03*
X143587800Y-63517600D03*
%TD*%
D11*
%TO.C,H3*%
X104673400Y-101041200D03*
%TD*%
%TO.C,H2*%
X182626000Y-67005200D03*
%TD*%
%TO.C,H1*%
X104673400Y-66979800D03*
%TD*%
D12*
%TO.C,J5*%
X180361500Y-90271000D03*
D13*
X177821500Y-90271000D03*
%TD*%
D14*
%TO.C,RV1*%
X106553000Y-110472000D03*
X120753000Y-110472000D03*
D15*
X112653000Y-113772000D03*
X114653000Y-113772000D03*
X116653000Y-113772000D03*
X110653000Y-113772000D03*
X108653000Y-113772000D03*
X118653000Y-113772000D03*
%TD*%
D10*
%TO.C,J9*%
X174543800Y-59817600D03*
X172543800Y-58017600D03*
X172543800Y-51917600D03*
X174543800Y-54317600D03*
X172543800Y-63517600D03*
%TD*%
%TO.C,J2*%
X131109800Y-59817600D03*
X129109800Y-58017600D03*
X129109800Y-51917600D03*
X131109800Y-54317600D03*
X129109800Y-63517600D03*
%TD*%
D14*
%TO.C,RV2*%
X126548066Y-110472000D03*
X140748066Y-110472000D03*
D15*
X132648066Y-113772000D03*
X134648066Y-113772000D03*
X136648066Y-113772000D03*
X130648066Y-113772000D03*
X128648066Y-113772000D03*
X138648066Y-113772000D03*
%TD*%
D14*
%TO.C,RV3*%
X146543132Y-110472000D03*
X160743132Y-110472000D03*
D15*
X152643132Y-113772000D03*
X154643132Y-113772000D03*
X156643132Y-113772000D03*
X150643132Y-113772000D03*
X148643132Y-113772000D03*
X158643132Y-113772000D03*
%TD*%
D14*
%TO.C,RV4*%
X166538200Y-110472000D03*
X180738200Y-110472000D03*
D15*
X172638200Y-113772000D03*
X174638200Y-113772000D03*
X176638200Y-113772000D03*
X170638200Y-113772000D03*
X168638200Y-113772000D03*
X178638200Y-113772000D03*
%TD*%
D16*
%TO.C,C16*%
X165354000Y-77835000D03*
X165354000Y-79910000D03*
%TD*%
D17*
%TO.C,C5*%
X121920000Y-54001500D03*
X121920000Y-55726500D03*
%TD*%
D18*
%TO.C,C4*%
X169997000Y-85090000D03*
X167922000Y-85090000D03*
%TD*%
D17*
%TO.C,C12*%
X150876000Y-54001500D03*
X150876000Y-55726500D03*
%TD*%
%TO.C,C11*%
X136652000Y-59436000D03*
X136652000Y-61161000D03*
%TD*%
%TO.C,C17*%
X165608000Y-54001500D03*
X165608000Y-55726500D03*
%TD*%
%TO.C,C10*%
X136652000Y-54001500D03*
X136652000Y-55726500D03*
%TD*%
D18*
%TO.C,C15*%
X169997000Y-82550000D03*
X167922000Y-82550000D03*
%TD*%
D17*
%TO.C,C18*%
X165608000Y-59436000D03*
X165608000Y-61161000D03*
%TD*%
%TO.C,C14*%
X150876000Y-59436000D03*
X150876000Y-61161000D03*
%TD*%
%TO.C,C7*%
X121920000Y-59436000D03*
X121920000Y-61161000D03*
%TD*%
M02*
