%TF.GenerationSoftware,KiCad,Pcbnew,7.0.11-7.0.11~ubuntu22.04.1*%
%TF.CreationDate,2024-03-17T14:49:55+00:00*%
%TF.ProjectId,Tiny4xPoweredStereoMixer,54696e79-3478-4506-9f77-657265645374,rev?*%
%TF.SameCoordinates,Original*%
%TF.FileFunction,Legend,Bot*%
%TF.FilePolarity,Positive*%
%FSLAX46Y46*%
G04 Gerber Fmt 4.6, Leading zero omitted, Abs format (unit mm)*
G04 Created by KiCad (PCBNEW 7.0.11-7.0.11~ubuntu22.04.1) date 2024-03-17 14:49:55*
%MOMM*%
%LPD*%
G01*
G04 APERTURE LIST*
%ADD10C,0.150000*%
G04 APERTURE END LIST*
D10*
X155336571Y-154029580D02*
X155384190Y-154077200D01*
X155384190Y-154077200D02*
X155527047Y-154124819D01*
X155527047Y-154124819D02*
X155622285Y-154124819D01*
X155622285Y-154124819D02*
X155765142Y-154077200D01*
X155765142Y-154077200D02*
X155860380Y-153981961D01*
X155860380Y-153981961D02*
X155907999Y-153886723D01*
X155907999Y-153886723D02*
X155955618Y-153696247D01*
X155955618Y-153696247D02*
X155955618Y-153553390D01*
X155955618Y-153553390D02*
X155907999Y-153362914D01*
X155907999Y-153362914D02*
X155860380Y-153267676D01*
X155860380Y-153267676D02*
X155765142Y-153172438D01*
X155765142Y-153172438D02*
X155622285Y-153124819D01*
X155622285Y-153124819D02*
X155527047Y-153124819D01*
X155527047Y-153124819D02*
X155384190Y-153172438D01*
X155384190Y-153172438D02*
X155336571Y-153220057D01*
X154907999Y-154124819D02*
X154907999Y-153124819D01*
X154907999Y-153601009D02*
X154336571Y-153601009D01*
X154336571Y-154124819D02*
X154336571Y-153124819D01*
X153431809Y-153458152D02*
X153431809Y-154124819D01*
X153669904Y-153077200D02*
X153907999Y-153791485D01*
X153907999Y-153791485D02*
X153288952Y-153791485D01*
X152288951Y-153124819D02*
X151955618Y-154124819D01*
X151955618Y-154124819D02*
X151622285Y-153124819D01*
X151098475Y-153124819D02*
X150907999Y-153124819D01*
X150907999Y-153124819D02*
X150812761Y-153172438D01*
X150812761Y-153172438D02*
X150717523Y-153267676D01*
X150717523Y-153267676D02*
X150669904Y-153458152D01*
X150669904Y-153458152D02*
X150669904Y-153791485D01*
X150669904Y-153791485D02*
X150717523Y-153981961D01*
X150717523Y-153981961D02*
X150812761Y-154077200D01*
X150812761Y-154077200D02*
X150907999Y-154124819D01*
X150907999Y-154124819D02*
X151098475Y-154124819D01*
X151098475Y-154124819D02*
X151193713Y-154077200D01*
X151193713Y-154077200D02*
X151288951Y-153981961D01*
X151288951Y-153981961D02*
X151336570Y-153791485D01*
X151336570Y-153791485D02*
X151336570Y-153458152D01*
X151336570Y-153458152D02*
X151288951Y-153267676D01*
X151288951Y-153267676D02*
X151193713Y-153172438D01*
X151193713Y-153172438D02*
X151098475Y-153124819D01*
X149765142Y-154124819D02*
X150241332Y-154124819D01*
X150241332Y-154124819D02*
X150241332Y-153124819D01*
X135635714Y-154029580D02*
X135683333Y-154077200D01*
X135683333Y-154077200D02*
X135826190Y-154124819D01*
X135826190Y-154124819D02*
X135921428Y-154124819D01*
X135921428Y-154124819D02*
X136064285Y-154077200D01*
X136064285Y-154077200D02*
X136159523Y-153981961D01*
X136159523Y-153981961D02*
X136207142Y-153886723D01*
X136207142Y-153886723D02*
X136254761Y-153696247D01*
X136254761Y-153696247D02*
X136254761Y-153553390D01*
X136254761Y-153553390D02*
X136207142Y-153362914D01*
X136207142Y-153362914D02*
X136159523Y-153267676D01*
X136159523Y-153267676D02*
X136064285Y-153172438D01*
X136064285Y-153172438D02*
X135921428Y-153124819D01*
X135921428Y-153124819D02*
X135826190Y-153124819D01*
X135826190Y-153124819D02*
X135683333Y-153172438D01*
X135683333Y-153172438D02*
X135635714Y-153220057D01*
X135207142Y-154124819D02*
X135207142Y-153124819D01*
X135207142Y-153601009D02*
X134635714Y-153601009D01*
X134635714Y-154124819D02*
X134635714Y-153124819D01*
X134254761Y-153124819D02*
X133635714Y-153124819D01*
X133635714Y-153124819D02*
X133969047Y-153505771D01*
X133969047Y-153505771D02*
X133826190Y-153505771D01*
X133826190Y-153505771D02*
X133730952Y-153553390D01*
X133730952Y-153553390D02*
X133683333Y-153601009D01*
X133683333Y-153601009D02*
X133635714Y-153696247D01*
X133635714Y-153696247D02*
X133635714Y-153934342D01*
X133635714Y-153934342D02*
X133683333Y-154029580D01*
X133683333Y-154029580D02*
X133730952Y-154077200D01*
X133730952Y-154077200D02*
X133826190Y-154124819D01*
X133826190Y-154124819D02*
X134111904Y-154124819D01*
X134111904Y-154124819D02*
X134207142Y-154077200D01*
X134207142Y-154077200D02*
X134254761Y-154029580D01*
X132588094Y-153124819D02*
X132254761Y-154124819D01*
X132254761Y-154124819D02*
X131921428Y-153124819D01*
X131397618Y-153124819D02*
X131207142Y-153124819D01*
X131207142Y-153124819D02*
X131111904Y-153172438D01*
X131111904Y-153172438D02*
X131016666Y-153267676D01*
X131016666Y-153267676D02*
X130969047Y-153458152D01*
X130969047Y-153458152D02*
X130969047Y-153791485D01*
X130969047Y-153791485D02*
X131016666Y-153981961D01*
X131016666Y-153981961D02*
X131111904Y-154077200D01*
X131111904Y-154077200D02*
X131207142Y-154124819D01*
X131207142Y-154124819D02*
X131397618Y-154124819D01*
X131397618Y-154124819D02*
X131492856Y-154077200D01*
X131492856Y-154077200D02*
X131588094Y-153981961D01*
X131588094Y-153981961D02*
X131635713Y-153791485D01*
X131635713Y-153791485D02*
X131635713Y-153458152D01*
X131635713Y-153458152D02*
X131588094Y-153267676D01*
X131588094Y-153267676D02*
X131492856Y-153172438D01*
X131492856Y-153172438D02*
X131397618Y-153124819D01*
X130397618Y-154124819D02*
X130492856Y-154077200D01*
X130492856Y-154077200D02*
X130540475Y-153981961D01*
X130540475Y-153981961D02*
X130540475Y-153124819D01*
X115712571Y-154029580D02*
X115760190Y-154077200D01*
X115760190Y-154077200D02*
X115903047Y-154124819D01*
X115903047Y-154124819D02*
X115998285Y-154124819D01*
X115998285Y-154124819D02*
X116141142Y-154077200D01*
X116141142Y-154077200D02*
X116236380Y-153981961D01*
X116236380Y-153981961D02*
X116283999Y-153886723D01*
X116283999Y-153886723D02*
X116331618Y-153696247D01*
X116331618Y-153696247D02*
X116331618Y-153553390D01*
X116331618Y-153553390D02*
X116283999Y-153362914D01*
X116283999Y-153362914D02*
X116236380Y-153267676D01*
X116236380Y-153267676D02*
X116141142Y-153172438D01*
X116141142Y-153172438D02*
X115998285Y-153124819D01*
X115998285Y-153124819D02*
X115903047Y-153124819D01*
X115903047Y-153124819D02*
X115760190Y-153172438D01*
X115760190Y-153172438D02*
X115712571Y-153220057D01*
X115283999Y-154124819D02*
X115283999Y-153124819D01*
X115283999Y-153601009D02*
X114712571Y-153601009D01*
X114712571Y-154124819D02*
X114712571Y-153124819D01*
X114283999Y-153220057D02*
X114236380Y-153172438D01*
X114236380Y-153172438D02*
X114141142Y-153124819D01*
X114141142Y-153124819D02*
X113903047Y-153124819D01*
X113903047Y-153124819D02*
X113807809Y-153172438D01*
X113807809Y-153172438D02*
X113760190Y-153220057D01*
X113760190Y-153220057D02*
X113712571Y-153315295D01*
X113712571Y-153315295D02*
X113712571Y-153410533D01*
X113712571Y-153410533D02*
X113760190Y-153553390D01*
X113760190Y-153553390D02*
X114331618Y-154124819D01*
X114331618Y-154124819D02*
X113712571Y-154124819D01*
X112664951Y-153124819D02*
X112331618Y-154124819D01*
X112331618Y-154124819D02*
X111998285Y-153124819D01*
X111474475Y-153124819D02*
X111283999Y-153124819D01*
X111283999Y-153124819D02*
X111188761Y-153172438D01*
X111188761Y-153172438D02*
X111093523Y-153267676D01*
X111093523Y-153267676D02*
X111045904Y-153458152D01*
X111045904Y-153458152D02*
X111045904Y-153791485D01*
X111045904Y-153791485D02*
X111093523Y-153981961D01*
X111093523Y-153981961D02*
X111188761Y-154077200D01*
X111188761Y-154077200D02*
X111283999Y-154124819D01*
X111283999Y-154124819D02*
X111474475Y-154124819D01*
X111474475Y-154124819D02*
X111569713Y-154077200D01*
X111569713Y-154077200D02*
X111664951Y-153981961D01*
X111664951Y-153981961D02*
X111712570Y-153791485D01*
X111712570Y-153791485D02*
X111712570Y-153458152D01*
X111712570Y-153458152D02*
X111664951Y-153267676D01*
X111664951Y-153267676D02*
X111569713Y-153172438D01*
X111569713Y-153172438D02*
X111474475Y-153124819D01*
X110141142Y-154124819D02*
X110617332Y-154124819D01*
X110617332Y-154124819D02*
X110617332Y-153124819D01*
X96408571Y-154029580D02*
X96456190Y-154077200D01*
X96456190Y-154077200D02*
X96599047Y-154124819D01*
X96599047Y-154124819D02*
X96694285Y-154124819D01*
X96694285Y-154124819D02*
X96837142Y-154077200D01*
X96837142Y-154077200D02*
X96932380Y-153981961D01*
X96932380Y-153981961D02*
X96979999Y-153886723D01*
X96979999Y-153886723D02*
X97027618Y-153696247D01*
X97027618Y-153696247D02*
X97027618Y-153553390D01*
X97027618Y-153553390D02*
X96979999Y-153362914D01*
X96979999Y-153362914D02*
X96932380Y-153267676D01*
X96932380Y-153267676D02*
X96837142Y-153172438D01*
X96837142Y-153172438D02*
X96694285Y-153124819D01*
X96694285Y-153124819D02*
X96599047Y-153124819D01*
X96599047Y-153124819D02*
X96456190Y-153172438D01*
X96456190Y-153172438D02*
X96408571Y-153220057D01*
X95979999Y-154124819D02*
X95979999Y-153124819D01*
X95979999Y-153601009D02*
X95408571Y-153601009D01*
X95408571Y-154124819D02*
X95408571Y-153124819D01*
X94408571Y-154124819D02*
X94979999Y-154124819D01*
X94694285Y-154124819D02*
X94694285Y-153124819D01*
X94694285Y-153124819D02*
X94789523Y-153267676D01*
X94789523Y-153267676D02*
X94884761Y-153362914D01*
X94884761Y-153362914D02*
X94979999Y-153410533D01*
X93360951Y-153124819D02*
X93027618Y-154124819D01*
X93027618Y-154124819D02*
X92694285Y-153124819D01*
X92170475Y-153124819D02*
X91979999Y-153124819D01*
X91979999Y-153124819D02*
X91884761Y-153172438D01*
X91884761Y-153172438D02*
X91789523Y-153267676D01*
X91789523Y-153267676D02*
X91741904Y-153458152D01*
X91741904Y-153458152D02*
X91741904Y-153791485D01*
X91741904Y-153791485D02*
X91789523Y-153981961D01*
X91789523Y-153981961D02*
X91884761Y-154077200D01*
X91884761Y-154077200D02*
X91979999Y-154124819D01*
X91979999Y-154124819D02*
X92170475Y-154124819D01*
X92170475Y-154124819D02*
X92265713Y-154077200D01*
X92265713Y-154077200D02*
X92360951Y-153981961D01*
X92360951Y-153981961D02*
X92408570Y-153791485D01*
X92408570Y-153791485D02*
X92408570Y-153458152D01*
X92408570Y-153458152D02*
X92360951Y-153267676D01*
X92360951Y-153267676D02*
X92265713Y-153172438D01*
X92265713Y-153172438D02*
X92170475Y-153124819D01*
X90837142Y-154124819D02*
X91313332Y-154124819D01*
X91313332Y-154124819D02*
X91313332Y-153124819D01*
X175831142Y-102054819D02*
X175831142Y-101054819D01*
X175831142Y-101054819D02*
X175497809Y-101769104D01*
X175497809Y-101769104D02*
X175164476Y-101054819D01*
X175164476Y-101054819D02*
X175164476Y-102054819D01*
X174688285Y-102054819D02*
X174688285Y-101054819D01*
X174307333Y-101054819D02*
X173640667Y-102054819D01*
X173640667Y-101054819D02*
X174307333Y-102054819D01*
X172307333Y-101054819D02*
X172116857Y-101054819D01*
X172116857Y-101054819D02*
X172021619Y-101102438D01*
X172021619Y-101102438D02*
X171926381Y-101197676D01*
X171926381Y-101197676D02*
X171878762Y-101388152D01*
X171878762Y-101388152D02*
X171878762Y-101721485D01*
X171878762Y-101721485D02*
X171926381Y-101911961D01*
X171926381Y-101911961D02*
X172021619Y-102007200D01*
X172021619Y-102007200D02*
X172116857Y-102054819D01*
X172116857Y-102054819D02*
X172307333Y-102054819D01*
X172307333Y-102054819D02*
X172402571Y-102007200D01*
X172402571Y-102007200D02*
X172497809Y-101911961D01*
X172497809Y-101911961D02*
X172545428Y-101721485D01*
X172545428Y-101721485D02*
X172545428Y-101388152D01*
X172545428Y-101388152D02*
X172497809Y-101197676D01*
X172497809Y-101197676D02*
X172402571Y-101102438D01*
X172402571Y-101102438D02*
X172307333Y-101054819D01*
X171450190Y-101054819D02*
X171450190Y-101864342D01*
X171450190Y-101864342D02*
X171402571Y-101959580D01*
X171402571Y-101959580D02*
X171354952Y-102007200D01*
X171354952Y-102007200D02*
X171259714Y-102054819D01*
X171259714Y-102054819D02*
X171069238Y-102054819D01*
X171069238Y-102054819D02*
X170974000Y-102007200D01*
X170974000Y-102007200D02*
X170926381Y-101959580D01*
X170926381Y-101959580D02*
X170878762Y-101864342D01*
X170878762Y-101864342D02*
X170878762Y-101054819D01*
X170545428Y-101054819D02*
X169974000Y-101054819D01*
X170259714Y-102054819D02*
X170259714Y-101054819D01*
X154868333Y-101959580D02*
X154915952Y-102007200D01*
X154915952Y-102007200D02*
X155058809Y-102054819D01*
X155058809Y-102054819D02*
X155154047Y-102054819D01*
X155154047Y-102054819D02*
X155296904Y-102007200D01*
X155296904Y-102007200D02*
X155392142Y-101911961D01*
X155392142Y-101911961D02*
X155439761Y-101816723D01*
X155439761Y-101816723D02*
X155487380Y-101626247D01*
X155487380Y-101626247D02*
X155487380Y-101483390D01*
X155487380Y-101483390D02*
X155439761Y-101292914D01*
X155439761Y-101292914D02*
X155392142Y-101197676D01*
X155392142Y-101197676D02*
X155296904Y-101102438D01*
X155296904Y-101102438D02*
X155154047Y-101054819D01*
X155154047Y-101054819D02*
X155058809Y-101054819D01*
X155058809Y-101054819D02*
X154915952Y-101102438D01*
X154915952Y-101102438D02*
X154868333Y-101150057D01*
X154439761Y-102054819D02*
X154439761Y-101054819D01*
X154439761Y-101531009D02*
X153868333Y-101531009D01*
X153868333Y-102054819D02*
X153868333Y-101054819D01*
X152963571Y-101388152D02*
X152963571Y-102054819D01*
X153201666Y-101007200D02*
X153439761Y-101721485D01*
X153439761Y-101721485D02*
X152820714Y-101721485D01*
X151677856Y-102054819D02*
X151677856Y-101054819D01*
X151201666Y-102054819D02*
X151201666Y-101054819D01*
X151201666Y-101054819D02*
X150630238Y-102054819D01*
X150630238Y-102054819D02*
X150630238Y-101054819D01*
X135183333Y-101959580D02*
X135230952Y-102007200D01*
X135230952Y-102007200D02*
X135373809Y-102054819D01*
X135373809Y-102054819D02*
X135469047Y-102054819D01*
X135469047Y-102054819D02*
X135611904Y-102007200D01*
X135611904Y-102007200D02*
X135707142Y-101911961D01*
X135707142Y-101911961D02*
X135754761Y-101816723D01*
X135754761Y-101816723D02*
X135802380Y-101626247D01*
X135802380Y-101626247D02*
X135802380Y-101483390D01*
X135802380Y-101483390D02*
X135754761Y-101292914D01*
X135754761Y-101292914D02*
X135707142Y-101197676D01*
X135707142Y-101197676D02*
X135611904Y-101102438D01*
X135611904Y-101102438D02*
X135469047Y-101054819D01*
X135469047Y-101054819D02*
X135373809Y-101054819D01*
X135373809Y-101054819D02*
X135230952Y-101102438D01*
X135230952Y-101102438D02*
X135183333Y-101150057D01*
X134754761Y-102054819D02*
X134754761Y-101054819D01*
X134754761Y-101531009D02*
X134183333Y-101531009D01*
X134183333Y-102054819D02*
X134183333Y-101054819D01*
X133802380Y-101054819D02*
X133183333Y-101054819D01*
X133183333Y-101054819D02*
X133516666Y-101435771D01*
X133516666Y-101435771D02*
X133373809Y-101435771D01*
X133373809Y-101435771D02*
X133278571Y-101483390D01*
X133278571Y-101483390D02*
X133230952Y-101531009D01*
X133230952Y-101531009D02*
X133183333Y-101626247D01*
X133183333Y-101626247D02*
X133183333Y-101864342D01*
X133183333Y-101864342D02*
X133230952Y-101959580D01*
X133230952Y-101959580D02*
X133278571Y-102007200D01*
X133278571Y-102007200D02*
X133373809Y-102054819D01*
X133373809Y-102054819D02*
X133659523Y-102054819D01*
X133659523Y-102054819D02*
X133754761Y-102007200D01*
X133754761Y-102007200D02*
X133802380Y-101959580D01*
X131992856Y-102054819D02*
X131992856Y-101054819D01*
X131516666Y-102054819D02*
X131516666Y-101054819D01*
X131516666Y-101054819D02*
X130945238Y-102054819D01*
X130945238Y-102054819D02*
X130945238Y-101054819D01*
X115371333Y-101959580D02*
X115418952Y-102007200D01*
X115418952Y-102007200D02*
X115561809Y-102054819D01*
X115561809Y-102054819D02*
X115657047Y-102054819D01*
X115657047Y-102054819D02*
X115799904Y-102007200D01*
X115799904Y-102007200D02*
X115895142Y-101911961D01*
X115895142Y-101911961D02*
X115942761Y-101816723D01*
X115942761Y-101816723D02*
X115990380Y-101626247D01*
X115990380Y-101626247D02*
X115990380Y-101483390D01*
X115990380Y-101483390D02*
X115942761Y-101292914D01*
X115942761Y-101292914D02*
X115895142Y-101197676D01*
X115895142Y-101197676D02*
X115799904Y-101102438D01*
X115799904Y-101102438D02*
X115657047Y-101054819D01*
X115657047Y-101054819D02*
X115561809Y-101054819D01*
X115561809Y-101054819D02*
X115418952Y-101102438D01*
X115418952Y-101102438D02*
X115371333Y-101150057D01*
X114942761Y-102054819D02*
X114942761Y-101054819D01*
X114942761Y-101531009D02*
X114371333Y-101531009D01*
X114371333Y-102054819D02*
X114371333Y-101054819D01*
X113942761Y-101150057D02*
X113895142Y-101102438D01*
X113895142Y-101102438D02*
X113799904Y-101054819D01*
X113799904Y-101054819D02*
X113561809Y-101054819D01*
X113561809Y-101054819D02*
X113466571Y-101102438D01*
X113466571Y-101102438D02*
X113418952Y-101150057D01*
X113418952Y-101150057D02*
X113371333Y-101245295D01*
X113371333Y-101245295D02*
X113371333Y-101340533D01*
X113371333Y-101340533D02*
X113418952Y-101483390D01*
X113418952Y-101483390D02*
X113990380Y-102054819D01*
X113990380Y-102054819D02*
X113371333Y-102054819D01*
X112180856Y-102054819D02*
X112180856Y-101054819D01*
X111704666Y-102054819D02*
X111704666Y-101054819D01*
X111704666Y-101054819D02*
X111133238Y-102054819D01*
X111133238Y-102054819D02*
X111133238Y-101054819D01*
X95813333Y-101959580D02*
X95860952Y-102007200D01*
X95860952Y-102007200D02*
X96003809Y-102054819D01*
X96003809Y-102054819D02*
X96099047Y-102054819D01*
X96099047Y-102054819D02*
X96241904Y-102007200D01*
X96241904Y-102007200D02*
X96337142Y-101911961D01*
X96337142Y-101911961D02*
X96384761Y-101816723D01*
X96384761Y-101816723D02*
X96432380Y-101626247D01*
X96432380Y-101626247D02*
X96432380Y-101483390D01*
X96432380Y-101483390D02*
X96384761Y-101292914D01*
X96384761Y-101292914D02*
X96337142Y-101197676D01*
X96337142Y-101197676D02*
X96241904Y-101102438D01*
X96241904Y-101102438D02*
X96099047Y-101054819D01*
X96099047Y-101054819D02*
X96003809Y-101054819D01*
X96003809Y-101054819D02*
X95860952Y-101102438D01*
X95860952Y-101102438D02*
X95813333Y-101150057D01*
X95384761Y-102054819D02*
X95384761Y-101054819D01*
X95384761Y-101531009D02*
X94813333Y-101531009D01*
X94813333Y-102054819D02*
X94813333Y-101054819D01*
X93813333Y-102054819D02*
X94384761Y-102054819D01*
X94099047Y-102054819D02*
X94099047Y-101054819D01*
X94099047Y-101054819D02*
X94194285Y-101197676D01*
X94194285Y-101197676D02*
X94289523Y-101292914D01*
X94289523Y-101292914D02*
X94384761Y-101340533D01*
X92622856Y-102054819D02*
X92622856Y-101054819D01*
X92146666Y-102054819D02*
X92146666Y-101054819D01*
X92146666Y-101054819D02*
X91575238Y-102054819D01*
X91575238Y-102054819D02*
X91575238Y-101054819D01*
M02*
