%TF.GenerationSoftware,KiCad,Pcbnew,8.0.1*%
%TF.CreationDate,2024-04-01T22:35:21+01:00*%
%TF.ProjectId,Tiny4xPoweredStereoMixer,54696e79-3478-4506-9f77-657265645374,B*%
%TF.SameCoordinates,Original*%
%TF.FileFunction,Soldermask,Top*%
%TF.FilePolarity,Negative*%
%FSLAX46Y46*%
G04 Gerber Fmt 4.6, Leading zero omitted, Abs format (unit mm)*
G04 Created by KiCad (PCBNEW 8.0.1) date 2024-04-01 22:35:21*
%MOMM*%
%LPD*%
G01*
G04 APERTURE LIST*
G04 Aperture macros list*
%AMRoundRect*
0 Rectangle with rounded corners*
0 $1 Rounding radius*
0 $2 $3 $4 $5 $6 $7 $8 $9 X,Y pos of 4 corners*
0 Add a 4 corners polygon primitive as box body*
4,1,4,$2,$3,$4,$5,$6,$7,$8,$9,$2,$3,0*
0 Add four circle primitives for the rounded corners*
1,1,$1+$1,$2,$3*
1,1,$1+$1,$4,$5*
1,1,$1+$1,$6,$7*
1,1,$1+$1,$8,$9*
0 Add four rect primitives between the rounded corners*
20,1,$1+$1,$2,$3,$4,$5,0*
20,1,$1+$1,$4,$5,$6,$7,0*
20,1,$1+$1,$6,$7,$8,$9,0*
20,1,$1+$1,$8,$9,$2,$3,0*%
G04 Aperture macros list end*
%ADD10C,2.800000*%
%ADD11RoundRect,0.250000X0.450000X-0.350000X0.450000X0.350000X-0.450000X0.350000X-0.450000X-0.350000X0*%
%ADD12RoundRect,0.250000X-0.350000X-0.450000X0.350000X-0.450000X0.350000X0.450000X-0.350000X0.450000X0*%
%ADD13O,2.800000X1.800000*%
%ADD14RoundRect,0.237500X-0.237500X0.300000X-0.237500X-0.300000X0.237500X-0.300000X0.237500X0.300000X0*%
%ADD15RoundRect,0.237500X-0.300000X-0.237500X0.300000X-0.237500X0.300000X0.237500X-0.300000X0.237500X0*%
%ADD16RoundRect,0.250000X1.100000X-0.412500X1.100000X0.412500X-1.100000X0.412500X-1.100000X-0.412500X0*%
%ADD17O,2.000000X2.100000*%
%ADD18C,1.524000*%
%ADD19R,1.700000X1.700000*%
%ADD20O,1.700000X1.700000*%
%ADD21C,3.000000*%
%ADD22RoundRect,0.237500X0.237500X-0.300000X0.237500X0.300000X-0.237500X0.300000X-0.237500X-0.300000X0*%
%ADD23RoundRect,0.150000X0.150000X-0.825000X0.150000X0.825000X-0.150000X0.825000X-0.150000X-0.825000X0*%
%ADD24RoundRect,0.150000X-0.512500X-0.150000X0.512500X-0.150000X0.512500X0.150000X-0.512500X0.150000X0*%
%ADD25RoundRect,0.250000X0.412500X1.100000X-0.412500X1.100000X-0.412500X-1.100000X0.412500X-1.100000X0*%
%ADD26RoundRect,0.250000X-0.620000X-0.845000X0.620000X-0.845000X0.620000X0.845000X-0.620000X0.845000X0*%
%ADD27O,1.740000X2.190000*%
%ADD28RoundRect,0.250000X-0.500000X0.950000X-0.500000X-0.950000X0.500000X-0.950000X0.500000X0.950000X0*%
%ADD29RoundRect,0.250000X-0.500000X0.275000X-0.500000X-0.275000X0.500000X-0.275000X0.500000X0.275000X0*%
%ADD30R,1.750000X4.500000*%
%ADD31RoundRect,0.250000X0.337500X0.475000X-0.337500X0.475000X-0.337500X-0.475000X0.337500X-0.475000X0*%
G04 APERTURE END LIST*
D10*
%TO.C,TP1*%
X148590000Y-82804000D03*
%TD*%
D11*
%TO.C,R4*%
X108712000Y-93964000D03*
X108712000Y-91964000D03*
%TD*%
D12*
%TO.C,RFB2*%
X190007400Y-86995000D03*
X192007400Y-86995000D03*
%TD*%
D13*
%TO.C,J2*%
X135604000Y-60488000D03*
X133604000Y-58688000D03*
X133604000Y-52588000D03*
X135604000Y-54988000D03*
X133604000Y-64188000D03*
%TD*%
D14*
%TO.C,C9*%
X177392500Y-70612000D03*
X177392500Y-72337000D03*
%TD*%
D15*
%TO.C,C15*%
X199543500Y-104013000D03*
X201268500Y-104013000D03*
%TD*%
D11*
%TO.C,R2*%
X148336000Y-93964000D03*
X148336000Y-91964000D03*
%TD*%
D16*
%TO.C,C19*%
X200406000Y-64808500D03*
X200406000Y-61683500D03*
%TD*%
D17*
%TO.C,RV2*%
X126492000Y-100459000D03*
X140692000Y-100459000D03*
D18*
X132592000Y-103759000D03*
X134592000Y-103759000D03*
X136592000Y-103759000D03*
X130592000Y-103759000D03*
X128592000Y-103759000D03*
X138592000Y-103759000D03*
%TD*%
D19*
%TO.C,J8*%
X181610000Y-86990000D03*
D20*
X181610000Y-89530000D03*
%TD*%
D13*
%TO.C,J1*%
X115692000Y-60474000D03*
X113692000Y-58674000D03*
X113692000Y-52574000D03*
X115692000Y-54974000D03*
X113692000Y-64174000D03*
%TD*%
D16*
%TO.C,C20*%
X183134000Y-63538500D03*
X183134000Y-60413500D03*
%TD*%
D21*
%TO.C,H1*%
X124460000Y-81280000D03*
%TD*%
%TO.C,H2*%
X167640000Y-81280000D03*
%TD*%
D22*
%TO.C,C8*%
X200279000Y-77189500D03*
X200279000Y-75464500D03*
%TD*%
D11*
%TO.C,R3*%
X128524000Y-93964000D03*
X128524000Y-91964000D03*
%TD*%
D14*
%TO.C,C13*%
X192151000Y-70691500D03*
X192151000Y-72416500D03*
%TD*%
%TO.C,C6*%
X185166000Y-76353500D03*
X185166000Y-78078500D03*
%TD*%
%TO.C,C16*%
X184912000Y-99010300D03*
X184912000Y-100735300D03*
%TD*%
D11*
%TO.C,R14*%
X192151000Y-76718500D03*
X192151000Y-74718500D03*
%TD*%
D23*
%TO.C,U2*%
X194310000Y-76415500D03*
X195580000Y-76415500D03*
X196850000Y-76415500D03*
X198120000Y-76415500D03*
X198120000Y-71465500D03*
X196850000Y-71465500D03*
X195580000Y-71465500D03*
X194310000Y-71465500D03*
%TD*%
D11*
%TO.C,R15*%
X200152000Y-73351500D03*
X200152000Y-71351500D03*
%TD*%
D19*
%TO.C,J7*%
X199263000Y-86741000D03*
D20*
X196723000Y-86741000D03*
%TD*%
D13*
%TO.C,J9*%
X194940000Y-60488000D03*
X192940000Y-58688000D03*
X192940000Y-52588000D03*
X194940000Y-54988000D03*
X192940000Y-64188000D03*
%TD*%
D24*
%TO.C,U6*%
X193933900Y-95722400D03*
X193933900Y-96672400D03*
X193933900Y-97622400D03*
X196208900Y-97622400D03*
X196208900Y-95722400D03*
%TD*%
D25*
%TO.C,C2*%
X193585900Y-91592400D03*
X190460900Y-91592400D03*
%TD*%
D11*
%TO.C,R13*%
X189738000Y-78724000D03*
X189738000Y-76724000D03*
%TD*%
D17*
%TO.C,RV3*%
X146236000Y-100459000D03*
X160436000Y-100459000D03*
D18*
X152336000Y-103759000D03*
X154336000Y-103759000D03*
X156336000Y-103759000D03*
X150336000Y-103759000D03*
X148336000Y-103759000D03*
X158336000Y-103759000D03*
%TD*%
D11*
%TO.C,R9*%
X175006000Y-78724000D03*
X175006000Y-76724000D03*
%TD*%
%TO.C,R10*%
X185420000Y-73390000D03*
X185420000Y-71390000D03*
%TD*%
D26*
%TO.C,J6*%
X189357000Y-103652000D03*
D27*
X191897000Y-103652000D03*
%TD*%
D17*
%TO.C,RV4*%
X166001000Y-100459000D03*
X180201000Y-100459000D03*
D18*
X172101000Y-103759000D03*
X174101000Y-103759000D03*
X176101000Y-103759000D03*
X170101000Y-103759000D03*
X168101000Y-103759000D03*
X178101000Y-103759000D03*
%TD*%
D16*
%TO.C,C1*%
X200342500Y-101981000D03*
X200342500Y-98856000D03*
%TD*%
D12*
%TO.C,RFB1*%
X185197400Y-86995000D03*
X187197400Y-86995000D03*
%TD*%
D11*
%TO.C,R7*%
X134620000Y-84042000D03*
X134620000Y-82042000D03*
%TD*%
D17*
%TO.C,RV1*%
X106692000Y-100459000D03*
X120892000Y-100459000D03*
D18*
X112792000Y-103759000D03*
X114792000Y-103759000D03*
X116792000Y-103759000D03*
X110792000Y-103759000D03*
X108792000Y-103759000D03*
X118792000Y-103759000D03*
%TD*%
D28*
%TO.C,D1*%
X190245400Y-98171000D03*
D29*
X190245400Y-95796000D03*
%TD*%
D11*
%TO.C,R5*%
X175006000Y-82788000D03*
X175006000Y-80788000D03*
%TD*%
D23*
%TO.C,U1*%
X179551500Y-76389000D03*
X180821500Y-76389000D03*
X182091500Y-76389000D03*
X183361500Y-76389000D03*
X183361500Y-71439000D03*
X182091500Y-71439000D03*
X180821500Y-71439000D03*
X179551500Y-71439000D03*
%TD*%
D30*
%TO.C,L2*%
X188060400Y-91592400D03*
X184810400Y-91592400D03*
%TD*%
%TO.C,L1*%
X199236400Y-91592400D03*
X195986400Y-91592400D03*
%TD*%
D25*
%TO.C,C4*%
X187706000Y-96393000D03*
X184581000Y-96393000D03*
%TD*%
D11*
%TO.C,R12*%
X177392500Y-76676000D03*
X177392500Y-74676000D03*
%TD*%
%TO.C,R6*%
X154178000Y-84058000D03*
X154178000Y-82058000D03*
%TD*%
D31*
%TO.C,C3*%
X187234900Y-84836000D03*
X185159900Y-84836000D03*
%TD*%
D13*
%TO.C,J3*%
X155316000Y-60488000D03*
X153316000Y-58688000D03*
X153316000Y-52588000D03*
X155316000Y-54988000D03*
X153316000Y-64188000D03*
%TD*%
D11*
%TO.C,R1*%
X168148000Y-93964000D03*
X168148000Y-91964000D03*
%TD*%
%TO.C,R8*%
X114808000Y-84058000D03*
X114808000Y-82058000D03*
%TD*%
%TO.C,R11*%
X196088000Y-102613000D03*
X196088000Y-100613000D03*
%TD*%
D13*
%TO.C,J4*%
X175101000Y-60488000D03*
X173101000Y-58688000D03*
X173101000Y-52588000D03*
X175101000Y-54988000D03*
X173101000Y-64188000D03*
%TD*%
M02*
