%TF.GenerationSoftware,KiCad,Pcbnew,8.0.1*%
%TF.CreationDate,2024-04-01T22:35:21+01:00*%
%TF.ProjectId,Tiny4xPoweredStereoMixer,54696e79-3478-4506-9f77-657265645374,B*%
%TF.SameCoordinates,Original*%
%TF.FileFunction,Legend,Bot*%
%TF.FilePolarity,Positive*%
%FSLAX46Y46*%
G04 Gerber Fmt 4.6, Leading zero omitted, Abs format (unit mm)*
G04 Created by KiCad (PCBNEW 8.0.1) date 2024-04-01 22:35:21*
%MOMM*%
%LPD*%
G01*
G04 APERTURE LIST*
%ADD10C,0.300000*%
%ADD11C,0.120000*%
G04 APERTURE END LIST*
D10*
X114941844Y-68433750D02*
X116084701Y-68433750D01*
X115513272Y-70433750D02*
X115513272Y-68433750D01*
X116751368Y-70433750D02*
X116751368Y-69100416D01*
X116751368Y-68433750D02*
X116656130Y-68528988D01*
X116656130Y-68528988D02*
X116751368Y-68624226D01*
X116751368Y-68624226D02*
X116846606Y-68528988D01*
X116846606Y-68528988D02*
X116751368Y-68433750D01*
X116751368Y-68433750D02*
X116751368Y-68624226D01*
X117703749Y-69100416D02*
X117703749Y-70433750D01*
X117703749Y-69290892D02*
X117798987Y-69195654D01*
X117798987Y-69195654D02*
X117989463Y-69100416D01*
X117989463Y-69100416D02*
X118275178Y-69100416D01*
X118275178Y-69100416D02*
X118465654Y-69195654D01*
X118465654Y-69195654D02*
X118560892Y-69386131D01*
X118560892Y-69386131D02*
X118560892Y-70433750D01*
X119322797Y-69100416D02*
X119798987Y-70433750D01*
X120275178Y-69100416D02*
X119798987Y-70433750D01*
X119798987Y-70433750D02*
X119608511Y-70909940D01*
X119608511Y-70909940D02*
X119513273Y-71005178D01*
X119513273Y-71005178D02*
X119322797Y-71100416D01*
X123418036Y-69100416D02*
X123418036Y-70433750D01*
X122941845Y-68338512D02*
X122465655Y-69767083D01*
X122465655Y-69767083D02*
X123703750Y-69767083D01*
X124465655Y-69671845D02*
X125989465Y-69671845D01*
X128084702Y-70243273D02*
X127989464Y-70338512D01*
X127989464Y-70338512D02*
X127703750Y-70433750D01*
X127703750Y-70433750D02*
X127513274Y-70433750D01*
X127513274Y-70433750D02*
X127227559Y-70338512D01*
X127227559Y-70338512D02*
X127037083Y-70148035D01*
X127037083Y-70148035D02*
X126941845Y-69957559D01*
X126941845Y-69957559D02*
X126846607Y-69576607D01*
X126846607Y-69576607D02*
X126846607Y-69290892D01*
X126846607Y-69290892D02*
X126941845Y-68909940D01*
X126941845Y-68909940D02*
X127037083Y-68719464D01*
X127037083Y-68719464D02*
X127227559Y-68528988D01*
X127227559Y-68528988D02*
X127513274Y-68433750D01*
X127513274Y-68433750D02*
X127703750Y-68433750D01*
X127703750Y-68433750D02*
X127989464Y-68528988D01*
X127989464Y-68528988D02*
X128084702Y-68624226D01*
X128941845Y-70433750D02*
X128941845Y-68433750D01*
X129798988Y-70433750D02*
X129798988Y-69386131D01*
X129798988Y-69386131D02*
X129703750Y-69195654D01*
X129703750Y-69195654D02*
X129513274Y-69100416D01*
X129513274Y-69100416D02*
X129227559Y-69100416D01*
X129227559Y-69100416D02*
X129037083Y-69195654D01*
X129037083Y-69195654D02*
X128941845Y-69290892D01*
X131608512Y-70433750D02*
X131608512Y-69386131D01*
X131608512Y-69386131D02*
X131513274Y-69195654D01*
X131513274Y-69195654D02*
X131322798Y-69100416D01*
X131322798Y-69100416D02*
X130941845Y-69100416D01*
X130941845Y-69100416D02*
X130751369Y-69195654D01*
X131608512Y-70338512D02*
X131418036Y-70433750D01*
X131418036Y-70433750D02*
X130941845Y-70433750D01*
X130941845Y-70433750D02*
X130751369Y-70338512D01*
X130751369Y-70338512D02*
X130656131Y-70148035D01*
X130656131Y-70148035D02*
X130656131Y-69957559D01*
X130656131Y-69957559D02*
X130751369Y-69767083D01*
X130751369Y-69767083D02*
X130941845Y-69671845D01*
X130941845Y-69671845D02*
X131418036Y-69671845D01*
X131418036Y-69671845D02*
X131608512Y-69576607D01*
X132560893Y-69100416D02*
X132560893Y-70433750D01*
X132560893Y-69290892D02*
X132656131Y-69195654D01*
X132656131Y-69195654D02*
X132846607Y-69100416D01*
X132846607Y-69100416D02*
X133132322Y-69100416D01*
X133132322Y-69100416D02*
X133322798Y-69195654D01*
X133322798Y-69195654D02*
X133418036Y-69386131D01*
X133418036Y-69386131D02*
X133418036Y-70433750D01*
X134370417Y-69100416D02*
X134370417Y-70433750D01*
X134370417Y-69290892D02*
X134465655Y-69195654D01*
X134465655Y-69195654D02*
X134656131Y-69100416D01*
X134656131Y-69100416D02*
X134941846Y-69100416D01*
X134941846Y-69100416D02*
X135132322Y-69195654D01*
X135132322Y-69195654D02*
X135227560Y-69386131D01*
X135227560Y-69386131D02*
X135227560Y-70433750D01*
X136941846Y-70338512D02*
X136751370Y-70433750D01*
X136751370Y-70433750D02*
X136370417Y-70433750D01*
X136370417Y-70433750D02*
X136179941Y-70338512D01*
X136179941Y-70338512D02*
X136084703Y-70148035D01*
X136084703Y-70148035D02*
X136084703Y-69386131D01*
X136084703Y-69386131D02*
X136179941Y-69195654D01*
X136179941Y-69195654D02*
X136370417Y-69100416D01*
X136370417Y-69100416D02*
X136751370Y-69100416D01*
X136751370Y-69100416D02*
X136941846Y-69195654D01*
X136941846Y-69195654D02*
X137037084Y-69386131D01*
X137037084Y-69386131D02*
X137037084Y-69576607D01*
X137037084Y-69576607D02*
X136084703Y-69767083D01*
X138179941Y-70433750D02*
X137989465Y-70338512D01*
X137989465Y-70338512D02*
X137894227Y-70148035D01*
X137894227Y-70148035D02*
X137894227Y-68433750D01*
X140370418Y-69862321D02*
X141322799Y-69862321D01*
X140179942Y-70433750D02*
X140846608Y-68433750D01*
X140846608Y-68433750D02*
X141513275Y-70433750D01*
X143037085Y-70338512D02*
X142846609Y-70433750D01*
X142846609Y-70433750D02*
X142465656Y-70433750D01*
X142465656Y-70433750D02*
X142275180Y-70338512D01*
X142275180Y-70338512D02*
X142179942Y-70243273D01*
X142179942Y-70243273D02*
X142084704Y-70052797D01*
X142084704Y-70052797D02*
X142084704Y-69481369D01*
X142084704Y-69481369D02*
X142179942Y-69290892D01*
X142179942Y-69290892D02*
X142275180Y-69195654D01*
X142275180Y-69195654D02*
X142465656Y-69100416D01*
X142465656Y-69100416D02*
X142846609Y-69100416D01*
X142846609Y-69100416D02*
X143037085Y-69195654D01*
X143608514Y-69100416D02*
X144370418Y-69100416D01*
X143894228Y-68433750D02*
X143894228Y-70148035D01*
X143894228Y-70148035D02*
X143989466Y-70338512D01*
X143989466Y-70338512D02*
X144179942Y-70433750D01*
X144179942Y-70433750D02*
X144370418Y-70433750D01*
X145037085Y-70433750D02*
X145037085Y-69100416D01*
X145037085Y-68433750D02*
X144941847Y-68528988D01*
X144941847Y-68528988D02*
X145037085Y-68624226D01*
X145037085Y-68624226D02*
X145132323Y-68528988D01*
X145132323Y-68528988D02*
X145037085Y-68433750D01*
X145037085Y-68433750D02*
X145037085Y-68624226D01*
X145798990Y-69100416D02*
X146275180Y-70433750D01*
X146275180Y-70433750D02*
X146751371Y-69100416D01*
X148275181Y-70338512D02*
X148084705Y-70433750D01*
X148084705Y-70433750D02*
X147703752Y-70433750D01*
X147703752Y-70433750D02*
X147513276Y-70338512D01*
X147513276Y-70338512D02*
X147418038Y-70148035D01*
X147418038Y-70148035D02*
X147418038Y-69386131D01*
X147418038Y-69386131D02*
X147513276Y-69195654D01*
X147513276Y-69195654D02*
X147703752Y-69100416D01*
X147703752Y-69100416D02*
X148084705Y-69100416D01*
X148084705Y-69100416D02*
X148275181Y-69195654D01*
X148275181Y-69195654D02*
X148370419Y-69386131D01*
X148370419Y-69386131D02*
X148370419Y-69576607D01*
X148370419Y-69576607D02*
X147418038Y-69767083D01*
X150656134Y-70338512D02*
X150941848Y-70433750D01*
X150941848Y-70433750D02*
X151418039Y-70433750D01*
X151418039Y-70433750D02*
X151608515Y-70338512D01*
X151608515Y-70338512D02*
X151703753Y-70243273D01*
X151703753Y-70243273D02*
X151798991Y-70052797D01*
X151798991Y-70052797D02*
X151798991Y-69862321D01*
X151798991Y-69862321D02*
X151703753Y-69671845D01*
X151703753Y-69671845D02*
X151608515Y-69576607D01*
X151608515Y-69576607D02*
X151418039Y-69481369D01*
X151418039Y-69481369D02*
X151037086Y-69386131D01*
X151037086Y-69386131D02*
X150846610Y-69290892D01*
X150846610Y-69290892D02*
X150751372Y-69195654D01*
X150751372Y-69195654D02*
X150656134Y-69005178D01*
X150656134Y-69005178D02*
X150656134Y-68814702D01*
X150656134Y-68814702D02*
X150751372Y-68624226D01*
X150751372Y-68624226D02*
X150846610Y-68528988D01*
X150846610Y-68528988D02*
X151037086Y-68433750D01*
X151037086Y-68433750D02*
X151513277Y-68433750D01*
X151513277Y-68433750D02*
X151798991Y-68528988D01*
X152370420Y-69100416D02*
X153132324Y-69100416D01*
X152656134Y-68433750D02*
X152656134Y-70148035D01*
X152656134Y-70148035D02*
X152751372Y-70338512D01*
X152751372Y-70338512D02*
X152941848Y-70433750D01*
X152941848Y-70433750D02*
X153132324Y-70433750D01*
X154560896Y-70338512D02*
X154370420Y-70433750D01*
X154370420Y-70433750D02*
X153989467Y-70433750D01*
X153989467Y-70433750D02*
X153798991Y-70338512D01*
X153798991Y-70338512D02*
X153703753Y-70148035D01*
X153703753Y-70148035D02*
X153703753Y-69386131D01*
X153703753Y-69386131D02*
X153798991Y-69195654D01*
X153798991Y-69195654D02*
X153989467Y-69100416D01*
X153989467Y-69100416D02*
X154370420Y-69100416D01*
X154370420Y-69100416D02*
X154560896Y-69195654D01*
X154560896Y-69195654D02*
X154656134Y-69386131D01*
X154656134Y-69386131D02*
X154656134Y-69576607D01*
X154656134Y-69576607D02*
X153703753Y-69767083D01*
X155513277Y-70433750D02*
X155513277Y-69100416D01*
X155513277Y-69481369D02*
X155608515Y-69290892D01*
X155608515Y-69290892D02*
X155703753Y-69195654D01*
X155703753Y-69195654D02*
X155894229Y-69100416D01*
X155894229Y-69100416D02*
X156084706Y-69100416D01*
X157513277Y-70338512D02*
X157322801Y-70433750D01*
X157322801Y-70433750D02*
X156941848Y-70433750D01*
X156941848Y-70433750D02*
X156751372Y-70338512D01*
X156751372Y-70338512D02*
X156656134Y-70148035D01*
X156656134Y-70148035D02*
X156656134Y-69386131D01*
X156656134Y-69386131D02*
X156751372Y-69195654D01*
X156751372Y-69195654D02*
X156941848Y-69100416D01*
X156941848Y-69100416D02*
X157322801Y-69100416D01*
X157322801Y-69100416D02*
X157513277Y-69195654D01*
X157513277Y-69195654D02*
X157608515Y-69386131D01*
X157608515Y-69386131D02*
X157608515Y-69576607D01*
X157608515Y-69576607D02*
X156656134Y-69767083D01*
X158751372Y-70433750D02*
X158560896Y-70338512D01*
X158560896Y-70338512D02*
X158465658Y-70243273D01*
X158465658Y-70243273D02*
X158370420Y-70052797D01*
X158370420Y-70052797D02*
X158370420Y-69481369D01*
X158370420Y-69481369D02*
X158465658Y-69290892D01*
X158465658Y-69290892D02*
X158560896Y-69195654D01*
X158560896Y-69195654D02*
X158751372Y-69100416D01*
X158751372Y-69100416D02*
X159037087Y-69100416D01*
X159037087Y-69100416D02*
X159227563Y-69195654D01*
X159227563Y-69195654D02*
X159322801Y-69290892D01*
X159322801Y-69290892D02*
X159418039Y-69481369D01*
X159418039Y-69481369D02*
X159418039Y-70052797D01*
X159418039Y-70052797D02*
X159322801Y-70243273D01*
X159322801Y-70243273D02*
X159227563Y-70338512D01*
X159227563Y-70338512D02*
X159037087Y-70433750D01*
X159037087Y-70433750D02*
X158751372Y-70433750D01*
X161798992Y-70433750D02*
X161798992Y-68433750D01*
X161798992Y-68433750D02*
X162465659Y-69862321D01*
X162465659Y-69862321D02*
X163132325Y-68433750D01*
X163132325Y-68433750D02*
X163132325Y-70433750D01*
X164084706Y-70433750D02*
X164084706Y-69100416D01*
X164084706Y-68433750D02*
X163989468Y-68528988D01*
X163989468Y-68528988D02*
X164084706Y-68624226D01*
X164084706Y-68624226D02*
X164179944Y-68528988D01*
X164179944Y-68528988D02*
X164084706Y-68433750D01*
X164084706Y-68433750D02*
X164084706Y-68624226D01*
X164846611Y-70433750D02*
X165894230Y-69100416D01*
X164846611Y-69100416D02*
X165894230Y-70433750D01*
X167418040Y-70338512D02*
X167227564Y-70433750D01*
X167227564Y-70433750D02*
X166846611Y-70433750D01*
X166846611Y-70433750D02*
X166656135Y-70338512D01*
X166656135Y-70338512D02*
X166560897Y-70148035D01*
X166560897Y-70148035D02*
X166560897Y-69386131D01*
X166560897Y-69386131D02*
X166656135Y-69195654D01*
X166656135Y-69195654D02*
X166846611Y-69100416D01*
X166846611Y-69100416D02*
X167227564Y-69100416D01*
X167227564Y-69100416D02*
X167418040Y-69195654D01*
X167418040Y-69195654D02*
X167513278Y-69386131D01*
X167513278Y-69386131D02*
X167513278Y-69576607D01*
X167513278Y-69576607D02*
X166560897Y-69767083D01*
X168370421Y-70433750D02*
X168370421Y-69100416D01*
X168370421Y-69481369D02*
X168465659Y-69290892D01*
X168465659Y-69290892D02*
X168560897Y-69195654D01*
X168560897Y-69195654D02*
X168751373Y-69100416D01*
X168751373Y-69100416D02*
X168941850Y-69100416D01*
X116370415Y-73653638D02*
X115703748Y-72701257D01*
X115227558Y-73653638D02*
X115227558Y-71653638D01*
X115227558Y-71653638D02*
X115989463Y-71653638D01*
X115989463Y-71653638D02*
X116179939Y-71748876D01*
X116179939Y-71748876D02*
X116275177Y-71844114D01*
X116275177Y-71844114D02*
X116370415Y-72034590D01*
X116370415Y-72034590D02*
X116370415Y-72320304D01*
X116370415Y-72320304D02*
X116275177Y-72510780D01*
X116275177Y-72510780D02*
X116179939Y-72606019D01*
X116179939Y-72606019D02*
X115989463Y-72701257D01*
X115989463Y-72701257D02*
X115227558Y-72701257D01*
X117989463Y-73558400D02*
X117798987Y-73653638D01*
X117798987Y-73653638D02*
X117418034Y-73653638D01*
X117418034Y-73653638D02*
X117227558Y-73558400D01*
X117227558Y-73558400D02*
X117132320Y-73367923D01*
X117132320Y-73367923D02*
X117132320Y-72606019D01*
X117132320Y-72606019D02*
X117227558Y-72415542D01*
X117227558Y-72415542D02*
X117418034Y-72320304D01*
X117418034Y-72320304D02*
X117798987Y-72320304D01*
X117798987Y-72320304D02*
X117989463Y-72415542D01*
X117989463Y-72415542D02*
X118084701Y-72606019D01*
X118084701Y-72606019D02*
X118084701Y-72796495D01*
X118084701Y-72796495D02*
X117132320Y-72986971D01*
X118751368Y-72320304D02*
X119227558Y-73653638D01*
X119227558Y-73653638D02*
X119703749Y-72320304D01*
X121132321Y-72606019D02*
X121418035Y-72701257D01*
X121418035Y-72701257D02*
X121513273Y-72796495D01*
X121513273Y-72796495D02*
X121608511Y-72986971D01*
X121608511Y-72986971D02*
X121608511Y-73272685D01*
X121608511Y-73272685D02*
X121513273Y-73463161D01*
X121513273Y-73463161D02*
X121418035Y-73558400D01*
X121418035Y-73558400D02*
X121227559Y-73653638D01*
X121227559Y-73653638D02*
X120465654Y-73653638D01*
X120465654Y-73653638D02*
X120465654Y-71653638D01*
X120465654Y-71653638D02*
X121132321Y-71653638D01*
X121132321Y-71653638D02*
X121322797Y-71748876D01*
X121322797Y-71748876D02*
X121418035Y-71844114D01*
X121418035Y-71844114D02*
X121513273Y-72034590D01*
X121513273Y-72034590D02*
X121513273Y-72225066D01*
X121513273Y-72225066D02*
X121418035Y-72415542D01*
X121418035Y-72415542D02*
X121322797Y-72510780D01*
X121322797Y-72510780D02*
X121132321Y-72606019D01*
X121132321Y-72606019D02*
X120465654Y-72606019D01*
X123894226Y-71844114D02*
X123989464Y-71748876D01*
X123989464Y-71748876D02*
X124179940Y-71653638D01*
X124179940Y-71653638D02*
X124656131Y-71653638D01*
X124656131Y-71653638D02*
X124846607Y-71748876D01*
X124846607Y-71748876D02*
X124941845Y-71844114D01*
X124941845Y-71844114D02*
X125037083Y-72034590D01*
X125037083Y-72034590D02*
X125037083Y-72225066D01*
X125037083Y-72225066D02*
X124941845Y-72510780D01*
X124941845Y-72510780D02*
X123798988Y-73653638D01*
X123798988Y-73653638D02*
X125037083Y-73653638D01*
X126275178Y-71653638D02*
X126465655Y-71653638D01*
X126465655Y-71653638D02*
X126656131Y-71748876D01*
X126656131Y-71748876D02*
X126751369Y-71844114D01*
X126751369Y-71844114D02*
X126846607Y-72034590D01*
X126846607Y-72034590D02*
X126941845Y-72415542D01*
X126941845Y-72415542D02*
X126941845Y-72891733D01*
X126941845Y-72891733D02*
X126846607Y-73272685D01*
X126846607Y-73272685D02*
X126751369Y-73463161D01*
X126751369Y-73463161D02*
X126656131Y-73558400D01*
X126656131Y-73558400D02*
X126465655Y-73653638D01*
X126465655Y-73653638D02*
X126275178Y-73653638D01*
X126275178Y-73653638D02*
X126084702Y-73558400D01*
X126084702Y-73558400D02*
X125989464Y-73463161D01*
X125989464Y-73463161D02*
X125894226Y-73272685D01*
X125894226Y-73272685D02*
X125798988Y-72891733D01*
X125798988Y-72891733D02*
X125798988Y-72415542D01*
X125798988Y-72415542D02*
X125894226Y-72034590D01*
X125894226Y-72034590D02*
X125989464Y-71844114D01*
X125989464Y-71844114D02*
X126084702Y-71748876D01*
X126084702Y-71748876D02*
X126275178Y-71653638D01*
X127703750Y-71844114D02*
X127798988Y-71748876D01*
X127798988Y-71748876D02*
X127989464Y-71653638D01*
X127989464Y-71653638D02*
X128465655Y-71653638D01*
X128465655Y-71653638D02*
X128656131Y-71748876D01*
X128656131Y-71748876D02*
X128751369Y-71844114D01*
X128751369Y-71844114D02*
X128846607Y-72034590D01*
X128846607Y-72034590D02*
X128846607Y-72225066D01*
X128846607Y-72225066D02*
X128751369Y-72510780D01*
X128751369Y-72510780D02*
X127608512Y-73653638D01*
X127608512Y-73653638D02*
X128846607Y-73653638D01*
X130560893Y-72320304D02*
X130560893Y-73653638D01*
X130084702Y-71558400D02*
X129608512Y-72986971D01*
X129608512Y-72986971D02*
X130846607Y-72986971D01*
X131608512Y-72891733D02*
X133132322Y-72891733D01*
X134465654Y-71653638D02*
X134656131Y-71653638D01*
X134656131Y-71653638D02*
X134846607Y-71748876D01*
X134846607Y-71748876D02*
X134941845Y-71844114D01*
X134941845Y-71844114D02*
X135037083Y-72034590D01*
X135037083Y-72034590D02*
X135132321Y-72415542D01*
X135132321Y-72415542D02*
X135132321Y-72891733D01*
X135132321Y-72891733D02*
X135037083Y-73272685D01*
X135037083Y-73272685D02*
X134941845Y-73463161D01*
X134941845Y-73463161D02*
X134846607Y-73558400D01*
X134846607Y-73558400D02*
X134656131Y-73653638D01*
X134656131Y-73653638D02*
X134465654Y-73653638D01*
X134465654Y-73653638D02*
X134275178Y-73558400D01*
X134275178Y-73558400D02*
X134179940Y-73463161D01*
X134179940Y-73463161D02*
X134084702Y-73272685D01*
X134084702Y-73272685D02*
X133989464Y-72891733D01*
X133989464Y-72891733D02*
X133989464Y-72415542D01*
X133989464Y-72415542D02*
X134084702Y-72034590D01*
X134084702Y-72034590D02*
X134179940Y-71844114D01*
X134179940Y-71844114D02*
X134275178Y-71748876D01*
X134275178Y-71748876D02*
X134465654Y-71653638D01*
X135798988Y-71653638D02*
X137037083Y-71653638D01*
X137037083Y-71653638D02*
X136370416Y-72415542D01*
X136370416Y-72415542D02*
X136656131Y-72415542D01*
X136656131Y-72415542D02*
X136846607Y-72510780D01*
X136846607Y-72510780D02*
X136941845Y-72606019D01*
X136941845Y-72606019D02*
X137037083Y-72796495D01*
X137037083Y-72796495D02*
X137037083Y-73272685D01*
X137037083Y-73272685D02*
X136941845Y-73463161D01*
X136941845Y-73463161D02*
X136846607Y-73558400D01*
X136846607Y-73558400D02*
X136656131Y-73653638D01*
X136656131Y-73653638D02*
X136084702Y-73653638D01*
X136084702Y-73653638D02*
X135894226Y-73558400D01*
X135894226Y-73558400D02*
X135798988Y-73463161D01*
X137894226Y-72891733D02*
X139418036Y-72891733D01*
X140179940Y-71653638D02*
X141418035Y-71653638D01*
X141418035Y-71653638D02*
X140751368Y-72415542D01*
X140751368Y-72415542D02*
X141037083Y-72415542D01*
X141037083Y-72415542D02*
X141227559Y-72510780D01*
X141227559Y-72510780D02*
X141322797Y-72606019D01*
X141322797Y-72606019D02*
X141418035Y-72796495D01*
X141418035Y-72796495D02*
X141418035Y-73272685D01*
X141418035Y-73272685D02*
X141322797Y-73463161D01*
X141322797Y-73463161D02*
X141227559Y-73558400D01*
X141227559Y-73558400D02*
X141037083Y-73653638D01*
X141037083Y-73653638D02*
X140465654Y-73653638D01*
X140465654Y-73653638D02*
X140275178Y-73558400D01*
X140275178Y-73558400D02*
X140179940Y-73463161D01*
X143322797Y-73653638D02*
X142179940Y-73653638D01*
X142751368Y-73653638D02*
X142751368Y-71653638D01*
X142751368Y-71653638D02*
X142560892Y-71939352D01*
X142560892Y-71939352D02*
X142370416Y-72129828D01*
X142370416Y-72129828D02*
X142179940Y-72225066D01*
D11*
%TO.C,C5*%
X122934000Y-55899267D02*
X122934000Y-55606733D01*
X123954000Y-55899267D02*
X123954000Y-55606733D01*
%TO.C,C14*%
X143381000Y-62376267D02*
X143381000Y-62083733D01*
X144401000Y-62376267D02*
X144401000Y-62083733D01*
%TO.C,C10*%
X143254000Y-55899267D02*
X143254000Y-55606733D01*
X144274000Y-55899267D02*
X144274000Y-55606733D01*
%TO.C,C11*%
X123315000Y-62503267D02*
X123315000Y-62210733D01*
X124335000Y-62503267D02*
X124335000Y-62210733D01*
%TO.C,C12*%
X162939000Y-55899267D02*
X162939000Y-55606733D01*
X163959000Y-55899267D02*
X163959000Y-55606733D01*
%TO.C,C7*%
X105408000Y-61487267D02*
X105408000Y-61194733D01*
X106428000Y-61487267D02*
X106428000Y-61194733D01*
%TO.C,C17*%
X182978500Y-55899267D02*
X182978500Y-55606733D01*
X183998500Y-55899267D02*
X183998500Y-55606733D01*
%TO.C,C18*%
X163066000Y-63138267D02*
X163066000Y-62845733D01*
X164086000Y-63138267D02*
X164086000Y-62845733D01*
%TD*%
M02*
