%TF.GenerationSoftware,KiCad,Pcbnew,7.0.11-7.0.11~ubuntu22.04.1*%
%TF.CreationDate,2024-03-17T14:49:55+00:00*%
%TF.ProjectId,Tiny4xPoweredStereoMixer,54696e79-3478-4506-9f77-657265645374,rev?*%
%TF.SameCoordinates,Original*%
%TF.FileFunction,Soldermask,Bot*%
%TF.FilePolarity,Negative*%
%FSLAX46Y46*%
G04 Gerber Fmt 4.6, Leading zero omitted, Abs format (unit mm)*
G04 Created by KiCad (PCBNEW 7.0.11-7.0.11~ubuntu22.04.1) date 2024-03-17 14:49:55*
%MOMM*%
%LPD*%
G01*
G04 APERTURE LIST*
G04 Aperture macros list*
%AMRoundRect*
0 Rectangle with rounded corners*
0 $1 Rounding radius*
0 $2 $3 $4 $5 $6 $7 $8 $9 X,Y pos of 4 corners*
0 Add a 4 corners polygon primitive as box body*
4,1,4,$2,$3,$4,$5,$6,$7,$8,$9,$2,$3,0*
0 Add four circle primitives for the rounded corners*
1,1,$1+$1,$2,$3*
1,1,$1+$1,$4,$5*
1,1,$1+$1,$6,$7*
1,1,$1+$1,$8,$9*
0 Add four rect primitives between the rounded corners*
20,1,$1+$1,$2,$3,$4,$5,0*
20,1,$1+$1,$4,$5,$6,$7,0*
20,1,$1+$1,$6,$7,$8,$9,0*
20,1,$1+$1,$8,$9,$2,$3,0*%
G04 Aperture macros list end*
%ADD10C,3.000000*%
%ADD11R,1.800000X1.800000*%
%ADD12C,1.800000*%
%ADD13RoundRect,0.500000X-1.000000X0.500000X-1.000000X-0.500000X1.000000X-0.500000X1.000000X0.500000X0*%
%ADD14C,2.400000*%
%ADD15O,1.700000X3.000000*%
%ADD16R,1.700000X1.700000*%
%ADD17O,1.700000X1.700000*%
G04 APERTURE END LIST*
D10*
%TO.C,H4*%
X143510000Y-121920000D03*
%TD*%
%TO.C,H3*%
X104140000Y-121920000D03*
%TD*%
%TO.C,H2*%
X100330000Y-137160000D03*
%TD*%
%TO.C,H1*%
X156210000Y-137160000D03*
%TD*%
D11*
%TO.C,RV4*%
X150535000Y-149860000D03*
D12*
X153035000Y-149860000D03*
X155535000Y-149860000D03*
X150535000Y-147360000D03*
X153035000Y-147360000D03*
X155535000Y-147360000D03*
D13*
X148285000Y-144060000D03*
X157785000Y-144060000D03*
%TD*%
D11*
%TO.C,RV3*%
X130850000Y-149860000D03*
D12*
X133350000Y-149860000D03*
X135850000Y-149860000D03*
X130850000Y-147360000D03*
X133350000Y-147360000D03*
X135850000Y-147360000D03*
D13*
X128600000Y-144060000D03*
X138100000Y-144060000D03*
%TD*%
D11*
%TO.C,RV2*%
X111038000Y-149860000D03*
D12*
X113538000Y-149860000D03*
X116038000Y-149860000D03*
X111038000Y-147360000D03*
X113538000Y-147360000D03*
X116038000Y-147360000D03*
D13*
X108788000Y-144060000D03*
X118288000Y-144060000D03*
%TD*%
D11*
%TO.C,RV1*%
X91310667Y-149860000D03*
D12*
X93810667Y-149860000D03*
X96310667Y-149860000D03*
X91310667Y-147360000D03*
X93810667Y-147360000D03*
X96310667Y-147360000D03*
D13*
X89060667Y-144060000D03*
X98560667Y-144060000D03*
%TD*%
D14*
%TO.C,J5*%
X176784000Y-110947200D03*
X168656000Y-109702600D03*
X172720000Y-106426000D03*
D15*
X180848000Y-106934000D03*
X164592000Y-106934000D03*
%TD*%
D14*
%TO.C,J4*%
X157099000Y-110947200D03*
X148971000Y-109702600D03*
X153035000Y-106426000D03*
D15*
X161163000Y-106934000D03*
X144907000Y-106934000D03*
%TD*%
D14*
%TO.C,J3*%
X137414000Y-110947200D03*
X129286000Y-109702600D03*
X133350000Y-106426000D03*
D15*
X141478000Y-106934000D03*
X125222000Y-106934000D03*
%TD*%
D14*
%TO.C,J2*%
X117602000Y-110947200D03*
X109474000Y-109702600D03*
X113538000Y-106426000D03*
D15*
X121666000Y-106934000D03*
X105410000Y-106934000D03*
%TD*%
D14*
%TO.C,J1*%
X97874667Y-110947200D03*
X89746667Y-109702600D03*
X93810667Y-106426000D03*
D15*
X101938667Y-106934000D03*
X85682667Y-106934000D03*
%TD*%
D16*
%TO.C,J8*%
X161925000Y-135387000D03*
D17*
X161925000Y-132847000D03*
%TD*%
D16*
%TO.C,J7*%
X179070000Y-135056800D03*
D17*
X179070000Y-132516800D03*
%TD*%
D16*
%TO.C,J6*%
X170434000Y-150368000D03*
D17*
X172974000Y-150368000D03*
%TD*%
M02*
