M48
; DRILL file {KiCad 7.0.11-7.0.11~ubuntu22.04.1} date Sun 17 Mar 2024 14:36:55 GMT
; FORMAT={-:-/ absolute / inch / decimal}
; #@! TF.CreationDate,2024-03-17T14:36:55+00:00
; #@! TF.GenerationSoftware,Kicad,Pcbnew,7.0.11-7.0.11~ubuntu22.04.1
; #@! TF.FileFunction,NonPlated,1,4,NPTH
FMAT,2
INCH
; #@! TA.AperFunction,NonPlated,NPTH,ComponentDrill
T1C0.0669
; #@! TA.AperFunction,NonPlated,NPTH,ComponentDrill
T2C0.1181
%
G90
G05
T2
X3.95Y-5.4
X4.1Y-4.8
X5.65Y-4.8
X6.15Y-5.4
T1
G00X3.3733Y-4.1844
M15
G01X3.3733Y-4.2356
M16
G05
G00X4.0133Y-4.1844
M15
G01X4.0133Y-4.2356
M16
G05
G00X4.15Y-4.1844
M15
G01X4.15Y-4.2356
M16
G05
G00X4.79Y-4.1844
M15
G01X4.79Y-4.2356
M16
G05
G00X4.93Y-4.1844
M15
G01X4.93Y-4.2356
M16
G05
G00X5.57Y-4.1844
M15
G01X5.57Y-4.2356
M16
G05
G00X5.705Y-4.1844
M15
G01X5.705Y-4.2356
M16
G05
G00X6.345Y-4.1844
M15
G01X6.345Y-4.2356
M16
G05
G00X6.48Y-4.1844
M15
G01X6.48Y-4.2356
M16
G05
G00X7.12Y-4.1844
M15
G01X7.12Y-4.2356
M16
G05
M30
