%TF.GenerationSoftware,KiCad,Pcbnew,8.0.1*%
%TF.CreationDate,2024-11-05T21:38:58+00:00*%
%TF.ProjectId,Tiny4xPoweredStereoMixer,54696e79-3478-4506-9f77-657265645374,C*%
%TF.SameCoordinates,Original*%
%TF.FileFunction,Paste,Top*%
%TF.FilePolarity,Positive*%
%FSLAX46Y46*%
G04 Gerber Fmt 4.6, Leading zero omitted, Abs format (unit mm)*
G04 Created by KiCad (PCBNEW 8.0.1) date 2024-11-05 21:38:58*
%MOMM*%
%LPD*%
G01*
G04 APERTURE LIST*
G04 Aperture macros list*
%AMRoundRect*
0 Rectangle with rounded corners*
0 $1 Rounding radius*
0 $2 $3 $4 $5 $6 $7 $8 $9 X,Y pos of 4 corners*
0 Add a 4 corners polygon primitive as box body*
4,1,4,$2,$3,$4,$5,$6,$7,$8,$9,$2,$3,0*
0 Add four circle primitives for the rounded corners*
1,1,$1+$1,$2,$3*
1,1,$1+$1,$4,$5*
1,1,$1+$1,$6,$7*
1,1,$1+$1,$8,$9*
0 Add four rect primitives between the rounded corners*
20,1,$1+$1,$2,$3,$4,$5,0*
20,1,$1+$1,$4,$5,$6,$7,0*
20,1,$1+$1,$6,$7,$8,$9,0*
20,1,$1+$1,$8,$9,$2,$3,0*%
G04 Aperture macros list end*
%ADD10RoundRect,0.250000X0.450000X-0.350000X0.450000X0.350000X-0.450000X0.350000X-0.450000X-0.350000X0*%
%ADD11RoundRect,0.250000X0.475000X-0.337500X0.475000X0.337500X-0.475000X0.337500X-0.475000X-0.337500X0*%
%ADD12RoundRect,0.150000X-0.825000X-0.150000X0.825000X-0.150000X0.825000X0.150000X-0.825000X0.150000X0*%
%ADD13RoundRect,0.250000X-0.337500X-0.475000X0.337500X-0.475000X0.337500X0.475000X-0.337500X0.475000X0*%
%ADD14RoundRect,0.237500X0.300000X0.237500X-0.300000X0.237500X-0.300000X-0.237500X0.300000X-0.237500X0*%
%ADD15RoundRect,0.250000X-0.350000X-0.450000X0.350000X-0.450000X0.350000X0.450000X-0.350000X0.450000X0*%
%ADD16R,4.500000X1.750000*%
%ADD17RoundRect,0.150000X0.150000X-0.512500X0.150000X0.512500X-0.150000X0.512500X-0.150000X-0.512500X0*%
%ADD18RoundRect,0.237500X-0.237500X0.300000X-0.237500X-0.300000X0.237500X-0.300000X0.237500X0.300000X0*%
%ADD19RoundRect,0.250001X0.462499X0.624999X-0.462499X0.624999X-0.462499X-0.624999X0.462499X-0.624999X0*%
G04 APERTURE END LIST*
D10*
%TO.C,R1*%
X168656000Y-105648000D03*
X168656000Y-103648000D03*
%TD*%
D11*
%TO.C,C20*%
X146602000Y-80412500D03*
X146602000Y-78337500D03*
%TD*%
D12*
%TO.C,U2*%
X112107000Y-79972500D03*
X112107000Y-81242500D03*
X112107000Y-82512500D03*
X112107000Y-83782500D03*
X117057000Y-83782500D03*
X117057000Y-82512500D03*
X117057000Y-81242500D03*
X117057000Y-79972500D03*
%TD*%
D13*
%TO.C,C2*%
X178054000Y-82588000D03*
X180129000Y-82588000D03*
%TD*%
D10*
%TO.C,R4*%
X110236000Y-105648000D03*
X110236000Y-103648000D03*
%TD*%
%TO.C,R7*%
X134620000Y-105648000D03*
X134620000Y-103648000D03*
%TD*%
%TO.C,R10*%
X146602000Y-84185000D03*
X146602000Y-82185000D03*
%TD*%
%TO.C,R6*%
X154686000Y-105648000D03*
X154686000Y-103648000D03*
%TD*%
D14*
%TO.C,C9*%
X116714500Y-76797500D03*
X114989500Y-76797500D03*
%TD*%
%TO.C,C13*%
X141114500Y-76835000D03*
X139389500Y-76835000D03*
%TD*%
D15*
%TO.C,R12*%
X139970000Y-87630000D03*
X141970000Y-87630000D03*
%TD*%
%TO.C,R18*%
X178091500Y-74930000D03*
X180091500Y-74930000D03*
%TD*%
D13*
%TO.C,C26*%
X159264500Y-82550000D03*
X161339500Y-82550000D03*
%TD*%
D15*
%TO.C,R14*%
X115205000Y-87630000D03*
X117205000Y-87630000D03*
%TD*%
D10*
%TO.C,R13*%
X108232000Y-83147500D03*
X108232000Y-81147500D03*
%TD*%
%TO.C,R2*%
X148590000Y-105648000D03*
X148590000Y-103648000D03*
%TD*%
%TO.C,R5*%
X174752000Y-105648000D03*
X174752000Y-103648000D03*
%TD*%
%TO.C,R15*%
X122202000Y-84417500D03*
X122202000Y-82417500D03*
%TD*%
D13*
%TO.C,C25*%
X159264500Y-80010000D03*
X161339500Y-80010000D03*
%TD*%
D10*
%TO.C,R9*%
X132632000Y-83185000D03*
X132632000Y-81185000D03*
%TD*%
D16*
%TO.C,L1*%
X168910000Y-88646000D03*
X168910000Y-91896000D03*
%TD*%
D17*
%TO.C,U3*%
X168047500Y-80010000D03*
X168997500Y-80010000D03*
X169947500Y-80010000D03*
X169947500Y-77735000D03*
X168997500Y-77735000D03*
X168047500Y-77735000D03*
%TD*%
D18*
%TO.C,C6*%
X112042000Y-86502500D03*
X112042000Y-88227500D03*
%TD*%
D15*
%TO.C,R19*%
X167959500Y-74930000D03*
X169959500Y-74930000D03*
%TD*%
D13*
%TO.C,C24*%
X159264500Y-77442000D03*
X161339500Y-77442000D03*
%TD*%
D10*
%TO.C,R3*%
X128524000Y-105632000D03*
X128524000Y-103632000D03*
%TD*%
D13*
%TO.C,C1*%
X178054000Y-80010000D03*
X180129000Y-80010000D03*
%TD*%
%TO.C,C21*%
X159264500Y-85090000D03*
X161339500Y-85090000D03*
%TD*%
%TO.C,C22*%
X159264500Y-87630000D03*
X161339500Y-87630000D03*
%TD*%
D11*
%TO.C,C19*%
X122202000Y-80645000D03*
X122202000Y-78570000D03*
%TD*%
D13*
%TO.C,C3*%
X178054000Y-85090000D03*
X180129000Y-85090000D03*
%TD*%
D18*
%TO.C,C8*%
X136619800Y-86540000D03*
X136619800Y-88265000D03*
%TD*%
D19*
%TO.C,D1*%
X161293200Y-92710000D03*
X158318200Y-92710000D03*
%TD*%
D12*
%TO.C,U1*%
X136543600Y-80010000D03*
X136543600Y-81280000D03*
X136543600Y-82550000D03*
X136543600Y-83820000D03*
X141493600Y-83820000D03*
X141493600Y-82550000D03*
X141493600Y-81280000D03*
X141493600Y-80010000D03*
%TD*%
D10*
%TO.C,R8*%
X114808000Y-105648000D03*
X114808000Y-103648000D03*
%TD*%
D15*
%TO.C,R20*%
X156210000Y-90170000D03*
X158210000Y-90170000D03*
%TD*%
D13*
%TO.C,C23*%
X159264500Y-74930000D03*
X161339500Y-74930000D03*
%TD*%
M02*
