%TF.GenerationSoftware,KiCad,Pcbnew,8.0.1*%
%TF.CreationDate,2024-04-01T22:35:21+01:00*%
%TF.ProjectId,Tiny4xPoweredStereoMixer,54696e79-3478-4506-9f77-657265645374,B*%
%TF.SameCoordinates,Original*%
%TF.FileFunction,Legend,Top*%
%TF.FilePolarity,Positive*%
%FSLAX46Y46*%
G04 Gerber Fmt 4.6, Leading zero omitted, Abs format (unit mm)*
G04 Created by KiCad (PCBNEW 8.0.1) date 2024-04-01 22:35:21*
%MOMM*%
%LPD*%
G01*
G04 APERTURE LIST*
%ADD10C,0.150000*%
%ADD11C,0.120000*%
%ADD12C,0.100000*%
G04 APERTURE END LIST*
D10*
X147328095Y-79508819D02*
X147899523Y-79508819D01*
X147613809Y-80508819D02*
X147613809Y-79508819D01*
X148232857Y-80508819D02*
X148232857Y-79508819D01*
X148232857Y-79508819D02*
X148613809Y-79508819D01*
X148613809Y-79508819D02*
X148709047Y-79556438D01*
X148709047Y-79556438D02*
X148756666Y-79604057D01*
X148756666Y-79604057D02*
X148804285Y-79699295D01*
X148804285Y-79699295D02*
X148804285Y-79842152D01*
X148804285Y-79842152D02*
X148756666Y-79937390D01*
X148756666Y-79937390D02*
X148709047Y-79985009D01*
X148709047Y-79985009D02*
X148613809Y-80032628D01*
X148613809Y-80032628D02*
X148232857Y-80032628D01*
X149756666Y-80508819D02*
X149185238Y-80508819D01*
X149470952Y-80508819D02*
X149470952Y-79508819D01*
X149470952Y-79508819D02*
X149375714Y-79651676D01*
X149375714Y-79651676D02*
X149280476Y-79746914D01*
X149280476Y-79746914D02*
X149185238Y-79794533D01*
X133370666Y-45592819D02*
X133370666Y-46307104D01*
X133370666Y-46307104D02*
X133323047Y-46449961D01*
X133323047Y-46449961D02*
X133227809Y-46545200D01*
X133227809Y-46545200D02*
X133084952Y-46592819D01*
X133084952Y-46592819D02*
X132989714Y-46592819D01*
X133799238Y-45688057D02*
X133846857Y-45640438D01*
X133846857Y-45640438D02*
X133942095Y-45592819D01*
X133942095Y-45592819D02*
X134180190Y-45592819D01*
X134180190Y-45592819D02*
X134275428Y-45640438D01*
X134275428Y-45640438D02*
X134323047Y-45688057D01*
X134323047Y-45688057D02*
X134370666Y-45783295D01*
X134370666Y-45783295D02*
X134370666Y-45878533D01*
X134370666Y-45878533D02*
X134323047Y-46021390D01*
X134323047Y-46021390D02*
X133751619Y-46592819D01*
X133751619Y-46592819D02*
X134370666Y-46592819D01*
X130365904Y-66907580D02*
X130318285Y-66955200D01*
X130318285Y-66955200D02*
X130175428Y-67002819D01*
X130175428Y-67002819D02*
X130080190Y-67002819D01*
X130080190Y-67002819D02*
X129937333Y-66955200D01*
X129937333Y-66955200D02*
X129842095Y-66859961D01*
X129842095Y-66859961D02*
X129794476Y-66764723D01*
X129794476Y-66764723D02*
X129746857Y-66574247D01*
X129746857Y-66574247D02*
X129746857Y-66431390D01*
X129746857Y-66431390D02*
X129794476Y-66240914D01*
X129794476Y-66240914D02*
X129842095Y-66145676D01*
X129842095Y-66145676D02*
X129937333Y-66050438D01*
X129937333Y-66050438D02*
X130080190Y-66002819D01*
X130080190Y-66002819D02*
X130175428Y-66002819D01*
X130175428Y-66002819D02*
X130318285Y-66050438D01*
X130318285Y-66050438D02*
X130365904Y-66098057D01*
X130794476Y-67002819D02*
X130794476Y-66002819D01*
X130794476Y-66479009D02*
X131365904Y-66479009D01*
X131365904Y-67002819D02*
X131365904Y-66002819D01*
X131794476Y-66098057D02*
X131842095Y-66050438D01*
X131842095Y-66050438D02*
X131937333Y-66002819D01*
X131937333Y-66002819D02*
X132175428Y-66002819D01*
X132175428Y-66002819D02*
X132270666Y-66050438D01*
X132270666Y-66050438D02*
X132318285Y-66098057D01*
X132318285Y-66098057D02*
X132365904Y-66193295D01*
X132365904Y-66193295D02*
X132365904Y-66288533D01*
X132365904Y-66288533D02*
X132318285Y-66431390D01*
X132318285Y-66431390D02*
X131746857Y-67002819D01*
X131746857Y-67002819D02*
X132365904Y-67002819D01*
X133556381Y-67002819D02*
X133556381Y-66002819D01*
X134032571Y-67002819D02*
X134032571Y-66002819D01*
X134032571Y-66002819D02*
X134603999Y-67002819D01*
X134603999Y-67002819D02*
X134603999Y-66002819D01*
X135080190Y-67002819D02*
X135080190Y-66002819D01*
X135080190Y-66002819D02*
X135461142Y-66002819D01*
X135461142Y-66002819D02*
X135556380Y-66050438D01*
X135556380Y-66050438D02*
X135603999Y-66098057D01*
X135603999Y-66098057D02*
X135651618Y-66193295D01*
X135651618Y-66193295D02*
X135651618Y-66336152D01*
X135651618Y-66336152D02*
X135603999Y-66431390D01*
X135603999Y-66431390D02*
X135556380Y-66479009D01*
X135556380Y-66479009D02*
X135461142Y-66526628D01*
X135461142Y-66526628D02*
X135080190Y-66526628D01*
X136080190Y-66002819D02*
X136080190Y-66812342D01*
X136080190Y-66812342D02*
X136127809Y-66907580D01*
X136127809Y-66907580D02*
X136175428Y-66955200D01*
X136175428Y-66955200D02*
X136270666Y-67002819D01*
X136270666Y-67002819D02*
X136461142Y-67002819D01*
X136461142Y-67002819D02*
X136556380Y-66955200D01*
X136556380Y-66955200D02*
X136603999Y-66907580D01*
X136603999Y-66907580D02*
X136651618Y-66812342D01*
X136651618Y-66812342D02*
X136651618Y-66002819D01*
X136984952Y-66002819D02*
X137556380Y-66002819D01*
X137270666Y-67002819D02*
X137270666Y-66002819D01*
X131683428Y-97387580D02*
X131635809Y-97435200D01*
X131635809Y-97435200D02*
X131492952Y-97482819D01*
X131492952Y-97482819D02*
X131397714Y-97482819D01*
X131397714Y-97482819D02*
X131254857Y-97435200D01*
X131254857Y-97435200D02*
X131159619Y-97339961D01*
X131159619Y-97339961D02*
X131112000Y-97244723D01*
X131112000Y-97244723D02*
X131064381Y-97054247D01*
X131064381Y-97054247D02*
X131064381Y-96911390D01*
X131064381Y-96911390D02*
X131112000Y-96720914D01*
X131112000Y-96720914D02*
X131159619Y-96625676D01*
X131159619Y-96625676D02*
X131254857Y-96530438D01*
X131254857Y-96530438D02*
X131397714Y-96482819D01*
X131397714Y-96482819D02*
X131492952Y-96482819D01*
X131492952Y-96482819D02*
X131635809Y-96530438D01*
X131635809Y-96530438D02*
X131683428Y-96578057D01*
X132112000Y-97482819D02*
X132112000Y-96482819D01*
X132112000Y-96959009D02*
X132683428Y-96959009D01*
X132683428Y-97482819D02*
X132683428Y-96482819D01*
X133112000Y-96578057D02*
X133159619Y-96530438D01*
X133159619Y-96530438D02*
X133254857Y-96482819D01*
X133254857Y-96482819D02*
X133492952Y-96482819D01*
X133492952Y-96482819D02*
X133588190Y-96530438D01*
X133588190Y-96530438D02*
X133635809Y-96578057D01*
X133635809Y-96578057D02*
X133683428Y-96673295D01*
X133683428Y-96673295D02*
X133683428Y-96768533D01*
X133683428Y-96768533D02*
X133635809Y-96911390D01*
X133635809Y-96911390D02*
X133064381Y-97482819D01*
X133064381Y-97482819D02*
X133683428Y-97482819D01*
X134731048Y-96482819D02*
X135064381Y-97482819D01*
X135064381Y-97482819D02*
X135397714Y-96482819D01*
X135921524Y-96482819D02*
X136112000Y-96482819D01*
X136112000Y-96482819D02*
X136207238Y-96530438D01*
X136207238Y-96530438D02*
X136302476Y-96625676D01*
X136302476Y-96625676D02*
X136350095Y-96816152D01*
X136350095Y-96816152D02*
X136350095Y-97149485D01*
X136350095Y-97149485D02*
X136302476Y-97339961D01*
X136302476Y-97339961D02*
X136207238Y-97435200D01*
X136207238Y-97435200D02*
X136112000Y-97482819D01*
X136112000Y-97482819D02*
X135921524Y-97482819D01*
X135921524Y-97482819D02*
X135826286Y-97435200D01*
X135826286Y-97435200D02*
X135731048Y-97339961D01*
X135731048Y-97339961D02*
X135683429Y-97149485D01*
X135683429Y-97149485D02*
X135683429Y-96816152D01*
X135683429Y-96816152D02*
X135731048Y-96625676D01*
X135731048Y-96625676D02*
X135826286Y-96530438D01*
X135826286Y-96530438D02*
X135921524Y-96482819D01*
X137254857Y-97482819D02*
X136778667Y-97482819D01*
X136778667Y-97482819D02*
X136778667Y-96482819D01*
X179762761Y-84523866D02*
X180524666Y-84523866D01*
X181477047Y-84904819D02*
X180905618Y-84904819D01*
X181191333Y-84904819D02*
X181316333Y-83904819D01*
X181316333Y-83904819D02*
X181203237Y-84047676D01*
X181203237Y-84047676D02*
X181096095Y-84142914D01*
X181096095Y-84142914D02*
X180994904Y-84190533D01*
X181971095Y-84000057D02*
X182024666Y-83952438D01*
X182024666Y-83952438D02*
X182125856Y-83904819D01*
X182125856Y-83904819D02*
X182363952Y-83904819D01*
X182363952Y-83904819D02*
X182453237Y-83952438D01*
X182453237Y-83952438D02*
X182494904Y-84000057D01*
X182494904Y-84000057D02*
X182530618Y-84095295D01*
X182530618Y-84095295D02*
X182518714Y-84190533D01*
X182518714Y-84190533D02*
X182453237Y-84333390D01*
X182453237Y-84333390D02*
X181810380Y-84904819D01*
X181810380Y-84904819D02*
X182429428Y-84904819D01*
X182840142Y-83904819D02*
X183048476Y-84904819D01*
X183048476Y-84904819D02*
X183506809Y-83904819D01*
X113458666Y-45578819D02*
X113458666Y-46293104D01*
X113458666Y-46293104D02*
X113411047Y-46435961D01*
X113411047Y-46435961D02*
X113315809Y-46531200D01*
X113315809Y-46531200D02*
X113172952Y-46578819D01*
X113172952Y-46578819D02*
X113077714Y-46578819D01*
X114458666Y-46578819D02*
X113887238Y-46578819D01*
X114172952Y-46578819D02*
X114172952Y-45578819D01*
X114172952Y-45578819D02*
X114077714Y-45721676D01*
X114077714Y-45721676D02*
X113982476Y-45816914D01*
X113982476Y-45816914D02*
X113887238Y-45864533D01*
X110553904Y-66907580D02*
X110506285Y-66955200D01*
X110506285Y-66955200D02*
X110363428Y-67002819D01*
X110363428Y-67002819D02*
X110268190Y-67002819D01*
X110268190Y-67002819D02*
X110125333Y-66955200D01*
X110125333Y-66955200D02*
X110030095Y-66859961D01*
X110030095Y-66859961D02*
X109982476Y-66764723D01*
X109982476Y-66764723D02*
X109934857Y-66574247D01*
X109934857Y-66574247D02*
X109934857Y-66431390D01*
X109934857Y-66431390D02*
X109982476Y-66240914D01*
X109982476Y-66240914D02*
X110030095Y-66145676D01*
X110030095Y-66145676D02*
X110125333Y-66050438D01*
X110125333Y-66050438D02*
X110268190Y-66002819D01*
X110268190Y-66002819D02*
X110363428Y-66002819D01*
X110363428Y-66002819D02*
X110506285Y-66050438D01*
X110506285Y-66050438D02*
X110553904Y-66098057D01*
X110982476Y-67002819D02*
X110982476Y-66002819D01*
X110982476Y-66479009D02*
X111553904Y-66479009D01*
X111553904Y-67002819D02*
X111553904Y-66002819D01*
X112553904Y-67002819D02*
X111982476Y-67002819D01*
X112268190Y-67002819D02*
X112268190Y-66002819D01*
X112268190Y-66002819D02*
X112172952Y-66145676D01*
X112172952Y-66145676D02*
X112077714Y-66240914D01*
X112077714Y-66240914D02*
X111982476Y-66288533D01*
X113744381Y-67002819D02*
X113744381Y-66002819D01*
X114220571Y-67002819D02*
X114220571Y-66002819D01*
X114220571Y-66002819D02*
X114791999Y-67002819D01*
X114791999Y-67002819D02*
X114791999Y-66002819D01*
X115268190Y-67002819D02*
X115268190Y-66002819D01*
X115268190Y-66002819D02*
X115649142Y-66002819D01*
X115649142Y-66002819D02*
X115744380Y-66050438D01*
X115744380Y-66050438D02*
X115791999Y-66098057D01*
X115791999Y-66098057D02*
X115839618Y-66193295D01*
X115839618Y-66193295D02*
X115839618Y-66336152D01*
X115839618Y-66336152D02*
X115791999Y-66431390D01*
X115791999Y-66431390D02*
X115744380Y-66479009D01*
X115744380Y-66479009D02*
X115649142Y-66526628D01*
X115649142Y-66526628D02*
X115268190Y-66526628D01*
X116268190Y-66002819D02*
X116268190Y-66812342D01*
X116268190Y-66812342D02*
X116315809Y-66907580D01*
X116315809Y-66907580D02*
X116363428Y-66955200D01*
X116363428Y-66955200D02*
X116458666Y-67002819D01*
X116458666Y-67002819D02*
X116649142Y-67002819D01*
X116649142Y-67002819D02*
X116744380Y-66955200D01*
X116744380Y-66955200D02*
X116791999Y-66907580D01*
X116791999Y-66907580D02*
X116839618Y-66812342D01*
X116839618Y-66812342D02*
X116839618Y-66002819D01*
X117172952Y-66002819D02*
X117744380Y-66002819D01*
X117458666Y-67002819D02*
X117458666Y-66002819D01*
X193040095Y-68758319D02*
X193040095Y-69567842D01*
X193040095Y-69567842D02*
X193087714Y-69663080D01*
X193087714Y-69663080D02*
X193135333Y-69710700D01*
X193135333Y-69710700D02*
X193230571Y-69758319D01*
X193230571Y-69758319D02*
X193421047Y-69758319D01*
X193421047Y-69758319D02*
X193516285Y-69710700D01*
X193516285Y-69710700D02*
X193563904Y-69663080D01*
X193563904Y-69663080D02*
X193611523Y-69567842D01*
X193611523Y-69567842D02*
X193611523Y-68758319D01*
X194040095Y-68853557D02*
X194087714Y-68805938D01*
X194087714Y-68805938D02*
X194182952Y-68758319D01*
X194182952Y-68758319D02*
X194421047Y-68758319D01*
X194421047Y-68758319D02*
X194516285Y-68805938D01*
X194516285Y-68805938D02*
X194563904Y-68853557D01*
X194563904Y-68853557D02*
X194611523Y-68948795D01*
X194611523Y-68948795D02*
X194611523Y-69044033D01*
X194611523Y-69044033D02*
X194563904Y-69186890D01*
X194563904Y-69186890D02*
X193992476Y-69758319D01*
X193992476Y-69758319D02*
X194611523Y-69758319D01*
X196018761Y-84401866D02*
X196780666Y-84401866D01*
X196352095Y-84782819D02*
X196447333Y-84020914D01*
X197733047Y-84782819D02*
X197161618Y-84782819D01*
X197447333Y-84782819D02*
X197572333Y-83782819D01*
X197572333Y-83782819D02*
X197459237Y-83925676D01*
X197459237Y-83925676D02*
X197352095Y-84020914D01*
X197352095Y-84020914D02*
X197250904Y-84068533D01*
X198227095Y-83878057D02*
X198280666Y-83830438D01*
X198280666Y-83830438D02*
X198381856Y-83782819D01*
X198381856Y-83782819D02*
X198619952Y-83782819D01*
X198619952Y-83782819D02*
X198709237Y-83830438D01*
X198709237Y-83830438D02*
X198750904Y-83878057D01*
X198750904Y-83878057D02*
X198786618Y-83973295D01*
X198786618Y-83973295D02*
X198774714Y-84068533D01*
X198774714Y-84068533D02*
X198709237Y-84211390D01*
X198709237Y-84211390D02*
X198066380Y-84782819D01*
X198066380Y-84782819D02*
X198685428Y-84782819D01*
X199096142Y-83782819D02*
X199304476Y-84782819D01*
X199304476Y-84782819D02*
X199762809Y-83782819D01*
X192706666Y-45592819D02*
X192706666Y-46307104D01*
X192706666Y-46307104D02*
X192659047Y-46449961D01*
X192659047Y-46449961D02*
X192563809Y-46545200D01*
X192563809Y-46545200D02*
X192420952Y-46592819D01*
X192420952Y-46592819D02*
X192325714Y-46592819D01*
X193230476Y-46592819D02*
X193420952Y-46592819D01*
X193420952Y-46592819D02*
X193516190Y-46545200D01*
X193516190Y-46545200D02*
X193563809Y-46497580D01*
X193563809Y-46497580D02*
X193659047Y-46354723D01*
X193659047Y-46354723D02*
X193706666Y-46164247D01*
X193706666Y-46164247D02*
X193706666Y-45783295D01*
X193706666Y-45783295D02*
X193659047Y-45688057D01*
X193659047Y-45688057D02*
X193611428Y-45640438D01*
X193611428Y-45640438D02*
X193516190Y-45592819D01*
X193516190Y-45592819D02*
X193325714Y-45592819D01*
X193325714Y-45592819D02*
X193230476Y-45640438D01*
X193230476Y-45640438D02*
X193182857Y-45688057D01*
X193182857Y-45688057D02*
X193135238Y-45783295D01*
X193135238Y-45783295D02*
X193135238Y-46021390D01*
X193135238Y-46021390D02*
X193182857Y-46116628D01*
X193182857Y-46116628D02*
X193230476Y-46164247D01*
X193230476Y-46164247D02*
X193325714Y-46211866D01*
X193325714Y-46211866D02*
X193516190Y-46211866D01*
X193516190Y-46211866D02*
X193611428Y-46164247D01*
X193611428Y-46164247D02*
X193659047Y-46116628D01*
X193659047Y-46116628D02*
X193706666Y-46021390D01*
X189032095Y-67002819D02*
X189032095Y-66002819D01*
X189032095Y-66002819D02*
X189365428Y-66717104D01*
X189365428Y-66717104D02*
X189698761Y-66002819D01*
X189698761Y-66002819D02*
X189698761Y-67002819D01*
X190174952Y-67002819D02*
X190174952Y-66002819D01*
X190555904Y-66002819D02*
X191222570Y-67002819D01*
X191222570Y-66002819D02*
X190555904Y-67002819D01*
X192555904Y-66002819D02*
X192746380Y-66002819D01*
X192746380Y-66002819D02*
X192841618Y-66050438D01*
X192841618Y-66050438D02*
X192936856Y-66145676D01*
X192936856Y-66145676D02*
X192984475Y-66336152D01*
X192984475Y-66336152D02*
X192984475Y-66669485D01*
X192984475Y-66669485D02*
X192936856Y-66859961D01*
X192936856Y-66859961D02*
X192841618Y-66955200D01*
X192841618Y-66955200D02*
X192746380Y-67002819D01*
X192746380Y-67002819D02*
X192555904Y-67002819D01*
X192555904Y-67002819D02*
X192460666Y-66955200D01*
X192460666Y-66955200D02*
X192365428Y-66859961D01*
X192365428Y-66859961D02*
X192317809Y-66669485D01*
X192317809Y-66669485D02*
X192317809Y-66336152D01*
X192317809Y-66336152D02*
X192365428Y-66145676D01*
X192365428Y-66145676D02*
X192460666Y-66050438D01*
X192460666Y-66050438D02*
X192555904Y-66002819D01*
X193413047Y-66002819D02*
X193413047Y-66812342D01*
X193413047Y-66812342D02*
X193460666Y-66907580D01*
X193460666Y-66907580D02*
X193508285Y-66955200D01*
X193508285Y-66955200D02*
X193603523Y-67002819D01*
X193603523Y-67002819D02*
X193793999Y-67002819D01*
X193793999Y-67002819D02*
X193889237Y-66955200D01*
X193889237Y-66955200D02*
X193936856Y-66907580D01*
X193936856Y-66907580D02*
X193984475Y-66812342D01*
X193984475Y-66812342D02*
X193984475Y-66002819D01*
X194317809Y-66002819D02*
X194889237Y-66002819D01*
X194603523Y-67002819D02*
X194603523Y-66002819D01*
X195222571Y-67002819D02*
X195222571Y-66002819D01*
X195222571Y-66002819D02*
X195603523Y-66002819D01*
X195603523Y-66002819D02*
X195698761Y-66050438D01*
X195698761Y-66050438D02*
X195746380Y-66098057D01*
X195746380Y-66098057D02*
X195793999Y-66193295D01*
X195793999Y-66193295D02*
X195793999Y-66336152D01*
X195793999Y-66336152D02*
X195746380Y-66431390D01*
X195746380Y-66431390D02*
X195698761Y-66479009D01*
X195698761Y-66479009D02*
X195603523Y-66526628D01*
X195603523Y-66526628D02*
X195222571Y-66526628D01*
X196222571Y-66002819D02*
X196222571Y-66812342D01*
X196222571Y-66812342D02*
X196270190Y-66907580D01*
X196270190Y-66907580D02*
X196317809Y-66955200D01*
X196317809Y-66955200D02*
X196413047Y-67002819D01*
X196413047Y-67002819D02*
X196603523Y-67002819D01*
X196603523Y-67002819D02*
X196698761Y-66955200D01*
X196698761Y-66955200D02*
X196746380Y-66907580D01*
X196746380Y-66907580D02*
X196793999Y-66812342D01*
X196793999Y-66812342D02*
X196793999Y-66002819D01*
X197127333Y-66002819D02*
X197698761Y-66002819D01*
X197413047Y-67002819D02*
X197413047Y-66002819D01*
X197485095Y-94958819D02*
X197485095Y-95768342D01*
X197485095Y-95768342D02*
X197532714Y-95863580D01*
X197532714Y-95863580D02*
X197580333Y-95911200D01*
X197580333Y-95911200D02*
X197675571Y-95958819D01*
X197675571Y-95958819D02*
X197866047Y-95958819D01*
X197866047Y-95958819D02*
X197961285Y-95911200D01*
X197961285Y-95911200D02*
X198008904Y-95863580D01*
X198008904Y-95863580D02*
X198056523Y-95768342D01*
X198056523Y-95768342D02*
X198056523Y-94958819D01*
X198961285Y-94958819D02*
X198770809Y-94958819D01*
X198770809Y-94958819D02*
X198675571Y-95006438D01*
X198675571Y-95006438D02*
X198627952Y-95054057D01*
X198627952Y-95054057D02*
X198532714Y-95196914D01*
X198532714Y-95196914D02*
X198485095Y-95387390D01*
X198485095Y-95387390D02*
X198485095Y-95768342D01*
X198485095Y-95768342D02*
X198532714Y-95863580D01*
X198532714Y-95863580D02*
X198580333Y-95911200D01*
X198580333Y-95911200D02*
X198675571Y-95958819D01*
X198675571Y-95958819D02*
X198866047Y-95958819D01*
X198866047Y-95958819D02*
X198961285Y-95911200D01*
X198961285Y-95911200D02*
X199008904Y-95863580D01*
X199008904Y-95863580D02*
X199056523Y-95768342D01*
X199056523Y-95768342D02*
X199056523Y-95530247D01*
X199056523Y-95530247D02*
X199008904Y-95435009D01*
X199008904Y-95435009D02*
X198961285Y-95387390D01*
X198961285Y-95387390D02*
X198866047Y-95339771D01*
X198866047Y-95339771D02*
X198675571Y-95339771D01*
X198675571Y-95339771D02*
X198580333Y-95387390D01*
X198580333Y-95387390D02*
X198532714Y-95435009D01*
X198532714Y-95435009D02*
X198485095Y-95530247D01*
X151495428Y-97387580D02*
X151447809Y-97435200D01*
X151447809Y-97435200D02*
X151304952Y-97482819D01*
X151304952Y-97482819D02*
X151209714Y-97482819D01*
X151209714Y-97482819D02*
X151066857Y-97435200D01*
X151066857Y-97435200D02*
X150971619Y-97339961D01*
X150971619Y-97339961D02*
X150924000Y-97244723D01*
X150924000Y-97244723D02*
X150876381Y-97054247D01*
X150876381Y-97054247D02*
X150876381Y-96911390D01*
X150876381Y-96911390D02*
X150924000Y-96720914D01*
X150924000Y-96720914D02*
X150971619Y-96625676D01*
X150971619Y-96625676D02*
X151066857Y-96530438D01*
X151066857Y-96530438D02*
X151209714Y-96482819D01*
X151209714Y-96482819D02*
X151304952Y-96482819D01*
X151304952Y-96482819D02*
X151447809Y-96530438D01*
X151447809Y-96530438D02*
X151495428Y-96578057D01*
X151924000Y-97482819D02*
X151924000Y-96482819D01*
X151924000Y-96959009D02*
X152495428Y-96959009D01*
X152495428Y-97482819D02*
X152495428Y-96482819D01*
X152876381Y-96482819D02*
X153495428Y-96482819D01*
X153495428Y-96482819D02*
X153162095Y-96863771D01*
X153162095Y-96863771D02*
X153304952Y-96863771D01*
X153304952Y-96863771D02*
X153400190Y-96911390D01*
X153400190Y-96911390D02*
X153447809Y-96959009D01*
X153447809Y-96959009D02*
X153495428Y-97054247D01*
X153495428Y-97054247D02*
X153495428Y-97292342D01*
X153495428Y-97292342D02*
X153447809Y-97387580D01*
X153447809Y-97387580D02*
X153400190Y-97435200D01*
X153400190Y-97435200D02*
X153304952Y-97482819D01*
X153304952Y-97482819D02*
X153019238Y-97482819D01*
X153019238Y-97482819D02*
X152924000Y-97435200D01*
X152924000Y-97435200D02*
X152876381Y-97387580D01*
X154543048Y-96482819D02*
X154876381Y-97482819D01*
X154876381Y-97482819D02*
X155209714Y-96482819D01*
X155733524Y-96482819D02*
X155924000Y-96482819D01*
X155924000Y-96482819D02*
X156019238Y-96530438D01*
X156019238Y-96530438D02*
X156114476Y-96625676D01*
X156114476Y-96625676D02*
X156162095Y-96816152D01*
X156162095Y-96816152D02*
X156162095Y-97149485D01*
X156162095Y-97149485D02*
X156114476Y-97339961D01*
X156114476Y-97339961D02*
X156019238Y-97435200D01*
X156019238Y-97435200D02*
X155924000Y-97482819D01*
X155924000Y-97482819D02*
X155733524Y-97482819D01*
X155733524Y-97482819D02*
X155638286Y-97435200D01*
X155638286Y-97435200D02*
X155543048Y-97339961D01*
X155543048Y-97339961D02*
X155495429Y-97149485D01*
X155495429Y-97149485D02*
X155495429Y-96816152D01*
X155495429Y-96816152D02*
X155543048Y-96625676D01*
X155543048Y-96625676D02*
X155638286Y-96530438D01*
X155638286Y-96530438D02*
X155733524Y-96482819D01*
X157066857Y-97482819D02*
X156590667Y-97482819D01*
X156590667Y-97482819D02*
X156590667Y-96482819D01*
X183150095Y-103832866D02*
X183912000Y-103832866D01*
X183531047Y-104213819D02*
X183531047Y-103451914D01*
X184911999Y-104213819D02*
X184340571Y-104213819D01*
X184626285Y-104213819D02*
X184626285Y-103213819D01*
X184626285Y-103213819D02*
X184531047Y-103356676D01*
X184531047Y-103356676D02*
X184435809Y-103451914D01*
X184435809Y-103451914D02*
X184340571Y-103499533D01*
X185292952Y-103309057D02*
X185340571Y-103261438D01*
X185340571Y-103261438D02*
X185435809Y-103213819D01*
X185435809Y-103213819D02*
X185673904Y-103213819D01*
X185673904Y-103213819D02*
X185769142Y-103261438D01*
X185769142Y-103261438D02*
X185816761Y-103309057D01*
X185816761Y-103309057D02*
X185864380Y-103404295D01*
X185864380Y-103404295D02*
X185864380Y-103499533D01*
X185864380Y-103499533D02*
X185816761Y-103642390D01*
X185816761Y-103642390D02*
X185245333Y-104213819D01*
X185245333Y-104213819D02*
X185864380Y-104213819D01*
X186150095Y-103213819D02*
X186483428Y-104213819D01*
X186483428Y-104213819D02*
X186816761Y-103213819D01*
X183134238Y-105864819D02*
X183134238Y-104864819D01*
X183134238Y-104864819D02*
X183372333Y-104864819D01*
X183372333Y-104864819D02*
X183515190Y-104912438D01*
X183515190Y-104912438D02*
X183610428Y-105007676D01*
X183610428Y-105007676D02*
X183658047Y-105102914D01*
X183658047Y-105102914D02*
X183705666Y-105293390D01*
X183705666Y-105293390D02*
X183705666Y-105436247D01*
X183705666Y-105436247D02*
X183658047Y-105626723D01*
X183658047Y-105626723D02*
X183610428Y-105721961D01*
X183610428Y-105721961D02*
X183515190Y-105817200D01*
X183515190Y-105817200D02*
X183372333Y-105864819D01*
X183372333Y-105864819D02*
X183134238Y-105864819D01*
X184705666Y-105769580D02*
X184658047Y-105817200D01*
X184658047Y-105817200D02*
X184515190Y-105864819D01*
X184515190Y-105864819D02*
X184419952Y-105864819D01*
X184419952Y-105864819D02*
X184277095Y-105817200D01*
X184277095Y-105817200D02*
X184181857Y-105721961D01*
X184181857Y-105721961D02*
X184134238Y-105626723D01*
X184134238Y-105626723D02*
X184086619Y-105436247D01*
X184086619Y-105436247D02*
X184086619Y-105293390D01*
X184086619Y-105293390D02*
X184134238Y-105102914D01*
X184134238Y-105102914D02*
X184181857Y-105007676D01*
X184181857Y-105007676D02*
X184277095Y-104912438D01*
X184277095Y-104912438D02*
X184419952Y-104864819D01*
X184419952Y-104864819D02*
X184515190Y-104864819D01*
X184515190Y-104864819D02*
X184658047Y-104912438D01*
X184658047Y-104912438D02*
X184705666Y-104960057D01*
X185896143Y-105864819D02*
X185896143Y-104864819D01*
X186372333Y-105864819D02*
X186372333Y-104864819D01*
X186372333Y-104864819D02*
X186943761Y-105864819D01*
X186943761Y-105864819D02*
X186943761Y-104864819D01*
X171307428Y-97387580D02*
X171259809Y-97435200D01*
X171259809Y-97435200D02*
X171116952Y-97482819D01*
X171116952Y-97482819D02*
X171021714Y-97482819D01*
X171021714Y-97482819D02*
X170878857Y-97435200D01*
X170878857Y-97435200D02*
X170783619Y-97339961D01*
X170783619Y-97339961D02*
X170736000Y-97244723D01*
X170736000Y-97244723D02*
X170688381Y-97054247D01*
X170688381Y-97054247D02*
X170688381Y-96911390D01*
X170688381Y-96911390D02*
X170736000Y-96720914D01*
X170736000Y-96720914D02*
X170783619Y-96625676D01*
X170783619Y-96625676D02*
X170878857Y-96530438D01*
X170878857Y-96530438D02*
X171021714Y-96482819D01*
X171021714Y-96482819D02*
X171116952Y-96482819D01*
X171116952Y-96482819D02*
X171259809Y-96530438D01*
X171259809Y-96530438D02*
X171307428Y-96578057D01*
X171736000Y-97482819D02*
X171736000Y-96482819D01*
X171736000Y-96959009D02*
X172307428Y-96959009D01*
X172307428Y-97482819D02*
X172307428Y-96482819D01*
X173212190Y-96816152D02*
X173212190Y-97482819D01*
X172974095Y-96435200D02*
X172736000Y-97149485D01*
X172736000Y-97149485D02*
X173355047Y-97149485D01*
X174355048Y-96482819D02*
X174688381Y-97482819D01*
X174688381Y-97482819D02*
X175021714Y-96482819D01*
X175545524Y-96482819D02*
X175736000Y-96482819D01*
X175736000Y-96482819D02*
X175831238Y-96530438D01*
X175831238Y-96530438D02*
X175926476Y-96625676D01*
X175926476Y-96625676D02*
X175974095Y-96816152D01*
X175974095Y-96816152D02*
X175974095Y-97149485D01*
X175974095Y-97149485D02*
X175926476Y-97339961D01*
X175926476Y-97339961D02*
X175831238Y-97435200D01*
X175831238Y-97435200D02*
X175736000Y-97482819D01*
X175736000Y-97482819D02*
X175545524Y-97482819D01*
X175545524Y-97482819D02*
X175450286Y-97435200D01*
X175450286Y-97435200D02*
X175355048Y-97339961D01*
X175355048Y-97339961D02*
X175307429Y-97149485D01*
X175307429Y-97149485D02*
X175307429Y-96816152D01*
X175307429Y-96816152D02*
X175355048Y-96625676D01*
X175355048Y-96625676D02*
X175450286Y-96530438D01*
X175450286Y-96530438D02*
X175545524Y-96482819D01*
X176878857Y-97482819D02*
X176402667Y-97482819D01*
X176402667Y-97482819D02*
X176402667Y-96482819D01*
X111617428Y-97387580D02*
X111569809Y-97435200D01*
X111569809Y-97435200D02*
X111426952Y-97482819D01*
X111426952Y-97482819D02*
X111331714Y-97482819D01*
X111331714Y-97482819D02*
X111188857Y-97435200D01*
X111188857Y-97435200D02*
X111093619Y-97339961D01*
X111093619Y-97339961D02*
X111046000Y-97244723D01*
X111046000Y-97244723D02*
X110998381Y-97054247D01*
X110998381Y-97054247D02*
X110998381Y-96911390D01*
X110998381Y-96911390D02*
X111046000Y-96720914D01*
X111046000Y-96720914D02*
X111093619Y-96625676D01*
X111093619Y-96625676D02*
X111188857Y-96530438D01*
X111188857Y-96530438D02*
X111331714Y-96482819D01*
X111331714Y-96482819D02*
X111426952Y-96482819D01*
X111426952Y-96482819D02*
X111569809Y-96530438D01*
X111569809Y-96530438D02*
X111617428Y-96578057D01*
X112046000Y-97482819D02*
X112046000Y-96482819D01*
X112046000Y-96959009D02*
X112617428Y-96959009D01*
X112617428Y-97482819D02*
X112617428Y-96482819D01*
X113617428Y-97482819D02*
X113046000Y-97482819D01*
X113331714Y-97482819D02*
X113331714Y-96482819D01*
X113331714Y-96482819D02*
X113236476Y-96625676D01*
X113236476Y-96625676D02*
X113141238Y-96720914D01*
X113141238Y-96720914D02*
X113046000Y-96768533D01*
X114665048Y-96482819D02*
X114998381Y-97482819D01*
X114998381Y-97482819D02*
X115331714Y-96482819D01*
X115855524Y-96482819D02*
X116046000Y-96482819D01*
X116046000Y-96482819D02*
X116141238Y-96530438D01*
X116141238Y-96530438D02*
X116236476Y-96625676D01*
X116236476Y-96625676D02*
X116284095Y-96816152D01*
X116284095Y-96816152D02*
X116284095Y-97149485D01*
X116284095Y-97149485D02*
X116236476Y-97339961D01*
X116236476Y-97339961D02*
X116141238Y-97435200D01*
X116141238Y-97435200D02*
X116046000Y-97482819D01*
X116046000Y-97482819D02*
X115855524Y-97482819D01*
X115855524Y-97482819D02*
X115760286Y-97435200D01*
X115760286Y-97435200D02*
X115665048Y-97339961D01*
X115665048Y-97339961D02*
X115617429Y-97149485D01*
X115617429Y-97149485D02*
X115617429Y-96816152D01*
X115617429Y-96816152D02*
X115665048Y-96625676D01*
X115665048Y-96625676D02*
X115760286Y-96530438D01*
X115760286Y-96530438D02*
X115855524Y-96482819D01*
X117188857Y-97482819D02*
X116712667Y-97482819D01*
X116712667Y-97482819D02*
X116712667Y-96482819D01*
X178054095Y-67272819D02*
X178054095Y-68082342D01*
X178054095Y-68082342D02*
X178101714Y-68177580D01*
X178101714Y-68177580D02*
X178149333Y-68225200D01*
X178149333Y-68225200D02*
X178244571Y-68272819D01*
X178244571Y-68272819D02*
X178435047Y-68272819D01*
X178435047Y-68272819D02*
X178530285Y-68225200D01*
X178530285Y-68225200D02*
X178577904Y-68177580D01*
X178577904Y-68177580D02*
X178625523Y-68082342D01*
X178625523Y-68082342D02*
X178625523Y-67272819D01*
X179625523Y-68272819D02*
X179054095Y-68272819D01*
X179339809Y-68272819D02*
X179339809Y-67272819D01*
X179339809Y-67272819D02*
X179244571Y-67415676D01*
X179244571Y-67415676D02*
X179149333Y-67510914D01*
X179149333Y-67510914D02*
X179054095Y-67558533D01*
X153082666Y-45592819D02*
X153082666Y-46307104D01*
X153082666Y-46307104D02*
X153035047Y-46449961D01*
X153035047Y-46449961D02*
X152939809Y-46545200D01*
X152939809Y-46545200D02*
X152796952Y-46592819D01*
X152796952Y-46592819D02*
X152701714Y-46592819D01*
X153463619Y-45592819D02*
X154082666Y-45592819D01*
X154082666Y-45592819D02*
X153749333Y-45973771D01*
X153749333Y-45973771D02*
X153892190Y-45973771D01*
X153892190Y-45973771D02*
X153987428Y-46021390D01*
X153987428Y-46021390D02*
X154035047Y-46069009D01*
X154035047Y-46069009D02*
X154082666Y-46164247D01*
X154082666Y-46164247D02*
X154082666Y-46402342D01*
X154082666Y-46402342D02*
X154035047Y-46497580D01*
X154035047Y-46497580D02*
X153987428Y-46545200D01*
X153987428Y-46545200D02*
X153892190Y-46592819D01*
X153892190Y-46592819D02*
X153606476Y-46592819D01*
X153606476Y-46592819D02*
X153511238Y-46545200D01*
X153511238Y-46545200D02*
X153463619Y-46497580D01*
X150177904Y-66907580D02*
X150130285Y-66955200D01*
X150130285Y-66955200D02*
X149987428Y-67002819D01*
X149987428Y-67002819D02*
X149892190Y-67002819D01*
X149892190Y-67002819D02*
X149749333Y-66955200D01*
X149749333Y-66955200D02*
X149654095Y-66859961D01*
X149654095Y-66859961D02*
X149606476Y-66764723D01*
X149606476Y-66764723D02*
X149558857Y-66574247D01*
X149558857Y-66574247D02*
X149558857Y-66431390D01*
X149558857Y-66431390D02*
X149606476Y-66240914D01*
X149606476Y-66240914D02*
X149654095Y-66145676D01*
X149654095Y-66145676D02*
X149749333Y-66050438D01*
X149749333Y-66050438D02*
X149892190Y-66002819D01*
X149892190Y-66002819D02*
X149987428Y-66002819D01*
X149987428Y-66002819D02*
X150130285Y-66050438D01*
X150130285Y-66050438D02*
X150177904Y-66098057D01*
X150606476Y-67002819D02*
X150606476Y-66002819D01*
X150606476Y-66479009D02*
X151177904Y-66479009D01*
X151177904Y-67002819D02*
X151177904Y-66002819D01*
X151558857Y-66002819D02*
X152177904Y-66002819D01*
X152177904Y-66002819D02*
X151844571Y-66383771D01*
X151844571Y-66383771D02*
X151987428Y-66383771D01*
X151987428Y-66383771D02*
X152082666Y-66431390D01*
X152082666Y-66431390D02*
X152130285Y-66479009D01*
X152130285Y-66479009D02*
X152177904Y-66574247D01*
X152177904Y-66574247D02*
X152177904Y-66812342D01*
X152177904Y-66812342D02*
X152130285Y-66907580D01*
X152130285Y-66907580D02*
X152082666Y-66955200D01*
X152082666Y-66955200D02*
X151987428Y-67002819D01*
X151987428Y-67002819D02*
X151701714Y-67002819D01*
X151701714Y-67002819D02*
X151606476Y-66955200D01*
X151606476Y-66955200D02*
X151558857Y-66907580D01*
X153368381Y-67002819D02*
X153368381Y-66002819D01*
X153844571Y-67002819D02*
X153844571Y-66002819D01*
X153844571Y-66002819D02*
X154415999Y-67002819D01*
X154415999Y-67002819D02*
X154415999Y-66002819D01*
X154892190Y-67002819D02*
X154892190Y-66002819D01*
X154892190Y-66002819D02*
X155273142Y-66002819D01*
X155273142Y-66002819D02*
X155368380Y-66050438D01*
X155368380Y-66050438D02*
X155415999Y-66098057D01*
X155415999Y-66098057D02*
X155463618Y-66193295D01*
X155463618Y-66193295D02*
X155463618Y-66336152D01*
X155463618Y-66336152D02*
X155415999Y-66431390D01*
X155415999Y-66431390D02*
X155368380Y-66479009D01*
X155368380Y-66479009D02*
X155273142Y-66526628D01*
X155273142Y-66526628D02*
X154892190Y-66526628D01*
X155892190Y-66002819D02*
X155892190Y-66812342D01*
X155892190Y-66812342D02*
X155939809Y-66907580D01*
X155939809Y-66907580D02*
X155987428Y-66955200D01*
X155987428Y-66955200D02*
X156082666Y-67002819D01*
X156082666Y-67002819D02*
X156273142Y-67002819D01*
X156273142Y-67002819D02*
X156368380Y-66955200D01*
X156368380Y-66955200D02*
X156415999Y-66907580D01*
X156415999Y-66907580D02*
X156463618Y-66812342D01*
X156463618Y-66812342D02*
X156463618Y-66002819D01*
X156796952Y-66002819D02*
X157368380Y-66002819D01*
X157082666Y-67002819D02*
X157082666Y-66002819D01*
X172867666Y-45592819D02*
X172867666Y-46307104D01*
X172867666Y-46307104D02*
X172820047Y-46449961D01*
X172820047Y-46449961D02*
X172724809Y-46545200D01*
X172724809Y-46545200D02*
X172581952Y-46592819D01*
X172581952Y-46592819D02*
X172486714Y-46592819D01*
X173772428Y-45926152D02*
X173772428Y-46592819D01*
X173534333Y-45545200D02*
X173296238Y-46259485D01*
X173296238Y-46259485D02*
X173915285Y-46259485D01*
X169989904Y-66907580D02*
X169942285Y-66955200D01*
X169942285Y-66955200D02*
X169799428Y-67002819D01*
X169799428Y-67002819D02*
X169704190Y-67002819D01*
X169704190Y-67002819D02*
X169561333Y-66955200D01*
X169561333Y-66955200D02*
X169466095Y-66859961D01*
X169466095Y-66859961D02*
X169418476Y-66764723D01*
X169418476Y-66764723D02*
X169370857Y-66574247D01*
X169370857Y-66574247D02*
X169370857Y-66431390D01*
X169370857Y-66431390D02*
X169418476Y-66240914D01*
X169418476Y-66240914D02*
X169466095Y-66145676D01*
X169466095Y-66145676D02*
X169561333Y-66050438D01*
X169561333Y-66050438D02*
X169704190Y-66002819D01*
X169704190Y-66002819D02*
X169799428Y-66002819D01*
X169799428Y-66002819D02*
X169942285Y-66050438D01*
X169942285Y-66050438D02*
X169989904Y-66098057D01*
X170418476Y-67002819D02*
X170418476Y-66002819D01*
X170418476Y-66479009D02*
X170989904Y-66479009D01*
X170989904Y-67002819D02*
X170989904Y-66002819D01*
X171894666Y-66336152D02*
X171894666Y-67002819D01*
X171656571Y-65955200D02*
X171418476Y-66669485D01*
X171418476Y-66669485D02*
X172037523Y-66669485D01*
X173180381Y-67002819D02*
X173180381Y-66002819D01*
X173656571Y-67002819D02*
X173656571Y-66002819D01*
X173656571Y-66002819D02*
X174227999Y-67002819D01*
X174227999Y-67002819D02*
X174227999Y-66002819D01*
X174704190Y-67002819D02*
X174704190Y-66002819D01*
X174704190Y-66002819D02*
X175085142Y-66002819D01*
X175085142Y-66002819D02*
X175180380Y-66050438D01*
X175180380Y-66050438D02*
X175227999Y-66098057D01*
X175227999Y-66098057D02*
X175275618Y-66193295D01*
X175275618Y-66193295D02*
X175275618Y-66336152D01*
X175275618Y-66336152D02*
X175227999Y-66431390D01*
X175227999Y-66431390D02*
X175180380Y-66479009D01*
X175180380Y-66479009D02*
X175085142Y-66526628D01*
X175085142Y-66526628D02*
X174704190Y-66526628D01*
X175704190Y-66002819D02*
X175704190Y-66812342D01*
X175704190Y-66812342D02*
X175751809Y-66907580D01*
X175751809Y-66907580D02*
X175799428Y-66955200D01*
X175799428Y-66955200D02*
X175894666Y-67002819D01*
X175894666Y-67002819D02*
X176085142Y-67002819D01*
X176085142Y-67002819D02*
X176180380Y-66955200D01*
X176180380Y-66955200D02*
X176227999Y-66907580D01*
X176227999Y-66907580D02*
X176275618Y-66812342D01*
X176275618Y-66812342D02*
X176275618Y-66002819D01*
X176608952Y-66002819D02*
X177180380Y-66002819D01*
X176894666Y-67002819D02*
X176894666Y-66002819D01*
%TO.C,TP1*%
X150340000Y-82804000D02*
G75*
G02*
X146840000Y-82804000I-1750000J0D01*
G01*
X146840000Y-82804000D02*
G75*
G02*
X150340000Y-82804000I1750000J0D01*
G01*
D11*
%TO.C,R4*%
X107977000Y-93191064D02*
X107977000Y-92736936D01*
X109447000Y-93191064D02*
X109447000Y-92736936D01*
%TO.C,RFB2*%
X190780336Y-86260000D02*
X191234464Y-86260000D01*
X190780336Y-87730000D02*
X191234464Y-87730000D01*
%TO.C,J2*%
X129484000Y-51268000D02*
X131384000Y-51268000D01*
X129484000Y-65508000D02*
X129484000Y-51268000D01*
X131384000Y-47268000D02*
X137624000Y-47268000D01*
X131384000Y-51268000D02*
X131384000Y-47268000D01*
X137624000Y-47268000D02*
X137624000Y-51268000D01*
X137624000Y-51268000D02*
X137924000Y-51268000D01*
X137924000Y-51268000D02*
X137924000Y-65508000D01*
X137924000Y-65508000D02*
X129484000Y-65508000D01*
%TO.C,C9*%
X176882500Y-71328233D02*
X176882500Y-71620767D01*
X177902500Y-71328233D02*
X177902500Y-71620767D01*
%TO.C,C15*%
X200259733Y-103503000D02*
X200552267Y-103503000D01*
X200259733Y-104523000D02*
X200552267Y-104523000D01*
%TO.C,R2*%
X147601000Y-93191064D02*
X147601000Y-92736936D01*
X149071000Y-93191064D02*
X149071000Y-92736936D01*
%TO.C,C19*%
X199046000Y-63957252D02*
X199046000Y-62534748D01*
X201766000Y-63957252D02*
X201766000Y-62534748D01*
%TO.C,RV2*%
D12*
X125392000Y-97959000D02*
X141792000Y-97959000D01*
X141792000Y-107059000D01*
X125392000Y-107059000D01*
X125392000Y-97959000D01*
D11*
%TO.C,J8*%
X180280000Y-85660000D02*
X181610000Y-85660000D01*
X180280000Y-86990000D02*
X180280000Y-85660000D01*
X180280000Y-88260000D02*
X180280000Y-90860000D01*
X180280000Y-88260000D02*
X182940000Y-88260000D01*
X180280000Y-90860000D02*
X182940000Y-90860000D01*
X182940000Y-88260000D02*
X182940000Y-90860000D01*
%TO.C,J1*%
X109572000Y-51254000D02*
X111472000Y-51254000D01*
X109572000Y-65494000D02*
X109572000Y-51254000D01*
X111472000Y-47254000D02*
X117712000Y-47254000D01*
X111472000Y-51254000D02*
X111472000Y-47254000D01*
X117712000Y-47254000D02*
X117712000Y-51254000D01*
X117712000Y-51254000D02*
X118012000Y-51254000D01*
X118012000Y-51254000D02*
X118012000Y-65494000D01*
X118012000Y-65494000D02*
X109572000Y-65494000D01*
%TO.C,C20*%
X181774000Y-62687252D02*
X181774000Y-61264748D01*
X184494000Y-62687252D02*
X184494000Y-61264748D01*
%TO.C,C8*%
X199769000Y-76473267D02*
X199769000Y-76180733D01*
X200789000Y-76473267D02*
X200789000Y-76180733D01*
%TO.C,R3*%
X127789000Y-93191064D02*
X127789000Y-92736936D01*
X129259000Y-93191064D02*
X129259000Y-92736936D01*
%TO.C,C13*%
X191641000Y-71407733D02*
X191641000Y-71700267D01*
X192661000Y-71407733D02*
X192661000Y-71700267D01*
%TO.C,C6*%
X184656000Y-77069733D02*
X184656000Y-77362267D01*
X185676000Y-77069733D02*
X185676000Y-77362267D01*
%TO.C,C16*%
X184402000Y-99726533D02*
X184402000Y-100019067D01*
X185422000Y-99726533D02*
X185422000Y-100019067D01*
%TO.C,R14*%
X191416000Y-75945564D02*
X191416000Y-75491436D01*
X192886000Y-75945564D02*
X192886000Y-75491436D01*
%TO.C,U2*%
X193655000Y-73940500D02*
X193655000Y-75890500D01*
X193655000Y-73940500D02*
X193655000Y-71990500D01*
X198775000Y-73940500D02*
X198775000Y-75890500D01*
X198775000Y-73940500D02*
X198775000Y-71990500D01*
X193750000Y-76640500D02*
X193420000Y-76880500D01*
X193420000Y-76400500D01*
X193750000Y-76640500D01*
G36*
X193750000Y-76640500D02*
G01*
X193420000Y-76880500D01*
X193420000Y-76400500D01*
X193750000Y-76640500D01*
G37*
%TO.C,R15*%
X199417000Y-72578564D02*
X199417000Y-72124436D01*
X200887000Y-72578564D02*
X200887000Y-72124436D01*
%TO.C,J7*%
X195393000Y-85411000D02*
X195393000Y-88071000D01*
X197993000Y-85411000D02*
X195393000Y-85411000D01*
X197993000Y-85411000D02*
X197993000Y-88071000D01*
X197993000Y-88071000D02*
X195393000Y-88071000D01*
X199263000Y-85411000D02*
X200593000Y-85411000D01*
X200593000Y-85411000D02*
X200593000Y-86741000D01*
%TO.C,J9*%
X188820000Y-51268000D02*
X190720000Y-51268000D01*
X188820000Y-65508000D02*
X188820000Y-51268000D01*
X190720000Y-47268000D02*
X196960000Y-47268000D01*
X190720000Y-51268000D02*
X190720000Y-47268000D01*
X196960000Y-47268000D02*
X196960000Y-51268000D01*
X196960000Y-51268000D02*
X197260000Y-51268000D01*
X197260000Y-51268000D02*
X197260000Y-65508000D01*
X197260000Y-65508000D02*
X188820000Y-65508000D01*
%TO.C,U6*%
X195071400Y-95112400D02*
X194271400Y-95112400D01*
X195071400Y-95112400D02*
X195871400Y-95112400D01*
X195071400Y-98232400D02*
X194271400Y-98232400D01*
X195071400Y-98232400D02*
X195871400Y-98232400D01*
X193771400Y-95162400D02*
X193531400Y-94832400D01*
X194011400Y-94832400D01*
X193771400Y-95162400D01*
G36*
X193771400Y-95162400D02*
G01*
X193531400Y-94832400D01*
X194011400Y-94832400D01*
X193771400Y-95162400D01*
G37*
%TO.C,C2*%
X192734652Y-90232400D02*
X191312148Y-90232400D01*
X192734652Y-92952400D02*
X191312148Y-92952400D01*
%TO.C,R13*%
X189003000Y-77951064D02*
X189003000Y-77496936D01*
X190473000Y-77951064D02*
X190473000Y-77496936D01*
%TO.C,RV3*%
D12*
X145136000Y-97959000D02*
X161536000Y-97959000D01*
X161536000Y-107059000D01*
X145136000Y-107059000D01*
X145136000Y-97959000D01*
D11*
%TO.C,R9*%
X174271000Y-77951064D02*
X174271000Y-77496936D01*
X175741000Y-77951064D02*
X175741000Y-77496936D01*
%TO.C,R10*%
X184685000Y-72617064D02*
X184685000Y-72162936D01*
X186155000Y-72617064D02*
X186155000Y-72162936D01*
%TO.C,J6*%
X187687000Y-101652000D02*
X187687000Y-105652000D01*
X187977000Y-100622000D02*
X187977000Y-106642000D01*
X187977000Y-106642000D02*
X193277000Y-106642000D01*
X188557000Y-100622000D02*
X188557000Y-101222000D01*
X188557000Y-101222000D02*
X190157000Y-101222000D01*
X189357000Y-105642000D02*
X189607000Y-105112000D01*
X189357000Y-105642000D02*
X191897000Y-105642000D01*
X189357000Y-106642000D02*
X189357000Y-105642000D01*
X189607000Y-105112000D02*
X191647000Y-105112000D01*
X189607000Y-106642000D02*
X189607000Y-105642000D01*
X190157000Y-101222000D02*
X190157000Y-100622000D01*
X191097000Y-100622000D02*
X191097000Y-101222000D01*
X191097000Y-101222000D02*
X192697000Y-101222000D01*
X191647000Y-105112000D02*
X191897000Y-105642000D01*
X191647000Y-106642000D02*
X191647000Y-105642000D01*
X191897000Y-105642000D02*
X191897000Y-106642000D01*
X192697000Y-101222000D02*
X192697000Y-100622000D01*
X193277000Y-100622000D02*
X187977000Y-100622000D01*
X193277000Y-106642000D02*
X193277000Y-100622000D01*
%TO.C,RV4*%
D12*
X164901000Y-97959000D02*
X181301000Y-97959000D01*
X181301000Y-107059000D01*
X164901000Y-107059000D01*
X164901000Y-97959000D01*
D11*
%TO.C,C1*%
X198982500Y-101129752D02*
X198982500Y-99707248D01*
X201702500Y-101129752D02*
X201702500Y-99707248D01*
%TO.C,RFB1*%
X185970336Y-86260000D02*
X186424464Y-86260000D01*
X185970336Y-87730000D02*
X186424464Y-87730000D01*
%TO.C,R7*%
X133885000Y-83269064D02*
X133885000Y-82814936D01*
X135355000Y-83269064D02*
X135355000Y-82814936D01*
%TO.C,RV1*%
D12*
X105592000Y-97959000D02*
X121992000Y-97959000D01*
X121992000Y-107059000D01*
X105592000Y-107059000D01*
X105592000Y-97959000D01*
D11*
%TO.C,D1*%
X189235400Y-96321000D02*
X189235400Y-99631000D01*
X191255400Y-99631000D02*
X189235400Y-99631000D01*
X191255400Y-99631000D02*
X191255400Y-96321000D01*
%TO.C,R5*%
X174271000Y-82015064D02*
X174271000Y-81560936D01*
X175741000Y-82015064D02*
X175741000Y-81560936D01*
%TO.C,U1*%
X178896500Y-73914000D02*
X178896500Y-75864000D01*
X178896500Y-73914000D02*
X178896500Y-71964000D01*
X184016500Y-73914000D02*
X184016500Y-75864000D01*
X184016500Y-73914000D02*
X184016500Y-71964000D01*
X178991500Y-76614000D02*
X178661500Y-76854000D01*
X178661500Y-76374000D01*
X178991500Y-76614000D01*
G36*
X178991500Y-76614000D02*
G01*
X178661500Y-76854000D01*
X178661500Y-76374000D01*
X178991500Y-76614000D01*
G37*
%TO.C,L2*%
X186985400Y-89482400D02*
X185885400Y-89482400D01*
X186985400Y-93702400D02*
X185885400Y-93702400D01*
%TO.C,L1*%
X198161400Y-89482400D02*
X197061400Y-89482400D01*
X198161400Y-93702400D02*
X197061400Y-93702400D01*
%TO.C,C4*%
X186854752Y-95033000D02*
X185432248Y-95033000D01*
X186854752Y-97753000D02*
X185432248Y-97753000D01*
%TO.C,R12*%
X176657500Y-75903064D02*
X176657500Y-75448936D01*
X178127500Y-75903064D02*
X178127500Y-75448936D01*
%TO.C,R6*%
X153443000Y-83285064D02*
X153443000Y-82830936D01*
X154913000Y-83285064D02*
X154913000Y-82830936D01*
%TO.C,C3*%
X186458652Y-84101000D02*
X185936148Y-84101000D01*
X186458652Y-85571000D02*
X185936148Y-85571000D01*
%TO.C,J3*%
X149196000Y-51268000D02*
X151096000Y-51268000D01*
X149196000Y-65508000D02*
X149196000Y-51268000D01*
X151096000Y-47268000D02*
X157336000Y-47268000D01*
X151096000Y-51268000D02*
X151096000Y-47268000D01*
X157336000Y-47268000D02*
X157336000Y-51268000D01*
X157336000Y-51268000D02*
X157636000Y-51268000D01*
X157636000Y-51268000D02*
X157636000Y-65508000D01*
X157636000Y-65508000D02*
X149196000Y-65508000D01*
%TO.C,R1*%
X167413000Y-93191064D02*
X167413000Y-92736936D01*
X168883000Y-93191064D02*
X168883000Y-92736936D01*
%TO.C,R8*%
X114073000Y-83285064D02*
X114073000Y-82830936D01*
X115543000Y-83285064D02*
X115543000Y-82830936D01*
%TO.C,R11*%
X195353000Y-101840064D02*
X195353000Y-101385936D01*
X196823000Y-101840064D02*
X196823000Y-101385936D01*
%TO.C,J4*%
X168981000Y-51268000D02*
X170881000Y-51268000D01*
X168981000Y-65508000D02*
X168981000Y-51268000D01*
X170881000Y-47268000D02*
X177121000Y-47268000D01*
X170881000Y-51268000D02*
X170881000Y-47268000D01*
X177121000Y-47268000D02*
X177121000Y-51268000D01*
X177121000Y-51268000D02*
X177421000Y-51268000D01*
X177421000Y-51268000D02*
X177421000Y-65508000D01*
X177421000Y-65508000D02*
X168981000Y-65508000D01*
%TD*%
M02*
