%TF.GenerationSoftware,KiCad,Pcbnew,8.0.1*%
%TF.CreationDate,2024-04-01T22:35:21+01:00*%
%TF.ProjectId,Tiny4xPoweredStereoMixer,54696e79-3478-4506-9f77-657265645374,B*%
%TF.SameCoordinates,Original*%
%TF.FileFunction,Copper,L4,Bot*%
%TF.FilePolarity,Positive*%
%FSLAX46Y46*%
G04 Gerber Fmt 4.6, Leading zero omitted, Abs format (unit mm)*
G04 Created by KiCad (PCBNEW 8.0.1) date 2024-04-01 22:35:21*
%MOMM*%
%LPD*%
G01*
G04 APERTURE LIST*
G04 Aperture macros list*
%AMRoundRect*
0 Rectangle with rounded corners*
0 $1 Rounding radius*
0 $2 $3 $4 $5 $6 $7 $8 $9 X,Y pos of 4 corners*
0 Add a 4 corners polygon primitive as box body*
4,1,4,$2,$3,$4,$5,$6,$7,$8,$9,$2,$3,0*
0 Add four circle primitives for the rounded corners*
1,1,$1+$1,$2,$3*
1,1,$1+$1,$4,$5*
1,1,$1+$1,$6,$7*
1,1,$1+$1,$8,$9*
0 Add four rect primitives between the rounded corners*
20,1,$1+$1,$2,$3,$4,$5,0*
20,1,$1+$1,$4,$5,$6,$7,0*
20,1,$1+$1,$6,$7,$8,$9,0*
20,1,$1+$1,$8,$9,$2,$3,0*%
G04 Aperture macros list end*
%TA.AperFunction,ComponentPad*%
%ADD10C,2.800000*%
%TD*%
%TA.AperFunction,ComponentPad*%
%ADD11O,2.800000X1.800000*%
%TD*%
%TA.AperFunction,ComponentPad*%
%ADD12C,1.524000*%
%TD*%
%TA.AperFunction,ComponentPad*%
%ADD13R,1.700000X1.700000*%
%TD*%
%TA.AperFunction,ComponentPad*%
%ADD14O,1.700000X1.700000*%
%TD*%
%TA.AperFunction,ComponentPad*%
%ADD15RoundRect,0.250000X-0.620000X-0.845000X0.620000X-0.845000X0.620000X0.845000X-0.620000X0.845000X0*%
%TD*%
%TA.AperFunction,ComponentPad*%
%ADD16O,1.740000X2.190000*%
%TD*%
%TA.AperFunction,SMDPad,CuDef*%
%ADD17RoundRect,0.237500X-0.237500X0.300000X-0.237500X-0.300000X0.237500X-0.300000X0.237500X0.300000X0*%
%TD*%
%TA.AperFunction,ViaPad*%
%ADD18C,0.800000*%
%TD*%
%TA.AperFunction,Conductor*%
%ADD19C,0.500000*%
%TD*%
G04 APERTURE END LIST*
D10*
%TO.P,TP1,1,1*%
%TO.N,GND*%
X148590000Y-82804000D03*
%TD*%
D11*
%TO.P,J2,R*%
%TO.N,Net-(C11-Pad1)*%
X135604000Y-60488000D03*
%TO.P,J2,RN*%
%TO.N,GND*%
X133604000Y-58688000D03*
%TO.P,J2,S*%
X133604000Y-52588000D03*
%TO.P,J2,T*%
%TO.N,Net-(C10-Pad1)*%
X135604000Y-54988000D03*
%TO.P,J2,TN*%
%TO.N,GND*%
X133604000Y-64188000D03*
%TD*%
D12*
%TO.P,RV2,1,1*%
%TO.N,GND*%
X132592000Y-103759000D03*
%TO.P,RV2,2,2*%
%TO.N,/ch2_right_mix_in*%
X134592000Y-103759000D03*
%TO.P,RV2,3,3*%
%TO.N,Net-(C11-Pad2)*%
X136592000Y-103759000D03*
%TO.P,RV2,4,4*%
%TO.N,GND*%
X130592000Y-103759000D03*
%TO.P,RV2,5,5*%
%TO.N,/ch2_left_mix_in*%
X128592000Y-103759000D03*
%TO.P,RV2,6,6*%
%TO.N,Net-(C10-Pad2)*%
X138592000Y-103759000D03*
%TD*%
D13*
%TO.P,J8,1,Pin_1*%
%TO.N,Net-(J8-Pin_1)*%
X181610000Y-86990000D03*
D14*
%TO.P,J8,2,Pin_2*%
%TO.N,-12V*%
X181610000Y-89530000D03*
%TD*%
D11*
%TO.P,J1,R*%
%TO.N,Net-(C7-Pad1)*%
X115692000Y-60474000D03*
%TO.P,J1,RN*%
%TO.N,GND*%
X113692000Y-58674000D03*
%TO.P,J1,S*%
X113692000Y-52574000D03*
%TO.P,J1,T*%
%TO.N,Net-(C5-Pad1)*%
X115692000Y-54974000D03*
%TO.P,J1,TN*%
%TO.N,GND*%
X113692000Y-64174000D03*
%TD*%
D13*
%TO.P,J7,1,Pin_1*%
%TO.N,Net-(J6-Pin_2)*%
X199263000Y-86741000D03*
D14*
%TO.P,J7,2,Pin_2*%
%TO.N,+12V*%
X196723000Y-86741000D03*
%TD*%
D11*
%TO.P,J9,R*%
%TO.N,Net-(C20-Pad2)*%
X194940000Y-60488000D03*
%TO.P,J9,RN*%
%TO.N,GND*%
X192940000Y-58688000D03*
%TO.P,J9,S*%
X192940000Y-52588000D03*
%TO.P,J9,T*%
%TO.N,Net-(C19-Pad2)*%
X194940000Y-54988000D03*
%TO.P,J9,TN*%
%TO.N,GND*%
X192940000Y-64188000D03*
%TD*%
D12*
%TO.P,RV3,1,1*%
%TO.N,GND*%
X152336000Y-103759000D03*
%TO.P,RV3,2,2*%
%TO.N,/ch3_right_mix_in*%
X154336000Y-103759000D03*
%TO.P,RV3,3,3*%
%TO.N,Net-(C14-Pad2)*%
X156336000Y-103759000D03*
%TO.P,RV3,4,4*%
%TO.N,GND*%
X150336000Y-103759000D03*
%TO.P,RV3,5,5*%
%TO.N,/ch3_left_mix_in*%
X148336000Y-103759000D03*
%TO.P,RV3,6,6*%
%TO.N,Net-(C12-Pad2)*%
X158336000Y-103759000D03*
%TD*%
D15*
%TO.P,J6,1,Pin_1*%
%TO.N,GND*%
X189357000Y-103652000D03*
D16*
%TO.P,J6,2,Pin_2*%
%TO.N,Net-(J6-Pin_2)*%
X191897000Y-103652000D03*
%TD*%
D12*
%TO.P,RV4,1,1*%
%TO.N,GND*%
X172101000Y-103759000D03*
%TO.P,RV4,2,2*%
%TO.N,/ch4_right_mix_in*%
X174101000Y-103759000D03*
%TO.P,RV4,3,3*%
%TO.N,Net-(C18-Pad2)*%
X176101000Y-103759000D03*
%TO.P,RV4,4,4*%
%TO.N,GND*%
X170101000Y-103759000D03*
%TO.P,RV4,5,5*%
%TO.N,/ch4_left_mix_in*%
X168101000Y-103759000D03*
%TO.P,RV4,6,6*%
%TO.N,Net-(C17-Pad2)*%
X178101000Y-103759000D03*
%TD*%
%TO.P,RV1,1,1*%
%TO.N,GND*%
X112792000Y-103759000D03*
%TO.P,RV1,2,2*%
%TO.N,/ch1_right_mix_in*%
X114792000Y-103759000D03*
%TO.P,RV1,3,3*%
%TO.N,Net-(C7-Pad2)*%
X116792000Y-103759000D03*
%TO.P,RV1,4,4*%
%TO.N,GND*%
X110792000Y-103759000D03*
%TO.P,RV1,5,5*%
%TO.N,/ch1_left_mix_in*%
X108792000Y-103759000D03*
%TO.P,RV1,6,6*%
%TO.N,Net-(C5-Pad2)*%
X118792000Y-103759000D03*
%TD*%
D11*
%TO.P,J3,R*%
%TO.N,Net-(C14-Pad1)*%
X155316000Y-60488000D03*
%TO.P,J3,RN*%
%TO.N,GND*%
X153316000Y-58688000D03*
%TO.P,J3,S*%
X153316000Y-52588000D03*
%TO.P,J3,T*%
%TO.N,Net-(C12-Pad1)*%
X155316000Y-54988000D03*
%TO.P,J3,TN*%
%TO.N,GND*%
X153316000Y-64188000D03*
%TD*%
%TO.P,J4,R*%
%TO.N,Net-(C18-Pad1)*%
X175101000Y-60488000D03*
%TO.P,J4,RN*%
%TO.N,GND*%
X173101000Y-58688000D03*
%TO.P,J4,S*%
X173101000Y-52588000D03*
%TO.P,J4,T*%
%TO.N,Net-(C17-Pad1)*%
X175101000Y-54988000D03*
%TO.P,J4,TN*%
%TO.N,GND*%
X173101000Y-64188000D03*
%TD*%
D17*
%TO.P,C5,1*%
%TO.N,Net-(C5-Pad1)*%
X123444000Y-54890500D03*
%TO.P,C5,2*%
%TO.N,Net-(C5-Pad2)*%
X123444000Y-56615500D03*
%TD*%
%TO.P,C14,1*%
%TO.N,Net-(C14-Pad1)*%
X143891000Y-61367500D03*
%TO.P,C14,2*%
%TO.N,Net-(C14-Pad2)*%
X143891000Y-63092500D03*
%TD*%
%TO.P,C10,1*%
%TO.N,Net-(C10-Pad1)*%
X143764000Y-54890500D03*
%TO.P,C10,2*%
%TO.N,Net-(C10-Pad2)*%
X143764000Y-56615500D03*
%TD*%
%TO.P,C11,1*%
%TO.N,Net-(C11-Pad1)*%
X123825000Y-61494500D03*
%TO.P,C11,2*%
%TO.N,Net-(C11-Pad2)*%
X123825000Y-63219500D03*
%TD*%
%TO.P,C12,1*%
%TO.N,Net-(C12-Pad1)*%
X163449000Y-54890500D03*
%TO.P,C12,2*%
%TO.N,Net-(C12-Pad2)*%
X163449000Y-56615500D03*
%TD*%
%TO.P,C7,1*%
%TO.N,Net-(C7-Pad1)*%
X105918000Y-60478500D03*
%TO.P,C7,2*%
%TO.N,Net-(C7-Pad2)*%
X105918000Y-62203500D03*
%TD*%
%TO.P,C17,1*%
%TO.N,Net-(C17-Pad1)*%
X183488500Y-54890500D03*
%TO.P,C17,2*%
%TO.N,Net-(C17-Pad2)*%
X183488500Y-56615500D03*
%TD*%
%TO.P,C18,1*%
%TO.N,Net-(C18-Pad1)*%
X163576000Y-62129500D03*
%TO.P,C18,2*%
%TO.N,Net-(C18-Pad2)*%
X163576000Y-63854500D03*
%TD*%
D18*
%TO.N,GND*%
X106426000Y-52324000D03*
X123444000Y-52324000D03*
X144018000Y-52324000D03*
X183388000Y-52324000D03*
X163576000Y-52324000D03*
X126746000Y-75946000D03*
X162306000Y-77724000D03*
X197104000Y-81280000D03*
X188722000Y-68834000D03*
X198120000Y-72859500D03*
X183388000Y-72898000D03*
X192116000Y-97363000D03*
X126238000Y-87884000D03*
X146304000Y-77978000D03*
X143002000Y-95504000D03*
X187706000Y-98806000D03*
X123444000Y-95250000D03*
X108204000Y-81788000D03*
X146304000Y-87376000D03*
X161036000Y-87630000D03*
X201295000Y-106045000D03*
X108204000Y-71120000D03*
X180340000Y-93980000D03*
X163068000Y-95758000D03*
%TO.N,+12V*%
X191008000Y-70765500D03*
X177392500Y-69188500D03*
%TO.N,Net-(U6-NFB)*%
X189483400Y-84836000D03*
X193801400Y-98958400D03*
%TO.N,-12V*%
X185139500Y-75249000D03*
X200279000Y-78613000D03*
%TO.N,/ch4_right_mix_in*%
X175006000Y-84328000D03*
%TO.N,/ch3_right_mix_in*%
X154178000Y-85598000D03*
%TO.N,/ch2_right_mix_in*%
X134620000Y-85852000D03*
%TO.N,/ch1_right_mix_in*%
X114808000Y-85852000D03*
%TD*%
D19*
%TO.N,/ch4_right_mix_in*%
X174101000Y-101997000D02*
X174101000Y-103759000D01*
X175006000Y-101092000D02*
X174101000Y-101997000D01*
X175006000Y-84328000D02*
X175006000Y-101092000D01*
%TO.N,Net-(C17-Pad2)*%
X173482000Y-69723000D02*
X183488500Y-59716500D01*
X183488500Y-59716500D02*
X183488500Y-56615500D01*
X173482000Y-74930000D02*
X173482000Y-69723000D01*
X177038000Y-102696000D02*
X177038000Y-78486000D01*
X178101000Y-103759000D02*
X177038000Y-102696000D01*
X177038000Y-78486000D02*
X173482000Y-74930000D01*
%TO.N,Net-(C18-Pad2)*%
X176101000Y-79327000D02*
X163576000Y-66802000D01*
X176101000Y-103759000D02*
X176101000Y-79327000D01*
X163576000Y-66802000D02*
X163576000Y-63854500D01*
%TO.N,/ch3_right_mix_in*%
X154178000Y-85598000D02*
X154178000Y-103601000D01*
%TO.N,/ch2_right_mix_in*%
X134620000Y-85852000D02*
X134620000Y-103731000D01*
%TO.N,/ch1_right_mix_in*%
X114808000Y-85852000D02*
X114808000Y-103743000D01*
%TO.N,Net-(C5-Pad2)*%
X117856000Y-102823000D02*
X118792000Y-103759000D01*
X117856000Y-63500000D02*
X117856000Y-102823000D01*
X123444000Y-56615500D02*
X123444000Y-57912000D01*
X123444000Y-57912000D02*
X117856000Y-63500000D01*
%TO.N,Net-(C5-Pad1)*%
X123444000Y-54890500D02*
X123343500Y-54991000D01*
X123343500Y-54991000D02*
X115709000Y-54991000D01*
X115709000Y-54991000D02*
X115692000Y-54974000D01*
%TO.N,Net-(C7-Pad2)*%
X105944500Y-64288500D02*
X116792000Y-75136000D01*
X105918000Y-62203500D02*
X105944500Y-62230000D01*
X105944500Y-62230000D02*
X105944500Y-64288500D01*
X116792000Y-75136000D02*
X116792000Y-103759000D01*
%TO.N,Net-(C7-Pad1)*%
X114970000Y-60452000D02*
X114992000Y-60474000D01*
X105918000Y-60478500D02*
X105944500Y-60452000D01*
X105944500Y-60452000D02*
X114970000Y-60452000D01*
%TO.N,Net-(C10-Pad2)*%
X137668000Y-63119000D02*
X137668000Y-102835000D01*
X143764000Y-56615500D02*
X143764000Y-57023000D01*
X137668000Y-102835000D02*
X138592000Y-103759000D01*
X143764000Y-57023000D02*
X137668000Y-63119000D01*
%TO.N,Net-(C10-Pad1)*%
X143663500Y-54991000D02*
X135607000Y-54991000D01*
X135607000Y-54991000D02*
X135604000Y-54988000D01*
X143764000Y-54890500D02*
X143663500Y-54991000D01*
%TO.N,Net-(C11-Pad2)*%
X136592000Y-78426000D02*
X136592000Y-103759000D01*
X123825000Y-65659000D02*
X136592000Y-78426000D01*
X123825000Y-63219500D02*
X123825000Y-65659000D01*
%TO.N,Net-(C11-Pad1)*%
X124867500Y-60452000D02*
X135568000Y-60452000D01*
X123825000Y-61494500D02*
X124867500Y-60452000D01*
%TO.N,Net-(C12-Pad1)*%
X155316000Y-54988000D02*
X163351500Y-54988000D01*
X163351500Y-54988000D02*
X163449000Y-54890500D01*
%TO.N,Net-(C12-Pad2)*%
X157734000Y-63627000D02*
X157734000Y-103157000D01*
X163449000Y-56615500D02*
X163449000Y-57912000D01*
X157734000Y-103157000D02*
X158336000Y-103759000D01*
X163449000Y-57912000D02*
X157734000Y-63627000D01*
%TO.N,Net-(C14-Pad2)*%
X143891000Y-65659000D02*
X156336000Y-78104000D01*
X156336000Y-78104000D02*
X156336000Y-103759000D01*
X143891000Y-63092500D02*
X143891000Y-65659000D01*
%TO.N,Net-(C14-Pad1)*%
X155316000Y-60488000D02*
X154616000Y-60488000D01*
X155280000Y-60452000D02*
X155316000Y-60488000D01*
X144806500Y-60452000D02*
X155280000Y-60452000D01*
X143891000Y-61367500D02*
X144806500Y-60452000D01*
%TO.N,Net-(C17-Pad1)*%
X183391000Y-54988000D02*
X183488500Y-54890500D01*
X175101000Y-54988000D02*
X183391000Y-54988000D01*
%TO.N,Net-(C18-Pad1)*%
X165253500Y-60452000D02*
X175065000Y-60452000D01*
X175065000Y-60452000D02*
X175101000Y-60488000D01*
X163576000Y-62129500D02*
X165253500Y-60452000D01*
%TD*%
%TA.AperFunction,Conductor*%
%TO.N,Net-(U6-NFB)*%
G36*
X193306168Y-83966685D02*
G01*
X193330899Y-83987609D01*
X193345758Y-84003961D01*
X194531172Y-85308532D01*
X194561688Y-85371386D01*
X194563400Y-85391922D01*
X194563400Y-99342400D01*
X194543715Y-99409439D01*
X194490911Y-99455194D01*
X194439400Y-99466400D01*
X193163405Y-99466400D01*
X193096366Y-99446715D01*
X193050611Y-99393911D01*
X193039405Y-99342395D01*
X193040000Y-85725000D01*
X188465000Y-85725000D01*
X188397961Y-85705315D01*
X188352206Y-85652511D01*
X188341000Y-85601000D01*
X188341000Y-84071000D01*
X188360685Y-84003961D01*
X188413489Y-83958206D01*
X188465000Y-83947000D01*
X193239129Y-83947000D01*
X193306168Y-83966685D01*
G37*
%TD.AperFunction*%
%TD*%
%TA.AperFunction,Conductor*%
%TO.N,GND*%
G36*
X202889039Y-50692685D02*
G01*
X202934794Y-50745489D01*
X202946000Y-50797000D01*
X202946000Y-107064000D01*
X202926315Y-107131039D01*
X202873511Y-107176794D01*
X202822000Y-107188000D01*
X104010000Y-107188000D01*
X103942961Y-107168315D01*
X103897206Y-107115511D01*
X103886000Y-107064000D01*
X103886000Y-100607422D01*
X105441500Y-100607422D01*
X105472290Y-100801826D01*
X105533117Y-100989029D01*
X105622476Y-101164405D01*
X105738172Y-101323646D01*
X105877354Y-101462828D01*
X106036595Y-101578524D01*
X106119455Y-101620743D01*
X106211970Y-101667882D01*
X106211972Y-101667882D01*
X106211975Y-101667884D01*
X106312317Y-101700487D01*
X106399173Y-101728709D01*
X106593578Y-101759500D01*
X106593583Y-101759500D01*
X106790422Y-101759500D01*
X106984826Y-101728709D01*
X107172025Y-101667884D01*
X107347405Y-101578524D01*
X107506646Y-101462828D01*
X107645828Y-101323646D01*
X107761524Y-101164405D01*
X107850884Y-100989025D01*
X107911709Y-100801826D01*
X107914987Y-100781132D01*
X107942500Y-100607422D01*
X107942500Y-100310577D01*
X107911709Y-100116173D01*
X107864831Y-99971899D01*
X107850884Y-99928975D01*
X107850882Y-99928972D01*
X107850882Y-99928970D01*
X107761523Y-99753594D01*
X107645828Y-99594354D01*
X107506646Y-99455172D01*
X107347405Y-99339476D01*
X107172029Y-99250117D01*
X106984826Y-99189290D01*
X106790422Y-99158500D01*
X106790417Y-99158500D01*
X106593583Y-99158500D01*
X106593578Y-99158500D01*
X106399173Y-99189290D01*
X106211970Y-99250117D01*
X106036594Y-99339476D01*
X106032570Y-99342400D01*
X105877354Y-99455172D01*
X105877352Y-99455174D01*
X105877351Y-99455174D01*
X105738174Y-99594351D01*
X105738174Y-99594352D01*
X105738172Y-99594354D01*
X105688485Y-99662741D01*
X105622476Y-99753594D01*
X105533117Y-99928970D01*
X105472290Y-100116173D01*
X105441500Y-100310577D01*
X105441500Y-100607422D01*
X103886000Y-100607422D01*
X103886000Y-62552669D01*
X104942500Y-62552669D01*
X104942501Y-62552687D01*
X104952825Y-62653752D01*
X104982503Y-62743312D01*
X105004095Y-62808473D01*
X105007092Y-62817515D01*
X105007093Y-62817518D01*
X105097661Y-62964351D01*
X105157681Y-63024371D01*
X105191166Y-63085694D01*
X105194000Y-63112052D01*
X105194000Y-64362418D01*
X105194000Y-64362420D01*
X105193999Y-64362420D01*
X105222840Y-64507407D01*
X105222843Y-64507417D01*
X105279414Y-64643992D01*
X105312312Y-64693227D01*
X105312313Y-64693230D01*
X105361546Y-64766914D01*
X105361552Y-64766921D01*
X116005181Y-75410548D01*
X116038666Y-75471871D01*
X116041500Y-75498229D01*
X116041500Y-102678726D01*
X116021815Y-102745765D01*
X115988625Y-102780299D01*
X115977389Y-102788166D01*
X115977382Y-102788172D01*
X115879681Y-102885873D01*
X115818357Y-102919357D01*
X115748666Y-102914373D01*
X115704319Y-102885873D01*
X115606613Y-102788167D01*
X115602788Y-102784958D01*
X115564090Y-102726785D01*
X115558500Y-102689974D01*
X115558500Y-86386321D01*
X115575113Y-86324321D01*
X115602239Y-86277337D01*
X115635179Y-86220284D01*
X115693674Y-86040256D01*
X115713460Y-85852000D01*
X115693674Y-85663744D01*
X115635179Y-85483716D01*
X115540533Y-85319784D01*
X115413871Y-85179112D01*
X115413870Y-85179111D01*
X115260734Y-85067851D01*
X115260729Y-85067848D01*
X115087807Y-84990857D01*
X115087802Y-84990855D01*
X114942001Y-84959865D01*
X114902646Y-84951500D01*
X114713354Y-84951500D01*
X114680897Y-84958398D01*
X114528197Y-84990855D01*
X114528192Y-84990857D01*
X114355270Y-85067848D01*
X114355265Y-85067851D01*
X114202129Y-85179111D01*
X114075466Y-85319785D01*
X113980821Y-85483715D01*
X113980818Y-85483722D01*
X113922327Y-85663740D01*
X113922326Y-85663744D01*
X113902540Y-85852000D01*
X113922326Y-86040256D01*
X113922327Y-86040259D01*
X113980818Y-86220277D01*
X113980821Y-86220284D01*
X114013759Y-86277335D01*
X114040887Y-86324321D01*
X114057500Y-86386321D01*
X114057500Y-102667522D01*
X114037815Y-102734561D01*
X114004626Y-102769095D01*
X113977385Y-102788170D01*
X113977382Y-102788172D01*
X113821172Y-102944381D01*
X113694465Y-103125339D01*
X113629657Y-103264320D01*
X113604956Y-103299595D01*
X113192000Y-103712551D01*
X113192000Y-103706339D01*
X113164741Y-103604606D01*
X113112080Y-103513394D01*
X113037606Y-103438920D01*
X112946394Y-103386259D01*
X112844661Y-103359000D01*
X112838448Y-103359000D01*
X113490188Y-102707259D01*
X113490187Y-102707258D01*
X113425411Y-102661901D01*
X113425405Y-102661898D01*
X113225284Y-102568580D01*
X113225270Y-102568575D01*
X113011986Y-102511426D01*
X113011976Y-102511424D01*
X112792001Y-102492179D01*
X112791999Y-102492179D01*
X112572023Y-102511424D01*
X112572013Y-102511426D01*
X112358729Y-102568575D01*
X112358720Y-102568579D01*
X112158590Y-102661901D01*
X112093811Y-102707258D01*
X112745553Y-103359000D01*
X112739339Y-103359000D01*
X112637606Y-103386259D01*
X112546394Y-103438920D01*
X112471920Y-103513394D01*
X112419259Y-103604606D01*
X112392000Y-103706339D01*
X112392000Y-103712553D01*
X111792000Y-103112553D01*
X111192000Y-103712553D01*
X111192000Y-103706339D01*
X111164741Y-103604606D01*
X111112080Y-103513394D01*
X111037606Y-103438920D01*
X110946394Y-103386259D01*
X110844661Y-103359000D01*
X110838448Y-103359000D01*
X111490188Y-102707259D01*
X111490187Y-102707258D01*
X111425411Y-102661901D01*
X111425405Y-102661898D01*
X111225284Y-102568580D01*
X111225270Y-102568575D01*
X111011986Y-102511426D01*
X111011976Y-102511424D01*
X110792001Y-102492179D01*
X110791999Y-102492179D01*
X110572023Y-102511424D01*
X110572013Y-102511426D01*
X110358729Y-102568575D01*
X110358720Y-102568579D01*
X110158590Y-102661901D01*
X110093811Y-102707258D01*
X110745553Y-103359000D01*
X110739339Y-103359000D01*
X110637606Y-103386259D01*
X110546394Y-103438920D01*
X110471920Y-103513394D01*
X110419259Y-103604606D01*
X110392000Y-103706339D01*
X110392000Y-103712553D01*
X109979041Y-103299594D01*
X109954341Y-103264319D01*
X109889534Y-103125339D01*
X109762826Y-102944380D01*
X109606620Y-102788174D01*
X109606616Y-102788171D01*
X109606615Y-102788170D01*
X109425666Y-102661468D01*
X109425662Y-102661466D01*
X109326210Y-102615091D01*
X109225450Y-102568106D01*
X109225447Y-102568105D01*
X109225445Y-102568104D01*
X109012070Y-102510930D01*
X109012062Y-102510929D01*
X108792002Y-102491677D01*
X108791998Y-102491677D01*
X108571937Y-102510929D01*
X108571929Y-102510930D01*
X108358554Y-102568104D01*
X108358548Y-102568107D01*
X108158340Y-102661465D01*
X108158338Y-102661466D01*
X107977377Y-102788175D01*
X107821175Y-102944377D01*
X107694466Y-103125338D01*
X107694465Y-103125340D01*
X107601107Y-103325548D01*
X107601104Y-103325554D01*
X107543930Y-103538929D01*
X107543929Y-103538937D01*
X107524677Y-103758997D01*
X107524677Y-103759002D01*
X107543929Y-103979062D01*
X107543930Y-103979070D01*
X107601104Y-104192445D01*
X107601105Y-104192447D01*
X107601106Y-104192450D01*
X107694463Y-104392656D01*
X107694466Y-104392662D01*
X107694468Y-104392666D01*
X107821170Y-104573615D01*
X107821175Y-104573621D01*
X107977378Y-104729824D01*
X107977384Y-104729829D01*
X108158333Y-104856531D01*
X108158335Y-104856532D01*
X108158338Y-104856534D01*
X108358550Y-104949894D01*
X108571932Y-105007070D01*
X108729123Y-105020822D01*
X108791998Y-105026323D01*
X108792000Y-105026323D01*
X108792002Y-105026323D01*
X108847017Y-105021509D01*
X109012068Y-105007070D01*
X109225450Y-104949894D01*
X109425662Y-104856534D01*
X109606620Y-104729826D01*
X109762826Y-104573620D01*
X109889534Y-104392662D01*
X109954343Y-104253676D01*
X109979043Y-104218401D01*
X110392000Y-103805444D01*
X110392000Y-103811661D01*
X110419259Y-103913394D01*
X110471920Y-104004606D01*
X110546394Y-104079080D01*
X110637606Y-104131741D01*
X110739339Y-104159000D01*
X110745553Y-104159000D01*
X110093810Y-104810740D01*
X110158590Y-104856099D01*
X110158592Y-104856100D01*
X110358715Y-104949419D01*
X110358729Y-104949424D01*
X110572013Y-105006573D01*
X110572023Y-105006575D01*
X110791999Y-105025821D01*
X110792001Y-105025821D01*
X111011976Y-105006575D01*
X111011986Y-105006573D01*
X111225270Y-104949424D01*
X111225284Y-104949419D01*
X111425407Y-104856100D01*
X111425417Y-104856094D01*
X111490188Y-104810741D01*
X110838448Y-104159000D01*
X110844661Y-104159000D01*
X110946394Y-104131741D01*
X111037606Y-104079080D01*
X111112080Y-104004606D01*
X111164741Y-103913394D01*
X111192000Y-103811661D01*
X111192000Y-103805447D01*
X111792000Y-104405447D01*
X112392000Y-103805447D01*
X112392000Y-103811661D01*
X112419259Y-103913394D01*
X112471920Y-104004606D01*
X112546394Y-104079080D01*
X112637606Y-104131741D01*
X112739339Y-104159000D01*
X112745553Y-104159000D01*
X112093810Y-104810740D01*
X112158590Y-104856099D01*
X112158592Y-104856100D01*
X112358715Y-104949419D01*
X112358729Y-104949424D01*
X112572013Y-105006573D01*
X112572023Y-105006575D01*
X112791999Y-105025821D01*
X112792001Y-105025821D01*
X113011976Y-105006575D01*
X113011986Y-105006573D01*
X113225270Y-104949424D01*
X113225284Y-104949419D01*
X113425407Y-104856100D01*
X113425417Y-104856094D01*
X113490188Y-104810741D01*
X112838448Y-104159000D01*
X112844661Y-104159000D01*
X112946394Y-104131741D01*
X113037606Y-104079080D01*
X113112080Y-104004606D01*
X113164741Y-103913394D01*
X113192000Y-103811661D01*
X113192000Y-103805447D01*
X113604956Y-104218403D01*
X113629657Y-104253679D01*
X113694466Y-104392662D01*
X113694468Y-104392666D01*
X113821170Y-104573615D01*
X113821175Y-104573621D01*
X113977378Y-104729824D01*
X113977384Y-104729829D01*
X114158333Y-104856531D01*
X114158335Y-104856532D01*
X114158338Y-104856534D01*
X114358550Y-104949894D01*
X114571932Y-105007070D01*
X114729123Y-105020822D01*
X114791998Y-105026323D01*
X114792000Y-105026323D01*
X114792002Y-105026323D01*
X114847017Y-105021509D01*
X115012068Y-105007070D01*
X115225450Y-104949894D01*
X115425662Y-104856534D01*
X115606620Y-104729826D01*
X115704319Y-104632127D01*
X115765642Y-104598642D01*
X115835334Y-104603626D01*
X115879681Y-104632127D01*
X115977378Y-104729824D01*
X115977384Y-104729829D01*
X116158333Y-104856531D01*
X116158335Y-104856532D01*
X116158338Y-104856534D01*
X116358550Y-104949894D01*
X116571932Y-105007070D01*
X116729123Y-105020822D01*
X116791998Y-105026323D01*
X116792000Y-105026323D01*
X116792002Y-105026323D01*
X116847017Y-105021509D01*
X117012068Y-105007070D01*
X117225450Y-104949894D01*
X117425662Y-104856534D01*
X117606620Y-104729826D01*
X117704319Y-104632127D01*
X117765642Y-104598642D01*
X117835334Y-104603626D01*
X117879681Y-104632127D01*
X117977378Y-104729824D01*
X117977384Y-104729829D01*
X118158333Y-104856531D01*
X118158335Y-104856532D01*
X118158338Y-104856534D01*
X118358550Y-104949894D01*
X118571932Y-105007070D01*
X118729123Y-105020822D01*
X118791998Y-105026323D01*
X118792000Y-105026323D01*
X118792002Y-105026323D01*
X118847017Y-105021509D01*
X119012068Y-105007070D01*
X119225450Y-104949894D01*
X119425662Y-104856534D01*
X119606620Y-104729826D01*
X119762826Y-104573620D01*
X119889534Y-104392662D01*
X119982894Y-104192450D01*
X120040070Y-103979068D01*
X120059323Y-103759000D01*
X120040070Y-103538932D01*
X119982894Y-103325550D01*
X119889534Y-103125339D01*
X119762826Y-102944380D01*
X119606620Y-102788174D01*
X119606616Y-102788171D01*
X119606615Y-102788170D01*
X119425666Y-102661468D01*
X119425662Y-102661466D01*
X119326210Y-102615091D01*
X119225450Y-102568106D01*
X119225447Y-102568105D01*
X119225445Y-102568104D01*
X119012070Y-102510930D01*
X119012062Y-102510929D01*
X118792002Y-102491677D01*
X118791996Y-102491677D01*
X118741305Y-102496111D01*
X118672805Y-102482343D01*
X118622623Y-102433727D01*
X118606500Y-102372583D01*
X118606500Y-100607422D01*
X119641500Y-100607422D01*
X119672290Y-100801826D01*
X119733117Y-100989029D01*
X119822476Y-101164405D01*
X119938172Y-101323646D01*
X120077354Y-101462828D01*
X120236595Y-101578524D01*
X120319455Y-101620743D01*
X120411970Y-101667882D01*
X120411972Y-101667882D01*
X120411975Y-101667884D01*
X120512317Y-101700487D01*
X120599173Y-101728709D01*
X120793578Y-101759500D01*
X120793583Y-101759500D01*
X120990422Y-101759500D01*
X121184826Y-101728709D01*
X121372025Y-101667884D01*
X121547405Y-101578524D01*
X121706646Y-101462828D01*
X121845828Y-101323646D01*
X121961524Y-101164405D01*
X122050884Y-100989025D01*
X122111709Y-100801826D01*
X122114987Y-100781132D01*
X122142500Y-100607422D01*
X125241500Y-100607422D01*
X125272290Y-100801826D01*
X125333117Y-100989029D01*
X125422476Y-101164405D01*
X125538172Y-101323646D01*
X125677354Y-101462828D01*
X125836595Y-101578524D01*
X125919455Y-101620743D01*
X126011970Y-101667882D01*
X126011972Y-101667882D01*
X126011975Y-101667884D01*
X126112317Y-101700487D01*
X126199173Y-101728709D01*
X126393578Y-101759500D01*
X126393583Y-101759500D01*
X126590422Y-101759500D01*
X126784826Y-101728709D01*
X126972025Y-101667884D01*
X127147405Y-101578524D01*
X127306646Y-101462828D01*
X127445828Y-101323646D01*
X127561524Y-101164405D01*
X127650884Y-100989025D01*
X127711709Y-100801826D01*
X127714987Y-100781132D01*
X127742500Y-100607422D01*
X127742500Y-100310577D01*
X127711709Y-100116173D01*
X127664831Y-99971899D01*
X127650884Y-99928975D01*
X127650882Y-99928972D01*
X127650882Y-99928970D01*
X127561523Y-99753594D01*
X127445828Y-99594354D01*
X127306646Y-99455172D01*
X127147405Y-99339476D01*
X126972029Y-99250117D01*
X126784826Y-99189290D01*
X126590422Y-99158500D01*
X126590417Y-99158500D01*
X126393583Y-99158500D01*
X126393578Y-99158500D01*
X126199173Y-99189290D01*
X126011970Y-99250117D01*
X125836594Y-99339476D01*
X125832570Y-99342400D01*
X125677354Y-99455172D01*
X125677352Y-99455174D01*
X125677351Y-99455174D01*
X125538174Y-99594351D01*
X125538174Y-99594352D01*
X125538172Y-99594354D01*
X125488485Y-99662741D01*
X125422476Y-99753594D01*
X125333117Y-99928970D01*
X125272290Y-100116173D01*
X125241500Y-100310577D01*
X125241500Y-100607422D01*
X122142500Y-100607422D01*
X122142500Y-100310577D01*
X122111709Y-100116173D01*
X122064831Y-99971899D01*
X122050884Y-99928975D01*
X122050882Y-99928972D01*
X122050882Y-99928970D01*
X121961523Y-99753594D01*
X121845828Y-99594354D01*
X121706646Y-99455172D01*
X121547405Y-99339476D01*
X121372029Y-99250117D01*
X121184826Y-99189290D01*
X120990422Y-99158500D01*
X120990417Y-99158500D01*
X120793583Y-99158500D01*
X120793578Y-99158500D01*
X120599173Y-99189290D01*
X120411970Y-99250117D01*
X120236594Y-99339476D01*
X120232570Y-99342400D01*
X120077354Y-99455172D01*
X120077352Y-99455174D01*
X120077351Y-99455174D01*
X119938174Y-99594351D01*
X119938174Y-99594352D01*
X119938172Y-99594354D01*
X119888485Y-99662741D01*
X119822476Y-99753594D01*
X119733117Y-99928970D01*
X119672290Y-100116173D01*
X119641500Y-100310577D01*
X119641500Y-100607422D01*
X118606500Y-100607422D01*
X118606500Y-81394741D01*
X122709500Y-81394741D01*
X122734446Y-81584215D01*
X122739452Y-81622238D01*
X122780158Y-81774156D01*
X122798842Y-81843887D01*
X122886650Y-82055876D01*
X122886657Y-82055890D01*
X123001392Y-82254617D01*
X123141081Y-82436661D01*
X123141089Y-82436670D01*
X123303330Y-82598911D01*
X123303338Y-82598918D01*
X123485382Y-82738607D01*
X123485385Y-82738608D01*
X123485388Y-82738611D01*
X123684112Y-82853344D01*
X123684117Y-82853346D01*
X123684123Y-82853349D01*
X123755208Y-82882793D01*
X123896113Y-82941158D01*
X124117762Y-83000548D01*
X124345266Y-83030500D01*
X124345273Y-83030500D01*
X124574727Y-83030500D01*
X124574734Y-83030500D01*
X124802238Y-83000548D01*
X125023887Y-82941158D01*
X125235888Y-82853344D01*
X125434612Y-82738611D01*
X125616661Y-82598919D01*
X125616665Y-82598914D01*
X125616670Y-82598911D01*
X125778911Y-82436670D01*
X125778914Y-82436665D01*
X125778919Y-82436661D01*
X125918611Y-82254612D01*
X126033344Y-82055888D01*
X126121158Y-81843887D01*
X126180548Y-81622238D01*
X126210500Y-81394734D01*
X126210500Y-81165266D01*
X126180548Y-80937762D01*
X126121158Y-80716113D01*
X126033344Y-80504112D01*
X125918611Y-80305388D01*
X125918608Y-80305385D01*
X125918607Y-80305382D01*
X125778918Y-80123338D01*
X125778911Y-80123330D01*
X125616670Y-79961089D01*
X125616661Y-79961081D01*
X125434617Y-79821392D01*
X125235890Y-79706657D01*
X125235876Y-79706650D01*
X125023887Y-79618842D01*
X124802238Y-79559452D01*
X124764215Y-79554446D01*
X124574741Y-79529500D01*
X124574734Y-79529500D01*
X124345266Y-79529500D01*
X124345258Y-79529500D01*
X124128715Y-79558009D01*
X124117762Y-79559452D01*
X124024076Y-79584554D01*
X123896112Y-79618842D01*
X123684123Y-79706650D01*
X123684109Y-79706657D01*
X123485382Y-79821392D01*
X123303338Y-79961081D01*
X123141081Y-80123338D01*
X123001392Y-80305382D01*
X122886657Y-80504109D01*
X122886650Y-80504123D01*
X122798842Y-80716112D01*
X122739453Y-80937759D01*
X122739451Y-80937770D01*
X122709500Y-81165258D01*
X122709500Y-81394741D01*
X118606500Y-81394741D01*
X118606500Y-63862229D01*
X118626185Y-63795190D01*
X118642819Y-63774548D01*
X118848698Y-63568669D01*
X122849500Y-63568669D01*
X122849501Y-63568687D01*
X122859825Y-63669752D01*
X122914092Y-63833515D01*
X122914093Y-63833518D01*
X122921893Y-63846164D01*
X122969403Y-63923190D01*
X123004661Y-63980351D01*
X123038181Y-64013871D01*
X123071666Y-64075194D01*
X123074500Y-64101552D01*
X123074500Y-65732918D01*
X123074500Y-65732920D01*
X123074499Y-65732920D01*
X123103340Y-65877907D01*
X123103343Y-65877917D01*
X123159912Y-66014488D01*
X123159916Y-66014495D01*
X123184640Y-66051497D01*
X123184641Y-66051500D01*
X123184642Y-66051500D01*
X123242051Y-66137420D01*
X123242052Y-66137421D01*
X135805181Y-78700548D01*
X135838666Y-78761871D01*
X135841500Y-78788229D01*
X135841500Y-102678726D01*
X135821815Y-102745765D01*
X135788625Y-102780299D01*
X135777389Y-102788166D01*
X135777382Y-102788172D01*
X135679681Y-102885873D01*
X135618357Y-102919357D01*
X135548666Y-102914373D01*
X135504319Y-102885872D01*
X135406819Y-102788372D01*
X135373334Y-102727049D01*
X135370500Y-102700691D01*
X135370500Y-86386321D01*
X135387113Y-86324321D01*
X135414239Y-86277337D01*
X135447179Y-86220284D01*
X135505674Y-86040256D01*
X135525460Y-85852000D01*
X135505674Y-85663744D01*
X135447179Y-85483716D01*
X135352533Y-85319784D01*
X135225871Y-85179112D01*
X135225870Y-85179111D01*
X135072734Y-85067851D01*
X135072729Y-85067848D01*
X134899807Y-84990857D01*
X134899802Y-84990855D01*
X134754001Y-84959865D01*
X134714646Y-84951500D01*
X134525354Y-84951500D01*
X134492897Y-84958398D01*
X134340197Y-84990855D01*
X134340192Y-84990857D01*
X134167270Y-85067848D01*
X134167265Y-85067851D01*
X134014129Y-85179111D01*
X133887466Y-85319785D01*
X133792821Y-85483715D01*
X133792818Y-85483722D01*
X133734327Y-85663740D01*
X133734326Y-85663744D01*
X133714540Y-85852000D01*
X133734326Y-86040256D01*
X133734327Y-86040259D01*
X133792818Y-86220277D01*
X133792821Y-86220284D01*
X133825759Y-86277335D01*
X133852887Y-86324321D01*
X133869500Y-86386321D01*
X133869500Y-102659120D01*
X133849815Y-102726159D01*
X133816624Y-102760694D01*
X133777379Y-102788173D01*
X133621175Y-102944377D01*
X133494465Y-103125339D01*
X133429657Y-103264320D01*
X133404956Y-103299595D01*
X132992000Y-103712551D01*
X132992000Y-103706339D01*
X132964741Y-103604606D01*
X132912080Y-103513394D01*
X132837606Y-103438920D01*
X132746394Y-103386259D01*
X132644661Y-103359000D01*
X132638448Y-103359000D01*
X133290188Y-102707259D01*
X133290187Y-102707258D01*
X133225411Y-102661901D01*
X133225405Y-102661898D01*
X133025284Y-102568580D01*
X133025270Y-102568575D01*
X132811986Y-102511426D01*
X132811976Y-102511424D01*
X132592001Y-102492179D01*
X132591999Y-102492179D01*
X132372023Y-102511424D01*
X132372013Y-102511426D01*
X132158729Y-102568575D01*
X132158720Y-102568579D01*
X131958590Y-102661901D01*
X131893811Y-102707258D01*
X132545553Y-103359000D01*
X132539339Y-103359000D01*
X132437606Y-103386259D01*
X132346394Y-103438920D01*
X132271920Y-103513394D01*
X132219259Y-103604606D01*
X132192000Y-103706339D01*
X132192000Y-103712553D01*
X131592000Y-103112553D01*
X130992000Y-103712553D01*
X130992000Y-103706339D01*
X130964741Y-103604606D01*
X130912080Y-103513394D01*
X130837606Y-103438920D01*
X130746394Y-103386259D01*
X130644661Y-103359000D01*
X130638448Y-103359000D01*
X131290188Y-102707259D01*
X131290187Y-102707258D01*
X131225411Y-102661901D01*
X131225405Y-102661898D01*
X131025284Y-102568580D01*
X131025270Y-102568575D01*
X130811986Y-102511426D01*
X130811976Y-102511424D01*
X130592001Y-102492179D01*
X130591999Y-102492179D01*
X130372023Y-102511424D01*
X130372013Y-102511426D01*
X130158729Y-102568575D01*
X130158720Y-102568579D01*
X129958590Y-102661901D01*
X129893811Y-102707258D01*
X130545553Y-103359000D01*
X130539339Y-103359000D01*
X130437606Y-103386259D01*
X130346394Y-103438920D01*
X130271920Y-103513394D01*
X130219259Y-103604606D01*
X130192000Y-103706339D01*
X130192000Y-103712553D01*
X129779041Y-103299594D01*
X129754341Y-103264319D01*
X129689534Y-103125339D01*
X129562826Y-102944380D01*
X129406620Y-102788174D01*
X129406616Y-102788171D01*
X129406615Y-102788170D01*
X129225666Y-102661468D01*
X129225662Y-102661466D01*
X129126210Y-102615091D01*
X129025450Y-102568106D01*
X129025447Y-102568105D01*
X129025445Y-102568104D01*
X128812070Y-102510930D01*
X128812062Y-102510929D01*
X128592002Y-102491677D01*
X128591998Y-102491677D01*
X128371937Y-102510929D01*
X128371929Y-102510930D01*
X128158554Y-102568104D01*
X128158548Y-102568107D01*
X127958340Y-102661465D01*
X127958338Y-102661466D01*
X127777377Y-102788175D01*
X127621175Y-102944377D01*
X127494466Y-103125338D01*
X127494465Y-103125340D01*
X127401107Y-103325548D01*
X127401104Y-103325554D01*
X127343930Y-103538929D01*
X127343929Y-103538937D01*
X127324677Y-103758997D01*
X127324677Y-103759002D01*
X127343929Y-103979062D01*
X127343930Y-103979070D01*
X127401104Y-104192445D01*
X127401105Y-104192447D01*
X127401106Y-104192450D01*
X127494463Y-104392656D01*
X127494466Y-104392662D01*
X127494468Y-104392666D01*
X127621170Y-104573615D01*
X127621175Y-104573621D01*
X127777378Y-104729824D01*
X127777384Y-104729829D01*
X127958333Y-104856531D01*
X127958335Y-104856532D01*
X127958338Y-104856534D01*
X128158550Y-104949894D01*
X128371932Y-105007070D01*
X128529123Y-105020822D01*
X128591998Y-105026323D01*
X128592000Y-105026323D01*
X128592002Y-105026323D01*
X128647017Y-105021509D01*
X128812068Y-105007070D01*
X129025450Y-104949894D01*
X129225662Y-104856534D01*
X129406620Y-104729826D01*
X129562826Y-104573620D01*
X129689534Y-104392662D01*
X129754343Y-104253676D01*
X129779043Y-104218401D01*
X130192000Y-103805444D01*
X130192000Y-103811661D01*
X130219259Y-103913394D01*
X130271920Y-104004606D01*
X130346394Y-104079080D01*
X130437606Y-104131741D01*
X130539339Y-104159000D01*
X130545553Y-104159000D01*
X129893810Y-104810740D01*
X129958590Y-104856099D01*
X129958592Y-104856100D01*
X130158715Y-104949419D01*
X130158729Y-104949424D01*
X130372013Y-105006573D01*
X130372023Y-105006575D01*
X130591999Y-105025821D01*
X130592001Y-105025821D01*
X130811976Y-105006575D01*
X130811986Y-105006573D01*
X131025270Y-104949424D01*
X131025284Y-104949419D01*
X131225407Y-104856100D01*
X131225417Y-104856094D01*
X131290188Y-104810741D01*
X130638448Y-104159000D01*
X130644661Y-104159000D01*
X130746394Y-104131741D01*
X130837606Y-104079080D01*
X130912080Y-104004606D01*
X130964741Y-103913394D01*
X130992000Y-103811661D01*
X130992000Y-103805447D01*
X131592000Y-104405447D01*
X132192000Y-103805447D01*
X132192000Y-103811661D01*
X132219259Y-103913394D01*
X132271920Y-104004606D01*
X132346394Y-104079080D01*
X132437606Y-104131741D01*
X132539339Y-104159000D01*
X132545553Y-104159000D01*
X131893810Y-104810740D01*
X131958590Y-104856099D01*
X131958592Y-104856100D01*
X132158715Y-104949419D01*
X132158729Y-104949424D01*
X132372013Y-105006573D01*
X132372023Y-105006575D01*
X132591999Y-105025821D01*
X132592001Y-105025821D01*
X132811976Y-105006575D01*
X132811986Y-105006573D01*
X133025270Y-104949424D01*
X133025284Y-104949419D01*
X133225407Y-104856100D01*
X133225417Y-104856094D01*
X133290188Y-104810741D01*
X132638448Y-104159000D01*
X132644661Y-104159000D01*
X132746394Y-104131741D01*
X132837606Y-104079080D01*
X132912080Y-104004606D01*
X132964741Y-103913394D01*
X132992000Y-103811661D01*
X132992000Y-103805447D01*
X133404956Y-104218403D01*
X133429657Y-104253679D01*
X133494466Y-104392662D01*
X133494468Y-104392666D01*
X133621170Y-104573615D01*
X133621175Y-104573621D01*
X133777378Y-104729824D01*
X133777384Y-104729829D01*
X133958333Y-104856531D01*
X133958335Y-104856532D01*
X133958338Y-104856534D01*
X134158550Y-104949894D01*
X134371932Y-105007070D01*
X134529123Y-105020822D01*
X134591998Y-105026323D01*
X134592000Y-105026323D01*
X134592002Y-105026323D01*
X134647017Y-105021509D01*
X134812068Y-105007070D01*
X135025450Y-104949894D01*
X135225662Y-104856534D01*
X135406620Y-104729826D01*
X135504319Y-104632127D01*
X135565642Y-104598642D01*
X135635334Y-104603626D01*
X135679681Y-104632127D01*
X135777378Y-104729824D01*
X135777384Y-104729829D01*
X135958333Y-104856531D01*
X135958335Y-104856532D01*
X135958338Y-104856534D01*
X136158550Y-104949894D01*
X136371932Y-105007070D01*
X136529123Y-105020822D01*
X136591998Y-105026323D01*
X136592000Y-105026323D01*
X136592002Y-105026323D01*
X136647017Y-105021509D01*
X136812068Y-105007070D01*
X137025450Y-104949894D01*
X137225662Y-104856534D01*
X137406620Y-104729826D01*
X137504319Y-104632127D01*
X137565642Y-104598642D01*
X137635334Y-104603626D01*
X137679681Y-104632127D01*
X137777378Y-104729824D01*
X137777384Y-104729829D01*
X137958333Y-104856531D01*
X137958335Y-104856532D01*
X137958338Y-104856534D01*
X138158550Y-104949894D01*
X138371932Y-105007070D01*
X138529123Y-105020822D01*
X138591998Y-105026323D01*
X138592000Y-105026323D01*
X138592002Y-105026323D01*
X138647017Y-105021509D01*
X138812068Y-105007070D01*
X139025450Y-104949894D01*
X139225662Y-104856534D01*
X139406620Y-104729826D01*
X139562826Y-104573620D01*
X139689534Y-104392662D01*
X139782894Y-104192450D01*
X139840070Y-103979068D01*
X139859323Y-103759000D01*
X139840070Y-103538932D01*
X139782894Y-103325550D01*
X139689534Y-103125339D01*
X139562826Y-102944380D01*
X139406620Y-102788174D01*
X139406616Y-102788171D01*
X139406615Y-102788170D01*
X139225666Y-102661468D01*
X139225662Y-102661466D01*
X139126210Y-102615091D01*
X139025450Y-102568106D01*
X139025447Y-102568105D01*
X139025445Y-102568104D01*
X138812070Y-102510930D01*
X138812062Y-102510929D01*
X138592002Y-102491677D01*
X138591994Y-102491677D01*
X138553304Y-102495061D01*
X138484805Y-102481293D01*
X138434623Y-102432676D01*
X138418500Y-102371533D01*
X138418500Y-100607422D01*
X139441500Y-100607422D01*
X139472290Y-100801826D01*
X139533117Y-100989029D01*
X139622476Y-101164405D01*
X139738172Y-101323646D01*
X139877354Y-101462828D01*
X140036595Y-101578524D01*
X140119455Y-101620743D01*
X140211970Y-101667882D01*
X140211972Y-101667882D01*
X140211975Y-101667884D01*
X140312317Y-101700487D01*
X140399173Y-101728709D01*
X140593578Y-101759500D01*
X140593583Y-101759500D01*
X140790422Y-101759500D01*
X140984826Y-101728709D01*
X141172025Y-101667884D01*
X141347405Y-101578524D01*
X141506646Y-101462828D01*
X141645828Y-101323646D01*
X141761524Y-101164405D01*
X141850884Y-100989025D01*
X141911709Y-100801826D01*
X141914987Y-100781132D01*
X141942500Y-100607422D01*
X144985500Y-100607422D01*
X145016290Y-100801826D01*
X145077117Y-100989029D01*
X145166476Y-101164405D01*
X145282172Y-101323646D01*
X145421354Y-101462828D01*
X145580595Y-101578524D01*
X145663455Y-101620743D01*
X145755970Y-101667882D01*
X145755972Y-101667882D01*
X145755975Y-101667884D01*
X145856317Y-101700487D01*
X145943173Y-101728709D01*
X146137578Y-101759500D01*
X146137583Y-101759500D01*
X146334422Y-101759500D01*
X146528826Y-101728709D01*
X146716025Y-101667884D01*
X146891405Y-101578524D01*
X147050646Y-101462828D01*
X147189828Y-101323646D01*
X147305524Y-101164405D01*
X147394884Y-100989025D01*
X147455709Y-100801826D01*
X147458987Y-100781132D01*
X147486500Y-100607422D01*
X147486500Y-100310577D01*
X147455709Y-100116173D01*
X147408831Y-99971899D01*
X147394884Y-99928975D01*
X147394882Y-99928972D01*
X147394882Y-99928970D01*
X147305523Y-99753594D01*
X147189828Y-99594354D01*
X147050646Y-99455172D01*
X146891405Y-99339476D01*
X146716029Y-99250117D01*
X146528826Y-99189290D01*
X146334422Y-99158500D01*
X146334417Y-99158500D01*
X146137583Y-99158500D01*
X146137578Y-99158500D01*
X145943173Y-99189290D01*
X145755970Y-99250117D01*
X145580594Y-99339476D01*
X145576570Y-99342400D01*
X145421354Y-99455172D01*
X145421352Y-99455174D01*
X145421351Y-99455174D01*
X145282174Y-99594351D01*
X145282174Y-99594352D01*
X145282172Y-99594354D01*
X145232485Y-99662741D01*
X145166476Y-99753594D01*
X145077117Y-99928970D01*
X145016290Y-100116173D01*
X144985500Y-100310577D01*
X144985500Y-100607422D01*
X141942500Y-100607422D01*
X141942500Y-100310577D01*
X141911709Y-100116173D01*
X141864831Y-99971899D01*
X141850884Y-99928975D01*
X141850882Y-99928972D01*
X141850882Y-99928970D01*
X141761523Y-99753594D01*
X141645828Y-99594354D01*
X141506646Y-99455172D01*
X141347405Y-99339476D01*
X141172029Y-99250117D01*
X140984826Y-99189290D01*
X140790422Y-99158500D01*
X140790417Y-99158500D01*
X140593583Y-99158500D01*
X140593578Y-99158500D01*
X140399173Y-99189290D01*
X140211970Y-99250117D01*
X140036594Y-99339476D01*
X140032570Y-99342400D01*
X139877354Y-99455172D01*
X139877352Y-99455174D01*
X139877351Y-99455174D01*
X139738174Y-99594351D01*
X139738174Y-99594352D01*
X139738172Y-99594354D01*
X139688485Y-99662741D01*
X139622476Y-99753594D01*
X139533117Y-99928970D01*
X139472290Y-100116173D01*
X139441500Y-100310577D01*
X139441500Y-100607422D01*
X138418500Y-100607422D01*
X138418500Y-82804001D01*
X146685147Y-82804001D01*
X146704536Y-83075090D01*
X146704537Y-83075097D01*
X146762305Y-83340654D01*
X146857285Y-83595306D01*
X146857287Y-83595310D01*
X146987532Y-83833835D01*
X146987537Y-83833843D01*
X147081321Y-83959123D01*
X147081322Y-83959124D01*
X147874153Y-83166293D01*
X147881049Y-83182942D01*
X147968599Y-83313970D01*
X148080030Y-83425401D01*
X148211058Y-83512951D01*
X148227705Y-83519846D01*
X147434874Y-84312676D01*
X147560163Y-84406466D01*
X147560164Y-84406467D01*
X147798689Y-84536712D01*
X147798693Y-84536714D01*
X148053345Y-84631694D01*
X148318902Y-84689462D01*
X148318909Y-84689463D01*
X148589999Y-84708853D01*
X148590001Y-84708853D01*
X148861090Y-84689463D01*
X148861097Y-84689462D01*
X149126654Y-84631694D01*
X149381306Y-84536714D01*
X149381310Y-84536712D01*
X149619844Y-84406462D01*
X149745123Y-84312677D01*
X149745124Y-84312676D01*
X148952294Y-83519846D01*
X148968942Y-83512951D01*
X149099970Y-83425401D01*
X149211401Y-83313970D01*
X149298951Y-83182942D01*
X149305846Y-83166294D01*
X150098676Y-83959124D01*
X150098677Y-83959123D01*
X150192462Y-83833844D01*
X150322712Y-83595310D01*
X150322714Y-83595306D01*
X150417694Y-83340654D01*
X150475462Y-83075097D01*
X150475463Y-83075090D01*
X150494853Y-82804001D01*
X150494853Y-82803998D01*
X150475463Y-82532909D01*
X150475462Y-82532902D01*
X150417694Y-82267345D01*
X150322714Y-82012693D01*
X150322712Y-82012689D01*
X150192467Y-81774164D01*
X150192466Y-81774163D01*
X150098676Y-81648874D01*
X149305846Y-82441704D01*
X149298951Y-82425058D01*
X149211401Y-82294030D01*
X149099970Y-82182599D01*
X148968942Y-82095049D01*
X148952294Y-82088153D01*
X149745124Y-81295322D01*
X149745123Y-81295321D01*
X149619843Y-81201537D01*
X149619835Y-81201532D01*
X149381310Y-81071287D01*
X149381306Y-81071285D01*
X149126654Y-80976305D01*
X148861097Y-80918537D01*
X148861090Y-80918536D01*
X148590001Y-80899147D01*
X148589999Y-80899147D01*
X148318909Y-80918536D01*
X148318902Y-80918537D01*
X148053345Y-80976305D01*
X147798693Y-81071285D01*
X147798689Y-81071287D01*
X147560164Y-81201532D01*
X147560156Y-81201537D01*
X147434875Y-81295321D01*
X147434874Y-81295322D01*
X148227705Y-82088153D01*
X148211058Y-82095049D01*
X148080030Y-82182599D01*
X147968599Y-82294030D01*
X147881049Y-82425058D01*
X147874153Y-82441705D01*
X147081322Y-81648874D01*
X147081321Y-81648875D01*
X146987537Y-81774156D01*
X146987532Y-81774164D01*
X146857287Y-82012689D01*
X146857285Y-82012693D01*
X146762305Y-82267345D01*
X146704537Y-82532902D01*
X146704536Y-82532909D01*
X146685147Y-82803998D01*
X146685147Y-82804001D01*
X138418500Y-82804001D01*
X138418500Y-63481229D01*
X138430116Y-63441669D01*
X142915500Y-63441669D01*
X142915501Y-63441687D01*
X142925825Y-63542752D01*
X142956920Y-63636589D01*
X142973956Y-63688000D01*
X142980092Y-63706515D01*
X142980093Y-63706518D01*
X142989689Y-63722075D01*
X143058426Y-63833516D01*
X143070661Y-63853351D01*
X143104181Y-63886871D01*
X143137666Y-63948194D01*
X143140500Y-63974552D01*
X143140500Y-65732918D01*
X143140500Y-65732920D01*
X143140499Y-65732920D01*
X143169340Y-65877907D01*
X143169343Y-65877917D01*
X143225912Y-66014488D01*
X143225916Y-66014495D01*
X143250640Y-66051497D01*
X143250641Y-66051500D01*
X143250642Y-66051500D01*
X143308051Y-66137420D01*
X143308052Y-66137421D01*
X155549181Y-78378549D01*
X155582666Y-78439872D01*
X155585500Y-78466230D01*
X155585500Y-102678726D01*
X155565815Y-102745765D01*
X155532625Y-102780299D01*
X155521389Y-102788166D01*
X155521382Y-102788172D01*
X155423681Y-102885873D01*
X155362357Y-102919357D01*
X155292666Y-102914373D01*
X155248319Y-102885873D01*
X155244500Y-102882054D01*
X155150620Y-102788174D01*
X154981376Y-102669668D01*
X154937752Y-102615091D01*
X154928500Y-102568093D01*
X154928500Y-86132321D01*
X154945113Y-86070321D01*
X154949242Y-86063169D01*
X155005179Y-85966284D01*
X155063674Y-85786256D01*
X155083460Y-85598000D01*
X155063674Y-85409744D01*
X155005179Y-85229716D01*
X154910533Y-85065784D01*
X154783871Y-84925112D01*
X154783870Y-84925111D01*
X154630734Y-84813851D01*
X154630729Y-84813848D01*
X154457807Y-84736857D01*
X154457802Y-84736855D01*
X154312001Y-84705865D01*
X154272646Y-84697500D01*
X154083354Y-84697500D01*
X154050897Y-84704398D01*
X153898197Y-84736855D01*
X153898192Y-84736857D01*
X153725270Y-84813848D01*
X153725265Y-84813851D01*
X153572129Y-84925111D01*
X153445466Y-85065785D01*
X153350821Y-85229715D01*
X153350818Y-85229722D01*
X153292327Y-85409740D01*
X153292326Y-85409744D01*
X153272540Y-85598000D01*
X153292326Y-85786256D01*
X153292327Y-85786259D01*
X153350818Y-85966277D01*
X153350821Y-85966284D01*
X153393530Y-86040259D01*
X153410887Y-86070321D01*
X153427500Y-86132321D01*
X153427500Y-102830691D01*
X153407815Y-102897730D01*
X153391181Y-102918372D01*
X153365175Y-102944377D01*
X153238465Y-103125339D01*
X153173657Y-103264320D01*
X153148956Y-103299595D01*
X152736000Y-103712551D01*
X152736000Y-103706339D01*
X152708741Y-103604606D01*
X152656080Y-103513394D01*
X152581606Y-103438920D01*
X152490394Y-103386259D01*
X152388661Y-103359000D01*
X152382448Y-103359000D01*
X153034188Y-102707259D01*
X153034187Y-102707258D01*
X152969411Y-102661901D01*
X152969405Y-102661898D01*
X152769284Y-102568580D01*
X152769270Y-102568575D01*
X152555986Y-102511426D01*
X152555976Y-102511424D01*
X152336001Y-102492179D01*
X152335999Y-102492179D01*
X152116023Y-102511424D01*
X152116013Y-102511426D01*
X151902729Y-102568575D01*
X151902720Y-102568579D01*
X151702590Y-102661901D01*
X151637811Y-102707258D01*
X152289553Y-103359000D01*
X152283339Y-103359000D01*
X152181606Y-103386259D01*
X152090394Y-103438920D01*
X152015920Y-103513394D01*
X151963259Y-103604606D01*
X151936000Y-103706339D01*
X151936000Y-103712553D01*
X151336000Y-103112553D01*
X150736000Y-103712553D01*
X150736000Y-103706339D01*
X150708741Y-103604606D01*
X150656080Y-103513394D01*
X150581606Y-103438920D01*
X150490394Y-103386259D01*
X150388661Y-103359000D01*
X150382448Y-103359000D01*
X151034188Y-102707259D01*
X151034187Y-102707258D01*
X150969411Y-102661901D01*
X150969405Y-102661898D01*
X150769284Y-102568580D01*
X150769270Y-102568575D01*
X150555986Y-102511426D01*
X150555976Y-102511424D01*
X150336001Y-102492179D01*
X150335999Y-102492179D01*
X150116023Y-102511424D01*
X150116013Y-102511426D01*
X149902729Y-102568575D01*
X149902720Y-102568579D01*
X149702590Y-102661901D01*
X149637811Y-102707258D01*
X150289553Y-103359000D01*
X150283339Y-103359000D01*
X150181606Y-103386259D01*
X150090394Y-103438920D01*
X150015920Y-103513394D01*
X149963259Y-103604606D01*
X149936000Y-103706339D01*
X149936000Y-103712553D01*
X149523041Y-103299594D01*
X149498341Y-103264319D01*
X149433534Y-103125339D01*
X149306826Y-102944380D01*
X149150620Y-102788174D01*
X149150616Y-102788171D01*
X149150615Y-102788170D01*
X148969666Y-102661468D01*
X148969662Y-102661466D01*
X148870210Y-102615091D01*
X148769450Y-102568106D01*
X148769447Y-102568105D01*
X148769445Y-102568104D01*
X148556070Y-102510930D01*
X148556062Y-102510929D01*
X148336002Y-102491677D01*
X148335998Y-102491677D01*
X148115937Y-102510929D01*
X148115929Y-102510930D01*
X147902554Y-102568104D01*
X147902548Y-102568107D01*
X147702340Y-102661465D01*
X147702338Y-102661466D01*
X147521377Y-102788175D01*
X147365175Y-102944377D01*
X147238466Y-103125338D01*
X147238465Y-103125340D01*
X147145107Y-103325548D01*
X147145104Y-103325554D01*
X147087930Y-103538929D01*
X147087929Y-103538937D01*
X147068677Y-103758997D01*
X147068677Y-103759002D01*
X147087929Y-103979062D01*
X147087930Y-103979070D01*
X147145104Y-104192445D01*
X147145105Y-104192447D01*
X147145106Y-104192450D01*
X147238463Y-104392656D01*
X147238466Y-104392662D01*
X147238468Y-104392666D01*
X147365170Y-104573615D01*
X147365175Y-104573621D01*
X147521378Y-104729824D01*
X147521384Y-104729829D01*
X147702333Y-104856531D01*
X147702335Y-104856532D01*
X147702338Y-104856534D01*
X147902550Y-104949894D01*
X148115932Y-105007070D01*
X148273123Y-105020822D01*
X148335998Y-105026323D01*
X148336000Y-105026323D01*
X148336002Y-105026323D01*
X148391017Y-105021509D01*
X148556068Y-105007070D01*
X148769450Y-104949894D01*
X148969662Y-104856534D01*
X149150620Y-104729826D01*
X149306826Y-104573620D01*
X149433534Y-104392662D01*
X149498343Y-104253676D01*
X149523043Y-104218401D01*
X149936000Y-103805444D01*
X149936000Y-103811661D01*
X149963259Y-103913394D01*
X150015920Y-104004606D01*
X150090394Y-104079080D01*
X150181606Y-104131741D01*
X150283339Y-104159000D01*
X150289553Y-104159000D01*
X149637810Y-104810740D01*
X149702590Y-104856099D01*
X149702592Y-104856100D01*
X149902715Y-104949419D01*
X149902729Y-104949424D01*
X150116013Y-105006573D01*
X150116023Y-105006575D01*
X150335999Y-105025821D01*
X150336001Y-105025821D01*
X150555976Y-105006575D01*
X150555986Y-105006573D01*
X150769270Y-104949424D01*
X150769284Y-104949419D01*
X150969407Y-104856100D01*
X150969417Y-104856094D01*
X151034188Y-104810741D01*
X150382448Y-104159000D01*
X150388661Y-104159000D01*
X150490394Y-104131741D01*
X150581606Y-104079080D01*
X150656080Y-104004606D01*
X150708741Y-103913394D01*
X150736000Y-103811661D01*
X150736000Y-103805447D01*
X151336000Y-104405447D01*
X151936000Y-103805447D01*
X151936000Y-103811661D01*
X151963259Y-103913394D01*
X152015920Y-104004606D01*
X152090394Y-104079080D01*
X152181606Y-104131741D01*
X152283339Y-104159000D01*
X152289553Y-104159000D01*
X151637810Y-104810740D01*
X151702590Y-104856099D01*
X151702592Y-104856100D01*
X151902715Y-104949419D01*
X151902729Y-104949424D01*
X152116013Y-105006573D01*
X152116023Y-105006575D01*
X152335999Y-105025821D01*
X152336001Y-105025821D01*
X152555976Y-105006575D01*
X152555986Y-105006573D01*
X152769270Y-104949424D01*
X152769284Y-104949419D01*
X152969407Y-104856100D01*
X152969417Y-104856094D01*
X153034188Y-104810741D01*
X152382448Y-104159000D01*
X152388661Y-104159000D01*
X152490394Y-104131741D01*
X152581606Y-104079080D01*
X152656080Y-104004606D01*
X152708741Y-103913394D01*
X152736000Y-103811661D01*
X152736000Y-103805447D01*
X153148956Y-104218403D01*
X153173657Y-104253679D01*
X153238466Y-104392662D01*
X153238468Y-104392666D01*
X153365170Y-104573615D01*
X153365175Y-104573621D01*
X153521378Y-104729824D01*
X153521384Y-104729829D01*
X153702333Y-104856531D01*
X153702335Y-104856532D01*
X153702338Y-104856534D01*
X153902550Y-104949894D01*
X154115932Y-105007070D01*
X154273123Y-105020822D01*
X154335998Y-105026323D01*
X154336000Y-105026323D01*
X154336002Y-105026323D01*
X154391017Y-105021509D01*
X154556068Y-105007070D01*
X154769450Y-104949894D01*
X154969662Y-104856534D01*
X155150620Y-104729826D01*
X155248319Y-104632127D01*
X155309642Y-104598642D01*
X155379334Y-104603626D01*
X155423681Y-104632127D01*
X155521378Y-104729824D01*
X155521384Y-104729829D01*
X155702333Y-104856531D01*
X155702335Y-104856532D01*
X155702338Y-104856534D01*
X155902550Y-104949894D01*
X156115932Y-105007070D01*
X156273123Y-105020822D01*
X156335998Y-105026323D01*
X156336000Y-105026323D01*
X156336002Y-105026323D01*
X156391017Y-105021509D01*
X156556068Y-105007070D01*
X156769450Y-104949894D01*
X156969662Y-104856534D01*
X157150620Y-104729826D01*
X157248319Y-104632127D01*
X157309642Y-104598642D01*
X157379334Y-104603626D01*
X157423681Y-104632127D01*
X157521378Y-104729824D01*
X157521384Y-104729829D01*
X157702333Y-104856531D01*
X157702335Y-104856532D01*
X157702338Y-104856534D01*
X157902550Y-104949894D01*
X158115932Y-105007070D01*
X158273123Y-105020822D01*
X158335998Y-105026323D01*
X158336000Y-105026323D01*
X158336002Y-105026323D01*
X158391017Y-105021509D01*
X158556068Y-105007070D01*
X158769450Y-104949894D01*
X158969662Y-104856534D01*
X159150620Y-104729826D01*
X159306826Y-104573620D01*
X159433534Y-104392662D01*
X159526894Y-104192450D01*
X159584070Y-103979068D01*
X159603323Y-103759000D01*
X159584070Y-103538932D01*
X159526894Y-103325550D01*
X159433534Y-103125339D01*
X159306826Y-102944380D01*
X159150620Y-102788174D01*
X159150616Y-102788171D01*
X159150615Y-102788170D01*
X158969666Y-102661468D01*
X158969662Y-102661466D01*
X158870210Y-102615091D01*
X158769450Y-102568106D01*
X158769446Y-102568105D01*
X158769444Y-102568104D01*
X158576406Y-102516379D01*
X158516746Y-102480013D01*
X158486217Y-102417166D01*
X158484500Y-102396604D01*
X158484500Y-100607422D01*
X159185500Y-100607422D01*
X159216290Y-100801826D01*
X159277117Y-100989029D01*
X159366476Y-101164405D01*
X159482172Y-101323646D01*
X159621354Y-101462828D01*
X159780595Y-101578524D01*
X159863455Y-101620743D01*
X159955970Y-101667882D01*
X159955972Y-101667882D01*
X159955975Y-101667884D01*
X160056317Y-101700487D01*
X160143173Y-101728709D01*
X160337578Y-101759500D01*
X160337583Y-101759500D01*
X160534422Y-101759500D01*
X160728826Y-101728709D01*
X160916025Y-101667884D01*
X161091405Y-101578524D01*
X161250646Y-101462828D01*
X161389828Y-101323646D01*
X161505524Y-101164405D01*
X161594884Y-100989025D01*
X161655709Y-100801826D01*
X161658987Y-100781132D01*
X161686500Y-100607422D01*
X164750500Y-100607422D01*
X164781290Y-100801826D01*
X164842117Y-100989029D01*
X164931476Y-101164405D01*
X165047172Y-101323646D01*
X165186354Y-101462828D01*
X165345595Y-101578524D01*
X165428455Y-101620743D01*
X165520970Y-101667882D01*
X165520972Y-101667882D01*
X165520975Y-101667884D01*
X165621317Y-101700487D01*
X165708173Y-101728709D01*
X165902578Y-101759500D01*
X165902583Y-101759500D01*
X166099422Y-101759500D01*
X166293826Y-101728709D01*
X166481025Y-101667884D01*
X166656405Y-101578524D01*
X166815646Y-101462828D01*
X166954828Y-101323646D01*
X167070524Y-101164405D01*
X167159884Y-100989025D01*
X167220709Y-100801826D01*
X167223987Y-100781132D01*
X167251500Y-100607422D01*
X167251500Y-100310577D01*
X167220709Y-100116173D01*
X167173831Y-99971899D01*
X167159884Y-99928975D01*
X167159882Y-99928972D01*
X167159882Y-99928970D01*
X167070523Y-99753594D01*
X166954828Y-99594354D01*
X166815646Y-99455172D01*
X166656405Y-99339476D01*
X166481029Y-99250117D01*
X166293826Y-99189290D01*
X166099422Y-99158500D01*
X166099417Y-99158500D01*
X165902583Y-99158500D01*
X165902578Y-99158500D01*
X165708173Y-99189290D01*
X165520970Y-99250117D01*
X165345594Y-99339476D01*
X165341570Y-99342400D01*
X165186354Y-99455172D01*
X165186352Y-99455174D01*
X165186351Y-99455174D01*
X165047174Y-99594351D01*
X165047174Y-99594352D01*
X165047172Y-99594354D01*
X164997485Y-99662741D01*
X164931476Y-99753594D01*
X164842117Y-99928970D01*
X164781290Y-100116173D01*
X164750500Y-100310577D01*
X164750500Y-100607422D01*
X161686500Y-100607422D01*
X161686500Y-100310577D01*
X161655709Y-100116173D01*
X161608831Y-99971899D01*
X161594884Y-99928975D01*
X161594882Y-99928972D01*
X161594882Y-99928970D01*
X161505523Y-99753594D01*
X161389828Y-99594354D01*
X161250646Y-99455172D01*
X161091405Y-99339476D01*
X160916029Y-99250117D01*
X160728826Y-99189290D01*
X160534422Y-99158500D01*
X160534417Y-99158500D01*
X160337583Y-99158500D01*
X160337578Y-99158500D01*
X160143173Y-99189290D01*
X159955970Y-99250117D01*
X159780594Y-99339476D01*
X159776570Y-99342400D01*
X159621354Y-99455172D01*
X159621352Y-99455174D01*
X159621351Y-99455174D01*
X159482174Y-99594351D01*
X159482174Y-99594352D01*
X159482172Y-99594354D01*
X159432485Y-99662741D01*
X159366476Y-99753594D01*
X159277117Y-99928970D01*
X159216290Y-100116173D01*
X159185500Y-100310577D01*
X159185500Y-100607422D01*
X158484500Y-100607422D01*
X158484500Y-81394741D01*
X165889500Y-81394741D01*
X165914446Y-81584215D01*
X165919452Y-81622238D01*
X165960158Y-81774156D01*
X165978842Y-81843887D01*
X166066650Y-82055876D01*
X166066657Y-82055890D01*
X166181392Y-82254617D01*
X166321081Y-82436661D01*
X166321089Y-82436670D01*
X166483330Y-82598911D01*
X166483338Y-82598918D01*
X166665382Y-82738607D01*
X166665385Y-82738608D01*
X166665388Y-82738611D01*
X166864112Y-82853344D01*
X166864117Y-82853346D01*
X166864123Y-82853349D01*
X166935208Y-82882793D01*
X167076113Y-82941158D01*
X167297762Y-83000548D01*
X167525266Y-83030500D01*
X167525273Y-83030500D01*
X167754727Y-83030500D01*
X167754734Y-83030500D01*
X167982238Y-83000548D01*
X168203887Y-82941158D01*
X168415888Y-82853344D01*
X168614612Y-82738611D01*
X168796661Y-82598919D01*
X168796665Y-82598914D01*
X168796670Y-82598911D01*
X168958911Y-82436670D01*
X168958914Y-82436665D01*
X168958919Y-82436661D01*
X169098611Y-82254612D01*
X169213344Y-82055888D01*
X169301158Y-81843887D01*
X169360548Y-81622238D01*
X169390500Y-81394734D01*
X169390500Y-81165266D01*
X169360548Y-80937762D01*
X169301158Y-80716113D01*
X169213344Y-80504112D01*
X169098611Y-80305388D01*
X169098608Y-80305385D01*
X169098607Y-80305382D01*
X168958918Y-80123338D01*
X168958911Y-80123330D01*
X168796670Y-79961089D01*
X168796661Y-79961081D01*
X168614617Y-79821392D01*
X168415890Y-79706657D01*
X168415876Y-79706650D01*
X168203887Y-79618842D01*
X167982238Y-79559452D01*
X167944215Y-79554446D01*
X167754741Y-79529500D01*
X167754734Y-79529500D01*
X167525266Y-79529500D01*
X167525258Y-79529500D01*
X167308715Y-79558009D01*
X167297762Y-79559452D01*
X167204076Y-79584554D01*
X167076112Y-79618842D01*
X166864123Y-79706650D01*
X166864109Y-79706657D01*
X166665382Y-79821392D01*
X166483338Y-79961081D01*
X166321081Y-80123338D01*
X166181392Y-80305382D01*
X166066657Y-80504109D01*
X166066650Y-80504123D01*
X165978842Y-80716112D01*
X165919453Y-80937759D01*
X165919451Y-80937770D01*
X165889500Y-81165258D01*
X165889500Y-81394741D01*
X158484500Y-81394741D01*
X158484500Y-64203669D01*
X162600500Y-64203669D01*
X162600501Y-64203687D01*
X162610825Y-64304752D01*
X162665092Y-64468515D01*
X162665093Y-64468518D01*
X162681432Y-64495007D01*
X162738851Y-64588099D01*
X162755661Y-64615351D01*
X162789181Y-64648871D01*
X162822666Y-64710194D01*
X162825500Y-64736552D01*
X162825500Y-66875918D01*
X162825500Y-66875920D01*
X162825499Y-66875920D01*
X162854340Y-67020907D01*
X162854343Y-67020917D01*
X162910914Y-67157492D01*
X162943812Y-67206727D01*
X162943813Y-67206730D01*
X162993046Y-67280414D01*
X162993052Y-67280421D01*
X175314181Y-79601549D01*
X175347666Y-79662872D01*
X175350500Y-79689230D01*
X175350500Y-83327481D01*
X175330815Y-83394520D01*
X175278011Y-83440275D01*
X175208853Y-83450219D01*
X175200719Y-83448771D01*
X175160748Y-83440275D01*
X175100646Y-83427500D01*
X174911354Y-83427500D01*
X174878897Y-83434398D01*
X174726197Y-83466855D01*
X174726192Y-83466857D01*
X174553270Y-83543848D01*
X174553265Y-83543851D01*
X174400129Y-83655111D01*
X174273466Y-83795785D01*
X174178821Y-83959715D01*
X174178818Y-83959722D01*
X174142662Y-84071000D01*
X174120326Y-84139744D01*
X174100540Y-84328000D01*
X174120326Y-84516256D01*
X174120327Y-84516259D01*
X174178818Y-84696277D01*
X174178821Y-84696284D01*
X174238887Y-84800321D01*
X174255500Y-84862321D01*
X174255500Y-100729770D01*
X174235815Y-100796809D01*
X174219181Y-100817451D01*
X173518048Y-101518583D01*
X173500674Y-101544585D01*
X173483416Y-101570416D01*
X173435914Y-101641507D01*
X173379343Y-101778082D01*
X173379340Y-101778092D01*
X173350500Y-101923079D01*
X173350500Y-102678726D01*
X173330815Y-102745765D01*
X173297625Y-102780299D01*
X173286389Y-102788166D01*
X173286382Y-102788172D01*
X173130172Y-102944381D01*
X173003465Y-103125339D01*
X172938657Y-103264320D01*
X172913956Y-103299595D01*
X172501000Y-103712551D01*
X172501000Y-103706339D01*
X172473741Y-103604606D01*
X172421080Y-103513394D01*
X172346606Y-103438920D01*
X172255394Y-103386259D01*
X172153661Y-103359000D01*
X172147448Y-103359000D01*
X172799188Y-102707259D01*
X172799187Y-102707258D01*
X172734411Y-102661901D01*
X172734405Y-102661898D01*
X172534284Y-102568580D01*
X172534270Y-102568575D01*
X172320986Y-102511426D01*
X172320976Y-102511424D01*
X172101001Y-102492179D01*
X172100999Y-102492179D01*
X171881023Y-102511424D01*
X171881013Y-102511426D01*
X171667729Y-102568575D01*
X171667720Y-102568579D01*
X171467590Y-102661901D01*
X171402811Y-102707258D01*
X172054553Y-103359000D01*
X172048339Y-103359000D01*
X171946606Y-103386259D01*
X171855394Y-103438920D01*
X171780920Y-103513394D01*
X171728259Y-103604606D01*
X171701000Y-103706339D01*
X171701000Y-103712553D01*
X171101000Y-103112553D01*
X170501000Y-103712553D01*
X170501000Y-103706339D01*
X170473741Y-103604606D01*
X170421080Y-103513394D01*
X170346606Y-103438920D01*
X170255394Y-103386259D01*
X170153661Y-103359000D01*
X170147448Y-103359000D01*
X170799188Y-102707259D01*
X170799187Y-102707258D01*
X170734411Y-102661901D01*
X170734405Y-102661898D01*
X170534284Y-102568580D01*
X170534270Y-102568575D01*
X170320986Y-102511426D01*
X170320976Y-102511424D01*
X170101001Y-102492179D01*
X170100999Y-102492179D01*
X169881023Y-102511424D01*
X169881013Y-102511426D01*
X169667729Y-102568575D01*
X169667720Y-102568579D01*
X169467590Y-102661901D01*
X169402811Y-102707258D01*
X170054553Y-103359000D01*
X170048339Y-103359000D01*
X169946606Y-103386259D01*
X169855394Y-103438920D01*
X169780920Y-103513394D01*
X169728259Y-103604606D01*
X169701000Y-103706339D01*
X169701000Y-103712553D01*
X169288041Y-103299594D01*
X169263341Y-103264319D01*
X169198534Y-103125339D01*
X169071826Y-102944380D01*
X168915620Y-102788174D01*
X168915616Y-102788171D01*
X168915615Y-102788170D01*
X168734666Y-102661468D01*
X168734662Y-102661466D01*
X168635210Y-102615091D01*
X168534450Y-102568106D01*
X168534447Y-102568105D01*
X168534445Y-102568104D01*
X168321070Y-102510930D01*
X168321062Y-102510929D01*
X168101002Y-102491677D01*
X168100998Y-102491677D01*
X167880937Y-102510929D01*
X167880929Y-102510930D01*
X167667554Y-102568104D01*
X167667548Y-102568107D01*
X167467340Y-102661465D01*
X167467338Y-102661466D01*
X167286377Y-102788175D01*
X167130175Y-102944377D01*
X167003466Y-103125338D01*
X167003465Y-103125340D01*
X166910107Y-103325548D01*
X166910104Y-103325554D01*
X166852930Y-103538929D01*
X166852929Y-103538937D01*
X166833677Y-103758997D01*
X166833677Y-103759002D01*
X166852929Y-103979062D01*
X166852930Y-103979070D01*
X166910104Y-104192445D01*
X166910105Y-104192447D01*
X166910106Y-104192450D01*
X167003463Y-104392656D01*
X167003466Y-104392662D01*
X167003468Y-104392666D01*
X167130170Y-104573615D01*
X167130175Y-104573621D01*
X167286378Y-104729824D01*
X167286384Y-104729829D01*
X167467333Y-104856531D01*
X167467335Y-104856532D01*
X167467338Y-104856534D01*
X167667550Y-104949894D01*
X167880932Y-105007070D01*
X168038123Y-105020822D01*
X168100998Y-105026323D01*
X168101000Y-105026323D01*
X168101002Y-105026323D01*
X168156017Y-105021509D01*
X168321068Y-105007070D01*
X168534450Y-104949894D01*
X168734662Y-104856534D01*
X168915620Y-104729826D01*
X169071826Y-104573620D01*
X169198534Y-104392662D01*
X169263343Y-104253676D01*
X169288043Y-104218401D01*
X169701000Y-103805444D01*
X169701000Y-103811661D01*
X169728259Y-103913394D01*
X169780920Y-104004606D01*
X169855394Y-104079080D01*
X169946606Y-104131741D01*
X170048339Y-104159000D01*
X170054553Y-104159000D01*
X169402810Y-104810740D01*
X169467590Y-104856099D01*
X169467592Y-104856100D01*
X169667715Y-104949419D01*
X169667729Y-104949424D01*
X169881013Y-105006573D01*
X169881023Y-105006575D01*
X170100999Y-105025821D01*
X170101001Y-105025821D01*
X170320976Y-105006575D01*
X170320986Y-105006573D01*
X170534270Y-104949424D01*
X170534284Y-104949419D01*
X170734407Y-104856100D01*
X170734417Y-104856094D01*
X170799188Y-104810741D01*
X170147448Y-104159000D01*
X170153661Y-104159000D01*
X170255394Y-104131741D01*
X170346606Y-104079080D01*
X170421080Y-104004606D01*
X170473741Y-103913394D01*
X170501000Y-103811661D01*
X170501000Y-103805447D01*
X171101000Y-104405447D01*
X171701000Y-103805447D01*
X171701000Y-103811661D01*
X171728259Y-103913394D01*
X171780920Y-104004606D01*
X171855394Y-104079080D01*
X171946606Y-104131741D01*
X172048339Y-104159000D01*
X172054553Y-104159000D01*
X171402810Y-104810740D01*
X171467590Y-104856099D01*
X171467592Y-104856100D01*
X171667715Y-104949419D01*
X171667729Y-104949424D01*
X171881013Y-105006573D01*
X171881023Y-105006575D01*
X172100999Y-105025821D01*
X172101001Y-105025821D01*
X172320976Y-105006575D01*
X172320986Y-105006573D01*
X172534270Y-104949424D01*
X172534284Y-104949419D01*
X172734407Y-104856100D01*
X172734417Y-104856094D01*
X172799188Y-104810741D01*
X172147448Y-104159000D01*
X172153661Y-104159000D01*
X172255394Y-104131741D01*
X172346606Y-104079080D01*
X172421080Y-104004606D01*
X172473741Y-103913394D01*
X172501000Y-103811661D01*
X172501000Y-103805447D01*
X172913956Y-104218403D01*
X172938657Y-104253679D01*
X173003466Y-104392662D01*
X173003468Y-104392666D01*
X173130170Y-104573615D01*
X173130175Y-104573621D01*
X173286378Y-104729824D01*
X173286384Y-104729829D01*
X173467333Y-104856531D01*
X173467335Y-104856532D01*
X173467338Y-104856534D01*
X173667550Y-104949894D01*
X173880932Y-105007070D01*
X174038123Y-105020822D01*
X174100998Y-105026323D01*
X174101000Y-105026323D01*
X174101002Y-105026323D01*
X174156017Y-105021509D01*
X174321068Y-105007070D01*
X174534450Y-104949894D01*
X174734662Y-104856534D01*
X174915620Y-104729826D01*
X175013319Y-104632127D01*
X175074642Y-104598642D01*
X175144334Y-104603626D01*
X175188681Y-104632127D01*
X175286378Y-104729824D01*
X175286384Y-104729829D01*
X175467333Y-104856531D01*
X175467335Y-104856532D01*
X175467338Y-104856534D01*
X175667550Y-104949894D01*
X175880932Y-105007070D01*
X176038123Y-105020822D01*
X176100998Y-105026323D01*
X176101000Y-105026323D01*
X176101002Y-105026323D01*
X176156017Y-105021509D01*
X176321068Y-105007070D01*
X176534450Y-104949894D01*
X176734662Y-104856534D01*
X176915620Y-104729826D01*
X177013319Y-104632127D01*
X177074642Y-104598642D01*
X177144334Y-104603626D01*
X177188681Y-104632127D01*
X177286378Y-104729824D01*
X177286384Y-104729829D01*
X177467333Y-104856531D01*
X177467335Y-104856532D01*
X177467338Y-104856534D01*
X177667550Y-104949894D01*
X177880932Y-105007070D01*
X178038123Y-105020822D01*
X178100998Y-105026323D01*
X178101000Y-105026323D01*
X178101002Y-105026323D01*
X178156017Y-105021509D01*
X178321068Y-105007070D01*
X178534450Y-104949894D01*
X178734662Y-104856534D01*
X178915620Y-104729826D01*
X179071826Y-104573620D01*
X179198534Y-104392662D01*
X179291894Y-104192450D01*
X179349070Y-103979068D01*
X179368323Y-103759000D01*
X179349070Y-103538932D01*
X179312379Y-103402000D01*
X187987000Y-103402000D01*
X188814291Y-103402000D01*
X188802548Y-103422339D01*
X188762000Y-103573667D01*
X188762000Y-103730333D01*
X188802548Y-103881661D01*
X188814291Y-103902000D01*
X187987001Y-103902000D01*
X187987001Y-104546986D01*
X187997494Y-104649697D01*
X188052641Y-104816119D01*
X188052643Y-104816124D01*
X188144684Y-104965345D01*
X188268654Y-105089315D01*
X188417875Y-105181356D01*
X188417880Y-105181358D01*
X188584302Y-105236505D01*
X188584309Y-105236506D01*
X188687019Y-105246999D01*
X189106999Y-105246999D01*
X189107000Y-105246998D01*
X189107000Y-104194709D01*
X189127339Y-104206452D01*
X189278667Y-104247000D01*
X189435333Y-104247000D01*
X189586661Y-104206452D01*
X189607000Y-104194709D01*
X189607000Y-105246999D01*
X190026972Y-105246999D01*
X190026986Y-105246998D01*
X190129697Y-105236505D01*
X190296119Y-105181358D01*
X190296124Y-105181356D01*
X190445345Y-105089315D01*
X190569315Y-104965345D01*
X190661354Y-104816127D01*
X190661745Y-104815289D01*
X190662167Y-104814809D01*
X190665149Y-104809975D01*
X190665974Y-104810484D01*
X190707910Y-104762843D01*
X190775100Y-104743681D01*
X190841984Y-104763887D01*
X190861816Y-104779996D01*
X191004179Y-104922359D01*
X191178701Y-105049157D01*
X191370911Y-105147092D01*
X191576074Y-105213754D01*
X191655973Y-105226408D01*
X191789134Y-105247500D01*
X191789139Y-105247500D01*
X192004866Y-105247500D01*
X192123230Y-105228752D01*
X192217926Y-105213754D01*
X192423089Y-105147092D01*
X192615299Y-105049157D01*
X192789821Y-104922359D01*
X192942359Y-104769821D01*
X193069157Y-104595299D01*
X193167092Y-104403089D01*
X193233754Y-104197926D01*
X193252577Y-104079080D01*
X193267500Y-103984866D01*
X193267500Y-103319133D01*
X193233754Y-103106077D01*
X193233754Y-103106074D01*
X193167092Y-102900911D01*
X193069157Y-102708701D01*
X192942359Y-102534179D01*
X192789821Y-102381641D01*
X192615299Y-102254843D01*
X192423089Y-102156908D01*
X192217926Y-102090246D01*
X192217924Y-102090245D01*
X192217922Y-102090245D01*
X192004866Y-102056500D01*
X192004861Y-102056500D01*
X191789139Y-102056500D01*
X191789134Y-102056500D01*
X191576077Y-102090245D01*
X191370908Y-102156909D01*
X191178700Y-102254843D01*
X191004180Y-102381640D01*
X190861816Y-102524004D01*
X190800493Y-102557488D01*
X190730801Y-102552504D01*
X190674868Y-102510632D01*
X190661748Y-102488716D01*
X190661356Y-102487876D01*
X190569315Y-102338654D01*
X190445345Y-102214684D01*
X190296124Y-102122643D01*
X190296119Y-102122641D01*
X190129697Y-102067494D01*
X190129690Y-102067493D01*
X190026986Y-102057000D01*
X189607000Y-102057000D01*
X189607000Y-103109290D01*
X189586661Y-103097548D01*
X189435333Y-103057000D01*
X189278667Y-103057000D01*
X189127339Y-103097548D01*
X189107000Y-103109290D01*
X189107000Y-102057000D01*
X188687028Y-102057000D01*
X188687012Y-102057001D01*
X188584302Y-102067494D01*
X188417880Y-102122641D01*
X188417875Y-102122643D01*
X188268654Y-102214684D01*
X188144684Y-102338654D01*
X188052643Y-102487875D01*
X188052641Y-102487880D01*
X187997494Y-102654302D01*
X187997493Y-102654309D01*
X187987000Y-102757013D01*
X187987000Y-103402000D01*
X179312379Y-103402000D01*
X179291894Y-103325550D01*
X179198534Y-103125339D01*
X179071826Y-102944380D01*
X178915620Y-102788174D01*
X178915616Y-102788171D01*
X178915615Y-102788170D01*
X178734666Y-102661468D01*
X178734662Y-102661466D01*
X178635210Y-102615091D01*
X178534450Y-102568106D01*
X178534447Y-102568105D01*
X178534445Y-102568104D01*
X178321070Y-102510930D01*
X178321062Y-102510929D01*
X178101002Y-102491677D01*
X178100997Y-102491677D01*
X177969213Y-102503205D01*
X177900713Y-102489438D01*
X177870726Y-102467358D01*
X177824819Y-102421451D01*
X177791334Y-102360128D01*
X177788500Y-102333770D01*
X177788500Y-100607422D01*
X178950500Y-100607422D01*
X178981290Y-100801826D01*
X179042117Y-100989029D01*
X179131476Y-101164405D01*
X179247172Y-101323646D01*
X179386354Y-101462828D01*
X179545595Y-101578524D01*
X179628455Y-101620743D01*
X179720970Y-101667882D01*
X179720972Y-101667882D01*
X179720975Y-101667884D01*
X179821317Y-101700487D01*
X179908173Y-101728709D01*
X180102578Y-101759500D01*
X180102583Y-101759500D01*
X180299422Y-101759500D01*
X180493826Y-101728709D01*
X180681025Y-101667884D01*
X180856405Y-101578524D01*
X181015646Y-101462828D01*
X181154828Y-101323646D01*
X181270524Y-101164405D01*
X181359884Y-100989025D01*
X181420709Y-100801826D01*
X181423987Y-100781132D01*
X181451500Y-100607422D01*
X181451500Y-100310577D01*
X181420709Y-100116173D01*
X181373831Y-99971899D01*
X181359884Y-99928975D01*
X181359882Y-99928972D01*
X181359882Y-99928970D01*
X181270523Y-99753594D01*
X181154828Y-99594354D01*
X181015646Y-99455172D01*
X180856405Y-99339476D01*
X180681029Y-99250117D01*
X180493826Y-99189290D01*
X180299422Y-99158500D01*
X180299417Y-99158500D01*
X180102583Y-99158500D01*
X180102578Y-99158500D01*
X179908173Y-99189290D01*
X179720970Y-99250117D01*
X179545594Y-99339476D01*
X179541570Y-99342400D01*
X179386354Y-99455172D01*
X179386352Y-99455174D01*
X179386351Y-99455174D01*
X179247174Y-99594351D01*
X179247174Y-99594352D01*
X179247172Y-99594354D01*
X179197485Y-99662741D01*
X179131476Y-99753594D01*
X179042117Y-99928970D01*
X178981290Y-100116173D01*
X178950500Y-100310577D01*
X178950500Y-100607422D01*
X177788500Y-100607422D01*
X177788500Y-89530000D01*
X180254341Y-89530000D01*
X180274936Y-89765403D01*
X180274938Y-89765413D01*
X180336094Y-89993655D01*
X180336096Y-89993659D01*
X180336097Y-89993663D01*
X180435965Y-90207830D01*
X180435967Y-90207834D01*
X180544281Y-90362521D01*
X180571505Y-90401401D01*
X180738599Y-90568495D01*
X180835384Y-90636265D01*
X180932165Y-90704032D01*
X180932167Y-90704033D01*
X180932170Y-90704035D01*
X181146337Y-90803903D01*
X181374592Y-90865063D01*
X181562918Y-90881539D01*
X181609999Y-90885659D01*
X181610000Y-90885659D01*
X181610001Y-90885659D01*
X181649234Y-90882226D01*
X181845408Y-90865063D01*
X182073663Y-90803903D01*
X182287830Y-90704035D01*
X182481401Y-90568495D01*
X182648495Y-90401401D01*
X182784035Y-90207830D01*
X182883903Y-89993663D01*
X182945063Y-89765408D01*
X182965659Y-89530000D01*
X182945063Y-89294592D01*
X182883903Y-89066337D01*
X182784035Y-88852171D01*
X182648495Y-88658599D01*
X182526567Y-88536671D01*
X182493084Y-88475351D01*
X182498068Y-88405659D01*
X182539939Y-88349725D01*
X182570915Y-88332810D01*
X182702331Y-88283796D01*
X182817546Y-88197546D01*
X182903796Y-88082331D01*
X182954091Y-87947483D01*
X182960500Y-87887873D01*
X182960499Y-86092128D01*
X182954091Y-86032517D01*
X182903796Y-85897669D01*
X182903795Y-85897668D01*
X182903793Y-85897664D01*
X182817547Y-85782455D01*
X182817544Y-85782452D01*
X182702335Y-85696206D01*
X182702328Y-85696202D01*
X182567482Y-85645908D01*
X182567483Y-85645908D01*
X182507883Y-85639501D01*
X182507881Y-85639500D01*
X182507873Y-85639500D01*
X182507864Y-85639500D01*
X180712129Y-85639500D01*
X180712123Y-85639501D01*
X180652516Y-85645908D01*
X180517671Y-85696202D01*
X180517664Y-85696206D01*
X180402455Y-85782452D01*
X180402452Y-85782455D01*
X180316206Y-85897664D01*
X180316202Y-85897671D01*
X180265908Y-86032517D01*
X180262613Y-86063169D01*
X180259501Y-86092123D01*
X180259500Y-86092135D01*
X180259500Y-87887870D01*
X180259501Y-87887876D01*
X180265908Y-87947483D01*
X180316202Y-88082328D01*
X180316206Y-88082335D01*
X180402452Y-88197544D01*
X180402455Y-88197547D01*
X180517664Y-88283793D01*
X180517671Y-88283797D01*
X180649081Y-88332810D01*
X180705015Y-88374681D01*
X180729432Y-88440145D01*
X180714580Y-88508418D01*
X180693430Y-88536673D01*
X180571503Y-88658600D01*
X180435965Y-88852169D01*
X180435964Y-88852171D01*
X180336098Y-89066335D01*
X180336094Y-89066344D01*
X180274938Y-89294586D01*
X180274936Y-89294596D01*
X180254341Y-89529999D01*
X180254341Y-89530000D01*
X177788500Y-89530000D01*
X177788500Y-85601000D01*
X187835500Y-85601000D01*
X187835501Y-85601009D01*
X187847052Y-85708450D01*
X187847054Y-85708462D01*
X187858260Y-85759972D01*
X187892383Y-85862497D01*
X187892386Y-85862503D01*
X187970171Y-85983537D01*
X187970179Y-85983548D01*
X188015923Y-86036340D01*
X188015926Y-86036343D01*
X188015930Y-86036347D01*
X188124664Y-86130567D01*
X188124667Y-86130568D01*
X188124668Y-86130569D01*
X188128504Y-86132321D01*
X188255541Y-86190338D01*
X188322580Y-86210023D01*
X188322584Y-86210024D01*
X188465000Y-86230500D01*
X192410473Y-86230500D01*
X192477512Y-86250185D01*
X192523267Y-86302989D01*
X192534472Y-86354503D01*
X192534275Y-90885659D01*
X192533905Y-99342371D01*
X192533905Y-99342376D01*
X192545455Y-99449836D01*
X192556658Y-99501343D01*
X192556661Y-99501353D01*
X192590792Y-99603904D01*
X192668576Y-99724937D01*
X192668584Y-99724948D01*
X192714328Y-99777740D01*
X192714331Y-99777743D01*
X192714335Y-99777747D01*
X192823069Y-99871967D01*
X192823072Y-99871968D01*
X192823073Y-99871969D01*
X192917330Y-99915016D01*
X192953946Y-99931738D01*
X193020985Y-99951423D01*
X193020989Y-99951424D01*
X193163405Y-99971900D01*
X193163408Y-99971900D01*
X194439390Y-99971900D01*
X194439400Y-99971900D01*
X194546856Y-99960347D01*
X194598367Y-99949141D01*
X194632597Y-99937747D01*
X194700897Y-99915016D01*
X194700901Y-99915013D01*
X194700904Y-99915013D01*
X194821943Y-99837225D01*
X194874747Y-99791470D01*
X194968967Y-99682736D01*
X195028738Y-99551859D01*
X195048423Y-99484820D01*
X195048424Y-99484816D01*
X195068900Y-99342400D01*
X195068900Y-86741000D01*
X195367341Y-86741000D01*
X195387936Y-86976403D01*
X195387938Y-86976413D01*
X195449094Y-87204655D01*
X195449096Y-87204659D01*
X195449097Y-87204663D01*
X195533499Y-87385663D01*
X195548965Y-87418830D01*
X195548967Y-87418834D01*
X195657281Y-87573521D01*
X195684505Y-87612401D01*
X195851599Y-87779495D01*
X195948384Y-87847265D01*
X196045165Y-87915032D01*
X196045167Y-87915033D01*
X196045170Y-87915035D01*
X196259337Y-88014903D01*
X196487592Y-88076063D01*
X196664034Y-88091500D01*
X196722999Y-88096659D01*
X196723000Y-88096659D01*
X196723001Y-88096659D01*
X196781966Y-88091500D01*
X196958408Y-88076063D01*
X197186663Y-88014903D01*
X197400830Y-87915035D01*
X197594401Y-87779495D01*
X197716329Y-87657566D01*
X197777648Y-87624084D01*
X197847340Y-87629068D01*
X197903274Y-87670939D01*
X197920189Y-87701917D01*
X197969202Y-87833328D01*
X197969206Y-87833335D01*
X198055452Y-87948544D01*
X198055455Y-87948547D01*
X198170664Y-88034793D01*
X198170671Y-88034797D01*
X198305517Y-88085091D01*
X198305516Y-88085091D01*
X198312444Y-88085835D01*
X198365127Y-88091500D01*
X200160872Y-88091499D01*
X200220483Y-88085091D01*
X200355331Y-88034796D01*
X200470546Y-87948546D01*
X200556796Y-87833331D01*
X200607091Y-87698483D01*
X200613500Y-87638873D01*
X200613499Y-85843128D01*
X200607386Y-85786259D01*
X200607091Y-85783516D01*
X200556797Y-85648671D01*
X200556793Y-85648664D01*
X200470547Y-85533455D01*
X200470544Y-85533452D01*
X200355335Y-85447206D01*
X200355328Y-85447202D01*
X200220482Y-85396908D01*
X200220483Y-85396908D01*
X200160883Y-85390501D01*
X200160881Y-85390500D01*
X200160873Y-85390500D01*
X200160864Y-85390500D01*
X198365129Y-85390500D01*
X198365123Y-85390501D01*
X198305516Y-85396908D01*
X198170671Y-85447202D01*
X198170664Y-85447206D01*
X198055455Y-85533452D01*
X198055452Y-85533455D01*
X197969206Y-85648664D01*
X197969203Y-85648669D01*
X197920189Y-85780083D01*
X197878317Y-85836016D01*
X197812853Y-85860433D01*
X197744580Y-85845581D01*
X197716326Y-85824430D01*
X197594402Y-85702506D01*
X197594395Y-85702501D01*
X197400834Y-85566967D01*
X197400830Y-85566965D01*
X197400828Y-85566964D01*
X197186663Y-85467097D01*
X197186659Y-85467096D01*
X197186655Y-85467094D01*
X196958413Y-85405938D01*
X196958403Y-85405936D01*
X196723001Y-85385341D01*
X196722999Y-85385341D01*
X196487596Y-85405936D01*
X196487586Y-85405938D01*
X196259344Y-85467094D01*
X196259335Y-85467098D01*
X196045171Y-85566964D01*
X196045169Y-85566965D01*
X195851597Y-85702505D01*
X195684505Y-85869597D01*
X195548965Y-86063169D01*
X195548964Y-86063171D01*
X195449098Y-86277335D01*
X195449094Y-86277344D01*
X195387938Y-86505586D01*
X195387936Y-86505596D01*
X195367341Y-86740999D01*
X195367341Y-86741000D01*
X195068900Y-86741000D01*
X195068900Y-85391922D01*
X195067153Y-85349926D01*
X195065441Y-85329390D01*
X195060207Y-85287665D01*
X195016427Y-85150608D01*
X194985911Y-85087754D01*
X194985911Y-85087753D01*
X194985909Y-85087750D01*
X194905296Y-84968591D01*
X194905292Y-84968586D01*
X194905291Y-84968584D01*
X194366881Y-84376054D01*
X193705029Y-83647672D01*
X193705018Y-83647661D01*
X193657403Y-83601700D01*
X193632672Y-83580776D01*
X193579465Y-83541433D01*
X193479241Y-83495661D01*
X193448591Y-83481663D01*
X193381546Y-83461976D01*
X193319476Y-83453052D01*
X193239129Y-83441500D01*
X188465000Y-83441500D01*
X188464991Y-83441500D01*
X188464990Y-83441501D01*
X188357549Y-83453052D01*
X188357537Y-83453054D01*
X188306027Y-83464260D01*
X188203502Y-83498383D01*
X188203496Y-83498386D01*
X188082462Y-83576171D01*
X188082451Y-83576179D01*
X188029659Y-83621923D01*
X187935433Y-83730664D01*
X187935430Y-83730668D01*
X187875664Y-83861534D01*
X187875662Y-83861541D01*
X187855977Y-83928580D01*
X187855976Y-83928584D01*
X187835500Y-84071000D01*
X187835500Y-85601000D01*
X177788500Y-85601000D01*
X177788500Y-78613000D01*
X199373540Y-78613000D01*
X199393326Y-78801256D01*
X199393327Y-78801259D01*
X199451818Y-78981277D01*
X199451821Y-78981284D01*
X199546467Y-79145216D01*
X199673129Y-79285888D01*
X199826265Y-79397148D01*
X199826270Y-79397151D01*
X199999192Y-79474142D01*
X199999197Y-79474144D01*
X200184354Y-79513500D01*
X200184355Y-79513500D01*
X200373644Y-79513500D01*
X200373646Y-79513500D01*
X200558803Y-79474144D01*
X200731730Y-79397151D01*
X200884871Y-79285888D01*
X201011533Y-79145216D01*
X201106179Y-78981284D01*
X201164674Y-78801256D01*
X201184460Y-78613000D01*
X201164674Y-78424744D01*
X201106179Y-78244716D01*
X201011533Y-78080784D01*
X200884871Y-77940112D01*
X200884870Y-77940111D01*
X200731734Y-77828851D01*
X200731729Y-77828848D01*
X200558807Y-77751857D01*
X200558802Y-77751855D01*
X200413001Y-77720865D01*
X200373646Y-77712500D01*
X200184354Y-77712500D01*
X200151897Y-77719398D01*
X199999197Y-77751855D01*
X199999192Y-77751857D01*
X199826270Y-77828848D01*
X199826265Y-77828851D01*
X199673129Y-77940111D01*
X199546466Y-78080785D01*
X199451821Y-78244715D01*
X199451818Y-78244722D01*
X199397441Y-78412079D01*
X199393326Y-78424744D01*
X199373540Y-78613000D01*
X177788500Y-78613000D01*
X177788500Y-78412079D01*
X177759659Y-78267092D01*
X177759658Y-78267091D01*
X177759658Y-78267087D01*
X177750391Y-78244715D01*
X177703087Y-78130511D01*
X177703080Y-78130498D01*
X177620952Y-78007585D01*
X177620951Y-78007584D01*
X177516416Y-77903049D01*
X174862368Y-75249000D01*
X184234040Y-75249000D01*
X184253826Y-75437256D01*
X184253827Y-75437259D01*
X184312318Y-75617277D01*
X184312321Y-75617284D01*
X184406967Y-75781216D01*
X184533629Y-75921888D01*
X184686765Y-76033148D01*
X184686770Y-76033151D01*
X184859692Y-76110142D01*
X184859697Y-76110144D01*
X185044854Y-76149500D01*
X185044855Y-76149500D01*
X185234144Y-76149500D01*
X185234146Y-76149500D01*
X185419303Y-76110144D01*
X185592230Y-76033151D01*
X185745371Y-75921888D01*
X185872033Y-75781216D01*
X185966679Y-75617284D01*
X186025174Y-75437256D01*
X186044960Y-75249000D01*
X186025174Y-75060744D01*
X185966679Y-74880716D01*
X185872033Y-74716784D01*
X185745371Y-74576112D01*
X185745370Y-74576111D01*
X185592234Y-74464851D01*
X185592229Y-74464848D01*
X185419307Y-74387857D01*
X185419302Y-74387855D01*
X185273501Y-74356865D01*
X185234146Y-74348500D01*
X185044854Y-74348500D01*
X185012397Y-74355398D01*
X184859697Y-74387855D01*
X184859692Y-74387857D01*
X184686770Y-74464848D01*
X184686765Y-74464851D01*
X184533629Y-74576111D01*
X184406966Y-74716785D01*
X184312321Y-74880715D01*
X184312318Y-74880722D01*
X184253827Y-75060740D01*
X184253826Y-75060744D01*
X184234040Y-75249000D01*
X174862368Y-75249000D01*
X174268819Y-74655451D01*
X174235334Y-74594128D01*
X174232500Y-74567770D01*
X174232500Y-70765500D01*
X190102540Y-70765500D01*
X190122326Y-70953756D01*
X190122327Y-70953759D01*
X190180818Y-71133777D01*
X190180821Y-71133784D01*
X190275467Y-71297716D01*
X190402129Y-71438388D01*
X190555265Y-71549648D01*
X190555270Y-71549651D01*
X190728192Y-71626642D01*
X190728197Y-71626644D01*
X190913354Y-71666000D01*
X190913355Y-71666000D01*
X191102644Y-71666000D01*
X191102646Y-71666000D01*
X191287803Y-71626644D01*
X191460730Y-71549651D01*
X191613871Y-71438388D01*
X191740533Y-71297716D01*
X191835179Y-71133784D01*
X191893674Y-70953756D01*
X191913460Y-70765500D01*
X191893674Y-70577244D01*
X191835179Y-70397216D01*
X191740533Y-70233284D01*
X191613871Y-70092612D01*
X191613870Y-70092611D01*
X191460734Y-69981351D01*
X191460729Y-69981348D01*
X191287807Y-69904357D01*
X191287802Y-69904355D01*
X191142001Y-69873365D01*
X191102646Y-69865000D01*
X190913354Y-69865000D01*
X190880897Y-69871898D01*
X190728197Y-69904355D01*
X190728192Y-69904357D01*
X190555270Y-69981348D01*
X190555265Y-69981351D01*
X190402129Y-70092611D01*
X190275466Y-70233285D01*
X190180821Y-70397215D01*
X190180818Y-70397222D01*
X190122327Y-70577240D01*
X190122326Y-70577244D01*
X190102540Y-70765500D01*
X174232500Y-70765500D01*
X174232500Y-70085230D01*
X174252185Y-70018191D01*
X174268819Y-69997549D01*
X175077868Y-69188500D01*
X176487040Y-69188500D01*
X176506826Y-69376756D01*
X176506827Y-69376759D01*
X176565318Y-69556777D01*
X176565321Y-69556784D01*
X176659967Y-69720716D01*
X176786629Y-69861388D01*
X176939765Y-69972648D01*
X176939770Y-69972651D01*
X177112692Y-70049642D01*
X177112697Y-70049644D01*
X177297854Y-70089000D01*
X177297855Y-70089000D01*
X177487144Y-70089000D01*
X177487146Y-70089000D01*
X177672303Y-70049644D01*
X177845230Y-69972651D01*
X177998371Y-69861388D01*
X178125033Y-69720716D01*
X178219679Y-69556784D01*
X178278174Y-69376756D01*
X178297960Y-69188500D01*
X178278174Y-69000244D01*
X178219679Y-68820216D01*
X178125033Y-68656284D01*
X177998371Y-68515612D01*
X177998370Y-68515611D01*
X177845234Y-68404351D01*
X177845229Y-68404348D01*
X177672307Y-68327357D01*
X177672302Y-68327355D01*
X177526501Y-68296365D01*
X177487146Y-68288000D01*
X177297854Y-68288000D01*
X177265397Y-68294898D01*
X177112697Y-68327355D01*
X177112692Y-68327357D01*
X176939770Y-68404348D01*
X176939765Y-68404351D01*
X176786629Y-68515611D01*
X176659966Y-68656285D01*
X176565321Y-68820215D01*
X176565318Y-68820222D01*
X176506827Y-69000240D01*
X176506826Y-69000244D01*
X176487040Y-69188500D01*
X175077868Y-69188500D01*
X179828368Y-64438000D01*
X191062145Y-64438000D01*
X191074473Y-64515835D01*
X191074473Y-64515838D01*
X191142567Y-64725410D01*
X191242613Y-64921760D01*
X191372142Y-65100041D01*
X191527958Y-65255857D01*
X191706239Y-65385386D01*
X191902589Y-65485432D01*
X192112164Y-65553526D01*
X192329819Y-65588000D01*
X192690000Y-65588000D01*
X192690000Y-64688000D01*
X193190000Y-64688000D01*
X193190000Y-65588000D01*
X193550181Y-65588000D01*
X193767835Y-65553526D01*
X193977410Y-65485432D01*
X194173760Y-65385386D01*
X194352041Y-65255857D01*
X194507857Y-65100041D01*
X194637386Y-64921760D01*
X194737432Y-64725410D01*
X194805526Y-64515838D01*
X194805526Y-64515835D01*
X194817855Y-64438000D01*
X193873012Y-64438000D01*
X193905925Y-64380993D01*
X193940000Y-64253826D01*
X193940000Y-64122174D01*
X193905925Y-63995007D01*
X193873012Y-63938000D01*
X194817855Y-63938000D01*
X194805526Y-63860164D01*
X194805526Y-63860161D01*
X194737432Y-63650589D01*
X194637386Y-63454239D01*
X194507857Y-63275958D01*
X194352041Y-63120142D01*
X194173760Y-62990613D01*
X193977410Y-62890567D01*
X193767835Y-62822473D01*
X193550181Y-62788000D01*
X193190000Y-62788000D01*
X193190000Y-63688000D01*
X192690000Y-63688000D01*
X192690000Y-62788000D01*
X192329819Y-62788000D01*
X192112164Y-62822473D01*
X191902589Y-62890567D01*
X191706239Y-62990613D01*
X191527958Y-63120142D01*
X191372142Y-63275958D01*
X191242613Y-63454239D01*
X191142567Y-63650589D01*
X191074473Y-63860161D01*
X191074473Y-63860164D01*
X191062145Y-63938000D01*
X192006988Y-63938000D01*
X191974075Y-63995007D01*
X191940000Y-64122174D01*
X191940000Y-64253826D01*
X191974075Y-64380993D01*
X192006988Y-64438000D01*
X191062145Y-64438000D01*
X179828368Y-64438000D01*
X184071447Y-60194921D01*
X184071452Y-60194916D01*
X184137207Y-60096505D01*
X184153584Y-60071995D01*
X184210158Y-59935413D01*
X184239000Y-59790418D01*
X184239000Y-58938000D01*
X191062145Y-58938000D01*
X191074473Y-59015835D01*
X191074473Y-59015838D01*
X191142567Y-59225410D01*
X191242613Y-59421760D01*
X191372142Y-59600041D01*
X191527958Y-59755857D01*
X191706239Y-59885386D01*
X191902589Y-59985432D01*
X192112164Y-60053526D01*
X192329819Y-60088000D01*
X192690000Y-60088000D01*
X192690000Y-59188000D01*
X193190000Y-59188000D01*
X193190000Y-59826624D01*
X193176485Y-59882919D01*
X193142105Y-59950393D01*
X193142103Y-59950396D01*
X193073985Y-60160047D01*
X193047146Y-60329501D01*
X193039500Y-60377778D01*
X193039500Y-60598222D01*
X193041629Y-60611661D01*
X193073985Y-60815952D01*
X193142103Y-61025603D01*
X193142104Y-61025606D01*
X193242187Y-61222025D01*
X193371752Y-61400358D01*
X193371756Y-61400363D01*
X193527636Y-61556243D01*
X193527641Y-61556247D01*
X193683192Y-61669260D01*
X193705978Y-61685815D01*
X193834375Y-61751237D01*
X193902393Y-61785895D01*
X193902396Y-61785896D01*
X194000438Y-61817751D01*
X194112049Y-61854015D01*
X194329778Y-61888500D01*
X194329779Y-61888500D01*
X195550221Y-61888500D01*
X195550222Y-61888500D01*
X195767951Y-61854015D01*
X195977606Y-61785895D01*
X196174022Y-61685815D01*
X196352365Y-61556242D01*
X196508242Y-61400365D01*
X196637815Y-61222022D01*
X196737895Y-61025606D01*
X196806015Y-60815951D01*
X196840500Y-60598222D01*
X196840500Y-60377778D01*
X196806015Y-60160049D01*
X196763191Y-60028247D01*
X196737896Y-59950396D01*
X196737895Y-59950393D01*
X196654599Y-59786919D01*
X196637815Y-59753978D01*
X196603855Y-59707236D01*
X196508247Y-59575641D01*
X196508243Y-59575636D01*
X196352363Y-59419756D01*
X196352358Y-59419752D01*
X196174025Y-59290187D01*
X196174024Y-59290186D01*
X196174022Y-59290185D01*
X196111096Y-59258122D01*
X195977606Y-59190104D01*
X195977603Y-59190103D01*
X195767952Y-59121985D01*
X195659086Y-59104742D01*
X195550222Y-59087500D01*
X194939362Y-59087500D01*
X194872323Y-59067815D01*
X194826568Y-59015011D01*
X194816624Y-58945853D01*
X194816889Y-58944102D01*
X194817855Y-58938000D01*
X193873012Y-58938000D01*
X193905925Y-58880993D01*
X193940000Y-58753826D01*
X193940000Y-58622174D01*
X193905925Y-58495007D01*
X193873012Y-58438000D01*
X194817855Y-58438000D01*
X194805526Y-58360164D01*
X194805526Y-58360161D01*
X194737432Y-58150589D01*
X194637386Y-57954239D01*
X194507857Y-57775958D01*
X194352041Y-57620142D01*
X194173760Y-57490613D01*
X193977410Y-57390567D01*
X193767835Y-57322473D01*
X193550181Y-57288000D01*
X193190000Y-57288000D01*
X193190000Y-58188000D01*
X192690000Y-58188000D01*
X192690000Y-57288000D01*
X192329819Y-57288000D01*
X192112164Y-57322473D01*
X191902589Y-57390567D01*
X191706239Y-57490613D01*
X191527958Y-57620142D01*
X191372142Y-57775958D01*
X191242613Y-57954239D01*
X191142567Y-58150589D01*
X191074473Y-58360161D01*
X191074473Y-58360164D01*
X191062145Y-58438000D01*
X192006988Y-58438000D01*
X191974075Y-58495007D01*
X191940000Y-58622174D01*
X191940000Y-58753826D01*
X191974075Y-58880993D01*
X192006988Y-58938000D01*
X191062145Y-58938000D01*
X184239000Y-58938000D01*
X184239000Y-57497552D01*
X184258685Y-57430513D01*
X184275319Y-57409871D01*
X184308840Y-57376350D01*
X184399408Y-57229516D01*
X184453674Y-57065753D01*
X184464000Y-56964677D01*
X184463999Y-56266324D01*
X184453674Y-56165247D01*
X184399408Y-56001484D01*
X184308840Y-55854650D01*
X184294871Y-55840681D01*
X184261386Y-55779358D01*
X184266370Y-55709666D01*
X184294871Y-55665319D01*
X184308840Y-55651350D01*
X184399408Y-55504516D01*
X184453674Y-55340753D01*
X184464000Y-55239677D01*
X184463999Y-54541324D01*
X184453674Y-54440247D01*
X184399408Y-54276484D01*
X184308840Y-54129650D01*
X184186850Y-54007660D01*
X184076387Y-53939526D01*
X184040018Y-53917093D01*
X184040013Y-53917091D01*
X184005794Y-53905752D01*
X183876253Y-53862826D01*
X183876251Y-53862825D01*
X183775178Y-53852500D01*
X183201830Y-53852500D01*
X183201812Y-53852501D01*
X183100747Y-53862825D01*
X182936984Y-53917092D01*
X182936981Y-53917093D01*
X182790148Y-54007661D01*
X182668159Y-54129650D01*
X182637970Y-54178596D01*
X182586022Y-54225321D01*
X182532431Y-54237500D01*
X176850024Y-54237500D01*
X176782985Y-54217815D01*
X176749705Y-54186384D01*
X176669245Y-54075638D01*
X176513363Y-53919756D01*
X176513358Y-53919752D01*
X176335025Y-53790187D01*
X176335024Y-53790186D01*
X176335022Y-53790185D01*
X176272096Y-53758122D01*
X176138606Y-53690104D01*
X176138603Y-53690103D01*
X175928952Y-53621985D01*
X175820086Y-53604742D01*
X175711222Y-53587500D01*
X174848679Y-53587500D01*
X174781640Y-53567815D01*
X174735885Y-53515011D01*
X174725941Y-53445853D01*
X174748361Y-53390614D01*
X174798386Y-53321760D01*
X174898432Y-53125410D01*
X174966526Y-52915838D01*
X174966526Y-52915835D01*
X174978855Y-52838000D01*
X191062145Y-52838000D01*
X191074473Y-52915835D01*
X191074473Y-52915838D01*
X191142567Y-53125410D01*
X191242613Y-53321760D01*
X191372142Y-53500041D01*
X191527958Y-53655857D01*
X191706239Y-53785386D01*
X191902589Y-53885432D01*
X192112164Y-53953526D01*
X192329819Y-53988000D01*
X192690000Y-53988000D01*
X192690000Y-53088000D01*
X193190000Y-53088000D01*
X193190000Y-53988000D01*
X193192065Y-53988000D01*
X193259104Y-54007685D01*
X193304859Y-54060489D01*
X193314803Y-54129647D01*
X193292383Y-54184885D01*
X193242187Y-54253974D01*
X193142104Y-54450393D01*
X193142103Y-54450396D01*
X193073985Y-54660047D01*
X193039500Y-54877778D01*
X193039500Y-55098221D01*
X193073985Y-55315952D01*
X193142103Y-55525603D01*
X193142104Y-55525606D01*
X193206175Y-55651350D01*
X193235889Y-55709666D01*
X193242187Y-55722025D01*
X193371752Y-55900358D01*
X193371756Y-55900363D01*
X193527636Y-56056243D01*
X193527641Y-56056247D01*
X193677668Y-56165247D01*
X193705978Y-56185815D01*
X193834375Y-56251237D01*
X193902393Y-56285895D01*
X193902396Y-56285896D01*
X194007221Y-56319955D01*
X194112049Y-56354015D01*
X194329778Y-56388500D01*
X194329779Y-56388500D01*
X195550221Y-56388500D01*
X195550222Y-56388500D01*
X195767951Y-56354015D01*
X195977606Y-56285895D01*
X196174022Y-56185815D01*
X196352365Y-56056242D01*
X196508242Y-55900365D01*
X196637815Y-55722022D01*
X196737895Y-55525606D01*
X196806015Y-55315951D01*
X196840500Y-55098222D01*
X196840500Y-54877778D01*
X196806015Y-54660049D01*
X196767441Y-54541330D01*
X196737896Y-54450396D01*
X196737895Y-54450393D01*
X196703237Y-54382375D01*
X196637815Y-54253978D01*
X196590886Y-54189385D01*
X196508247Y-54075641D01*
X196508243Y-54075636D01*
X196352363Y-53919756D01*
X196352358Y-53919752D01*
X196174025Y-53790187D01*
X196174024Y-53790186D01*
X196174022Y-53790185D01*
X196111096Y-53758122D01*
X195977606Y-53690104D01*
X195977603Y-53690103D01*
X195767952Y-53621985D01*
X195659086Y-53604742D01*
X195550222Y-53587500D01*
X194687679Y-53587500D01*
X194620640Y-53567815D01*
X194574885Y-53515011D01*
X194564941Y-53445853D01*
X194587361Y-53390614D01*
X194637386Y-53321760D01*
X194737432Y-53125410D01*
X194805526Y-52915838D01*
X194805526Y-52915835D01*
X194817855Y-52838000D01*
X193873012Y-52838000D01*
X193905925Y-52780993D01*
X193940000Y-52653826D01*
X193940000Y-52522174D01*
X193905925Y-52395007D01*
X193873012Y-52338000D01*
X194817855Y-52338000D01*
X194805526Y-52260164D01*
X194805526Y-52260161D01*
X194737432Y-52050589D01*
X194637386Y-51854239D01*
X194507857Y-51675958D01*
X194352041Y-51520142D01*
X194173760Y-51390613D01*
X193977410Y-51290567D01*
X193767835Y-51222473D01*
X193550181Y-51188000D01*
X193190000Y-51188000D01*
X193190000Y-52088000D01*
X192690000Y-52088000D01*
X192690000Y-51188000D01*
X192329819Y-51188000D01*
X192112164Y-51222473D01*
X191902589Y-51290567D01*
X191706239Y-51390613D01*
X191527958Y-51520142D01*
X191372142Y-51675958D01*
X191242613Y-51854239D01*
X191142567Y-52050589D01*
X191074473Y-52260161D01*
X191074473Y-52260164D01*
X191062145Y-52338000D01*
X192006988Y-52338000D01*
X191974075Y-52395007D01*
X191940000Y-52522174D01*
X191940000Y-52653826D01*
X191974075Y-52780993D01*
X192006988Y-52838000D01*
X191062145Y-52838000D01*
X174978855Y-52838000D01*
X174034012Y-52838000D01*
X174066925Y-52780993D01*
X174101000Y-52653826D01*
X174101000Y-52522174D01*
X174066925Y-52395007D01*
X174034012Y-52338000D01*
X174978855Y-52338000D01*
X174966526Y-52260164D01*
X174966526Y-52260161D01*
X174898432Y-52050589D01*
X174798386Y-51854239D01*
X174668857Y-51675958D01*
X174513041Y-51520142D01*
X174334760Y-51390613D01*
X174138410Y-51290567D01*
X173928835Y-51222473D01*
X173711181Y-51188000D01*
X173351000Y-51188000D01*
X173351000Y-52088000D01*
X172851000Y-52088000D01*
X172851000Y-51188000D01*
X172490819Y-51188000D01*
X172273164Y-51222473D01*
X172063589Y-51290567D01*
X171867239Y-51390613D01*
X171688958Y-51520142D01*
X171533142Y-51675958D01*
X171403613Y-51854239D01*
X171303567Y-52050589D01*
X171235473Y-52260161D01*
X171235473Y-52260164D01*
X171223145Y-52338000D01*
X172167988Y-52338000D01*
X172135075Y-52395007D01*
X172101000Y-52522174D01*
X172101000Y-52653826D01*
X172135075Y-52780993D01*
X172167988Y-52838000D01*
X171223145Y-52838000D01*
X171235473Y-52915835D01*
X171235473Y-52915838D01*
X171303567Y-53125410D01*
X171403613Y-53321760D01*
X171533142Y-53500041D01*
X171688958Y-53655857D01*
X171867239Y-53785386D01*
X172063589Y-53885432D01*
X172273164Y-53953526D01*
X172490819Y-53988000D01*
X172851000Y-53988000D01*
X172851000Y-53088000D01*
X173351000Y-53088000D01*
X173351000Y-53988000D01*
X173353065Y-53988000D01*
X173420104Y-54007685D01*
X173465859Y-54060489D01*
X173475803Y-54129647D01*
X173453383Y-54184885D01*
X173403187Y-54253974D01*
X173303104Y-54450393D01*
X173303103Y-54450396D01*
X173234985Y-54660047D01*
X173200500Y-54877778D01*
X173200500Y-55098221D01*
X173234985Y-55315952D01*
X173303103Y-55525603D01*
X173303104Y-55525606D01*
X173367175Y-55651350D01*
X173396889Y-55709666D01*
X173403187Y-55722025D01*
X173532752Y-55900358D01*
X173532756Y-55900363D01*
X173688636Y-56056243D01*
X173688641Y-56056247D01*
X173838668Y-56165247D01*
X173866978Y-56185815D01*
X173995375Y-56251237D01*
X174063393Y-56285895D01*
X174063396Y-56285896D01*
X174168221Y-56319955D01*
X174273049Y-56354015D01*
X174490778Y-56388500D01*
X174490779Y-56388500D01*
X175711221Y-56388500D01*
X175711222Y-56388500D01*
X175928951Y-56354015D01*
X176138606Y-56285895D01*
X176335022Y-56185815D01*
X176513365Y-56056242D01*
X176669242Y-55900365D01*
X176749705Y-55789615D01*
X176805035Y-55746949D01*
X176850024Y-55738500D01*
X182517627Y-55738500D01*
X182584666Y-55758185D01*
X182630421Y-55810989D01*
X182640365Y-55880147D01*
X182623166Y-55927596D01*
X182577595Y-56001477D01*
X182577591Y-56001486D01*
X182559445Y-56056247D01*
X182523326Y-56165247D01*
X182523326Y-56165248D01*
X182523325Y-56165248D01*
X182513000Y-56266315D01*
X182513000Y-56964669D01*
X182513001Y-56964687D01*
X182523325Y-57065752D01*
X182559609Y-57175249D01*
X182577592Y-57229516D01*
X182634928Y-57322473D01*
X182668161Y-57376351D01*
X182701681Y-57409871D01*
X182735166Y-57471194D01*
X182738000Y-57497552D01*
X182738000Y-59354269D01*
X182718315Y-59421308D01*
X182701681Y-59441950D01*
X172899050Y-69244580D01*
X172899044Y-69244588D01*
X172849812Y-69318268D01*
X172849813Y-69318269D01*
X172816921Y-69367496D01*
X172816914Y-69367508D01*
X172760342Y-69504086D01*
X172760340Y-69504092D01*
X172731500Y-69649079D01*
X172731500Y-74596770D01*
X172711815Y-74663809D01*
X172659011Y-74709564D01*
X172589853Y-74719508D01*
X172526297Y-74690483D01*
X172519819Y-74684451D01*
X164362819Y-66527451D01*
X164329334Y-66466128D01*
X164326500Y-66439770D01*
X164326500Y-64736552D01*
X164346185Y-64669513D01*
X164362819Y-64648871D01*
X164371765Y-64639925D01*
X164396340Y-64615350D01*
X164486908Y-64468516D01*
X164497020Y-64438000D01*
X171223145Y-64438000D01*
X171235473Y-64515835D01*
X171235473Y-64515838D01*
X171303567Y-64725410D01*
X171403613Y-64921760D01*
X171533142Y-65100041D01*
X171688958Y-65255857D01*
X171867239Y-65385386D01*
X172063589Y-65485432D01*
X172273164Y-65553526D01*
X172490819Y-65588000D01*
X172851000Y-65588000D01*
X172851000Y-64688000D01*
X173351000Y-64688000D01*
X173351000Y-65588000D01*
X173711181Y-65588000D01*
X173928835Y-65553526D01*
X174138410Y-65485432D01*
X174334760Y-65385386D01*
X174513041Y-65255857D01*
X174668857Y-65100041D01*
X174798386Y-64921760D01*
X174898432Y-64725410D01*
X174966526Y-64515838D01*
X174966526Y-64515835D01*
X174978855Y-64438000D01*
X174034012Y-64438000D01*
X174066925Y-64380993D01*
X174101000Y-64253826D01*
X174101000Y-64122174D01*
X174066925Y-63995007D01*
X174034012Y-63938000D01*
X174978855Y-63938000D01*
X174966526Y-63860164D01*
X174966526Y-63860161D01*
X174898432Y-63650589D01*
X174798386Y-63454239D01*
X174668857Y-63275958D01*
X174513041Y-63120142D01*
X174334760Y-62990613D01*
X174138410Y-62890567D01*
X173928835Y-62822473D01*
X173711181Y-62788000D01*
X173351000Y-62788000D01*
X173351000Y-63688000D01*
X172851000Y-63688000D01*
X172851000Y-62788000D01*
X172490819Y-62788000D01*
X172273164Y-62822473D01*
X172063589Y-62890567D01*
X171867239Y-62990613D01*
X171688958Y-63120142D01*
X171533142Y-63275958D01*
X171403613Y-63454239D01*
X171303567Y-63650589D01*
X171235473Y-63860161D01*
X171235473Y-63860164D01*
X171223145Y-63938000D01*
X172167988Y-63938000D01*
X172135075Y-63995007D01*
X172101000Y-64122174D01*
X172101000Y-64253826D01*
X172135075Y-64380993D01*
X172167988Y-64438000D01*
X171223145Y-64438000D01*
X164497020Y-64438000D01*
X164541174Y-64304753D01*
X164551500Y-64203677D01*
X164551499Y-63505324D01*
X164544998Y-63441687D01*
X164541174Y-63404247D01*
X164537629Y-63393548D01*
X164486908Y-63240484D01*
X164396340Y-63093650D01*
X164382371Y-63079681D01*
X164348886Y-63018358D01*
X164353870Y-62948666D01*
X164382371Y-62904319D01*
X164386608Y-62900082D01*
X164396340Y-62890350D01*
X164486908Y-62743516D01*
X164541174Y-62579753D01*
X164551500Y-62478677D01*
X164551499Y-62266729D01*
X164571183Y-62199690D01*
X164587813Y-62179053D01*
X165528048Y-61238819D01*
X165589371Y-61205334D01*
X165615729Y-61202500D01*
X173325820Y-61202500D01*
X173392859Y-61222185D01*
X173426138Y-61253615D01*
X173532752Y-61400359D01*
X173688636Y-61556243D01*
X173688641Y-61556247D01*
X173844192Y-61669260D01*
X173866978Y-61685815D01*
X173995375Y-61751237D01*
X174063393Y-61785895D01*
X174063396Y-61785896D01*
X174161438Y-61817751D01*
X174273049Y-61854015D01*
X174490778Y-61888500D01*
X174490779Y-61888500D01*
X175711221Y-61888500D01*
X175711222Y-61888500D01*
X175928951Y-61854015D01*
X176138606Y-61785895D01*
X176335022Y-61685815D01*
X176513365Y-61556242D01*
X176669242Y-61400365D01*
X176798815Y-61222022D01*
X176898895Y-61025606D01*
X176967015Y-60815951D01*
X177001500Y-60598222D01*
X177001500Y-60377778D01*
X176967015Y-60160049D01*
X176924191Y-60028247D01*
X176898896Y-59950396D01*
X176898895Y-59950393D01*
X176815599Y-59786919D01*
X176798815Y-59753978D01*
X176764855Y-59707236D01*
X176669247Y-59575641D01*
X176669243Y-59575636D01*
X176513363Y-59419756D01*
X176513358Y-59419752D01*
X176335025Y-59290187D01*
X176335024Y-59290186D01*
X176335022Y-59290185D01*
X176272096Y-59258122D01*
X176138606Y-59190104D01*
X176138603Y-59190103D01*
X175928952Y-59121985D01*
X175820086Y-59104742D01*
X175711222Y-59087500D01*
X175100362Y-59087500D01*
X175033323Y-59067815D01*
X174987568Y-59015011D01*
X174977624Y-58945853D01*
X174977889Y-58944102D01*
X174978855Y-58938000D01*
X174034012Y-58938000D01*
X174066925Y-58880993D01*
X174101000Y-58753826D01*
X174101000Y-58622174D01*
X174066925Y-58495007D01*
X174034012Y-58438000D01*
X174978855Y-58438000D01*
X174966526Y-58360164D01*
X174966526Y-58360161D01*
X174898432Y-58150589D01*
X174798386Y-57954239D01*
X174668857Y-57775958D01*
X174513041Y-57620142D01*
X174334760Y-57490613D01*
X174138410Y-57390567D01*
X173928835Y-57322473D01*
X173711181Y-57288000D01*
X173351000Y-57288000D01*
X173351000Y-58188000D01*
X172851000Y-58188000D01*
X172851000Y-57288000D01*
X172490819Y-57288000D01*
X172273164Y-57322473D01*
X172063589Y-57390567D01*
X171867239Y-57490613D01*
X171688958Y-57620142D01*
X171533142Y-57775958D01*
X171403613Y-57954239D01*
X171303567Y-58150589D01*
X171235473Y-58360161D01*
X171235473Y-58360164D01*
X171223145Y-58438000D01*
X172167988Y-58438000D01*
X172135075Y-58495007D01*
X172101000Y-58622174D01*
X172101000Y-58753826D01*
X172135075Y-58880993D01*
X172167988Y-58938000D01*
X171223145Y-58938000D01*
X171235473Y-59015835D01*
X171235473Y-59015838D01*
X171303567Y-59225410D01*
X171403615Y-59421763D01*
X171463810Y-59504615D01*
X171487290Y-59570421D01*
X171471465Y-59638475D01*
X171421359Y-59687170D01*
X171363492Y-59701500D01*
X165179580Y-59701500D01*
X165034592Y-59730340D01*
X165034582Y-59730343D01*
X164898011Y-59786912D01*
X164897998Y-59786919D01*
X164775084Y-59869048D01*
X164775080Y-59869051D01*
X163588949Y-61055181D01*
X163527626Y-61088666D01*
X163501269Y-61091500D01*
X163289331Y-61091500D01*
X163289312Y-61091501D01*
X163188247Y-61101825D01*
X163024484Y-61156092D01*
X163024481Y-61156093D01*
X162877648Y-61246661D01*
X162755661Y-61368648D01*
X162665093Y-61515481D01*
X162665091Y-61515486D01*
X162655627Y-61544046D01*
X162610826Y-61679247D01*
X162610826Y-61679248D01*
X162610825Y-61679248D01*
X162600500Y-61780315D01*
X162600500Y-62478669D01*
X162600501Y-62478687D01*
X162610825Y-62579752D01*
X162635347Y-62653752D01*
X162665092Y-62743516D01*
X162743307Y-62870323D01*
X162755661Y-62890351D01*
X162769629Y-62904319D01*
X162803114Y-62965642D01*
X162798130Y-63035334D01*
X162769629Y-63079681D01*
X162755661Y-63093648D01*
X162665093Y-63240481D01*
X162665091Y-63240486D01*
X162653337Y-63275958D01*
X162610826Y-63404247D01*
X162610826Y-63404248D01*
X162610825Y-63404248D01*
X162600500Y-63505315D01*
X162600500Y-64203669D01*
X158484500Y-64203669D01*
X158484500Y-63989229D01*
X158504185Y-63922190D01*
X158520819Y-63901548D01*
X161266275Y-61156092D01*
X164031952Y-58390415D01*
X164059205Y-58349627D01*
X164114084Y-58267495D01*
X164114087Y-58267488D01*
X164137518Y-58210921D01*
X164137518Y-58210920D01*
X164168307Y-58136589D01*
X164170659Y-58130912D01*
X164199500Y-57985917D01*
X164199500Y-57838082D01*
X164199500Y-57497552D01*
X164219185Y-57430513D01*
X164235819Y-57409871D01*
X164269340Y-57376350D01*
X164359908Y-57229516D01*
X164414174Y-57065753D01*
X164424500Y-56964677D01*
X164424499Y-56266324D01*
X164414174Y-56165247D01*
X164359908Y-56001484D01*
X164269340Y-55854650D01*
X164255371Y-55840681D01*
X164221886Y-55779358D01*
X164226870Y-55709666D01*
X164255371Y-55665319D01*
X164269340Y-55651350D01*
X164359908Y-55504516D01*
X164414174Y-55340753D01*
X164424500Y-55239677D01*
X164424499Y-54541324D01*
X164414174Y-54440247D01*
X164359908Y-54276484D01*
X164269340Y-54129650D01*
X164147350Y-54007660D01*
X164036887Y-53939526D01*
X164000518Y-53917093D01*
X164000513Y-53917091D01*
X163966294Y-53905752D01*
X163836753Y-53862826D01*
X163836751Y-53862825D01*
X163735678Y-53852500D01*
X163162330Y-53852500D01*
X163162312Y-53852501D01*
X163061247Y-53862825D01*
X162897484Y-53917092D01*
X162897481Y-53917093D01*
X162750648Y-54007661D01*
X162628659Y-54129650D01*
X162598470Y-54178596D01*
X162546522Y-54225321D01*
X162492931Y-54237500D01*
X157065024Y-54237500D01*
X156997985Y-54217815D01*
X156964705Y-54186384D01*
X156884245Y-54075638D01*
X156728363Y-53919756D01*
X156728358Y-53919752D01*
X156550025Y-53790187D01*
X156550024Y-53790186D01*
X156550022Y-53790185D01*
X156487096Y-53758122D01*
X156353606Y-53690104D01*
X156353603Y-53690103D01*
X156143952Y-53621985D01*
X156035086Y-53604742D01*
X155926222Y-53587500D01*
X155063679Y-53587500D01*
X154996640Y-53567815D01*
X154950885Y-53515011D01*
X154940941Y-53445853D01*
X154963361Y-53390614D01*
X155013386Y-53321760D01*
X155113432Y-53125410D01*
X155181526Y-52915838D01*
X155181526Y-52915835D01*
X155193855Y-52838000D01*
X154249012Y-52838000D01*
X154281925Y-52780993D01*
X154316000Y-52653826D01*
X154316000Y-52522174D01*
X154281925Y-52395007D01*
X154249012Y-52338000D01*
X155193855Y-52338000D01*
X155181526Y-52260164D01*
X155181526Y-52260161D01*
X155113432Y-52050589D01*
X155013386Y-51854239D01*
X154883857Y-51675958D01*
X154728041Y-51520142D01*
X154549760Y-51390613D01*
X154353410Y-51290567D01*
X154143835Y-51222473D01*
X153926181Y-51188000D01*
X153566000Y-51188000D01*
X153566000Y-52088000D01*
X153066000Y-52088000D01*
X153066000Y-51188000D01*
X152705819Y-51188000D01*
X152488164Y-51222473D01*
X152278589Y-51290567D01*
X152082239Y-51390613D01*
X151903958Y-51520142D01*
X151748142Y-51675958D01*
X151618613Y-51854239D01*
X151518567Y-52050589D01*
X151450473Y-52260161D01*
X151450473Y-52260164D01*
X151438145Y-52338000D01*
X152382988Y-52338000D01*
X152350075Y-52395007D01*
X152316000Y-52522174D01*
X152316000Y-52653826D01*
X152350075Y-52780993D01*
X152382988Y-52838000D01*
X151438145Y-52838000D01*
X151450473Y-52915835D01*
X151450473Y-52915838D01*
X151518567Y-53125410D01*
X151618613Y-53321760D01*
X151748142Y-53500041D01*
X151903958Y-53655857D01*
X152082239Y-53785386D01*
X152278589Y-53885432D01*
X152488164Y-53953526D01*
X152705819Y-53988000D01*
X153066000Y-53988000D01*
X153066000Y-53088000D01*
X153566000Y-53088000D01*
X153566000Y-53988000D01*
X153568065Y-53988000D01*
X153635104Y-54007685D01*
X153680859Y-54060489D01*
X153690803Y-54129647D01*
X153668383Y-54184885D01*
X153618187Y-54253974D01*
X153518104Y-54450393D01*
X153518103Y-54450396D01*
X153449985Y-54660047D01*
X153415500Y-54877778D01*
X153415500Y-55098221D01*
X153449985Y-55315952D01*
X153518103Y-55525603D01*
X153518104Y-55525606D01*
X153582175Y-55651350D01*
X153611889Y-55709666D01*
X153618187Y-55722025D01*
X153747752Y-55900358D01*
X153747756Y-55900363D01*
X153903636Y-56056243D01*
X153903641Y-56056247D01*
X154053668Y-56165247D01*
X154081978Y-56185815D01*
X154210375Y-56251237D01*
X154278393Y-56285895D01*
X154278396Y-56285896D01*
X154383221Y-56319955D01*
X154488049Y-56354015D01*
X154705778Y-56388500D01*
X154705779Y-56388500D01*
X155926221Y-56388500D01*
X155926222Y-56388500D01*
X156143951Y-56354015D01*
X156353606Y-56285895D01*
X156550022Y-56185815D01*
X156728365Y-56056242D01*
X156884242Y-55900365D01*
X156964705Y-55789615D01*
X157020035Y-55746949D01*
X157065024Y-55738500D01*
X162478127Y-55738500D01*
X162545166Y-55758185D01*
X162590921Y-55810989D01*
X162600865Y-55880147D01*
X162583666Y-55927596D01*
X162538095Y-56001477D01*
X162538091Y-56001486D01*
X162519945Y-56056247D01*
X162483826Y-56165247D01*
X162483826Y-56165248D01*
X162483825Y-56165248D01*
X162473500Y-56266315D01*
X162473500Y-56964669D01*
X162473501Y-56964687D01*
X162483825Y-57065752D01*
X162520109Y-57175249D01*
X162538092Y-57229516D01*
X162595428Y-57322473D01*
X162628661Y-57376351D01*
X162662181Y-57409871D01*
X162695666Y-57471194D01*
X162698500Y-57497552D01*
X162698500Y-57549769D01*
X162678815Y-57616808D01*
X162662181Y-57637450D01*
X157151050Y-63148580D01*
X157151044Y-63148588D01*
X157101812Y-63222268D01*
X157101813Y-63222269D01*
X157068921Y-63271496D01*
X157068914Y-63271508D01*
X157012342Y-63408086D01*
X157012340Y-63408092D01*
X156983500Y-63553079D01*
X156983500Y-77390770D01*
X156963815Y-77457809D01*
X156911011Y-77503564D01*
X156841853Y-77513508D01*
X156778297Y-77484483D01*
X156771819Y-77478451D01*
X144677819Y-65384451D01*
X144644334Y-65323128D01*
X144641500Y-65296770D01*
X144641500Y-64438000D01*
X151438145Y-64438000D01*
X151450473Y-64515835D01*
X151450473Y-64515838D01*
X151518567Y-64725410D01*
X151618613Y-64921760D01*
X151748142Y-65100041D01*
X151903958Y-65255857D01*
X152082239Y-65385386D01*
X152278589Y-65485432D01*
X152488164Y-65553526D01*
X152705819Y-65588000D01*
X153066000Y-65588000D01*
X153066000Y-64688000D01*
X153566000Y-64688000D01*
X153566000Y-65588000D01*
X153926181Y-65588000D01*
X154143835Y-65553526D01*
X154353410Y-65485432D01*
X154549760Y-65385386D01*
X154728041Y-65255857D01*
X154883857Y-65100041D01*
X155013386Y-64921760D01*
X155113432Y-64725410D01*
X155181526Y-64515838D01*
X155181526Y-64515835D01*
X155193855Y-64438000D01*
X154249012Y-64438000D01*
X154281925Y-64380993D01*
X154316000Y-64253826D01*
X154316000Y-64122174D01*
X154281925Y-63995007D01*
X154249012Y-63938000D01*
X155193855Y-63938000D01*
X155181526Y-63860164D01*
X155181526Y-63860161D01*
X155113432Y-63650589D01*
X155013386Y-63454239D01*
X154883857Y-63275958D01*
X154728041Y-63120142D01*
X154549760Y-62990613D01*
X154353410Y-62890567D01*
X154143835Y-62822473D01*
X153926181Y-62788000D01*
X153566000Y-62788000D01*
X153566000Y-63688000D01*
X153066000Y-63688000D01*
X153066000Y-62788000D01*
X152705819Y-62788000D01*
X152488164Y-62822473D01*
X152278589Y-62890567D01*
X152082239Y-62990613D01*
X151903958Y-63120142D01*
X151748142Y-63275958D01*
X151618613Y-63454239D01*
X151518567Y-63650589D01*
X151450473Y-63860161D01*
X151450473Y-63860164D01*
X151438145Y-63938000D01*
X152382988Y-63938000D01*
X152350075Y-63995007D01*
X152316000Y-64122174D01*
X152316000Y-64253826D01*
X152350075Y-64380993D01*
X152382988Y-64438000D01*
X151438145Y-64438000D01*
X144641500Y-64438000D01*
X144641500Y-63974552D01*
X144661185Y-63907513D01*
X144677819Y-63886871D01*
X144683697Y-63880993D01*
X144711340Y-63853350D01*
X144801908Y-63706516D01*
X144856174Y-63542753D01*
X144866500Y-63441677D01*
X144866499Y-62743324D01*
X144856174Y-62642247D01*
X144801908Y-62478484D01*
X144711340Y-62331650D01*
X144697371Y-62317681D01*
X144663886Y-62256358D01*
X144668870Y-62186666D01*
X144697371Y-62142319D01*
X144711340Y-62128350D01*
X144801908Y-61981516D01*
X144856174Y-61817753D01*
X144866500Y-61716677D01*
X144866499Y-61504728D01*
X144886183Y-61437689D01*
X144902809Y-61417057D01*
X145081049Y-61238816D01*
X145142372Y-61205334D01*
X145168729Y-61202500D01*
X153540820Y-61202500D01*
X153607859Y-61222185D01*
X153641138Y-61253615D01*
X153747752Y-61400359D01*
X153903636Y-61556243D01*
X153903641Y-61556247D01*
X154059192Y-61669260D01*
X154081978Y-61685815D01*
X154210375Y-61751237D01*
X154278393Y-61785895D01*
X154278396Y-61785896D01*
X154376438Y-61817751D01*
X154488049Y-61854015D01*
X154705778Y-61888500D01*
X154705779Y-61888500D01*
X155926221Y-61888500D01*
X155926222Y-61888500D01*
X156143951Y-61854015D01*
X156353606Y-61785895D01*
X156550022Y-61685815D01*
X156728365Y-61556242D01*
X156884242Y-61400365D01*
X157013815Y-61222022D01*
X157113895Y-61025606D01*
X157182015Y-60815951D01*
X157216500Y-60598222D01*
X157216500Y-60377778D01*
X157182015Y-60160049D01*
X157139191Y-60028247D01*
X157113896Y-59950396D01*
X157113895Y-59950393D01*
X157030599Y-59786919D01*
X157013815Y-59753978D01*
X156979855Y-59707236D01*
X156884247Y-59575641D01*
X156884243Y-59575636D01*
X156728363Y-59419756D01*
X156728358Y-59419752D01*
X156550025Y-59290187D01*
X156550024Y-59290186D01*
X156550022Y-59290185D01*
X156487096Y-59258122D01*
X156353606Y-59190104D01*
X156353603Y-59190103D01*
X156143952Y-59121985D01*
X156035086Y-59104742D01*
X155926222Y-59087500D01*
X155315362Y-59087500D01*
X155248323Y-59067815D01*
X155202568Y-59015011D01*
X155192624Y-58945853D01*
X155192889Y-58944102D01*
X155193855Y-58938000D01*
X154249012Y-58938000D01*
X154281925Y-58880993D01*
X154316000Y-58753826D01*
X154316000Y-58622174D01*
X154281925Y-58495007D01*
X154249012Y-58438000D01*
X155193855Y-58438000D01*
X155181526Y-58360164D01*
X155181526Y-58360161D01*
X155113432Y-58150589D01*
X155013386Y-57954239D01*
X154883857Y-57775958D01*
X154728041Y-57620142D01*
X154549760Y-57490613D01*
X154353410Y-57390567D01*
X154143835Y-57322473D01*
X153926181Y-57288000D01*
X153566000Y-57288000D01*
X153566000Y-58188000D01*
X153066000Y-58188000D01*
X153066000Y-57288000D01*
X152705819Y-57288000D01*
X152488164Y-57322473D01*
X152278589Y-57390567D01*
X152082239Y-57490613D01*
X151903958Y-57620142D01*
X151748142Y-57775958D01*
X151618613Y-57954239D01*
X151518567Y-58150589D01*
X151450473Y-58360161D01*
X151450473Y-58360164D01*
X151438145Y-58438000D01*
X152382988Y-58438000D01*
X152350075Y-58495007D01*
X152316000Y-58622174D01*
X152316000Y-58753826D01*
X152350075Y-58880993D01*
X152382988Y-58938000D01*
X151438145Y-58938000D01*
X151450473Y-59015835D01*
X151450473Y-59015838D01*
X151518567Y-59225410D01*
X151618615Y-59421763D01*
X151678810Y-59504615D01*
X151702290Y-59570421D01*
X151686465Y-59638475D01*
X151636359Y-59687170D01*
X151578492Y-59701500D01*
X144732576Y-59701500D01*
X144703742Y-59707234D01*
X144703743Y-59707235D01*
X144587593Y-59730339D01*
X144587583Y-59730342D01*
X144507581Y-59763479D01*
X144507582Y-59763480D01*
X144451006Y-59786915D01*
X144397127Y-59822916D01*
X144328082Y-59869049D01*
X143903950Y-60293181D01*
X143842627Y-60326666D01*
X143816270Y-60329500D01*
X143604331Y-60329500D01*
X143604312Y-60329501D01*
X143503247Y-60339825D01*
X143339484Y-60394092D01*
X143339481Y-60394093D01*
X143192648Y-60484661D01*
X143070661Y-60606648D01*
X142980093Y-60753481D01*
X142980091Y-60753486D01*
X142964031Y-60801952D01*
X142925826Y-60917247D01*
X142925826Y-60917248D01*
X142925825Y-60917248D01*
X142915500Y-61018315D01*
X142915500Y-61716669D01*
X142915501Y-61716687D01*
X142925825Y-61817752D01*
X142937944Y-61854323D01*
X142980092Y-61981516D01*
X143058426Y-62108516D01*
X143070661Y-62128351D01*
X143084629Y-62142319D01*
X143118114Y-62203642D01*
X143113130Y-62273334D01*
X143084629Y-62317681D01*
X143070661Y-62331648D01*
X142980093Y-62478481D01*
X142980091Y-62478486D01*
X142955509Y-62552669D01*
X142925826Y-62642247D01*
X142925826Y-62642248D01*
X142925825Y-62642248D01*
X142915500Y-62743315D01*
X142915500Y-63441669D01*
X138430116Y-63441669D01*
X138438185Y-63414190D01*
X138454814Y-63393553D01*
X144210899Y-57637467D01*
X144259574Y-57607444D01*
X144315516Y-57588908D01*
X144462350Y-57498340D01*
X144584340Y-57376350D01*
X144674908Y-57229516D01*
X144729174Y-57065753D01*
X144739500Y-56964677D01*
X144739499Y-56266324D01*
X144729174Y-56165247D01*
X144674908Y-56001484D01*
X144584340Y-55854650D01*
X144570371Y-55840681D01*
X144536886Y-55779358D01*
X144541870Y-55709666D01*
X144570371Y-55665319D01*
X144584340Y-55651350D01*
X144674908Y-55504516D01*
X144729174Y-55340753D01*
X144739500Y-55239677D01*
X144739499Y-54541324D01*
X144729174Y-54440247D01*
X144674908Y-54276484D01*
X144584340Y-54129650D01*
X144462350Y-54007660D01*
X144351887Y-53939526D01*
X144315518Y-53917093D01*
X144315513Y-53917091D01*
X144281294Y-53905752D01*
X144151753Y-53862826D01*
X144151751Y-53862825D01*
X144050678Y-53852500D01*
X143477330Y-53852500D01*
X143477312Y-53852501D01*
X143376247Y-53862825D01*
X143212484Y-53917092D01*
X143212481Y-53917093D01*
X143065648Y-54007661D01*
X142943660Y-54129649D01*
X142943657Y-54129653D01*
X142911618Y-54181597D01*
X142859670Y-54228322D01*
X142806080Y-54240500D01*
X137355204Y-54240500D01*
X137288165Y-54220815D01*
X137254887Y-54189387D01*
X137172242Y-54075635D01*
X137016365Y-53919758D01*
X137016363Y-53919756D01*
X137016358Y-53919752D01*
X136838025Y-53790187D01*
X136838024Y-53790186D01*
X136838022Y-53790185D01*
X136775096Y-53758122D01*
X136641606Y-53690104D01*
X136641603Y-53690103D01*
X136431952Y-53621985D01*
X136323086Y-53604742D01*
X136214222Y-53587500D01*
X135351679Y-53587500D01*
X135284640Y-53567815D01*
X135238885Y-53515011D01*
X135228941Y-53445853D01*
X135251361Y-53390614D01*
X135301386Y-53321760D01*
X135401432Y-53125410D01*
X135469526Y-52915838D01*
X135469526Y-52915835D01*
X135481855Y-52838000D01*
X134537012Y-52838000D01*
X134569925Y-52780993D01*
X134604000Y-52653826D01*
X134604000Y-52522174D01*
X134569925Y-52395007D01*
X134537012Y-52338000D01*
X135481855Y-52338000D01*
X135469526Y-52260164D01*
X135469526Y-52260161D01*
X135401432Y-52050589D01*
X135301386Y-51854239D01*
X135171857Y-51675958D01*
X135016041Y-51520142D01*
X134837760Y-51390613D01*
X134641410Y-51290567D01*
X134431835Y-51222473D01*
X134214181Y-51188000D01*
X133854000Y-51188000D01*
X133854000Y-52088000D01*
X133354000Y-52088000D01*
X133354000Y-51188000D01*
X132993819Y-51188000D01*
X132776164Y-51222473D01*
X132566589Y-51290567D01*
X132370239Y-51390613D01*
X132191958Y-51520142D01*
X132036142Y-51675958D01*
X131906613Y-51854239D01*
X131806567Y-52050589D01*
X131738473Y-52260161D01*
X131738473Y-52260164D01*
X131726145Y-52338000D01*
X132670988Y-52338000D01*
X132638075Y-52395007D01*
X132604000Y-52522174D01*
X132604000Y-52653826D01*
X132638075Y-52780993D01*
X132670988Y-52838000D01*
X131726145Y-52838000D01*
X131738473Y-52915835D01*
X131738473Y-52915838D01*
X131806567Y-53125410D01*
X131906613Y-53321760D01*
X132036142Y-53500041D01*
X132191958Y-53655857D01*
X132370239Y-53785386D01*
X132566589Y-53885432D01*
X132776164Y-53953526D01*
X132993819Y-53988000D01*
X133354000Y-53988000D01*
X133354000Y-53088000D01*
X133854000Y-53088000D01*
X133854000Y-53988000D01*
X133856065Y-53988000D01*
X133923104Y-54007685D01*
X133968859Y-54060489D01*
X133978803Y-54129647D01*
X133956383Y-54184885D01*
X133906187Y-54253974D01*
X133806104Y-54450393D01*
X133806103Y-54450396D01*
X133737985Y-54660047D01*
X133703500Y-54877778D01*
X133703500Y-55098221D01*
X133737985Y-55315952D01*
X133806103Y-55525603D01*
X133806104Y-55525606D01*
X133870175Y-55651350D01*
X133899889Y-55709666D01*
X133906187Y-55722025D01*
X134035752Y-55900358D01*
X134035756Y-55900363D01*
X134191636Y-56056243D01*
X134191641Y-56056247D01*
X134341668Y-56165247D01*
X134369978Y-56185815D01*
X134498375Y-56251237D01*
X134566393Y-56285895D01*
X134566396Y-56285896D01*
X134671221Y-56319955D01*
X134776049Y-56354015D01*
X134993778Y-56388500D01*
X134993779Y-56388500D01*
X136214221Y-56388500D01*
X136214222Y-56388500D01*
X136431951Y-56354015D01*
X136641606Y-56285895D01*
X136838022Y-56185815D01*
X137016365Y-56056242D01*
X137172242Y-55900365D01*
X137182414Y-55886365D01*
X137186931Y-55880147D01*
X137250525Y-55792615D01*
X137305854Y-55749949D01*
X137350844Y-55741500D01*
X142791277Y-55741500D01*
X142858316Y-55761185D01*
X142904071Y-55813989D01*
X142914015Y-55883147D01*
X142896816Y-55930594D01*
X142880273Y-55957416D01*
X142853093Y-56001481D01*
X142853091Y-56001486D01*
X142834945Y-56056247D01*
X142798826Y-56165247D01*
X142798826Y-56165248D01*
X142798825Y-56165248D01*
X142788500Y-56266315D01*
X142788500Y-56885769D01*
X142768815Y-56952808D01*
X142752181Y-56973450D01*
X137085052Y-62640578D01*
X137085046Y-62640585D01*
X137039724Y-62708415D01*
X137039725Y-62708416D01*
X137002914Y-62763508D01*
X136946343Y-62900082D01*
X136946340Y-62900092D01*
X136917500Y-63045079D01*
X136917500Y-77390770D01*
X136897815Y-77457809D01*
X136845011Y-77503564D01*
X136775853Y-77513508D01*
X136712297Y-77484483D01*
X136705819Y-77478451D01*
X124611819Y-65384451D01*
X124578334Y-65323128D01*
X124575500Y-65296770D01*
X124575500Y-64438000D01*
X131726145Y-64438000D01*
X131738473Y-64515835D01*
X131738473Y-64515838D01*
X131806567Y-64725410D01*
X131906613Y-64921760D01*
X132036142Y-65100041D01*
X132191958Y-65255857D01*
X132370239Y-65385386D01*
X132566589Y-65485432D01*
X132776164Y-65553526D01*
X132993819Y-65588000D01*
X133354000Y-65588000D01*
X133354000Y-64688000D01*
X133854000Y-64688000D01*
X133854000Y-65588000D01*
X134214181Y-65588000D01*
X134431835Y-65553526D01*
X134641410Y-65485432D01*
X134837760Y-65385386D01*
X135016041Y-65255857D01*
X135171857Y-65100041D01*
X135301386Y-64921760D01*
X135401432Y-64725410D01*
X135469526Y-64515838D01*
X135469526Y-64515835D01*
X135481855Y-64438000D01*
X134537012Y-64438000D01*
X134569925Y-64380993D01*
X134604000Y-64253826D01*
X134604000Y-64122174D01*
X134569925Y-63995007D01*
X134537012Y-63938000D01*
X135481855Y-63938000D01*
X135469526Y-63860164D01*
X135469526Y-63860161D01*
X135401432Y-63650589D01*
X135301386Y-63454239D01*
X135171857Y-63275958D01*
X135016041Y-63120142D01*
X134837760Y-62990613D01*
X134641410Y-62890567D01*
X134431835Y-62822473D01*
X134214181Y-62788000D01*
X133854000Y-62788000D01*
X133854000Y-63688000D01*
X133354000Y-63688000D01*
X133354000Y-62788000D01*
X132993819Y-62788000D01*
X132776164Y-62822473D01*
X132566589Y-62890567D01*
X132370239Y-62990613D01*
X132191958Y-63120142D01*
X132036142Y-63275958D01*
X131906613Y-63454239D01*
X131806567Y-63650589D01*
X131738473Y-63860161D01*
X131738473Y-63860164D01*
X131726145Y-63938000D01*
X132670988Y-63938000D01*
X132638075Y-63995007D01*
X132604000Y-64122174D01*
X132604000Y-64253826D01*
X132638075Y-64380993D01*
X132670988Y-64438000D01*
X131726145Y-64438000D01*
X124575500Y-64438000D01*
X124575500Y-64101552D01*
X124595185Y-64034513D01*
X124611819Y-64013871D01*
X124645340Y-63980350D01*
X124735908Y-63833516D01*
X124790174Y-63669753D01*
X124800500Y-63568677D01*
X124800499Y-62870324D01*
X124790174Y-62769247D01*
X124735908Y-62605484D01*
X124645340Y-62458650D01*
X124631371Y-62444681D01*
X124597886Y-62383358D01*
X124602870Y-62313666D01*
X124631371Y-62269319D01*
X124633960Y-62266730D01*
X124645340Y-62255350D01*
X124735908Y-62108516D01*
X124790174Y-61944753D01*
X124800500Y-61843677D01*
X124800499Y-61631728D01*
X124820183Y-61564689D01*
X124836809Y-61544056D01*
X125142049Y-61238816D01*
X125203371Y-61205334D01*
X125229729Y-61202500D01*
X133828820Y-61202500D01*
X133895859Y-61222185D01*
X133929138Y-61253615D01*
X134035752Y-61400359D01*
X134191636Y-61556243D01*
X134191641Y-61556247D01*
X134347192Y-61669260D01*
X134369978Y-61685815D01*
X134498375Y-61751237D01*
X134566393Y-61785895D01*
X134566396Y-61785896D01*
X134664438Y-61817751D01*
X134776049Y-61854015D01*
X134993778Y-61888500D01*
X134993779Y-61888500D01*
X136214221Y-61888500D01*
X136214222Y-61888500D01*
X136431951Y-61854015D01*
X136641606Y-61785895D01*
X136838022Y-61685815D01*
X137016365Y-61556242D01*
X137172242Y-61400365D01*
X137301815Y-61222022D01*
X137401895Y-61025606D01*
X137470015Y-60815951D01*
X137504500Y-60598222D01*
X137504500Y-60377778D01*
X137470015Y-60160049D01*
X137427191Y-60028247D01*
X137401896Y-59950396D01*
X137401895Y-59950393D01*
X137318599Y-59786919D01*
X137301815Y-59753978D01*
X137267855Y-59707236D01*
X137172247Y-59575641D01*
X137172243Y-59575636D01*
X137016363Y-59419756D01*
X137016358Y-59419752D01*
X136838025Y-59290187D01*
X136838024Y-59290186D01*
X136838022Y-59290185D01*
X136775096Y-59258122D01*
X136641606Y-59190104D01*
X136641603Y-59190103D01*
X136431952Y-59121985D01*
X136323086Y-59104742D01*
X136214222Y-59087500D01*
X135603362Y-59087500D01*
X135536323Y-59067815D01*
X135490568Y-59015011D01*
X135480624Y-58945853D01*
X135480889Y-58944102D01*
X135481855Y-58938000D01*
X134537012Y-58938000D01*
X134569925Y-58880993D01*
X134604000Y-58753826D01*
X134604000Y-58622174D01*
X134569925Y-58495007D01*
X134537012Y-58438000D01*
X135481855Y-58438000D01*
X135469526Y-58360164D01*
X135469526Y-58360161D01*
X135401432Y-58150589D01*
X135301386Y-57954239D01*
X135171857Y-57775958D01*
X135016041Y-57620142D01*
X134837760Y-57490613D01*
X134641410Y-57390567D01*
X134431835Y-57322473D01*
X134214181Y-57288000D01*
X133854000Y-57288000D01*
X133854000Y-58188000D01*
X133354000Y-58188000D01*
X133354000Y-57288000D01*
X132993819Y-57288000D01*
X132776164Y-57322473D01*
X132566589Y-57390567D01*
X132370239Y-57490613D01*
X132191958Y-57620142D01*
X132036142Y-57775958D01*
X131906613Y-57954239D01*
X131806567Y-58150589D01*
X131738473Y-58360161D01*
X131738473Y-58360164D01*
X131726145Y-58438000D01*
X132670988Y-58438000D01*
X132638075Y-58495007D01*
X132604000Y-58622174D01*
X132604000Y-58753826D01*
X132638075Y-58880993D01*
X132670988Y-58938000D01*
X131726145Y-58938000D01*
X131738473Y-59015835D01*
X131738473Y-59015838D01*
X131806567Y-59225410D01*
X131906615Y-59421763D01*
X131966810Y-59504615D01*
X131990290Y-59570421D01*
X131974465Y-59638475D01*
X131924359Y-59687170D01*
X131866492Y-59701500D01*
X124793576Y-59701500D01*
X124764742Y-59707234D01*
X124764743Y-59707235D01*
X124648593Y-59730339D01*
X124648583Y-59730342D01*
X124568581Y-59763479D01*
X124568582Y-59763480D01*
X124512006Y-59786915D01*
X124458127Y-59822916D01*
X124389082Y-59869049D01*
X124389079Y-59869052D01*
X123837949Y-60420181D01*
X123776626Y-60453666D01*
X123750269Y-60456500D01*
X123538331Y-60456500D01*
X123538312Y-60456501D01*
X123437247Y-60466825D01*
X123273484Y-60521092D01*
X123273481Y-60521093D01*
X123126648Y-60611661D01*
X123004661Y-60733648D01*
X122914093Y-60880481D01*
X122914091Y-60880486D01*
X122898097Y-60928752D01*
X122859826Y-61044247D01*
X122859826Y-61044248D01*
X122859825Y-61044248D01*
X122849500Y-61145315D01*
X122849500Y-61843669D01*
X122849501Y-61843687D01*
X122859825Y-61944752D01*
X122914092Y-62108515D01*
X122914093Y-62108518D01*
X123004661Y-62255351D01*
X123018629Y-62269319D01*
X123052114Y-62330642D01*
X123047130Y-62400334D01*
X123018629Y-62444681D01*
X123004661Y-62458648D01*
X122914093Y-62605481D01*
X122914091Y-62605486D01*
X122898098Y-62653751D01*
X122859826Y-62769247D01*
X122859826Y-62769248D01*
X122859825Y-62769248D01*
X122849500Y-62870315D01*
X122849500Y-63568669D01*
X118848698Y-63568669D01*
X124026948Y-58390419D01*
X124026950Y-58390417D01*
X124026951Y-58390416D01*
X124109084Y-58267495D01*
X124165658Y-58130913D01*
X124175096Y-58083462D01*
X124194500Y-57985920D01*
X124194500Y-57497552D01*
X124214185Y-57430513D01*
X124230819Y-57409871D01*
X124264340Y-57376350D01*
X124354908Y-57229516D01*
X124409174Y-57065753D01*
X124419500Y-56964677D01*
X124419499Y-56266324D01*
X124409174Y-56165247D01*
X124354908Y-56001484D01*
X124264340Y-55854650D01*
X124250371Y-55840681D01*
X124216886Y-55779358D01*
X124221870Y-55709666D01*
X124250371Y-55665319D01*
X124264340Y-55651350D01*
X124354908Y-55504516D01*
X124409174Y-55340753D01*
X124419500Y-55239677D01*
X124419499Y-54541324D01*
X124409174Y-54440247D01*
X124354908Y-54276484D01*
X124264340Y-54129650D01*
X124142350Y-54007660D01*
X124031887Y-53939526D01*
X123995518Y-53917093D01*
X123995513Y-53917091D01*
X123961294Y-53905752D01*
X123831753Y-53862826D01*
X123831751Y-53862825D01*
X123730678Y-53852500D01*
X123157330Y-53852500D01*
X123157312Y-53852501D01*
X123056247Y-53862825D01*
X122892484Y-53917092D01*
X122892481Y-53917093D01*
X122745648Y-54007661D01*
X122623660Y-54129649D01*
X122623657Y-54129653D01*
X122591618Y-54181597D01*
X122539670Y-54228322D01*
X122486080Y-54240500D01*
X117453376Y-54240500D01*
X117386337Y-54220815D01*
X117353058Y-54189385D01*
X117260247Y-54061641D01*
X117260243Y-54061636D01*
X117104363Y-53905756D01*
X117104358Y-53905752D01*
X116926025Y-53776187D01*
X116926024Y-53776186D01*
X116926022Y-53776185D01*
X116863096Y-53744122D01*
X116729606Y-53676104D01*
X116729603Y-53676103D01*
X116519952Y-53607985D01*
X116390614Y-53587500D01*
X116302222Y-53573500D01*
X115439679Y-53573500D01*
X115372640Y-53553815D01*
X115326885Y-53501011D01*
X115316941Y-53431853D01*
X115339361Y-53376614D01*
X115389386Y-53307760D01*
X115489432Y-53111410D01*
X115557526Y-52901838D01*
X115557526Y-52901835D01*
X115569855Y-52824000D01*
X114625012Y-52824000D01*
X114657925Y-52766993D01*
X114692000Y-52639826D01*
X114692000Y-52508174D01*
X114657925Y-52381007D01*
X114625012Y-52324000D01*
X115569855Y-52324000D01*
X115557526Y-52246164D01*
X115557526Y-52246161D01*
X115489432Y-52036589D01*
X115389386Y-51840239D01*
X115259857Y-51661958D01*
X115104041Y-51506142D01*
X114925760Y-51376613D01*
X114729410Y-51276567D01*
X114519835Y-51208473D01*
X114302181Y-51174000D01*
X113942000Y-51174000D01*
X113942000Y-52074000D01*
X113442000Y-52074000D01*
X113442000Y-51174000D01*
X113081819Y-51174000D01*
X112864164Y-51208473D01*
X112654589Y-51276567D01*
X112458239Y-51376613D01*
X112279958Y-51506142D01*
X112124142Y-51661958D01*
X111994613Y-51840239D01*
X111894567Y-52036589D01*
X111826473Y-52246161D01*
X111826473Y-52246164D01*
X111814145Y-52324000D01*
X112758988Y-52324000D01*
X112726075Y-52381007D01*
X112692000Y-52508174D01*
X112692000Y-52639826D01*
X112726075Y-52766993D01*
X112758988Y-52824000D01*
X111814145Y-52824000D01*
X111826473Y-52901835D01*
X111826473Y-52901838D01*
X111894567Y-53111410D01*
X111994613Y-53307760D01*
X112124142Y-53486041D01*
X112279958Y-53641857D01*
X112458239Y-53771386D01*
X112654589Y-53871432D01*
X112864164Y-53939526D01*
X113081819Y-53974000D01*
X113442000Y-53974000D01*
X113442000Y-53074000D01*
X113942000Y-53074000D01*
X113942000Y-53974000D01*
X113944065Y-53974000D01*
X114011104Y-53993685D01*
X114056859Y-54046489D01*
X114066803Y-54115647D01*
X114044383Y-54170885D01*
X113994187Y-54239974D01*
X113894104Y-54436393D01*
X113894103Y-54436396D01*
X113825985Y-54646047D01*
X113791500Y-54863778D01*
X113791500Y-55084222D01*
X113808742Y-55193086D01*
X113825985Y-55301952D01*
X113894103Y-55511603D01*
X113894104Y-55511606D01*
X113994187Y-55708025D01*
X114123752Y-55886358D01*
X114123756Y-55886363D01*
X114279636Y-56042243D01*
X114279641Y-56042247D01*
X114298911Y-56056247D01*
X114457978Y-56171815D01*
X114586375Y-56237237D01*
X114654393Y-56271895D01*
X114654396Y-56271896D01*
X114697482Y-56285895D01*
X114864049Y-56340015D01*
X115081778Y-56374500D01*
X115081779Y-56374500D01*
X116302221Y-56374500D01*
X116302222Y-56374500D01*
X116519951Y-56340015D01*
X116729606Y-56271895D01*
X116926022Y-56171815D01*
X117104365Y-56042242D01*
X117260242Y-55886365D01*
X117328354Y-55792615D01*
X117383684Y-55749949D01*
X117428673Y-55741500D01*
X122471277Y-55741500D01*
X122538316Y-55761185D01*
X122584071Y-55813989D01*
X122594015Y-55883147D01*
X122576816Y-55930594D01*
X122560273Y-55957416D01*
X122533093Y-56001481D01*
X122533091Y-56001486D01*
X122514945Y-56056247D01*
X122478826Y-56165247D01*
X122478826Y-56165248D01*
X122478825Y-56165248D01*
X122468500Y-56266315D01*
X122468500Y-56964669D01*
X122468501Y-56964687D01*
X122478825Y-57065752D01*
X122515109Y-57175249D01*
X122533092Y-57229516D01*
X122590428Y-57322473D01*
X122623661Y-57376351D01*
X122657181Y-57409871D01*
X122690666Y-57471194D01*
X122693500Y-57497552D01*
X122693500Y-57549769D01*
X122673815Y-57616808D01*
X122657181Y-57637450D01*
X117273052Y-63021578D01*
X117273046Y-63021585D01*
X117224895Y-63093649D01*
X117224896Y-63093650D01*
X117190914Y-63144508D01*
X117134343Y-63281082D01*
X117134340Y-63281092D01*
X117105500Y-63426079D01*
X117105500Y-74088770D01*
X117085815Y-74155809D01*
X117033011Y-74201564D01*
X116963853Y-74211508D01*
X116900297Y-74182483D01*
X116893819Y-74176451D01*
X107141368Y-64424000D01*
X111814145Y-64424000D01*
X111826473Y-64501835D01*
X111826473Y-64501838D01*
X111894567Y-64711410D01*
X111994613Y-64907760D01*
X112124142Y-65086041D01*
X112279958Y-65241857D01*
X112458239Y-65371386D01*
X112654589Y-65471432D01*
X112864164Y-65539526D01*
X113081819Y-65574000D01*
X113442000Y-65574000D01*
X113442000Y-64674000D01*
X113942000Y-64674000D01*
X113942000Y-65574000D01*
X114302181Y-65574000D01*
X114519835Y-65539526D01*
X114729410Y-65471432D01*
X114925760Y-65371386D01*
X115104041Y-65241857D01*
X115259857Y-65086041D01*
X115389386Y-64907760D01*
X115489432Y-64711410D01*
X115557526Y-64501838D01*
X115557526Y-64501835D01*
X115569855Y-64424000D01*
X114625012Y-64424000D01*
X114657925Y-64366993D01*
X114692000Y-64239826D01*
X114692000Y-64108174D01*
X114657925Y-63981007D01*
X114625012Y-63924000D01*
X115569855Y-63924000D01*
X115557526Y-63846164D01*
X115557526Y-63846161D01*
X115489432Y-63636589D01*
X115389386Y-63440239D01*
X115259857Y-63261958D01*
X115104041Y-63106142D01*
X114925760Y-62976613D01*
X114729410Y-62876567D01*
X114519835Y-62808473D01*
X114302181Y-62774000D01*
X113942000Y-62774000D01*
X113942000Y-63674000D01*
X113442000Y-63674000D01*
X113442000Y-62774000D01*
X113081819Y-62774000D01*
X112864164Y-62808473D01*
X112654589Y-62876567D01*
X112458239Y-62976613D01*
X112279958Y-63106142D01*
X112124142Y-63261958D01*
X111994613Y-63440239D01*
X111894567Y-63636589D01*
X111826473Y-63846161D01*
X111826473Y-63846164D01*
X111814145Y-63924000D01*
X112758988Y-63924000D01*
X112726075Y-63981007D01*
X112692000Y-64108174D01*
X112692000Y-64239826D01*
X112726075Y-64366993D01*
X112758988Y-64424000D01*
X111814145Y-64424000D01*
X107141368Y-64424000D01*
X106731319Y-64013951D01*
X106697834Y-63952628D01*
X106695000Y-63926270D01*
X106695000Y-63059052D01*
X106714685Y-62992013D01*
X106731319Y-62971371D01*
X106738340Y-62964350D01*
X106828908Y-62817516D01*
X106883174Y-62653753D01*
X106893500Y-62552677D01*
X106893499Y-61854324D01*
X106893467Y-61854015D01*
X106883174Y-61753247D01*
X106871056Y-61716677D01*
X106828908Y-61589484D01*
X106738340Y-61442650D01*
X106724371Y-61428681D01*
X106690886Y-61367358D01*
X106695870Y-61297666D01*
X106724371Y-61253319D01*
X106738871Y-61238819D01*
X106800194Y-61205334D01*
X106826552Y-61202500D01*
X113926991Y-61202500D01*
X113994030Y-61222185D01*
X114027309Y-61253615D01*
X114123752Y-61386358D01*
X114123756Y-61386363D01*
X114279636Y-61542243D01*
X114279641Y-61542247D01*
X114344654Y-61589481D01*
X114457978Y-61671815D01*
X114586375Y-61737237D01*
X114654393Y-61771895D01*
X114654396Y-61771896D01*
X114697482Y-61785895D01*
X114864049Y-61840015D01*
X115081778Y-61874500D01*
X115081779Y-61874500D01*
X116302221Y-61874500D01*
X116302222Y-61874500D01*
X116519951Y-61840015D01*
X116729606Y-61771895D01*
X116926022Y-61671815D01*
X117104365Y-61542242D01*
X117260242Y-61386365D01*
X117389815Y-61208022D01*
X117489895Y-61011606D01*
X117558015Y-60801951D01*
X117592500Y-60584222D01*
X117592500Y-60363778D01*
X117558015Y-60146049D01*
X117505828Y-59985432D01*
X117489896Y-59936396D01*
X117489895Y-59936393D01*
X117453253Y-59864481D01*
X117389815Y-59739978D01*
X117351448Y-59687170D01*
X117260247Y-59561641D01*
X117260243Y-59561636D01*
X117104363Y-59405756D01*
X117104358Y-59405752D01*
X116926025Y-59276187D01*
X116926024Y-59276186D01*
X116926022Y-59276185D01*
X116863096Y-59244122D01*
X116729606Y-59176104D01*
X116729603Y-59176103D01*
X116519952Y-59107985D01*
X116390614Y-59087500D01*
X116302222Y-59073500D01*
X115691362Y-59073500D01*
X115624323Y-59053815D01*
X115578568Y-59001011D01*
X115568624Y-58931853D01*
X115568889Y-58930102D01*
X115569855Y-58924000D01*
X114625012Y-58924000D01*
X114657925Y-58866993D01*
X114692000Y-58739826D01*
X114692000Y-58608174D01*
X114657925Y-58481007D01*
X114625012Y-58424000D01*
X115569855Y-58424000D01*
X115557526Y-58346164D01*
X115557526Y-58346161D01*
X115489432Y-58136589D01*
X115389386Y-57940239D01*
X115259857Y-57761958D01*
X115104041Y-57606142D01*
X114925760Y-57476613D01*
X114729410Y-57376567D01*
X114519835Y-57308473D01*
X114302181Y-57274000D01*
X113942000Y-57274000D01*
X113942000Y-58174000D01*
X113442000Y-58174000D01*
X113442000Y-57274000D01*
X113081819Y-57274000D01*
X112864164Y-57308473D01*
X112654589Y-57376567D01*
X112458239Y-57476613D01*
X112279958Y-57606142D01*
X112124142Y-57761958D01*
X111994613Y-57940239D01*
X111894567Y-58136589D01*
X111826473Y-58346161D01*
X111826473Y-58346164D01*
X111814145Y-58424000D01*
X112758988Y-58424000D01*
X112726075Y-58481007D01*
X112692000Y-58608174D01*
X112692000Y-58739826D01*
X112726075Y-58866993D01*
X112758988Y-58924000D01*
X111814145Y-58924000D01*
X111826473Y-59001835D01*
X111826473Y-59001838D01*
X111894567Y-59211410D01*
X111994613Y-59407760D01*
X112064982Y-59504614D01*
X112088462Y-59570421D01*
X112072637Y-59638475D01*
X112022531Y-59687170D01*
X111964664Y-59701500D01*
X106773552Y-59701500D01*
X106706513Y-59681815D01*
X106685871Y-59665181D01*
X106616351Y-59595661D01*
X106616350Y-59595660D01*
X106469516Y-59505092D01*
X106305753Y-59450826D01*
X106305751Y-59450825D01*
X106204678Y-59440500D01*
X105631330Y-59440500D01*
X105631312Y-59440501D01*
X105530247Y-59450825D01*
X105366484Y-59505092D01*
X105366481Y-59505093D01*
X105219648Y-59595661D01*
X105097661Y-59717648D01*
X105007093Y-59864481D01*
X105007091Y-59864486D01*
X104983590Y-59935407D01*
X104952826Y-60028247D01*
X104952826Y-60028248D01*
X104952825Y-60028248D01*
X104942500Y-60129315D01*
X104942500Y-60827669D01*
X104942501Y-60827687D01*
X104952825Y-60928752D01*
X104980280Y-61011603D01*
X105007092Y-61092516D01*
X105097332Y-61238819D01*
X105097661Y-61239351D01*
X105111629Y-61253319D01*
X105145114Y-61314642D01*
X105140130Y-61384334D01*
X105111629Y-61428681D01*
X105097661Y-61442648D01*
X105007093Y-61589481D01*
X105007092Y-61589484D01*
X104952826Y-61753247D01*
X104952826Y-61753248D01*
X104952825Y-61753248D01*
X104942500Y-61854315D01*
X104942500Y-62552669D01*
X103886000Y-62552669D01*
X103886000Y-50797000D01*
X103905685Y-50729961D01*
X103958489Y-50684206D01*
X104010000Y-50673000D01*
X202822000Y-50673000D01*
X202889039Y-50692685D01*
G37*
%TD.AperFunction*%
%TD*%
M02*
