%TF.GenerationSoftware,KiCad,Pcbnew,8.0.1*%
%TF.CreationDate,2024-04-01T22:35:21+01:00*%
%TF.ProjectId,Tiny4xPoweredStereoMixer,54696e79-3478-4506-9f77-657265645374,B*%
%TF.SameCoordinates,Original*%
%TF.FileFunction,Soldermask,Bot*%
%TF.FilePolarity,Negative*%
%FSLAX46Y46*%
G04 Gerber Fmt 4.6, Leading zero omitted, Abs format (unit mm)*
G04 Created by KiCad (PCBNEW 8.0.1) date 2024-04-01 22:35:21*
%MOMM*%
%LPD*%
G01*
G04 APERTURE LIST*
G04 Aperture macros list*
%AMRoundRect*
0 Rectangle with rounded corners*
0 $1 Rounding radius*
0 $2 $3 $4 $5 $6 $7 $8 $9 X,Y pos of 4 corners*
0 Add a 4 corners polygon primitive as box body*
4,1,4,$2,$3,$4,$5,$6,$7,$8,$9,$2,$3,0*
0 Add four circle primitives for the rounded corners*
1,1,$1+$1,$2,$3*
1,1,$1+$1,$4,$5*
1,1,$1+$1,$6,$7*
1,1,$1+$1,$8,$9*
0 Add four rect primitives between the rounded corners*
20,1,$1+$1,$2,$3,$4,$5,0*
20,1,$1+$1,$4,$5,$6,$7,0*
20,1,$1+$1,$6,$7,$8,$9,0*
20,1,$1+$1,$8,$9,$2,$3,0*%
G04 Aperture macros list end*
%ADD10C,2.800000*%
%ADD11O,2.800000X1.800000*%
%ADD12O,2.000000X2.100000*%
%ADD13C,1.524000*%
%ADD14R,1.700000X1.700000*%
%ADD15O,1.700000X1.700000*%
%ADD16C,3.000000*%
%ADD17RoundRect,0.250000X-0.620000X-0.845000X0.620000X-0.845000X0.620000X0.845000X-0.620000X0.845000X0*%
%ADD18O,1.740000X2.190000*%
%ADD19RoundRect,0.237500X-0.237500X0.300000X-0.237500X-0.300000X0.237500X-0.300000X0.237500X0.300000X0*%
G04 APERTURE END LIST*
D10*
%TO.C,TP1*%
X148590000Y-82804000D03*
%TD*%
D11*
%TO.C,J2*%
X135604000Y-60488000D03*
X133604000Y-58688000D03*
X133604000Y-52588000D03*
X135604000Y-54988000D03*
X133604000Y-64188000D03*
%TD*%
D12*
%TO.C,RV2*%
X126492000Y-100459000D03*
X140692000Y-100459000D03*
D13*
X132592000Y-103759000D03*
X134592000Y-103759000D03*
X136592000Y-103759000D03*
X130592000Y-103759000D03*
X128592000Y-103759000D03*
X138592000Y-103759000D03*
%TD*%
D14*
%TO.C,J8*%
X181610000Y-86990000D03*
D15*
X181610000Y-89530000D03*
%TD*%
D11*
%TO.C,J1*%
X115692000Y-60474000D03*
X113692000Y-58674000D03*
X113692000Y-52574000D03*
X115692000Y-54974000D03*
X113692000Y-64174000D03*
%TD*%
D16*
%TO.C,H1*%
X124460000Y-81280000D03*
%TD*%
%TO.C,H2*%
X167640000Y-81280000D03*
%TD*%
D14*
%TO.C,J7*%
X199263000Y-86741000D03*
D15*
X196723000Y-86741000D03*
%TD*%
D11*
%TO.C,J9*%
X194940000Y-60488000D03*
X192940000Y-58688000D03*
X192940000Y-52588000D03*
X194940000Y-54988000D03*
X192940000Y-64188000D03*
%TD*%
D12*
%TO.C,RV3*%
X146236000Y-100459000D03*
X160436000Y-100459000D03*
D13*
X152336000Y-103759000D03*
X154336000Y-103759000D03*
X156336000Y-103759000D03*
X150336000Y-103759000D03*
X148336000Y-103759000D03*
X158336000Y-103759000D03*
%TD*%
D17*
%TO.C,J6*%
X189357000Y-103652000D03*
D18*
X191897000Y-103652000D03*
%TD*%
D12*
%TO.C,RV4*%
X166001000Y-100459000D03*
X180201000Y-100459000D03*
D13*
X172101000Y-103759000D03*
X174101000Y-103759000D03*
X176101000Y-103759000D03*
X170101000Y-103759000D03*
X168101000Y-103759000D03*
X178101000Y-103759000D03*
%TD*%
D12*
%TO.C,RV1*%
X106692000Y-100459000D03*
X120892000Y-100459000D03*
D13*
X112792000Y-103759000D03*
X114792000Y-103759000D03*
X116792000Y-103759000D03*
X110792000Y-103759000D03*
X108792000Y-103759000D03*
X118792000Y-103759000D03*
%TD*%
D11*
%TO.C,J3*%
X155316000Y-60488000D03*
X153316000Y-58688000D03*
X153316000Y-52588000D03*
X155316000Y-54988000D03*
X153316000Y-64188000D03*
%TD*%
%TO.C,J4*%
X175101000Y-60488000D03*
X173101000Y-58688000D03*
X173101000Y-52588000D03*
X175101000Y-54988000D03*
X173101000Y-64188000D03*
%TD*%
D19*
%TO.C,C5*%
X123444000Y-54890500D03*
X123444000Y-56615500D03*
%TD*%
%TO.C,C14*%
X143891000Y-61367500D03*
X143891000Y-63092500D03*
%TD*%
%TO.C,C10*%
X143764000Y-54890500D03*
X143764000Y-56615500D03*
%TD*%
%TO.C,C11*%
X123825000Y-61494500D03*
X123825000Y-63219500D03*
%TD*%
%TO.C,C12*%
X163449000Y-54890500D03*
X163449000Y-56615500D03*
%TD*%
%TO.C,C7*%
X105918000Y-60478500D03*
X105918000Y-62203500D03*
%TD*%
%TO.C,C17*%
X183488500Y-54890500D03*
X183488500Y-56615500D03*
%TD*%
%TO.C,C18*%
X163576000Y-62129500D03*
X163576000Y-63854500D03*
%TD*%
M02*
