%TF.GenerationSoftware,KiCad,Pcbnew,8.0.1*%
%TF.CreationDate,2024-04-01T22:35:21+01:00*%
%TF.ProjectId,Tiny4xPoweredStereoMixer,54696e79-3478-4506-9f77-657265645374,B*%
%TF.SameCoordinates,Original*%
%TF.FileFunction,Copper,L3,Inr*%
%TF.FilePolarity,Positive*%
%FSLAX46Y46*%
G04 Gerber Fmt 4.6, Leading zero omitted, Abs format (unit mm)*
G04 Created by KiCad (PCBNEW 8.0.1) date 2024-04-01 22:35:21*
%MOMM*%
%LPD*%
G01*
G04 APERTURE LIST*
G04 Aperture macros list*
%AMRoundRect*
0 Rectangle with rounded corners*
0 $1 Rounding radius*
0 $2 $3 $4 $5 $6 $7 $8 $9 X,Y pos of 4 corners*
0 Add a 4 corners polygon primitive as box body*
4,1,4,$2,$3,$4,$5,$6,$7,$8,$9,$2,$3,0*
0 Add four circle primitives for the rounded corners*
1,1,$1+$1,$2,$3*
1,1,$1+$1,$4,$5*
1,1,$1+$1,$6,$7*
1,1,$1+$1,$8,$9*
0 Add four rect primitives between the rounded corners*
20,1,$1+$1,$2,$3,$4,$5,0*
20,1,$1+$1,$4,$5,$6,$7,0*
20,1,$1+$1,$6,$7,$8,$9,0*
20,1,$1+$1,$8,$9,$2,$3,0*%
G04 Aperture macros list end*
%TA.AperFunction,ComponentPad*%
%ADD10C,2.800000*%
%TD*%
%TA.AperFunction,ComponentPad*%
%ADD11O,2.800000X1.800000*%
%TD*%
%TA.AperFunction,ComponentPad*%
%ADD12C,1.524000*%
%TD*%
%TA.AperFunction,ComponentPad*%
%ADD13R,1.700000X1.700000*%
%TD*%
%TA.AperFunction,ComponentPad*%
%ADD14O,1.700000X1.700000*%
%TD*%
%TA.AperFunction,ComponentPad*%
%ADD15RoundRect,0.250000X-0.620000X-0.845000X0.620000X-0.845000X0.620000X0.845000X-0.620000X0.845000X0*%
%TD*%
%TA.AperFunction,ComponentPad*%
%ADD16O,1.740000X2.190000*%
%TD*%
%TA.AperFunction,ViaPad*%
%ADD17C,0.800000*%
%TD*%
G04 APERTURE END LIST*
D10*
%TO.N,GND*%
%TO.C,TP1*%
X148590000Y-82804000D03*
%TD*%
D11*
%TO.N,Net-(C11-Pad1)*%
%TO.C,J2*%
X135604000Y-60488000D03*
%TO.N,GND*%
X133604000Y-58688000D03*
X133604000Y-52588000D03*
%TO.N,Net-(C10-Pad1)*%
X135604000Y-54988000D03*
%TO.N,GND*%
X133604000Y-64188000D03*
%TD*%
D12*
%TO.N,GND*%
%TO.C,RV2*%
X132592000Y-103759000D03*
%TO.N,/ch2_right_mix_in*%
X134592000Y-103759000D03*
%TO.N,Net-(C11-Pad2)*%
X136592000Y-103759000D03*
%TO.N,GND*%
X130592000Y-103759000D03*
%TO.N,/ch2_left_mix_in*%
X128592000Y-103759000D03*
%TO.N,Net-(C10-Pad2)*%
X138592000Y-103759000D03*
%TD*%
D13*
%TO.N,Net-(J8-Pin_1)*%
%TO.C,J8*%
X181610000Y-86990000D03*
D14*
%TO.N,-12V*%
X181610000Y-89530000D03*
%TD*%
D11*
%TO.N,Net-(C7-Pad1)*%
%TO.C,J1*%
X115692000Y-60474000D03*
%TO.N,GND*%
X113692000Y-58674000D03*
X113692000Y-52574000D03*
%TO.N,Net-(C5-Pad1)*%
X115692000Y-54974000D03*
%TO.N,GND*%
X113692000Y-64174000D03*
%TD*%
D13*
%TO.N,Net-(J6-Pin_2)*%
%TO.C,J7*%
X199263000Y-86741000D03*
D14*
%TO.N,+12V*%
X196723000Y-86741000D03*
%TD*%
D11*
%TO.N,Net-(C20-Pad2)*%
%TO.C,J9*%
X194940000Y-60488000D03*
%TO.N,GND*%
X192940000Y-58688000D03*
X192940000Y-52588000D03*
%TO.N,Net-(C19-Pad2)*%
X194940000Y-54988000D03*
%TO.N,GND*%
X192940000Y-64188000D03*
%TD*%
D12*
%TO.N,GND*%
%TO.C,RV3*%
X152336000Y-103759000D03*
%TO.N,/ch3_right_mix_in*%
X154336000Y-103759000D03*
%TO.N,Net-(C14-Pad2)*%
X156336000Y-103759000D03*
%TO.N,GND*%
X150336000Y-103759000D03*
%TO.N,/ch3_left_mix_in*%
X148336000Y-103759000D03*
%TO.N,Net-(C12-Pad2)*%
X158336000Y-103759000D03*
%TD*%
D15*
%TO.N,GND*%
%TO.C,J6*%
X189357000Y-103652000D03*
D16*
%TO.N,Net-(J6-Pin_2)*%
X191897000Y-103652000D03*
%TD*%
D12*
%TO.N,GND*%
%TO.C,RV4*%
X172101000Y-103759000D03*
%TO.N,/ch4_right_mix_in*%
X174101000Y-103759000D03*
%TO.N,Net-(C18-Pad2)*%
X176101000Y-103759000D03*
%TO.N,GND*%
X170101000Y-103759000D03*
%TO.N,/ch4_left_mix_in*%
X168101000Y-103759000D03*
%TO.N,Net-(C17-Pad2)*%
X178101000Y-103759000D03*
%TD*%
%TO.N,GND*%
%TO.C,RV1*%
X112792000Y-103759000D03*
%TO.N,/ch1_right_mix_in*%
X114792000Y-103759000D03*
%TO.N,Net-(C7-Pad2)*%
X116792000Y-103759000D03*
%TO.N,GND*%
X110792000Y-103759000D03*
%TO.N,/ch1_left_mix_in*%
X108792000Y-103759000D03*
%TO.N,Net-(C5-Pad2)*%
X118792000Y-103759000D03*
%TD*%
D11*
%TO.N,Net-(C14-Pad1)*%
%TO.C,J3*%
X155316000Y-60488000D03*
%TO.N,GND*%
X153316000Y-58688000D03*
X153316000Y-52588000D03*
%TO.N,Net-(C12-Pad1)*%
X155316000Y-54988000D03*
%TO.N,GND*%
X153316000Y-64188000D03*
%TD*%
%TO.N,Net-(C18-Pad1)*%
%TO.C,J4*%
X175101000Y-60488000D03*
%TO.N,GND*%
X173101000Y-58688000D03*
X173101000Y-52588000D03*
%TO.N,Net-(C17-Pad1)*%
X175101000Y-54988000D03*
%TO.N,GND*%
X173101000Y-64188000D03*
%TD*%
D17*
%TO.N,GND*%
X106426000Y-52324000D03*
X123444000Y-52324000D03*
X144018000Y-52324000D03*
X183388000Y-52324000D03*
X163576000Y-52324000D03*
X126746000Y-75946000D03*
X162306000Y-77724000D03*
X197104000Y-81280000D03*
X188722000Y-68834000D03*
X198120000Y-72859500D03*
X183388000Y-72898000D03*
X192116000Y-97363000D03*
X126238000Y-87884000D03*
X146304000Y-77978000D03*
X143002000Y-95504000D03*
X187706000Y-98806000D03*
X123444000Y-95250000D03*
X108204000Y-81788000D03*
X146304000Y-87376000D03*
X161036000Y-87630000D03*
X201295000Y-106045000D03*
X108204000Y-71120000D03*
X180340000Y-93980000D03*
X163068000Y-95758000D03*
%TO.N,+12V*%
X191008000Y-70765500D03*
X177392500Y-69188500D03*
%TO.N,Net-(U6-NFB)*%
X189483400Y-84836000D03*
X193801400Y-98958400D03*
%TO.N,-12V*%
X185139500Y-75249000D03*
X200279000Y-78613000D03*
%TO.N,/ch4_right_mix_in*%
X175006000Y-84328000D03*
%TO.N,/ch3_right_mix_in*%
X154178000Y-85598000D03*
%TO.N,/ch2_right_mix_in*%
X134620000Y-85852000D03*
%TO.N,/ch1_right_mix_in*%
X114808000Y-85852000D03*
%TD*%
%TA.AperFunction,Conductor*%
%TO.N,-12V*%
G36*
X202889039Y-50692685D02*
G01*
X202934794Y-50745489D01*
X202946000Y-50797000D01*
X202946000Y-107064000D01*
X202926315Y-107131039D01*
X202873511Y-107176794D01*
X202822000Y-107188000D01*
X201428552Y-107188000D01*
X201361513Y-107168315D01*
X201315758Y-107115511D01*
X201305814Y-107046353D01*
X201334839Y-106982797D01*
X201393617Y-106945023D01*
X201402765Y-106942711D01*
X201574803Y-106906144D01*
X201747730Y-106829151D01*
X201900871Y-106717888D01*
X202027533Y-106577216D01*
X202122179Y-106413284D01*
X202180674Y-106233256D01*
X202200460Y-106045000D01*
X202180674Y-105856744D01*
X202122179Y-105676716D01*
X202027533Y-105512784D01*
X201900871Y-105372112D01*
X201900870Y-105372111D01*
X201747734Y-105260851D01*
X201747729Y-105260848D01*
X201574807Y-105183857D01*
X201574802Y-105183855D01*
X201429001Y-105152865D01*
X201389646Y-105144500D01*
X201200354Y-105144500D01*
X201167897Y-105151398D01*
X201015197Y-105183855D01*
X201015192Y-105183857D01*
X200842270Y-105260848D01*
X200842265Y-105260851D01*
X200689129Y-105372111D01*
X200562466Y-105512785D01*
X200467821Y-105676715D01*
X200467818Y-105676722D01*
X200409327Y-105856740D01*
X200409326Y-105856744D01*
X200389540Y-106045000D01*
X200409326Y-106233256D01*
X200409327Y-106233259D01*
X200467818Y-106413277D01*
X200467821Y-106413284D01*
X200562467Y-106577216D01*
X200689129Y-106717888D01*
X200842265Y-106829148D01*
X200842270Y-106829151D01*
X201015192Y-106906142D01*
X201015197Y-106906144D01*
X201187229Y-106942710D01*
X201248711Y-106975902D01*
X201282487Y-107037065D01*
X201277835Y-107106780D01*
X201236230Y-107162912D01*
X201170883Y-107187641D01*
X201161448Y-107188000D01*
X104010000Y-107188000D01*
X103942961Y-107168315D01*
X103897206Y-107115511D01*
X103886000Y-107064000D01*
X103886000Y-103759002D01*
X107524677Y-103759002D01*
X107543929Y-103979062D01*
X107543930Y-103979070D01*
X107601104Y-104192445D01*
X107601105Y-104192447D01*
X107601106Y-104192450D01*
X107694466Y-104392662D01*
X107694468Y-104392666D01*
X107821170Y-104573615D01*
X107821175Y-104573621D01*
X107977378Y-104729824D01*
X107977384Y-104729829D01*
X108158333Y-104856531D01*
X108158335Y-104856532D01*
X108158338Y-104856534D01*
X108358550Y-104949894D01*
X108571932Y-105007070D01*
X108729123Y-105020822D01*
X108791998Y-105026323D01*
X108792000Y-105026323D01*
X108792002Y-105026323D01*
X108847017Y-105021509D01*
X109012068Y-105007070D01*
X109225450Y-104949894D01*
X109425662Y-104856534D01*
X109606620Y-104729826D01*
X109704319Y-104632127D01*
X109765642Y-104598642D01*
X109835334Y-104603626D01*
X109879681Y-104632127D01*
X109977378Y-104729824D01*
X109977384Y-104729829D01*
X110158333Y-104856531D01*
X110158335Y-104856532D01*
X110158338Y-104856534D01*
X110358550Y-104949894D01*
X110571932Y-105007070D01*
X110729123Y-105020822D01*
X110791998Y-105026323D01*
X110792000Y-105026323D01*
X110792002Y-105026323D01*
X110847017Y-105021509D01*
X111012068Y-105007070D01*
X111225450Y-104949894D01*
X111425662Y-104856534D01*
X111606620Y-104729826D01*
X111704319Y-104632127D01*
X111765642Y-104598642D01*
X111835334Y-104603626D01*
X111879681Y-104632127D01*
X111977378Y-104729824D01*
X111977384Y-104729829D01*
X112158333Y-104856531D01*
X112158335Y-104856532D01*
X112158338Y-104856534D01*
X112358550Y-104949894D01*
X112571932Y-105007070D01*
X112729123Y-105020822D01*
X112791998Y-105026323D01*
X112792000Y-105026323D01*
X112792002Y-105026323D01*
X112847017Y-105021509D01*
X113012068Y-105007070D01*
X113225450Y-104949894D01*
X113425662Y-104856534D01*
X113606620Y-104729826D01*
X113704319Y-104632127D01*
X113765642Y-104598642D01*
X113835334Y-104603626D01*
X113879681Y-104632127D01*
X113977378Y-104729824D01*
X113977384Y-104729829D01*
X114158333Y-104856531D01*
X114158335Y-104856532D01*
X114158338Y-104856534D01*
X114358550Y-104949894D01*
X114571932Y-105007070D01*
X114729123Y-105020822D01*
X114791998Y-105026323D01*
X114792000Y-105026323D01*
X114792002Y-105026323D01*
X114847017Y-105021509D01*
X115012068Y-105007070D01*
X115225450Y-104949894D01*
X115425662Y-104856534D01*
X115606620Y-104729826D01*
X115704319Y-104632127D01*
X115765642Y-104598642D01*
X115835334Y-104603626D01*
X115879681Y-104632127D01*
X115977378Y-104729824D01*
X115977384Y-104729829D01*
X116158333Y-104856531D01*
X116158335Y-104856532D01*
X116158338Y-104856534D01*
X116358550Y-104949894D01*
X116571932Y-105007070D01*
X116729123Y-105020822D01*
X116791998Y-105026323D01*
X116792000Y-105026323D01*
X116792002Y-105026323D01*
X116847017Y-105021509D01*
X117012068Y-105007070D01*
X117225450Y-104949894D01*
X117425662Y-104856534D01*
X117606620Y-104729826D01*
X117704319Y-104632127D01*
X117765642Y-104598642D01*
X117835334Y-104603626D01*
X117879681Y-104632127D01*
X117977378Y-104729824D01*
X117977384Y-104729829D01*
X118158333Y-104856531D01*
X118158335Y-104856532D01*
X118158338Y-104856534D01*
X118358550Y-104949894D01*
X118571932Y-105007070D01*
X118729123Y-105020822D01*
X118791998Y-105026323D01*
X118792000Y-105026323D01*
X118792002Y-105026323D01*
X118847017Y-105021509D01*
X119012068Y-105007070D01*
X119225450Y-104949894D01*
X119425662Y-104856534D01*
X119606620Y-104729826D01*
X119762826Y-104573620D01*
X119889534Y-104392662D01*
X119982894Y-104192450D01*
X120040070Y-103979068D01*
X120059323Y-103759002D01*
X127324677Y-103759002D01*
X127343929Y-103979062D01*
X127343930Y-103979070D01*
X127401104Y-104192445D01*
X127401105Y-104192447D01*
X127401106Y-104192450D01*
X127494466Y-104392662D01*
X127494468Y-104392666D01*
X127621170Y-104573615D01*
X127621175Y-104573621D01*
X127777378Y-104729824D01*
X127777384Y-104729829D01*
X127958333Y-104856531D01*
X127958335Y-104856532D01*
X127958338Y-104856534D01*
X128158550Y-104949894D01*
X128371932Y-105007070D01*
X128529123Y-105020822D01*
X128591998Y-105026323D01*
X128592000Y-105026323D01*
X128592002Y-105026323D01*
X128647017Y-105021509D01*
X128812068Y-105007070D01*
X129025450Y-104949894D01*
X129225662Y-104856534D01*
X129406620Y-104729826D01*
X129504319Y-104632127D01*
X129565642Y-104598642D01*
X129635334Y-104603626D01*
X129679681Y-104632127D01*
X129777378Y-104729824D01*
X129777384Y-104729829D01*
X129958333Y-104856531D01*
X129958335Y-104856532D01*
X129958338Y-104856534D01*
X130158550Y-104949894D01*
X130371932Y-105007070D01*
X130529123Y-105020822D01*
X130591998Y-105026323D01*
X130592000Y-105026323D01*
X130592002Y-105026323D01*
X130647017Y-105021509D01*
X130812068Y-105007070D01*
X131025450Y-104949894D01*
X131225662Y-104856534D01*
X131406620Y-104729826D01*
X131504319Y-104632127D01*
X131565642Y-104598642D01*
X131635334Y-104603626D01*
X131679681Y-104632127D01*
X131777378Y-104729824D01*
X131777384Y-104729829D01*
X131958333Y-104856531D01*
X131958335Y-104856532D01*
X131958338Y-104856534D01*
X132158550Y-104949894D01*
X132371932Y-105007070D01*
X132529123Y-105020822D01*
X132591998Y-105026323D01*
X132592000Y-105026323D01*
X132592002Y-105026323D01*
X132647017Y-105021509D01*
X132812068Y-105007070D01*
X133025450Y-104949894D01*
X133225662Y-104856534D01*
X133406620Y-104729826D01*
X133504319Y-104632127D01*
X133565642Y-104598642D01*
X133635334Y-104603626D01*
X133679681Y-104632127D01*
X133777378Y-104729824D01*
X133777384Y-104729829D01*
X133958333Y-104856531D01*
X133958335Y-104856532D01*
X133958338Y-104856534D01*
X134158550Y-104949894D01*
X134371932Y-105007070D01*
X134529123Y-105020822D01*
X134591998Y-105026323D01*
X134592000Y-105026323D01*
X134592002Y-105026323D01*
X134647017Y-105021509D01*
X134812068Y-105007070D01*
X135025450Y-104949894D01*
X135225662Y-104856534D01*
X135406620Y-104729826D01*
X135504319Y-104632127D01*
X135565642Y-104598642D01*
X135635334Y-104603626D01*
X135679681Y-104632127D01*
X135777378Y-104729824D01*
X135777384Y-104729829D01*
X135958333Y-104856531D01*
X135958335Y-104856532D01*
X135958338Y-104856534D01*
X136158550Y-104949894D01*
X136371932Y-105007070D01*
X136529123Y-105020822D01*
X136591998Y-105026323D01*
X136592000Y-105026323D01*
X136592002Y-105026323D01*
X136647017Y-105021509D01*
X136812068Y-105007070D01*
X137025450Y-104949894D01*
X137225662Y-104856534D01*
X137406620Y-104729826D01*
X137504319Y-104632127D01*
X137565642Y-104598642D01*
X137635334Y-104603626D01*
X137679681Y-104632127D01*
X137777378Y-104729824D01*
X137777384Y-104729829D01*
X137958333Y-104856531D01*
X137958335Y-104856532D01*
X137958338Y-104856534D01*
X138158550Y-104949894D01*
X138371932Y-105007070D01*
X138529123Y-105020822D01*
X138591998Y-105026323D01*
X138592000Y-105026323D01*
X138592002Y-105026323D01*
X138647017Y-105021509D01*
X138812068Y-105007070D01*
X139025450Y-104949894D01*
X139225662Y-104856534D01*
X139406620Y-104729826D01*
X139562826Y-104573620D01*
X139689534Y-104392662D01*
X139782894Y-104192450D01*
X139840070Y-103979068D01*
X139859323Y-103759002D01*
X147068677Y-103759002D01*
X147087929Y-103979062D01*
X147087930Y-103979070D01*
X147145104Y-104192445D01*
X147145105Y-104192447D01*
X147145106Y-104192450D01*
X147238466Y-104392662D01*
X147238468Y-104392666D01*
X147365170Y-104573615D01*
X147365175Y-104573621D01*
X147521378Y-104729824D01*
X147521384Y-104729829D01*
X147702333Y-104856531D01*
X147702335Y-104856532D01*
X147702338Y-104856534D01*
X147902550Y-104949894D01*
X148115932Y-105007070D01*
X148273123Y-105020822D01*
X148335998Y-105026323D01*
X148336000Y-105026323D01*
X148336002Y-105026323D01*
X148391017Y-105021509D01*
X148556068Y-105007070D01*
X148769450Y-104949894D01*
X148969662Y-104856534D01*
X149150620Y-104729826D01*
X149248319Y-104632127D01*
X149309642Y-104598642D01*
X149379334Y-104603626D01*
X149423681Y-104632127D01*
X149521378Y-104729824D01*
X149521384Y-104729829D01*
X149702333Y-104856531D01*
X149702335Y-104856532D01*
X149702338Y-104856534D01*
X149902550Y-104949894D01*
X150115932Y-105007070D01*
X150273123Y-105020822D01*
X150335998Y-105026323D01*
X150336000Y-105026323D01*
X150336002Y-105026323D01*
X150391017Y-105021509D01*
X150556068Y-105007070D01*
X150769450Y-104949894D01*
X150969662Y-104856534D01*
X151150620Y-104729826D01*
X151248319Y-104632127D01*
X151309642Y-104598642D01*
X151379334Y-104603626D01*
X151423681Y-104632127D01*
X151521378Y-104729824D01*
X151521384Y-104729829D01*
X151702333Y-104856531D01*
X151702335Y-104856532D01*
X151702338Y-104856534D01*
X151902550Y-104949894D01*
X152115932Y-105007070D01*
X152273123Y-105020822D01*
X152335998Y-105026323D01*
X152336000Y-105026323D01*
X152336002Y-105026323D01*
X152391017Y-105021509D01*
X152556068Y-105007070D01*
X152769450Y-104949894D01*
X152969662Y-104856534D01*
X153150620Y-104729826D01*
X153248319Y-104632127D01*
X153309642Y-104598642D01*
X153379334Y-104603626D01*
X153423681Y-104632127D01*
X153521378Y-104729824D01*
X153521384Y-104729829D01*
X153702333Y-104856531D01*
X153702335Y-104856532D01*
X153702338Y-104856534D01*
X153902550Y-104949894D01*
X154115932Y-105007070D01*
X154273123Y-105020822D01*
X154335998Y-105026323D01*
X154336000Y-105026323D01*
X154336002Y-105026323D01*
X154391017Y-105021509D01*
X154556068Y-105007070D01*
X154769450Y-104949894D01*
X154969662Y-104856534D01*
X155150620Y-104729826D01*
X155248319Y-104632127D01*
X155309642Y-104598642D01*
X155379334Y-104603626D01*
X155423681Y-104632127D01*
X155521378Y-104729824D01*
X155521384Y-104729829D01*
X155702333Y-104856531D01*
X155702335Y-104856532D01*
X155702338Y-104856534D01*
X155902550Y-104949894D01*
X156115932Y-105007070D01*
X156273123Y-105020822D01*
X156335998Y-105026323D01*
X156336000Y-105026323D01*
X156336002Y-105026323D01*
X156391017Y-105021509D01*
X156556068Y-105007070D01*
X156769450Y-104949894D01*
X156969662Y-104856534D01*
X157150620Y-104729826D01*
X157248319Y-104632127D01*
X157309642Y-104598642D01*
X157379334Y-104603626D01*
X157423681Y-104632127D01*
X157521378Y-104729824D01*
X157521384Y-104729829D01*
X157702333Y-104856531D01*
X157702335Y-104856532D01*
X157702338Y-104856534D01*
X157902550Y-104949894D01*
X158115932Y-105007070D01*
X158273123Y-105020822D01*
X158335998Y-105026323D01*
X158336000Y-105026323D01*
X158336002Y-105026323D01*
X158391017Y-105021509D01*
X158556068Y-105007070D01*
X158769450Y-104949894D01*
X158969662Y-104856534D01*
X159150620Y-104729826D01*
X159306826Y-104573620D01*
X159433534Y-104392662D01*
X159526894Y-104192450D01*
X159584070Y-103979068D01*
X159603323Y-103759002D01*
X166833677Y-103759002D01*
X166852929Y-103979062D01*
X166852930Y-103979070D01*
X166910104Y-104192445D01*
X166910105Y-104192447D01*
X166910106Y-104192450D01*
X167003466Y-104392662D01*
X167003468Y-104392666D01*
X167130170Y-104573615D01*
X167130175Y-104573621D01*
X167286378Y-104729824D01*
X167286384Y-104729829D01*
X167467333Y-104856531D01*
X167467335Y-104856532D01*
X167467338Y-104856534D01*
X167667550Y-104949894D01*
X167880932Y-105007070D01*
X168038123Y-105020822D01*
X168100998Y-105026323D01*
X168101000Y-105026323D01*
X168101002Y-105026323D01*
X168156017Y-105021509D01*
X168321068Y-105007070D01*
X168534450Y-104949894D01*
X168734662Y-104856534D01*
X168915620Y-104729826D01*
X169013319Y-104632127D01*
X169074642Y-104598642D01*
X169144334Y-104603626D01*
X169188681Y-104632127D01*
X169286378Y-104729824D01*
X169286384Y-104729829D01*
X169467333Y-104856531D01*
X169467335Y-104856532D01*
X169467338Y-104856534D01*
X169667550Y-104949894D01*
X169880932Y-105007070D01*
X170038123Y-105020822D01*
X170100998Y-105026323D01*
X170101000Y-105026323D01*
X170101002Y-105026323D01*
X170156017Y-105021509D01*
X170321068Y-105007070D01*
X170534450Y-104949894D01*
X170734662Y-104856534D01*
X170915620Y-104729826D01*
X171013319Y-104632127D01*
X171074642Y-104598642D01*
X171144334Y-104603626D01*
X171188681Y-104632127D01*
X171286378Y-104729824D01*
X171286384Y-104729829D01*
X171467333Y-104856531D01*
X171467335Y-104856532D01*
X171467338Y-104856534D01*
X171667550Y-104949894D01*
X171880932Y-105007070D01*
X172038123Y-105020822D01*
X172100998Y-105026323D01*
X172101000Y-105026323D01*
X172101002Y-105026323D01*
X172156017Y-105021509D01*
X172321068Y-105007070D01*
X172534450Y-104949894D01*
X172734662Y-104856534D01*
X172915620Y-104729826D01*
X173013319Y-104632127D01*
X173074642Y-104598642D01*
X173144334Y-104603626D01*
X173188681Y-104632127D01*
X173286378Y-104729824D01*
X173286384Y-104729829D01*
X173467333Y-104856531D01*
X173467335Y-104856532D01*
X173467338Y-104856534D01*
X173667550Y-104949894D01*
X173880932Y-105007070D01*
X174038123Y-105020822D01*
X174100998Y-105026323D01*
X174101000Y-105026323D01*
X174101002Y-105026323D01*
X174156017Y-105021509D01*
X174321068Y-105007070D01*
X174534450Y-104949894D01*
X174734662Y-104856534D01*
X174915620Y-104729826D01*
X175013319Y-104632127D01*
X175074642Y-104598642D01*
X175144334Y-104603626D01*
X175188681Y-104632127D01*
X175286378Y-104729824D01*
X175286384Y-104729829D01*
X175467333Y-104856531D01*
X175467335Y-104856532D01*
X175467338Y-104856534D01*
X175667550Y-104949894D01*
X175880932Y-105007070D01*
X176038123Y-105020822D01*
X176100998Y-105026323D01*
X176101000Y-105026323D01*
X176101002Y-105026323D01*
X176156017Y-105021509D01*
X176321068Y-105007070D01*
X176534450Y-104949894D01*
X176734662Y-104856534D01*
X176915620Y-104729826D01*
X177013319Y-104632127D01*
X177074642Y-104598642D01*
X177144334Y-104603626D01*
X177188681Y-104632127D01*
X177286378Y-104729824D01*
X177286384Y-104729829D01*
X177467333Y-104856531D01*
X177467335Y-104856532D01*
X177467338Y-104856534D01*
X177667550Y-104949894D01*
X177880932Y-105007070D01*
X178038123Y-105020822D01*
X178100998Y-105026323D01*
X178101000Y-105026323D01*
X178101002Y-105026323D01*
X178156017Y-105021509D01*
X178321068Y-105007070D01*
X178534450Y-104949894D01*
X178734662Y-104856534D01*
X178915620Y-104729826D01*
X179071826Y-104573620D01*
X179090465Y-104547001D01*
X187986500Y-104547001D01*
X187986501Y-104547018D01*
X187997000Y-104649796D01*
X187997001Y-104649799D01*
X188052185Y-104816331D01*
X188052187Y-104816336D01*
X188076981Y-104856533D01*
X188144288Y-104965656D01*
X188268344Y-105089712D01*
X188417666Y-105181814D01*
X188584203Y-105236999D01*
X188686991Y-105247500D01*
X190027008Y-105247499D01*
X190129797Y-105236999D01*
X190296334Y-105181814D01*
X190445656Y-105089712D01*
X190569712Y-104965656D01*
X190661814Y-104816334D01*
X190661817Y-104816322D01*
X190662129Y-104815657D01*
X190662469Y-104815269D01*
X190665605Y-104810187D01*
X190666473Y-104810722D01*
X190708299Y-104763216D01*
X190775491Y-104744060D01*
X190842373Y-104764272D01*
X190862195Y-104780375D01*
X191004179Y-104922359D01*
X191178701Y-105049157D01*
X191370911Y-105147092D01*
X191576074Y-105213754D01*
X191655973Y-105226408D01*
X191789134Y-105247500D01*
X191789139Y-105247500D01*
X192004866Y-105247500D01*
X192123230Y-105228752D01*
X192217926Y-105213754D01*
X192423089Y-105147092D01*
X192615299Y-105049157D01*
X192789821Y-104922359D01*
X192942359Y-104769821D01*
X193069157Y-104595299D01*
X193167092Y-104403089D01*
X193233754Y-104197926D01*
X193248752Y-104103230D01*
X193267500Y-103984866D01*
X193267500Y-103319133D01*
X193233754Y-103106077D01*
X193233754Y-103106074D01*
X193167092Y-102900911D01*
X193069157Y-102708701D01*
X192942359Y-102534179D01*
X192789821Y-102381641D01*
X192615299Y-102254843D01*
X192423089Y-102156908D01*
X192217926Y-102090246D01*
X192217924Y-102090245D01*
X192217922Y-102090245D01*
X192004866Y-102056500D01*
X192004861Y-102056500D01*
X191789139Y-102056500D01*
X191789134Y-102056500D01*
X191576077Y-102090245D01*
X191370908Y-102156909D01*
X191178700Y-102254843D01*
X191004180Y-102381640D01*
X190862195Y-102523625D01*
X190800872Y-102557109D01*
X190731180Y-102552125D01*
X190675247Y-102510253D01*
X190662132Y-102488348D01*
X190661815Y-102487669D01*
X190661814Y-102487668D01*
X190661814Y-102487666D01*
X190569712Y-102338344D01*
X190445656Y-102214288D01*
X190296334Y-102122186D01*
X190129797Y-102067001D01*
X190129795Y-102067000D01*
X190027010Y-102056500D01*
X188686998Y-102056500D01*
X188686981Y-102056501D01*
X188584203Y-102067000D01*
X188584200Y-102067001D01*
X188417668Y-102122185D01*
X188417663Y-102122187D01*
X188268342Y-102214289D01*
X188144289Y-102338342D01*
X188052187Y-102487663D01*
X188052186Y-102487666D01*
X187997001Y-102654203D01*
X187997001Y-102654204D01*
X187997000Y-102654204D01*
X187986500Y-102756983D01*
X187986500Y-104547001D01*
X179090465Y-104547001D01*
X179198534Y-104392662D01*
X179291894Y-104192450D01*
X179349070Y-103979068D01*
X179368323Y-103759000D01*
X179349070Y-103538932D01*
X179291894Y-103325550D01*
X179198534Y-103125339D01*
X179071826Y-102944380D01*
X178915620Y-102788174D01*
X178915616Y-102788171D01*
X178915615Y-102788170D01*
X178734666Y-102661468D01*
X178734662Y-102661466D01*
X178734660Y-102661465D01*
X178534450Y-102568106D01*
X178534447Y-102568105D01*
X178534445Y-102568104D01*
X178321070Y-102510930D01*
X178321062Y-102510929D01*
X178101002Y-102491677D01*
X178100998Y-102491677D01*
X177880937Y-102510929D01*
X177880929Y-102510930D01*
X177667554Y-102568104D01*
X177667548Y-102568107D01*
X177467340Y-102661465D01*
X177467338Y-102661466D01*
X177286381Y-102788172D01*
X177188680Y-102885873D01*
X177127356Y-102919357D01*
X177057665Y-102914373D01*
X177013318Y-102885872D01*
X176915621Y-102788175D01*
X176915615Y-102788170D01*
X176734666Y-102661468D01*
X176734662Y-102661466D01*
X176734660Y-102661465D01*
X176534450Y-102568106D01*
X176534447Y-102568105D01*
X176534445Y-102568104D01*
X176321070Y-102510930D01*
X176321062Y-102510929D01*
X176101002Y-102491677D01*
X176100998Y-102491677D01*
X175880937Y-102510929D01*
X175880929Y-102510930D01*
X175667554Y-102568104D01*
X175667548Y-102568107D01*
X175467340Y-102661465D01*
X175467338Y-102661466D01*
X175286381Y-102788172D01*
X175188680Y-102885873D01*
X175127356Y-102919357D01*
X175057665Y-102914373D01*
X175013318Y-102885872D01*
X174915621Y-102788175D01*
X174915615Y-102788170D01*
X174734666Y-102661468D01*
X174734662Y-102661466D01*
X174734660Y-102661465D01*
X174534450Y-102568106D01*
X174534447Y-102568105D01*
X174534445Y-102568104D01*
X174321070Y-102510930D01*
X174321062Y-102510929D01*
X174101002Y-102491677D01*
X174100998Y-102491677D01*
X173880937Y-102510929D01*
X173880929Y-102510930D01*
X173667554Y-102568104D01*
X173667548Y-102568107D01*
X173467340Y-102661465D01*
X173467338Y-102661466D01*
X173286381Y-102788172D01*
X173188680Y-102885873D01*
X173127356Y-102919357D01*
X173057665Y-102914373D01*
X173013318Y-102885872D01*
X172915621Y-102788175D01*
X172915615Y-102788170D01*
X172734666Y-102661468D01*
X172734662Y-102661466D01*
X172734660Y-102661465D01*
X172534450Y-102568106D01*
X172534447Y-102568105D01*
X172534445Y-102568104D01*
X172321070Y-102510930D01*
X172321062Y-102510929D01*
X172101002Y-102491677D01*
X172100998Y-102491677D01*
X171880937Y-102510929D01*
X171880929Y-102510930D01*
X171667554Y-102568104D01*
X171667548Y-102568107D01*
X171467340Y-102661465D01*
X171467338Y-102661466D01*
X171286381Y-102788172D01*
X171188680Y-102885873D01*
X171127356Y-102919357D01*
X171057665Y-102914373D01*
X171013318Y-102885872D01*
X170915621Y-102788175D01*
X170915615Y-102788170D01*
X170734666Y-102661468D01*
X170734662Y-102661466D01*
X170734660Y-102661465D01*
X170534450Y-102568106D01*
X170534447Y-102568105D01*
X170534445Y-102568104D01*
X170321070Y-102510930D01*
X170321062Y-102510929D01*
X170101002Y-102491677D01*
X170100998Y-102491677D01*
X169880937Y-102510929D01*
X169880929Y-102510930D01*
X169667554Y-102568104D01*
X169667548Y-102568107D01*
X169467340Y-102661465D01*
X169467338Y-102661466D01*
X169286381Y-102788172D01*
X169188680Y-102885873D01*
X169127356Y-102919357D01*
X169057665Y-102914373D01*
X169013318Y-102885872D01*
X168915621Y-102788175D01*
X168915615Y-102788170D01*
X168734666Y-102661468D01*
X168734662Y-102661466D01*
X168734660Y-102661465D01*
X168534450Y-102568106D01*
X168534447Y-102568105D01*
X168534445Y-102568104D01*
X168321070Y-102510930D01*
X168321062Y-102510929D01*
X168101002Y-102491677D01*
X168100998Y-102491677D01*
X167880937Y-102510929D01*
X167880929Y-102510930D01*
X167667554Y-102568104D01*
X167667548Y-102568107D01*
X167467340Y-102661465D01*
X167467338Y-102661466D01*
X167286377Y-102788175D01*
X167130175Y-102944377D01*
X167003466Y-103125338D01*
X167003465Y-103125340D01*
X166910107Y-103325548D01*
X166910104Y-103325554D01*
X166852930Y-103538929D01*
X166852929Y-103538937D01*
X166833677Y-103758997D01*
X166833677Y-103759002D01*
X159603323Y-103759002D01*
X159603323Y-103759000D01*
X159584070Y-103538932D01*
X159526894Y-103325550D01*
X159433534Y-103125339D01*
X159306826Y-102944380D01*
X159150620Y-102788174D01*
X159150616Y-102788171D01*
X159150615Y-102788170D01*
X158969666Y-102661468D01*
X158969662Y-102661466D01*
X158969660Y-102661465D01*
X158769450Y-102568106D01*
X158769447Y-102568105D01*
X158769445Y-102568104D01*
X158556070Y-102510930D01*
X158556062Y-102510929D01*
X158336002Y-102491677D01*
X158335998Y-102491677D01*
X158115937Y-102510929D01*
X158115929Y-102510930D01*
X157902554Y-102568104D01*
X157902548Y-102568107D01*
X157702340Y-102661465D01*
X157702338Y-102661466D01*
X157521381Y-102788172D01*
X157423680Y-102885873D01*
X157362356Y-102919357D01*
X157292665Y-102914373D01*
X157248318Y-102885872D01*
X157150621Y-102788175D01*
X157150615Y-102788170D01*
X156969666Y-102661468D01*
X156969662Y-102661466D01*
X156969660Y-102661465D01*
X156769450Y-102568106D01*
X156769447Y-102568105D01*
X156769445Y-102568104D01*
X156556070Y-102510930D01*
X156556062Y-102510929D01*
X156336002Y-102491677D01*
X156335998Y-102491677D01*
X156115937Y-102510929D01*
X156115929Y-102510930D01*
X155902554Y-102568104D01*
X155902548Y-102568107D01*
X155702340Y-102661465D01*
X155702338Y-102661466D01*
X155521381Y-102788172D01*
X155423680Y-102885873D01*
X155362356Y-102919357D01*
X155292665Y-102914373D01*
X155248318Y-102885872D01*
X155150621Y-102788175D01*
X155150615Y-102788170D01*
X154969666Y-102661468D01*
X154969662Y-102661466D01*
X154969660Y-102661465D01*
X154769450Y-102568106D01*
X154769447Y-102568105D01*
X154769445Y-102568104D01*
X154556070Y-102510930D01*
X154556062Y-102510929D01*
X154336002Y-102491677D01*
X154335998Y-102491677D01*
X154115937Y-102510929D01*
X154115929Y-102510930D01*
X153902554Y-102568104D01*
X153902548Y-102568107D01*
X153702340Y-102661465D01*
X153702338Y-102661466D01*
X153521381Y-102788172D01*
X153423680Y-102885873D01*
X153362356Y-102919357D01*
X153292665Y-102914373D01*
X153248318Y-102885872D01*
X153150621Y-102788175D01*
X153150615Y-102788170D01*
X152969666Y-102661468D01*
X152969662Y-102661466D01*
X152969660Y-102661465D01*
X152769450Y-102568106D01*
X152769447Y-102568105D01*
X152769445Y-102568104D01*
X152556070Y-102510930D01*
X152556062Y-102510929D01*
X152336002Y-102491677D01*
X152335998Y-102491677D01*
X152115937Y-102510929D01*
X152115929Y-102510930D01*
X151902554Y-102568104D01*
X151902548Y-102568107D01*
X151702340Y-102661465D01*
X151702338Y-102661466D01*
X151521381Y-102788172D01*
X151423680Y-102885873D01*
X151362356Y-102919357D01*
X151292665Y-102914373D01*
X151248318Y-102885872D01*
X151150621Y-102788175D01*
X151150615Y-102788170D01*
X150969666Y-102661468D01*
X150969662Y-102661466D01*
X150969660Y-102661465D01*
X150769450Y-102568106D01*
X150769447Y-102568105D01*
X150769445Y-102568104D01*
X150556070Y-102510930D01*
X150556062Y-102510929D01*
X150336002Y-102491677D01*
X150335998Y-102491677D01*
X150115937Y-102510929D01*
X150115929Y-102510930D01*
X149902554Y-102568104D01*
X149902548Y-102568107D01*
X149702340Y-102661465D01*
X149702338Y-102661466D01*
X149521381Y-102788172D01*
X149423680Y-102885873D01*
X149362356Y-102919357D01*
X149292665Y-102914373D01*
X149248318Y-102885872D01*
X149150621Y-102788175D01*
X149150615Y-102788170D01*
X148969666Y-102661468D01*
X148969662Y-102661466D01*
X148969660Y-102661465D01*
X148769450Y-102568106D01*
X148769447Y-102568105D01*
X148769445Y-102568104D01*
X148556070Y-102510930D01*
X148556062Y-102510929D01*
X148336002Y-102491677D01*
X148335998Y-102491677D01*
X148115937Y-102510929D01*
X148115929Y-102510930D01*
X147902554Y-102568104D01*
X147902548Y-102568107D01*
X147702340Y-102661465D01*
X147702338Y-102661466D01*
X147521377Y-102788175D01*
X147365175Y-102944377D01*
X147238466Y-103125338D01*
X147238465Y-103125340D01*
X147145107Y-103325548D01*
X147145104Y-103325554D01*
X147087930Y-103538929D01*
X147087929Y-103538937D01*
X147068677Y-103758997D01*
X147068677Y-103759002D01*
X139859323Y-103759002D01*
X139859323Y-103759000D01*
X139840070Y-103538932D01*
X139782894Y-103325550D01*
X139689534Y-103125339D01*
X139562826Y-102944380D01*
X139406620Y-102788174D01*
X139406616Y-102788171D01*
X139406615Y-102788170D01*
X139225666Y-102661468D01*
X139225662Y-102661466D01*
X139225660Y-102661465D01*
X139025450Y-102568106D01*
X139025447Y-102568105D01*
X139025445Y-102568104D01*
X138812070Y-102510930D01*
X138812062Y-102510929D01*
X138592002Y-102491677D01*
X138591998Y-102491677D01*
X138371937Y-102510929D01*
X138371929Y-102510930D01*
X138158554Y-102568104D01*
X138158548Y-102568107D01*
X137958340Y-102661465D01*
X137958338Y-102661466D01*
X137777381Y-102788172D01*
X137679680Y-102885873D01*
X137618356Y-102919357D01*
X137548665Y-102914373D01*
X137504318Y-102885872D01*
X137406621Y-102788175D01*
X137406615Y-102788170D01*
X137225666Y-102661468D01*
X137225662Y-102661466D01*
X137225660Y-102661465D01*
X137025450Y-102568106D01*
X137025447Y-102568105D01*
X137025445Y-102568104D01*
X136812070Y-102510930D01*
X136812062Y-102510929D01*
X136592002Y-102491677D01*
X136591998Y-102491677D01*
X136371937Y-102510929D01*
X136371929Y-102510930D01*
X136158554Y-102568104D01*
X136158548Y-102568107D01*
X135958340Y-102661465D01*
X135958338Y-102661466D01*
X135777381Y-102788172D01*
X135679680Y-102885873D01*
X135618356Y-102919357D01*
X135548665Y-102914373D01*
X135504318Y-102885872D01*
X135406621Y-102788175D01*
X135406615Y-102788170D01*
X135225666Y-102661468D01*
X135225662Y-102661466D01*
X135225660Y-102661465D01*
X135025450Y-102568106D01*
X135025447Y-102568105D01*
X135025445Y-102568104D01*
X134812070Y-102510930D01*
X134812062Y-102510929D01*
X134592002Y-102491677D01*
X134591998Y-102491677D01*
X134371937Y-102510929D01*
X134371929Y-102510930D01*
X134158554Y-102568104D01*
X134158548Y-102568107D01*
X133958340Y-102661465D01*
X133958338Y-102661466D01*
X133777381Y-102788172D01*
X133679680Y-102885873D01*
X133618356Y-102919357D01*
X133548665Y-102914373D01*
X133504318Y-102885872D01*
X133406621Y-102788175D01*
X133406615Y-102788170D01*
X133225666Y-102661468D01*
X133225662Y-102661466D01*
X133225660Y-102661465D01*
X133025450Y-102568106D01*
X133025447Y-102568105D01*
X133025445Y-102568104D01*
X132812070Y-102510930D01*
X132812062Y-102510929D01*
X132592002Y-102491677D01*
X132591998Y-102491677D01*
X132371937Y-102510929D01*
X132371929Y-102510930D01*
X132158554Y-102568104D01*
X132158548Y-102568107D01*
X131958340Y-102661465D01*
X131958338Y-102661466D01*
X131777381Y-102788172D01*
X131679680Y-102885873D01*
X131618356Y-102919357D01*
X131548665Y-102914373D01*
X131504318Y-102885872D01*
X131406621Y-102788175D01*
X131406615Y-102788170D01*
X131225666Y-102661468D01*
X131225662Y-102661466D01*
X131225660Y-102661465D01*
X131025450Y-102568106D01*
X131025447Y-102568105D01*
X131025445Y-102568104D01*
X130812070Y-102510930D01*
X130812062Y-102510929D01*
X130592002Y-102491677D01*
X130591998Y-102491677D01*
X130371937Y-102510929D01*
X130371929Y-102510930D01*
X130158554Y-102568104D01*
X130158548Y-102568107D01*
X129958340Y-102661465D01*
X129958338Y-102661466D01*
X129777381Y-102788172D01*
X129679680Y-102885873D01*
X129618356Y-102919357D01*
X129548665Y-102914373D01*
X129504318Y-102885872D01*
X129406621Y-102788175D01*
X129406615Y-102788170D01*
X129225666Y-102661468D01*
X129225662Y-102661466D01*
X129225660Y-102661465D01*
X129025450Y-102568106D01*
X129025447Y-102568105D01*
X129025445Y-102568104D01*
X128812070Y-102510930D01*
X128812062Y-102510929D01*
X128592002Y-102491677D01*
X128591998Y-102491677D01*
X128371937Y-102510929D01*
X128371929Y-102510930D01*
X128158554Y-102568104D01*
X128158548Y-102568107D01*
X127958340Y-102661465D01*
X127958338Y-102661466D01*
X127777377Y-102788175D01*
X127621175Y-102944377D01*
X127494466Y-103125338D01*
X127494465Y-103125340D01*
X127401107Y-103325548D01*
X127401104Y-103325554D01*
X127343930Y-103538929D01*
X127343929Y-103538937D01*
X127324677Y-103758997D01*
X127324677Y-103759002D01*
X120059323Y-103759002D01*
X120059323Y-103759000D01*
X120040070Y-103538932D01*
X119982894Y-103325550D01*
X119889534Y-103125339D01*
X119762826Y-102944380D01*
X119606620Y-102788174D01*
X119606616Y-102788171D01*
X119606615Y-102788170D01*
X119425666Y-102661468D01*
X119425662Y-102661466D01*
X119425660Y-102661465D01*
X119225450Y-102568106D01*
X119225447Y-102568105D01*
X119225445Y-102568104D01*
X119012070Y-102510930D01*
X119012062Y-102510929D01*
X118792002Y-102491677D01*
X118791998Y-102491677D01*
X118571937Y-102510929D01*
X118571929Y-102510930D01*
X118358554Y-102568104D01*
X118358548Y-102568107D01*
X118158340Y-102661465D01*
X118158338Y-102661466D01*
X117977381Y-102788172D01*
X117879680Y-102885873D01*
X117818356Y-102919357D01*
X117748665Y-102914373D01*
X117704318Y-102885872D01*
X117606621Y-102788175D01*
X117606615Y-102788170D01*
X117425666Y-102661468D01*
X117425662Y-102661466D01*
X117425660Y-102661465D01*
X117225450Y-102568106D01*
X117225447Y-102568105D01*
X117225445Y-102568104D01*
X117012070Y-102510930D01*
X117012062Y-102510929D01*
X116792002Y-102491677D01*
X116791998Y-102491677D01*
X116571937Y-102510929D01*
X116571929Y-102510930D01*
X116358554Y-102568104D01*
X116358548Y-102568107D01*
X116158340Y-102661465D01*
X116158338Y-102661466D01*
X115977381Y-102788172D01*
X115879680Y-102885873D01*
X115818356Y-102919357D01*
X115748665Y-102914373D01*
X115704318Y-102885872D01*
X115606621Y-102788175D01*
X115606615Y-102788170D01*
X115425666Y-102661468D01*
X115425662Y-102661466D01*
X115425660Y-102661465D01*
X115225450Y-102568106D01*
X115225447Y-102568105D01*
X115225445Y-102568104D01*
X115012070Y-102510930D01*
X115012062Y-102510929D01*
X114792002Y-102491677D01*
X114791998Y-102491677D01*
X114571937Y-102510929D01*
X114571929Y-102510930D01*
X114358554Y-102568104D01*
X114358548Y-102568107D01*
X114158340Y-102661465D01*
X114158338Y-102661466D01*
X113977381Y-102788172D01*
X113879680Y-102885873D01*
X113818356Y-102919357D01*
X113748665Y-102914373D01*
X113704318Y-102885872D01*
X113606621Y-102788175D01*
X113606615Y-102788170D01*
X113425666Y-102661468D01*
X113425662Y-102661466D01*
X113425660Y-102661465D01*
X113225450Y-102568106D01*
X113225447Y-102568105D01*
X113225445Y-102568104D01*
X113012070Y-102510930D01*
X113012062Y-102510929D01*
X112792002Y-102491677D01*
X112791998Y-102491677D01*
X112571937Y-102510929D01*
X112571929Y-102510930D01*
X112358554Y-102568104D01*
X112358548Y-102568107D01*
X112158340Y-102661465D01*
X112158338Y-102661466D01*
X111977381Y-102788172D01*
X111879680Y-102885873D01*
X111818356Y-102919357D01*
X111748665Y-102914373D01*
X111704318Y-102885872D01*
X111606621Y-102788175D01*
X111606615Y-102788170D01*
X111425666Y-102661468D01*
X111425662Y-102661466D01*
X111425660Y-102661465D01*
X111225450Y-102568106D01*
X111225447Y-102568105D01*
X111225445Y-102568104D01*
X111012070Y-102510930D01*
X111012062Y-102510929D01*
X110792002Y-102491677D01*
X110791998Y-102491677D01*
X110571937Y-102510929D01*
X110571929Y-102510930D01*
X110358554Y-102568104D01*
X110358548Y-102568107D01*
X110158340Y-102661465D01*
X110158338Y-102661466D01*
X109977381Y-102788172D01*
X109879680Y-102885873D01*
X109818356Y-102919357D01*
X109748665Y-102914373D01*
X109704318Y-102885872D01*
X109606621Y-102788175D01*
X109606615Y-102788170D01*
X109425666Y-102661468D01*
X109425662Y-102661466D01*
X109425660Y-102661465D01*
X109225450Y-102568106D01*
X109225447Y-102568105D01*
X109225445Y-102568104D01*
X109012070Y-102510930D01*
X109012062Y-102510929D01*
X108792002Y-102491677D01*
X108791998Y-102491677D01*
X108571937Y-102510929D01*
X108571929Y-102510930D01*
X108358554Y-102568104D01*
X108358548Y-102568107D01*
X108158340Y-102661465D01*
X108158338Y-102661466D01*
X107977377Y-102788175D01*
X107821175Y-102944377D01*
X107694466Y-103125338D01*
X107694465Y-103125340D01*
X107601107Y-103325548D01*
X107601104Y-103325554D01*
X107543930Y-103538929D01*
X107543929Y-103538937D01*
X107524677Y-103758997D01*
X107524677Y-103759002D01*
X103886000Y-103759002D01*
X103886000Y-100607422D01*
X105441500Y-100607422D01*
X105472290Y-100801826D01*
X105533117Y-100989029D01*
X105622476Y-101164405D01*
X105738172Y-101323646D01*
X105877354Y-101462828D01*
X106036595Y-101578524D01*
X106119455Y-101620743D01*
X106211970Y-101667882D01*
X106211972Y-101667882D01*
X106211975Y-101667884D01*
X106312317Y-101700487D01*
X106399173Y-101728709D01*
X106593578Y-101759500D01*
X106593583Y-101759500D01*
X106790422Y-101759500D01*
X106984826Y-101728709D01*
X107172025Y-101667884D01*
X107347405Y-101578524D01*
X107506646Y-101462828D01*
X107645828Y-101323646D01*
X107761524Y-101164405D01*
X107850884Y-100989025D01*
X107911709Y-100801826D01*
X107942500Y-100607422D01*
X119641500Y-100607422D01*
X119672290Y-100801826D01*
X119733117Y-100989029D01*
X119822476Y-101164405D01*
X119938172Y-101323646D01*
X120077354Y-101462828D01*
X120236595Y-101578524D01*
X120319455Y-101620743D01*
X120411970Y-101667882D01*
X120411972Y-101667882D01*
X120411975Y-101667884D01*
X120512317Y-101700487D01*
X120599173Y-101728709D01*
X120793578Y-101759500D01*
X120793583Y-101759500D01*
X120990422Y-101759500D01*
X121184826Y-101728709D01*
X121372025Y-101667884D01*
X121547405Y-101578524D01*
X121706646Y-101462828D01*
X121845828Y-101323646D01*
X121961524Y-101164405D01*
X122050884Y-100989025D01*
X122111709Y-100801826D01*
X122142500Y-100607422D01*
X125241500Y-100607422D01*
X125272290Y-100801826D01*
X125333117Y-100989029D01*
X125422476Y-101164405D01*
X125538172Y-101323646D01*
X125677354Y-101462828D01*
X125836595Y-101578524D01*
X125919455Y-101620743D01*
X126011970Y-101667882D01*
X126011972Y-101667882D01*
X126011975Y-101667884D01*
X126112317Y-101700487D01*
X126199173Y-101728709D01*
X126393578Y-101759500D01*
X126393583Y-101759500D01*
X126590422Y-101759500D01*
X126784826Y-101728709D01*
X126972025Y-101667884D01*
X127147405Y-101578524D01*
X127306646Y-101462828D01*
X127445828Y-101323646D01*
X127561524Y-101164405D01*
X127650884Y-100989025D01*
X127711709Y-100801826D01*
X127742500Y-100607422D01*
X139441500Y-100607422D01*
X139472290Y-100801826D01*
X139533117Y-100989029D01*
X139622476Y-101164405D01*
X139738172Y-101323646D01*
X139877354Y-101462828D01*
X140036595Y-101578524D01*
X140119455Y-101620743D01*
X140211970Y-101667882D01*
X140211972Y-101667882D01*
X140211975Y-101667884D01*
X140312317Y-101700487D01*
X140399173Y-101728709D01*
X140593578Y-101759500D01*
X140593583Y-101759500D01*
X140790422Y-101759500D01*
X140984826Y-101728709D01*
X141172025Y-101667884D01*
X141347405Y-101578524D01*
X141506646Y-101462828D01*
X141645828Y-101323646D01*
X141761524Y-101164405D01*
X141850884Y-100989025D01*
X141911709Y-100801826D01*
X141942500Y-100607422D01*
X144985500Y-100607422D01*
X145016290Y-100801826D01*
X145077117Y-100989029D01*
X145166476Y-101164405D01*
X145282172Y-101323646D01*
X145421354Y-101462828D01*
X145580595Y-101578524D01*
X145663455Y-101620743D01*
X145755970Y-101667882D01*
X145755972Y-101667882D01*
X145755975Y-101667884D01*
X145856317Y-101700487D01*
X145943173Y-101728709D01*
X146137578Y-101759500D01*
X146137583Y-101759500D01*
X146334422Y-101759500D01*
X146528826Y-101728709D01*
X146716025Y-101667884D01*
X146891405Y-101578524D01*
X147050646Y-101462828D01*
X147189828Y-101323646D01*
X147305524Y-101164405D01*
X147394884Y-100989025D01*
X147455709Y-100801826D01*
X147486500Y-100607422D01*
X159185500Y-100607422D01*
X159216290Y-100801826D01*
X159277117Y-100989029D01*
X159366476Y-101164405D01*
X159482172Y-101323646D01*
X159621354Y-101462828D01*
X159780595Y-101578524D01*
X159863455Y-101620743D01*
X159955970Y-101667882D01*
X159955972Y-101667882D01*
X159955975Y-101667884D01*
X160056317Y-101700487D01*
X160143173Y-101728709D01*
X160337578Y-101759500D01*
X160337583Y-101759500D01*
X160534422Y-101759500D01*
X160728826Y-101728709D01*
X160916025Y-101667884D01*
X161091405Y-101578524D01*
X161250646Y-101462828D01*
X161389828Y-101323646D01*
X161505524Y-101164405D01*
X161594884Y-100989025D01*
X161655709Y-100801826D01*
X161686500Y-100607422D01*
X164750500Y-100607422D01*
X164781290Y-100801826D01*
X164842117Y-100989029D01*
X164931476Y-101164405D01*
X165047172Y-101323646D01*
X165186354Y-101462828D01*
X165345595Y-101578524D01*
X165428455Y-101620743D01*
X165520970Y-101667882D01*
X165520972Y-101667882D01*
X165520975Y-101667884D01*
X165621317Y-101700487D01*
X165708173Y-101728709D01*
X165902578Y-101759500D01*
X165902583Y-101759500D01*
X166099422Y-101759500D01*
X166293826Y-101728709D01*
X166481025Y-101667884D01*
X166656405Y-101578524D01*
X166815646Y-101462828D01*
X166954828Y-101323646D01*
X167070524Y-101164405D01*
X167159884Y-100989025D01*
X167220709Y-100801826D01*
X167251500Y-100607422D01*
X178950500Y-100607422D01*
X178981290Y-100801826D01*
X179042117Y-100989029D01*
X179131476Y-101164405D01*
X179247172Y-101323646D01*
X179386354Y-101462828D01*
X179545595Y-101578524D01*
X179628455Y-101620743D01*
X179720970Y-101667882D01*
X179720972Y-101667882D01*
X179720975Y-101667884D01*
X179821317Y-101700487D01*
X179908173Y-101728709D01*
X180102578Y-101759500D01*
X180102583Y-101759500D01*
X180299422Y-101759500D01*
X180493826Y-101728709D01*
X180681025Y-101667884D01*
X180856405Y-101578524D01*
X181015646Y-101462828D01*
X181154828Y-101323646D01*
X181270524Y-101164405D01*
X181359884Y-100989025D01*
X181420709Y-100801826D01*
X181451500Y-100607422D01*
X181451500Y-100310577D01*
X181420709Y-100116173D01*
X181359882Y-99928970D01*
X181270523Y-99753594D01*
X181262500Y-99742551D01*
X181154828Y-99594354D01*
X181015646Y-99455172D01*
X180856405Y-99339476D01*
X180831299Y-99326684D01*
X180681029Y-99250117D01*
X180493826Y-99189290D01*
X180299422Y-99158500D01*
X180299417Y-99158500D01*
X180102583Y-99158500D01*
X180102578Y-99158500D01*
X179908173Y-99189290D01*
X179720970Y-99250117D01*
X179545594Y-99339476D01*
X179454741Y-99405485D01*
X179386354Y-99455172D01*
X179386352Y-99455174D01*
X179386351Y-99455174D01*
X179247174Y-99594351D01*
X179247174Y-99594352D01*
X179247172Y-99594354D01*
X179220338Y-99631288D01*
X179131476Y-99753594D01*
X179042117Y-99928970D01*
X178981290Y-100116173D01*
X178950500Y-100310577D01*
X178950500Y-100607422D01*
X167251500Y-100607422D01*
X167251500Y-100310577D01*
X167220709Y-100116173D01*
X167159882Y-99928970D01*
X167070523Y-99753594D01*
X167062500Y-99742551D01*
X166954828Y-99594354D01*
X166815646Y-99455172D01*
X166656405Y-99339476D01*
X166631299Y-99326684D01*
X166481029Y-99250117D01*
X166293826Y-99189290D01*
X166099422Y-99158500D01*
X166099417Y-99158500D01*
X165902583Y-99158500D01*
X165902578Y-99158500D01*
X165708173Y-99189290D01*
X165520970Y-99250117D01*
X165345594Y-99339476D01*
X165254741Y-99405485D01*
X165186354Y-99455172D01*
X165186352Y-99455174D01*
X165186351Y-99455174D01*
X165047174Y-99594351D01*
X165047174Y-99594352D01*
X165047172Y-99594354D01*
X165020338Y-99631288D01*
X164931476Y-99753594D01*
X164842117Y-99928970D01*
X164781290Y-100116173D01*
X164750500Y-100310577D01*
X164750500Y-100607422D01*
X161686500Y-100607422D01*
X161686500Y-100310577D01*
X161655709Y-100116173D01*
X161594882Y-99928970D01*
X161505523Y-99753594D01*
X161497500Y-99742551D01*
X161389828Y-99594354D01*
X161250646Y-99455172D01*
X161091405Y-99339476D01*
X161066299Y-99326684D01*
X160916029Y-99250117D01*
X160728826Y-99189290D01*
X160534422Y-99158500D01*
X160534417Y-99158500D01*
X160337583Y-99158500D01*
X160337578Y-99158500D01*
X160143173Y-99189290D01*
X159955970Y-99250117D01*
X159780594Y-99339476D01*
X159689741Y-99405485D01*
X159621354Y-99455172D01*
X159621352Y-99455174D01*
X159621351Y-99455174D01*
X159482174Y-99594351D01*
X159482174Y-99594352D01*
X159482172Y-99594354D01*
X159455338Y-99631288D01*
X159366476Y-99753594D01*
X159277117Y-99928970D01*
X159216290Y-100116173D01*
X159185500Y-100310577D01*
X159185500Y-100607422D01*
X147486500Y-100607422D01*
X147486500Y-100310577D01*
X147455709Y-100116173D01*
X147394882Y-99928970D01*
X147305523Y-99753594D01*
X147297500Y-99742551D01*
X147189828Y-99594354D01*
X147050646Y-99455172D01*
X146891405Y-99339476D01*
X146866299Y-99326684D01*
X146716029Y-99250117D01*
X146528826Y-99189290D01*
X146334422Y-99158500D01*
X146334417Y-99158500D01*
X146137583Y-99158500D01*
X146137578Y-99158500D01*
X145943173Y-99189290D01*
X145755970Y-99250117D01*
X145580594Y-99339476D01*
X145489741Y-99405485D01*
X145421354Y-99455172D01*
X145421352Y-99455174D01*
X145421351Y-99455174D01*
X145282174Y-99594351D01*
X145282174Y-99594352D01*
X145282172Y-99594354D01*
X145255338Y-99631288D01*
X145166476Y-99753594D01*
X145077117Y-99928970D01*
X145016290Y-100116173D01*
X144985500Y-100310577D01*
X144985500Y-100607422D01*
X141942500Y-100607422D01*
X141942500Y-100310577D01*
X141911709Y-100116173D01*
X141850882Y-99928970D01*
X141761523Y-99753594D01*
X141753500Y-99742551D01*
X141645828Y-99594354D01*
X141506646Y-99455172D01*
X141347405Y-99339476D01*
X141322299Y-99326684D01*
X141172029Y-99250117D01*
X140984826Y-99189290D01*
X140790422Y-99158500D01*
X140790417Y-99158500D01*
X140593583Y-99158500D01*
X140593578Y-99158500D01*
X140399173Y-99189290D01*
X140211970Y-99250117D01*
X140036594Y-99339476D01*
X139945741Y-99405485D01*
X139877354Y-99455172D01*
X139877352Y-99455174D01*
X139877351Y-99455174D01*
X139738174Y-99594351D01*
X139738174Y-99594352D01*
X139738172Y-99594354D01*
X139711338Y-99631288D01*
X139622476Y-99753594D01*
X139533117Y-99928970D01*
X139472290Y-100116173D01*
X139441500Y-100310577D01*
X139441500Y-100607422D01*
X127742500Y-100607422D01*
X127742500Y-100310577D01*
X127711709Y-100116173D01*
X127650882Y-99928970D01*
X127561523Y-99753594D01*
X127553500Y-99742551D01*
X127445828Y-99594354D01*
X127306646Y-99455172D01*
X127147405Y-99339476D01*
X127122299Y-99326684D01*
X126972029Y-99250117D01*
X126784826Y-99189290D01*
X126590422Y-99158500D01*
X126590417Y-99158500D01*
X126393583Y-99158500D01*
X126393578Y-99158500D01*
X126199173Y-99189290D01*
X126011970Y-99250117D01*
X125836594Y-99339476D01*
X125745741Y-99405485D01*
X125677354Y-99455172D01*
X125677352Y-99455174D01*
X125677351Y-99455174D01*
X125538174Y-99594351D01*
X125538174Y-99594352D01*
X125538172Y-99594354D01*
X125511338Y-99631288D01*
X125422476Y-99753594D01*
X125333117Y-99928970D01*
X125272290Y-100116173D01*
X125241500Y-100310577D01*
X125241500Y-100607422D01*
X122142500Y-100607422D01*
X122142500Y-100310577D01*
X122111709Y-100116173D01*
X122050882Y-99928970D01*
X121961523Y-99753594D01*
X121953500Y-99742551D01*
X121845828Y-99594354D01*
X121706646Y-99455172D01*
X121547405Y-99339476D01*
X121522299Y-99326684D01*
X121372029Y-99250117D01*
X121184826Y-99189290D01*
X120990422Y-99158500D01*
X120990417Y-99158500D01*
X120793583Y-99158500D01*
X120793578Y-99158500D01*
X120599173Y-99189290D01*
X120411970Y-99250117D01*
X120236594Y-99339476D01*
X120145741Y-99405485D01*
X120077354Y-99455172D01*
X120077352Y-99455174D01*
X120077351Y-99455174D01*
X119938174Y-99594351D01*
X119938174Y-99594352D01*
X119938172Y-99594354D01*
X119911338Y-99631288D01*
X119822476Y-99753594D01*
X119733117Y-99928970D01*
X119672290Y-100116173D01*
X119641500Y-100310577D01*
X119641500Y-100607422D01*
X107942500Y-100607422D01*
X107942500Y-100310577D01*
X107911709Y-100116173D01*
X107850882Y-99928970D01*
X107761523Y-99753594D01*
X107753500Y-99742551D01*
X107645828Y-99594354D01*
X107506646Y-99455172D01*
X107347405Y-99339476D01*
X107322299Y-99326684D01*
X107172029Y-99250117D01*
X106984826Y-99189290D01*
X106790422Y-99158500D01*
X106790417Y-99158500D01*
X106593583Y-99158500D01*
X106593578Y-99158500D01*
X106399173Y-99189290D01*
X106211970Y-99250117D01*
X106036594Y-99339476D01*
X105945741Y-99405485D01*
X105877354Y-99455172D01*
X105877352Y-99455174D01*
X105877351Y-99455174D01*
X105738174Y-99594351D01*
X105738174Y-99594352D01*
X105738172Y-99594354D01*
X105711338Y-99631288D01*
X105622476Y-99753594D01*
X105533117Y-99928970D01*
X105472290Y-100116173D01*
X105441500Y-100310577D01*
X105441500Y-100607422D01*
X103886000Y-100607422D01*
X103886000Y-98806000D01*
X186800540Y-98806000D01*
X186820326Y-98994256D01*
X186820327Y-98994259D01*
X186878818Y-99174277D01*
X186878821Y-99174284D01*
X186973467Y-99338216D01*
X186974602Y-99339476D01*
X187100129Y-99478888D01*
X187253265Y-99590148D01*
X187253270Y-99590151D01*
X187426192Y-99667142D01*
X187426197Y-99667144D01*
X187611354Y-99706500D01*
X187611355Y-99706500D01*
X187800644Y-99706500D01*
X187800646Y-99706500D01*
X187985803Y-99667144D01*
X188158730Y-99590151D01*
X188311871Y-99478888D01*
X188438533Y-99338216D01*
X188533179Y-99174284D01*
X188591674Y-98994256D01*
X188595443Y-98958400D01*
X192895940Y-98958400D01*
X192915726Y-99146656D01*
X192915727Y-99146659D01*
X192974218Y-99326677D01*
X192974221Y-99326684D01*
X193068867Y-99490616D01*
X193195529Y-99631288D01*
X193348665Y-99742548D01*
X193348670Y-99742551D01*
X193521592Y-99819542D01*
X193521597Y-99819544D01*
X193706754Y-99858900D01*
X193706755Y-99858900D01*
X193896044Y-99858900D01*
X193896046Y-99858900D01*
X194081203Y-99819544D01*
X194254130Y-99742551D01*
X194407271Y-99631288D01*
X194533933Y-99490616D01*
X194628579Y-99326684D01*
X194687074Y-99146656D01*
X194706860Y-98958400D01*
X194687074Y-98770144D01*
X194628579Y-98590116D01*
X194533933Y-98426184D01*
X194407271Y-98285512D01*
X194407270Y-98285511D01*
X194254134Y-98174251D01*
X194254129Y-98174248D01*
X194081207Y-98097257D01*
X194081202Y-98097255D01*
X193935401Y-98066265D01*
X193896046Y-98057900D01*
X193706754Y-98057900D01*
X193674297Y-98064798D01*
X193521597Y-98097255D01*
X193521592Y-98097257D01*
X193348670Y-98174248D01*
X193348665Y-98174251D01*
X193195529Y-98285511D01*
X193068866Y-98426185D01*
X192974221Y-98590115D01*
X192974218Y-98590122D01*
X192915727Y-98770140D01*
X192915726Y-98770144D01*
X192895940Y-98958400D01*
X188595443Y-98958400D01*
X188611460Y-98806000D01*
X188591674Y-98617744D01*
X188533179Y-98437716D01*
X188438533Y-98273784D01*
X188311871Y-98133112D01*
X188262521Y-98097257D01*
X188158734Y-98021851D01*
X188158729Y-98021848D01*
X187985807Y-97944857D01*
X187985802Y-97944855D01*
X187840001Y-97913865D01*
X187800646Y-97905500D01*
X187611354Y-97905500D01*
X187578897Y-97912398D01*
X187426197Y-97944855D01*
X187426192Y-97944857D01*
X187253270Y-98021848D01*
X187253265Y-98021851D01*
X187100129Y-98133111D01*
X186973466Y-98273785D01*
X186878821Y-98437715D01*
X186878818Y-98437722D01*
X186829303Y-98590115D01*
X186820326Y-98617744D01*
X186800540Y-98806000D01*
X103886000Y-98806000D01*
X103886000Y-97363000D01*
X191210540Y-97363000D01*
X191230326Y-97551256D01*
X191230327Y-97551259D01*
X191288818Y-97731277D01*
X191288821Y-97731284D01*
X191383467Y-97895216D01*
X191497487Y-98021848D01*
X191510129Y-98035888D01*
X191663265Y-98147148D01*
X191663270Y-98147151D01*
X191836192Y-98224142D01*
X191836197Y-98224144D01*
X192021354Y-98263500D01*
X192021355Y-98263500D01*
X192210644Y-98263500D01*
X192210646Y-98263500D01*
X192395803Y-98224144D01*
X192568730Y-98147151D01*
X192721871Y-98035888D01*
X192848533Y-97895216D01*
X192943179Y-97731284D01*
X193001674Y-97551256D01*
X193021460Y-97363000D01*
X193001674Y-97174744D01*
X192943179Y-96994716D01*
X192848533Y-96830784D01*
X192721871Y-96690112D01*
X192624192Y-96619144D01*
X192568734Y-96578851D01*
X192568729Y-96578848D01*
X192395807Y-96501857D01*
X192395802Y-96501855D01*
X192250001Y-96470865D01*
X192210646Y-96462500D01*
X192021354Y-96462500D01*
X191988897Y-96469398D01*
X191836197Y-96501855D01*
X191836192Y-96501857D01*
X191663270Y-96578848D01*
X191663265Y-96578851D01*
X191510129Y-96690111D01*
X191383466Y-96830785D01*
X191288821Y-96994715D01*
X191288818Y-96994722D01*
X191230327Y-97174740D01*
X191230326Y-97174744D01*
X191210540Y-97363000D01*
X103886000Y-97363000D01*
X103886000Y-95250000D01*
X122538540Y-95250000D01*
X122558326Y-95438256D01*
X122558327Y-95438259D01*
X122616818Y-95618277D01*
X122616821Y-95618284D01*
X122711467Y-95782216D01*
X122792559Y-95872277D01*
X122838129Y-95922888D01*
X122991265Y-96034148D01*
X122991270Y-96034151D01*
X123164192Y-96111142D01*
X123164197Y-96111144D01*
X123349354Y-96150500D01*
X123349355Y-96150500D01*
X123538644Y-96150500D01*
X123538646Y-96150500D01*
X123723803Y-96111144D01*
X123896730Y-96034151D01*
X124049871Y-95922888D01*
X124176533Y-95782216D01*
X124271179Y-95618284D01*
X124308312Y-95504000D01*
X142096540Y-95504000D01*
X142116326Y-95692256D01*
X142116327Y-95692259D01*
X142174818Y-95872277D01*
X142174821Y-95872284D01*
X142269467Y-96036216D01*
X142336931Y-96111142D01*
X142396129Y-96176888D01*
X142549265Y-96288148D01*
X142549270Y-96288151D01*
X142722192Y-96365142D01*
X142722197Y-96365144D01*
X142907354Y-96404500D01*
X142907355Y-96404500D01*
X143096644Y-96404500D01*
X143096646Y-96404500D01*
X143281803Y-96365144D01*
X143454730Y-96288151D01*
X143607871Y-96176888D01*
X143734533Y-96036216D01*
X143829179Y-95872284D01*
X143866312Y-95758000D01*
X162162540Y-95758000D01*
X162182326Y-95946256D01*
X162182327Y-95946259D01*
X162240818Y-96126277D01*
X162240821Y-96126284D01*
X162335467Y-96290216D01*
X162402931Y-96365142D01*
X162462129Y-96430888D01*
X162615265Y-96542148D01*
X162615270Y-96542151D01*
X162788192Y-96619142D01*
X162788197Y-96619144D01*
X162973354Y-96658500D01*
X162973355Y-96658500D01*
X163162644Y-96658500D01*
X163162646Y-96658500D01*
X163347803Y-96619144D01*
X163520730Y-96542151D01*
X163673871Y-96430888D01*
X163800533Y-96290216D01*
X163895179Y-96126284D01*
X163953674Y-95946256D01*
X163973460Y-95758000D01*
X163953674Y-95569744D01*
X163895179Y-95389716D01*
X163800533Y-95225784D01*
X163673871Y-95085112D01*
X163641708Y-95061744D01*
X163520734Y-94973851D01*
X163520729Y-94973848D01*
X163347807Y-94896857D01*
X163347802Y-94896855D01*
X163202001Y-94865865D01*
X163162646Y-94857500D01*
X162973354Y-94857500D01*
X162940897Y-94864398D01*
X162788197Y-94896855D01*
X162788192Y-94896857D01*
X162615270Y-94973848D01*
X162615265Y-94973851D01*
X162462129Y-95085111D01*
X162335466Y-95225785D01*
X162240821Y-95389715D01*
X162240818Y-95389722D01*
X162182327Y-95569740D01*
X162182326Y-95569744D01*
X162162540Y-95758000D01*
X143866312Y-95758000D01*
X143887674Y-95692256D01*
X143907460Y-95504000D01*
X143887674Y-95315744D01*
X143829179Y-95135716D01*
X143734533Y-94971784D01*
X143607871Y-94831112D01*
X143607870Y-94831111D01*
X143454734Y-94719851D01*
X143454729Y-94719848D01*
X143281807Y-94642857D01*
X143281802Y-94642855D01*
X143136001Y-94611865D01*
X143096646Y-94603500D01*
X142907354Y-94603500D01*
X142874897Y-94610398D01*
X142722197Y-94642855D01*
X142722192Y-94642857D01*
X142549270Y-94719848D01*
X142549265Y-94719851D01*
X142396129Y-94831111D01*
X142269466Y-94971785D01*
X142174821Y-95135715D01*
X142174818Y-95135722D01*
X142116327Y-95315740D01*
X142116326Y-95315744D01*
X142096540Y-95504000D01*
X124308312Y-95504000D01*
X124329674Y-95438256D01*
X124349460Y-95250000D01*
X124329674Y-95061744D01*
X124271179Y-94881716D01*
X124176533Y-94717784D01*
X124049871Y-94577112D01*
X124049870Y-94577111D01*
X123896734Y-94465851D01*
X123896729Y-94465848D01*
X123723807Y-94388857D01*
X123723802Y-94388855D01*
X123578001Y-94357865D01*
X123538646Y-94349500D01*
X123349354Y-94349500D01*
X123316897Y-94356398D01*
X123164197Y-94388855D01*
X123164192Y-94388857D01*
X122991270Y-94465848D01*
X122991265Y-94465851D01*
X122838129Y-94577111D01*
X122711466Y-94717785D01*
X122616821Y-94881715D01*
X122616818Y-94881722D01*
X122586884Y-94973851D01*
X122558326Y-95061744D01*
X122538540Y-95250000D01*
X103886000Y-95250000D01*
X103886000Y-93980000D01*
X179434540Y-93980000D01*
X179454326Y-94168256D01*
X179454327Y-94168259D01*
X179512818Y-94348277D01*
X179512821Y-94348284D01*
X179607467Y-94512216D01*
X179665899Y-94577111D01*
X179734129Y-94652888D01*
X179887265Y-94764148D01*
X179887270Y-94764151D01*
X180060192Y-94841142D01*
X180060197Y-94841144D01*
X180245354Y-94880500D01*
X180245355Y-94880500D01*
X180434644Y-94880500D01*
X180434646Y-94880500D01*
X180619803Y-94841144D01*
X180792730Y-94764151D01*
X180945871Y-94652888D01*
X181072533Y-94512216D01*
X181167179Y-94348284D01*
X181225674Y-94168256D01*
X181245460Y-93980000D01*
X181225674Y-93791744D01*
X181167179Y-93611716D01*
X181072533Y-93447784D01*
X180945871Y-93307112D01*
X180945870Y-93307111D01*
X180792734Y-93195851D01*
X180792729Y-93195848D01*
X180619807Y-93118857D01*
X180619802Y-93118855D01*
X180474001Y-93087865D01*
X180434646Y-93079500D01*
X180245354Y-93079500D01*
X180212897Y-93086398D01*
X180060197Y-93118855D01*
X180060192Y-93118857D01*
X179887270Y-93195848D01*
X179887265Y-93195851D01*
X179734129Y-93307111D01*
X179607466Y-93447785D01*
X179512821Y-93611715D01*
X179512818Y-93611722D01*
X179454327Y-93791740D01*
X179454326Y-93791744D01*
X179434540Y-93980000D01*
X103886000Y-93980000D01*
X103886000Y-87884000D01*
X125332540Y-87884000D01*
X125352326Y-88072256D01*
X125352327Y-88072259D01*
X125410818Y-88252277D01*
X125410821Y-88252284D01*
X125505467Y-88416216D01*
X125527186Y-88440337D01*
X125632129Y-88556888D01*
X125785265Y-88668148D01*
X125785270Y-88668151D01*
X125958192Y-88745142D01*
X125958197Y-88745144D01*
X126143354Y-88784500D01*
X126143355Y-88784500D01*
X126332644Y-88784500D01*
X126332646Y-88784500D01*
X126517803Y-88745144D01*
X126690730Y-88668151D01*
X126843871Y-88556888D01*
X126970533Y-88416216D01*
X127065179Y-88252284D01*
X127123674Y-88072256D01*
X127143460Y-87884000D01*
X127123674Y-87695744D01*
X127065179Y-87515716D01*
X126984514Y-87376000D01*
X145398540Y-87376000D01*
X145418326Y-87564256D01*
X145418327Y-87564259D01*
X145476818Y-87744277D01*
X145476821Y-87744284D01*
X145571467Y-87908216D01*
X145685441Y-88034797D01*
X145698129Y-88048888D01*
X145851265Y-88160148D01*
X145851270Y-88160151D01*
X146024192Y-88237142D01*
X146024197Y-88237144D01*
X146209354Y-88276500D01*
X146209355Y-88276500D01*
X146398644Y-88276500D01*
X146398646Y-88276500D01*
X146583803Y-88237144D01*
X146756730Y-88160151D01*
X146909871Y-88048888D01*
X147036533Y-87908216D01*
X147131179Y-87744284D01*
X147168312Y-87630000D01*
X160130540Y-87630000D01*
X160150326Y-87818256D01*
X160150327Y-87818259D01*
X160208818Y-87998277D01*
X160208821Y-87998284D01*
X160303467Y-88162216D01*
X160412939Y-88283797D01*
X160430129Y-88302888D01*
X160583265Y-88414148D01*
X160583270Y-88414151D01*
X160756192Y-88491142D01*
X160756197Y-88491144D01*
X160941354Y-88530500D01*
X160941355Y-88530500D01*
X161130644Y-88530500D01*
X161130646Y-88530500D01*
X161315803Y-88491144D01*
X161488730Y-88414151D01*
X161641871Y-88302888D01*
X161768533Y-88162216D01*
X161863179Y-87998284D01*
X161899055Y-87887870D01*
X180259500Y-87887870D01*
X180259501Y-87887876D01*
X180265908Y-87947483D01*
X180316202Y-88082328D01*
X180316206Y-88082335D01*
X180402452Y-88197544D01*
X180402455Y-88197547D01*
X180517664Y-88283793D01*
X180517671Y-88283797D01*
X180517674Y-88283798D01*
X180649598Y-88333002D01*
X180705531Y-88374873D01*
X180729949Y-88440337D01*
X180715098Y-88508610D01*
X180693947Y-88536865D01*
X180571886Y-88658926D01*
X180436400Y-88852420D01*
X180436399Y-88852422D01*
X180336570Y-89066507D01*
X180336567Y-89066513D01*
X180279364Y-89279999D01*
X180279364Y-89280000D01*
X181176988Y-89280000D01*
X181144075Y-89337007D01*
X181110000Y-89464174D01*
X181110000Y-89595826D01*
X181144075Y-89722993D01*
X181176988Y-89780000D01*
X180279364Y-89780000D01*
X180336567Y-89993486D01*
X180336570Y-89993492D01*
X180436399Y-90207578D01*
X180571894Y-90401082D01*
X180738917Y-90568105D01*
X180932421Y-90703600D01*
X181146507Y-90803429D01*
X181146516Y-90803433D01*
X181360000Y-90860634D01*
X181360000Y-89963012D01*
X181417007Y-89995925D01*
X181544174Y-90030000D01*
X181675826Y-90030000D01*
X181802993Y-89995925D01*
X181860000Y-89963012D01*
X181860000Y-90860633D01*
X182073483Y-90803433D01*
X182073492Y-90803429D01*
X182287578Y-90703600D01*
X182481082Y-90568105D01*
X182648105Y-90401082D01*
X182783600Y-90207578D01*
X182883429Y-89993492D01*
X182883432Y-89993486D01*
X182940636Y-89780000D01*
X182043012Y-89780000D01*
X182075925Y-89722993D01*
X182110000Y-89595826D01*
X182110000Y-89464174D01*
X182075925Y-89337007D01*
X182043012Y-89280000D01*
X182940636Y-89280000D01*
X182940635Y-89279999D01*
X182883432Y-89066513D01*
X182883429Y-89066507D01*
X182783600Y-88852422D01*
X182783599Y-88852420D01*
X182648113Y-88658926D01*
X182648108Y-88658920D01*
X182526053Y-88536865D01*
X182492568Y-88475542D01*
X182497552Y-88405850D01*
X182539424Y-88349917D01*
X182570400Y-88333002D01*
X182702331Y-88283796D01*
X182817546Y-88197546D01*
X182903796Y-88082331D01*
X182954091Y-87947483D01*
X182960500Y-87887873D01*
X182960499Y-86741000D01*
X195367341Y-86741000D01*
X195387936Y-86976403D01*
X195387938Y-86976413D01*
X195449094Y-87204655D01*
X195449096Y-87204659D01*
X195449097Y-87204663D01*
X195517701Y-87351784D01*
X195548965Y-87418830D01*
X195548967Y-87418834D01*
X195650793Y-87564256D01*
X195684505Y-87612401D01*
X195851599Y-87779495D01*
X195948384Y-87847265D01*
X196045165Y-87915032D01*
X196045167Y-87915033D01*
X196045170Y-87915035D01*
X196259337Y-88014903D01*
X196487592Y-88076063D01*
X196664034Y-88091500D01*
X196722999Y-88096659D01*
X196723000Y-88096659D01*
X196723001Y-88096659D01*
X196781966Y-88091500D01*
X196958408Y-88076063D01*
X197186663Y-88014903D01*
X197400830Y-87915035D01*
X197594401Y-87779495D01*
X197716329Y-87657566D01*
X197777648Y-87624084D01*
X197847340Y-87629068D01*
X197903274Y-87670939D01*
X197920189Y-87701917D01*
X197969202Y-87833328D01*
X197969206Y-87833335D01*
X198055452Y-87948544D01*
X198055455Y-87948547D01*
X198170664Y-88034793D01*
X198170671Y-88034797D01*
X198305517Y-88085091D01*
X198305516Y-88085091D01*
X198312444Y-88085835D01*
X198365127Y-88091500D01*
X200160872Y-88091499D01*
X200220483Y-88085091D01*
X200355331Y-88034796D01*
X200470546Y-87948546D01*
X200556796Y-87833331D01*
X200607091Y-87698483D01*
X200613500Y-87638873D01*
X200613499Y-85843128D01*
X200607386Y-85786259D01*
X200607091Y-85783516D01*
X200556797Y-85648671D01*
X200556793Y-85648664D01*
X200470547Y-85533455D01*
X200470544Y-85533452D01*
X200355335Y-85447206D01*
X200355328Y-85447202D01*
X200220482Y-85396908D01*
X200220483Y-85396908D01*
X200160883Y-85390501D01*
X200160881Y-85390500D01*
X200160873Y-85390500D01*
X200160864Y-85390500D01*
X198365129Y-85390500D01*
X198365123Y-85390501D01*
X198305516Y-85396908D01*
X198170671Y-85447202D01*
X198170664Y-85447206D01*
X198055455Y-85533452D01*
X198055452Y-85533455D01*
X197969206Y-85648664D01*
X197969203Y-85648669D01*
X197920189Y-85780083D01*
X197878317Y-85836016D01*
X197812853Y-85860433D01*
X197744580Y-85845581D01*
X197716326Y-85824430D01*
X197594402Y-85702506D01*
X197594395Y-85702501D01*
X197586744Y-85697144D01*
X197517518Y-85648671D01*
X197400834Y-85566967D01*
X197400830Y-85566965D01*
X197400828Y-85566964D01*
X197186663Y-85467097D01*
X197186659Y-85467096D01*
X197186655Y-85467094D01*
X196958413Y-85405938D01*
X196958403Y-85405936D01*
X196723001Y-85385341D01*
X196722999Y-85385341D01*
X196487596Y-85405936D01*
X196487586Y-85405938D01*
X196259344Y-85467094D01*
X196259335Y-85467098D01*
X196045171Y-85566964D01*
X196045169Y-85566965D01*
X195851597Y-85702505D01*
X195684505Y-85869597D01*
X195548965Y-86063169D01*
X195548964Y-86063171D01*
X195449098Y-86277335D01*
X195449094Y-86277344D01*
X195387938Y-86505586D01*
X195387936Y-86505596D01*
X195367341Y-86740999D01*
X195367341Y-86741000D01*
X182960499Y-86741000D01*
X182960499Y-86092128D01*
X182954091Y-86032517D01*
X182903796Y-85897669D01*
X182903795Y-85897668D01*
X182903793Y-85897664D01*
X182817547Y-85782455D01*
X182817544Y-85782452D01*
X182702335Y-85696206D01*
X182702328Y-85696202D01*
X182567482Y-85645908D01*
X182567483Y-85645908D01*
X182507883Y-85639501D01*
X182507881Y-85639500D01*
X182507873Y-85639500D01*
X182507864Y-85639500D01*
X180712129Y-85639500D01*
X180712123Y-85639501D01*
X180652516Y-85645908D01*
X180517671Y-85696202D01*
X180517664Y-85696206D01*
X180402455Y-85782452D01*
X180402452Y-85782455D01*
X180316206Y-85897664D01*
X180316202Y-85897671D01*
X180265908Y-86032517D01*
X180262613Y-86063169D01*
X180259501Y-86092123D01*
X180259500Y-86092135D01*
X180259500Y-87887870D01*
X161899055Y-87887870D01*
X161921674Y-87818256D01*
X161941460Y-87630000D01*
X161921674Y-87441744D01*
X161863179Y-87261716D01*
X161768533Y-87097784D01*
X161641871Y-86957112D01*
X161641870Y-86957111D01*
X161488734Y-86845851D01*
X161488729Y-86845848D01*
X161315807Y-86768857D01*
X161315802Y-86768855D01*
X161170001Y-86737865D01*
X161130646Y-86729500D01*
X160941354Y-86729500D01*
X160908897Y-86736398D01*
X160756197Y-86768855D01*
X160756192Y-86768857D01*
X160583270Y-86845848D01*
X160583265Y-86845851D01*
X160430129Y-86957111D01*
X160303466Y-87097785D01*
X160208821Y-87261715D01*
X160208818Y-87261722D01*
X160157771Y-87418830D01*
X160150326Y-87441744D01*
X160130540Y-87630000D01*
X147168312Y-87630000D01*
X147189674Y-87564256D01*
X147209460Y-87376000D01*
X147189674Y-87187744D01*
X147131179Y-87007716D01*
X147036533Y-86843784D01*
X146909871Y-86703112D01*
X146909870Y-86703111D01*
X146756734Y-86591851D01*
X146756729Y-86591848D01*
X146583807Y-86514857D01*
X146583802Y-86514855D01*
X146438001Y-86483865D01*
X146398646Y-86475500D01*
X146209354Y-86475500D01*
X146176897Y-86482398D01*
X146024197Y-86514855D01*
X146024192Y-86514857D01*
X145851270Y-86591848D01*
X145851265Y-86591851D01*
X145698129Y-86703111D01*
X145571466Y-86843785D01*
X145476821Y-87007715D01*
X145476818Y-87007722D01*
X145446884Y-87099851D01*
X145418326Y-87187744D01*
X145398540Y-87376000D01*
X126984514Y-87376000D01*
X126970533Y-87351784D01*
X126843871Y-87211112D01*
X126811708Y-87187744D01*
X126690734Y-87099851D01*
X126690729Y-87099848D01*
X126517807Y-87022857D01*
X126517802Y-87022855D01*
X126372001Y-86991865D01*
X126332646Y-86983500D01*
X126143354Y-86983500D01*
X126110897Y-86990398D01*
X125958197Y-87022855D01*
X125958192Y-87022857D01*
X125785270Y-87099848D01*
X125785265Y-87099851D01*
X125632129Y-87211111D01*
X125505466Y-87351785D01*
X125410821Y-87515715D01*
X125410818Y-87515722D01*
X125352327Y-87695740D01*
X125352326Y-87695744D01*
X125332540Y-87884000D01*
X103886000Y-87884000D01*
X103886000Y-85852000D01*
X113902540Y-85852000D01*
X113922326Y-86040256D01*
X113922327Y-86040259D01*
X113980818Y-86220277D01*
X113980821Y-86220284D01*
X114075467Y-86384216D01*
X114142931Y-86459142D01*
X114202129Y-86524888D01*
X114355265Y-86636148D01*
X114355270Y-86636151D01*
X114528192Y-86713142D01*
X114528197Y-86713144D01*
X114713354Y-86752500D01*
X114713355Y-86752500D01*
X114902644Y-86752500D01*
X114902646Y-86752500D01*
X115087803Y-86713144D01*
X115260730Y-86636151D01*
X115413871Y-86524888D01*
X115540533Y-86384216D01*
X115635179Y-86220284D01*
X115693674Y-86040256D01*
X115713460Y-85852000D01*
X133714540Y-85852000D01*
X133734326Y-86040256D01*
X133734327Y-86040259D01*
X133792818Y-86220277D01*
X133792821Y-86220284D01*
X133887467Y-86384216D01*
X133954931Y-86459142D01*
X134014129Y-86524888D01*
X134167265Y-86636148D01*
X134167270Y-86636151D01*
X134340192Y-86713142D01*
X134340197Y-86713144D01*
X134525354Y-86752500D01*
X134525355Y-86752500D01*
X134714644Y-86752500D01*
X134714646Y-86752500D01*
X134899803Y-86713144D01*
X135072730Y-86636151D01*
X135225871Y-86524888D01*
X135352533Y-86384216D01*
X135447179Y-86220284D01*
X135505674Y-86040256D01*
X135525460Y-85852000D01*
X135505674Y-85663744D01*
X135484312Y-85598000D01*
X153272540Y-85598000D01*
X153292326Y-85786256D01*
X153292327Y-85786259D01*
X153350818Y-85966277D01*
X153350821Y-85966284D01*
X153445467Y-86130216D01*
X153526559Y-86220277D01*
X153572129Y-86270888D01*
X153725265Y-86382148D01*
X153725270Y-86382151D01*
X153898192Y-86459142D01*
X153898197Y-86459144D01*
X154083354Y-86498500D01*
X154083355Y-86498500D01*
X154272644Y-86498500D01*
X154272646Y-86498500D01*
X154457803Y-86459144D01*
X154630730Y-86382151D01*
X154783871Y-86270888D01*
X154910533Y-86130216D01*
X155005179Y-85966284D01*
X155063674Y-85786256D01*
X155083460Y-85598000D01*
X155063674Y-85409744D01*
X155005179Y-85229716D01*
X154910533Y-85065784D01*
X154783871Y-84925112D01*
X154783870Y-84925111D01*
X154630734Y-84813851D01*
X154630729Y-84813848D01*
X154457807Y-84736857D01*
X154457802Y-84736855D01*
X154312001Y-84705865D01*
X154272646Y-84697500D01*
X154083354Y-84697500D01*
X154050897Y-84704398D01*
X153898197Y-84736855D01*
X153898192Y-84736857D01*
X153725270Y-84813848D01*
X153725265Y-84813851D01*
X153572129Y-84925111D01*
X153445466Y-85065785D01*
X153350821Y-85229715D01*
X153350818Y-85229722D01*
X153292327Y-85409740D01*
X153292326Y-85409744D01*
X153272540Y-85598000D01*
X135484312Y-85598000D01*
X135447179Y-85483716D01*
X135352533Y-85319784D01*
X135225871Y-85179112D01*
X135225870Y-85179111D01*
X135072734Y-85067851D01*
X135072729Y-85067848D01*
X134899807Y-84990857D01*
X134899802Y-84990855D01*
X134754001Y-84959865D01*
X134714646Y-84951500D01*
X134525354Y-84951500D01*
X134492897Y-84958398D01*
X134340197Y-84990855D01*
X134340192Y-84990857D01*
X134167270Y-85067848D01*
X134167265Y-85067851D01*
X134014129Y-85179111D01*
X133887466Y-85319785D01*
X133792821Y-85483715D01*
X133792818Y-85483722D01*
X133734327Y-85663740D01*
X133734326Y-85663744D01*
X133714540Y-85852000D01*
X115713460Y-85852000D01*
X115693674Y-85663744D01*
X115635179Y-85483716D01*
X115540533Y-85319784D01*
X115413871Y-85179112D01*
X115413870Y-85179111D01*
X115260734Y-85067851D01*
X115260729Y-85067848D01*
X115087807Y-84990857D01*
X115087802Y-84990855D01*
X114942001Y-84959865D01*
X114902646Y-84951500D01*
X114713354Y-84951500D01*
X114680897Y-84958398D01*
X114528197Y-84990855D01*
X114528192Y-84990857D01*
X114355270Y-85067848D01*
X114355265Y-85067851D01*
X114202129Y-85179111D01*
X114075466Y-85319785D01*
X113980821Y-85483715D01*
X113980818Y-85483722D01*
X113922327Y-85663740D01*
X113922326Y-85663744D01*
X113902540Y-85852000D01*
X103886000Y-85852000D01*
X103886000Y-81788000D01*
X107298540Y-81788000D01*
X107318326Y-81976256D01*
X107318327Y-81976259D01*
X107376818Y-82156277D01*
X107376821Y-82156284D01*
X107471467Y-82320216D01*
X107576315Y-82436661D01*
X107598129Y-82460888D01*
X107751265Y-82572148D01*
X107751270Y-82572151D01*
X107924192Y-82649142D01*
X107924197Y-82649144D01*
X108109354Y-82688500D01*
X108109355Y-82688500D01*
X108298644Y-82688500D01*
X108298646Y-82688500D01*
X108483803Y-82649144D01*
X108656730Y-82572151D01*
X108809871Y-82460888D01*
X108936533Y-82320216D01*
X109031179Y-82156284D01*
X109089674Y-81976256D01*
X109109460Y-81788000D01*
X109089674Y-81599744D01*
X109031179Y-81419716D01*
X109016760Y-81394741D01*
X122709500Y-81394741D01*
X122734446Y-81584215D01*
X122739452Y-81622238D01*
X122739453Y-81622240D01*
X122798842Y-81843887D01*
X122886650Y-82055876D01*
X122886657Y-82055890D01*
X123001392Y-82254617D01*
X123141081Y-82436661D01*
X123141089Y-82436670D01*
X123303330Y-82598911D01*
X123303338Y-82598918D01*
X123485382Y-82738607D01*
X123485385Y-82738608D01*
X123485388Y-82738611D01*
X123684112Y-82853344D01*
X123684117Y-82853346D01*
X123684123Y-82853349D01*
X123775480Y-82891190D01*
X123896113Y-82941158D01*
X124117762Y-83000548D01*
X124345266Y-83030500D01*
X124345273Y-83030500D01*
X124574727Y-83030500D01*
X124574734Y-83030500D01*
X124802238Y-83000548D01*
X125023887Y-82941158D01*
X125235888Y-82853344D01*
X125321353Y-82804001D01*
X146684645Y-82804001D01*
X146704039Y-83075160D01*
X146704040Y-83075167D01*
X146761823Y-83340793D01*
X146761825Y-83340801D01*
X146808842Y-83466857D01*
X146856830Y-83595519D01*
X146987109Y-83834107D01*
X146987110Y-83834108D01*
X146987113Y-83834113D01*
X147150029Y-84051742D01*
X147150033Y-84051746D01*
X147150038Y-84051752D01*
X147342247Y-84243961D01*
X147342253Y-84243966D01*
X147342258Y-84243971D01*
X147559887Y-84406887D01*
X147559891Y-84406889D01*
X147559892Y-84406890D01*
X147798481Y-84537169D01*
X147798480Y-84537169D01*
X147798484Y-84537170D01*
X147798487Y-84537172D01*
X148053199Y-84632175D01*
X148318840Y-84689961D01*
X148570605Y-84707967D01*
X148589999Y-84709355D01*
X148590000Y-84709355D01*
X148590001Y-84709355D01*
X148608100Y-84708060D01*
X148861160Y-84689961D01*
X149126801Y-84632175D01*
X149381513Y-84537172D01*
X149381517Y-84537169D01*
X149381519Y-84537169D01*
X149508714Y-84467715D01*
X149620113Y-84406887D01*
X149725493Y-84328000D01*
X174100540Y-84328000D01*
X174120326Y-84516256D01*
X174120327Y-84516259D01*
X174178818Y-84696277D01*
X174178821Y-84696284D01*
X174273467Y-84860216D01*
X174331899Y-84925111D01*
X174400129Y-85000888D01*
X174553265Y-85112148D01*
X174553270Y-85112151D01*
X174726192Y-85189142D01*
X174726197Y-85189144D01*
X174911354Y-85228500D01*
X174911355Y-85228500D01*
X175100644Y-85228500D01*
X175100646Y-85228500D01*
X175285803Y-85189144D01*
X175458730Y-85112151D01*
X175611871Y-85000888D01*
X175738533Y-84860216D01*
X175752514Y-84836000D01*
X188577940Y-84836000D01*
X188597726Y-85024256D01*
X188597727Y-85024259D01*
X188656218Y-85204277D01*
X188656221Y-85204284D01*
X188750867Y-85368216D01*
X188877529Y-85508888D01*
X189030665Y-85620148D01*
X189030670Y-85620151D01*
X189203592Y-85697142D01*
X189203597Y-85697144D01*
X189388754Y-85736500D01*
X189388755Y-85736500D01*
X189578044Y-85736500D01*
X189578046Y-85736500D01*
X189763203Y-85697144D01*
X189936130Y-85620151D01*
X190089271Y-85508888D01*
X190215933Y-85368216D01*
X190310579Y-85204284D01*
X190369074Y-85024256D01*
X190388860Y-84836000D01*
X190369074Y-84647744D01*
X190310579Y-84467716D01*
X190215933Y-84303784D01*
X190089271Y-84163112D01*
X190057108Y-84139744D01*
X189936134Y-84051851D01*
X189936129Y-84051848D01*
X189763207Y-83974857D01*
X189763202Y-83974855D01*
X189617401Y-83943865D01*
X189578046Y-83935500D01*
X189388754Y-83935500D01*
X189356297Y-83942398D01*
X189203597Y-83974855D01*
X189203592Y-83974857D01*
X189030670Y-84051848D01*
X189030665Y-84051851D01*
X188877529Y-84163111D01*
X188750866Y-84303785D01*
X188656221Y-84467715D01*
X188656218Y-84467722D01*
X188602784Y-84632176D01*
X188597726Y-84647744D01*
X188577940Y-84836000D01*
X175752514Y-84836000D01*
X175833179Y-84696284D01*
X175891674Y-84516256D01*
X175911460Y-84328000D01*
X175891674Y-84139744D01*
X175833179Y-83959716D01*
X175738533Y-83795784D01*
X175611871Y-83655112D01*
X175611870Y-83655111D01*
X175458734Y-83543851D01*
X175458729Y-83543848D01*
X175285807Y-83466857D01*
X175285802Y-83466855D01*
X175140001Y-83435865D01*
X175100646Y-83427500D01*
X174911354Y-83427500D01*
X174878897Y-83434398D01*
X174726197Y-83466855D01*
X174726192Y-83466857D01*
X174553270Y-83543848D01*
X174553265Y-83543851D01*
X174400129Y-83655111D01*
X174273466Y-83795785D01*
X174178821Y-83959715D01*
X174178818Y-83959722D01*
X174148884Y-84051851D01*
X174120326Y-84139744D01*
X174100540Y-84328000D01*
X149725493Y-84328000D01*
X149837742Y-84243971D01*
X150029971Y-84051742D01*
X150192887Y-83834113D01*
X150323172Y-83595513D01*
X150418175Y-83340801D01*
X150475961Y-83075160D01*
X150495355Y-82804000D01*
X150475961Y-82532840D01*
X150418175Y-82267199D01*
X150323172Y-82012487D01*
X150323170Y-82012484D01*
X150323169Y-82012480D01*
X150192890Y-81773892D01*
X150192889Y-81773891D01*
X150192887Y-81773887D01*
X150029971Y-81556258D01*
X150029966Y-81556253D01*
X150029961Y-81556247D01*
X149868455Y-81394741D01*
X165889500Y-81394741D01*
X165914446Y-81584215D01*
X165919452Y-81622238D01*
X165919453Y-81622240D01*
X165978842Y-81843887D01*
X166066650Y-82055876D01*
X166066657Y-82055890D01*
X166181392Y-82254617D01*
X166321081Y-82436661D01*
X166321089Y-82436670D01*
X166483330Y-82598911D01*
X166483338Y-82598918D01*
X166665382Y-82738607D01*
X166665385Y-82738608D01*
X166665388Y-82738611D01*
X166864112Y-82853344D01*
X166864117Y-82853346D01*
X166864123Y-82853349D01*
X166955480Y-82891190D01*
X167076113Y-82941158D01*
X167297762Y-83000548D01*
X167525266Y-83030500D01*
X167525273Y-83030500D01*
X167754727Y-83030500D01*
X167754734Y-83030500D01*
X167982238Y-83000548D01*
X168203887Y-82941158D01*
X168415888Y-82853344D01*
X168614612Y-82738611D01*
X168796661Y-82598919D01*
X168796665Y-82598914D01*
X168796670Y-82598911D01*
X168958911Y-82436670D01*
X168958914Y-82436665D01*
X168958919Y-82436661D01*
X169098611Y-82254612D01*
X169213344Y-82055888D01*
X169301158Y-81843887D01*
X169360548Y-81622238D01*
X169390500Y-81394734D01*
X169390500Y-81280000D01*
X196198540Y-81280000D01*
X196218326Y-81468256D01*
X196218327Y-81468259D01*
X196276818Y-81648277D01*
X196276821Y-81648284D01*
X196371467Y-81812216D01*
X196399984Y-81843887D01*
X196498129Y-81952888D01*
X196651265Y-82064148D01*
X196651270Y-82064151D01*
X196824192Y-82141142D01*
X196824197Y-82141144D01*
X197009354Y-82180500D01*
X197009355Y-82180500D01*
X197198644Y-82180500D01*
X197198646Y-82180500D01*
X197383803Y-82141144D01*
X197556730Y-82064151D01*
X197709871Y-81952888D01*
X197836533Y-81812216D01*
X197931179Y-81648284D01*
X197989674Y-81468256D01*
X198009460Y-81280000D01*
X197989674Y-81091744D01*
X197933234Y-80918040D01*
X197931181Y-80911722D01*
X197931180Y-80911721D01*
X197931179Y-80911716D01*
X197836533Y-80747784D01*
X197709871Y-80607112D01*
X197709870Y-80607111D01*
X197556734Y-80495851D01*
X197556729Y-80495848D01*
X197383807Y-80418857D01*
X197383802Y-80418855D01*
X197238001Y-80387865D01*
X197198646Y-80379500D01*
X197009354Y-80379500D01*
X196976897Y-80386398D01*
X196824197Y-80418855D01*
X196824192Y-80418857D01*
X196651270Y-80495848D01*
X196651265Y-80495851D01*
X196498129Y-80607111D01*
X196371466Y-80747785D01*
X196276821Y-80911715D01*
X196276818Y-80911722D01*
X196246884Y-81003851D01*
X196218326Y-81091744D01*
X196198540Y-81280000D01*
X169390500Y-81280000D01*
X169390500Y-81165266D01*
X169360548Y-80937762D01*
X169301158Y-80716113D01*
X169213344Y-80504112D01*
X169098611Y-80305388D01*
X169098608Y-80305385D01*
X169098607Y-80305382D01*
X168958918Y-80123338D01*
X168958911Y-80123330D01*
X168796670Y-79961089D01*
X168796661Y-79961081D01*
X168614617Y-79821392D01*
X168415890Y-79706657D01*
X168415876Y-79706650D01*
X168203887Y-79618842D01*
X167982238Y-79559452D01*
X167944215Y-79554446D01*
X167754741Y-79529500D01*
X167754734Y-79529500D01*
X167525266Y-79529500D01*
X167525258Y-79529500D01*
X167308715Y-79558009D01*
X167297762Y-79559452D01*
X167204076Y-79584554D01*
X167076112Y-79618842D01*
X166864123Y-79706650D01*
X166864109Y-79706657D01*
X166665382Y-79821392D01*
X166483338Y-79961081D01*
X166321081Y-80123338D01*
X166181392Y-80305382D01*
X166066657Y-80504109D01*
X166066650Y-80504123D01*
X165978842Y-80716112D01*
X165944554Y-80844076D01*
X165922375Y-80926855D01*
X165919453Y-80937759D01*
X165919451Y-80937770D01*
X165889500Y-81165258D01*
X165889500Y-81394741D01*
X149868455Y-81394741D01*
X149837752Y-81364038D01*
X149837746Y-81364033D01*
X149837742Y-81364029D01*
X149620113Y-81201113D01*
X149620108Y-81201110D01*
X149620107Y-81201109D01*
X149381518Y-81070830D01*
X149381519Y-81070830D01*
X149331920Y-81052330D01*
X149126801Y-80975825D01*
X149126794Y-80975823D01*
X149126793Y-80975823D01*
X148861167Y-80918040D01*
X148861160Y-80918039D01*
X148590001Y-80898645D01*
X148589999Y-80898645D01*
X148318839Y-80918039D01*
X148318832Y-80918040D01*
X148053206Y-80975823D01*
X148053202Y-80975824D01*
X148053199Y-80975825D01*
X147978059Y-81003851D01*
X147798480Y-81070830D01*
X147559892Y-81201109D01*
X147559891Y-81201110D01*
X147342259Y-81364028D01*
X147342247Y-81364038D01*
X147150038Y-81556247D01*
X147150028Y-81556259D01*
X146987110Y-81773891D01*
X146987109Y-81773892D01*
X146856830Y-82012480D01*
X146840640Y-82055888D01*
X146761825Y-82267199D01*
X146761824Y-82267202D01*
X146761823Y-82267206D01*
X146704040Y-82532832D01*
X146704039Y-82532839D01*
X146684645Y-82803998D01*
X146684645Y-82804001D01*
X125321353Y-82804001D01*
X125434612Y-82738611D01*
X125616661Y-82598919D01*
X125616665Y-82598914D01*
X125616670Y-82598911D01*
X125778911Y-82436670D01*
X125778914Y-82436665D01*
X125778919Y-82436661D01*
X125918611Y-82254612D01*
X126033344Y-82055888D01*
X126121158Y-81843887D01*
X126180548Y-81622238D01*
X126210500Y-81394734D01*
X126210500Y-81165266D01*
X126180548Y-80937762D01*
X126121158Y-80716113D01*
X126033344Y-80504112D01*
X125918611Y-80305388D01*
X125918608Y-80305385D01*
X125918607Y-80305382D01*
X125778918Y-80123338D01*
X125778911Y-80123330D01*
X125616670Y-79961089D01*
X125616661Y-79961081D01*
X125434617Y-79821392D01*
X125235890Y-79706657D01*
X125235876Y-79706650D01*
X125023887Y-79618842D01*
X124802238Y-79559452D01*
X124764215Y-79554446D01*
X124574741Y-79529500D01*
X124574734Y-79529500D01*
X124345266Y-79529500D01*
X124345258Y-79529500D01*
X124128715Y-79558009D01*
X124117762Y-79559452D01*
X124024076Y-79584554D01*
X123896112Y-79618842D01*
X123684123Y-79706650D01*
X123684109Y-79706657D01*
X123485382Y-79821392D01*
X123303338Y-79961081D01*
X123141081Y-80123338D01*
X123001392Y-80305382D01*
X122886657Y-80504109D01*
X122886650Y-80504123D01*
X122798842Y-80716112D01*
X122764554Y-80844076D01*
X122742375Y-80926855D01*
X122739453Y-80937759D01*
X122739451Y-80937770D01*
X122709500Y-81165258D01*
X122709500Y-81394741D01*
X109016760Y-81394741D01*
X108936533Y-81255784D01*
X108809871Y-81115112D01*
X108777708Y-81091744D01*
X108656734Y-81003851D01*
X108656729Y-81003848D01*
X108483807Y-80926857D01*
X108483802Y-80926855D01*
X108338001Y-80895865D01*
X108298646Y-80887500D01*
X108109354Y-80887500D01*
X108076897Y-80894398D01*
X107924197Y-80926855D01*
X107924192Y-80926857D01*
X107751270Y-81003848D01*
X107751265Y-81003851D01*
X107598129Y-81115111D01*
X107471466Y-81255785D01*
X107376821Y-81419715D01*
X107376818Y-81419722D01*
X107332455Y-81556259D01*
X107318326Y-81599744D01*
X107298540Y-81788000D01*
X103886000Y-81788000D01*
X103886000Y-77978000D01*
X145398540Y-77978000D01*
X145418326Y-78166256D01*
X145418327Y-78166259D01*
X145476818Y-78346277D01*
X145476821Y-78346284D01*
X145571467Y-78510216D01*
X145638931Y-78585142D01*
X145698129Y-78650888D01*
X145851265Y-78762148D01*
X145851270Y-78762151D01*
X146024192Y-78839142D01*
X146024197Y-78839144D01*
X146209354Y-78878500D01*
X146209355Y-78878500D01*
X146398644Y-78878500D01*
X146398646Y-78878500D01*
X146583803Y-78839144D01*
X146756730Y-78762151D01*
X146909871Y-78650888D01*
X147036533Y-78510216D01*
X147131179Y-78346284D01*
X147189674Y-78166256D01*
X147209460Y-77978000D01*
X147189674Y-77789744D01*
X147168312Y-77724000D01*
X161400540Y-77724000D01*
X161420326Y-77912256D01*
X161420327Y-77912259D01*
X161478818Y-78092277D01*
X161478821Y-78092284D01*
X161573467Y-78256216D01*
X161654559Y-78346277D01*
X161700129Y-78396888D01*
X161853265Y-78508148D01*
X161853270Y-78508151D01*
X162026192Y-78585142D01*
X162026197Y-78585144D01*
X162211354Y-78624500D01*
X162211355Y-78624500D01*
X162400644Y-78624500D01*
X162400646Y-78624500D01*
X162585803Y-78585144D01*
X162758730Y-78508151D01*
X162911871Y-78396888D01*
X163038533Y-78256216D01*
X163133179Y-78092284D01*
X163191674Y-77912256D01*
X163211460Y-77724000D01*
X163191674Y-77535744D01*
X163133179Y-77355716D01*
X163038533Y-77191784D01*
X162911871Y-77051112D01*
X162911870Y-77051111D01*
X162758734Y-76939851D01*
X162758729Y-76939848D01*
X162585807Y-76862857D01*
X162585802Y-76862855D01*
X162440001Y-76831865D01*
X162400646Y-76823500D01*
X162211354Y-76823500D01*
X162178897Y-76830398D01*
X162026197Y-76862855D01*
X162026192Y-76862857D01*
X161853270Y-76939848D01*
X161853265Y-76939851D01*
X161700129Y-77051111D01*
X161573466Y-77191785D01*
X161478821Y-77355715D01*
X161478818Y-77355722D01*
X161420327Y-77535740D01*
X161420326Y-77535744D01*
X161400540Y-77724000D01*
X147168312Y-77724000D01*
X147131179Y-77609716D01*
X147036533Y-77445784D01*
X146909871Y-77305112D01*
X146909870Y-77305111D01*
X146756734Y-77193851D01*
X146756729Y-77193848D01*
X146583807Y-77116857D01*
X146583802Y-77116855D01*
X146438001Y-77085865D01*
X146398646Y-77077500D01*
X146209354Y-77077500D01*
X146176897Y-77084398D01*
X146024197Y-77116855D01*
X146024192Y-77116857D01*
X145851270Y-77193848D01*
X145851265Y-77193851D01*
X145698129Y-77305111D01*
X145571466Y-77445785D01*
X145476821Y-77609715D01*
X145476818Y-77609722D01*
X145418327Y-77789740D01*
X145418326Y-77789744D01*
X145398540Y-77978000D01*
X103886000Y-77978000D01*
X103886000Y-75946000D01*
X125840540Y-75946000D01*
X125860326Y-76134256D01*
X125860327Y-76134259D01*
X125918818Y-76314277D01*
X125918821Y-76314284D01*
X126013467Y-76478216D01*
X126140129Y-76618888D01*
X126293265Y-76730148D01*
X126293270Y-76730151D01*
X126466192Y-76807142D01*
X126466197Y-76807144D01*
X126651354Y-76846500D01*
X126651355Y-76846500D01*
X126840644Y-76846500D01*
X126840646Y-76846500D01*
X127025803Y-76807144D01*
X127198730Y-76730151D01*
X127351871Y-76618888D01*
X127478533Y-76478216D01*
X127573179Y-76314284D01*
X127631674Y-76134256D01*
X127651460Y-75946000D01*
X127631674Y-75757744D01*
X127573179Y-75577716D01*
X127478533Y-75413784D01*
X127351871Y-75273112D01*
X127351870Y-75273111D01*
X127198734Y-75161851D01*
X127198729Y-75161848D01*
X127025807Y-75084857D01*
X127025802Y-75084855D01*
X126880001Y-75053865D01*
X126840646Y-75045500D01*
X126651354Y-75045500D01*
X126618897Y-75052398D01*
X126466197Y-75084855D01*
X126466192Y-75084857D01*
X126293270Y-75161848D01*
X126293265Y-75161851D01*
X126140129Y-75273111D01*
X126013466Y-75413785D01*
X125918821Y-75577715D01*
X125918818Y-75577722D01*
X125860327Y-75757740D01*
X125860326Y-75757744D01*
X125840540Y-75946000D01*
X103886000Y-75946000D01*
X103886000Y-72898000D01*
X182482540Y-72898000D01*
X182502326Y-73086256D01*
X182502327Y-73086259D01*
X182560818Y-73266277D01*
X182560821Y-73266284D01*
X182655467Y-73430216D01*
X182782129Y-73570888D01*
X182935265Y-73682148D01*
X182935270Y-73682151D01*
X183108192Y-73759142D01*
X183108197Y-73759144D01*
X183293354Y-73798500D01*
X183293355Y-73798500D01*
X183482644Y-73798500D01*
X183482646Y-73798500D01*
X183667803Y-73759144D01*
X183840730Y-73682151D01*
X183993871Y-73570888D01*
X184120533Y-73430216D01*
X184215179Y-73266284D01*
X184273674Y-73086256D01*
X184293460Y-72898000D01*
X184289414Y-72859500D01*
X197214540Y-72859500D01*
X197234326Y-73047756D01*
X197234327Y-73047759D01*
X197292818Y-73227777D01*
X197292821Y-73227784D01*
X197387467Y-73391716D01*
X197422131Y-73430214D01*
X197514129Y-73532388D01*
X197667265Y-73643648D01*
X197667270Y-73643651D01*
X197840192Y-73720642D01*
X197840197Y-73720644D01*
X198025354Y-73760000D01*
X198025355Y-73760000D01*
X198214644Y-73760000D01*
X198214646Y-73760000D01*
X198399803Y-73720644D01*
X198572730Y-73643651D01*
X198725871Y-73532388D01*
X198852533Y-73391716D01*
X198947179Y-73227784D01*
X199005674Y-73047756D01*
X199025460Y-72859500D01*
X199005674Y-72671244D01*
X198947179Y-72491216D01*
X198852533Y-72327284D01*
X198725871Y-72186612D01*
X198725870Y-72186611D01*
X198572734Y-72075351D01*
X198572729Y-72075348D01*
X198399807Y-71998357D01*
X198399802Y-71998355D01*
X198254001Y-71967365D01*
X198214646Y-71959000D01*
X198025354Y-71959000D01*
X197992897Y-71965898D01*
X197840197Y-71998355D01*
X197840192Y-71998357D01*
X197667270Y-72075348D01*
X197667265Y-72075351D01*
X197514129Y-72186611D01*
X197387466Y-72327285D01*
X197292821Y-72491215D01*
X197292818Y-72491222D01*
X197234327Y-72671240D01*
X197234326Y-72671244D01*
X197214540Y-72859500D01*
X184289414Y-72859500D01*
X184273674Y-72709744D01*
X184215179Y-72529716D01*
X184120533Y-72365784D01*
X183993871Y-72225112D01*
X183993870Y-72225111D01*
X183840734Y-72113851D01*
X183840729Y-72113848D01*
X183667807Y-72036857D01*
X183667802Y-72036855D01*
X183522001Y-72005865D01*
X183482646Y-71997500D01*
X183293354Y-71997500D01*
X183260897Y-72004398D01*
X183108197Y-72036855D01*
X183108192Y-72036857D01*
X182935270Y-72113848D01*
X182935265Y-72113851D01*
X182782129Y-72225111D01*
X182655466Y-72365785D01*
X182560821Y-72529715D01*
X182560818Y-72529722D01*
X182514835Y-72671244D01*
X182502326Y-72709744D01*
X182482540Y-72898000D01*
X103886000Y-72898000D01*
X103886000Y-71120000D01*
X107298540Y-71120000D01*
X107318326Y-71308256D01*
X107318327Y-71308259D01*
X107376818Y-71488277D01*
X107376821Y-71488284D01*
X107471467Y-71652216D01*
X107598129Y-71792888D01*
X107751265Y-71904148D01*
X107751270Y-71904151D01*
X107924192Y-71981142D01*
X107924197Y-71981144D01*
X108109354Y-72020500D01*
X108109355Y-72020500D01*
X108298644Y-72020500D01*
X108298646Y-72020500D01*
X108483803Y-71981144D01*
X108656730Y-71904151D01*
X108809871Y-71792888D01*
X108936533Y-71652216D01*
X109031179Y-71488284D01*
X109089674Y-71308256D01*
X109109460Y-71120000D01*
X109089674Y-70931744D01*
X109035658Y-70765500D01*
X190102540Y-70765500D01*
X190122326Y-70953756D01*
X190122327Y-70953759D01*
X190180818Y-71133777D01*
X190180821Y-71133784D01*
X190275467Y-71297716D01*
X190402129Y-71438388D01*
X190555265Y-71549648D01*
X190555270Y-71549651D01*
X190728192Y-71626642D01*
X190728197Y-71626644D01*
X190913354Y-71666000D01*
X190913355Y-71666000D01*
X191102644Y-71666000D01*
X191102646Y-71666000D01*
X191287803Y-71626644D01*
X191460730Y-71549651D01*
X191613871Y-71438388D01*
X191740533Y-71297716D01*
X191835179Y-71133784D01*
X191893674Y-70953756D01*
X191913460Y-70765500D01*
X191893674Y-70577244D01*
X191835179Y-70397216D01*
X191740533Y-70233284D01*
X191613871Y-70092612D01*
X191613870Y-70092611D01*
X191460734Y-69981351D01*
X191460729Y-69981348D01*
X191287807Y-69904357D01*
X191287802Y-69904355D01*
X191142001Y-69873365D01*
X191102646Y-69865000D01*
X190913354Y-69865000D01*
X190880897Y-69871898D01*
X190728197Y-69904355D01*
X190728192Y-69904357D01*
X190555270Y-69981348D01*
X190555265Y-69981351D01*
X190402129Y-70092611D01*
X190275466Y-70233285D01*
X190180821Y-70397215D01*
X190180818Y-70397222D01*
X190122327Y-70577240D01*
X190122326Y-70577244D01*
X190102540Y-70765500D01*
X109035658Y-70765500D01*
X109031179Y-70751716D01*
X108936533Y-70587784D01*
X108809871Y-70447112D01*
X108809870Y-70447111D01*
X108656734Y-70335851D01*
X108656729Y-70335848D01*
X108483807Y-70258857D01*
X108483802Y-70258855D01*
X108338001Y-70227865D01*
X108298646Y-70219500D01*
X108109354Y-70219500D01*
X108076897Y-70226398D01*
X107924197Y-70258855D01*
X107924192Y-70258857D01*
X107751270Y-70335848D01*
X107751265Y-70335851D01*
X107598129Y-70447111D01*
X107471466Y-70587785D01*
X107376821Y-70751715D01*
X107376818Y-70751722D01*
X107318327Y-70931740D01*
X107318326Y-70931744D01*
X107298540Y-71120000D01*
X103886000Y-71120000D01*
X103886000Y-69188500D01*
X176487040Y-69188500D01*
X176506826Y-69376756D01*
X176506827Y-69376759D01*
X176565318Y-69556777D01*
X176565321Y-69556784D01*
X176659967Y-69720716D01*
X176786629Y-69861388D01*
X176939765Y-69972648D01*
X176939770Y-69972651D01*
X177112692Y-70049642D01*
X177112697Y-70049644D01*
X177297854Y-70089000D01*
X177297855Y-70089000D01*
X177487144Y-70089000D01*
X177487146Y-70089000D01*
X177672303Y-70049644D01*
X177845230Y-69972651D01*
X177998371Y-69861388D01*
X178125033Y-69720716D01*
X178219679Y-69556784D01*
X178278174Y-69376756D01*
X178297960Y-69188500D01*
X178278174Y-69000244D01*
X178224158Y-68834000D01*
X187816540Y-68834000D01*
X187836326Y-69022256D01*
X187836327Y-69022259D01*
X187894818Y-69202277D01*
X187894821Y-69202284D01*
X187989467Y-69366216D01*
X188116129Y-69506888D01*
X188269265Y-69618148D01*
X188269270Y-69618151D01*
X188442192Y-69695142D01*
X188442197Y-69695144D01*
X188627354Y-69734500D01*
X188627355Y-69734500D01*
X188816644Y-69734500D01*
X188816646Y-69734500D01*
X189001803Y-69695144D01*
X189174730Y-69618151D01*
X189327871Y-69506888D01*
X189454533Y-69366216D01*
X189549179Y-69202284D01*
X189607674Y-69022256D01*
X189627460Y-68834000D01*
X189607674Y-68645744D01*
X189549179Y-68465716D01*
X189454533Y-68301784D01*
X189327871Y-68161112D01*
X189327870Y-68161111D01*
X189174734Y-68049851D01*
X189174729Y-68049848D01*
X189001807Y-67972857D01*
X189001802Y-67972855D01*
X188856001Y-67941865D01*
X188816646Y-67933500D01*
X188627354Y-67933500D01*
X188594897Y-67940398D01*
X188442197Y-67972855D01*
X188442192Y-67972857D01*
X188269270Y-68049848D01*
X188269265Y-68049851D01*
X188116129Y-68161111D01*
X187989466Y-68301785D01*
X187894821Y-68465715D01*
X187894818Y-68465722D01*
X187836327Y-68645740D01*
X187836326Y-68645744D01*
X187816540Y-68834000D01*
X178224158Y-68834000D01*
X178219679Y-68820216D01*
X178125033Y-68656284D01*
X177998371Y-68515612D01*
X177998370Y-68515611D01*
X177845234Y-68404351D01*
X177845229Y-68404348D01*
X177672307Y-68327357D01*
X177672302Y-68327355D01*
X177526501Y-68296365D01*
X177487146Y-68288000D01*
X177297854Y-68288000D01*
X177265397Y-68294898D01*
X177112697Y-68327355D01*
X177112692Y-68327357D01*
X176939770Y-68404348D01*
X176939765Y-68404351D01*
X176786629Y-68515611D01*
X176659966Y-68656285D01*
X176565321Y-68820215D01*
X176565318Y-68820222D01*
X176506827Y-69000240D01*
X176506826Y-69000244D01*
X176487040Y-69188500D01*
X103886000Y-69188500D01*
X103886000Y-64284222D01*
X111791500Y-64284222D01*
X111808742Y-64393086D01*
X111825985Y-64501952D01*
X111894103Y-64711603D01*
X111894104Y-64711606D01*
X111994187Y-64908025D01*
X112123752Y-65086358D01*
X112123756Y-65086363D01*
X112279636Y-65242243D01*
X112279641Y-65242247D01*
X112298911Y-65256247D01*
X112457978Y-65371815D01*
X112586375Y-65437237D01*
X112654393Y-65471895D01*
X112654396Y-65471896D01*
X112697482Y-65485895D01*
X112864049Y-65540015D01*
X113081778Y-65574500D01*
X113081779Y-65574500D01*
X114302221Y-65574500D01*
X114302222Y-65574500D01*
X114519951Y-65540015D01*
X114729606Y-65471895D01*
X114926022Y-65371815D01*
X115104365Y-65242242D01*
X115260242Y-65086365D01*
X115389815Y-64908022D01*
X115489895Y-64711606D01*
X115558015Y-64501951D01*
X115590283Y-64298221D01*
X131703500Y-64298221D01*
X131737985Y-64515952D01*
X131806103Y-64725603D01*
X131806104Y-64725606D01*
X131906187Y-64922025D01*
X132035752Y-65100358D01*
X132035756Y-65100363D01*
X132191636Y-65256243D01*
X132191641Y-65256247D01*
X132347192Y-65369260D01*
X132369978Y-65385815D01*
X132498375Y-65451237D01*
X132566393Y-65485895D01*
X132566396Y-65485896D01*
X132671221Y-65519955D01*
X132776049Y-65554015D01*
X132993778Y-65588500D01*
X132993779Y-65588500D01*
X134214221Y-65588500D01*
X134214222Y-65588500D01*
X134431951Y-65554015D01*
X134641606Y-65485895D01*
X134838022Y-65385815D01*
X135016365Y-65256242D01*
X135172242Y-65100365D01*
X135301815Y-64922022D01*
X135401895Y-64725606D01*
X135470015Y-64515951D01*
X135504500Y-64298222D01*
X135504500Y-64298221D01*
X151415500Y-64298221D01*
X151449985Y-64515952D01*
X151518103Y-64725603D01*
X151518104Y-64725606D01*
X151618187Y-64922025D01*
X151747752Y-65100358D01*
X151747756Y-65100363D01*
X151903636Y-65256243D01*
X151903641Y-65256247D01*
X152059192Y-65369260D01*
X152081978Y-65385815D01*
X152210375Y-65451237D01*
X152278393Y-65485895D01*
X152278396Y-65485896D01*
X152383221Y-65519955D01*
X152488049Y-65554015D01*
X152705778Y-65588500D01*
X152705779Y-65588500D01*
X153926221Y-65588500D01*
X153926222Y-65588500D01*
X154143951Y-65554015D01*
X154353606Y-65485895D01*
X154550022Y-65385815D01*
X154728365Y-65256242D01*
X154884242Y-65100365D01*
X155013815Y-64922022D01*
X155113895Y-64725606D01*
X155182015Y-64515951D01*
X155216500Y-64298222D01*
X155216500Y-64298221D01*
X171200500Y-64298221D01*
X171234985Y-64515952D01*
X171303103Y-64725603D01*
X171303104Y-64725606D01*
X171403187Y-64922025D01*
X171532752Y-65100358D01*
X171532756Y-65100363D01*
X171688636Y-65256243D01*
X171688641Y-65256247D01*
X171844192Y-65369260D01*
X171866978Y-65385815D01*
X171995375Y-65451237D01*
X172063393Y-65485895D01*
X172063396Y-65485896D01*
X172168221Y-65519955D01*
X172273049Y-65554015D01*
X172490778Y-65588500D01*
X172490779Y-65588500D01*
X173711221Y-65588500D01*
X173711222Y-65588500D01*
X173928951Y-65554015D01*
X174138606Y-65485895D01*
X174335022Y-65385815D01*
X174513365Y-65256242D01*
X174669242Y-65100365D01*
X174798815Y-64922022D01*
X174898895Y-64725606D01*
X174967015Y-64515951D01*
X175001500Y-64298222D01*
X175001500Y-64298221D01*
X191039500Y-64298221D01*
X191073985Y-64515952D01*
X191142103Y-64725603D01*
X191142104Y-64725606D01*
X191242187Y-64922025D01*
X191371752Y-65100358D01*
X191371756Y-65100363D01*
X191527636Y-65256243D01*
X191527641Y-65256247D01*
X191683192Y-65369260D01*
X191705978Y-65385815D01*
X191834375Y-65451237D01*
X191902393Y-65485895D01*
X191902396Y-65485896D01*
X192007221Y-65519955D01*
X192112049Y-65554015D01*
X192329778Y-65588500D01*
X192329779Y-65588500D01*
X193550221Y-65588500D01*
X193550222Y-65588500D01*
X193767951Y-65554015D01*
X193977606Y-65485895D01*
X194174022Y-65385815D01*
X194352365Y-65256242D01*
X194508242Y-65100365D01*
X194637815Y-64922022D01*
X194737895Y-64725606D01*
X194806015Y-64515951D01*
X194840500Y-64298222D01*
X194840500Y-64077778D01*
X194806015Y-63860049D01*
X194737895Y-63650394D01*
X194737895Y-63650393D01*
X194703237Y-63582375D01*
X194637815Y-63453978D01*
X194621260Y-63431192D01*
X194508247Y-63275641D01*
X194508243Y-63275636D01*
X194352363Y-63119756D01*
X194352358Y-63119752D01*
X194174025Y-62990187D01*
X194174024Y-62990186D01*
X194174022Y-62990185D01*
X194111096Y-62958122D01*
X193977606Y-62890104D01*
X193977603Y-62890103D01*
X193767952Y-62821985D01*
X193659086Y-62804742D01*
X193550222Y-62787500D01*
X192329778Y-62787500D01*
X192257201Y-62798995D01*
X192112047Y-62821985D01*
X191902396Y-62890103D01*
X191902393Y-62890104D01*
X191705974Y-62990187D01*
X191527641Y-63119752D01*
X191527636Y-63119756D01*
X191371756Y-63275636D01*
X191371752Y-63275641D01*
X191242187Y-63453974D01*
X191142104Y-63650393D01*
X191142103Y-63650396D01*
X191073985Y-63860047D01*
X191039500Y-64077778D01*
X191039500Y-64298221D01*
X175001500Y-64298221D01*
X175001500Y-64077778D01*
X174967015Y-63860049D01*
X174898895Y-63650394D01*
X174898895Y-63650393D01*
X174864237Y-63582375D01*
X174798815Y-63453978D01*
X174782260Y-63431192D01*
X174669247Y-63275641D01*
X174669243Y-63275636D01*
X174513363Y-63119756D01*
X174513358Y-63119752D01*
X174335025Y-62990187D01*
X174335024Y-62990186D01*
X174335022Y-62990185D01*
X174272096Y-62958122D01*
X174138606Y-62890104D01*
X174138603Y-62890103D01*
X173928952Y-62821985D01*
X173820086Y-62804742D01*
X173711222Y-62787500D01*
X172490778Y-62787500D01*
X172418201Y-62798995D01*
X172273047Y-62821985D01*
X172063396Y-62890103D01*
X172063393Y-62890104D01*
X171866974Y-62990187D01*
X171688641Y-63119752D01*
X171688636Y-63119756D01*
X171532756Y-63275636D01*
X171532752Y-63275641D01*
X171403187Y-63453974D01*
X171303104Y-63650393D01*
X171303103Y-63650396D01*
X171234985Y-63860047D01*
X171200500Y-64077778D01*
X171200500Y-64298221D01*
X155216500Y-64298221D01*
X155216500Y-64077778D01*
X155182015Y-63860049D01*
X155113895Y-63650394D01*
X155113895Y-63650393D01*
X155079237Y-63582375D01*
X155013815Y-63453978D01*
X154997260Y-63431192D01*
X154884247Y-63275641D01*
X154884243Y-63275636D01*
X154728363Y-63119756D01*
X154728358Y-63119752D01*
X154550025Y-62990187D01*
X154550024Y-62990186D01*
X154550022Y-62990185D01*
X154487096Y-62958122D01*
X154353606Y-62890104D01*
X154353603Y-62890103D01*
X154143952Y-62821985D01*
X154035086Y-62804742D01*
X153926222Y-62787500D01*
X152705778Y-62787500D01*
X152633201Y-62798995D01*
X152488047Y-62821985D01*
X152278396Y-62890103D01*
X152278393Y-62890104D01*
X152081974Y-62990187D01*
X151903641Y-63119752D01*
X151903636Y-63119756D01*
X151747756Y-63275636D01*
X151747752Y-63275641D01*
X151618187Y-63453974D01*
X151518104Y-63650393D01*
X151518103Y-63650396D01*
X151449985Y-63860047D01*
X151415500Y-64077778D01*
X151415500Y-64298221D01*
X135504500Y-64298221D01*
X135504500Y-64077778D01*
X135470015Y-63860049D01*
X135401895Y-63650394D01*
X135401895Y-63650393D01*
X135367237Y-63582375D01*
X135301815Y-63453978D01*
X135285260Y-63431192D01*
X135172247Y-63275641D01*
X135172243Y-63275636D01*
X135016363Y-63119756D01*
X135016358Y-63119752D01*
X134838025Y-62990187D01*
X134838024Y-62990186D01*
X134838022Y-62990185D01*
X134775096Y-62958122D01*
X134641606Y-62890104D01*
X134641603Y-62890103D01*
X134431952Y-62821985D01*
X134323086Y-62804742D01*
X134214222Y-62787500D01*
X132993778Y-62787500D01*
X132921201Y-62798995D01*
X132776047Y-62821985D01*
X132566396Y-62890103D01*
X132566393Y-62890104D01*
X132369974Y-62990187D01*
X132191641Y-63119752D01*
X132191636Y-63119756D01*
X132035756Y-63275636D01*
X132035752Y-63275641D01*
X131906187Y-63453974D01*
X131806104Y-63650393D01*
X131806103Y-63650396D01*
X131737985Y-63860047D01*
X131703500Y-64077778D01*
X131703500Y-64298221D01*
X115590283Y-64298221D01*
X115592500Y-64284222D01*
X115592500Y-64063778D01*
X115558015Y-63846049D01*
X115523955Y-63741221D01*
X115489896Y-63636396D01*
X115489895Y-63636393D01*
X115396946Y-63453974D01*
X115389815Y-63439978D01*
X115270418Y-63275641D01*
X115260247Y-63261641D01*
X115260243Y-63261636D01*
X115104363Y-63105756D01*
X115104358Y-63105752D01*
X114926025Y-62976187D01*
X114926024Y-62976186D01*
X114926022Y-62976185D01*
X114863096Y-62944122D01*
X114729606Y-62876104D01*
X114729603Y-62876103D01*
X114519952Y-62807985D01*
X114390614Y-62787500D01*
X114302222Y-62773500D01*
X113081778Y-62773500D01*
X113009201Y-62784995D01*
X112864047Y-62807985D01*
X112654396Y-62876103D01*
X112654393Y-62876104D01*
X112457974Y-62976187D01*
X112279641Y-63105752D01*
X112279636Y-63105756D01*
X112123756Y-63261636D01*
X112123752Y-63261641D01*
X111994187Y-63439974D01*
X111894104Y-63636393D01*
X111894103Y-63636396D01*
X111825985Y-63846047D01*
X111791500Y-64063778D01*
X111791500Y-64284222D01*
X103886000Y-64284222D01*
X103886000Y-58784222D01*
X111791500Y-58784222D01*
X111808742Y-58893086D01*
X111825985Y-59001952D01*
X111894103Y-59211603D01*
X111894104Y-59211606D01*
X111934143Y-59290185D01*
X111993031Y-59405758D01*
X111994187Y-59408025D01*
X112123752Y-59586358D01*
X112123756Y-59586363D01*
X112279636Y-59742243D01*
X112279641Y-59742247D01*
X112298911Y-59756247D01*
X112457978Y-59871815D01*
X112584718Y-59936393D01*
X112654393Y-59971895D01*
X112654396Y-59971896D01*
X112697482Y-59985895D01*
X112864049Y-60040015D01*
X113081778Y-60074500D01*
X113692132Y-60074500D01*
X113759171Y-60094185D01*
X113804926Y-60146989D01*
X113814870Y-60216147D01*
X113814605Y-60217898D01*
X113791500Y-60363778D01*
X113791500Y-60584222D01*
X113808742Y-60693086D01*
X113825985Y-60801952D01*
X113894103Y-61011603D01*
X113894104Y-61011606D01*
X113994187Y-61208025D01*
X114123752Y-61386358D01*
X114123756Y-61386363D01*
X114279636Y-61542243D01*
X114279641Y-61542247D01*
X114298911Y-61556247D01*
X114457978Y-61671815D01*
X114586375Y-61737237D01*
X114654393Y-61771895D01*
X114654396Y-61771896D01*
X114697482Y-61785895D01*
X114864049Y-61840015D01*
X115081778Y-61874500D01*
X115081779Y-61874500D01*
X116302221Y-61874500D01*
X116302222Y-61874500D01*
X116519951Y-61840015D01*
X116729606Y-61771895D01*
X116926022Y-61671815D01*
X117104365Y-61542242D01*
X117260242Y-61386365D01*
X117389815Y-61208022D01*
X117489895Y-61011606D01*
X117558015Y-60801951D01*
X117592500Y-60584222D01*
X117592500Y-60363778D01*
X117558015Y-60146049D01*
X117501430Y-59971895D01*
X117489896Y-59936396D01*
X117489895Y-59936393D01*
X117455237Y-59868375D01*
X117389815Y-59739978D01*
X117288381Y-59600365D01*
X117260247Y-59561641D01*
X117260243Y-59561636D01*
X117104363Y-59405756D01*
X117104358Y-59405752D01*
X116926025Y-59276187D01*
X116926024Y-59276186D01*
X116926022Y-59276185D01*
X116863096Y-59244122D01*
X116729606Y-59176104D01*
X116729603Y-59176103D01*
X116519952Y-59107985D01*
X116390614Y-59087500D01*
X116302222Y-59073500D01*
X116302221Y-59073500D01*
X115691868Y-59073500D01*
X115624829Y-59053815D01*
X115579074Y-59001011D01*
X115569130Y-58931853D01*
X115569395Y-58930102D01*
X115582250Y-58848932D01*
X115590283Y-58798221D01*
X131703500Y-58798221D01*
X131737985Y-59015952D01*
X131806103Y-59225603D01*
X131806104Y-59225606D01*
X131874122Y-59359096D01*
X131905031Y-59419758D01*
X131906187Y-59422025D01*
X132035752Y-59600358D01*
X132035756Y-59600363D01*
X132191636Y-59756243D01*
X132191641Y-59756247D01*
X132347192Y-59869260D01*
X132369978Y-59885815D01*
X132469242Y-59936393D01*
X132566393Y-59985895D01*
X132566396Y-59985896D01*
X132671221Y-60019955D01*
X132776049Y-60054015D01*
X132993778Y-60088500D01*
X133604132Y-60088500D01*
X133671171Y-60108185D01*
X133716926Y-60160989D01*
X133726870Y-60230147D01*
X133726605Y-60231898D01*
X133703500Y-60377778D01*
X133703500Y-60598221D01*
X133737985Y-60815952D01*
X133806103Y-61025603D01*
X133806104Y-61025606D01*
X133906187Y-61222025D01*
X134035752Y-61400358D01*
X134035756Y-61400363D01*
X134191636Y-61556243D01*
X134191641Y-61556247D01*
X134347192Y-61669260D01*
X134369978Y-61685815D01*
X134498375Y-61751237D01*
X134566393Y-61785895D01*
X134566396Y-61785896D01*
X134671221Y-61819955D01*
X134776049Y-61854015D01*
X134993778Y-61888500D01*
X134993779Y-61888500D01*
X136214221Y-61888500D01*
X136214222Y-61888500D01*
X136431951Y-61854015D01*
X136641606Y-61785895D01*
X136838022Y-61685815D01*
X137016365Y-61556242D01*
X137172242Y-61400365D01*
X137301815Y-61222022D01*
X137401895Y-61025606D01*
X137470015Y-60815951D01*
X137504500Y-60598222D01*
X137504500Y-60377778D01*
X137470015Y-60160049D01*
X137413430Y-59985895D01*
X137401896Y-59950396D01*
X137401895Y-59950393D01*
X137361855Y-59871812D01*
X137301815Y-59753978D01*
X137285260Y-59731192D01*
X137172247Y-59575641D01*
X137172243Y-59575636D01*
X137016363Y-59419756D01*
X137016358Y-59419752D01*
X136838025Y-59290187D01*
X136838024Y-59290186D01*
X136838022Y-59290185D01*
X136775096Y-59258122D01*
X136641606Y-59190104D01*
X136641603Y-59190103D01*
X136431952Y-59121985D01*
X136323086Y-59104742D01*
X136214222Y-59087500D01*
X136214221Y-59087500D01*
X135603868Y-59087500D01*
X135536829Y-59067815D01*
X135491074Y-59015011D01*
X135481130Y-58945853D01*
X135481395Y-58944102D01*
X135504500Y-58798221D01*
X151415500Y-58798221D01*
X151449985Y-59015952D01*
X151518103Y-59225603D01*
X151518104Y-59225606D01*
X151586122Y-59359096D01*
X151617031Y-59419758D01*
X151618187Y-59422025D01*
X151747752Y-59600358D01*
X151747756Y-59600363D01*
X151903636Y-59756243D01*
X151903641Y-59756247D01*
X152059192Y-59869260D01*
X152081978Y-59885815D01*
X152181242Y-59936393D01*
X152278393Y-59985895D01*
X152278396Y-59985896D01*
X152383221Y-60019955D01*
X152488049Y-60054015D01*
X152705778Y-60088500D01*
X153316132Y-60088500D01*
X153383171Y-60108185D01*
X153428926Y-60160989D01*
X153438870Y-60230147D01*
X153438605Y-60231898D01*
X153415500Y-60377778D01*
X153415500Y-60598221D01*
X153449985Y-60815952D01*
X153518103Y-61025603D01*
X153518104Y-61025606D01*
X153618187Y-61222025D01*
X153747752Y-61400358D01*
X153747756Y-61400363D01*
X153903636Y-61556243D01*
X153903641Y-61556247D01*
X154059192Y-61669260D01*
X154081978Y-61685815D01*
X154210375Y-61751237D01*
X154278393Y-61785895D01*
X154278396Y-61785896D01*
X154383221Y-61819955D01*
X154488049Y-61854015D01*
X154705778Y-61888500D01*
X154705779Y-61888500D01*
X155926221Y-61888500D01*
X155926222Y-61888500D01*
X156143951Y-61854015D01*
X156353606Y-61785895D01*
X156550022Y-61685815D01*
X156728365Y-61556242D01*
X156884242Y-61400365D01*
X157013815Y-61222022D01*
X157113895Y-61025606D01*
X157182015Y-60815951D01*
X157216500Y-60598222D01*
X157216500Y-60377778D01*
X157182015Y-60160049D01*
X157125430Y-59985895D01*
X157113896Y-59950396D01*
X157113895Y-59950393D01*
X157073855Y-59871812D01*
X157013815Y-59753978D01*
X156997260Y-59731192D01*
X156884247Y-59575641D01*
X156884243Y-59575636D01*
X156728363Y-59419756D01*
X156728358Y-59419752D01*
X156550025Y-59290187D01*
X156550024Y-59290186D01*
X156550022Y-59290185D01*
X156487096Y-59258122D01*
X156353606Y-59190104D01*
X156353603Y-59190103D01*
X156143952Y-59121985D01*
X156035086Y-59104742D01*
X155926222Y-59087500D01*
X155926221Y-59087500D01*
X155315868Y-59087500D01*
X155248829Y-59067815D01*
X155203074Y-59015011D01*
X155193130Y-58945853D01*
X155193395Y-58944102D01*
X155216500Y-58798221D01*
X171200500Y-58798221D01*
X171234985Y-59015952D01*
X171303103Y-59225603D01*
X171303104Y-59225606D01*
X171371122Y-59359096D01*
X171402031Y-59419758D01*
X171403187Y-59422025D01*
X171532752Y-59600358D01*
X171532756Y-59600363D01*
X171688636Y-59756243D01*
X171688641Y-59756247D01*
X171844192Y-59869260D01*
X171866978Y-59885815D01*
X171966242Y-59936393D01*
X172063393Y-59985895D01*
X172063396Y-59985896D01*
X172168221Y-60019955D01*
X172273049Y-60054015D01*
X172490778Y-60088500D01*
X173101132Y-60088500D01*
X173168171Y-60108185D01*
X173213926Y-60160989D01*
X173223870Y-60230147D01*
X173223605Y-60231898D01*
X173200500Y-60377778D01*
X173200500Y-60598221D01*
X173234985Y-60815952D01*
X173303103Y-61025603D01*
X173303104Y-61025606D01*
X173403187Y-61222025D01*
X173532752Y-61400358D01*
X173532756Y-61400363D01*
X173688636Y-61556243D01*
X173688641Y-61556247D01*
X173844192Y-61669260D01*
X173866978Y-61685815D01*
X173995375Y-61751237D01*
X174063393Y-61785895D01*
X174063396Y-61785896D01*
X174168221Y-61819955D01*
X174273049Y-61854015D01*
X174490778Y-61888500D01*
X174490779Y-61888500D01*
X175711221Y-61888500D01*
X175711222Y-61888500D01*
X175928951Y-61854015D01*
X176138606Y-61785895D01*
X176335022Y-61685815D01*
X176513365Y-61556242D01*
X176669242Y-61400365D01*
X176798815Y-61222022D01*
X176898895Y-61025606D01*
X176967015Y-60815951D01*
X177001500Y-60598222D01*
X177001500Y-60377778D01*
X176967015Y-60160049D01*
X176910430Y-59985895D01*
X176898896Y-59950396D01*
X176898895Y-59950393D01*
X176858855Y-59871812D01*
X176798815Y-59753978D01*
X176782260Y-59731192D01*
X176669247Y-59575641D01*
X176669243Y-59575636D01*
X176513363Y-59419756D01*
X176513358Y-59419752D01*
X176335025Y-59290187D01*
X176335024Y-59290186D01*
X176335022Y-59290185D01*
X176272096Y-59258122D01*
X176138606Y-59190104D01*
X176138603Y-59190103D01*
X175928952Y-59121985D01*
X175820086Y-59104742D01*
X175711222Y-59087500D01*
X175711221Y-59087500D01*
X175100868Y-59087500D01*
X175033829Y-59067815D01*
X174988074Y-59015011D01*
X174978130Y-58945853D01*
X174978395Y-58944102D01*
X175001500Y-58798221D01*
X191039500Y-58798221D01*
X191073985Y-59015952D01*
X191142103Y-59225603D01*
X191142104Y-59225606D01*
X191210122Y-59359096D01*
X191241031Y-59419758D01*
X191242187Y-59422025D01*
X191371752Y-59600358D01*
X191371756Y-59600363D01*
X191527636Y-59756243D01*
X191527641Y-59756247D01*
X191683192Y-59869260D01*
X191705978Y-59885815D01*
X191805242Y-59936393D01*
X191902393Y-59985895D01*
X191902396Y-59985896D01*
X192007221Y-60019955D01*
X192112049Y-60054015D01*
X192329778Y-60088500D01*
X192940132Y-60088500D01*
X193007171Y-60108185D01*
X193052926Y-60160989D01*
X193062870Y-60230147D01*
X193062605Y-60231898D01*
X193039500Y-60377778D01*
X193039500Y-60598221D01*
X193073985Y-60815952D01*
X193142103Y-61025603D01*
X193142104Y-61025606D01*
X193242187Y-61222025D01*
X193371752Y-61400358D01*
X193371756Y-61400363D01*
X193527636Y-61556243D01*
X193527641Y-61556247D01*
X193683192Y-61669260D01*
X193705978Y-61685815D01*
X193834375Y-61751237D01*
X193902393Y-61785895D01*
X193902396Y-61785896D01*
X194007221Y-61819955D01*
X194112049Y-61854015D01*
X194329778Y-61888500D01*
X194329779Y-61888500D01*
X195550221Y-61888500D01*
X195550222Y-61888500D01*
X195767951Y-61854015D01*
X195977606Y-61785895D01*
X196174022Y-61685815D01*
X196352365Y-61556242D01*
X196508242Y-61400365D01*
X196637815Y-61222022D01*
X196737895Y-61025606D01*
X196806015Y-60815951D01*
X196840500Y-60598222D01*
X196840500Y-60377778D01*
X196806015Y-60160049D01*
X196749430Y-59985895D01*
X196737896Y-59950396D01*
X196737895Y-59950393D01*
X196697855Y-59871812D01*
X196637815Y-59753978D01*
X196621260Y-59731192D01*
X196508247Y-59575641D01*
X196508243Y-59575636D01*
X196352363Y-59419756D01*
X196352358Y-59419752D01*
X196174025Y-59290187D01*
X196174024Y-59290186D01*
X196174022Y-59290185D01*
X196111096Y-59258122D01*
X195977606Y-59190104D01*
X195977603Y-59190103D01*
X195767952Y-59121985D01*
X195659086Y-59104742D01*
X195550222Y-59087500D01*
X195550221Y-59087500D01*
X194939868Y-59087500D01*
X194872829Y-59067815D01*
X194827074Y-59015011D01*
X194817130Y-58945853D01*
X194817395Y-58944102D01*
X194840500Y-58798221D01*
X194840500Y-58577778D01*
X194838283Y-58563778D01*
X194806015Y-58360049D01*
X194737895Y-58150394D01*
X194737895Y-58150393D01*
X194703237Y-58082375D01*
X194637815Y-57953978D01*
X194621260Y-57931192D01*
X194508247Y-57775641D01*
X194508243Y-57775636D01*
X194352363Y-57619756D01*
X194352358Y-57619752D01*
X194174025Y-57490187D01*
X194174024Y-57490186D01*
X194174022Y-57490185D01*
X194111096Y-57458122D01*
X193977606Y-57390104D01*
X193977603Y-57390103D01*
X193767952Y-57321985D01*
X193659086Y-57304742D01*
X193550222Y-57287500D01*
X192329778Y-57287500D01*
X192257201Y-57298995D01*
X192112047Y-57321985D01*
X191902396Y-57390103D01*
X191902393Y-57390104D01*
X191705974Y-57490187D01*
X191527641Y-57619752D01*
X191527636Y-57619756D01*
X191371756Y-57775636D01*
X191371752Y-57775641D01*
X191242187Y-57953974D01*
X191142104Y-58150393D01*
X191142103Y-58150396D01*
X191073985Y-58360047D01*
X191039500Y-58577778D01*
X191039500Y-58798221D01*
X175001500Y-58798221D01*
X175001500Y-58577778D01*
X174999283Y-58563778D01*
X174967015Y-58360049D01*
X174898895Y-58150394D01*
X174898895Y-58150393D01*
X174864237Y-58082375D01*
X174798815Y-57953978D01*
X174782260Y-57931192D01*
X174669247Y-57775641D01*
X174669243Y-57775636D01*
X174513363Y-57619756D01*
X174513358Y-57619752D01*
X174335025Y-57490187D01*
X174335024Y-57490186D01*
X174335022Y-57490185D01*
X174272096Y-57458122D01*
X174138606Y-57390104D01*
X174138603Y-57390103D01*
X173928952Y-57321985D01*
X173820086Y-57304742D01*
X173711222Y-57287500D01*
X172490778Y-57287500D01*
X172418201Y-57298995D01*
X172273047Y-57321985D01*
X172063396Y-57390103D01*
X172063393Y-57390104D01*
X171866974Y-57490187D01*
X171688641Y-57619752D01*
X171688636Y-57619756D01*
X171532756Y-57775636D01*
X171532752Y-57775641D01*
X171403187Y-57953974D01*
X171303104Y-58150393D01*
X171303103Y-58150396D01*
X171234985Y-58360047D01*
X171200500Y-58577778D01*
X171200500Y-58798221D01*
X155216500Y-58798221D01*
X155216500Y-58577778D01*
X155214283Y-58563778D01*
X155182015Y-58360049D01*
X155113895Y-58150394D01*
X155113895Y-58150393D01*
X155079237Y-58082375D01*
X155013815Y-57953978D01*
X154997260Y-57931192D01*
X154884247Y-57775641D01*
X154884243Y-57775636D01*
X154728363Y-57619756D01*
X154728358Y-57619752D01*
X154550025Y-57490187D01*
X154550024Y-57490186D01*
X154550022Y-57490185D01*
X154487096Y-57458122D01*
X154353606Y-57390104D01*
X154353603Y-57390103D01*
X154143952Y-57321985D01*
X154035086Y-57304742D01*
X153926222Y-57287500D01*
X152705778Y-57287500D01*
X152633201Y-57298995D01*
X152488047Y-57321985D01*
X152278396Y-57390103D01*
X152278393Y-57390104D01*
X152081974Y-57490187D01*
X151903641Y-57619752D01*
X151903636Y-57619756D01*
X151747756Y-57775636D01*
X151747752Y-57775641D01*
X151618187Y-57953974D01*
X151518104Y-58150393D01*
X151518103Y-58150396D01*
X151449985Y-58360047D01*
X151415500Y-58577778D01*
X151415500Y-58798221D01*
X135504500Y-58798221D01*
X135504500Y-58577778D01*
X135502283Y-58563778D01*
X135470015Y-58360049D01*
X135401895Y-58150394D01*
X135401895Y-58150393D01*
X135367237Y-58082375D01*
X135301815Y-57953978D01*
X135285260Y-57931192D01*
X135172247Y-57775641D01*
X135172243Y-57775636D01*
X135016363Y-57619756D01*
X135016358Y-57619752D01*
X134838025Y-57490187D01*
X134838024Y-57490186D01*
X134838022Y-57490185D01*
X134775096Y-57458122D01*
X134641606Y-57390104D01*
X134641603Y-57390103D01*
X134431952Y-57321985D01*
X134323086Y-57304742D01*
X134214222Y-57287500D01*
X132993778Y-57287500D01*
X132921201Y-57298995D01*
X132776047Y-57321985D01*
X132566396Y-57390103D01*
X132566393Y-57390104D01*
X132369974Y-57490187D01*
X132191641Y-57619752D01*
X132191636Y-57619756D01*
X132035756Y-57775636D01*
X132035752Y-57775641D01*
X131906187Y-57953974D01*
X131806104Y-58150393D01*
X131806103Y-58150396D01*
X131737985Y-58360047D01*
X131703500Y-58577778D01*
X131703500Y-58798221D01*
X115590283Y-58798221D01*
X115592500Y-58784222D01*
X115592500Y-58563778D01*
X115558015Y-58346049D01*
X115523955Y-58241221D01*
X115489896Y-58136396D01*
X115489895Y-58136393D01*
X115396946Y-57953974D01*
X115389815Y-57939978D01*
X115270418Y-57775641D01*
X115260247Y-57761641D01*
X115260243Y-57761636D01*
X115104363Y-57605756D01*
X115104358Y-57605752D01*
X114926025Y-57476187D01*
X114926024Y-57476186D01*
X114926022Y-57476185D01*
X114863096Y-57444122D01*
X114729606Y-57376104D01*
X114729603Y-57376103D01*
X114519952Y-57307985D01*
X114390614Y-57287500D01*
X114302222Y-57273500D01*
X113081778Y-57273500D01*
X113009201Y-57284995D01*
X112864047Y-57307985D01*
X112654396Y-57376103D01*
X112654393Y-57376104D01*
X112457974Y-57476187D01*
X112279641Y-57605752D01*
X112279636Y-57605756D01*
X112123756Y-57761636D01*
X112123752Y-57761641D01*
X111994187Y-57939974D01*
X111894104Y-58136393D01*
X111894103Y-58136396D01*
X111825985Y-58346047D01*
X111791500Y-58563778D01*
X111791500Y-58784222D01*
X103886000Y-58784222D01*
X103886000Y-52324000D01*
X105520540Y-52324000D01*
X105540326Y-52512256D01*
X105540327Y-52512259D01*
X105598818Y-52692277D01*
X105598821Y-52692284D01*
X105693467Y-52856216D01*
X105747253Y-52915951D01*
X105820129Y-52996888D01*
X105973265Y-53108148D01*
X105973270Y-53108151D01*
X106146192Y-53185142D01*
X106146197Y-53185144D01*
X106331354Y-53224500D01*
X106331355Y-53224500D01*
X106520644Y-53224500D01*
X106520646Y-53224500D01*
X106705803Y-53185144D01*
X106878730Y-53108151D01*
X107031871Y-52996888D01*
X107158533Y-52856216D01*
X107253179Y-52692284D01*
X107255799Y-52684222D01*
X111791500Y-52684222D01*
X111808742Y-52793086D01*
X111825985Y-52901952D01*
X111894103Y-53111603D01*
X111894104Y-53111606D01*
X111994187Y-53308025D01*
X112123752Y-53486358D01*
X112123756Y-53486363D01*
X112279636Y-53642243D01*
X112279641Y-53642247D01*
X112345513Y-53690105D01*
X112457978Y-53771815D01*
X112586375Y-53837237D01*
X112654393Y-53871895D01*
X112654396Y-53871896D01*
X112697482Y-53885895D01*
X112864049Y-53940015D01*
X113081778Y-53974500D01*
X113943702Y-53974500D01*
X114010741Y-53994185D01*
X114056496Y-54046989D01*
X114066440Y-54116147D01*
X114044020Y-54171385D01*
X113994187Y-54239974D01*
X113894104Y-54436393D01*
X113894103Y-54436396D01*
X113825985Y-54646047D01*
X113791500Y-54863778D01*
X113791500Y-55084222D01*
X113808742Y-55193086D01*
X113825985Y-55301952D01*
X113894103Y-55511603D01*
X113894104Y-55511606D01*
X113994187Y-55708025D01*
X114123752Y-55886358D01*
X114123756Y-55886363D01*
X114279636Y-56042243D01*
X114279641Y-56042247D01*
X114298911Y-56056247D01*
X114457978Y-56171815D01*
X114586375Y-56237237D01*
X114654393Y-56271895D01*
X114654396Y-56271896D01*
X114697482Y-56285895D01*
X114864049Y-56340015D01*
X115081778Y-56374500D01*
X115081779Y-56374500D01*
X116302221Y-56374500D01*
X116302222Y-56374500D01*
X116519951Y-56340015D01*
X116729606Y-56271895D01*
X116926022Y-56171815D01*
X117104365Y-56042242D01*
X117260242Y-55886365D01*
X117389815Y-55708022D01*
X117489895Y-55511606D01*
X117558015Y-55301951D01*
X117592500Y-55084222D01*
X117592500Y-54863778D01*
X117558015Y-54646049D01*
X117523955Y-54541221D01*
X117489896Y-54436396D01*
X117489895Y-54436393D01*
X117396946Y-54253974D01*
X117389815Y-54239978D01*
X117270418Y-54075641D01*
X117260247Y-54061641D01*
X117260243Y-54061636D01*
X117104363Y-53905756D01*
X117104358Y-53905752D01*
X116926025Y-53776187D01*
X116926024Y-53776186D01*
X116926022Y-53776185D01*
X116863096Y-53744122D01*
X116729606Y-53676104D01*
X116729603Y-53676103D01*
X116519952Y-53607985D01*
X116390614Y-53587500D01*
X116302222Y-53573500D01*
X116302221Y-53573500D01*
X115440298Y-53573500D01*
X115373259Y-53553815D01*
X115327504Y-53501011D01*
X115317560Y-53431853D01*
X115339980Y-53376615D01*
X115379643Y-53322022D01*
X115389815Y-53308022D01*
X115489895Y-53111606D01*
X115558015Y-52901951D01*
X115592500Y-52684222D01*
X115592500Y-52463778D01*
X115570361Y-52324000D01*
X122538540Y-52324000D01*
X122558326Y-52512256D01*
X122558327Y-52512259D01*
X122616818Y-52692277D01*
X122616821Y-52692284D01*
X122711467Y-52856216D01*
X122765253Y-52915951D01*
X122838129Y-52996888D01*
X122991265Y-53108148D01*
X122991270Y-53108151D01*
X123164192Y-53185142D01*
X123164197Y-53185144D01*
X123349354Y-53224500D01*
X123349355Y-53224500D01*
X123538644Y-53224500D01*
X123538646Y-53224500D01*
X123723803Y-53185144D01*
X123896730Y-53108151D01*
X124049871Y-52996888D01*
X124176533Y-52856216D01*
X124267751Y-52698221D01*
X131703500Y-52698221D01*
X131737985Y-52915952D01*
X131806103Y-53125603D01*
X131806104Y-53125606D01*
X131906187Y-53322025D01*
X132035752Y-53500358D01*
X132035756Y-53500363D01*
X132191636Y-53656243D01*
X132191641Y-53656247D01*
X132347192Y-53769260D01*
X132369978Y-53785815D01*
X132498375Y-53851237D01*
X132566393Y-53885895D01*
X132566396Y-53885896D01*
X132627527Y-53905758D01*
X132776049Y-53954015D01*
X132993778Y-53988500D01*
X133855702Y-53988500D01*
X133922741Y-54008185D01*
X133968496Y-54060989D01*
X133978440Y-54130147D01*
X133956020Y-54185385D01*
X133906187Y-54253974D01*
X133806104Y-54450393D01*
X133806103Y-54450396D01*
X133737985Y-54660047D01*
X133703500Y-54877778D01*
X133703500Y-55098221D01*
X133737985Y-55315952D01*
X133806103Y-55525603D01*
X133806104Y-55525606D01*
X133906187Y-55722025D01*
X134035752Y-55900358D01*
X134035756Y-55900363D01*
X134191636Y-56056243D01*
X134191641Y-56056247D01*
X134347192Y-56169260D01*
X134369978Y-56185815D01*
X134498375Y-56251237D01*
X134566393Y-56285895D01*
X134566396Y-56285896D01*
X134671221Y-56319955D01*
X134776049Y-56354015D01*
X134993778Y-56388500D01*
X134993779Y-56388500D01*
X136214221Y-56388500D01*
X136214222Y-56388500D01*
X136431951Y-56354015D01*
X136641606Y-56285895D01*
X136838022Y-56185815D01*
X137016365Y-56056242D01*
X137172242Y-55900365D01*
X137301815Y-55722022D01*
X137401895Y-55525606D01*
X137470015Y-55315951D01*
X137504500Y-55098222D01*
X137504500Y-54877778D01*
X137470015Y-54660049D01*
X137401895Y-54450394D01*
X137401895Y-54450393D01*
X137367237Y-54382375D01*
X137301815Y-54253978D01*
X137201676Y-54116147D01*
X137172247Y-54075641D01*
X137172243Y-54075636D01*
X137016363Y-53919756D01*
X137016358Y-53919752D01*
X136838025Y-53790187D01*
X136838024Y-53790186D01*
X136838022Y-53790185D01*
X136775096Y-53758122D01*
X136641606Y-53690104D01*
X136641603Y-53690103D01*
X136431952Y-53621985D01*
X136323086Y-53604742D01*
X136214222Y-53587500D01*
X136214221Y-53587500D01*
X135352298Y-53587500D01*
X135285259Y-53567815D01*
X135239504Y-53515011D01*
X135229560Y-53445853D01*
X135251980Y-53390615D01*
X135269218Y-53366887D01*
X135301815Y-53322022D01*
X135401895Y-53125606D01*
X135470015Y-52915951D01*
X135504500Y-52698222D01*
X135504500Y-52477778D01*
X135480144Y-52324000D01*
X143112540Y-52324000D01*
X143132326Y-52512256D01*
X143132327Y-52512259D01*
X143190818Y-52692277D01*
X143190821Y-52692284D01*
X143285467Y-52856216D01*
X143339253Y-52915951D01*
X143412129Y-52996888D01*
X143565265Y-53108148D01*
X143565270Y-53108151D01*
X143738192Y-53185142D01*
X143738197Y-53185144D01*
X143923354Y-53224500D01*
X143923355Y-53224500D01*
X144112644Y-53224500D01*
X144112646Y-53224500D01*
X144297803Y-53185144D01*
X144470730Y-53108151D01*
X144623871Y-52996888D01*
X144750533Y-52856216D01*
X144841751Y-52698221D01*
X151415500Y-52698221D01*
X151449985Y-52915952D01*
X151518103Y-53125603D01*
X151518104Y-53125606D01*
X151618187Y-53322025D01*
X151747752Y-53500358D01*
X151747756Y-53500363D01*
X151903636Y-53656243D01*
X151903641Y-53656247D01*
X152059192Y-53769260D01*
X152081978Y-53785815D01*
X152210375Y-53851237D01*
X152278393Y-53885895D01*
X152278396Y-53885896D01*
X152339527Y-53905758D01*
X152488049Y-53954015D01*
X152705778Y-53988500D01*
X153567702Y-53988500D01*
X153634741Y-54008185D01*
X153680496Y-54060989D01*
X153690440Y-54130147D01*
X153668020Y-54185385D01*
X153618187Y-54253974D01*
X153518104Y-54450393D01*
X153518103Y-54450396D01*
X153449985Y-54660047D01*
X153415500Y-54877778D01*
X153415500Y-55098221D01*
X153449985Y-55315952D01*
X153518103Y-55525603D01*
X153518104Y-55525606D01*
X153618187Y-55722025D01*
X153747752Y-55900358D01*
X153747756Y-55900363D01*
X153903636Y-56056243D01*
X153903641Y-56056247D01*
X154059192Y-56169260D01*
X154081978Y-56185815D01*
X154210375Y-56251237D01*
X154278393Y-56285895D01*
X154278396Y-56285896D01*
X154383221Y-56319955D01*
X154488049Y-56354015D01*
X154705778Y-56388500D01*
X154705779Y-56388500D01*
X155926221Y-56388500D01*
X155926222Y-56388500D01*
X156143951Y-56354015D01*
X156353606Y-56285895D01*
X156550022Y-56185815D01*
X156728365Y-56056242D01*
X156884242Y-55900365D01*
X157013815Y-55722022D01*
X157113895Y-55525606D01*
X157182015Y-55315951D01*
X157216500Y-55098222D01*
X157216500Y-54877778D01*
X157182015Y-54660049D01*
X157113895Y-54450394D01*
X157113895Y-54450393D01*
X157079237Y-54382375D01*
X157013815Y-54253978D01*
X156913676Y-54116147D01*
X156884247Y-54075641D01*
X156884243Y-54075636D01*
X156728363Y-53919756D01*
X156728358Y-53919752D01*
X156550025Y-53790187D01*
X156550024Y-53790186D01*
X156550022Y-53790185D01*
X156487096Y-53758122D01*
X156353606Y-53690104D01*
X156353603Y-53690103D01*
X156143952Y-53621985D01*
X156035086Y-53604742D01*
X155926222Y-53587500D01*
X155926221Y-53587500D01*
X155064298Y-53587500D01*
X154997259Y-53567815D01*
X154951504Y-53515011D01*
X154941560Y-53445853D01*
X154963980Y-53390615D01*
X154981218Y-53366887D01*
X155013815Y-53322022D01*
X155113895Y-53125606D01*
X155182015Y-52915951D01*
X155216500Y-52698222D01*
X155216500Y-52477778D01*
X155192144Y-52324000D01*
X162670540Y-52324000D01*
X162690326Y-52512256D01*
X162690327Y-52512259D01*
X162748818Y-52692277D01*
X162748821Y-52692284D01*
X162843467Y-52856216D01*
X162897253Y-52915951D01*
X162970129Y-52996888D01*
X163123265Y-53108148D01*
X163123270Y-53108151D01*
X163296192Y-53185142D01*
X163296197Y-53185144D01*
X163481354Y-53224500D01*
X163481355Y-53224500D01*
X163670644Y-53224500D01*
X163670646Y-53224500D01*
X163855803Y-53185144D01*
X164028730Y-53108151D01*
X164181871Y-52996888D01*
X164308533Y-52856216D01*
X164399751Y-52698221D01*
X171200500Y-52698221D01*
X171234985Y-52915952D01*
X171303103Y-53125603D01*
X171303104Y-53125606D01*
X171403187Y-53322025D01*
X171532752Y-53500358D01*
X171532756Y-53500363D01*
X171688636Y-53656243D01*
X171688641Y-53656247D01*
X171844192Y-53769260D01*
X171866978Y-53785815D01*
X171995375Y-53851237D01*
X172063393Y-53885895D01*
X172063396Y-53885896D01*
X172124527Y-53905758D01*
X172273049Y-53954015D01*
X172490778Y-53988500D01*
X173352702Y-53988500D01*
X173419741Y-54008185D01*
X173465496Y-54060989D01*
X173475440Y-54130147D01*
X173453020Y-54185385D01*
X173403187Y-54253974D01*
X173303104Y-54450393D01*
X173303103Y-54450396D01*
X173234985Y-54660047D01*
X173200500Y-54877778D01*
X173200500Y-55098221D01*
X173234985Y-55315952D01*
X173303103Y-55525603D01*
X173303104Y-55525606D01*
X173403187Y-55722025D01*
X173532752Y-55900358D01*
X173532756Y-55900363D01*
X173688636Y-56056243D01*
X173688641Y-56056247D01*
X173844192Y-56169260D01*
X173866978Y-56185815D01*
X173995375Y-56251237D01*
X174063393Y-56285895D01*
X174063396Y-56285896D01*
X174168221Y-56319955D01*
X174273049Y-56354015D01*
X174490778Y-56388500D01*
X174490779Y-56388500D01*
X175711221Y-56388500D01*
X175711222Y-56388500D01*
X175928951Y-56354015D01*
X176138606Y-56285895D01*
X176335022Y-56185815D01*
X176513365Y-56056242D01*
X176669242Y-55900365D01*
X176798815Y-55722022D01*
X176898895Y-55525606D01*
X176967015Y-55315951D01*
X177001500Y-55098222D01*
X177001500Y-54877778D01*
X176967015Y-54660049D01*
X176898895Y-54450394D01*
X176898895Y-54450393D01*
X176864237Y-54382375D01*
X176798815Y-54253978D01*
X176698676Y-54116147D01*
X176669247Y-54075641D01*
X176669243Y-54075636D01*
X176513363Y-53919756D01*
X176513358Y-53919752D01*
X176335025Y-53790187D01*
X176335024Y-53790186D01*
X176335022Y-53790185D01*
X176272096Y-53758122D01*
X176138606Y-53690104D01*
X176138603Y-53690103D01*
X175928952Y-53621985D01*
X175820086Y-53604742D01*
X175711222Y-53587500D01*
X175711221Y-53587500D01*
X174849298Y-53587500D01*
X174782259Y-53567815D01*
X174736504Y-53515011D01*
X174726560Y-53445853D01*
X174748980Y-53390615D01*
X174766218Y-53366887D01*
X174798815Y-53322022D01*
X174898895Y-53125606D01*
X174967015Y-52915951D01*
X175001500Y-52698222D01*
X175001500Y-52477778D01*
X174977144Y-52324000D01*
X182482540Y-52324000D01*
X182502326Y-52512256D01*
X182502327Y-52512259D01*
X182560818Y-52692277D01*
X182560821Y-52692284D01*
X182655467Y-52856216D01*
X182709253Y-52915951D01*
X182782129Y-52996888D01*
X182935265Y-53108148D01*
X182935270Y-53108151D01*
X183108192Y-53185142D01*
X183108197Y-53185144D01*
X183293354Y-53224500D01*
X183293355Y-53224500D01*
X183482644Y-53224500D01*
X183482646Y-53224500D01*
X183667803Y-53185144D01*
X183840730Y-53108151D01*
X183993871Y-52996888D01*
X184120533Y-52856216D01*
X184211751Y-52698221D01*
X191039500Y-52698221D01*
X191073985Y-52915952D01*
X191142103Y-53125603D01*
X191142104Y-53125606D01*
X191242187Y-53322025D01*
X191371752Y-53500358D01*
X191371756Y-53500363D01*
X191527636Y-53656243D01*
X191527641Y-53656247D01*
X191683192Y-53769260D01*
X191705978Y-53785815D01*
X191834375Y-53851237D01*
X191902393Y-53885895D01*
X191902396Y-53885896D01*
X191963527Y-53905758D01*
X192112049Y-53954015D01*
X192329778Y-53988500D01*
X193191702Y-53988500D01*
X193258741Y-54008185D01*
X193304496Y-54060989D01*
X193314440Y-54130147D01*
X193292020Y-54185385D01*
X193242187Y-54253974D01*
X193142104Y-54450393D01*
X193142103Y-54450396D01*
X193073985Y-54660047D01*
X193039500Y-54877778D01*
X193039500Y-55098221D01*
X193073985Y-55315952D01*
X193142103Y-55525603D01*
X193142104Y-55525606D01*
X193242187Y-55722025D01*
X193371752Y-55900358D01*
X193371756Y-55900363D01*
X193527636Y-56056243D01*
X193527641Y-56056247D01*
X193683192Y-56169260D01*
X193705978Y-56185815D01*
X193834375Y-56251237D01*
X193902393Y-56285895D01*
X193902396Y-56285896D01*
X194007221Y-56319955D01*
X194112049Y-56354015D01*
X194329778Y-56388500D01*
X194329779Y-56388500D01*
X195550221Y-56388500D01*
X195550222Y-56388500D01*
X195767951Y-56354015D01*
X195977606Y-56285895D01*
X196174022Y-56185815D01*
X196352365Y-56056242D01*
X196508242Y-55900365D01*
X196637815Y-55722022D01*
X196737895Y-55525606D01*
X196806015Y-55315951D01*
X196840500Y-55098222D01*
X196840500Y-54877778D01*
X196806015Y-54660049D01*
X196737895Y-54450394D01*
X196737895Y-54450393D01*
X196703237Y-54382375D01*
X196637815Y-54253978D01*
X196537676Y-54116147D01*
X196508247Y-54075641D01*
X196508243Y-54075636D01*
X196352363Y-53919756D01*
X196352358Y-53919752D01*
X196174025Y-53790187D01*
X196174024Y-53790186D01*
X196174022Y-53790185D01*
X196111096Y-53758122D01*
X195977606Y-53690104D01*
X195977603Y-53690103D01*
X195767952Y-53621985D01*
X195659086Y-53604742D01*
X195550222Y-53587500D01*
X195550221Y-53587500D01*
X194688298Y-53587500D01*
X194621259Y-53567815D01*
X194575504Y-53515011D01*
X194565560Y-53445853D01*
X194587980Y-53390615D01*
X194605218Y-53366887D01*
X194637815Y-53322022D01*
X194737895Y-53125606D01*
X194806015Y-52915951D01*
X194840500Y-52698222D01*
X194840500Y-52477778D01*
X194806015Y-52260049D01*
X194771955Y-52155221D01*
X194737896Y-52050396D01*
X194737895Y-52050393D01*
X194689657Y-51955722D01*
X194637815Y-51853978D01*
X194621260Y-51831192D01*
X194508247Y-51675641D01*
X194508243Y-51675636D01*
X194352363Y-51519756D01*
X194352358Y-51519752D01*
X194174025Y-51390187D01*
X194174024Y-51390186D01*
X194174022Y-51390185D01*
X194111096Y-51358122D01*
X193977606Y-51290104D01*
X193977603Y-51290103D01*
X193767952Y-51221985D01*
X193659086Y-51204742D01*
X193550222Y-51187500D01*
X192329778Y-51187500D01*
X192257201Y-51198995D01*
X192112047Y-51221985D01*
X191902396Y-51290103D01*
X191902393Y-51290104D01*
X191705974Y-51390187D01*
X191527641Y-51519752D01*
X191527636Y-51519756D01*
X191371756Y-51675636D01*
X191371752Y-51675641D01*
X191242187Y-51853974D01*
X191142104Y-52050393D01*
X191142103Y-52050396D01*
X191073985Y-52260047D01*
X191039500Y-52477778D01*
X191039500Y-52698221D01*
X184211751Y-52698221D01*
X184215179Y-52692284D01*
X184273674Y-52512256D01*
X184293460Y-52324000D01*
X184273674Y-52135744D01*
X184215179Y-51955716D01*
X184120533Y-51791784D01*
X183993871Y-51651112D01*
X183993870Y-51651111D01*
X183840734Y-51539851D01*
X183840729Y-51539848D01*
X183667807Y-51462857D01*
X183667802Y-51462855D01*
X183522001Y-51431865D01*
X183482646Y-51423500D01*
X183293354Y-51423500D01*
X183260897Y-51430398D01*
X183108197Y-51462855D01*
X183108192Y-51462857D01*
X182935270Y-51539848D01*
X182935265Y-51539851D01*
X182782129Y-51651111D01*
X182655466Y-51791785D01*
X182560821Y-51955715D01*
X182560818Y-51955722D01*
X182530057Y-52050396D01*
X182502326Y-52135744D01*
X182482540Y-52324000D01*
X174977144Y-52324000D01*
X174967015Y-52260049D01*
X174932955Y-52155221D01*
X174898896Y-52050396D01*
X174898895Y-52050393D01*
X174850657Y-51955722D01*
X174798815Y-51853978D01*
X174782260Y-51831192D01*
X174669247Y-51675641D01*
X174669243Y-51675636D01*
X174513363Y-51519756D01*
X174513358Y-51519752D01*
X174335025Y-51390187D01*
X174335024Y-51390186D01*
X174335022Y-51390185D01*
X174272096Y-51358122D01*
X174138606Y-51290104D01*
X174138603Y-51290103D01*
X173928952Y-51221985D01*
X173820086Y-51204742D01*
X173711222Y-51187500D01*
X172490778Y-51187500D01*
X172418201Y-51198995D01*
X172273047Y-51221985D01*
X172063396Y-51290103D01*
X172063393Y-51290104D01*
X171866974Y-51390187D01*
X171688641Y-51519752D01*
X171688636Y-51519756D01*
X171532756Y-51675636D01*
X171532752Y-51675641D01*
X171403187Y-51853974D01*
X171303104Y-52050393D01*
X171303103Y-52050396D01*
X171234985Y-52260047D01*
X171200500Y-52477778D01*
X171200500Y-52698221D01*
X164399751Y-52698221D01*
X164403179Y-52692284D01*
X164461674Y-52512256D01*
X164481460Y-52324000D01*
X164461674Y-52135744D01*
X164403179Y-51955716D01*
X164308533Y-51791784D01*
X164181871Y-51651112D01*
X164181870Y-51651111D01*
X164028734Y-51539851D01*
X164028729Y-51539848D01*
X163855807Y-51462857D01*
X163855802Y-51462855D01*
X163710001Y-51431865D01*
X163670646Y-51423500D01*
X163481354Y-51423500D01*
X163448897Y-51430398D01*
X163296197Y-51462855D01*
X163296192Y-51462857D01*
X163123270Y-51539848D01*
X163123265Y-51539851D01*
X162970129Y-51651111D01*
X162843466Y-51791785D01*
X162748821Y-51955715D01*
X162748818Y-51955722D01*
X162718057Y-52050396D01*
X162690326Y-52135744D01*
X162670540Y-52324000D01*
X155192144Y-52324000D01*
X155182015Y-52260049D01*
X155147955Y-52155221D01*
X155113896Y-52050396D01*
X155113895Y-52050393D01*
X155065657Y-51955722D01*
X155013815Y-51853978D01*
X154997260Y-51831192D01*
X154884247Y-51675641D01*
X154884243Y-51675636D01*
X154728363Y-51519756D01*
X154728358Y-51519752D01*
X154550025Y-51390187D01*
X154550024Y-51390186D01*
X154550022Y-51390185D01*
X154487096Y-51358122D01*
X154353606Y-51290104D01*
X154353603Y-51290103D01*
X154143952Y-51221985D01*
X154035086Y-51204742D01*
X153926222Y-51187500D01*
X152705778Y-51187500D01*
X152633201Y-51198995D01*
X152488047Y-51221985D01*
X152278396Y-51290103D01*
X152278393Y-51290104D01*
X152081974Y-51390187D01*
X151903641Y-51519752D01*
X151903636Y-51519756D01*
X151747756Y-51675636D01*
X151747752Y-51675641D01*
X151618187Y-51853974D01*
X151518104Y-52050393D01*
X151518103Y-52050396D01*
X151449985Y-52260047D01*
X151415500Y-52477778D01*
X151415500Y-52698221D01*
X144841751Y-52698221D01*
X144845179Y-52692284D01*
X144903674Y-52512256D01*
X144923460Y-52324000D01*
X144903674Y-52135744D01*
X144845179Y-51955716D01*
X144750533Y-51791784D01*
X144623871Y-51651112D01*
X144623870Y-51651111D01*
X144470734Y-51539851D01*
X144470729Y-51539848D01*
X144297807Y-51462857D01*
X144297802Y-51462855D01*
X144152001Y-51431865D01*
X144112646Y-51423500D01*
X143923354Y-51423500D01*
X143890897Y-51430398D01*
X143738197Y-51462855D01*
X143738192Y-51462857D01*
X143565270Y-51539848D01*
X143565265Y-51539851D01*
X143412129Y-51651111D01*
X143285466Y-51791785D01*
X143190821Y-51955715D01*
X143190818Y-51955722D01*
X143160057Y-52050396D01*
X143132326Y-52135744D01*
X143112540Y-52324000D01*
X135480144Y-52324000D01*
X135470015Y-52260049D01*
X135435955Y-52155221D01*
X135401896Y-52050396D01*
X135401895Y-52050393D01*
X135353657Y-51955722D01*
X135301815Y-51853978D01*
X135285260Y-51831192D01*
X135172247Y-51675641D01*
X135172243Y-51675636D01*
X135016363Y-51519756D01*
X135016358Y-51519752D01*
X134838025Y-51390187D01*
X134838024Y-51390186D01*
X134838022Y-51390185D01*
X134775096Y-51358122D01*
X134641606Y-51290104D01*
X134641603Y-51290103D01*
X134431952Y-51221985D01*
X134323086Y-51204742D01*
X134214222Y-51187500D01*
X132993778Y-51187500D01*
X132921201Y-51198995D01*
X132776047Y-51221985D01*
X132566396Y-51290103D01*
X132566393Y-51290104D01*
X132369974Y-51390187D01*
X132191641Y-51519752D01*
X132191636Y-51519756D01*
X132035756Y-51675636D01*
X132035752Y-51675641D01*
X131906187Y-51853974D01*
X131806104Y-52050393D01*
X131806103Y-52050396D01*
X131737985Y-52260047D01*
X131703500Y-52477778D01*
X131703500Y-52698221D01*
X124267751Y-52698221D01*
X124271179Y-52692284D01*
X124329674Y-52512256D01*
X124349460Y-52324000D01*
X124329674Y-52135744D01*
X124271179Y-51955716D01*
X124176533Y-51791784D01*
X124049871Y-51651112D01*
X124049870Y-51651111D01*
X123896734Y-51539851D01*
X123896729Y-51539848D01*
X123723807Y-51462857D01*
X123723802Y-51462855D01*
X123578001Y-51431865D01*
X123538646Y-51423500D01*
X123349354Y-51423500D01*
X123316897Y-51430398D01*
X123164197Y-51462855D01*
X123164192Y-51462857D01*
X122991270Y-51539848D01*
X122991265Y-51539851D01*
X122838129Y-51651111D01*
X122711466Y-51791785D01*
X122616821Y-51955715D01*
X122616818Y-51955722D01*
X122586057Y-52050396D01*
X122558326Y-52135744D01*
X122538540Y-52324000D01*
X115570361Y-52324000D01*
X115558015Y-52246049D01*
X115522174Y-52135740D01*
X115489896Y-52036396D01*
X115489895Y-52036393D01*
X115448787Y-51955716D01*
X115389815Y-51839978D01*
X115270418Y-51675641D01*
X115260247Y-51661641D01*
X115260243Y-51661636D01*
X115104363Y-51505756D01*
X115104358Y-51505752D01*
X114926025Y-51376187D01*
X114926024Y-51376186D01*
X114926022Y-51376185D01*
X114863096Y-51344122D01*
X114729606Y-51276104D01*
X114729603Y-51276103D01*
X114519952Y-51207985D01*
X114390614Y-51187500D01*
X114302222Y-51173500D01*
X113081778Y-51173500D01*
X113009201Y-51184995D01*
X112864047Y-51207985D01*
X112654396Y-51276103D01*
X112654393Y-51276104D01*
X112457974Y-51376187D01*
X112279641Y-51505752D01*
X112279636Y-51505756D01*
X112123756Y-51661636D01*
X112123752Y-51661641D01*
X111994187Y-51839974D01*
X111894104Y-52036393D01*
X111894103Y-52036396D01*
X111825985Y-52246047D01*
X111813639Y-52324000D01*
X111791500Y-52463778D01*
X111791500Y-52684222D01*
X107255799Y-52684222D01*
X107311674Y-52512256D01*
X107331460Y-52324000D01*
X107311674Y-52135744D01*
X107253179Y-51955716D01*
X107158533Y-51791784D01*
X107031871Y-51651112D01*
X107031870Y-51651111D01*
X106878734Y-51539851D01*
X106878729Y-51539848D01*
X106705807Y-51462857D01*
X106705802Y-51462855D01*
X106560001Y-51431865D01*
X106520646Y-51423500D01*
X106331354Y-51423500D01*
X106298897Y-51430398D01*
X106146197Y-51462855D01*
X106146192Y-51462857D01*
X105973270Y-51539848D01*
X105973265Y-51539851D01*
X105820129Y-51651111D01*
X105693466Y-51791785D01*
X105598821Y-51955715D01*
X105598818Y-51955722D01*
X105568057Y-52050396D01*
X105540326Y-52135744D01*
X105520540Y-52324000D01*
X103886000Y-52324000D01*
X103886000Y-50797000D01*
X103905685Y-50729961D01*
X103958489Y-50684206D01*
X104010000Y-50673000D01*
X202822000Y-50673000D01*
X202889039Y-50692685D01*
G37*
%TD.AperFunction*%
%TD*%
M02*
