M48
; DRILL file {KiCad 7.0.11-7.0.11~ubuntu22.04.1} date Sun 17 Mar 2024 14:36:55 GMT
; FORMAT={-:-/ absolute / inch / decimal}
; #@! TF.CreationDate,2024-03-17T14:36:55+00:00
; #@! TF.GenerationSoftware,Kicad,Pcbnew,7.0.11-7.0.11~ubuntu22.04.1
; #@! TF.FileFunction,Plated,1,4,PTH
FMAT,2
INCH
; #@! TA.AperFunction,Plated,PTH,ViaDrill
T1C0.0157
; #@! TA.AperFunction,Plated,PTH,ComponentDrill
T2C0.0394
; #@! TA.AperFunction,Plated,PTH,ComponentDrill
T3C0.0433
; #@! TA.AperFunction,Plated,PTH,ComponentDrill
T4C0.0472
%
G90
G05
T1
X3.525Y-5.1
X3.855Y-4.95
X4.28Y-5.1
X4.61Y-4.95
X5.09Y-5.1
X5.415Y-4.95
X5.84Y-5.1
X6.165Y-4.95
X6.36Y-4.55
X6.36Y-4.64
X6.36Y-4.73
X6.36Y-4.82
X6.67Y-5.1848
X6.6787Y-5.0587
X6.84Y-5.801
X6.895Y-4.79
X7.135Y-4.6
X7.135Y-4.69
X7.135Y-4.78
X7.135Y-4.87
T2
X3.5949Y-5.8016
X3.5949Y-5.9
X3.6933Y-5.8016
X3.6933Y-5.9
X3.7918Y-5.8016
X3.7918Y-5.9
X4.3716Y-5.8016
X4.3716Y-5.9
X4.47Y-5.8016
X4.47Y-5.9
X4.5684Y-5.8016
X4.5684Y-5.9
X5.1516Y-5.8016
X5.1516Y-5.9
X5.25Y-5.8016
X5.25Y-5.9
X5.3484Y-5.8016
X5.3484Y-5.9
X5.9266Y-5.8016
X5.9266Y-5.9
X6.025Y-5.8016
X6.025Y-5.9
X6.1234Y-5.8016
X6.1234Y-5.9
X6.375Y-5.2302
X6.375Y-5.3302
X6.71Y-5.92
X6.81Y-5.92
X7.05Y-5.2172
X7.05Y-5.3172
T4
X3.5333Y-4.319
X3.6933Y-4.19
X3.8533Y-4.368
X4.31Y-4.319
X4.47Y-4.19
X4.63Y-4.368
X5.09Y-4.319
X5.25Y-4.19
X5.41Y-4.368
X5.865Y-4.319
X6.025Y-4.19
X6.185Y-4.368
X6.64Y-4.319
X6.8Y-4.19
X6.96Y-4.368
T3
G00X3.5201Y-5.6717
M15
G01X3.4925Y-5.6717
M16
G05
G00X3.8941Y-5.6717
M15
G01X3.8666Y-5.6717
M16
G05
G00X4.2968Y-5.6717
M15
G01X4.2692Y-5.6717
M16
G05
G00X4.6708Y-5.6717
M15
G01X4.6432Y-5.6717
M16
G05
G00X5.0768Y-5.6717
M15
G01X5.0492Y-5.6717
M16
G05
G00X5.4508Y-5.6717
M15
G01X5.4232Y-5.6717
M16
G05
G00X5.8518Y-5.6717
M15
G01X5.8242Y-5.6717
M16
G05
G00X6.2258Y-5.6717
M15
G01X6.1982Y-5.6717
M16
G05
M30
