%TF.GenerationSoftware,KiCad,Pcbnew,7.0.11-7.0.11~ubuntu22.04.1*%
%TF.CreationDate,2024-03-17T14:49:55+00:00*%
%TF.ProjectId,Tiny4xPoweredStereoMixer,54696e79-3478-4506-9f77-657265645374,rev?*%
%TF.SameCoordinates,Original*%
%TF.FileFunction,Paste,Top*%
%TF.FilePolarity,Positive*%
%FSLAX46Y46*%
G04 Gerber Fmt 4.6, Leading zero omitted, Abs format (unit mm)*
G04 Created by KiCad (PCBNEW 7.0.11-7.0.11~ubuntu22.04.1) date 2024-03-17 14:49:55*
%MOMM*%
%LPD*%
G01*
G04 APERTURE LIST*
G04 Aperture macros list*
%AMRoundRect*
0 Rectangle with rounded corners*
0 $1 Rounding radius*
0 $2 $3 $4 $5 $6 $7 $8 $9 X,Y pos of 4 corners*
0 Add a 4 corners polygon primitive as box body*
4,1,4,$2,$3,$4,$5,$6,$7,$8,$9,$2,$3,0*
0 Add four circle primitives for the rounded corners*
1,1,$1+$1,$2,$3*
1,1,$1+$1,$4,$5*
1,1,$1+$1,$6,$7*
1,1,$1+$1,$8,$9*
0 Add four rect primitives between the rounded corners*
20,1,$1+$1,$2,$3,$4,$5,0*
20,1,$1+$1,$4,$5,$6,$7,0*
20,1,$1+$1,$6,$7,$8,$9,0*
20,1,$1+$1,$8,$9,$2,$3,0*%
G04 Aperture macros list end*
%ADD10RoundRect,0.250000X0.350000X0.450000X-0.350000X0.450000X-0.350000X-0.450000X0.350000X-0.450000X0*%
%ADD11RoundRect,0.250000X-0.350000X-0.450000X0.350000X-0.450000X0.350000X0.450000X-0.350000X0.450000X0*%
%ADD12RoundRect,0.237500X0.300000X0.237500X-0.300000X0.237500X-0.300000X-0.237500X0.300000X-0.237500X0*%
%ADD13RoundRect,0.237500X-0.237500X0.300000X-0.237500X-0.300000X0.237500X-0.300000X0.237500X0.300000X0*%
%ADD14RoundRect,0.237500X0.237500X-0.300000X0.237500X0.300000X-0.237500X0.300000X-0.237500X-0.300000X0*%
%ADD15RoundRect,0.150000X0.825000X0.150000X-0.825000X0.150000X-0.825000X-0.150000X0.825000X-0.150000X0*%
%ADD16RoundRect,0.237500X-0.300000X-0.237500X0.300000X-0.237500X0.300000X0.237500X-0.300000X0.237500X0*%
%ADD17RoundRect,0.150000X-0.512500X-0.150000X0.512500X-0.150000X0.512500X0.150000X-0.512500X0.150000X0*%
%ADD18RoundRect,0.250000X0.412500X1.100000X-0.412500X1.100000X-0.412500X-1.100000X0.412500X-1.100000X0*%
%ADD19RoundRect,0.250000X1.100000X-0.412500X1.100000X0.412500X-1.100000X0.412500X-1.100000X-0.412500X0*%
%ADD20RoundRect,0.250000X-0.500000X0.950000X-0.500000X-0.950000X0.500000X-0.950000X0.500000X0.950000X0*%
%ADD21RoundRect,0.250000X-0.500000X0.275000X-0.500000X-0.275000X0.500000X-0.275000X0.500000X0.275000X0*%
%ADD22R,1.750000X4.500000*%
%ADD23RoundRect,0.250000X0.337500X0.475000X-0.337500X0.475000X-0.337500X-0.475000X0.337500X-0.475000X0*%
G04 APERTURE END LIST*
D10*
%TO.C,R4*%
X179260000Y-116840000D03*
X177260000Y-116840000D03*
%TD*%
D11*
%TO.C,RFB2*%
X169941400Y-135382000D03*
X171941400Y-135382000D03*
%TD*%
D12*
%TO.C,C9*%
X166946500Y-127254000D03*
X165221500Y-127254000D03*
%TD*%
%TO.C,C11*%
X130960200Y-132090650D03*
X129235200Y-132090650D03*
%TD*%
D13*
%TO.C,C15*%
X176149000Y-147981500D03*
X176149000Y-149706500D03*
%TD*%
D10*
%TO.C,R2*%
X179260000Y-121412000D03*
X177260000Y-121412000D03*
%TD*%
D12*
%TO.C,C13*%
X149985900Y-132080000D03*
X148260900Y-132080000D03*
%TD*%
D14*
%TO.C,C10*%
X175133000Y-119988500D03*
X175133000Y-118263500D03*
%TD*%
D15*
%TO.C,U5*%
X174590000Y-127254000D03*
X174590000Y-125984000D03*
X174590000Y-124714000D03*
X174590000Y-123444000D03*
X169640000Y-123444000D03*
X169640000Y-124714000D03*
X169640000Y-125984000D03*
X169640000Y-127254000D03*
%TD*%
%TO.C,U4*%
X154937000Y-129540000D03*
X154937000Y-128270000D03*
X154937000Y-127000000D03*
X154937000Y-125730000D03*
X149987000Y-125730000D03*
X149987000Y-127000000D03*
X149987000Y-128270000D03*
X149987000Y-129540000D03*
%TD*%
D16*
%TO.C,C8*%
X96089300Y-123190000D03*
X97814300Y-123190000D03*
%TD*%
D12*
%TO.C,C5*%
X110474700Y-132080000D03*
X108749700Y-132080000D03*
%TD*%
D10*
%TO.C,R3*%
X179260000Y-119126000D03*
X177260000Y-119126000D03*
%TD*%
D16*
%TO.C,C6*%
X115455300Y-123190000D03*
X117180300Y-123190000D03*
%TD*%
D15*
%TO.C,U2*%
X115440000Y-129540000D03*
X115440000Y-128270000D03*
X115440000Y-127000000D03*
X115440000Y-125730000D03*
X110490000Y-125730000D03*
X110490000Y-127000000D03*
X110490000Y-128270000D03*
X110490000Y-129540000D03*
%TD*%
D16*
%TO.C,C14*%
X154940000Y-123190000D03*
X156665000Y-123190000D03*
%TD*%
D17*
%TO.C,U6*%
X173867900Y-144109400D03*
X173867900Y-145059400D03*
X173867900Y-146009400D03*
X176142900Y-146009400D03*
X176142900Y-144109400D03*
%TD*%
D18*
%TO.C,C2*%
X173519900Y-139979400D03*
X170394900Y-139979400D03*
%TD*%
D11*
%TO.C,R9*%
X177260000Y-125984000D03*
X179260000Y-125984000D03*
%TD*%
D10*
%TO.C,R10*%
X166846000Y-124714000D03*
X164846000Y-124714000D03*
%TD*%
D12*
%TO.C,C7*%
X91134100Y-132080000D03*
X89409100Y-132080000D03*
%TD*%
D19*
%TO.C,C1*%
X179324000Y-148907900D03*
X179324000Y-145782900D03*
%TD*%
D11*
%TO.C,RFB1*%
X165131400Y-135382000D03*
X167131400Y-135382000D03*
%TD*%
%TO.C,R7*%
X164846000Y-117856000D03*
X166846000Y-117856000D03*
%TD*%
D20*
%TO.C,D1*%
X170179400Y-146558000D03*
D21*
X170179400Y-144183000D03*
%TD*%
D11*
%TO.C,R5*%
X164846000Y-122428000D03*
X166846000Y-122428000D03*
%TD*%
D15*
%TO.C,U1*%
X96099400Y-129540000D03*
X96099400Y-128270000D03*
X96099400Y-127000000D03*
X96099400Y-125730000D03*
X91149400Y-125730000D03*
X91149400Y-127000000D03*
X91149400Y-128270000D03*
X91149400Y-129540000D03*
%TD*%
D22*
%TO.C,L2*%
X167994400Y-139979400D03*
X164744400Y-139979400D03*
%TD*%
%TO.C,L1*%
X179170400Y-139979400D03*
X175920400Y-139979400D03*
%TD*%
D18*
%TO.C,C4*%
X167640000Y-146558000D03*
X164515000Y-146558000D03*
%TD*%
D11*
%TO.C,R6*%
X164846000Y-120142000D03*
X166846000Y-120142000D03*
%TD*%
D23*
%TO.C,C3*%
X167168900Y-131572000D03*
X165093900Y-131572000D03*
%TD*%
D16*
%TO.C,C12*%
X135890000Y-123200650D03*
X137615000Y-123200650D03*
%TD*%
D10*
%TO.C,R1*%
X179260000Y-123698000D03*
X177260000Y-123698000D03*
%TD*%
D15*
%TO.C,U3*%
X135911300Y-129550650D03*
X135911300Y-128280650D03*
X135911300Y-127010650D03*
X135911300Y-125740650D03*
X130961300Y-125740650D03*
X130961300Y-127010650D03*
X130961300Y-128280650D03*
X130961300Y-129550650D03*
%TD*%
D11*
%TO.C,R8*%
X164846000Y-115570000D03*
X166846000Y-115570000D03*
%TD*%
M02*
