%TF.GenerationSoftware,KiCad,Pcbnew,8.0.1*%
%TF.CreationDate,2024-04-01T22:35:21+01:00*%
%TF.ProjectId,Tiny4xPoweredStereoMixer,54696e79-3478-4506-9f77-657265645374,B*%
%TF.SameCoordinates,Original*%
%TF.FileFunction,Copper,L1,Top*%
%TF.FilePolarity,Positive*%
%FSLAX46Y46*%
G04 Gerber Fmt 4.6, Leading zero omitted, Abs format (unit mm)*
G04 Created by KiCad (PCBNEW 8.0.1) date 2024-04-01 22:35:21*
%MOMM*%
%LPD*%
G01*
G04 APERTURE LIST*
G04 Aperture macros list*
%AMRoundRect*
0 Rectangle with rounded corners*
0 $1 Rounding radius*
0 $2 $3 $4 $5 $6 $7 $8 $9 X,Y pos of 4 corners*
0 Add a 4 corners polygon primitive as box body*
4,1,4,$2,$3,$4,$5,$6,$7,$8,$9,$2,$3,0*
0 Add four circle primitives for the rounded corners*
1,1,$1+$1,$2,$3*
1,1,$1+$1,$4,$5*
1,1,$1+$1,$6,$7*
1,1,$1+$1,$8,$9*
0 Add four rect primitives between the rounded corners*
20,1,$1+$1,$2,$3,$4,$5,0*
20,1,$1+$1,$4,$5,$6,$7,0*
20,1,$1+$1,$6,$7,$8,$9,0*
20,1,$1+$1,$8,$9,$2,$3,0*%
G04 Aperture macros list end*
%TA.AperFunction,ComponentPad*%
%ADD10C,2.800000*%
%TD*%
%TA.AperFunction,SMDPad,CuDef*%
%ADD11RoundRect,0.250000X0.450000X-0.350000X0.450000X0.350000X-0.450000X0.350000X-0.450000X-0.350000X0*%
%TD*%
%TA.AperFunction,SMDPad,CuDef*%
%ADD12RoundRect,0.250000X-0.350000X-0.450000X0.350000X-0.450000X0.350000X0.450000X-0.350000X0.450000X0*%
%TD*%
%TA.AperFunction,ComponentPad*%
%ADD13O,2.800000X1.800000*%
%TD*%
%TA.AperFunction,SMDPad,CuDef*%
%ADD14RoundRect,0.237500X-0.237500X0.300000X-0.237500X-0.300000X0.237500X-0.300000X0.237500X0.300000X0*%
%TD*%
%TA.AperFunction,SMDPad,CuDef*%
%ADD15RoundRect,0.237500X-0.300000X-0.237500X0.300000X-0.237500X0.300000X0.237500X-0.300000X0.237500X0*%
%TD*%
%TA.AperFunction,SMDPad,CuDef*%
%ADD16RoundRect,0.250000X1.100000X-0.412500X1.100000X0.412500X-1.100000X0.412500X-1.100000X-0.412500X0*%
%TD*%
%TA.AperFunction,ComponentPad*%
%ADD17C,1.524000*%
%TD*%
%TA.AperFunction,ComponentPad*%
%ADD18R,1.700000X1.700000*%
%TD*%
%TA.AperFunction,ComponentPad*%
%ADD19O,1.700000X1.700000*%
%TD*%
%TA.AperFunction,SMDPad,CuDef*%
%ADD20RoundRect,0.237500X0.237500X-0.300000X0.237500X0.300000X-0.237500X0.300000X-0.237500X-0.300000X0*%
%TD*%
%TA.AperFunction,SMDPad,CuDef*%
%ADD21RoundRect,0.150000X0.150000X-0.825000X0.150000X0.825000X-0.150000X0.825000X-0.150000X-0.825000X0*%
%TD*%
%TA.AperFunction,SMDPad,CuDef*%
%ADD22RoundRect,0.150000X-0.512500X-0.150000X0.512500X-0.150000X0.512500X0.150000X-0.512500X0.150000X0*%
%TD*%
%TA.AperFunction,SMDPad,CuDef*%
%ADD23RoundRect,0.250000X0.412500X1.100000X-0.412500X1.100000X-0.412500X-1.100000X0.412500X-1.100000X0*%
%TD*%
%TA.AperFunction,ComponentPad*%
%ADD24RoundRect,0.250000X-0.620000X-0.845000X0.620000X-0.845000X0.620000X0.845000X-0.620000X0.845000X0*%
%TD*%
%TA.AperFunction,ComponentPad*%
%ADD25O,1.740000X2.190000*%
%TD*%
%TA.AperFunction,SMDPad,CuDef*%
%ADD26RoundRect,0.250000X-0.500000X0.950000X-0.500000X-0.950000X0.500000X-0.950000X0.500000X0.950000X0*%
%TD*%
%TA.AperFunction,SMDPad,CuDef*%
%ADD27RoundRect,0.250000X-0.500000X0.275000X-0.500000X-0.275000X0.500000X-0.275000X0.500000X0.275000X0*%
%TD*%
%TA.AperFunction,SMDPad,CuDef*%
%ADD28R,1.750000X4.500000*%
%TD*%
%TA.AperFunction,SMDPad,CuDef*%
%ADD29RoundRect,0.250000X0.337500X0.475000X-0.337500X0.475000X-0.337500X-0.475000X0.337500X-0.475000X0*%
%TD*%
%TA.AperFunction,ViaPad*%
%ADD30C,0.800000*%
%TD*%
%TA.AperFunction,Conductor*%
%ADD31C,0.500000*%
%TD*%
%TA.AperFunction,Conductor*%
%ADD32C,1.000000*%
%TD*%
G04 APERTURE END LIST*
D10*
%TO.P,TP1,1,1*%
%TO.N,GND*%
X148590000Y-82804000D03*
%TD*%
D11*
%TO.P,R4,1*%
%TO.N,/ch1_left_mix_in*%
X108712000Y-93964000D03*
%TO.P,R4,2*%
%TO.N,Net-(U2A--)*%
X108712000Y-91964000D03*
%TD*%
D12*
%TO.P,RFB2,1*%
%TO.N,Net-(U6-NFB)*%
X190007400Y-86995000D03*
%TO.P,RFB2,2*%
%TO.N,GND*%
X192007400Y-86995000D03*
%TD*%
D13*
%TO.P,J2,R*%
%TO.N,Net-(C11-Pad1)*%
X135604000Y-60488000D03*
%TO.P,J2,RN*%
%TO.N,GND*%
X133604000Y-58688000D03*
%TO.P,J2,S*%
X133604000Y-52588000D03*
%TO.P,J2,T*%
%TO.N,Net-(C10-Pad1)*%
X135604000Y-54988000D03*
%TO.P,J2,TN*%
%TO.N,GND*%
X133604000Y-64188000D03*
%TD*%
D14*
%TO.P,C9,1*%
%TO.N,+12V*%
X177392500Y-70612000D03*
%TO.P,C9,2*%
%TO.N,GND*%
X177392500Y-72337000D03*
%TD*%
D15*
%TO.P,C15,1*%
%TO.N,Net-(J6-Pin_2)*%
X199543500Y-104013000D03*
%TO.P,C15,2*%
%TO.N,GND*%
X201268500Y-104013000D03*
%TD*%
D11*
%TO.P,R2,1*%
%TO.N,/ch3_left_mix_in*%
X148336000Y-93964000D03*
%TO.P,R2,2*%
%TO.N,Net-(U2A--)*%
X148336000Y-91964000D03*
%TD*%
D16*
%TO.P,C19,1*%
%TO.N,Net-(C19-Pad1)*%
X200406000Y-64808500D03*
%TO.P,C19,2*%
%TO.N,Net-(C19-Pad2)*%
X200406000Y-61683500D03*
%TD*%
D17*
%TO.P,RV2,1,1*%
%TO.N,GND*%
X132592000Y-103759000D03*
%TO.P,RV2,2,2*%
%TO.N,/ch2_right_mix_in*%
X134592000Y-103759000D03*
%TO.P,RV2,3,3*%
%TO.N,Net-(C11-Pad2)*%
X136592000Y-103759000D03*
%TO.P,RV2,4,4*%
%TO.N,GND*%
X130592000Y-103759000D03*
%TO.P,RV2,5,5*%
%TO.N,/ch2_left_mix_in*%
X128592000Y-103759000D03*
%TO.P,RV2,6,6*%
%TO.N,Net-(C10-Pad2)*%
X138592000Y-103759000D03*
%TD*%
D18*
%TO.P,J8,1,Pin_1*%
%TO.N,Net-(J8-Pin_1)*%
X181610000Y-86990000D03*
D19*
%TO.P,J8,2,Pin_2*%
%TO.N,-12V*%
X181610000Y-89530000D03*
%TD*%
D13*
%TO.P,J1,R*%
%TO.N,Net-(C7-Pad1)*%
X115692000Y-60474000D03*
%TO.P,J1,RN*%
%TO.N,GND*%
X113692000Y-58674000D03*
%TO.P,J1,S*%
X113692000Y-52574000D03*
%TO.P,J1,T*%
%TO.N,Net-(C5-Pad1)*%
X115692000Y-54974000D03*
%TO.P,J1,TN*%
%TO.N,GND*%
X113692000Y-64174000D03*
%TD*%
D16*
%TO.P,C20,1*%
%TO.N,Net-(C20-Pad1)*%
X183134000Y-63538500D03*
%TO.P,C20,2*%
%TO.N,Net-(C20-Pad2)*%
X183134000Y-60413500D03*
%TD*%
D20*
%TO.P,C8,1*%
%TO.N,-12V*%
X200279000Y-77189500D03*
%TO.P,C8,2*%
%TO.N,GND*%
X200279000Y-75464500D03*
%TD*%
D11*
%TO.P,R3,1*%
%TO.N,/ch2_left_mix_in*%
X128524000Y-93964000D03*
%TO.P,R3,2*%
%TO.N,Net-(U2A--)*%
X128524000Y-91964000D03*
%TD*%
D14*
%TO.P,C13,1*%
%TO.N,+12V*%
X192151000Y-70691500D03*
%TO.P,C13,2*%
%TO.N,GND*%
X192151000Y-72416500D03*
%TD*%
%TO.P,C6,1*%
%TO.N,-12V*%
X185166000Y-76353500D03*
%TO.P,C6,2*%
%TO.N,GND*%
X185166000Y-78078500D03*
%TD*%
%TO.P,C16,1*%
%TO.N,Net-(J8-Pin_1)*%
X184912000Y-99010300D03*
%TO.P,C16,2*%
%TO.N,Net-(U6-~{SHDN})*%
X184912000Y-100735300D03*
%TD*%
D11*
%TO.P,R14,1*%
%TO.N,Net-(R13-Pad2)*%
X192151000Y-76718500D03*
%TO.P,R14,2*%
%TO.N,Net-(U2B--)*%
X192151000Y-74718500D03*
%TD*%
D21*
%TO.P,U2,1*%
%TO.N,Net-(R13-Pad2)*%
X194310000Y-76415500D03*
%TO.P,U2,2,-*%
%TO.N,Net-(U2A--)*%
X195580000Y-76415500D03*
%TO.P,U2,3,+*%
%TO.N,GND*%
X196850000Y-76415500D03*
%TO.P,U2,4,V-*%
%TO.N,-12V*%
X198120000Y-76415500D03*
%TO.P,U2,5,+*%
%TO.N,GND*%
X198120000Y-71465500D03*
%TO.P,U2,6,-*%
%TO.N,Net-(U2B--)*%
X196850000Y-71465500D03*
%TO.P,U2,7*%
%TO.N,Net-(C19-Pad1)*%
X195580000Y-71465500D03*
%TO.P,U2,8,V+*%
%TO.N,+12V*%
X194310000Y-71465500D03*
%TD*%
D11*
%TO.P,R15,1*%
%TO.N,Net-(U2B--)*%
X200152000Y-73351500D03*
%TO.P,R15,2*%
%TO.N,Net-(C19-Pad1)*%
X200152000Y-71351500D03*
%TD*%
D18*
%TO.P,J7,1,Pin_1*%
%TO.N,Net-(J6-Pin_2)*%
X199263000Y-86741000D03*
D19*
%TO.P,J7,2,Pin_2*%
%TO.N,+12V*%
X196723000Y-86741000D03*
%TD*%
D13*
%TO.P,J9,R*%
%TO.N,Net-(C20-Pad2)*%
X194940000Y-60488000D03*
%TO.P,J9,RN*%
%TO.N,GND*%
X192940000Y-58688000D03*
%TO.P,J9,S*%
X192940000Y-52588000D03*
%TO.P,J9,T*%
%TO.N,Net-(C19-Pad2)*%
X194940000Y-54988000D03*
%TO.P,J9,TN*%
%TO.N,GND*%
X192940000Y-64188000D03*
%TD*%
D22*
%TO.P,U6,1,SW*%
%TO.N,Net-(U6-SW)*%
X193933900Y-95722400D03*
%TO.P,U6,2,GND*%
%TO.N,GND*%
X193933900Y-96672400D03*
%TO.P,U6,3,NFB*%
%TO.N,Net-(U6-NFB)*%
X193933900Y-97622400D03*
%TO.P,U6,4,~{SHDN}*%
%TO.N,Net-(U6-~{SHDN})*%
X196208900Y-97622400D03*
%TO.P,U6,5,VIN*%
%TO.N,Net-(J6-Pin_2)*%
X196208900Y-95722400D03*
%TD*%
D23*
%TO.P,C2,1*%
%TO.N,Net-(U6-SW)*%
X193585900Y-91592400D03*
%TO.P,C2,2*%
%TO.N,Net-(D1-A)*%
X190460900Y-91592400D03*
%TD*%
D11*
%TO.P,R13,1*%
%TO.N,Net-(U2A--)*%
X189738000Y-78724000D03*
%TO.P,R13,2*%
%TO.N,Net-(R13-Pad2)*%
X189738000Y-76724000D03*
%TD*%
D17*
%TO.P,RV3,1,1*%
%TO.N,GND*%
X152336000Y-103759000D03*
%TO.P,RV3,2,2*%
%TO.N,/ch3_right_mix_in*%
X154336000Y-103759000D03*
%TO.P,RV3,3,3*%
%TO.N,Net-(C14-Pad2)*%
X156336000Y-103759000D03*
%TO.P,RV3,4,4*%
%TO.N,GND*%
X150336000Y-103759000D03*
%TO.P,RV3,5,5*%
%TO.N,/ch3_left_mix_in*%
X148336000Y-103759000D03*
%TO.P,RV3,6,6*%
%TO.N,Net-(C12-Pad2)*%
X158336000Y-103759000D03*
%TD*%
D11*
%TO.P,R9,1*%
%TO.N,Net-(U1A--)*%
X175006000Y-78724000D03*
%TO.P,R9,2*%
%TO.N,Net-(R12-Pad1)*%
X175006000Y-76724000D03*
%TD*%
%TO.P,R10,1*%
%TO.N,Net-(U1B--)*%
X185420000Y-73390000D03*
%TO.P,R10,2*%
%TO.N,Net-(C20-Pad1)*%
X185420000Y-71390000D03*
%TD*%
D24*
%TO.P,J6,1,Pin_1*%
%TO.N,GND*%
X189357000Y-103652000D03*
D25*
%TO.P,J6,2,Pin_2*%
%TO.N,Net-(J6-Pin_2)*%
X191897000Y-103652000D03*
%TD*%
D17*
%TO.P,RV4,1,1*%
%TO.N,GND*%
X172101000Y-103759000D03*
%TO.P,RV4,2,2*%
%TO.N,/ch4_right_mix_in*%
X174101000Y-103759000D03*
%TO.P,RV4,3,3*%
%TO.N,Net-(C18-Pad2)*%
X176101000Y-103759000D03*
%TO.P,RV4,4,4*%
%TO.N,GND*%
X170101000Y-103759000D03*
%TO.P,RV4,5,5*%
%TO.N,/ch4_left_mix_in*%
X168101000Y-103759000D03*
%TO.P,RV4,6,6*%
%TO.N,Net-(C17-Pad2)*%
X178101000Y-103759000D03*
%TD*%
D16*
%TO.P,C1,1*%
%TO.N,GND*%
X200342500Y-101981000D03*
%TO.P,C1,2*%
%TO.N,Net-(J6-Pin_2)*%
X200342500Y-98856000D03*
%TD*%
D12*
%TO.P,RFB1,1*%
%TO.N,Net-(J8-Pin_1)*%
X185197400Y-86995000D03*
%TO.P,RFB1,2*%
%TO.N,Net-(U6-NFB)*%
X187197400Y-86995000D03*
%TD*%
D11*
%TO.P,R7,1*%
%TO.N,/ch2_right_mix_in*%
X134620000Y-84042000D03*
%TO.P,R7,2*%
%TO.N,Net-(U1A--)*%
X134620000Y-82042000D03*
%TD*%
D17*
%TO.P,RV1,1,1*%
%TO.N,GND*%
X112792000Y-103759000D03*
%TO.P,RV1,2,2*%
%TO.N,/ch1_right_mix_in*%
X114792000Y-103759000D03*
%TO.P,RV1,3,3*%
%TO.N,Net-(C7-Pad2)*%
X116792000Y-103759000D03*
%TO.P,RV1,4,4*%
%TO.N,GND*%
X110792000Y-103759000D03*
%TO.P,RV1,5,5*%
%TO.N,/ch1_left_mix_in*%
X108792000Y-103759000D03*
%TO.P,RV1,6,6*%
%TO.N,Net-(C5-Pad2)*%
X118792000Y-103759000D03*
%TD*%
D26*
%TO.P,D1,1,K*%
%TO.N,GND*%
X190245400Y-98171000D03*
D27*
%TO.P,D1,2,A*%
%TO.N,Net-(D1-A)*%
X190245400Y-95796000D03*
%TD*%
D11*
%TO.P,R5,1*%
%TO.N,/ch4_right_mix_in*%
X175006000Y-82788000D03*
%TO.P,R5,2*%
%TO.N,Net-(U1A--)*%
X175006000Y-80788000D03*
%TD*%
D21*
%TO.P,U1,1*%
%TO.N,Net-(R12-Pad1)*%
X179551500Y-76389000D03*
%TO.P,U1,2,-*%
%TO.N,Net-(U1A--)*%
X180821500Y-76389000D03*
%TO.P,U1,3,+*%
%TO.N,GND*%
X182091500Y-76389000D03*
%TO.P,U1,4,V-*%
%TO.N,-12V*%
X183361500Y-76389000D03*
%TO.P,U1,5,+*%
%TO.N,GND*%
X183361500Y-71439000D03*
%TO.P,U1,6,-*%
%TO.N,Net-(U1B--)*%
X182091500Y-71439000D03*
%TO.P,U1,7*%
%TO.N,Net-(C20-Pad1)*%
X180821500Y-71439000D03*
%TO.P,U1,8,V+*%
%TO.N,+12V*%
X179551500Y-71439000D03*
%TD*%
D28*
%TO.P,L2,1,1*%
%TO.N,Net-(D1-A)*%
X188060400Y-91592400D03*
%TO.P,L2,2,2*%
%TO.N,Net-(J8-Pin_1)*%
X184810400Y-91592400D03*
%TD*%
%TO.P,L1,1,1*%
%TO.N,Net-(J6-Pin_2)*%
X199236400Y-91592400D03*
%TO.P,L1,2,2*%
%TO.N,Net-(U6-SW)*%
X195986400Y-91592400D03*
%TD*%
D23*
%TO.P,C4,1*%
%TO.N,GND*%
X187706000Y-96393000D03*
%TO.P,C4,2*%
%TO.N,Net-(J8-Pin_1)*%
X184581000Y-96393000D03*
%TD*%
D11*
%TO.P,R12,1*%
%TO.N,Net-(R12-Pad1)*%
X177392500Y-76676000D03*
%TO.P,R12,2*%
%TO.N,Net-(U1B--)*%
X177392500Y-74676000D03*
%TD*%
%TO.P,R6,1*%
%TO.N,/ch3_right_mix_in*%
X154178000Y-84058000D03*
%TO.P,R6,2*%
%TO.N,Net-(U1A--)*%
X154178000Y-82058000D03*
%TD*%
D29*
%TO.P,C3,1*%
%TO.N,Net-(U6-NFB)*%
X187234900Y-84836000D03*
%TO.P,C3,2*%
%TO.N,Net-(J8-Pin_1)*%
X185159900Y-84836000D03*
%TD*%
D13*
%TO.P,J3,R*%
%TO.N,Net-(C14-Pad1)*%
X155316000Y-60488000D03*
%TO.P,J3,RN*%
%TO.N,GND*%
X153316000Y-58688000D03*
%TO.P,J3,S*%
X153316000Y-52588000D03*
%TO.P,J3,T*%
%TO.N,Net-(C12-Pad1)*%
X155316000Y-54988000D03*
%TO.P,J3,TN*%
%TO.N,GND*%
X153316000Y-64188000D03*
%TD*%
D11*
%TO.P,R1,1*%
%TO.N,/ch4_left_mix_in*%
X168148000Y-93964000D03*
%TO.P,R1,2*%
%TO.N,Net-(U2A--)*%
X168148000Y-91964000D03*
%TD*%
%TO.P,R8,1*%
%TO.N,/ch1_right_mix_in*%
X114808000Y-84058000D03*
%TO.P,R8,2*%
%TO.N,Net-(U1A--)*%
X114808000Y-82058000D03*
%TD*%
%TO.P,R11,1*%
%TO.N,Net-(J6-Pin_2)*%
X196088000Y-102613000D03*
%TO.P,R11,2*%
%TO.N,Net-(U6-~{SHDN})*%
X196088000Y-100613000D03*
%TD*%
D13*
%TO.P,J4,R*%
%TO.N,Net-(C18-Pad1)*%
X175101000Y-60488000D03*
%TO.P,J4,RN*%
%TO.N,GND*%
X173101000Y-58688000D03*
%TO.P,J4,S*%
X173101000Y-52588000D03*
%TO.P,J4,T*%
%TO.N,Net-(C17-Pad1)*%
X175101000Y-54988000D03*
%TO.P,J4,TN*%
%TO.N,GND*%
X173101000Y-64188000D03*
%TD*%
D30*
%TO.N,GND*%
X106426000Y-52324000D03*
X123444000Y-52324000D03*
X144018000Y-52324000D03*
X183388000Y-52324000D03*
X163576000Y-52324000D03*
X126746000Y-75946000D03*
X162306000Y-77724000D03*
X197104000Y-81280000D03*
X188722000Y-68834000D03*
X198120000Y-72859500D03*
X183388000Y-72898000D03*
X192116000Y-97363000D03*
X126238000Y-87884000D03*
X146304000Y-77978000D03*
X143002000Y-95504000D03*
X187706000Y-98806000D03*
X123444000Y-95250000D03*
X108204000Y-81788000D03*
X146304000Y-87376000D03*
X161036000Y-87630000D03*
X201295000Y-106045000D03*
X108204000Y-71120000D03*
X180340000Y-93980000D03*
X163068000Y-95758000D03*
%TO.N,+12V*%
X191008000Y-70765500D03*
X177392500Y-69188500D03*
%TO.N,Net-(U6-NFB)*%
X189483400Y-84836000D03*
X193801400Y-98958400D03*
%TO.N,-12V*%
X185139500Y-75249000D03*
X200279000Y-78613000D03*
%TO.N,/ch4_right_mix_in*%
X175006000Y-84328000D03*
%TO.N,/ch3_right_mix_in*%
X154178000Y-85598000D03*
%TO.N,/ch2_right_mix_in*%
X134620000Y-85852000D03*
%TO.N,/ch1_right_mix_in*%
X114808000Y-85852000D03*
%TD*%
D31*
%TO.N,Net-(U1A--)*%
X164846000Y-71628000D02*
X153035000Y-71628000D01*
%TO.N,Net-(U2A--)*%
X169910000Y-91964000D02*
X168148000Y-91964000D01*
X186182000Y-80772000D02*
X181102000Y-80772000D01*
X181102000Y-80772000D02*
X169910000Y-91964000D01*
X188230000Y-78724000D02*
X186182000Y-80772000D01*
X189738000Y-78724000D02*
X188230000Y-78724000D01*
%TO.N,/ch4_right_mix_in*%
X175006000Y-84328000D02*
X175006000Y-82788000D01*
%TO.N,Net-(U1A--)*%
X175006000Y-80788000D02*
X175006000Y-78724000D01*
%TO.N,+12V*%
X178219500Y-71439000D02*
X179551500Y-71439000D01*
X177392500Y-70612000D02*
X178219500Y-71439000D01*
%TO.N,Net-(C20-Pad1)*%
X185420000Y-69596000D02*
X185420000Y-71390000D01*
X183134000Y-69596000D02*
X185420000Y-69596000D01*
X180848000Y-69596000D02*
X183134000Y-69596000D01*
X180821500Y-69622500D02*
X180848000Y-69596000D01*
X180821500Y-71439000D02*
X180821500Y-69622500D01*
%TO.N,Net-(C19-Pad1)*%
X200152000Y-65062500D02*
X200406000Y-64808500D01*
X200152000Y-69811500D02*
X200152000Y-65062500D01*
%TO.N,Net-(C20-Pad1)*%
X183134000Y-63538500D02*
X183134000Y-69596000D01*
%TO.N,Net-(U2A--)*%
X189754000Y-78740000D02*
X189738000Y-78724000D01*
X195580000Y-77978000D02*
X194818000Y-78740000D01*
X194818000Y-78740000D02*
X189754000Y-78740000D01*
X195580000Y-76415500D02*
X195580000Y-77978000D01*
%TO.N,Net-(R13-Pad2)*%
X189743500Y-76718500D02*
X189738000Y-76724000D01*
X192151000Y-76718500D02*
X189743500Y-76718500D01*
%TO.N,Net-(U1A--)*%
X171942000Y-78724000D02*
X164846000Y-71628000D01*
X175006000Y-78724000D02*
X171942000Y-78724000D01*
X180102000Y-78724000D02*
X175006000Y-78724000D01*
X180821500Y-78004500D02*
X180102000Y-78724000D01*
X180821500Y-76389000D02*
X180821500Y-78004500D01*
%TO.N,Net-(R12-Pad1)*%
X175054000Y-76676000D02*
X175006000Y-76724000D01*
X177392500Y-76676000D02*
X175054000Y-76676000D01*
%TO.N,GND*%
X198120000Y-71465500D02*
X198120000Y-72859500D01*
%TO.N,Net-(U2B--)*%
X193548000Y-74383500D02*
X196850000Y-74383500D01*
X193213000Y-74718500D02*
X193548000Y-74383500D01*
X192151000Y-74718500D02*
X193213000Y-74718500D01*
%TO.N,Net-(U1B--)*%
X178308000Y-74676000D02*
X177392500Y-74676000D01*
X178816000Y-74168000D02*
X178308000Y-74676000D01*
X184642000Y-74168000D02*
X178816000Y-74168000D01*
X185420000Y-73390000D02*
X184642000Y-74168000D01*
%TO.N,Net-(U2B--)*%
X196850000Y-74383500D02*
X196850000Y-73875500D01*
X200152000Y-73351500D02*
X199120000Y-74383500D01*
X199120000Y-74383500D02*
X196850000Y-74383500D01*
X196850000Y-73875500D02*
X196850000Y-73305500D01*
%TO.N,GND*%
X183361500Y-72871500D02*
X183388000Y-72898000D01*
X183361500Y-71439000D02*
X183361500Y-72871500D01*
%TO.N,Net-(U1B--)*%
X182091500Y-74168000D02*
X182091500Y-71439000D01*
%TO.N,Net-(C20-Pad2)*%
X183208500Y-60488000D02*
X194940000Y-60488000D01*
%TO.N,Net-(C19-Pad1)*%
X200152000Y-69811500D02*
X200152000Y-71351500D01*
X195580000Y-69811500D02*
X200152000Y-69811500D01*
X195580000Y-71465500D02*
X195580000Y-69811500D01*
%TO.N,Net-(C19-Pad2)*%
X200279000Y-61556500D02*
X200279000Y-60327000D01*
X200406000Y-61683500D02*
X200279000Y-61556500D01*
X200279000Y-60327000D02*
X194940000Y-54988000D01*
%TO.N,Net-(C19-Pad1)*%
X200279000Y-64935500D02*
X200406000Y-64808500D01*
%TO.N,+12V*%
X192151000Y-70691500D02*
X191082000Y-70691500D01*
X177392500Y-70612000D02*
X177392500Y-69188500D01*
X194310000Y-71465500D02*
X192925000Y-71465500D01*
X192925000Y-71465500D02*
X192151000Y-70691500D01*
X191082000Y-70691500D02*
X191008000Y-70765500D01*
%TO.N,-12V*%
X185139500Y-76427500D02*
X185166000Y-76454000D01*
X185139500Y-75249000D02*
X185139500Y-76427500D01*
X198894000Y-77189500D02*
X198120000Y-76415500D01*
X185166000Y-76454000D02*
X183426500Y-76454000D01*
X200279000Y-77189500D02*
X200279000Y-78613000D01*
X200279000Y-77189500D02*
X198894000Y-77189500D01*
X183426500Y-76454000D02*
X183361500Y-76389000D01*
%TO.N,/ch4_left_mix_in*%
X168148000Y-93964000D02*
X168148000Y-103712000D01*
X168148000Y-103712000D02*
X168101000Y-103759000D01*
%TO.N,/ch3_left_mix_in*%
X148336000Y-94218000D02*
X148336000Y-103759000D01*
%TO.N,/ch2_left_mix_in*%
X128524000Y-93964000D02*
X128524000Y-103691000D01*
X128524000Y-103691000D02*
X128592000Y-103759000D01*
%TO.N,/ch1_left_mix_in*%
X108712000Y-103679000D02*
X108792000Y-103759000D01*
X108712000Y-93964000D02*
X108712000Y-103679000D01*
%TO.N,/ch3_right_mix_in*%
X154178000Y-85598000D02*
X154178000Y-84058000D01*
X154178000Y-103601000D02*
X154336000Y-103759000D01*
%TO.N,/ch2_right_mix_in*%
X134620000Y-103731000D02*
X134592000Y-103759000D01*
X134620000Y-84042000D02*
X134620000Y-85852000D01*
%TO.N,/ch1_right_mix_in*%
X114808000Y-103743000D02*
X114792000Y-103759000D01*
X114808000Y-85852000D02*
X114808000Y-84058000D01*
%TO.N,Net-(U2A--)*%
X168148000Y-91964000D02*
X168132000Y-91948000D01*
X128524000Y-91964000D02*
X108712000Y-91964000D01*
X148352000Y-91948000D02*
X148336000Y-91964000D01*
X168132000Y-91948000D02*
X148352000Y-91948000D01*
X148336000Y-91964000D02*
X148320000Y-91948000D01*
X148320000Y-91948000D02*
X128540000Y-91948000D01*
X128540000Y-91948000D02*
X128524000Y-91964000D01*
%TO.N,Net-(U2B--)*%
X196850000Y-73305500D02*
X196850000Y-71465500D01*
%TO.N,Net-(U1A--)*%
X118872000Y-71628000D02*
X114808000Y-75692000D01*
X153035000Y-71628000D02*
X134620000Y-71628000D01*
X134620000Y-71628000D02*
X118872000Y-71628000D01*
X114808000Y-75692000D02*
X114808000Y-82058000D01*
X154178000Y-71628000D02*
X153035000Y-71628000D01*
X134620000Y-82042000D02*
X134620000Y-71628000D01*
X154178000Y-82058000D02*
X154178000Y-71628000D01*
%TO.N,Net-(J6-Pin_2)*%
X199236400Y-86770200D02*
X199136000Y-86669800D01*
D32*
X199236400Y-86767600D02*
X199263000Y-86741000D01*
X199236400Y-91592400D02*
X199236400Y-86767600D01*
%TO.N,Net-(J8-Pin_1)*%
X185197400Y-86995000D02*
X181615000Y-86995000D01*
X181615000Y-86995000D02*
X181610000Y-86990000D01*
D31*
X181615000Y-86995000D02*
X181610000Y-87000000D01*
%TO.N,Net-(R12-Pad1)*%
X179264500Y-76676000D02*
X179551500Y-76389000D01*
X177392500Y-76676000D02*
X179264500Y-76676000D01*
%TO.N,Net-(R13-Pad2)*%
X194007000Y-76718500D02*
X194310000Y-76415500D01*
X192151000Y-76718500D02*
X194007000Y-76718500D01*
%TD*%
%TA.AperFunction,Conductor*%
%TO.N,Net-(J6-Pin_2)*%
G36*
X201847039Y-85617685D02*
G01*
X201892794Y-85670489D01*
X201904000Y-85722000D01*
X201904000Y-98196420D01*
X201927811Y-99568849D01*
X201909293Y-99636220D01*
X201857290Y-99682884D01*
X201803830Y-99695000D01*
X198374000Y-99695000D01*
X198374000Y-103251000D01*
X200202745Y-103251000D01*
X200269784Y-103270685D01*
X200315539Y-103323489D01*
X200325483Y-103392647D01*
X200308284Y-103440096D01*
X200295095Y-103461477D01*
X200295092Y-103461484D01*
X200240826Y-103625247D01*
X200240826Y-103625248D01*
X200240825Y-103625248D01*
X200230500Y-103726315D01*
X200230500Y-104299669D01*
X200230501Y-104299687D01*
X200240825Y-104400752D01*
X200277109Y-104510249D01*
X200295092Y-104564516D01*
X200385660Y-104711350D01*
X200385662Y-104711352D01*
X200387539Y-104714395D01*
X200406000Y-104779492D01*
X200406000Y-104905000D01*
X200386315Y-104972039D01*
X200333511Y-105017794D01*
X200282000Y-105029000D01*
X190752815Y-105029000D01*
X190685776Y-105009315D01*
X190640021Y-104956511D01*
X190630077Y-104887353D01*
X190647275Y-104839905D01*
X190661814Y-104816334D01*
X190716999Y-104649797D01*
X190727500Y-104547009D01*
X190727499Y-102756992D01*
X190716999Y-102654203D01*
X190661814Y-102487666D01*
X190569712Y-102338344D01*
X190445656Y-102214288D01*
X190445655Y-102214287D01*
X190439578Y-102210539D01*
X190392853Y-102158591D01*
X190381630Y-102089629D01*
X190409474Y-102025546D01*
X190467542Y-101986690D01*
X190504674Y-101981000D01*
X197358000Y-101981000D01*
X197358000Y-101883991D01*
X197377685Y-101816952D01*
X197397705Y-101793049D01*
X197400662Y-101790307D01*
X197400671Y-101790300D01*
X197400675Y-101790297D01*
X197495452Y-101682044D01*
X197555892Y-101551474D01*
X197575920Y-101484536D01*
X197597126Y-101342228D01*
X197620853Y-96715227D01*
X197609583Y-96606457D01*
X197598380Y-96554311D01*
X197563976Y-96450496D01*
X197555187Y-96436820D01*
X197486192Y-96329462D01*
X197486183Y-96329451D01*
X197440439Y-96276659D01*
X197440435Y-96276656D01*
X197440433Y-96276653D01*
X197331699Y-96182433D01*
X197331696Y-96182431D01*
X197331694Y-96182430D01*
X197200828Y-96122664D01*
X197200823Y-96122662D01*
X197200822Y-96122662D01*
X197156129Y-96109538D01*
X197133780Y-96102976D01*
X197071717Y-96094053D01*
X196991363Y-96082500D01*
X195449400Y-96082500D01*
X195382361Y-96062815D01*
X195336606Y-96010011D01*
X195325400Y-95958500D01*
X195325400Y-95272400D01*
X195345085Y-95205361D01*
X195397889Y-95159606D01*
X195449400Y-95148400D01*
X198119400Y-95148400D01*
X198119400Y-85722000D01*
X198139085Y-85654961D01*
X198191889Y-85609206D01*
X198243400Y-85598000D01*
X201780000Y-85598000D01*
X201847039Y-85617685D01*
G37*
%TD.AperFunction*%
%TD*%
%TA.AperFunction,Conductor*%
%TO.N,Net-(U6-SW)*%
G36*
X197046439Y-88564085D02*
G01*
X197092194Y-88616889D01*
X197103400Y-88668400D01*
X197103400Y-94262400D01*
X197083715Y-94329439D01*
X197030911Y-94375194D01*
X196979400Y-94386400D01*
X192785865Y-94386400D01*
X192785455Y-88668409D01*
X192805135Y-88601368D01*
X192857935Y-88555609D01*
X192909455Y-88544400D01*
X196979400Y-88544400D01*
X197046439Y-88564085D01*
G37*
%TD.AperFunction*%
%TD*%
%TA.AperFunction,Conductor*%
%TO.N,Net-(U6-SW)*%
G36*
X194817400Y-95787636D02*
G01*
X194797715Y-95854675D01*
X194744911Y-95900430D01*
X194675753Y-95910374D01*
X194658805Y-95906712D01*
X194548973Y-95874802D01*
X194548967Y-95874801D01*
X194512101Y-95871900D01*
X194512094Y-95871900D01*
X193355706Y-95871900D01*
X193355698Y-95871900D01*
X193318832Y-95874801D01*
X193318826Y-95874802D01*
X193161006Y-95920654D01*
X193161003Y-95920655D01*
X193019537Y-96004317D01*
X193019532Y-96004321D01*
X192997656Y-96026197D01*
X192936332Y-96059681D01*
X192866640Y-96054695D01*
X192810708Y-96012823D01*
X192786292Y-95947358D01*
X192785976Y-95938523D01*
X192785973Y-95900430D01*
X192785865Y-94386400D01*
X194817400Y-94386400D01*
X194817400Y-95787636D01*
G37*
%TD.AperFunction*%
%TD*%
%TA.AperFunction,Conductor*%
%TO.N,GND*%
G36*
X186638098Y-94714877D02*
G01*
X186716319Y-94782656D01*
X186727064Y-94791967D01*
X186727068Y-94791969D01*
X186763466Y-94808592D01*
X186857941Y-94851738D01*
X186924980Y-94871423D01*
X186924984Y-94871424D01*
X187067400Y-94891900D01*
X188345900Y-94891900D01*
X188412939Y-94911585D01*
X188458694Y-94964389D01*
X188469900Y-95015900D01*
X188469900Y-96294400D01*
X188469901Y-96294409D01*
X188481452Y-96401850D01*
X188481454Y-96401862D01*
X188492660Y-96453372D01*
X188526783Y-96555897D01*
X188526786Y-96555903D01*
X188604571Y-96676937D01*
X188604579Y-96676948D01*
X188650323Y-96729740D01*
X188650326Y-96729743D01*
X188650330Y-96729747D01*
X188759064Y-96823967D01*
X188759067Y-96823968D01*
X188759068Y-96823969D01*
X188861291Y-96870654D01*
X188889941Y-96883738D01*
X188956980Y-96903423D01*
X188956984Y-96903424D01*
X189099400Y-96923900D01*
X189099403Y-96923900D01*
X191391390Y-96923900D01*
X191391400Y-96923900D01*
X191498856Y-96912347D01*
X191550367Y-96901141D01*
X191584597Y-96889747D01*
X191652897Y-96867016D01*
X191652901Y-96867013D01*
X191652904Y-96867013D01*
X191773943Y-96789225D01*
X191826747Y-96743470D01*
X191920967Y-96634736D01*
X191980738Y-96503859D01*
X192000423Y-96436820D01*
X192000424Y-96436816D01*
X192007805Y-96385478D01*
X192036828Y-96321925D01*
X192095605Y-96284150D01*
X192128059Y-96279151D01*
X192311892Y-96275476D01*
X192379309Y-96293816D01*
X192402051Y-96311772D01*
X192507757Y-96417483D01*
X192507763Y-96417488D01*
X192507765Y-96417490D01*
X192563697Y-96459362D01*
X192689976Y-96528319D01*
X192830567Y-96558906D01*
X192900259Y-96563892D01*
X192900261Y-96563892D01*
X193043775Y-96553631D01*
X193176423Y-96504157D01*
X193246113Y-96499174D01*
X193254350Y-96501264D01*
X193318831Y-96519998D01*
X193355706Y-96522900D01*
X193355714Y-96522900D01*
X194512086Y-96522900D01*
X194512094Y-96522900D01*
X194548969Y-96519998D01*
X194548971Y-96519997D01*
X194548973Y-96519997D01*
X194613824Y-96501156D01*
X194683693Y-96501355D01*
X194742363Y-96539297D01*
X194771207Y-96602935D01*
X194771157Y-96637877D01*
X194765540Y-96676948D01*
X194760500Y-96712001D01*
X194760500Y-96721104D01*
X194740815Y-96788143D01*
X194688011Y-96833898D01*
X194618853Y-96843842D01*
X194601907Y-96840181D01*
X194548970Y-96824802D01*
X194548967Y-96824801D01*
X194512101Y-96821900D01*
X194512094Y-96821900D01*
X193355706Y-96821900D01*
X193355698Y-96821900D01*
X193318832Y-96824801D01*
X193318826Y-96824802D01*
X193161006Y-96870654D01*
X193161005Y-96870654D01*
X193058068Y-96931530D01*
X193029884Y-96943774D01*
X192901896Y-96981355D01*
X192901892Y-96981357D01*
X192780862Y-97059139D01*
X192780851Y-97059147D01*
X192728059Y-97104891D01*
X192633833Y-97213632D01*
X192633830Y-97213636D01*
X192574064Y-97344502D01*
X192554376Y-97411550D01*
X192533900Y-97553969D01*
X192533900Y-99342407D01*
X192536894Y-99370244D01*
X192524490Y-99439003D01*
X192476880Y-99490141D01*
X192413605Y-99507500D01*
X186556900Y-99507500D01*
X186489861Y-99487815D01*
X186444106Y-99435011D01*
X186432900Y-99383500D01*
X186432900Y-94808592D01*
X186452585Y-94741553D01*
X186505389Y-94695798D01*
X186574547Y-94685854D01*
X186638098Y-94714877D01*
G37*
%TD.AperFunction*%
%TA.AperFunction,Conductor*%
G36*
X198952324Y-70581685D02*
G01*
X198998079Y-70634489D01*
X199008023Y-70703647D01*
X199002991Y-70725004D01*
X198962001Y-70848703D01*
X198962000Y-70848704D01*
X198951500Y-70951483D01*
X198951500Y-71751501D01*
X198951501Y-71751519D01*
X198962000Y-71854296D01*
X198962001Y-71854299D01*
X199017185Y-72020831D01*
X199017186Y-72020834D01*
X199103430Y-72160659D01*
X199109289Y-72170157D01*
X199202951Y-72263819D01*
X199236436Y-72325142D01*
X199231452Y-72394834D01*
X199202951Y-72439181D01*
X199109289Y-72532842D01*
X199017187Y-72682163D01*
X199017185Y-72682168D01*
X198992023Y-72758104D01*
X198962001Y-72848703D01*
X198962001Y-72848704D01*
X198962000Y-72848704D01*
X198951500Y-72951483D01*
X198951500Y-73439268D01*
X198931815Y-73506307D01*
X198915182Y-73526949D01*
X198845451Y-73596681D01*
X198784128Y-73630166D01*
X198757769Y-73633000D01*
X197724500Y-73633000D01*
X197657461Y-73613315D01*
X197611706Y-73560511D01*
X197600500Y-73509000D01*
X197600500Y-72572828D01*
X197605424Y-72538233D01*
X197647597Y-72393073D01*
X197647598Y-72393067D01*
X197650500Y-72356194D01*
X197650500Y-70686000D01*
X197670185Y-70618961D01*
X197722989Y-70573206D01*
X197774500Y-70562000D01*
X198885285Y-70562000D01*
X198952324Y-70581685D01*
G37*
%TD.AperFunction*%
%TA.AperFunction,Conductor*%
G36*
X184369809Y-70366185D02*
G01*
X184415564Y-70418989D01*
X184425508Y-70488147D01*
X184396483Y-70551703D01*
X184390451Y-70558181D01*
X184377289Y-70571342D01*
X184285187Y-70720663D01*
X184285185Y-70720668D01*
X184270329Y-70765500D01*
X184230001Y-70887203D01*
X184230001Y-70887204D01*
X184230000Y-70887204D01*
X184219500Y-70989983D01*
X184219500Y-70989996D01*
X184219501Y-71790000D01*
X184219501Y-71790019D01*
X184230000Y-71892796D01*
X184230001Y-71892799D01*
X184261497Y-71987845D01*
X184285186Y-72059334D01*
X184347683Y-72160659D01*
X184377289Y-72208657D01*
X184470951Y-72302319D01*
X184504436Y-72363642D01*
X184499452Y-72433334D01*
X184470951Y-72477681D01*
X184377289Y-72571342D01*
X184285187Y-72720663D01*
X184285186Y-72720666D01*
X184230001Y-72887203D01*
X184230001Y-72887204D01*
X184230000Y-72887204D01*
X184219500Y-72989983D01*
X184219500Y-72989991D01*
X184219500Y-73177038D01*
X184219501Y-73293500D01*
X184199817Y-73360539D01*
X184147013Y-73406294D01*
X184095501Y-73417500D01*
X182966000Y-73417500D01*
X182898961Y-73397815D01*
X182853206Y-73345011D01*
X182842000Y-73293500D01*
X182842000Y-72546328D01*
X182846924Y-72511733D01*
X182889097Y-72366573D01*
X182889098Y-72366567D01*
X182891999Y-72329701D01*
X182892000Y-72329694D01*
X182892000Y-70548306D01*
X182889098Y-70511431D01*
X182889097Y-70511426D01*
X182887257Y-70505092D01*
X182887458Y-70435222D01*
X182925402Y-70376553D01*
X182989041Y-70347712D01*
X183006334Y-70346500D01*
X183060082Y-70346500D01*
X183207918Y-70346500D01*
X184302770Y-70346500D01*
X184369809Y-70366185D01*
G37*
%TD.AperFunction*%
%TA.AperFunction,Conductor*%
G36*
X202889039Y-50692685D02*
G01*
X202934794Y-50745489D01*
X202946000Y-50797000D01*
X202946000Y-106937000D01*
X202926315Y-107004039D01*
X202873511Y-107049794D01*
X202822000Y-107061000D01*
X104010000Y-107061000D01*
X103942961Y-107041315D01*
X103897206Y-106988511D01*
X103886000Y-106937000D01*
X103886000Y-100607422D01*
X105441500Y-100607422D01*
X105472290Y-100801826D01*
X105533117Y-100989029D01*
X105605668Y-101131418D01*
X105622476Y-101164405D01*
X105738172Y-101323646D01*
X105877354Y-101462828D01*
X106036595Y-101578524D01*
X106119455Y-101620743D01*
X106211970Y-101667882D01*
X106211972Y-101667882D01*
X106211975Y-101667884D01*
X106312317Y-101700487D01*
X106399173Y-101728709D01*
X106593578Y-101759500D01*
X106593583Y-101759500D01*
X106790422Y-101759500D01*
X106984826Y-101728709D01*
X107006865Y-101721548D01*
X107172025Y-101667884D01*
X107347405Y-101578524D01*
X107506646Y-101462828D01*
X107645828Y-101323646D01*
X107737183Y-101197907D01*
X107792512Y-101155243D01*
X107862126Y-101149264D01*
X107923921Y-101181870D01*
X107958278Y-101242709D01*
X107961500Y-101270794D01*
X107961500Y-102752691D01*
X107941815Y-102819730D01*
X107925181Y-102840372D01*
X107821175Y-102944377D01*
X107694466Y-103125338D01*
X107694465Y-103125340D01*
X107601107Y-103325548D01*
X107601104Y-103325554D01*
X107543930Y-103538929D01*
X107543929Y-103538937D01*
X107524677Y-103758997D01*
X107524677Y-103759002D01*
X107543929Y-103979062D01*
X107543930Y-103979070D01*
X107601104Y-104192445D01*
X107601105Y-104192447D01*
X107601106Y-104192450D01*
X107648600Y-104294301D01*
X107694466Y-104392662D01*
X107694468Y-104392666D01*
X107821170Y-104573615D01*
X107821175Y-104573621D01*
X107977378Y-104729824D01*
X107977384Y-104729829D01*
X108158333Y-104856531D01*
X108158335Y-104856532D01*
X108158338Y-104856534D01*
X108358550Y-104949894D01*
X108571932Y-105007070D01*
X108729123Y-105020822D01*
X108791998Y-105026323D01*
X108792000Y-105026323D01*
X108792002Y-105026323D01*
X108847017Y-105021509D01*
X109012068Y-105007070D01*
X109225450Y-104949894D01*
X109425662Y-104856534D01*
X109606620Y-104729826D01*
X109762826Y-104573620D01*
X109889534Y-104392662D01*
X109954343Y-104253676D01*
X109979043Y-104218401D01*
X110392000Y-103805444D01*
X110392000Y-103811661D01*
X110419259Y-103913394D01*
X110471920Y-104004606D01*
X110546394Y-104079080D01*
X110637606Y-104131741D01*
X110739339Y-104159000D01*
X110745553Y-104159000D01*
X110093810Y-104810740D01*
X110158590Y-104856099D01*
X110158592Y-104856100D01*
X110358715Y-104949419D01*
X110358729Y-104949424D01*
X110572013Y-105006573D01*
X110572023Y-105006575D01*
X110791999Y-105025821D01*
X110792001Y-105025821D01*
X111011976Y-105006575D01*
X111011986Y-105006573D01*
X111225270Y-104949424D01*
X111225284Y-104949419D01*
X111425407Y-104856100D01*
X111425417Y-104856094D01*
X111490188Y-104810741D01*
X110838448Y-104159000D01*
X110844661Y-104159000D01*
X110946394Y-104131741D01*
X111037606Y-104079080D01*
X111112080Y-104004606D01*
X111164741Y-103913394D01*
X111192000Y-103811661D01*
X111192000Y-103805447D01*
X111792000Y-104405447D01*
X112392000Y-103805447D01*
X112392000Y-103811661D01*
X112419259Y-103913394D01*
X112471920Y-104004606D01*
X112546394Y-104079080D01*
X112637606Y-104131741D01*
X112739339Y-104159000D01*
X112745553Y-104159000D01*
X112093810Y-104810740D01*
X112158590Y-104856099D01*
X112158592Y-104856100D01*
X112358715Y-104949419D01*
X112358729Y-104949424D01*
X112572013Y-105006573D01*
X112572023Y-105006575D01*
X112791999Y-105025821D01*
X112792001Y-105025821D01*
X113011976Y-105006575D01*
X113011986Y-105006573D01*
X113225270Y-104949424D01*
X113225284Y-104949419D01*
X113425407Y-104856100D01*
X113425417Y-104856094D01*
X113490188Y-104810741D01*
X112838448Y-104159000D01*
X112844661Y-104159000D01*
X112946394Y-104131741D01*
X113037606Y-104079080D01*
X113112080Y-104004606D01*
X113164741Y-103913394D01*
X113192000Y-103811661D01*
X113192000Y-103805447D01*
X113604956Y-104218403D01*
X113629657Y-104253679D01*
X113694466Y-104392662D01*
X113694468Y-104392666D01*
X113821170Y-104573615D01*
X113821175Y-104573621D01*
X113977378Y-104729824D01*
X113977384Y-104729829D01*
X114158333Y-104856531D01*
X114158335Y-104856532D01*
X114158338Y-104856534D01*
X114358550Y-104949894D01*
X114571932Y-105007070D01*
X114729123Y-105020822D01*
X114791998Y-105026323D01*
X114792000Y-105026323D01*
X114792002Y-105026323D01*
X114847017Y-105021509D01*
X115012068Y-105007070D01*
X115225450Y-104949894D01*
X115425662Y-104856534D01*
X115606620Y-104729826D01*
X115704319Y-104632127D01*
X115765642Y-104598642D01*
X115835334Y-104603626D01*
X115879681Y-104632127D01*
X115977378Y-104729824D01*
X115977384Y-104729829D01*
X116158333Y-104856531D01*
X116158335Y-104856532D01*
X116158338Y-104856534D01*
X116358550Y-104949894D01*
X116571932Y-105007070D01*
X116729123Y-105020822D01*
X116791998Y-105026323D01*
X116792000Y-105026323D01*
X116792002Y-105026323D01*
X116847017Y-105021509D01*
X117012068Y-105007070D01*
X117225450Y-104949894D01*
X117425662Y-104856534D01*
X117606620Y-104729826D01*
X117704319Y-104632127D01*
X117765642Y-104598642D01*
X117835334Y-104603626D01*
X117879681Y-104632127D01*
X117977378Y-104729824D01*
X117977384Y-104729829D01*
X118158333Y-104856531D01*
X118158335Y-104856532D01*
X118158338Y-104856534D01*
X118358550Y-104949894D01*
X118571932Y-105007070D01*
X118729123Y-105020822D01*
X118791998Y-105026323D01*
X118792000Y-105026323D01*
X118792002Y-105026323D01*
X118847017Y-105021509D01*
X119012068Y-105007070D01*
X119225450Y-104949894D01*
X119425662Y-104856534D01*
X119606620Y-104729826D01*
X119762826Y-104573620D01*
X119889534Y-104392662D01*
X119982894Y-104192450D01*
X120040070Y-103979068D01*
X120059323Y-103759000D01*
X120056934Y-103731698D01*
X120046494Y-103612359D01*
X120040070Y-103538932D01*
X119982894Y-103325550D01*
X119889534Y-103125339D01*
X119778132Y-102966239D01*
X119762827Y-102944381D01*
X119704318Y-102885872D01*
X119606620Y-102788174D01*
X119606616Y-102788171D01*
X119606615Y-102788170D01*
X119425666Y-102661468D01*
X119425662Y-102661466D01*
X119342547Y-102622709D01*
X119225450Y-102568106D01*
X119225447Y-102568105D01*
X119225445Y-102568104D01*
X119012070Y-102510930D01*
X119012062Y-102510929D01*
X118792002Y-102491677D01*
X118791998Y-102491677D01*
X118571937Y-102510929D01*
X118571929Y-102510930D01*
X118358554Y-102568104D01*
X118358550Y-102568106D01*
X118336103Y-102578572D01*
X118158340Y-102661465D01*
X118158338Y-102661466D01*
X117977381Y-102788172D01*
X117879680Y-102885873D01*
X117818356Y-102919357D01*
X117748665Y-102914373D01*
X117704318Y-102885872D01*
X117606621Y-102788175D01*
X117606615Y-102788170D01*
X117425666Y-102661468D01*
X117425662Y-102661466D01*
X117342547Y-102622709D01*
X117225450Y-102568106D01*
X117225447Y-102568105D01*
X117225445Y-102568104D01*
X117012070Y-102510930D01*
X117012062Y-102510929D01*
X116792002Y-102491677D01*
X116791998Y-102491677D01*
X116571937Y-102510929D01*
X116571929Y-102510930D01*
X116358554Y-102568104D01*
X116358550Y-102568106D01*
X116336103Y-102578572D01*
X116158340Y-102661465D01*
X116158338Y-102661466D01*
X115977381Y-102788172D01*
X115879680Y-102885873D01*
X115818356Y-102919357D01*
X115748665Y-102914373D01*
X115704318Y-102885872D01*
X115606621Y-102788175D01*
X115606615Y-102788170D01*
X115425666Y-102661468D01*
X115425662Y-102661466D01*
X115342547Y-102622709D01*
X115225450Y-102568106D01*
X115225447Y-102568105D01*
X115225445Y-102568104D01*
X115012070Y-102510930D01*
X115012062Y-102510929D01*
X114792002Y-102491677D01*
X114791998Y-102491677D01*
X114571937Y-102510929D01*
X114571929Y-102510930D01*
X114358554Y-102568104D01*
X114358550Y-102568106D01*
X114336103Y-102578572D01*
X114158340Y-102661465D01*
X114158338Y-102661466D01*
X113977377Y-102788175D01*
X113821175Y-102944377D01*
X113694465Y-103125339D01*
X113629657Y-103264320D01*
X113604956Y-103299595D01*
X113192000Y-103712551D01*
X113192000Y-103706339D01*
X113164741Y-103604606D01*
X113112080Y-103513394D01*
X113037606Y-103438920D01*
X112946394Y-103386259D01*
X112844661Y-103359000D01*
X112838448Y-103359000D01*
X113490188Y-102707259D01*
X113490187Y-102707258D01*
X113425411Y-102661901D01*
X113425405Y-102661898D01*
X113225284Y-102568580D01*
X113225270Y-102568575D01*
X113011986Y-102511426D01*
X113011976Y-102511424D01*
X112792001Y-102492179D01*
X112791999Y-102492179D01*
X112572023Y-102511424D01*
X112572013Y-102511426D01*
X112358729Y-102568575D01*
X112358720Y-102568579D01*
X112158590Y-102661901D01*
X112093811Y-102707258D01*
X112745553Y-103359000D01*
X112739339Y-103359000D01*
X112637606Y-103386259D01*
X112546394Y-103438920D01*
X112471920Y-103513394D01*
X112419259Y-103604606D01*
X112392000Y-103706339D01*
X112392000Y-103712553D01*
X111792000Y-103112553D01*
X111192000Y-103712553D01*
X111192000Y-103706339D01*
X111164741Y-103604606D01*
X111112080Y-103513394D01*
X111037606Y-103438920D01*
X110946394Y-103386259D01*
X110844661Y-103359000D01*
X110838448Y-103359000D01*
X111490188Y-102707259D01*
X111490187Y-102707258D01*
X111425411Y-102661901D01*
X111425405Y-102661898D01*
X111225284Y-102568580D01*
X111225270Y-102568575D01*
X111011986Y-102511426D01*
X111011976Y-102511424D01*
X110792001Y-102492179D01*
X110791999Y-102492179D01*
X110572023Y-102511424D01*
X110572013Y-102511426D01*
X110358729Y-102568575D01*
X110358720Y-102568579D01*
X110158590Y-102661901D01*
X110093811Y-102707258D01*
X110745553Y-103359000D01*
X110739339Y-103359000D01*
X110637606Y-103386259D01*
X110546394Y-103438920D01*
X110471920Y-103513394D01*
X110419259Y-103604606D01*
X110392000Y-103706339D01*
X110392000Y-103712553D01*
X109979041Y-103299594D01*
X109954341Y-103264319D01*
X109889534Y-103125339D01*
X109778132Y-102966239D01*
X109762827Y-102944381D01*
X109704318Y-102885872D01*
X109606620Y-102788174D01*
X109527374Y-102732685D01*
X109515376Y-102724284D01*
X109471751Y-102669707D01*
X109462500Y-102622709D01*
X109462500Y-100607422D01*
X119641500Y-100607422D01*
X119672290Y-100801826D01*
X119733117Y-100989029D01*
X119805668Y-101131418D01*
X119822476Y-101164405D01*
X119938172Y-101323646D01*
X120077354Y-101462828D01*
X120236595Y-101578524D01*
X120319455Y-101620743D01*
X120411970Y-101667882D01*
X120411972Y-101667882D01*
X120411975Y-101667884D01*
X120512317Y-101700487D01*
X120599173Y-101728709D01*
X120793578Y-101759500D01*
X120793583Y-101759500D01*
X120990422Y-101759500D01*
X121184826Y-101728709D01*
X121206865Y-101721548D01*
X121372025Y-101667884D01*
X121547405Y-101578524D01*
X121706646Y-101462828D01*
X121845828Y-101323646D01*
X121961524Y-101164405D01*
X122050884Y-100989025D01*
X122111709Y-100801826D01*
X122120105Y-100748816D01*
X122142500Y-100607422D01*
X122142500Y-100310577D01*
X122111709Y-100116173D01*
X122050882Y-99928970D01*
X122003743Y-99836455D01*
X121961524Y-99753595D01*
X121845828Y-99594354D01*
X121706646Y-99455172D01*
X121547405Y-99339476D01*
X121372029Y-99250117D01*
X121184826Y-99189290D01*
X120990422Y-99158500D01*
X120990417Y-99158500D01*
X120793583Y-99158500D01*
X120793578Y-99158500D01*
X120599173Y-99189290D01*
X120411970Y-99250117D01*
X120236594Y-99339476D01*
X120176001Y-99383500D01*
X120077354Y-99455172D01*
X120077352Y-99455174D01*
X120077351Y-99455174D01*
X119938174Y-99594351D01*
X119938174Y-99594352D01*
X119938172Y-99594354D01*
X119899773Y-99647205D01*
X119822476Y-99753594D01*
X119733117Y-99928970D01*
X119672290Y-100116173D01*
X119641500Y-100310577D01*
X119641500Y-100607422D01*
X109462500Y-100607422D01*
X109462500Y-95079638D01*
X109482185Y-95012599D01*
X109521401Y-94974100D01*
X109630656Y-94906712D01*
X109754712Y-94782656D01*
X109846814Y-94633334D01*
X109901999Y-94466797D01*
X109912500Y-94364009D01*
X109912499Y-93563992D01*
X109901999Y-93461203D01*
X109846814Y-93294666D01*
X109754712Y-93145344D01*
X109661049Y-93051681D01*
X109627564Y-92990358D01*
X109632548Y-92920666D01*
X109661049Y-92876319D01*
X109754712Y-92782656D01*
X109760420Y-92773402D01*
X109812368Y-92726678D01*
X109865958Y-92714500D01*
X127370042Y-92714500D01*
X127437081Y-92734185D01*
X127475580Y-92773402D01*
X127481287Y-92782655D01*
X127574951Y-92876319D01*
X127608436Y-92937642D01*
X127603452Y-93007334D01*
X127574951Y-93051681D01*
X127481289Y-93145342D01*
X127389187Y-93294663D01*
X127389186Y-93294666D01*
X127334001Y-93461203D01*
X127334001Y-93461204D01*
X127334000Y-93461204D01*
X127323500Y-93563983D01*
X127323500Y-94364001D01*
X127323501Y-94364019D01*
X127334000Y-94466796D01*
X127334001Y-94466799D01*
X127335678Y-94471859D01*
X127389186Y-94633334D01*
X127481288Y-94782656D01*
X127605344Y-94906712D01*
X127714597Y-94974099D01*
X127761321Y-95026047D01*
X127773500Y-95079638D01*
X127773500Y-99663721D01*
X127753815Y-99730760D01*
X127701011Y-99776515D01*
X127631853Y-99786459D01*
X127568297Y-99757434D01*
X127549182Y-99736607D01*
X127484227Y-99647205D01*
X127445828Y-99594354D01*
X127306646Y-99455172D01*
X127147405Y-99339476D01*
X126972029Y-99250117D01*
X126784826Y-99189290D01*
X126590422Y-99158500D01*
X126590417Y-99158500D01*
X126393583Y-99158500D01*
X126393578Y-99158500D01*
X126199173Y-99189290D01*
X126011970Y-99250117D01*
X125836594Y-99339476D01*
X125776001Y-99383500D01*
X125677354Y-99455172D01*
X125677352Y-99455174D01*
X125677351Y-99455174D01*
X125538174Y-99594351D01*
X125538174Y-99594352D01*
X125538172Y-99594354D01*
X125499773Y-99647205D01*
X125422476Y-99753594D01*
X125333117Y-99928970D01*
X125272290Y-100116173D01*
X125241500Y-100310577D01*
X125241500Y-100607422D01*
X125272290Y-100801826D01*
X125333117Y-100989029D01*
X125405668Y-101131418D01*
X125422476Y-101164405D01*
X125538172Y-101323646D01*
X125677354Y-101462828D01*
X125836595Y-101578524D01*
X125919455Y-101620743D01*
X126011970Y-101667882D01*
X126011972Y-101667882D01*
X126011975Y-101667884D01*
X126112317Y-101700487D01*
X126199173Y-101728709D01*
X126393578Y-101759500D01*
X126393583Y-101759500D01*
X126590422Y-101759500D01*
X126784826Y-101728709D01*
X126806865Y-101721548D01*
X126972025Y-101667884D01*
X127147405Y-101578524D01*
X127306646Y-101462828D01*
X127445828Y-101323646D01*
X127549182Y-101181391D01*
X127604512Y-101138727D01*
X127674126Y-101132748D01*
X127735921Y-101165354D01*
X127770278Y-101226193D01*
X127773500Y-101254278D01*
X127773500Y-102740691D01*
X127753815Y-102807730D01*
X127737181Y-102828372D01*
X127621175Y-102944377D01*
X127494466Y-103125338D01*
X127494465Y-103125340D01*
X127401107Y-103325548D01*
X127401104Y-103325554D01*
X127343930Y-103538929D01*
X127343929Y-103538937D01*
X127324677Y-103758997D01*
X127324677Y-103759002D01*
X127343929Y-103979062D01*
X127343930Y-103979070D01*
X127401104Y-104192445D01*
X127401105Y-104192447D01*
X127401106Y-104192450D01*
X127448600Y-104294301D01*
X127494466Y-104392662D01*
X127494468Y-104392666D01*
X127621170Y-104573615D01*
X127621175Y-104573621D01*
X127777378Y-104729824D01*
X127777384Y-104729829D01*
X127958333Y-104856531D01*
X127958335Y-104856532D01*
X127958338Y-104856534D01*
X128158550Y-104949894D01*
X128371932Y-105007070D01*
X128529123Y-105020822D01*
X128591998Y-105026323D01*
X128592000Y-105026323D01*
X128592002Y-105026323D01*
X128647017Y-105021509D01*
X128812068Y-105007070D01*
X129025450Y-104949894D01*
X129225662Y-104856534D01*
X129406620Y-104729826D01*
X129562826Y-104573620D01*
X129689534Y-104392662D01*
X129754343Y-104253676D01*
X129779043Y-104218401D01*
X130192000Y-103805444D01*
X130192000Y-103811661D01*
X130219259Y-103913394D01*
X130271920Y-104004606D01*
X130346394Y-104079080D01*
X130437606Y-104131741D01*
X130539339Y-104159000D01*
X130545553Y-104159000D01*
X129893810Y-104810740D01*
X129958590Y-104856099D01*
X129958592Y-104856100D01*
X130158715Y-104949419D01*
X130158729Y-104949424D01*
X130372013Y-105006573D01*
X130372023Y-105006575D01*
X130591999Y-105025821D01*
X130592001Y-105025821D01*
X130811976Y-105006575D01*
X130811986Y-105006573D01*
X131025270Y-104949424D01*
X131025284Y-104949419D01*
X131225407Y-104856100D01*
X131225417Y-104856094D01*
X131290188Y-104810741D01*
X130638448Y-104159000D01*
X130644661Y-104159000D01*
X130746394Y-104131741D01*
X130837606Y-104079080D01*
X130912080Y-104004606D01*
X130964741Y-103913394D01*
X130992000Y-103811661D01*
X130992000Y-103805447D01*
X131592000Y-104405447D01*
X132192000Y-103805447D01*
X132192000Y-103811661D01*
X132219259Y-103913394D01*
X132271920Y-104004606D01*
X132346394Y-104079080D01*
X132437606Y-104131741D01*
X132539339Y-104159000D01*
X132545553Y-104159000D01*
X131893810Y-104810740D01*
X131958590Y-104856099D01*
X131958592Y-104856100D01*
X132158715Y-104949419D01*
X132158729Y-104949424D01*
X132372013Y-105006573D01*
X132372023Y-105006575D01*
X132591999Y-105025821D01*
X132592001Y-105025821D01*
X132811976Y-105006575D01*
X132811986Y-105006573D01*
X133025270Y-104949424D01*
X133025284Y-104949419D01*
X133225407Y-104856100D01*
X133225417Y-104856094D01*
X133290188Y-104810741D01*
X132638448Y-104159000D01*
X132644661Y-104159000D01*
X132746394Y-104131741D01*
X132837606Y-104079080D01*
X132912080Y-104004606D01*
X132964741Y-103913394D01*
X132992000Y-103811661D01*
X132992000Y-103805447D01*
X133404956Y-104218403D01*
X133429657Y-104253679D01*
X133494466Y-104392662D01*
X133494468Y-104392666D01*
X133621170Y-104573615D01*
X133621175Y-104573621D01*
X133777378Y-104729824D01*
X133777384Y-104729829D01*
X133958333Y-104856531D01*
X133958335Y-104856532D01*
X133958338Y-104856534D01*
X134158550Y-104949894D01*
X134371932Y-105007070D01*
X134529123Y-105020822D01*
X134591998Y-105026323D01*
X134592000Y-105026323D01*
X134592002Y-105026323D01*
X134647017Y-105021509D01*
X134812068Y-105007070D01*
X135025450Y-104949894D01*
X135225662Y-104856534D01*
X135406620Y-104729826D01*
X135504319Y-104632127D01*
X135565642Y-104598642D01*
X135635334Y-104603626D01*
X135679681Y-104632127D01*
X135777378Y-104729824D01*
X135777384Y-104729829D01*
X135958333Y-104856531D01*
X135958335Y-104856532D01*
X135958338Y-104856534D01*
X136158550Y-104949894D01*
X136371932Y-105007070D01*
X136529123Y-105020822D01*
X136591998Y-105026323D01*
X136592000Y-105026323D01*
X136592002Y-105026323D01*
X136647017Y-105021509D01*
X136812068Y-105007070D01*
X137025450Y-104949894D01*
X137225662Y-104856534D01*
X137406620Y-104729826D01*
X137504319Y-104632127D01*
X137565642Y-104598642D01*
X137635334Y-104603626D01*
X137679681Y-104632127D01*
X137777378Y-104729824D01*
X137777384Y-104729829D01*
X137958333Y-104856531D01*
X137958335Y-104856532D01*
X137958338Y-104856534D01*
X138158550Y-104949894D01*
X138371932Y-105007070D01*
X138529123Y-105020822D01*
X138591998Y-105026323D01*
X138592000Y-105026323D01*
X138592002Y-105026323D01*
X138647017Y-105021509D01*
X138812068Y-105007070D01*
X139025450Y-104949894D01*
X139225662Y-104856534D01*
X139406620Y-104729826D01*
X139562826Y-104573620D01*
X139689534Y-104392662D01*
X139782894Y-104192450D01*
X139840070Y-103979068D01*
X139859323Y-103759000D01*
X139856934Y-103731698D01*
X139846494Y-103612359D01*
X139840070Y-103538932D01*
X139782894Y-103325550D01*
X139689534Y-103125339D01*
X139578132Y-102966239D01*
X139562827Y-102944381D01*
X139504318Y-102885872D01*
X139406620Y-102788174D01*
X139406616Y-102788171D01*
X139406615Y-102788170D01*
X139225666Y-102661468D01*
X139225662Y-102661466D01*
X139142547Y-102622709D01*
X139025450Y-102568106D01*
X139025447Y-102568105D01*
X139025445Y-102568104D01*
X138812070Y-102510930D01*
X138812062Y-102510929D01*
X138592002Y-102491677D01*
X138591998Y-102491677D01*
X138371937Y-102510929D01*
X138371929Y-102510930D01*
X138158554Y-102568104D01*
X138158550Y-102568106D01*
X138136103Y-102578572D01*
X137958340Y-102661465D01*
X137958338Y-102661466D01*
X137777381Y-102788172D01*
X137679680Y-102885873D01*
X137618356Y-102919357D01*
X137548665Y-102914373D01*
X137504318Y-102885872D01*
X137406621Y-102788175D01*
X137406615Y-102788170D01*
X137225666Y-102661468D01*
X137225662Y-102661466D01*
X137142547Y-102622709D01*
X137025450Y-102568106D01*
X137025447Y-102568105D01*
X137025445Y-102568104D01*
X136812070Y-102510930D01*
X136812062Y-102510929D01*
X136592002Y-102491677D01*
X136591998Y-102491677D01*
X136371937Y-102510929D01*
X136371929Y-102510930D01*
X136158554Y-102568104D01*
X136158550Y-102568106D01*
X136136103Y-102578572D01*
X135958340Y-102661465D01*
X135958338Y-102661466D01*
X135777381Y-102788172D01*
X135679680Y-102885873D01*
X135618356Y-102919357D01*
X135548665Y-102914373D01*
X135504318Y-102885872D01*
X135406621Y-102788175D01*
X135406615Y-102788170D01*
X135225666Y-102661468D01*
X135225662Y-102661466D01*
X135142547Y-102622709D01*
X135025450Y-102568106D01*
X135025447Y-102568105D01*
X135025445Y-102568104D01*
X134812070Y-102510930D01*
X134812062Y-102510929D01*
X134592002Y-102491677D01*
X134591998Y-102491677D01*
X134371937Y-102510929D01*
X134371929Y-102510930D01*
X134158554Y-102568104D01*
X134158550Y-102568106D01*
X134136103Y-102578572D01*
X133958340Y-102661465D01*
X133958338Y-102661466D01*
X133777377Y-102788175D01*
X133621175Y-102944377D01*
X133494465Y-103125339D01*
X133429657Y-103264320D01*
X133404956Y-103299595D01*
X132992000Y-103712551D01*
X132992000Y-103706339D01*
X132964741Y-103604606D01*
X132912080Y-103513394D01*
X132837606Y-103438920D01*
X132746394Y-103386259D01*
X132644661Y-103359000D01*
X132638448Y-103359000D01*
X133290188Y-102707259D01*
X133290187Y-102707258D01*
X133225411Y-102661901D01*
X133225405Y-102661898D01*
X133025284Y-102568580D01*
X133025270Y-102568575D01*
X132811986Y-102511426D01*
X132811976Y-102511424D01*
X132592001Y-102492179D01*
X132591999Y-102492179D01*
X132372023Y-102511424D01*
X132372013Y-102511426D01*
X132158729Y-102568575D01*
X132158720Y-102568579D01*
X131958590Y-102661901D01*
X131893811Y-102707258D01*
X132545553Y-103359000D01*
X132539339Y-103359000D01*
X132437606Y-103386259D01*
X132346394Y-103438920D01*
X132271920Y-103513394D01*
X132219259Y-103604606D01*
X132192000Y-103706339D01*
X132192000Y-103712553D01*
X131592000Y-103112553D01*
X130992000Y-103712553D01*
X130992000Y-103706339D01*
X130964741Y-103604606D01*
X130912080Y-103513394D01*
X130837606Y-103438920D01*
X130746394Y-103386259D01*
X130644661Y-103359000D01*
X130638448Y-103359000D01*
X131290188Y-102707259D01*
X131290187Y-102707258D01*
X131225411Y-102661901D01*
X131225405Y-102661898D01*
X131025284Y-102568580D01*
X131025270Y-102568575D01*
X130811986Y-102511426D01*
X130811976Y-102511424D01*
X130592001Y-102492179D01*
X130591999Y-102492179D01*
X130372023Y-102511424D01*
X130372013Y-102511426D01*
X130158729Y-102568575D01*
X130158720Y-102568579D01*
X129958590Y-102661901D01*
X129893811Y-102707258D01*
X130545553Y-103359000D01*
X130539339Y-103359000D01*
X130437606Y-103386259D01*
X130346394Y-103438920D01*
X130271920Y-103513394D01*
X130219259Y-103604606D01*
X130192000Y-103706339D01*
X130192000Y-103712553D01*
X129779041Y-103299594D01*
X129754341Y-103264319D01*
X129689534Y-103125339D01*
X129578132Y-102966239D01*
X129562827Y-102944381D01*
X129504318Y-102885872D01*
X129406620Y-102788174D01*
X129395373Y-102780299D01*
X129327375Y-102732685D01*
X129283751Y-102678108D01*
X129274500Y-102631111D01*
X129274500Y-100607422D01*
X139441500Y-100607422D01*
X139472290Y-100801826D01*
X139533117Y-100989029D01*
X139605668Y-101131418D01*
X139622476Y-101164405D01*
X139738172Y-101323646D01*
X139877354Y-101462828D01*
X140036595Y-101578524D01*
X140119455Y-101620743D01*
X140211970Y-101667882D01*
X140211972Y-101667882D01*
X140211975Y-101667884D01*
X140312317Y-101700487D01*
X140399173Y-101728709D01*
X140593578Y-101759500D01*
X140593583Y-101759500D01*
X140790422Y-101759500D01*
X140984826Y-101728709D01*
X141006865Y-101721548D01*
X141172025Y-101667884D01*
X141347405Y-101578524D01*
X141506646Y-101462828D01*
X141645828Y-101323646D01*
X141761524Y-101164405D01*
X141850884Y-100989025D01*
X141911709Y-100801826D01*
X141920105Y-100748816D01*
X141942500Y-100607422D01*
X141942500Y-100310577D01*
X141911709Y-100116173D01*
X141850882Y-99928970D01*
X141803743Y-99836455D01*
X141761524Y-99753595D01*
X141645828Y-99594354D01*
X141506646Y-99455172D01*
X141347405Y-99339476D01*
X141172029Y-99250117D01*
X140984826Y-99189290D01*
X140790422Y-99158500D01*
X140790417Y-99158500D01*
X140593583Y-99158500D01*
X140593578Y-99158500D01*
X140399173Y-99189290D01*
X140211970Y-99250117D01*
X140036594Y-99339476D01*
X139976001Y-99383500D01*
X139877354Y-99455172D01*
X139877352Y-99455174D01*
X139877351Y-99455174D01*
X139738174Y-99594351D01*
X139738174Y-99594352D01*
X139738172Y-99594354D01*
X139699773Y-99647205D01*
X139622476Y-99753594D01*
X139533117Y-99928970D01*
X139472290Y-100116173D01*
X139441500Y-100310577D01*
X139441500Y-100607422D01*
X129274500Y-100607422D01*
X129274500Y-95079638D01*
X129294185Y-95012599D01*
X129333401Y-94974100D01*
X129442656Y-94906712D01*
X129566712Y-94782656D01*
X129658814Y-94633334D01*
X129713999Y-94466797D01*
X129724500Y-94364009D01*
X129724499Y-93563992D01*
X129713999Y-93461203D01*
X129658814Y-93294666D01*
X129566712Y-93145344D01*
X129473049Y-93051681D01*
X129439564Y-92990358D01*
X129444548Y-92920666D01*
X129473049Y-92876319D01*
X129566712Y-92782656D01*
X129582289Y-92757402D01*
X129634237Y-92710678D01*
X129687827Y-92698500D01*
X147172173Y-92698500D01*
X147239212Y-92718185D01*
X147277711Y-92757402D01*
X147293287Y-92782655D01*
X147386951Y-92876319D01*
X147420436Y-92937642D01*
X147415452Y-93007334D01*
X147386951Y-93051681D01*
X147293289Y-93145342D01*
X147201187Y-93294663D01*
X147201186Y-93294666D01*
X147146001Y-93461203D01*
X147146001Y-93461204D01*
X147146000Y-93461204D01*
X147135500Y-93563983D01*
X147135500Y-94364001D01*
X147135501Y-94364019D01*
X147146000Y-94466796D01*
X147146001Y-94466799D01*
X147147678Y-94471859D01*
X147201186Y-94633334D01*
X147293288Y-94782656D01*
X147417344Y-94906712D01*
X147526597Y-94974099D01*
X147573321Y-95026047D01*
X147585500Y-95079638D01*
X147585500Y-99786581D01*
X147565815Y-99853620D01*
X147513011Y-99899375D01*
X147443853Y-99909319D01*
X147380297Y-99880294D01*
X147351015Y-99842876D01*
X147317202Y-99776515D01*
X147305524Y-99753595D01*
X147189828Y-99594354D01*
X147050646Y-99455172D01*
X146891405Y-99339476D01*
X146716029Y-99250117D01*
X146528826Y-99189290D01*
X146334422Y-99158500D01*
X146334417Y-99158500D01*
X146137583Y-99158500D01*
X146137578Y-99158500D01*
X145943173Y-99189290D01*
X145755970Y-99250117D01*
X145580594Y-99339476D01*
X145520001Y-99383500D01*
X145421354Y-99455172D01*
X145421352Y-99455174D01*
X145421351Y-99455174D01*
X145282174Y-99594351D01*
X145282174Y-99594352D01*
X145282172Y-99594354D01*
X145243773Y-99647205D01*
X145166476Y-99753594D01*
X145077117Y-99928970D01*
X145016290Y-100116173D01*
X144985500Y-100310577D01*
X144985500Y-100607422D01*
X145016290Y-100801826D01*
X145077117Y-100989029D01*
X145149668Y-101131418D01*
X145166476Y-101164405D01*
X145282172Y-101323646D01*
X145421354Y-101462828D01*
X145580595Y-101578524D01*
X145663455Y-101620743D01*
X145755970Y-101667882D01*
X145755972Y-101667882D01*
X145755975Y-101667884D01*
X145856317Y-101700487D01*
X145943173Y-101728709D01*
X146137578Y-101759500D01*
X146137583Y-101759500D01*
X146334422Y-101759500D01*
X146528826Y-101728709D01*
X146550865Y-101721548D01*
X146716025Y-101667884D01*
X146891405Y-101578524D01*
X147050646Y-101462828D01*
X147189828Y-101323646D01*
X147305524Y-101164405D01*
X147351015Y-101075122D01*
X147398989Y-101024327D01*
X147466810Y-101007532D01*
X147532945Y-101030069D01*
X147576397Y-101084784D01*
X147585500Y-101131418D01*
X147585500Y-102678726D01*
X147565815Y-102745765D01*
X147532625Y-102780299D01*
X147521389Y-102788166D01*
X147521382Y-102788172D01*
X147365172Y-102944381D01*
X147238466Y-103125338D01*
X147238465Y-103125340D01*
X147145107Y-103325548D01*
X147145104Y-103325554D01*
X147087930Y-103538929D01*
X147087929Y-103538937D01*
X147068677Y-103758997D01*
X147068677Y-103759002D01*
X147087929Y-103979062D01*
X147087930Y-103979070D01*
X147145104Y-104192445D01*
X147145105Y-104192447D01*
X147145106Y-104192450D01*
X147192600Y-104294301D01*
X147238466Y-104392662D01*
X147238468Y-104392666D01*
X147365170Y-104573615D01*
X147365175Y-104573621D01*
X147521378Y-104729824D01*
X147521384Y-104729829D01*
X147702333Y-104856531D01*
X147702335Y-104856532D01*
X147702338Y-104856534D01*
X147902550Y-104949894D01*
X148115932Y-105007070D01*
X148273123Y-105020822D01*
X148335998Y-105026323D01*
X148336000Y-105026323D01*
X148336002Y-105026323D01*
X148391017Y-105021509D01*
X148556068Y-105007070D01*
X148769450Y-104949894D01*
X148969662Y-104856534D01*
X149150620Y-104729826D01*
X149306826Y-104573620D01*
X149433534Y-104392662D01*
X149498343Y-104253676D01*
X149523043Y-104218401D01*
X149936000Y-103805444D01*
X149936000Y-103811661D01*
X149963259Y-103913394D01*
X150015920Y-104004606D01*
X150090394Y-104079080D01*
X150181606Y-104131741D01*
X150283339Y-104159000D01*
X150289553Y-104159000D01*
X149637810Y-104810740D01*
X149702590Y-104856099D01*
X149702592Y-104856100D01*
X149902715Y-104949419D01*
X149902729Y-104949424D01*
X150116013Y-105006573D01*
X150116023Y-105006575D01*
X150335999Y-105025821D01*
X150336001Y-105025821D01*
X150555976Y-105006575D01*
X150555986Y-105006573D01*
X150769270Y-104949424D01*
X150769284Y-104949419D01*
X150969407Y-104856100D01*
X150969417Y-104856094D01*
X151034188Y-104810741D01*
X150382448Y-104159000D01*
X150388661Y-104159000D01*
X150490394Y-104131741D01*
X150581606Y-104079080D01*
X150656080Y-104004606D01*
X150708741Y-103913394D01*
X150736000Y-103811661D01*
X150736000Y-103805447D01*
X151336000Y-104405447D01*
X151936000Y-103805447D01*
X151936000Y-103811661D01*
X151963259Y-103913394D01*
X152015920Y-104004606D01*
X152090394Y-104079080D01*
X152181606Y-104131741D01*
X152283339Y-104159000D01*
X152289553Y-104159000D01*
X151637810Y-104810740D01*
X151702590Y-104856099D01*
X151702592Y-104856100D01*
X151902715Y-104949419D01*
X151902729Y-104949424D01*
X152116013Y-105006573D01*
X152116023Y-105006575D01*
X152335999Y-105025821D01*
X152336001Y-105025821D01*
X152555976Y-105006575D01*
X152555986Y-105006573D01*
X152769270Y-104949424D01*
X152769284Y-104949419D01*
X152969407Y-104856100D01*
X152969417Y-104856094D01*
X153034188Y-104810741D01*
X152382448Y-104159000D01*
X152388661Y-104159000D01*
X152490394Y-104131741D01*
X152581606Y-104079080D01*
X152656080Y-104004606D01*
X152708741Y-103913394D01*
X152736000Y-103811661D01*
X152736000Y-103805447D01*
X153148956Y-104218403D01*
X153173657Y-104253679D01*
X153238466Y-104392662D01*
X153238468Y-104392666D01*
X153365170Y-104573615D01*
X153365175Y-104573621D01*
X153521378Y-104729824D01*
X153521384Y-104729829D01*
X153702333Y-104856531D01*
X153702335Y-104856532D01*
X153702338Y-104856534D01*
X153902550Y-104949894D01*
X154115932Y-105007070D01*
X154273123Y-105020822D01*
X154335998Y-105026323D01*
X154336000Y-105026323D01*
X154336002Y-105026323D01*
X154391017Y-105021509D01*
X154556068Y-105007070D01*
X154769450Y-104949894D01*
X154969662Y-104856534D01*
X155150620Y-104729826D01*
X155248319Y-104632127D01*
X155309642Y-104598642D01*
X155379334Y-104603626D01*
X155423681Y-104632127D01*
X155521378Y-104729824D01*
X155521384Y-104729829D01*
X155702333Y-104856531D01*
X155702335Y-104856532D01*
X155702338Y-104856534D01*
X155902550Y-104949894D01*
X156115932Y-105007070D01*
X156273123Y-105020822D01*
X156335998Y-105026323D01*
X156336000Y-105026323D01*
X156336002Y-105026323D01*
X156391017Y-105021509D01*
X156556068Y-105007070D01*
X156769450Y-104949894D01*
X156969662Y-104856534D01*
X157150620Y-104729826D01*
X157248319Y-104632127D01*
X157309642Y-104598642D01*
X157379334Y-104603626D01*
X157423681Y-104632127D01*
X157521378Y-104729824D01*
X157521384Y-104729829D01*
X157702333Y-104856531D01*
X157702335Y-104856532D01*
X157702338Y-104856534D01*
X157902550Y-104949894D01*
X158115932Y-105007070D01*
X158273123Y-105020822D01*
X158335998Y-105026323D01*
X158336000Y-105026323D01*
X158336002Y-105026323D01*
X158391017Y-105021509D01*
X158556068Y-105007070D01*
X158769450Y-104949894D01*
X158969662Y-104856534D01*
X159150620Y-104729826D01*
X159306826Y-104573620D01*
X159433534Y-104392662D01*
X159526894Y-104192450D01*
X159584070Y-103979068D01*
X159603323Y-103759000D01*
X159600934Y-103731698D01*
X159590494Y-103612359D01*
X159584070Y-103538932D01*
X159526894Y-103325550D01*
X159433534Y-103125339D01*
X159322132Y-102966239D01*
X159306827Y-102944381D01*
X159248318Y-102885872D01*
X159150620Y-102788174D01*
X159150616Y-102788171D01*
X159150615Y-102788170D01*
X158969666Y-102661468D01*
X158969662Y-102661466D01*
X158886547Y-102622709D01*
X158769450Y-102568106D01*
X158769447Y-102568105D01*
X158769445Y-102568104D01*
X158556070Y-102510930D01*
X158556062Y-102510929D01*
X158336002Y-102491677D01*
X158335998Y-102491677D01*
X158115937Y-102510929D01*
X158115929Y-102510930D01*
X157902554Y-102568104D01*
X157902550Y-102568106D01*
X157880103Y-102578572D01*
X157702340Y-102661465D01*
X157702338Y-102661466D01*
X157521381Y-102788172D01*
X157423680Y-102885873D01*
X157362356Y-102919357D01*
X157292665Y-102914373D01*
X157248318Y-102885872D01*
X157150621Y-102788175D01*
X157150615Y-102788170D01*
X156969666Y-102661468D01*
X156969662Y-102661466D01*
X156886547Y-102622709D01*
X156769450Y-102568106D01*
X156769447Y-102568105D01*
X156769445Y-102568104D01*
X156556070Y-102510930D01*
X156556062Y-102510929D01*
X156336002Y-102491677D01*
X156335998Y-102491677D01*
X156115937Y-102510929D01*
X156115929Y-102510930D01*
X155902554Y-102568104D01*
X155902550Y-102568106D01*
X155880103Y-102578572D01*
X155702340Y-102661465D01*
X155702338Y-102661466D01*
X155521381Y-102788172D01*
X155423680Y-102885873D01*
X155362356Y-102919357D01*
X155292665Y-102914373D01*
X155248318Y-102885872D01*
X155150621Y-102788175D01*
X155150615Y-102788170D01*
X154969666Y-102661468D01*
X154969662Y-102661466D01*
X154886547Y-102622709D01*
X154769450Y-102568106D01*
X154769447Y-102568105D01*
X154769445Y-102568104D01*
X154556070Y-102510930D01*
X154556062Y-102510929D01*
X154336002Y-102491677D01*
X154335998Y-102491677D01*
X154115937Y-102510929D01*
X154115929Y-102510930D01*
X153902554Y-102568104D01*
X153902550Y-102568106D01*
X153880103Y-102578572D01*
X153702340Y-102661465D01*
X153702338Y-102661466D01*
X153521377Y-102788175D01*
X153365175Y-102944377D01*
X153238465Y-103125339D01*
X153173657Y-103264320D01*
X153148956Y-103299595D01*
X152736000Y-103712551D01*
X152736000Y-103706339D01*
X152708741Y-103604606D01*
X152656080Y-103513394D01*
X152581606Y-103438920D01*
X152490394Y-103386259D01*
X152388661Y-103359000D01*
X152382448Y-103359000D01*
X153034188Y-102707259D01*
X153034187Y-102707258D01*
X152969411Y-102661901D01*
X152969405Y-102661898D01*
X152769284Y-102568580D01*
X152769270Y-102568575D01*
X152555986Y-102511426D01*
X152555976Y-102511424D01*
X152336001Y-102492179D01*
X152335999Y-102492179D01*
X152116023Y-102511424D01*
X152116013Y-102511426D01*
X151902729Y-102568575D01*
X151902720Y-102568579D01*
X151702590Y-102661901D01*
X151637811Y-102707258D01*
X152289553Y-103359000D01*
X152283339Y-103359000D01*
X152181606Y-103386259D01*
X152090394Y-103438920D01*
X152015920Y-103513394D01*
X151963259Y-103604606D01*
X151936000Y-103706339D01*
X151936000Y-103712553D01*
X151336000Y-103112553D01*
X150736000Y-103712553D01*
X150736000Y-103706339D01*
X150708741Y-103604606D01*
X150656080Y-103513394D01*
X150581606Y-103438920D01*
X150490394Y-103386259D01*
X150388661Y-103359000D01*
X150382448Y-103359000D01*
X151034188Y-102707259D01*
X151034187Y-102707258D01*
X150969411Y-102661901D01*
X150969405Y-102661898D01*
X150769284Y-102568580D01*
X150769270Y-102568575D01*
X150555986Y-102511426D01*
X150555976Y-102511424D01*
X150336001Y-102492179D01*
X150335999Y-102492179D01*
X150116023Y-102511424D01*
X150116013Y-102511426D01*
X149902729Y-102568575D01*
X149902720Y-102568579D01*
X149702590Y-102661901D01*
X149637811Y-102707258D01*
X150289553Y-103359000D01*
X150283339Y-103359000D01*
X150181606Y-103386259D01*
X150090394Y-103438920D01*
X150015920Y-103513394D01*
X149963259Y-103604606D01*
X149936000Y-103706339D01*
X149936000Y-103712553D01*
X149523041Y-103299594D01*
X149498341Y-103264319D01*
X149433534Y-103125339D01*
X149322132Y-102966239D01*
X149306827Y-102944381D01*
X149248318Y-102885872D01*
X149150620Y-102788174D01*
X149150616Y-102788171D01*
X149150610Y-102788166D01*
X149139375Y-102780299D01*
X149095751Y-102725722D01*
X149086500Y-102678726D01*
X149086500Y-100607422D01*
X159185500Y-100607422D01*
X159216290Y-100801826D01*
X159277117Y-100989029D01*
X159349668Y-101131418D01*
X159366476Y-101164405D01*
X159482172Y-101323646D01*
X159621354Y-101462828D01*
X159780595Y-101578524D01*
X159863455Y-101620743D01*
X159955970Y-101667882D01*
X159955972Y-101667882D01*
X159955975Y-101667884D01*
X160056317Y-101700487D01*
X160143173Y-101728709D01*
X160337578Y-101759500D01*
X160337583Y-101759500D01*
X160534422Y-101759500D01*
X160728826Y-101728709D01*
X160750865Y-101721548D01*
X160916025Y-101667884D01*
X161091405Y-101578524D01*
X161250646Y-101462828D01*
X161389828Y-101323646D01*
X161505524Y-101164405D01*
X161594884Y-100989025D01*
X161655709Y-100801826D01*
X161664105Y-100748816D01*
X161686500Y-100607422D01*
X161686500Y-100310577D01*
X161655709Y-100116173D01*
X161594882Y-99928970D01*
X161547743Y-99836455D01*
X161505524Y-99753595D01*
X161389828Y-99594354D01*
X161250646Y-99455172D01*
X161091405Y-99339476D01*
X160916029Y-99250117D01*
X160728826Y-99189290D01*
X160534422Y-99158500D01*
X160534417Y-99158500D01*
X160337583Y-99158500D01*
X160337578Y-99158500D01*
X160143173Y-99189290D01*
X159955970Y-99250117D01*
X159780594Y-99339476D01*
X159720001Y-99383500D01*
X159621354Y-99455172D01*
X159621352Y-99455174D01*
X159621351Y-99455174D01*
X159482174Y-99594351D01*
X159482174Y-99594352D01*
X159482172Y-99594354D01*
X159443773Y-99647205D01*
X159366476Y-99753594D01*
X159277117Y-99928970D01*
X159216290Y-100116173D01*
X159185500Y-100310577D01*
X159185500Y-100607422D01*
X149086500Y-100607422D01*
X149086500Y-95079638D01*
X149106185Y-95012599D01*
X149145401Y-94974100D01*
X149254656Y-94906712D01*
X149378712Y-94782656D01*
X149470814Y-94633334D01*
X149525999Y-94466797D01*
X149536500Y-94364009D01*
X149536499Y-93563992D01*
X149525999Y-93461203D01*
X149470814Y-93294666D01*
X149378712Y-93145344D01*
X149285049Y-93051681D01*
X149251564Y-92990358D01*
X149256548Y-92920666D01*
X149285049Y-92876319D01*
X149378712Y-92782656D01*
X149394289Y-92757402D01*
X149446237Y-92710678D01*
X149499827Y-92698500D01*
X166984173Y-92698500D01*
X167051212Y-92718185D01*
X167089711Y-92757402D01*
X167105287Y-92782655D01*
X167198951Y-92876319D01*
X167232436Y-92937642D01*
X167227452Y-93007334D01*
X167198951Y-93051681D01*
X167105289Y-93145342D01*
X167013187Y-93294663D01*
X167013186Y-93294666D01*
X166958001Y-93461203D01*
X166958001Y-93461204D01*
X166958000Y-93461204D01*
X166947500Y-93563983D01*
X166947500Y-94364001D01*
X166947501Y-94364019D01*
X166958000Y-94466796D01*
X166958001Y-94466799D01*
X166959678Y-94471859D01*
X167013186Y-94633334D01*
X167105288Y-94782656D01*
X167229344Y-94906712D01*
X167338597Y-94974099D01*
X167385321Y-95026047D01*
X167397500Y-95079638D01*
X167397500Y-99879240D01*
X167377815Y-99946279D01*
X167325011Y-99992034D01*
X167255853Y-100001978D01*
X167192297Y-99972953D01*
X167163280Y-99932712D01*
X167162096Y-99933316D01*
X167121489Y-99853620D01*
X167070524Y-99753595D01*
X166954828Y-99594354D01*
X166815646Y-99455172D01*
X166656405Y-99339476D01*
X166481029Y-99250117D01*
X166293826Y-99189290D01*
X166099422Y-99158500D01*
X166099417Y-99158500D01*
X165902583Y-99158500D01*
X165902578Y-99158500D01*
X165708173Y-99189290D01*
X165520970Y-99250117D01*
X165345594Y-99339476D01*
X165285001Y-99383500D01*
X165186354Y-99455172D01*
X165186352Y-99455174D01*
X165186351Y-99455174D01*
X165047174Y-99594351D01*
X165047174Y-99594352D01*
X165047172Y-99594354D01*
X165008773Y-99647205D01*
X164931476Y-99753594D01*
X164842117Y-99928970D01*
X164781290Y-100116173D01*
X164750500Y-100310577D01*
X164750500Y-100607422D01*
X164781290Y-100801826D01*
X164842117Y-100989029D01*
X164914668Y-101131418D01*
X164931476Y-101164405D01*
X165047172Y-101323646D01*
X165186354Y-101462828D01*
X165345595Y-101578524D01*
X165428455Y-101620743D01*
X165520970Y-101667882D01*
X165520972Y-101667882D01*
X165520975Y-101667884D01*
X165621317Y-101700487D01*
X165708173Y-101728709D01*
X165902578Y-101759500D01*
X165902583Y-101759500D01*
X166099422Y-101759500D01*
X166293826Y-101728709D01*
X166315865Y-101721548D01*
X166481025Y-101667884D01*
X166656405Y-101578524D01*
X166815646Y-101462828D01*
X166954828Y-101323646D01*
X167070524Y-101164405D01*
X167159884Y-100989025D01*
X167159883Y-100989025D01*
X167162096Y-100984684D01*
X167163646Y-100985474D01*
X167202758Y-100936918D01*
X167269048Y-100914839D01*
X167336751Y-100932104D01*
X167384372Y-100983231D01*
X167397500Y-101038759D01*
X167397500Y-102645816D01*
X167377815Y-102712855D01*
X167344624Y-102747391D01*
X167286382Y-102788172D01*
X167130172Y-102944381D01*
X167003466Y-103125338D01*
X167003465Y-103125340D01*
X166910107Y-103325548D01*
X166910104Y-103325554D01*
X166852930Y-103538929D01*
X166852929Y-103538937D01*
X166833677Y-103758997D01*
X166833677Y-103759002D01*
X166852929Y-103979062D01*
X166852930Y-103979070D01*
X166910104Y-104192445D01*
X166910105Y-104192447D01*
X166910106Y-104192450D01*
X166957600Y-104294301D01*
X167003466Y-104392662D01*
X167003468Y-104392666D01*
X167130170Y-104573615D01*
X167130175Y-104573621D01*
X167286378Y-104729824D01*
X167286384Y-104729829D01*
X167467333Y-104856531D01*
X167467335Y-104856532D01*
X167467338Y-104856534D01*
X167667550Y-104949894D01*
X167880932Y-105007070D01*
X168038123Y-105020822D01*
X168100998Y-105026323D01*
X168101000Y-105026323D01*
X168101002Y-105026323D01*
X168156017Y-105021509D01*
X168321068Y-105007070D01*
X168534450Y-104949894D01*
X168734662Y-104856534D01*
X168915620Y-104729826D01*
X169071826Y-104573620D01*
X169198534Y-104392662D01*
X169263343Y-104253676D01*
X169288043Y-104218401D01*
X169701000Y-103805444D01*
X169701000Y-103811661D01*
X169728259Y-103913394D01*
X169780920Y-104004606D01*
X169855394Y-104079080D01*
X169946606Y-104131741D01*
X170048339Y-104159000D01*
X170054553Y-104159000D01*
X169402810Y-104810740D01*
X169467590Y-104856099D01*
X169467592Y-104856100D01*
X169667715Y-104949419D01*
X169667729Y-104949424D01*
X169881013Y-105006573D01*
X169881023Y-105006575D01*
X170100999Y-105025821D01*
X170101001Y-105025821D01*
X170320976Y-105006575D01*
X170320986Y-105006573D01*
X170534270Y-104949424D01*
X170534284Y-104949419D01*
X170734407Y-104856100D01*
X170734417Y-104856094D01*
X170799188Y-104810741D01*
X170147448Y-104159000D01*
X170153661Y-104159000D01*
X170255394Y-104131741D01*
X170346606Y-104079080D01*
X170421080Y-104004606D01*
X170473741Y-103913394D01*
X170501000Y-103811661D01*
X170501000Y-103805447D01*
X171101000Y-104405447D01*
X171701000Y-103805447D01*
X171701000Y-103811661D01*
X171728259Y-103913394D01*
X171780920Y-104004606D01*
X171855394Y-104079080D01*
X171946606Y-104131741D01*
X172048339Y-104159000D01*
X172054553Y-104159000D01*
X171402810Y-104810740D01*
X171467590Y-104856099D01*
X171467592Y-104856100D01*
X171667715Y-104949419D01*
X171667729Y-104949424D01*
X171881013Y-105006573D01*
X171881023Y-105006575D01*
X172100999Y-105025821D01*
X172101001Y-105025821D01*
X172320976Y-105006575D01*
X172320986Y-105006573D01*
X172534270Y-104949424D01*
X172534284Y-104949419D01*
X172734407Y-104856100D01*
X172734417Y-104856094D01*
X172799188Y-104810741D01*
X172147448Y-104159000D01*
X172153661Y-104159000D01*
X172255394Y-104131741D01*
X172346606Y-104079080D01*
X172421080Y-104004606D01*
X172473741Y-103913394D01*
X172501000Y-103811661D01*
X172501000Y-103805447D01*
X172913956Y-104218403D01*
X172938657Y-104253679D01*
X173003466Y-104392662D01*
X173003468Y-104392666D01*
X173130170Y-104573615D01*
X173130175Y-104573621D01*
X173286378Y-104729824D01*
X173286384Y-104729829D01*
X173467333Y-104856531D01*
X173467335Y-104856532D01*
X173467338Y-104856534D01*
X173667550Y-104949894D01*
X173880932Y-105007070D01*
X174038123Y-105020822D01*
X174100998Y-105026323D01*
X174101000Y-105026323D01*
X174101002Y-105026323D01*
X174156017Y-105021509D01*
X174321068Y-105007070D01*
X174534450Y-104949894D01*
X174734662Y-104856534D01*
X174915620Y-104729826D01*
X175013319Y-104632127D01*
X175074642Y-104598642D01*
X175144334Y-104603626D01*
X175188681Y-104632127D01*
X175286378Y-104729824D01*
X175286384Y-104729829D01*
X175467333Y-104856531D01*
X175467335Y-104856532D01*
X175467338Y-104856534D01*
X175667550Y-104949894D01*
X175880932Y-105007070D01*
X176038123Y-105020822D01*
X176100998Y-105026323D01*
X176101000Y-105026323D01*
X176101002Y-105026323D01*
X176156017Y-105021509D01*
X176321068Y-105007070D01*
X176534450Y-104949894D01*
X176734662Y-104856534D01*
X176915620Y-104729826D01*
X177013319Y-104632127D01*
X177074642Y-104598642D01*
X177144334Y-104603626D01*
X177188681Y-104632127D01*
X177286378Y-104729824D01*
X177286384Y-104729829D01*
X177467333Y-104856531D01*
X177467335Y-104856532D01*
X177467338Y-104856534D01*
X177667550Y-104949894D01*
X177880932Y-105007070D01*
X178038123Y-105020822D01*
X178100998Y-105026323D01*
X178101000Y-105026323D01*
X178101002Y-105026323D01*
X178156017Y-105021509D01*
X178321068Y-105007070D01*
X178534450Y-104949894D01*
X178734662Y-104856534D01*
X178915620Y-104729826D01*
X179071826Y-104573620D01*
X179198534Y-104392662D01*
X179291894Y-104192450D01*
X179349070Y-103979068D01*
X179368323Y-103759000D01*
X179365934Y-103731698D01*
X179355494Y-103612359D01*
X179349070Y-103538932D01*
X179291894Y-103325550D01*
X179198534Y-103125339D01*
X179087132Y-102966239D01*
X179071827Y-102944381D01*
X179013318Y-102885872D01*
X178915620Y-102788174D01*
X178915616Y-102788171D01*
X178915615Y-102788170D01*
X178734666Y-102661468D01*
X178734662Y-102661466D01*
X178651547Y-102622709D01*
X178534450Y-102568106D01*
X178534447Y-102568105D01*
X178534445Y-102568104D01*
X178321070Y-102510930D01*
X178321062Y-102510929D01*
X178101002Y-102491677D01*
X178100998Y-102491677D01*
X177880937Y-102510929D01*
X177880929Y-102510930D01*
X177667554Y-102568104D01*
X177667550Y-102568106D01*
X177645103Y-102578572D01*
X177467340Y-102661465D01*
X177467338Y-102661466D01*
X177286381Y-102788172D01*
X177188680Y-102885873D01*
X177127356Y-102919357D01*
X177057665Y-102914373D01*
X177013318Y-102885872D01*
X176915621Y-102788175D01*
X176915615Y-102788170D01*
X176734666Y-102661468D01*
X176734662Y-102661466D01*
X176651547Y-102622709D01*
X176534450Y-102568106D01*
X176534447Y-102568105D01*
X176534445Y-102568104D01*
X176321070Y-102510930D01*
X176321062Y-102510929D01*
X176101002Y-102491677D01*
X176100998Y-102491677D01*
X175880937Y-102510929D01*
X175880929Y-102510930D01*
X175667554Y-102568104D01*
X175667550Y-102568106D01*
X175645103Y-102578572D01*
X175467340Y-102661465D01*
X175467338Y-102661466D01*
X175286381Y-102788172D01*
X175188680Y-102885873D01*
X175127356Y-102919357D01*
X175057665Y-102914373D01*
X175013318Y-102885872D01*
X174915621Y-102788175D01*
X174915615Y-102788170D01*
X174734666Y-102661468D01*
X174734662Y-102661466D01*
X174651547Y-102622709D01*
X174534450Y-102568106D01*
X174534447Y-102568105D01*
X174534445Y-102568104D01*
X174321070Y-102510930D01*
X174321062Y-102510929D01*
X174101002Y-102491677D01*
X174100998Y-102491677D01*
X173880937Y-102510929D01*
X173880929Y-102510930D01*
X173667554Y-102568104D01*
X173667550Y-102568106D01*
X173645103Y-102578572D01*
X173467340Y-102661465D01*
X173467338Y-102661466D01*
X173286377Y-102788175D01*
X173130175Y-102944377D01*
X173003465Y-103125339D01*
X172938657Y-103264320D01*
X172913956Y-103299595D01*
X172501000Y-103712551D01*
X172501000Y-103706339D01*
X172473741Y-103604606D01*
X172421080Y-103513394D01*
X172346606Y-103438920D01*
X172255394Y-103386259D01*
X172153661Y-103359000D01*
X172147448Y-103359000D01*
X172799188Y-102707259D01*
X172799187Y-102707258D01*
X172734411Y-102661901D01*
X172734405Y-102661898D01*
X172534284Y-102568580D01*
X172534270Y-102568575D01*
X172320986Y-102511426D01*
X172320976Y-102511424D01*
X172101001Y-102492179D01*
X172100999Y-102492179D01*
X171881023Y-102511424D01*
X171881013Y-102511426D01*
X171667729Y-102568575D01*
X171667720Y-102568579D01*
X171467590Y-102661901D01*
X171402811Y-102707258D01*
X172054553Y-103359000D01*
X172048339Y-103359000D01*
X171946606Y-103386259D01*
X171855394Y-103438920D01*
X171780920Y-103513394D01*
X171728259Y-103604606D01*
X171701000Y-103706339D01*
X171701000Y-103712553D01*
X171101000Y-103112553D01*
X170501000Y-103712553D01*
X170501000Y-103706339D01*
X170473741Y-103604606D01*
X170421080Y-103513394D01*
X170346606Y-103438920D01*
X170255394Y-103386259D01*
X170153661Y-103359000D01*
X170147448Y-103359000D01*
X170799188Y-102707259D01*
X170799187Y-102707258D01*
X170734411Y-102661901D01*
X170734405Y-102661898D01*
X170534284Y-102568580D01*
X170534270Y-102568575D01*
X170320986Y-102511426D01*
X170320976Y-102511424D01*
X170101001Y-102492179D01*
X170100999Y-102492179D01*
X169881023Y-102511424D01*
X169881013Y-102511426D01*
X169667729Y-102568575D01*
X169667720Y-102568579D01*
X169467590Y-102661901D01*
X169402811Y-102707258D01*
X170054553Y-103359000D01*
X170048339Y-103359000D01*
X169946606Y-103386259D01*
X169855394Y-103438920D01*
X169780920Y-103513394D01*
X169728259Y-103604606D01*
X169701000Y-103706339D01*
X169701000Y-103712553D01*
X169288041Y-103299594D01*
X169263341Y-103264319D01*
X169198534Y-103125339D01*
X169087132Y-102966239D01*
X169071824Y-102944377D01*
X168934819Y-102807372D01*
X168901334Y-102746049D01*
X168898500Y-102719691D01*
X168898500Y-100607422D01*
X178950500Y-100607422D01*
X178981290Y-100801826D01*
X179042117Y-100989029D01*
X179114668Y-101131418D01*
X179131476Y-101164405D01*
X179247172Y-101323646D01*
X179386354Y-101462828D01*
X179545595Y-101578524D01*
X179628455Y-101620743D01*
X179720970Y-101667882D01*
X179720972Y-101667882D01*
X179720975Y-101667884D01*
X179821317Y-101700487D01*
X179908173Y-101728709D01*
X180102578Y-101759500D01*
X180102583Y-101759500D01*
X180299422Y-101759500D01*
X180493826Y-101728709D01*
X180515865Y-101721548D01*
X180681025Y-101667884D01*
X180856405Y-101578524D01*
X181015646Y-101462828D01*
X181154828Y-101323646D01*
X181270524Y-101164405D01*
X181359884Y-100989025D01*
X181420709Y-100801826D01*
X181429105Y-100748816D01*
X181451500Y-100607422D01*
X181451500Y-100310577D01*
X181420709Y-100116173D01*
X181359882Y-99928970D01*
X181312743Y-99836455D01*
X181270524Y-99753595D01*
X181154828Y-99594354D01*
X181015646Y-99455172D01*
X180856405Y-99339476D01*
X180681029Y-99250117D01*
X180493826Y-99189290D01*
X180299422Y-99158500D01*
X180299417Y-99158500D01*
X180102583Y-99158500D01*
X180102578Y-99158500D01*
X179908173Y-99189290D01*
X179720970Y-99250117D01*
X179545594Y-99339476D01*
X179485001Y-99383500D01*
X179386354Y-99455172D01*
X179386352Y-99455174D01*
X179386351Y-99455174D01*
X179247174Y-99594351D01*
X179247174Y-99594352D01*
X179247172Y-99594354D01*
X179208773Y-99647205D01*
X179131476Y-99753594D01*
X179042117Y-99928970D01*
X178981290Y-100116173D01*
X178950500Y-100310577D01*
X178950500Y-100607422D01*
X168898500Y-100607422D01*
X168898500Y-95079638D01*
X168918185Y-95012599D01*
X168957401Y-94974100D01*
X169066656Y-94906712D01*
X169190712Y-94782656D01*
X169282814Y-94633334D01*
X169337999Y-94466797D01*
X169348500Y-94364009D01*
X169348499Y-93563992D01*
X169337999Y-93461203D01*
X169282814Y-93294666D01*
X169190712Y-93145344D01*
X169097049Y-93051681D01*
X169063564Y-92990358D01*
X169068548Y-92920666D01*
X169097049Y-92876319D01*
X169190712Y-92782656D01*
X169196420Y-92773402D01*
X169248368Y-92726678D01*
X169301958Y-92714500D01*
X169983920Y-92714500D01*
X170081462Y-92695096D01*
X170128913Y-92685658D01*
X170265495Y-92629084D01*
X170319648Y-92592900D01*
X170388416Y-92546952D01*
X173405367Y-89530000D01*
X180254341Y-89530000D01*
X180274936Y-89765403D01*
X180274938Y-89765413D01*
X180336094Y-89993655D01*
X180336096Y-89993659D01*
X180336097Y-89993663D01*
X180435965Y-90207830D01*
X180435967Y-90207834D01*
X180544281Y-90362521D01*
X180571505Y-90401401D01*
X180738599Y-90568495D01*
X180835384Y-90636265D01*
X180932165Y-90704032D01*
X180932167Y-90704033D01*
X180932170Y-90704035D01*
X181146337Y-90803903D01*
X181374592Y-90865063D01*
X181562918Y-90881539D01*
X181609999Y-90885659D01*
X181610000Y-90885659D01*
X181610001Y-90885659D01*
X181649234Y-90882226D01*
X181845408Y-90865063D01*
X182073663Y-90803903D01*
X182287830Y-90704035D01*
X182481401Y-90568495D01*
X182648495Y-90401401D01*
X182784035Y-90207830D01*
X182883903Y-89993663D01*
X182945063Y-89765408D01*
X182965659Y-89530000D01*
X182945063Y-89294592D01*
X182883903Y-89066337D01*
X182784035Y-88852171D01*
X182648495Y-88658599D01*
X182526567Y-88536671D01*
X182493084Y-88475351D01*
X182498068Y-88405659D01*
X182539939Y-88349725D01*
X182570915Y-88332810D01*
X182702331Y-88283796D01*
X182817546Y-88197546D01*
X182903796Y-88082331D01*
X182906094Y-88076170D01*
X182947963Y-88020235D01*
X183013427Y-87995816D01*
X183022277Y-87995500D01*
X183240500Y-87995500D01*
X183307539Y-88015185D01*
X183353294Y-88067989D01*
X183364500Y-88119500D01*
X183364500Y-99385579D01*
X183364501Y-99385594D01*
X183380093Y-99501367D01*
X183382510Y-99519311D01*
X183382511Y-99519317D01*
X183382513Y-99519324D01*
X183399861Y-99582566D01*
X183399871Y-99582593D01*
X183452616Y-99706788D01*
X183452618Y-99706791D01*
X183454889Y-99709609D01*
X183456191Y-99712752D01*
X183457037Y-99714164D01*
X183456827Y-99714289D01*
X183481627Y-99774160D01*
X183471131Y-99838927D01*
X183430664Y-99927534D01*
X183410976Y-99994582D01*
X183397325Y-100089528D01*
X183390500Y-100137000D01*
X183390500Y-101339000D01*
X183390501Y-101339009D01*
X183402052Y-101446450D01*
X183402054Y-101446462D01*
X183413260Y-101497972D01*
X183447383Y-101600497D01*
X183447386Y-101600503D01*
X183525171Y-101721537D01*
X183525179Y-101721548D01*
X183570923Y-101774340D01*
X183570926Y-101774343D01*
X183570930Y-101774347D01*
X183679664Y-101868567D01*
X183810541Y-101928338D01*
X183877580Y-101948023D01*
X183877584Y-101948024D01*
X184020000Y-101968500D01*
X188230544Y-101968500D01*
X188297583Y-101988185D01*
X188343338Y-102040989D01*
X188353282Y-102110147D01*
X188324257Y-102173703D01*
X188295641Y-102198039D01*
X188268654Y-102214684D01*
X188144684Y-102338654D01*
X188052643Y-102487875D01*
X188052641Y-102487880D01*
X187997494Y-102654302D01*
X187997493Y-102654309D01*
X187987000Y-102757013D01*
X187987000Y-103402000D01*
X188814291Y-103402000D01*
X188802548Y-103422339D01*
X188762000Y-103573667D01*
X188762000Y-103730333D01*
X188802548Y-103881661D01*
X188814291Y-103902000D01*
X187987001Y-103902000D01*
X187987001Y-104546986D01*
X187997494Y-104649697D01*
X188052641Y-104816119D01*
X188052643Y-104816124D01*
X188144684Y-104965345D01*
X188268654Y-105089315D01*
X188417875Y-105181356D01*
X188417880Y-105181358D01*
X188584302Y-105236505D01*
X188584309Y-105236506D01*
X188687019Y-105246999D01*
X189106999Y-105246999D01*
X189107000Y-105246998D01*
X189107000Y-104194709D01*
X189127339Y-104206452D01*
X189278667Y-104247000D01*
X189435333Y-104247000D01*
X189586661Y-104206452D01*
X189607000Y-104194709D01*
X189607000Y-105246999D01*
X190026972Y-105246999D01*
X190026986Y-105246998D01*
X190129691Y-105236506D01*
X190129745Y-105236495D01*
X190129778Y-105236497D01*
X190136431Y-105235818D01*
X190136552Y-105237004D01*
X190199420Y-105241708D01*
X190255217Y-105283762D01*
X190255931Y-105284792D01*
X190257994Y-105287548D01*
X190303738Y-105340340D01*
X190303741Y-105340343D01*
X190303745Y-105340347D01*
X190412479Y-105434567D01*
X190412482Y-105434568D01*
X190412483Y-105434569D01*
X190506740Y-105477616D01*
X190543356Y-105494338D01*
X190610395Y-105514023D01*
X190610399Y-105514024D01*
X190752815Y-105534500D01*
X190752818Y-105534500D01*
X200281990Y-105534500D01*
X200282000Y-105534500D01*
X200389456Y-105522947D01*
X200440967Y-105511741D01*
X200475197Y-105500347D01*
X200543497Y-105477616D01*
X200543501Y-105477613D01*
X200543504Y-105477613D01*
X200664543Y-105399825D01*
X200717347Y-105354070D01*
X200811567Y-105245336D01*
X200871338Y-105114459D01*
X200882318Y-105077062D01*
X200920092Y-105018286D01*
X200983647Y-104989260D01*
X201001295Y-104987998D01*
X201018500Y-104987998D01*
X201018500Y-104263000D01*
X201518500Y-104263000D01*
X201518500Y-104987999D01*
X201617640Y-104987999D01*
X201617654Y-104987998D01*
X201718652Y-104977680D01*
X201882300Y-104923453D01*
X201882311Y-104923448D01*
X202029034Y-104832947D01*
X202029038Y-104832944D01*
X202150944Y-104711038D01*
X202150947Y-104711034D01*
X202241448Y-104564311D01*
X202241453Y-104564300D01*
X202295680Y-104400652D01*
X202305999Y-104299654D01*
X202306000Y-104299641D01*
X202306000Y-104263000D01*
X201518500Y-104263000D01*
X201018500Y-104263000D01*
X201018500Y-103887000D01*
X201038185Y-103819961D01*
X201090989Y-103774206D01*
X201142500Y-103763000D01*
X202305999Y-103763000D01*
X202305999Y-103726360D01*
X202305998Y-103726345D01*
X202295680Y-103625347D01*
X202241453Y-103461699D01*
X202241448Y-103461688D01*
X202150947Y-103314965D01*
X202150944Y-103314961D01*
X202029038Y-103193055D01*
X202029034Y-103193052D01*
X201961232Y-103151231D01*
X201914507Y-103099283D01*
X201903286Y-103030321D01*
X201931129Y-102966239D01*
X201938648Y-102958011D01*
X202034817Y-102861842D01*
X202126856Y-102712624D01*
X202126858Y-102712619D01*
X202182005Y-102546197D01*
X202182006Y-102546190D01*
X202192499Y-102443486D01*
X202192500Y-102443473D01*
X202192500Y-102231000D01*
X200216500Y-102231000D01*
X200149461Y-102211315D01*
X200103706Y-102158511D01*
X200092500Y-102107000D01*
X200092500Y-100818500D01*
X200592500Y-100818500D01*
X200592500Y-101731000D01*
X202192499Y-101731000D01*
X202192499Y-101518528D01*
X202192498Y-101518513D01*
X202182005Y-101415802D01*
X202126858Y-101249380D01*
X202126856Y-101249375D01*
X202034815Y-101100154D01*
X201910845Y-100976184D01*
X201761624Y-100884143D01*
X201761619Y-100884141D01*
X201595197Y-100828994D01*
X201595190Y-100828993D01*
X201492486Y-100818500D01*
X200592500Y-100818500D01*
X200092500Y-100818500D01*
X199192528Y-100818500D01*
X199192512Y-100818501D01*
X199089801Y-100828994D01*
X199042503Y-100844667D01*
X198972675Y-100847068D01*
X198912633Y-100811336D01*
X198881441Y-100748816D01*
X198879500Y-100726961D01*
X198879500Y-100324500D01*
X198899185Y-100257461D01*
X198951989Y-100211706D01*
X199003500Y-100200500D01*
X201803829Y-100200500D01*
X201803830Y-100200500D01*
X201915561Y-100187997D01*
X201969021Y-100175881D01*
X202075224Y-100138992D01*
X202194897Y-100059118D01*
X202246900Y-100012454D01*
X202246906Y-100012448D01*
X202339226Y-99902092D01*
X202396716Y-99770196D01*
X202415234Y-99702825D01*
X202433235Y-99560080D01*
X202430207Y-99385579D01*
X202409519Y-98193126D01*
X202409500Y-98190975D01*
X202409500Y-85722010D01*
X202409500Y-85722000D01*
X202397947Y-85614544D01*
X202386741Y-85563033D01*
X202378768Y-85539078D01*
X202352616Y-85460502D01*
X202352613Y-85460496D01*
X202274828Y-85339462D01*
X202274825Y-85339457D01*
X202274820Y-85339451D01*
X202229076Y-85286659D01*
X202229072Y-85286656D01*
X202229070Y-85286653D01*
X202120336Y-85192433D01*
X202120333Y-85192431D01*
X202120331Y-85192430D01*
X201989465Y-85132664D01*
X201989460Y-85132662D01*
X201989459Y-85132662D01*
X201922420Y-85112977D01*
X201922422Y-85112977D01*
X201922417Y-85112976D01*
X201860312Y-85104047D01*
X201780000Y-85092500D01*
X198243400Y-85092500D01*
X198243391Y-85092500D01*
X198243390Y-85092501D01*
X198135949Y-85104052D01*
X198135937Y-85104054D01*
X198084427Y-85115260D01*
X197981902Y-85149383D01*
X197981896Y-85149386D01*
X197860862Y-85227171D01*
X197860851Y-85227179D01*
X197808059Y-85272923D01*
X197713833Y-85381664D01*
X197713830Y-85381668D01*
X197654063Y-85512537D01*
X197646269Y-85539078D01*
X197608492Y-85597855D01*
X197544935Y-85626878D01*
X197475777Y-85616931D01*
X197456170Y-85605714D01*
X197400834Y-85566967D01*
X197400830Y-85566965D01*
X197341026Y-85539078D01*
X197186663Y-85467097D01*
X197186659Y-85467096D01*
X197186655Y-85467094D01*
X196958413Y-85405938D01*
X196958403Y-85405936D01*
X196723001Y-85385341D01*
X196722999Y-85385341D01*
X196487596Y-85405936D01*
X196487586Y-85405938D01*
X196259344Y-85467094D01*
X196259335Y-85467098D01*
X196045171Y-85566964D01*
X196045169Y-85566965D01*
X195851597Y-85702505D01*
X195684505Y-85869597D01*
X195548965Y-86063169D01*
X195548964Y-86063171D01*
X195449098Y-86277335D01*
X195449094Y-86277344D01*
X195387938Y-86505586D01*
X195387936Y-86505596D01*
X195367341Y-86740999D01*
X195367341Y-86741000D01*
X195387936Y-86976403D01*
X195387938Y-86976413D01*
X195449094Y-87204655D01*
X195449096Y-87204659D01*
X195449097Y-87204663D01*
X195467907Y-87245000D01*
X195548965Y-87418830D01*
X195548967Y-87418834D01*
X195684501Y-87612395D01*
X195684506Y-87612402D01*
X195851597Y-87779493D01*
X195851603Y-87779498D01*
X195899913Y-87813325D01*
X195943538Y-87867902D01*
X195950732Y-87937400D01*
X195919209Y-87999755D01*
X195858980Y-88035169D01*
X195828790Y-88038900D01*
X193094448Y-88038900D01*
X193027409Y-88019215D01*
X192981654Y-87966411D01*
X192971710Y-87897253D01*
X192988909Y-87849803D01*
X193041756Y-87764124D01*
X193041758Y-87764119D01*
X193096905Y-87597697D01*
X193096906Y-87597690D01*
X193107399Y-87494986D01*
X193107400Y-87494973D01*
X193107400Y-87245000D01*
X191881400Y-87245000D01*
X191814361Y-87225315D01*
X191768606Y-87172511D01*
X191757400Y-87121000D01*
X191757400Y-85795000D01*
X192257400Y-85795000D01*
X192257400Y-86745000D01*
X193107399Y-86745000D01*
X193107399Y-86495028D01*
X193107398Y-86495013D01*
X193096905Y-86392302D01*
X193041758Y-86225880D01*
X193041756Y-86225875D01*
X192949715Y-86076654D01*
X192825745Y-85952684D01*
X192676524Y-85860643D01*
X192676519Y-85860641D01*
X192510097Y-85805494D01*
X192510090Y-85805493D01*
X192407386Y-85795000D01*
X192257400Y-85795000D01*
X191757400Y-85795000D01*
X191607427Y-85795000D01*
X191607412Y-85795001D01*
X191504702Y-85805494D01*
X191338280Y-85860641D01*
X191338271Y-85860645D01*
X191193996Y-85949635D01*
X191126604Y-85968075D01*
X191059940Y-85947152D01*
X191015171Y-85893510D01*
X191004900Y-85844096D01*
X191004900Y-84066010D01*
X191004900Y-84066000D01*
X190993347Y-83958544D01*
X190982141Y-83907033D01*
X190975454Y-83886941D01*
X190948016Y-83804502D01*
X190948013Y-83804496D01*
X190870228Y-83683462D01*
X190870225Y-83683457D01*
X190848165Y-83657998D01*
X190824476Y-83630659D01*
X190824472Y-83630656D01*
X190824470Y-83630653D01*
X190715736Y-83536433D01*
X190715733Y-83536431D01*
X190715731Y-83536430D01*
X190584865Y-83476664D01*
X190584860Y-83476662D01*
X190584859Y-83476662D01*
X190517820Y-83456977D01*
X190517822Y-83456977D01*
X190517817Y-83456976D01*
X190455747Y-83448052D01*
X190375400Y-83436500D01*
X186559400Y-83436500D01*
X186559391Y-83436500D01*
X186559390Y-83436501D01*
X186451949Y-83448052D01*
X186451937Y-83448054D01*
X186400427Y-83459260D01*
X186297902Y-83493383D01*
X186297898Y-83493385D01*
X186224007Y-83540872D01*
X186156967Y-83560556D01*
X186105456Y-83549350D01*
X186012865Y-83507064D01*
X186012860Y-83507062D01*
X186012859Y-83507062D01*
X185945820Y-83487377D01*
X185945822Y-83487377D01*
X185945817Y-83487376D01*
X185871297Y-83476662D01*
X185803400Y-83466900D01*
X183994000Y-83466900D01*
X183993991Y-83466900D01*
X183993990Y-83466901D01*
X183886549Y-83478452D01*
X183886537Y-83478454D01*
X183835027Y-83489660D01*
X183732502Y-83523783D01*
X183732496Y-83523786D01*
X183611462Y-83601571D01*
X183611451Y-83601579D01*
X183558659Y-83647323D01*
X183464433Y-83756064D01*
X183464430Y-83756068D01*
X183404664Y-83886934D01*
X183384976Y-83953982D01*
X183364500Y-84096401D01*
X183364500Y-85870500D01*
X183344815Y-85937539D01*
X183292011Y-85983294D01*
X183240500Y-85994500D01*
X183026006Y-85994500D01*
X182958967Y-85974815D01*
X182913212Y-85922011D01*
X182909824Y-85913832D01*
X182903796Y-85897669D01*
X182903794Y-85897666D01*
X182903794Y-85897665D01*
X182817547Y-85782455D01*
X182817544Y-85782452D01*
X182702335Y-85696206D01*
X182702328Y-85696202D01*
X182567482Y-85645908D01*
X182567483Y-85645908D01*
X182507883Y-85639501D01*
X182507881Y-85639500D01*
X182507873Y-85639500D01*
X182507864Y-85639500D01*
X180712129Y-85639500D01*
X180712123Y-85639501D01*
X180652516Y-85645908D01*
X180517671Y-85696202D01*
X180517664Y-85696206D01*
X180402455Y-85782452D01*
X180402452Y-85782455D01*
X180316206Y-85897664D01*
X180316202Y-85897671D01*
X180265908Y-86032517D01*
X180259501Y-86092116D01*
X180259500Y-86092135D01*
X180259500Y-87887870D01*
X180259501Y-87887876D01*
X180265908Y-87947483D01*
X180316202Y-88082328D01*
X180316206Y-88082335D01*
X180402452Y-88197544D01*
X180402455Y-88197547D01*
X180517664Y-88283793D01*
X180517671Y-88283797D01*
X180649081Y-88332810D01*
X180705015Y-88374681D01*
X180729432Y-88440145D01*
X180714580Y-88508418D01*
X180693430Y-88536673D01*
X180571503Y-88658600D01*
X180435965Y-88852169D01*
X180435964Y-88852171D01*
X180336098Y-89066335D01*
X180336094Y-89066344D01*
X180274938Y-89294586D01*
X180274936Y-89294596D01*
X180254341Y-89529999D01*
X180254341Y-89530000D01*
X173405367Y-89530000D01*
X181376548Y-81558818D01*
X181437871Y-81525334D01*
X181464229Y-81522500D01*
X186255920Y-81522500D01*
X186353462Y-81503096D01*
X186400913Y-81493658D01*
X186537495Y-81437084D01*
X186586729Y-81404186D01*
X186660416Y-81354952D01*
X188499486Y-79515880D01*
X188560807Y-79482397D01*
X188630498Y-79487381D01*
X188686432Y-79529253D01*
X188692703Y-79538466D01*
X188695285Y-79542652D01*
X188695287Y-79542655D01*
X188695288Y-79542656D01*
X188819344Y-79666712D01*
X188968666Y-79758814D01*
X189135203Y-79813999D01*
X189237991Y-79824500D01*
X190238008Y-79824499D01*
X190238016Y-79824498D01*
X190238019Y-79824498D01*
X190294302Y-79818748D01*
X190340797Y-79813999D01*
X190507334Y-79758814D01*
X190656656Y-79666712D01*
X190780712Y-79542656D01*
X190780716Y-79542649D01*
X190784721Y-79537586D01*
X190841744Y-79497211D01*
X190881985Y-79490500D01*
X194891920Y-79490500D01*
X194989462Y-79471096D01*
X195036913Y-79461658D01*
X195173495Y-79405084D01*
X195235730Y-79363500D01*
X195296416Y-79322952D01*
X196162952Y-78456416D01*
X196227378Y-78359994D01*
X196245084Y-78333495D01*
X196268518Y-78276920D01*
X196301659Y-78196912D01*
X196330500Y-78051917D01*
X196330500Y-77904082D01*
X196330500Y-77522828D01*
X196335424Y-77488233D01*
X196377597Y-77343073D01*
X196377598Y-77343067D01*
X196378870Y-77326908D01*
X196380500Y-77306194D01*
X196380500Y-75524806D01*
X196377598Y-75487931D01*
X196373285Y-75473087D01*
X196336168Y-75345331D01*
X196331744Y-75330102D01*
X196326432Y-75321120D01*
X196309249Y-75253400D01*
X196331408Y-75187137D01*
X196385873Y-75143372D01*
X196433164Y-75134000D01*
X196776082Y-75134000D01*
X197266836Y-75134000D01*
X197333875Y-75153685D01*
X197379630Y-75206489D01*
X197389574Y-75275647D01*
X197373568Y-75321119D01*
X197369362Y-75328230D01*
X197368254Y-75330105D01*
X197368254Y-75330106D01*
X197322402Y-75487926D01*
X197322401Y-75487932D01*
X197319500Y-75524798D01*
X197319500Y-77306201D01*
X197322401Y-77343067D01*
X197322402Y-77343073D01*
X197368254Y-77500893D01*
X197368255Y-77500896D01*
X197368256Y-77500898D01*
X197392951Y-77542655D01*
X197451917Y-77642362D01*
X197451923Y-77642370D01*
X197568129Y-77758576D01*
X197568133Y-77758579D01*
X197568135Y-77758581D01*
X197709602Y-77842244D01*
X197716820Y-77844341D01*
X197867426Y-77888097D01*
X197867429Y-77888097D01*
X197867431Y-77888098D01*
X197904306Y-77891000D01*
X197904314Y-77891000D01*
X198335686Y-77891000D01*
X198335694Y-77891000D01*
X198372569Y-77888098D01*
X198475836Y-77858095D01*
X198545701Y-77858293D01*
X198557878Y-77862608D01*
X198675087Y-77911158D01*
X198675091Y-77911158D01*
X198675092Y-77911159D01*
X198820079Y-77940000D01*
X198820082Y-77940000D01*
X199396948Y-77940000D01*
X199463987Y-77959685D01*
X199484629Y-77976319D01*
X199492181Y-77983871D01*
X199525666Y-78045194D01*
X199528500Y-78071552D01*
X199528500Y-78078677D01*
X199511887Y-78140677D01*
X199451821Y-78244714D01*
X199411599Y-78368506D01*
X199393326Y-78424744D01*
X199373540Y-78613000D01*
X199393326Y-78801256D01*
X199393327Y-78801259D01*
X199451818Y-78981277D01*
X199451821Y-78981284D01*
X199546467Y-79145216D01*
X199673129Y-79285888D01*
X199826265Y-79397148D01*
X199826270Y-79397151D01*
X199999192Y-79474142D01*
X199999197Y-79474144D01*
X200184354Y-79513500D01*
X200184355Y-79513500D01*
X200373644Y-79513500D01*
X200373646Y-79513500D01*
X200558803Y-79474144D01*
X200731730Y-79397151D01*
X200884871Y-79285888D01*
X201011533Y-79145216D01*
X201106179Y-78981284D01*
X201164674Y-78801256D01*
X201184460Y-78613000D01*
X201164674Y-78424744D01*
X201106179Y-78244716D01*
X201106178Y-78244714D01*
X201046113Y-78140677D01*
X201029500Y-78078677D01*
X201029500Y-78071552D01*
X201049185Y-78004513D01*
X201065819Y-77983871D01*
X201079875Y-77969815D01*
X201099340Y-77950350D01*
X201189908Y-77803516D01*
X201244174Y-77639753D01*
X201254500Y-77538677D01*
X201254499Y-76840324D01*
X201244174Y-76739247D01*
X201189908Y-76575484D01*
X201099340Y-76428650D01*
X201085017Y-76414327D01*
X201051532Y-76353004D01*
X201056516Y-76283312D01*
X201085021Y-76238960D01*
X201098947Y-76225035D01*
X201189448Y-76078311D01*
X201189453Y-76078300D01*
X201243680Y-75914652D01*
X201253999Y-75813654D01*
X201254000Y-75813641D01*
X201254000Y-75714500D01*
X199304001Y-75714500D01*
X199304001Y-75813654D01*
X199314319Y-75914652D01*
X199368546Y-76078300D01*
X199368551Y-76078311D01*
X199459052Y-76225034D01*
X199459055Y-76225038D01*
X199461336Y-76227319D01*
X199462401Y-76229269D01*
X199463533Y-76230701D01*
X199463288Y-76230894D01*
X199494821Y-76288642D01*
X199489837Y-76358334D01*
X199447965Y-76414267D01*
X199382501Y-76438684D01*
X199373655Y-76439000D01*
X199256229Y-76439000D01*
X199189190Y-76419315D01*
X199168548Y-76402681D01*
X198956819Y-76190951D01*
X198923334Y-76129628D01*
X198920500Y-76103270D01*
X198920500Y-75524813D01*
X198920499Y-75524798D01*
X198918222Y-75495868D01*
X198917598Y-75487931D01*
X198913285Y-75473087D01*
X198876168Y-75345331D01*
X198871744Y-75330102D01*
X198866432Y-75321120D01*
X198849249Y-75253400D01*
X198871408Y-75187137D01*
X198925873Y-75143372D01*
X198973164Y-75134000D01*
X199180000Y-75134000D01*
X199247039Y-75153685D01*
X199272055Y-75182555D01*
X199304000Y-75214500D01*
X201253999Y-75214500D01*
X201253999Y-75115359D01*
X201253998Y-75115345D01*
X201243680Y-75014347D01*
X201189453Y-74850699D01*
X201189448Y-74850688D01*
X201098947Y-74703965D01*
X201098944Y-74703961D01*
X200977037Y-74582054D01*
X200961617Y-74572543D01*
X200914893Y-74520594D01*
X200903672Y-74451632D01*
X200931516Y-74387550D01*
X200961619Y-74361466D01*
X201008240Y-74332710D01*
X201070656Y-74294212D01*
X201194712Y-74170156D01*
X201286814Y-74020834D01*
X201341999Y-73854297D01*
X201352500Y-73751509D01*
X201352499Y-72951492D01*
X201352429Y-72950811D01*
X201341999Y-72848703D01*
X201341998Y-72848700D01*
X201321603Y-72787152D01*
X201286814Y-72682166D01*
X201194712Y-72532844D01*
X201101049Y-72439181D01*
X201067564Y-72377858D01*
X201072548Y-72308166D01*
X201101049Y-72263819D01*
X201129183Y-72235685D01*
X201194712Y-72170156D01*
X201286814Y-72020834D01*
X201341999Y-71854297D01*
X201352500Y-71751509D01*
X201352499Y-70951492D01*
X201341999Y-70848703D01*
X201286814Y-70682166D01*
X201194712Y-70532844D01*
X201070656Y-70408788D01*
X200961402Y-70341400D01*
X200914679Y-70289453D01*
X200902500Y-70235862D01*
X200902500Y-66095499D01*
X200922185Y-66028460D01*
X200974989Y-65982705D01*
X201026500Y-65971499D01*
X201556002Y-65971499D01*
X201556008Y-65971499D01*
X201658797Y-65960999D01*
X201825334Y-65905814D01*
X201974656Y-65813712D01*
X202098712Y-65689656D01*
X202190814Y-65540334D01*
X202245999Y-65373797D01*
X202256500Y-65271009D01*
X202256499Y-64345992D01*
X202248770Y-64270334D01*
X202245999Y-64243203D01*
X202245998Y-64243200D01*
X202244880Y-64239826D01*
X202190814Y-64076666D01*
X202098712Y-63927344D01*
X201974656Y-63803288D01*
X201825334Y-63711186D01*
X201658797Y-63656001D01*
X201658795Y-63656000D01*
X201556010Y-63645500D01*
X199255998Y-63645500D01*
X199255981Y-63645501D01*
X199153203Y-63656000D01*
X199153200Y-63656001D01*
X198986668Y-63711185D01*
X198986663Y-63711187D01*
X198837342Y-63803289D01*
X198713289Y-63927342D01*
X198621187Y-64076663D01*
X198621185Y-64076668D01*
X198612195Y-64103799D01*
X198566001Y-64243203D01*
X198566001Y-64243204D01*
X198566000Y-64243204D01*
X198555500Y-64345983D01*
X198555500Y-65271001D01*
X198555501Y-65271019D01*
X198566000Y-65373796D01*
X198566001Y-65373799D01*
X198569841Y-65385386D01*
X198621186Y-65540334D01*
X198713288Y-65689656D01*
X198837344Y-65813712D01*
X198986666Y-65905814D01*
X199153203Y-65960999D01*
X199255991Y-65971500D01*
X199277497Y-65971499D01*
X199344535Y-65991181D01*
X199390292Y-66043983D01*
X199401500Y-66095499D01*
X199401500Y-68937000D01*
X199381815Y-69004039D01*
X199329011Y-69049794D01*
X199277500Y-69061000D01*
X195506080Y-69061000D01*
X195361092Y-69089840D01*
X195361082Y-69089843D01*
X195224511Y-69146412D01*
X195224498Y-69146419D01*
X195101584Y-69228548D01*
X195101580Y-69228551D01*
X194997051Y-69333080D01*
X194997048Y-69333084D01*
X194914919Y-69455998D01*
X194914912Y-69456011D01*
X194858343Y-69592582D01*
X194858340Y-69592592D01*
X194829500Y-69737579D01*
X194829500Y-69905300D01*
X194809815Y-69972339D01*
X194757011Y-70018094D01*
X194687853Y-70028038D01*
X194670905Y-70024376D01*
X194562573Y-69992902D01*
X194562567Y-69992901D01*
X194525701Y-69990000D01*
X194525694Y-69990000D01*
X194094306Y-69990000D01*
X194094298Y-69990000D01*
X194057432Y-69992901D01*
X194057426Y-69992902D01*
X193899606Y-70038754D01*
X193899603Y-70038755D01*
X193758137Y-70122417D01*
X193758129Y-70122423D01*
X193641923Y-70238629D01*
X193641917Y-70238637D01*
X193558255Y-70380103D01*
X193558254Y-70380106D01*
X193512402Y-70537926D01*
X193512401Y-70537932D01*
X193509500Y-70574798D01*
X193509500Y-70591000D01*
X193489815Y-70658039D01*
X193437011Y-70703794D01*
X193385500Y-70715000D01*
X193287230Y-70715000D01*
X193220191Y-70695315D01*
X193199548Y-70678680D01*
X193162817Y-70641948D01*
X193129332Y-70580624D01*
X193126499Y-70554268D01*
X193126499Y-70342330D01*
X193126498Y-70342313D01*
X193116174Y-70241247D01*
X193076799Y-70122423D01*
X193061908Y-70077484D01*
X192971340Y-69930650D01*
X192849350Y-69808660D01*
X192734114Y-69737582D01*
X192702518Y-69718093D01*
X192702513Y-69718091D01*
X192701069Y-69717612D01*
X192538753Y-69663826D01*
X192538751Y-69663825D01*
X192437678Y-69653500D01*
X191864330Y-69653500D01*
X191864312Y-69653501D01*
X191763247Y-69663825D01*
X191599484Y-69718092D01*
X191599481Y-69718093D01*
X191452650Y-69808659D01*
X191392437Y-69868872D01*
X191331113Y-69902356D01*
X191278977Y-69902479D01*
X191102647Y-69865000D01*
X191102646Y-69865000D01*
X190913354Y-69865000D01*
X190895138Y-69868872D01*
X190728197Y-69904355D01*
X190728192Y-69904357D01*
X190555270Y-69981348D01*
X190555265Y-69981351D01*
X190402129Y-70092611D01*
X190275466Y-70233285D01*
X190180821Y-70397215D01*
X190180818Y-70397222D01*
X190123118Y-70574806D01*
X190122326Y-70577244D01*
X190102540Y-70765500D01*
X190122326Y-70953756D01*
X190122327Y-70953759D01*
X190180818Y-71133777D01*
X190180821Y-71133784D01*
X190275467Y-71297716D01*
X190343119Y-71372851D01*
X190402129Y-71438388D01*
X190555265Y-71549648D01*
X190555270Y-71549651D01*
X190728192Y-71626642D01*
X190728197Y-71626644D01*
X190913354Y-71666000D01*
X190913355Y-71666000D01*
X191109145Y-71666000D01*
X191109145Y-71667567D01*
X191170053Y-71678696D01*
X191221085Y-71726420D01*
X191238214Y-71794157D01*
X191232009Y-71828460D01*
X191186319Y-71966345D01*
X191186319Y-71966346D01*
X191176000Y-72067345D01*
X191176000Y-72166500D01*
X192631549Y-72166500D01*
X192679001Y-72175939D01*
X192706082Y-72187156D01*
X192706087Y-72187158D01*
X192706091Y-72187158D01*
X192706092Y-72187159D01*
X192851079Y-72216000D01*
X192851082Y-72216000D01*
X192998917Y-72216000D01*
X193385500Y-72216000D01*
X193452539Y-72235685D01*
X193498294Y-72288489D01*
X193509500Y-72340000D01*
X193509500Y-72356201D01*
X193512401Y-72393067D01*
X193512402Y-72393073D01*
X193558254Y-72550893D01*
X193558255Y-72550896D01*
X193558256Y-72550898D01*
X193570348Y-72571344D01*
X193641917Y-72692362D01*
X193641923Y-72692370D01*
X193758129Y-72808576D01*
X193758133Y-72808579D01*
X193758135Y-72808581D01*
X193899602Y-72892244D01*
X193941224Y-72904336D01*
X194057426Y-72938097D01*
X194057429Y-72938097D01*
X194057431Y-72938098D01*
X194094306Y-72941000D01*
X194094314Y-72941000D01*
X194525686Y-72941000D01*
X194525694Y-72941000D01*
X194562569Y-72938098D01*
X194562571Y-72938097D01*
X194562573Y-72938097D01*
X194643793Y-72914500D01*
X194720398Y-72892244D01*
X194861865Y-72808581D01*
X194861870Y-72808575D01*
X194868031Y-72803798D01*
X194869933Y-72806250D01*
X194918579Y-72779655D01*
X194988274Y-72784604D01*
X195020695Y-72805440D01*
X195021969Y-72803798D01*
X195028132Y-72808578D01*
X195028135Y-72808581D01*
X195169602Y-72892244D01*
X195211224Y-72904336D01*
X195327426Y-72938097D01*
X195327429Y-72938097D01*
X195327431Y-72938098D01*
X195364306Y-72941000D01*
X195364314Y-72941000D01*
X195795686Y-72941000D01*
X195795694Y-72941000D01*
X195832569Y-72938098D01*
X195940905Y-72906623D01*
X196010774Y-72906822D01*
X196069444Y-72944764D01*
X196098288Y-73008402D01*
X196099500Y-73025699D01*
X196099500Y-73509000D01*
X196079815Y-73576039D01*
X196027011Y-73621794D01*
X195975500Y-73633000D01*
X193474076Y-73633000D01*
X193445242Y-73638734D01*
X193445243Y-73638735D01*
X193329092Y-73661839D01*
X193329086Y-73661841D01*
X193262111Y-73689584D01*
X193192508Y-73718414D01*
X193192493Y-73718422D01*
X193155098Y-73743409D01*
X193088421Y-73764287D01*
X193021112Y-73745846D01*
X192920334Y-73683686D01*
X192753797Y-73628501D01*
X192749665Y-73628078D01*
X192738383Y-73626926D01*
X192673692Y-73600528D01*
X192633542Y-73543346D01*
X192630681Y-73473535D01*
X192666017Y-73413259D01*
X192698595Y-73391181D01*
X192702310Y-73389448D01*
X192849034Y-73298947D01*
X192849038Y-73298944D01*
X192970944Y-73177038D01*
X192970947Y-73177034D01*
X193061448Y-73030311D01*
X193061453Y-73030300D01*
X193115680Y-72866652D01*
X193125999Y-72765654D01*
X193126000Y-72765641D01*
X193126000Y-72666500D01*
X191176001Y-72666500D01*
X191176001Y-72765654D01*
X191186319Y-72866652D01*
X191240546Y-73030300D01*
X191240551Y-73030311D01*
X191331052Y-73177034D01*
X191331055Y-73177038D01*
X191452961Y-73298944D01*
X191452965Y-73298947D01*
X191599689Y-73389448D01*
X191603405Y-73391181D01*
X191605528Y-73393050D01*
X191605844Y-73393245D01*
X191605810Y-73393298D01*
X191655849Y-73437348D01*
X191675007Y-73504540D01*
X191654798Y-73571423D01*
X191601637Y-73616763D01*
X191563617Y-73626926D01*
X191548201Y-73628501D01*
X191548200Y-73628501D01*
X191381668Y-73683685D01*
X191381663Y-73683687D01*
X191232342Y-73775789D01*
X191108289Y-73899842D01*
X191016187Y-74049163D01*
X191016185Y-74049168D01*
X191012816Y-74059336D01*
X190961001Y-74215703D01*
X190961001Y-74215704D01*
X190961000Y-74215704D01*
X190950500Y-74318483D01*
X190950500Y-74318496D01*
X190950501Y-75118495D01*
X190950501Y-75118519D01*
X190961000Y-75221296D01*
X190961001Y-75221299D01*
X191016185Y-75387831D01*
X191016187Y-75387836D01*
X191051069Y-75444388D01*
X191087401Y-75503293D01*
X191108289Y-75537157D01*
X191201951Y-75630819D01*
X191235436Y-75692142D01*
X191230452Y-75761834D01*
X191201951Y-75806181D01*
X191108288Y-75899843D01*
X191108287Y-75899844D01*
X191102580Y-75909098D01*
X191050632Y-75955822D01*
X190997042Y-75968000D01*
X190888565Y-75968000D01*
X190821526Y-75948315D01*
X190783028Y-75909099D01*
X190780712Y-75905344D01*
X190656657Y-75781289D01*
X190656656Y-75781288D01*
X190530541Y-75703500D01*
X190507336Y-75689187D01*
X190507331Y-75689185D01*
X190467541Y-75676000D01*
X190340797Y-75634001D01*
X190340795Y-75634000D01*
X190238010Y-75623500D01*
X189237998Y-75623500D01*
X189237980Y-75623501D01*
X189135203Y-75634000D01*
X189135200Y-75634001D01*
X188968668Y-75689185D01*
X188968663Y-75689187D01*
X188819342Y-75781289D01*
X188695289Y-75905342D01*
X188603187Y-76054663D01*
X188603186Y-76054666D01*
X188548001Y-76221203D01*
X188548001Y-76221204D01*
X188548000Y-76221204D01*
X188537500Y-76323983D01*
X188537500Y-77124001D01*
X188537501Y-77124019D01*
X188548000Y-77226796D01*
X188548001Y-77226799D01*
X188586529Y-77343067D01*
X188603186Y-77393334D01*
X188695287Y-77542655D01*
X188695289Y-77542657D01*
X188788951Y-77636319D01*
X188822436Y-77697642D01*
X188817452Y-77767334D01*
X188788951Y-77811681D01*
X188695288Y-77905343D01*
X188695287Y-77905344D01*
X188689580Y-77914598D01*
X188637632Y-77961322D01*
X188584042Y-77973500D01*
X188156080Y-77973500D01*
X188011092Y-78002340D01*
X188011082Y-78002343D01*
X187874511Y-78058912D01*
X187874498Y-78058919D01*
X187751584Y-78141048D01*
X187751580Y-78141051D01*
X185907451Y-79985181D01*
X185846128Y-80018666D01*
X185819770Y-80021500D01*
X181028080Y-80021500D01*
X180883092Y-80050340D01*
X180883082Y-80050343D01*
X180746511Y-80106912D01*
X180746498Y-80106919D01*
X180623584Y-80189048D01*
X180623580Y-80189051D01*
X176062106Y-84750525D01*
X176000783Y-84784010D01*
X175931091Y-84779026D01*
X175875158Y-84737154D01*
X175850741Y-84671690D01*
X175856493Y-84624530D01*
X175891674Y-84516256D01*
X175911460Y-84328000D01*
X175891674Y-84139744D01*
X175833179Y-83959716D01*
X175819926Y-83936761D01*
X175803453Y-83868865D01*
X175826304Y-83802838D01*
X175862215Y-83769225D01*
X175924656Y-83730712D01*
X176048712Y-83606656D01*
X176140814Y-83457334D01*
X176195999Y-83290797D01*
X176206500Y-83188009D01*
X176206499Y-82387992D01*
X176195999Y-82285203D01*
X176140814Y-82118666D01*
X176048712Y-81969344D01*
X175955049Y-81875681D01*
X175921564Y-81814358D01*
X175926548Y-81744666D01*
X175955049Y-81700319D01*
X175997388Y-81657980D01*
X176048712Y-81606656D01*
X176140814Y-81457334D01*
X176195999Y-81290797D01*
X176206500Y-81188009D01*
X176206499Y-80387992D01*
X176195999Y-80285203D01*
X176140814Y-80118666D01*
X176048712Y-79969344D01*
X175924656Y-79845288D01*
X175923049Y-79843681D01*
X175889564Y-79782358D01*
X175894548Y-79712666D01*
X175923049Y-79668319D01*
X175972526Y-79618842D01*
X176048712Y-79542656D01*
X176054420Y-79533402D01*
X176106368Y-79486678D01*
X176159958Y-79474500D01*
X180175920Y-79474500D01*
X180273462Y-79455096D01*
X180320913Y-79445658D01*
X180457495Y-79389084D01*
X180506729Y-79356186D01*
X180580416Y-79306952D01*
X181404452Y-78482915D01*
X181480897Y-78368506D01*
X181486584Y-78359995D01*
X181486585Y-78359991D01*
X181486587Y-78359989D01*
X181499630Y-78328500D01*
X184191001Y-78328500D01*
X184191001Y-78427654D01*
X184201319Y-78528652D01*
X184255546Y-78692300D01*
X184255551Y-78692311D01*
X184346052Y-78839034D01*
X184346055Y-78839038D01*
X184467961Y-78960944D01*
X184467965Y-78960947D01*
X184614688Y-79051448D01*
X184614699Y-79051453D01*
X184778347Y-79105680D01*
X184879352Y-79115999D01*
X184916000Y-79115999D01*
X184916000Y-78328500D01*
X185416000Y-78328500D01*
X185416000Y-79115999D01*
X185452640Y-79115999D01*
X185452654Y-79115998D01*
X185553652Y-79105680D01*
X185717300Y-79051453D01*
X185717311Y-79051448D01*
X185864034Y-78960947D01*
X185864038Y-78960944D01*
X185985944Y-78839038D01*
X185985947Y-78839034D01*
X186076448Y-78692311D01*
X186076453Y-78692300D01*
X186130680Y-78528652D01*
X186140999Y-78427654D01*
X186141000Y-78427641D01*
X186141000Y-78328500D01*
X185416000Y-78328500D01*
X184916000Y-78328500D01*
X184191001Y-78328500D01*
X181499630Y-78328500D01*
X181533973Y-78245588D01*
X181533974Y-78245585D01*
X181534335Y-78244714D01*
X181543159Y-78223412D01*
X181572000Y-78078417D01*
X181572000Y-77930582D01*
X181572000Y-77496328D01*
X181576924Y-77461733D01*
X181619097Y-77316573D01*
X181619098Y-77316567D01*
X181621999Y-77279701D01*
X181622000Y-77279694D01*
X181622000Y-75498306D01*
X181619098Y-75461431D01*
X181618807Y-75460430D01*
X181573245Y-75303606D01*
X181573244Y-75303603D01*
X181573244Y-75303602D01*
X181489581Y-75162135D01*
X181489579Y-75162133D01*
X181489576Y-75162129D01*
X181457628Y-75130181D01*
X181424143Y-75068858D01*
X181429127Y-74999166D01*
X181470999Y-74943233D01*
X181536463Y-74918816D01*
X181545309Y-74918500D01*
X182017582Y-74918500D01*
X182165418Y-74918500D01*
X182637691Y-74918500D01*
X182704730Y-74938185D01*
X182750485Y-74990989D01*
X182760429Y-75060147D01*
X182731404Y-75123703D01*
X182725372Y-75130181D01*
X182693423Y-75162129D01*
X182693417Y-75162137D01*
X182609755Y-75303603D01*
X182609754Y-75303606D01*
X182563902Y-75461426D01*
X182563901Y-75461432D01*
X182561000Y-75498298D01*
X182561000Y-77279701D01*
X182563901Y-77316567D01*
X182563902Y-77316573D01*
X182609754Y-77474393D01*
X182609755Y-77474396D01*
X182609756Y-77474398D01*
X182622725Y-77496328D01*
X182693417Y-77615862D01*
X182693423Y-77615870D01*
X182809629Y-77732076D01*
X182809633Y-77732079D01*
X182809635Y-77732081D01*
X182951102Y-77815744D01*
X182992724Y-77827836D01*
X183108926Y-77861597D01*
X183108929Y-77861597D01*
X183108931Y-77861598D01*
X183145806Y-77864500D01*
X183145814Y-77864500D01*
X183577186Y-77864500D01*
X183577194Y-77864500D01*
X183614069Y-77861598D01*
X183614071Y-77861597D01*
X183614073Y-77861597D01*
X183673467Y-77844341D01*
X183771898Y-77815744D01*
X183913365Y-77732081D01*
X183934634Y-77710812D01*
X183979319Y-77666128D01*
X184040642Y-77632643D01*
X184110334Y-77637627D01*
X184166267Y-77679499D01*
X184190684Y-77744963D01*
X184191000Y-77753809D01*
X184191000Y-77828500D01*
X186140999Y-77828500D01*
X186140999Y-77729360D01*
X186140998Y-77729345D01*
X186130680Y-77628347D01*
X186076453Y-77464699D01*
X186076448Y-77464688D01*
X185985947Y-77317965D01*
X185985944Y-77317961D01*
X185972017Y-77304034D01*
X185938532Y-77242711D01*
X185943516Y-77173019D01*
X185972017Y-77128672D01*
X185986340Y-77114350D01*
X186076908Y-76967516D01*
X186131174Y-76803753D01*
X186141500Y-76702677D01*
X186141499Y-76004324D01*
X186131174Y-75903247D01*
X186076908Y-75739484D01*
X186008828Y-75629110D01*
X185990389Y-75561718D01*
X185996436Y-75525698D01*
X186025174Y-75437256D01*
X186044960Y-75249000D01*
X186025174Y-75060744D01*
X185966679Y-74880716D01*
X185872033Y-74716784D01*
X185852917Y-74695554D01*
X185822689Y-74632565D01*
X185831314Y-74563230D01*
X185876055Y-74509564D01*
X185932467Y-74489226D01*
X186022797Y-74479999D01*
X186189334Y-74424814D01*
X186338656Y-74332712D01*
X186462712Y-74208656D01*
X186554814Y-74059334D01*
X186609999Y-73892797D01*
X186620500Y-73790009D01*
X186620499Y-72989992D01*
X186616495Y-72950800D01*
X186609999Y-72887203D01*
X186609998Y-72887200D01*
X186603189Y-72866652D01*
X186554814Y-72720666D01*
X186462712Y-72571344D01*
X186369049Y-72477681D01*
X186335564Y-72416358D01*
X186340548Y-72346666D01*
X186369049Y-72302319D01*
X186409379Y-72261989D01*
X186462712Y-72208656D01*
X186554814Y-72059334D01*
X186609999Y-71892797D01*
X186620500Y-71790009D01*
X186620499Y-70989992D01*
X186617733Y-70962919D01*
X186609999Y-70887203D01*
X186609998Y-70887200D01*
X186597240Y-70848700D01*
X186554814Y-70720666D01*
X186462712Y-70571344D01*
X186338656Y-70447288D01*
X186229402Y-70379900D01*
X186182679Y-70327953D01*
X186170500Y-70274362D01*
X186170500Y-69522079D01*
X186141659Y-69377092D01*
X186141658Y-69377091D01*
X186141658Y-69377087D01*
X186141521Y-69376756D01*
X186085087Y-69240511D01*
X186085080Y-69240498D01*
X186002951Y-69117584D01*
X186002948Y-69117580D01*
X185898419Y-69013051D01*
X185898415Y-69013048D01*
X185775501Y-68930919D01*
X185775488Y-68930912D01*
X185638917Y-68874343D01*
X185638907Y-68874340D01*
X185493920Y-68845500D01*
X185493918Y-68845500D01*
X184008500Y-68845500D01*
X183941461Y-68825815D01*
X183895706Y-68773011D01*
X183884500Y-68721500D01*
X183884500Y-64825499D01*
X183904185Y-64758460D01*
X183956989Y-64712705D01*
X184008500Y-64701499D01*
X184284002Y-64701499D01*
X184284008Y-64701499D01*
X184386797Y-64690999D01*
X184553334Y-64635814D01*
X184702656Y-64543712D01*
X184808368Y-64438000D01*
X191062145Y-64438000D01*
X191074473Y-64515835D01*
X191074473Y-64515838D01*
X191142567Y-64725410D01*
X191242613Y-64921760D01*
X191372142Y-65100041D01*
X191527958Y-65255857D01*
X191706239Y-65385386D01*
X191902589Y-65485432D01*
X192112164Y-65553526D01*
X192329819Y-65588000D01*
X192690000Y-65588000D01*
X192690000Y-64688000D01*
X193190000Y-64688000D01*
X193190000Y-65588000D01*
X193550181Y-65588000D01*
X193767835Y-65553526D01*
X193977410Y-65485432D01*
X194173760Y-65385386D01*
X194352041Y-65255857D01*
X194507857Y-65100041D01*
X194637386Y-64921760D01*
X194737432Y-64725410D01*
X194805526Y-64515838D01*
X194805526Y-64515835D01*
X194817855Y-64438000D01*
X193873012Y-64438000D01*
X193905925Y-64380993D01*
X193940000Y-64253826D01*
X193940000Y-64122174D01*
X193905925Y-63995007D01*
X193873012Y-63938000D01*
X194817855Y-63938000D01*
X194805526Y-63860164D01*
X194805526Y-63860161D01*
X194737432Y-63650589D01*
X194637386Y-63454239D01*
X194507857Y-63275958D01*
X194352041Y-63120142D01*
X194173760Y-62990613D01*
X193977410Y-62890567D01*
X193767835Y-62822473D01*
X193550181Y-62788000D01*
X193190000Y-62788000D01*
X193190000Y-63688000D01*
X192690000Y-63688000D01*
X192690000Y-62788000D01*
X192329819Y-62788000D01*
X192112164Y-62822473D01*
X191902589Y-62890567D01*
X191706239Y-62990613D01*
X191527958Y-63120142D01*
X191372142Y-63275958D01*
X191242613Y-63454239D01*
X191142567Y-63650589D01*
X191074473Y-63860161D01*
X191074473Y-63860164D01*
X191062145Y-63938000D01*
X192006988Y-63938000D01*
X191974075Y-63995007D01*
X191940000Y-64122174D01*
X191940000Y-64253826D01*
X191974075Y-64380993D01*
X192006988Y-64438000D01*
X191062145Y-64438000D01*
X184808368Y-64438000D01*
X184826712Y-64419656D01*
X184918814Y-64270334D01*
X184973999Y-64103797D01*
X184984500Y-64001009D01*
X184984499Y-63075992D01*
X184973999Y-62973203D01*
X184918814Y-62806666D01*
X184826712Y-62657344D01*
X184702656Y-62533288D01*
X184553334Y-62441186D01*
X184386797Y-62386001D01*
X184386795Y-62386000D01*
X184284010Y-62375500D01*
X181983998Y-62375500D01*
X181983981Y-62375501D01*
X181881203Y-62386000D01*
X181881200Y-62386001D01*
X181714668Y-62441185D01*
X181714663Y-62441187D01*
X181565342Y-62533289D01*
X181441289Y-62657342D01*
X181349187Y-62806663D01*
X181349185Y-62806668D01*
X181335986Y-62846500D01*
X181294001Y-62973203D01*
X181294001Y-62973204D01*
X181294000Y-62973204D01*
X181283500Y-63075983D01*
X181283500Y-64001001D01*
X181283501Y-64001019D01*
X181294000Y-64103796D01*
X181294001Y-64103799D01*
X181339077Y-64239826D01*
X181349186Y-64270334D01*
X181441288Y-64419656D01*
X181565344Y-64543712D01*
X181714666Y-64635814D01*
X181881203Y-64690999D01*
X181983991Y-64701500D01*
X182259501Y-64701499D01*
X182326539Y-64721183D01*
X182372294Y-64773987D01*
X182383500Y-64825499D01*
X182383500Y-68721500D01*
X182363815Y-68788539D01*
X182311011Y-68834294D01*
X182259500Y-68845500D01*
X180774076Y-68845500D01*
X180745242Y-68851234D01*
X180745243Y-68851235D01*
X180629093Y-68874339D01*
X180629089Y-68874340D01*
X180565110Y-68900842D01*
X180492507Y-68930914D01*
X180492499Y-68930919D01*
X180452846Y-68957415D01*
X180369586Y-69013047D01*
X180238546Y-69144085D01*
X180218741Y-69173726D01*
X180208871Y-69188500D01*
X180182553Y-69227887D01*
X180156414Y-69267007D01*
X180099843Y-69403582D01*
X180099840Y-69403592D01*
X180071000Y-69548579D01*
X180071000Y-69878800D01*
X180051315Y-69945839D01*
X179998511Y-69991594D01*
X179929353Y-70001538D01*
X179912405Y-69997876D01*
X179804073Y-69966402D01*
X179804067Y-69966401D01*
X179767201Y-69963500D01*
X179767194Y-69963500D01*
X179335806Y-69963500D01*
X179335798Y-69963500D01*
X179298932Y-69966401D01*
X179298926Y-69966402D01*
X179141106Y-70012254D01*
X179141103Y-70012255D01*
X178999637Y-70095917D01*
X178999629Y-70095923D01*
X178883423Y-70212129D01*
X178883417Y-70212137D01*
X178799755Y-70353603D01*
X178799754Y-70353606D01*
X178753902Y-70511426D01*
X178753901Y-70511432D01*
X178751000Y-70548298D01*
X178751000Y-70564500D01*
X178731315Y-70631539D01*
X178678511Y-70677294D01*
X178627000Y-70688500D01*
X178581730Y-70688500D01*
X178514691Y-70668815D01*
X178494048Y-70652181D01*
X178404317Y-70562449D01*
X178370833Y-70501125D01*
X178367999Y-70474768D01*
X178367999Y-70262830D01*
X178367998Y-70262813D01*
X178357674Y-70161747D01*
X178335862Y-70095923D01*
X178303408Y-69997984D01*
X178212840Y-69851150D01*
X178179319Y-69817629D01*
X178145834Y-69756306D01*
X178143000Y-69729948D01*
X178143000Y-69722821D01*
X178159613Y-69660821D01*
X178199005Y-69592592D01*
X178219679Y-69556784D01*
X178278174Y-69376756D01*
X178297960Y-69188500D01*
X178278174Y-69000244D01*
X178219679Y-68820216D01*
X178125033Y-68656284D01*
X177998371Y-68515612D01*
X177998370Y-68515611D01*
X177845234Y-68404351D01*
X177845229Y-68404348D01*
X177672307Y-68327357D01*
X177672302Y-68327355D01*
X177526501Y-68296365D01*
X177487146Y-68288000D01*
X177297854Y-68288000D01*
X177265397Y-68294898D01*
X177112697Y-68327355D01*
X177112692Y-68327357D01*
X176939770Y-68404348D01*
X176939765Y-68404351D01*
X176786629Y-68515611D01*
X176659966Y-68656285D01*
X176565321Y-68820215D01*
X176565318Y-68820222D01*
X176506827Y-69000240D01*
X176506826Y-69000244D01*
X176497409Y-69089842D01*
X176491464Y-69146412D01*
X176487040Y-69188500D01*
X176506826Y-69376756D01*
X176506827Y-69376759D01*
X176565318Y-69556777D01*
X176565321Y-69556784D01*
X176625387Y-69660821D01*
X176642000Y-69722821D01*
X176642000Y-69729948D01*
X176622315Y-69796987D01*
X176605681Y-69817629D01*
X176572161Y-69851148D01*
X176481593Y-69997981D01*
X176481591Y-69997986D01*
X176471633Y-70028038D01*
X176427326Y-70161747D01*
X176427326Y-70161748D01*
X176427325Y-70161748D01*
X176417000Y-70262815D01*
X176417000Y-70961169D01*
X176417001Y-70961187D01*
X176427325Y-71062252D01*
X176481592Y-71226015D01*
X176481593Y-71226018D01*
X176572161Y-71372851D01*
X176586482Y-71387172D01*
X176619967Y-71448495D01*
X176614983Y-71518187D01*
X176586485Y-71562532D01*
X176572552Y-71576465D01*
X176482051Y-71723188D01*
X176482046Y-71723199D01*
X176427819Y-71886847D01*
X176417500Y-71987845D01*
X176417500Y-72087000D01*
X177800982Y-72087000D01*
X177859434Y-72101641D01*
X177864000Y-72104080D01*
X177864005Y-72104084D01*
X177884904Y-72112740D01*
X177920579Y-72127518D01*
X177920580Y-72127518D01*
X178000588Y-72160659D01*
X178116741Y-72183763D01*
X178135968Y-72187587D01*
X178145581Y-72189500D01*
X178145582Y-72189500D01*
X178145583Y-72189500D01*
X178293418Y-72189500D01*
X178627000Y-72189500D01*
X178694039Y-72209185D01*
X178739794Y-72261989D01*
X178751000Y-72313500D01*
X178751000Y-72329701D01*
X178753901Y-72366567D01*
X178753902Y-72366573D01*
X178799754Y-72524393D01*
X178799755Y-72524396D01*
X178799756Y-72524398D01*
X178827520Y-72571344D01*
X178883417Y-72665862D01*
X178883423Y-72665870D01*
X178999629Y-72782076D01*
X178999633Y-72782079D01*
X178999635Y-72782081D01*
X179141102Y-72865744D01*
X179182724Y-72877836D01*
X179298926Y-72911597D01*
X179298929Y-72911597D01*
X179298931Y-72911598D01*
X179335806Y-72914500D01*
X179335814Y-72914500D01*
X179767186Y-72914500D01*
X179767194Y-72914500D01*
X179804069Y-72911598D01*
X179804071Y-72911597D01*
X179804073Y-72911597D01*
X179845691Y-72899505D01*
X179961898Y-72865744D01*
X180103365Y-72782081D01*
X180103370Y-72782075D01*
X180109531Y-72777298D01*
X180111433Y-72779750D01*
X180160079Y-72753155D01*
X180229774Y-72758104D01*
X180262195Y-72778940D01*
X180263469Y-72777298D01*
X180269632Y-72782078D01*
X180269635Y-72782081D01*
X180411102Y-72865744D01*
X180452724Y-72877836D01*
X180568926Y-72911597D01*
X180568929Y-72911597D01*
X180568931Y-72911598D01*
X180605806Y-72914500D01*
X180605814Y-72914500D01*
X181037186Y-72914500D01*
X181037194Y-72914500D01*
X181074069Y-72911598D01*
X181182405Y-72880123D01*
X181252274Y-72880322D01*
X181310944Y-72918264D01*
X181339788Y-72981902D01*
X181341000Y-72999199D01*
X181341000Y-73293500D01*
X181321315Y-73360539D01*
X181268511Y-73406294D01*
X181217000Y-73417500D01*
X178742080Y-73417500D01*
X178597092Y-73446340D01*
X178597082Y-73446343D01*
X178460511Y-73502912D01*
X178460498Y-73502919D01*
X178337587Y-73585046D01*
X178304800Y-73617832D01*
X178243476Y-73651315D01*
X178173784Y-73646329D01*
X178164720Y-73642532D01*
X178161834Y-73641186D01*
X178118800Y-73626926D01*
X177995297Y-73586001D01*
X177995294Y-73586000D01*
X177895420Y-73575797D01*
X177830728Y-73549401D01*
X177790577Y-73492220D01*
X177787714Y-73422409D01*
X177823049Y-73362132D01*
X177869020Y-73334733D01*
X177943798Y-73309954D01*
X177943811Y-73309948D01*
X178090534Y-73219447D01*
X178090538Y-73219444D01*
X178212444Y-73097538D01*
X178212447Y-73097534D01*
X178302948Y-72950811D01*
X178302953Y-72950800D01*
X178357180Y-72787152D01*
X178367499Y-72686154D01*
X178367500Y-72686141D01*
X178367500Y-72587000D01*
X176417501Y-72587000D01*
X176417501Y-72686154D01*
X176427819Y-72787152D01*
X176482046Y-72950800D01*
X176482051Y-72950811D01*
X176572552Y-73097534D01*
X176572555Y-73097538D01*
X176694461Y-73219444D01*
X176694465Y-73219447D01*
X176841188Y-73309948D01*
X176841199Y-73309953D01*
X176915983Y-73334734D01*
X176973428Y-73374506D01*
X177000251Y-73439022D01*
X176987936Y-73507798D01*
X176940393Y-73558998D01*
X176889581Y-73575798D01*
X176789702Y-73586001D01*
X176789700Y-73586001D01*
X176623168Y-73641185D01*
X176623163Y-73641187D01*
X176473842Y-73733289D01*
X176349789Y-73857342D01*
X176257687Y-74006663D01*
X176257685Y-74006668D01*
X176240233Y-74059336D01*
X176202501Y-74173203D01*
X176202501Y-74173204D01*
X176202500Y-74173204D01*
X176192000Y-74275983D01*
X176192000Y-75076001D01*
X176192001Y-75076019D01*
X176202500Y-75178796D01*
X176202501Y-75178799D01*
X176257685Y-75345331D01*
X176257687Y-75345336D01*
X176291133Y-75399560D01*
X176340661Y-75479859D01*
X176349789Y-75494657D01*
X176443451Y-75588319D01*
X176476936Y-75649642D01*
X176471952Y-75719334D01*
X176443451Y-75763681D01*
X176349788Y-75857343D01*
X176349787Y-75857344D01*
X176344080Y-75866598D01*
X176292132Y-75913322D01*
X176238542Y-75925500D01*
X176120230Y-75925500D01*
X176053191Y-75905815D01*
X176032549Y-75889181D01*
X175924657Y-75781289D01*
X175924656Y-75781288D01*
X175798541Y-75703500D01*
X175775336Y-75689187D01*
X175775331Y-75689185D01*
X175735541Y-75676000D01*
X175608797Y-75634001D01*
X175608795Y-75634000D01*
X175506010Y-75623500D01*
X174505998Y-75623500D01*
X174505980Y-75623501D01*
X174403203Y-75634000D01*
X174403200Y-75634001D01*
X174236668Y-75689185D01*
X174236663Y-75689187D01*
X174087342Y-75781289D01*
X173963289Y-75905342D01*
X173871187Y-76054663D01*
X173871186Y-76054666D01*
X173816001Y-76221203D01*
X173816001Y-76221204D01*
X173816000Y-76221204D01*
X173805500Y-76323983D01*
X173805500Y-77124001D01*
X173805501Y-77124019D01*
X173816000Y-77226796D01*
X173816001Y-77226799D01*
X173854529Y-77343067D01*
X173871186Y-77393334D01*
X173963287Y-77542655D01*
X173963289Y-77542657D01*
X174056951Y-77636319D01*
X174090436Y-77697642D01*
X174085452Y-77767334D01*
X174056951Y-77811681D01*
X173963288Y-77905343D01*
X173963287Y-77905344D01*
X173957580Y-77914598D01*
X173905632Y-77961322D01*
X173852042Y-77973500D01*
X172304229Y-77973500D01*
X172237190Y-77953815D01*
X172216548Y-77937181D01*
X165324421Y-71045052D01*
X165324414Y-71045046D01*
X165233666Y-70984411D01*
X165233665Y-70984411D01*
X165201500Y-70962919D01*
X165201488Y-70962912D01*
X165064917Y-70906343D01*
X165064907Y-70906340D01*
X164919920Y-70877500D01*
X164919918Y-70877500D01*
X154251918Y-70877500D01*
X153108918Y-70877500D01*
X134693918Y-70877500D01*
X118798082Y-70877500D01*
X118798080Y-70877500D01*
X118653092Y-70906340D01*
X118653082Y-70906343D01*
X118516511Y-70962912D01*
X118516499Y-70962919D01*
X118484335Y-70984411D01*
X118484334Y-70984411D01*
X118393585Y-71045046D01*
X118393578Y-71045052D01*
X114225047Y-75213584D01*
X114225045Y-75213586D01*
X114203379Y-75246013D01*
X114194735Y-75258952D01*
X114183580Y-75275647D01*
X114142914Y-75336507D01*
X114086343Y-75473082D01*
X114086340Y-75473092D01*
X114057500Y-75618079D01*
X114057500Y-80942362D01*
X114037815Y-81009401D01*
X113998598Y-81047899D01*
X113930288Y-81090033D01*
X113889342Y-81115289D01*
X113765289Y-81239342D01*
X113673187Y-81388663D01*
X113673185Y-81388668D01*
X113671175Y-81394734D01*
X113618001Y-81555203D01*
X113618001Y-81555204D01*
X113618000Y-81555204D01*
X113607500Y-81657983D01*
X113607500Y-82458001D01*
X113607501Y-82458019D01*
X113618000Y-82560796D01*
X113618001Y-82560799D01*
X113673185Y-82727331D01*
X113673187Y-82727336D01*
X113708069Y-82783888D01*
X113720472Y-82803998D01*
X113765289Y-82876657D01*
X113858951Y-82970319D01*
X113892436Y-83031642D01*
X113887452Y-83101334D01*
X113858951Y-83145681D01*
X113765289Y-83239342D01*
X113673187Y-83388663D01*
X113673186Y-83388666D01*
X113618001Y-83555203D01*
X113618001Y-83555204D01*
X113618000Y-83555204D01*
X113607500Y-83657983D01*
X113607500Y-84458001D01*
X113607501Y-84458019D01*
X113618000Y-84560796D01*
X113618001Y-84560799D01*
X113639118Y-84624525D01*
X113673186Y-84727334D01*
X113765288Y-84876656D01*
X113889344Y-85000712D01*
X113998597Y-85068099D01*
X114045321Y-85120047D01*
X114057500Y-85173638D01*
X114057500Y-85317677D01*
X114040887Y-85379677D01*
X113980821Y-85483714D01*
X113930203Y-85639500D01*
X113922326Y-85663744D01*
X113902540Y-85852000D01*
X113922326Y-86040256D01*
X113922327Y-86040259D01*
X113980818Y-86220277D01*
X113980821Y-86220284D01*
X114075467Y-86384216D01*
X114175243Y-86495028D01*
X114202129Y-86524888D01*
X114355265Y-86636148D01*
X114355270Y-86636151D01*
X114528192Y-86713142D01*
X114528197Y-86713144D01*
X114713354Y-86752500D01*
X114713355Y-86752500D01*
X114902644Y-86752500D01*
X114902646Y-86752500D01*
X115087803Y-86713144D01*
X115260730Y-86636151D01*
X115413871Y-86524888D01*
X115540533Y-86384216D01*
X115635179Y-86220284D01*
X115693674Y-86040256D01*
X115713460Y-85852000D01*
X115693674Y-85663744D01*
X115635179Y-85483716D01*
X115625584Y-85467097D01*
X115575113Y-85379677D01*
X115558500Y-85317677D01*
X115558500Y-85173638D01*
X115578185Y-85106599D01*
X115617401Y-85068100D01*
X115726656Y-85000712D01*
X115850712Y-84876656D01*
X115942814Y-84727334D01*
X115997999Y-84560797D01*
X116008500Y-84458009D01*
X116008499Y-83657992D01*
X116006864Y-83641991D01*
X115997999Y-83555203D01*
X115997998Y-83555200D01*
X115942814Y-83388666D01*
X115850712Y-83239344D01*
X115757049Y-83145681D01*
X115723564Y-83084358D01*
X115728548Y-83014666D01*
X115757049Y-82970319D01*
X115786211Y-82941157D01*
X115850712Y-82876656D01*
X115942814Y-82727334D01*
X115997999Y-82560797D01*
X116008500Y-82458009D01*
X116008499Y-81657992D01*
X116006864Y-81641991D01*
X115997999Y-81555203D01*
X115997998Y-81555200D01*
X115965567Y-81457331D01*
X115944827Y-81394741D01*
X122709500Y-81394741D01*
X122734446Y-81584215D01*
X122739452Y-81622238D01*
X122749034Y-81657998D01*
X122798842Y-81843887D01*
X122886650Y-82055876D01*
X122886657Y-82055890D01*
X123001392Y-82254617D01*
X123141081Y-82436661D01*
X123141089Y-82436670D01*
X123303330Y-82598911D01*
X123303338Y-82598918D01*
X123485382Y-82738607D01*
X123485385Y-82738608D01*
X123485388Y-82738611D01*
X123684112Y-82853344D01*
X123684117Y-82853346D01*
X123684123Y-82853349D01*
X123740392Y-82876656D01*
X123896113Y-82941158D01*
X124117762Y-83000548D01*
X124345266Y-83030500D01*
X124345273Y-83030500D01*
X124574727Y-83030500D01*
X124574734Y-83030500D01*
X124802238Y-83000548D01*
X125023887Y-82941158D01*
X125235888Y-82853344D01*
X125434612Y-82738611D01*
X125616661Y-82598919D01*
X125616665Y-82598914D01*
X125616670Y-82598911D01*
X125778911Y-82436670D01*
X125778914Y-82436665D01*
X125778919Y-82436661D01*
X125918611Y-82254612D01*
X126033344Y-82055888D01*
X126121158Y-81843887D01*
X126180548Y-81622238D01*
X126210500Y-81394734D01*
X126210500Y-81165266D01*
X126180548Y-80937762D01*
X126121158Y-80716113D01*
X126033344Y-80504112D01*
X125918611Y-80305388D01*
X125918608Y-80305385D01*
X125918607Y-80305382D01*
X125778918Y-80123338D01*
X125778911Y-80123330D01*
X125616670Y-79961089D01*
X125616661Y-79961081D01*
X125434617Y-79821392D01*
X125396411Y-79799334D01*
X125235888Y-79706656D01*
X125235876Y-79706650D01*
X125023887Y-79618842D01*
X124802238Y-79559452D01*
X124764215Y-79554446D01*
X124574741Y-79529500D01*
X124574734Y-79529500D01*
X124345266Y-79529500D01*
X124345258Y-79529500D01*
X124128715Y-79558009D01*
X124117762Y-79559452D01*
X124024076Y-79584554D01*
X123896112Y-79618842D01*
X123684123Y-79706650D01*
X123684109Y-79706657D01*
X123485382Y-79821392D01*
X123303338Y-79961081D01*
X123141081Y-80123338D01*
X123001392Y-80305382D01*
X122886657Y-80504109D01*
X122886650Y-80504123D01*
X122798842Y-80716112D01*
X122739453Y-80937759D01*
X122739451Y-80937770D01*
X122709500Y-81165258D01*
X122709500Y-81394741D01*
X115944827Y-81394741D01*
X115942814Y-81388666D01*
X115850712Y-81239344D01*
X115726656Y-81115288D01*
X115617402Y-81047900D01*
X115570679Y-80995953D01*
X115558500Y-80942362D01*
X115558500Y-76054230D01*
X115578185Y-75987191D01*
X115594819Y-75966549D01*
X119146549Y-72414819D01*
X119207872Y-72381334D01*
X119234230Y-72378500D01*
X133745500Y-72378500D01*
X133812539Y-72398185D01*
X133858294Y-72450989D01*
X133869500Y-72502500D01*
X133869500Y-80926362D01*
X133849815Y-80993401D01*
X133810598Y-81031899D01*
X133784656Y-81047901D01*
X133701342Y-81099289D01*
X133577289Y-81223342D01*
X133485187Y-81372663D01*
X133485185Y-81372668D01*
X133477873Y-81394734D01*
X133430001Y-81539203D01*
X133430001Y-81539204D01*
X133430000Y-81539204D01*
X133419500Y-81641983D01*
X133419500Y-82442001D01*
X133419501Y-82442019D01*
X133430000Y-82544796D01*
X133430001Y-82544799D01*
X133485185Y-82711331D01*
X133485187Y-82711336D01*
X133577289Y-82860657D01*
X133670951Y-82954319D01*
X133704436Y-83015642D01*
X133699452Y-83085334D01*
X133670951Y-83129681D01*
X133577289Y-83223342D01*
X133485187Y-83372663D01*
X133485185Y-83372668D01*
X133460205Y-83448053D01*
X133430001Y-83539203D01*
X133430001Y-83539204D01*
X133430000Y-83539204D01*
X133419500Y-83641983D01*
X133419500Y-84442001D01*
X133419501Y-84442019D01*
X133430000Y-84544796D01*
X133430001Y-84544799D01*
X133456420Y-84624525D01*
X133485186Y-84711334D01*
X133577288Y-84860656D01*
X133701344Y-84984712D01*
X133810597Y-85052099D01*
X133857321Y-85104047D01*
X133869500Y-85157638D01*
X133869500Y-85317677D01*
X133852887Y-85379677D01*
X133792821Y-85483714D01*
X133742203Y-85639500D01*
X133734326Y-85663744D01*
X133714540Y-85852000D01*
X133734326Y-86040256D01*
X133734327Y-86040259D01*
X133792818Y-86220277D01*
X133792821Y-86220284D01*
X133887467Y-86384216D01*
X133987243Y-86495028D01*
X134014129Y-86524888D01*
X134167265Y-86636148D01*
X134167270Y-86636151D01*
X134340192Y-86713142D01*
X134340197Y-86713144D01*
X134525354Y-86752500D01*
X134525355Y-86752500D01*
X134714644Y-86752500D01*
X134714646Y-86752500D01*
X134899803Y-86713144D01*
X135072730Y-86636151D01*
X135225871Y-86524888D01*
X135352533Y-86384216D01*
X135447179Y-86220284D01*
X135505674Y-86040256D01*
X135525460Y-85852000D01*
X135505674Y-85663744D01*
X135447179Y-85483716D01*
X135437584Y-85467097D01*
X135387113Y-85379677D01*
X135370500Y-85317677D01*
X135370500Y-85157638D01*
X135390185Y-85090599D01*
X135429401Y-85052100D01*
X135538656Y-84984712D01*
X135662712Y-84860656D01*
X135754814Y-84711334D01*
X135809999Y-84544797D01*
X135820500Y-84442009D01*
X135820499Y-83641992D01*
X135819341Y-83630659D01*
X135809999Y-83539203D01*
X135809998Y-83539200D01*
X135799349Y-83507064D01*
X135754814Y-83372666D01*
X135662712Y-83223344D01*
X135569049Y-83129681D01*
X135535564Y-83068358D01*
X135540548Y-82998666D01*
X135569049Y-82954319D01*
X135582211Y-82941157D01*
X135662712Y-82860656D01*
X135697657Y-82804001D01*
X146685147Y-82804001D01*
X146704536Y-83075090D01*
X146704537Y-83075097D01*
X146762305Y-83340654D01*
X146857285Y-83595306D01*
X146857287Y-83595310D01*
X146987532Y-83833835D01*
X146987537Y-83833843D01*
X147081321Y-83959123D01*
X147081322Y-83959124D01*
X147874153Y-83166293D01*
X147881049Y-83182942D01*
X147968599Y-83313970D01*
X148080030Y-83425401D01*
X148211058Y-83512951D01*
X148227705Y-83519846D01*
X147434874Y-84312676D01*
X147560163Y-84406466D01*
X147560164Y-84406467D01*
X147798689Y-84536712D01*
X147798693Y-84536714D01*
X148053345Y-84631694D01*
X148318902Y-84689462D01*
X148318909Y-84689463D01*
X148589999Y-84708853D01*
X148590001Y-84708853D01*
X148861090Y-84689463D01*
X148861097Y-84689462D01*
X149126654Y-84631694D01*
X149381306Y-84536714D01*
X149381310Y-84536712D01*
X149619844Y-84406462D01*
X149745123Y-84312677D01*
X149745124Y-84312676D01*
X148952294Y-83519846D01*
X148968942Y-83512951D01*
X149099970Y-83425401D01*
X149211401Y-83313970D01*
X149298951Y-83182942D01*
X149305846Y-83166294D01*
X150098676Y-83959124D01*
X150098677Y-83959123D01*
X150192462Y-83833844D01*
X150322712Y-83595310D01*
X150322714Y-83595306D01*
X150417694Y-83340654D01*
X150475462Y-83075097D01*
X150475463Y-83075090D01*
X150494853Y-82804001D01*
X150494853Y-82803998D01*
X150475463Y-82532909D01*
X150475462Y-82532902D01*
X150417694Y-82267345D01*
X150322714Y-82012693D01*
X150322712Y-82012689D01*
X150192467Y-81774164D01*
X150192466Y-81774163D01*
X150098676Y-81648874D01*
X149305846Y-82441704D01*
X149298951Y-82425058D01*
X149211401Y-82294030D01*
X149099970Y-82182599D01*
X148968942Y-82095049D01*
X148952294Y-82088153D01*
X149745124Y-81295322D01*
X149745123Y-81295321D01*
X149619843Y-81201537D01*
X149619835Y-81201532D01*
X149381310Y-81071287D01*
X149381306Y-81071285D01*
X149126654Y-80976305D01*
X148861097Y-80918537D01*
X148861090Y-80918536D01*
X148590001Y-80899147D01*
X148589999Y-80899147D01*
X148318909Y-80918536D01*
X148318902Y-80918537D01*
X148053345Y-80976305D01*
X147798693Y-81071285D01*
X147798689Y-81071287D01*
X147560164Y-81201532D01*
X147560156Y-81201537D01*
X147434875Y-81295321D01*
X147434874Y-81295322D01*
X148227705Y-82088153D01*
X148211058Y-82095049D01*
X148080030Y-82182599D01*
X147968599Y-82294030D01*
X147881049Y-82425058D01*
X147874153Y-82441705D01*
X147081322Y-81648874D01*
X147081321Y-81648875D01*
X146987537Y-81774156D01*
X146987532Y-81774164D01*
X146857287Y-82012689D01*
X146857285Y-82012693D01*
X146762305Y-82267345D01*
X146704537Y-82532902D01*
X146704536Y-82532909D01*
X146685147Y-82803998D01*
X146685147Y-82804001D01*
X135697657Y-82804001D01*
X135754814Y-82711334D01*
X135809999Y-82544797D01*
X135820500Y-82442009D01*
X135820499Y-81641992D01*
X135816889Y-81606657D01*
X135809999Y-81539203D01*
X135809998Y-81539200D01*
X135782869Y-81457331D01*
X135754814Y-81372666D01*
X135662712Y-81223344D01*
X135538656Y-81099288D01*
X135429402Y-81031900D01*
X135382679Y-80979953D01*
X135370500Y-80926362D01*
X135370500Y-72502500D01*
X135390185Y-72435461D01*
X135442989Y-72389706D01*
X135494500Y-72378500D01*
X152961082Y-72378500D01*
X153303500Y-72378500D01*
X153370539Y-72398185D01*
X153416294Y-72450989D01*
X153427500Y-72502500D01*
X153427500Y-80942362D01*
X153407815Y-81009401D01*
X153368598Y-81047899D01*
X153300288Y-81090033D01*
X153259342Y-81115289D01*
X153135289Y-81239342D01*
X153043187Y-81388663D01*
X153043185Y-81388668D01*
X153041175Y-81394734D01*
X152988001Y-81555203D01*
X152988001Y-81555204D01*
X152988000Y-81555204D01*
X152977500Y-81657983D01*
X152977500Y-82458001D01*
X152977501Y-82458019D01*
X152988000Y-82560796D01*
X152988001Y-82560799D01*
X153043185Y-82727331D01*
X153043187Y-82727336D01*
X153078069Y-82783888D01*
X153090472Y-82803998D01*
X153135289Y-82876657D01*
X153228951Y-82970319D01*
X153262436Y-83031642D01*
X153257452Y-83101334D01*
X153228951Y-83145681D01*
X153135289Y-83239342D01*
X153043187Y-83388663D01*
X153043186Y-83388666D01*
X152988001Y-83555203D01*
X152988001Y-83555204D01*
X152988000Y-83555204D01*
X152977500Y-83657983D01*
X152977500Y-84458001D01*
X152977501Y-84458019D01*
X152988000Y-84560796D01*
X152988001Y-84560799D01*
X153043185Y-84727331D01*
X153043187Y-84727336D01*
X153135289Y-84876657D01*
X153259344Y-85000712D01*
X153321781Y-85039223D01*
X153368506Y-85091171D01*
X153379729Y-85160133D01*
X153364073Y-85206760D01*
X153350821Y-85229713D01*
X153292327Y-85409740D01*
X153292326Y-85409744D01*
X153272540Y-85598000D01*
X153292326Y-85786256D01*
X153292327Y-85786259D01*
X153350818Y-85966277D01*
X153350821Y-85966284D01*
X153445467Y-86130216D01*
X153572129Y-86270888D01*
X153725265Y-86382148D01*
X153725270Y-86382151D01*
X153898192Y-86459142D01*
X153898197Y-86459144D01*
X154083354Y-86498500D01*
X154083355Y-86498500D01*
X154272644Y-86498500D01*
X154272646Y-86498500D01*
X154457803Y-86459144D01*
X154630730Y-86382151D01*
X154783871Y-86270888D01*
X154910533Y-86130216D01*
X155005179Y-85966284D01*
X155063674Y-85786256D01*
X155083460Y-85598000D01*
X155063674Y-85409744D01*
X155005179Y-85229716D01*
X154991926Y-85206761D01*
X154975453Y-85138865D01*
X154998304Y-85072838D01*
X155034215Y-85039225D01*
X155096656Y-85000712D01*
X155220712Y-84876656D01*
X155312814Y-84727334D01*
X155367999Y-84560797D01*
X155378500Y-84458009D01*
X155378499Y-83657992D01*
X155376864Y-83641991D01*
X155367999Y-83555203D01*
X155367998Y-83555200D01*
X155312814Y-83388666D01*
X155220712Y-83239344D01*
X155127049Y-83145681D01*
X155093564Y-83084358D01*
X155098548Y-83014666D01*
X155127049Y-82970319D01*
X155156211Y-82941157D01*
X155220712Y-82876656D01*
X155312814Y-82727334D01*
X155367999Y-82560797D01*
X155378500Y-82458009D01*
X155378499Y-81657992D01*
X155376864Y-81641991D01*
X155367999Y-81555203D01*
X155367998Y-81555200D01*
X155335567Y-81457331D01*
X155314827Y-81394741D01*
X165889500Y-81394741D01*
X165914446Y-81584215D01*
X165919452Y-81622238D01*
X165929034Y-81657998D01*
X165978842Y-81843887D01*
X166066650Y-82055876D01*
X166066657Y-82055890D01*
X166181392Y-82254617D01*
X166321081Y-82436661D01*
X166321089Y-82436670D01*
X166483330Y-82598911D01*
X166483338Y-82598918D01*
X166665382Y-82738607D01*
X166665385Y-82738608D01*
X166665388Y-82738611D01*
X166864112Y-82853344D01*
X166864117Y-82853346D01*
X166864123Y-82853349D01*
X166920392Y-82876656D01*
X167076113Y-82941158D01*
X167297762Y-83000548D01*
X167525266Y-83030500D01*
X167525273Y-83030500D01*
X167754727Y-83030500D01*
X167754734Y-83030500D01*
X167982238Y-83000548D01*
X168203887Y-82941158D01*
X168415888Y-82853344D01*
X168614612Y-82738611D01*
X168796661Y-82598919D01*
X168796665Y-82598914D01*
X168796670Y-82598911D01*
X168958911Y-82436670D01*
X168958914Y-82436665D01*
X168958919Y-82436661D01*
X169098611Y-82254612D01*
X169213344Y-82055888D01*
X169301158Y-81843887D01*
X169360548Y-81622238D01*
X169390500Y-81394734D01*
X169390500Y-81165266D01*
X169360548Y-80937762D01*
X169301158Y-80716113D01*
X169213344Y-80504112D01*
X169098611Y-80305388D01*
X169098608Y-80305385D01*
X169098607Y-80305382D01*
X168958918Y-80123338D01*
X168958911Y-80123330D01*
X168796670Y-79961089D01*
X168796661Y-79961081D01*
X168614617Y-79821392D01*
X168576411Y-79799334D01*
X168415888Y-79706656D01*
X168415876Y-79706650D01*
X168203887Y-79618842D01*
X167982238Y-79559452D01*
X167944215Y-79554446D01*
X167754741Y-79529500D01*
X167754734Y-79529500D01*
X167525266Y-79529500D01*
X167525258Y-79529500D01*
X167308715Y-79558009D01*
X167297762Y-79559452D01*
X167204076Y-79584554D01*
X167076112Y-79618842D01*
X166864123Y-79706650D01*
X166864109Y-79706657D01*
X166665382Y-79821392D01*
X166483338Y-79961081D01*
X166321081Y-80123338D01*
X166181392Y-80305382D01*
X166066657Y-80504109D01*
X166066650Y-80504123D01*
X165978842Y-80716112D01*
X165919453Y-80937759D01*
X165919451Y-80937770D01*
X165889500Y-81165258D01*
X165889500Y-81394741D01*
X155314827Y-81394741D01*
X155312814Y-81388666D01*
X155220712Y-81239344D01*
X155096656Y-81115288D01*
X154987402Y-81047900D01*
X154940679Y-80995953D01*
X154928500Y-80942362D01*
X154928500Y-72502500D01*
X154948185Y-72435461D01*
X155000989Y-72389706D01*
X155052500Y-72378500D01*
X164483770Y-72378500D01*
X164550809Y-72398185D01*
X164571451Y-72414819D01*
X167970274Y-75813641D01*
X171359048Y-79202415D01*
X171359049Y-79202416D01*
X171442521Y-79285888D01*
X171463585Y-79306952D01*
X171586498Y-79389080D01*
X171586511Y-79389087D01*
X171723082Y-79445656D01*
X171723087Y-79445658D01*
X171723091Y-79445658D01*
X171723092Y-79445659D01*
X171868079Y-79474500D01*
X171868082Y-79474500D01*
X173852042Y-79474500D01*
X173919081Y-79494185D01*
X173957580Y-79533402D01*
X173963287Y-79542655D01*
X174088951Y-79668319D01*
X174122436Y-79729642D01*
X174117452Y-79799334D01*
X174088951Y-79843681D01*
X173963289Y-79969342D01*
X173871187Y-80118663D01*
X173871185Y-80118668D01*
X173847864Y-80189048D01*
X173816001Y-80285203D01*
X173816001Y-80285204D01*
X173816000Y-80285204D01*
X173805500Y-80387983D01*
X173805500Y-81188001D01*
X173805501Y-81188019D01*
X173816000Y-81290796D01*
X173816001Y-81290799D01*
X173853574Y-81404186D01*
X173871186Y-81457334D01*
X173931552Y-81555204D01*
X173963289Y-81606657D01*
X174056951Y-81700319D01*
X174090436Y-81761642D01*
X174085452Y-81831334D01*
X174056951Y-81875681D01*
X173963289Y-81969342D01*
X173871187Y-82118663D01*
X173871186Y-82118666D01*
X173816001Y-82285203D01*
X173816001Y-82285204D01*
X173816000Y-82285204D01*
X173805500Y-82387983D01*
X173805500Y-83188001D01*
X173805501Y-83188019D01*
X173816000Y-83290796D01*
X173816001Y-83290799D01*
X173871185Y-83457331D01*
X173871187Y-83457336D01*
X173905491Y-83512951D01*
X173963288Y-83606656D01*
X174087344Y-83730712D01*
X174128446Y-83756064D01*
X174149781Y-83769223D01*
X174196506Y-83821171D01*
X174207729Y-83890133D01*
X174192073Y-83936760D01*
X174178821Y-83959713D01*
X174134409Y-84096400D01*
X174120326Y-84139744D01*
X174100540Y-84328000D01*
X174120326Y-84516256D01*
X174120327Y-84516259D01*
X174178818Y-84696277D01*
X174178821Y-84696284D01*
X174273467Y-84860216D01*
X174288270Y-84876656D01*
X174400129Y-85000888D01*
X174553265Y-85112148D01*
X174553270Y-85112151D01*
X174726192Y-85189142D01*
X174726197Y-85189144D01*
X174911354Y-85228500D01*
X174911355Y-85228500D01*
X175100644Y-85228500D01*
X175100646Y-85228500D01*
X175285803Y-85189144D01*
X175285805Y-85189142D01*
X175291987Y-85187135D01*
X175292598Y-85189017D01*
X175352523Y-85180974D01*
X175415805Y-85210592D01*
X175453027Y-85269722D01*
X175452373Y-85339588D01*
X175421409Y-85391222D01*
X169635451Y-91177181D01*
X169574128Y-91210666D01*
X169547770Y-91213500D01*
X169301958Y-91213500D01*
X169234919Y-91193815D01*
X169196420Y-91154598D01*
X169190712Y-91145344D01*
X169066657Y-91021289D01*
X169066656Y-91021288D01*
X168917334Y-90929186D01*
X168750797Y-90874001D01*
X168750795Y-90874000D01*
X168648010Y-90863500D01*
X167647998Y-90863500D01*
X167647980Y-90863501D01*
X167545203Y-90874000D01*
X167545200Y-90874001D01*
X167378668Y-90929185D01*
X167378663Y-90929187D01*
X167229342Y-91021289D01*
X167105289Y-91145342D01*
X167101279Y-91150414D01*
X167044256Y-91190789D01*
X167004015Y-91197500D01*
X149479985Y-91197500D01*
X149412946Y-91177815D01*
X149382721Y-91150414D01*
X149378710Y-91145342D01*
X149254657Y-91021289D01*
X149254656Y-91021288D01*
X149105334Y-90929186D01*
X148938797Y-90874001D01*
X148938795Y-90874000D01*
X148836010Y-90863500D01*
X147835998Y-90863500D01*
X147835980Y-90863501D01*
X147733203Y-90874000D01*
X147733200Y-90874001D01*
X147566668Y-90929185D01*
X147566663Y-90929187D01*
X147417342Y-91021289D01*
X147293289Y-91145342D01*
X147289279Y-91150414D01*
X147232256Y-91190789D01*
X147192015Y-91197500D01*
X129667985Y-91197500D01*
X129600946Y-91177815D01*
X129570721Y-91150414D01*
X129566710Y-91145342D01*
X129442657Y-91021289D01*
X129442656Y-91021288D01*
X129293334Y-90929186D01*
X129126797Y-90874001D01*
X129126795Y-90874000D01*
X129024010Y-90863500D01*
X128023998Y-90863500D01*
X128023980Y-90863501D01*
X127921203Y-90874000D01*
X127921200Y-90874001D01*
X127754668Y-90929185D01*
X127754663Y-90929187D01*
X127605342Y-91021289D01*
X127481287Y-91145344D01*
X127475580Y-91154598D01*
X127423632Y-91201322D01*
X127370042Y-91213500D01*
X109865958Y-91213500D01*
X109798919Y-91193815D01*
X109760420Y-91154598D01*
X109754712Y-91145344D01*
X109630657Y-91021289D01*
X109630656Y-91021288D01*
X109481334Y-90929186D01*
X109314797Y-90874001D01*
X109314795Y-90874000D01*
X109212010Y-90863500D01*
X108211998Y-90863500D01*
X108211980Y-90863501D01*
X108109203Y-90874000D01*
X108109200Y-90874001D01*
X107942668Y-90929185D01*
X107942663Y-90929187D01*
X107793342Y-91021289D01*
X107669289Y-91145342D01*
X107577187Y-91294663D01*
X107577186Y-91294666D01*
X107522001Y-91461203D01*
X107522001Y-91461204D01*
X107522000Y-91461204D01*
X107511500Y-91563983D01*
X107511500Y-92364001D01*
X107511501Y-92364019D01*
X107522000Y-92466796D01*
X107522001Y-92466799D01*
X107577185Y-92633331D01*
X107577187Y-92633336D01*
X107609460Y-92685659D01*
X107669287Y-92782655D01*
X107669289Y-92782657D01*
X107762951Y-92876319D01*
X107796436Y-92937642D01*
X107791452Y-93007334D01*
X107762951Y-93051681D01*
X107669289Y-93145342D01*
X107577187Y-93294663D01*
X107577186Y-93294666D01*
X107522001Y-93461203D01*
X107522001Y-93461204D01*
X107522000Y-93461204D01*
X107511500Y-93563983D01*
X107511500Y-94364001D01*
X107511501Y-94364019D01*
X107522000Y-94466796D01*
X107522001Y-94466799D01*
X107523678Y-94471859D01*
X107577186Y-94633334D01*
X107669288Y-94782656D01*
X107793344Y-94906712D01*
X107902597Y-94974099D01*
X107949321Y-95026047D01*
X107961500Y-95079638D01*
X107961500Y-99647205D01*
X107941815Y-99714244D01*
X107889011Y-99759999D01*
X107819853Y-99769943D01*
X107756297Y-99740918D01*
X107737182Y-99720091D01*
X107696226Y-99663721D01*
X107645828Y-99594354D01*
X107506646Y-99455172D01*
X107347405Y-99339476D01*
X107172029Y-99250117D01*
X106984826Y-99189290D01*
X106790422Y-99158500D01*
X106790417Y-99158500D01*
X106593583Y-99158500D01*
X106593578Y-99158500D01*
X106399173Y-99189290D01*
X106211970Y-99250117D01*
X106036594Y-99339476D01*
X105976001Y-99383500D01*
X105877354Y-99455172D01*
X105877352Y-99455174D01*
X105877351Y-99455174D01*
X105738174Y-99594351D01*
X105738174Y-99594352D01*
X105738172Y-99594354D01*
X105699773Y-99647205D01*
X105622476Y-99753594D01*
X105533117Y-99928970D01*
X105472290Y-100116173D01*
X105441500Y-100310577D01*
X105441500Y-100607422D01*
X103886000Y-100607422D01*
X103886000Y-64424000D01*
X111814145Y-64424000D01*
X111826473Y-64501835D01*
X111826473Y-64501838D01*
X111894567Y-64711410D01*
X111994613Y-64907760D01*
X112124142Y-65086041D01*
X112279958Y-65241857D01*
X112458239Y-65371386D01*
X112654589Y-65471432D01*
X112864164Y-65539526D01*
X113081819Y-65574000D01*
X113442000Y-65574000D01*
X113442000Y-64674000D01*
X113942000Y-64674000D01*
X113942000Y-65574000D01*
X114302181Y-65574000D01*
X114519835Y-65539526D01*
X114729410Y-65471432D01*
X114925760Y-65371386D01*
X115104041Y-65241857D01*
X115259857Y-65086041D01*
X115389386Y-64907760D01*
X115489432Y-64711410D01*
X115557526Y-64501838D01*
X115557526Y-64501835D01*
X115567637Y-64438000D01*
X131726145Y-64438000D01*
X131738473Y-64515835D01*
X131738473Y-64515838D01*
X131806567Y-64725410D01*
X131906613Y-64921760D01*
X132036142Y-65100041D01*
X132191958Y-65255857D01*
X132370239Y-65385386D01*
X132566589Y-65485432D01*
X132776164Y-65553526D01*
X132993819Y-65588000D01*
X133354000Y-65588000D01*
X133354000Y-64688000D01*
X133854000Y-64688000D01*
X133854000Y-65588000D01*
X134214181Y-65588000D01*
X134431835Y-65553526D01*
X134641410Y-65485432D01*
X134837760Y-65385386D01*
X135016041Y-65255857D01*
X135171857Y-65100041D01*
X135301386Y-64921760D01*
X135401432Y-64725410D01*
X135469526Y-64515838D01*
X135469526Y-64515835D01*
X135481855Y-64438000D01*
X151438145Y-64438000D01*
X151450473Y-64515835D01*
X151450473Y-64515838D01*
X151518567Y-64725410D01*
X151618613Y-64921760D01*
X151748142Y-65100041D01*
X151903958Y-65255857D01*
X152082239Y-65385386D01*
X152278589Y-65485432D01*
X152488164Y-65553526D01*
X152705819Y-65588000D01*
X153066000Y-65588000D01*
X153066000Y-64688000D01*
X153566000Y-64688000D01*
X153566000Y-65588000D01*
X153926181Y-65588000D01*
X154143835Y-65553526D01*
X154353410Y-65485432D01*
X154549760Y-65385386D01*
X154728041Y-65255857D01*
X154883857Y-65100041D01*
X155013386Y-64921760D01*
X155113432Y-64725410D01*
X155181526Y-64515838D01*
X155181526Y-64515835D01*
X155193855Y-64438000D01*
X171223145Y-64438000D01*
X171235473Y-64515835D01*
X171235473Y-64515838D01*
X171303567Y-64725410D01*
X171403613Y-64921760D01*
X171533142Y-65100041D01*
X171688958Y-65255857D01*
X171867239Y-65385386D01*
X172063589Y-65485432D01*
X172273164Y-65553526D01*
X172490819Y-65588000D01*
X172851000Y-65588000D01*
X172851000Y-64688000D01*
X173351000Y-64688000D01*
X173351000Y-65588000D01*
X173711181Y-65588000D01*
X173928835Y-65553526D01*
X174138410Y-65485432D01*
X174334760Y-65385386D01*
X174513041Y-65255857D01*
X174668857Y-65100041D01*
X174798386Y-64921760D01*
X174898432Y-64725410D01*
X174966526Y-64515838D01*
X174966526Y-64515835D01*
X174978855Y-64438000D01*
X174034012Y-64438000D01*
X174066925Y-64380993D01*
X174101000Y-64253826D01*
X174101000Y-64122174D01*
X174066925Y-63995007D01*
X174034012Y-63938000D01*
X174978855Y-63938000D01*
X174966526Y-63860164D01*
X174966526Y-63860161D01*
X174898432Y-63650589D01*
X174798386Y-63454239D01*
X174668857Y-63275958D01*
X174513041Y-63120142D01*
X174334760Y-62990613D01*
X174138410Y-62890567D01*
X173928835Y-62822473D01*
X173711181Y-62788000D01*
X173351000Y-62788000D01*
X173351000Y-63688000D01*
X172851000Y-63688000D01*
X172851000Y-62788000D01*
X172490819Y-62788000D01*
X172273164Y-62822473D01*
X172063589Y-62890567D01*
X171867239Y-62990613D01*
X171688958Y-63120142D01*
X171533142Y-63275958D01*
X171403613Y-63454239D01*
X171303567Y-63650589D01*
X171235473Y-63860161D01*
X171235473Y-63860164D01*
X171223145Y-63938000D01*
X172167988Y-63938000D01*
X172135075Y-63995007D01*
X172101000Y-64122174D01*
X172101000Y-64253826D01*
X172135075Y-64380993D01*
X172167988Y-64438000D01*
X171223145Y-64438000D01*
X155193855Y-64438000D01*
X154249012Y-64438000D01*
X154281925Y-64380993D01*
X154316000Y-64253826D01*
X154316000Y-64122174D01*
X154281925Y-63995007D01*
X154249012Y-63938000D01*
X155193855Y-63938000D01*
X155181526Y-63860164D01*
X155181526Y-63860161D01*
X155113432Y-63650589D01*
X155013386Y-63454239D01*
X154883857Y-63275958D01*
X154728041Y-63120142D01*
X154549760Y-62990613D01*
X154353410Y-62890567D01*
X154143835Y-62822473D01*
X153926181Y-62788000D01*
X153566000Y-62788000D01*
X153566000Y-63688000D01*
X153066000Y-63688000D01*
X153066000Y-62788000D01*
X152705819Y-62788000D01*
X152488164Y-62822473D01*
X152278589Y-62890567D01*
X152082239Y-62990613D01*
X151903958Y-63120142D01*
X151748142Y-63275958D01*
X151618613Y-63454239D01*
X151518567Y-63650589D01*
X151450473Y-63860161D01*
X151450473Y-63860164D01*
X151438145Y-63938000D01*
X152382988Y-63938000D01*
X152350075Y-63995007D01*
X152316000Y-64122174D01*
X152316000Y-64253826D01*
X152350075Y-64380993D01*
X152382988Y-64438000D01*
X151438145Y-64438000D01*
X135481855Y-64438000D01*
X134537012Y-64438000D01*
X134569925Y-64380993D01*
X134604000Y-64253826D01*
X134604000Y-64122174D01*
X134569925Y-63995007D01*
X134537012Y-63938000D01*
X135481855Y-63938000D01*
X135469526Y-63860164D01*
X135469526Y-63860161D01*
X135401432Y-63650589D01*
X135301386Y-63454239D01*
X135171857Y-63275958D01*
X135016041Y-63120142D01*
X134837760Y-62990613D01*
X134641410Y-62890567D01*
X134431835Y-62822473D01*
X134214181Y-62788000D01*
X133854000Y-62788000D01*
X133854000Y-63688000D01*
X133354000Y-63688000D01*
X133354000Y-62788000D01*
X132993819Y-62788000D01*
X132776164Y-62822473D01*
X132566589Y-62890567D01*
X132370239Y-62990613D01*
X132191958Y-63120142D01*
X132036142Y-63275958D01*
X131906613Y-63454239D01*
X131806567Y-63650589D01*
X131738473Y-63860161D01*
X131738473Y-63860164D01*
X131726145Y-63938000D01*
X132670988Y-63938000D01*
X132638075Y-63995007D01*
X132604000Y-64122174D01*
X132604000Y-64253826D01*
X132638075Y-64380993D01*
X132670988Y-64438000D01*
X131726145Y-64438000D01*
X115567637Y-64438000D01*
X115569855Y-64424000D01*
X114625012Y-64424000D01*
X114657925Y-64366993D01*
X114692000Y-64239826D01*
X114692000Y-64108174D01*
X114657925Y-63981007D01*
X114625012Y-63924000D01*
X115569855Y-63924000D01*
X115557526Y-63846164D01*
X115557526Y-63846161D01*
X115489432Y-63636589D01*
X115389386Y-63440239D01*
X115259857Y-63261958D01*
X115104041Y-63106142D01*
X114925760Y-62976613D01*
X114729410Y-62876567D01*
X114519835Y-62808473D01*
X114302181Y-62774000D01*
X113942000Y-62774000D01*
X113942000Y-63674000D01*
X113442000Y-63674000D01*
X113442000Y-62774000D01*
X113081819Y-62774000D01*
X112864164Y-62808473D01*
X112654589Y-62876567D01*
X112458239Y-62976613D01*
X112279958Y-63106142D01*
X112124142Y-63261958D01*
X111994613Y-63440239D01*
X111894567Y-63636589D01*
X111826473Y-63846161D01*
X111826473Y-63846164D01*
X111814145Y-63924000D01*
X112758988Y-63924000D01*
X112726075Y-63981007D01*
X112692000Y-64108174D01*
X112692000Y-64239826D01*
X112726075Y-64366993D01*
X112758988Y-64424000D01*
X111814145Y-64424000D01*
X103886000Y-64424000D01*
X103886000Y-58924000D01*
X111814145Y-58924000D01*
X111826473Y-59001835D01*
X111826473Y-59001838D01*
X111894567Y-59211410D01*
X111994613Y-59407760D01*
X112124142Y-59586041D01*
X112279958Y-59741857D01*
X112458239Y-59871386D01*
X112654589Y-59971432D01*
X112864164Y-60039526D01*
X113081819Y-60074000D01*
X113442000Y-60074000D01*
X113442000Y-59174000D01*
X113942000Y-59174000D01*
X113942000Y-59812624D01*
X113928485Y-59868919D01*
X113894105Y-59936393D01*
X113894103Y-59936396D01*
X113825985Y-60146047D01*
X113798044Y-60322459D01*
X113791500Y-60363778D01*
X113791500Y-60584222D01*
X113806399Y-60678288D01*
X113825985Y-60801952D01*
X113894103Y-61011603D01*
X113894104Y-61011606D01*
X113994187Y-61208025D01*
X114123752Y-61386358D01*
X114123756Y-61386363D01*
X114279636Y-61542243D01*
X114279641Y-61542247D01*
X114326787Y-61576500D01*
X114457978Y-61671815D01*
X114586375Y-61737237D01*
X114654393Y-61771895D01*
X114654396Y-61771896D01*
X114697482Y-61785895D01*
X114864049Y-61840015D01*
X115081778Y-61874500D01*
X115081779Y-61874500D01*
X116302221Y-61874500D01*
X116302222Y-61874500D01*
X116519951Y-61840015D01*
X116729606Y-61771895D01*
X116926022Y-61671815D01*
X117104365Y-61542242D01*
X117260242Y-61386365D01*
X117389815Y-61208022D01*
X117489895Y-61011606D01*
X117558015Y-60801951D01*
X117592500Y-60584222D01*
X117592500Y-60363778D01*
X117558015Y-60146049D01*
X117501301Y-59971498D01*
X117489896Y-59936396D01*
X117489895Y-59936393D01*
X117455237Y-59868375D01*
X117389815Y-59739978D01*
X117347447Y-59681663D01*
X117260247Y-59561641D01*
X117260243Y-59561636D01*
X117104363Y-59405756D01*
X117104358Y-59405752D01*
X116926025Y-59276187D01*
X116926024Y-59276186D01*
X116926022Y-59276185D01*
X116863096Y-59244122D01*
X116729606Y-59176104D01*
X116729603Y-59176103D01*
X116519952Y-59107985D01*
X116390614Y-59087500D01*
X116302222Y-59073500D01*
X115691362Y-59073500D01*
X115624323Y-59053815D01*
X115578568Y-59001011D01*
X115569508Y-58938000D01*
X131726145Y-58938000D01*
X131738473Y-59015835D01*
X131738473Y-59015838D01*
X131806567Y-59225410D01*
X131906613Y-59421760D01*
X132036142Y-59600041D01*
X132191958Y-59755857D01*
X132370239Y-59885386D01*
X132566589Y-59985432D01*
X132776164Y-60053526D01*
X132993819Y-60088000D01*
X133354000Y-60088000D01*
X133354000Y-59188000D01*
X133854000Y-59188000D01*
X133854000Y-59826624D01*
X133840485Y-59882919D01*
X133806105Y-59950393D01*
X133806103Y-59950396D01*
X133737985Y-60160047D01*
X133703500Y-60377778D01*
X133703500Y-60598221D01*
X133737985Y-60815952D01*
X133806103Y-61025603D01*
X133806104Y-61025606D01*
X133867110Y-61145334D01*
X133905663Y-61220998D01*
X133906187Y-61222025D01*
X134035752Y-61400358D01*
X134035756Y-61400363D01*
X134191636Y-61556243D01*
X134191641Y-61556247D01*
X134347192Y-61669260D01*
X134369978Y-61685815D01*
X134498375Y-61751237D01*
X134566393Y-61785895D01*
X134566396Y-61785896D01*
X134671221Y-61819955D01*
X134776049Y-61854015D01*
X134993778Y-61888500D01*
X134993779Y-61888500D01*
X136214221Y-61888500D01*
X136214222Y-61888500D01*
X136431951Y-61854015D01*
X136641606Y-61785895D01*
X136838022Y-61685815D01*
X137016365Y-61556242D01*
X137172242Y-61400365D01*
X137301815Y-61222022D01*
X137401895Y-61025606D01*
X137470015Y-60815951D01*
X137504500Y-60598222D01*
X137504500Y-60377778D01*
X137470015Y-60160049D01*
X137430855Y-60039526D01*
X137401896Y-59950396D01*
X137401895Y-59950393D01*
X137350020Y-59848585D01*
X137301815Y-59753978D01*
X137249278Y-59681666D01*
X137172247Y-59575641D01*
X137172243Y-59575636D01*
X137016363Y-59419756D01*
X137016358Y-59419752D01*
X136838025Y-59290187D01*
X136838024Y-59290186D01*
X136838022Y-59290185D01*
X136760137Y-59250500D01*
X136641606Y-59190104D01*
X136641603Y-59190103D01*
X136431952Y-59121985D01*
X136323086Y-59104742D01*
X136214222Y-59087500D01*
X135603362Y-59087500D01*
X135536323Y-59067815D01*
X135490568Y-59015011D01*
X135480624Y-58945853D01*
X135480889Y-58944102D01*
X135481855Y-58938000D01*
X151438145Y-58938000D01*
X151450473Y-59015835D01*
X151450473Y-59015838D01*
X151518567Y-59225410D01*
X151618613Y-59421760D01*
X151748142Y-59600041D01*
X151903958Y-59755857D01*
X152082239Y-59885386D01*
X152278589Y-59985432D01*
X152488164Y-60053526D01*
X152705819Y-60088000D01*
X153066000Y-60088000D01*
X153066000Y-59188000D01*
X153566000Y-59188000D01*
X153566000Y-59826624D01*
X153552485Y-59882919D01*
X153518105Y-59950393D01*
X153518103Y-59950396D01*
X153449985Y-60160047D01*
X153415500Y-60377778D01*
X153415500Y-60598221D01*
X153449985Y-60815952D01*
X153518103Y-61025603D01*
X153518104Y-61025606D01*
X153579110Y-61145334D01*
X153617663Y-61220998D01*
X153618187Y-61222025D01*
X153747752Y-61400358D01*
X153747756Y-61400363D01*
X153903636Y-61556243D01*
X153903641Y-61556247D01*
X154059192Y-61669260D01*
X154081978Y-61685815D01*
X154210375Y-61751237D01*
X154278393Y-61785895D01*
X154278396Y-61785896D01*
X154383221Y-61819955D01*
X154488049Y-61854015D01*
X154705778Y-61888500D01*
X154705779Y-61888500D01*
X155926221Y-61888500D01*
X155926222Y-61888500D01*
X156143951Y-61854015D01*
X156353606Y-61785895D01*
X156550022Y-61685815D01*
X156728365Y-61556242D01*
X156884242Y-61400365D01*
X157013815Y-61222022D01*
X157113895Y-61025606D01*
X157182015Y-60815951D01*
X157216500Y-60598222D01*
X157216500Y-60377778D01*
X157182015Y-60160049D01*
X157142855Y-60039526D01*
X157113896Y-59950396D01*
X157113895Y-59950393D01*
X157062020Y-59848585D01*
X157013815Y-59753978D01*
X156961278Y-59681666D01*
X156884247Y-59575641D01*
X156884243Y-59575636D01*
X156728363Y-59419756D01*
X156728358Y-59419752D01*
X156550025Y-59290187D01*
X156550024Y-59290186D01*
X156550022Y-59290185D01*
X156472137Y-59250500D01*
X156353606Y-59190104D01*
X156353603Y-59190103D01*
X156143952Y-59121985D01*
X156035086Y-59104742D01*
X155926222Y-59087500D01*
X155315362Y-59087500D01*
X155248323Y-59067815D01*
X155202568Y-59015011D01*
X155192624Y-58945853D01*
X155192889Y-58944102D01*
X155193855Y-58938000D01*
X171223145Y-58938000D01*
X171235473Y-59015835D01*
X171235473Y-59015838D01*
X171303567Y-59225410D01*
X171403613Y-59421760D01*
X171533142Y-59600041D01*
X171688958Y-59755857D01*
X171867239Y-59885386D01*
X172063589Y-59985432D01*
X172273164Y-60053526D01*
X172490819Y-60088000D01*
X172851000Y-60088000D01*
X172851000Y-59188000D01*
X173351000Y-59188000D01*
X173351000Y-59826624D01*
X173337485Y-59882919D01*
X173303105Y-59950393D01*
X173303103Y-59950396D01*
X173234985Y-60160047D01*
X173200500Y-60377778D01*
X173200500Y-60598221D01*
X173234985Y-60815952D01*
X173303103Y-61025603D01*
X173303104Y-61025606D01*
X173364110Y-61145334D01*
X173402663Y-61220998D01*
X173403187Y-61222025D01*
X173532752Y-61400358D01*
X173532756Y-61400363D01*
X173688636Y-61556243D01*
X173688641Y-61556247D01*
X173844192Y-61669260D01*
X173866978Y-61685815D01*
X173995375Y-61751237D01*
X174063393Y-61785895D01*
X174063396Y-61785896D01*
X174168221Y-61819955D01*
X174273049Y-61854015D01*
X174490778Y-61888500D01*
X174490779Y-61888500D01*
X175711221Y-61888500D01*
X175711222Y-61888500D01*
X175928951Y-61854015D01*
X176138606Y-61785895D01*
X176335022Y-61685815D01*
X176513365Y-61556242D01*
X176669242Y-61400365D01*
X176798815Y-61222022D01*
X176898895Y-61025606D01*
X176947504Y-60876001D01*
X181283500Y-60876001D01*
X181283501Y-60876019D01*
X181294000Y-60978796D01*
X181294001Y-60978799D01*
X181309511Y-61025603D01*
X181349186Y-61145334D01*
X181441288Y-61294656D01*
X181565344Y-61418712D01*
X181714666Y-61510814D01*
X181881203Y-61565999D01*
X181983991Y-61576500D01*
X184284008Y-61576499D01*
X184386797Y-61565999D01*
X184553334Y-61510814D01*
X184702656Y-61418712D01*
X184826712Y-61294656D01*
X184826716Y-61294649D01*
X184831190Y-61288992D01*
X184832879Y-61290327D01*
X184876977Y-61250673D01*
X184930556Y-61238500D01*
X193190976Y-61238500D01*
X193258015Y-61258185D01*
X193291294Y-61289615D01*
X193294957Y-61294657D01*
X193371754Y-61400361D01*
X193527636Y-61556243D01*
X193527641Y-61556247D01*
X193683192Y-61669260D01*
X193705978Y-61685815D01*
X193834375Y-61751237D01*
X193902393Y-61785895D01*
X193902396Y-61785896D01*
X194007221Y-61819955D01*
X194112049Y-61854015D01*
X194329778Y-61888500D01*
X194329779Y-61888500D01*
X195550221Y-61888500D01*
X195550222Y-61888500D01*
X195767951Y-61854015D01*
X195977606Y-61785895D01*
X196174022Y-61685815D01*
X196352365Y-61556242D01*
X196508242Y-61400365D01*
X196637815Y-61222022D01*
X196737895Y-61025606D01*
X196806015Y-60815951D01*
X196840500Y-60598222D01*
X196840500Y-60377778D01*
X196806015Y-60160049D01*
X196766855Y-60039526D01*
X196737896Y-59950396D01*
X196737895Y-59950393D01*
X196686020Y-59848585D01*
X196637815Y-59753978D01*
X196585278Y-59681666D01*
X196508247Y-59575641D01*
X196508243Y-59575636D01*
X196352363Y-59419756D01*
X196352358Y-59419752D01*
X196174025Y-59290187D01*
X196174024Y-59290186D01*
X196174022Y-59290185D01*
X196096137Y-59250500D01*
X195977606Y-59190104D01*
X195977603Y-59190103D01*
X195767952Y-59121985D01*
X195659086Y-59104742D01*
X195550222Y-59087500D01*
X194939362Y-59087500D01*
X194872323Y-59067815D01*
X194826568Y-59015011D01*
X194816624Y-58945853D01*
X194816889Y-58944102D01*
X194817855Y-58938000D01*
X193873012Y-58938000D01*
X193905925Y-58880993D01*
X193940000Y-58753826D01*
X193940000Y-58622174D01*
X193905925Y-58495007D01*
X193873012Y-58438000D01*
X194817855Y-58438000D01*
X194805526Y-58360164D01*
X194805526Y-58360161D01*
X194737432Y-58150589D01*
X194637386Y-57954239D01*
X194507857Y-57775958D01*
X194352041Y-57620142D01*
X194173760Y-57490613D01*
X193977410Y-57390567D01*
X193767835Y-57322473D01*
X193550181Y-57288000D01*
X193190000Y-57288000D01*
X193190000Y-58188000D01*
X192690000Y-58188000D01*
X192690000Y-57288000D01*
X192329819Y-57288000D01*
X192112164Y-57322473D01*
X191902589Y-57390567D01*
X191706239Y-57490613D01*
X191527958Y-57620142D01*
X191372142Y-57775958D01*
X191242613Y-57954239D01*
X191142567Y-58150589D01*
X191074473Y-58360161D01*
X191074473Y-58360164D01*
X191062145Y-58438000D01*
X192006988Y-58438000D01*
X191974075Y-58495007D01*
X191940000Y-58622174D01*
X191940000Y-58753826D01*
X191974075Y-58880993D01*
X192006988Y-58938000D01*
X191062145Y-58938000D01*
X191074473Y-59015835D01*
X191074473Y-59015838D01*
X191142567Y-59225410D01*
X191242613Y-59421760D01*
X191328966Y-59540614D01*
X191352446Y-59606421D01*
X191336621Y-59674475D01*
X191286515Y-59723170D01*
X191228648Y-59737500D01*
X185022460Y-59737500D01*
X184955421Y-59717815D01*
X184916921Y-59678597D01*
X184914379Y-59674475D01*
X184826712Y-59532344D01*
X184702656Y-59408288D01*
X184553334Y-59316186D01*
X184386797Y-59261001D01*
X184386795Y-59261000D01*
X184284010Y-59250500D01*
X181983998Y-59250500D01*
X181983981Y-59250501D01*
X181881203Y-59261000D01*
X181881200Y-59261001D01*
X181714668Y-59316185D01*
X181714663Y-59316187D01*
X181565342Y-59408289D01*
X181441289Y-59532342D01*
X181349187Y-59681663D01*
X181349186Y-59681666D01*
X181294001Y-59848203D01*
X181294001Y-59848204D01*
X181294000Y-59848204D01*
X181283500Y-59950983D01*
X181283500Y-60876001D01*
X176947504Y-60876001D01*
X176967015Y-60815951D01*
X177001500Y-60598222D01*
X177001500Y-60377778D01*
X176967015Y-60160049D01*
X176927855Y-60039526D01*
X176898896Y-59950396D01*
X176898895Y-59950393D01*
X176847020Y-59848585D01*
X176798815Y-59753978D01*
X176746278Y-59681666D01*
X176669247Y-59575641D01*
X176669243Y-59575636D01*
X176513363Y-59419756D01*
X176513358Y-59419752D01*
X176335025Y-59290187D01*
X176335024Y-59290186D01*
X176335022Y-59290185D01*
X176257137Y-59250500D01*
X176138606Y-59190104D01*
X176138603Y-59190103D01*
X175928952Y-59121985D01*
X175820086Y-59104742D01*
X175711222Y-59087500D01*
X175100362Y-59087500D01*
X175033323Y-59067815D01*
X174987568Y-59015011D01*
X174977624Y-58945853D01*
X174977889Y-58944102D01*
X174978855Y-58938000D01*
X174034012Y-58938000D01*
X174066925Y-58880993D01*
X174101000Y-58753826D01*
X174101000Y-58622174D01*
X174066925Y-58495007D01*
X174034012Y-58438000D01*
X174978855Y-58438000D01*
X174966526Y-58360164D01*
X174966526Y-58360161D01*
X174898432Y-58150589D01*
X174798386Y-57954239D01*
X174668857Y-57775958D01*
X174513041Y-57620142D01*
X174334760Y-57490613D01*
X174138410Y-57390567D01*
X173928835Y-57322473D01*
X173711181Y-57288000D01*
X173351000Y-57288000D01*
X173351000Y-58188000D01*
X172851000Y-58188000D01*
X172851000Y-57288000D01*
X172490819Y-57288000D01*
X172273164Y-57322473D01*
X172063589Y-57390567D01*
X171867239Y-57490613D01*
X171688958Y-57620142D01*
X171533142Y-57775958D01*
X171403613Y-57954239D01*
X171303567Y-58150589D01*
X171235473Y-58360161D01*
X171235473Y-58360164D01*
X171223145Y-58438000D01*
X172167988Y-58438000D01*
X172135075Y-58495007D01*
X172101000Y-58622174D01*
X172101000Y-58753826D01*
X172135075Y-58880993D01*
X172167988Y-58938000D01*
X171223145Y-58938000D01*
X155193855Y-58938000D01*
X154249012Y-58938000D01*
X154281925Y-58880993D01*
X154316000Y-58753826D01*
X154316000Y-58622174D01*
X154281925Y-58495007D01*
X154249012Y-58438000D01*
X155193855Y-58438000D01*
X155181526Y-58360164D01*
X155181526Y-58360161D01*
X155113432Y-58150589D01*
X155013386Y-57954239D01*
X154883857Y-57775958D01*
X154728041Y-57620142D01*
X154549760Y-57490613D01*
X154353410Y-57390567D01*
X154143835Y-57322473D01*
X153926181Y-57288000D01*
X153566000Y-57288000D01*
X153566000Y-58188000D01*
X153066000Y-58188000D01*
X153066000Y-57288000D01*
X152705819Y-57288000D01*
X152488164Y-57322473D01*
X152278589Y-57390567D01*
X152082239Y-57490613D01*
X151903958Y-57620142D01*
X151748142Y-57775958D01*
X151618613Y-57954239D01*
X151518567Y-58150589D01*
X151450473Y-58360161D01*
X151450473Y-58360164D01*
X151438145Y-58438000D01*
X152382988Y-58438000D01*
X152350075Y-58495007D01*
X152316000Y-58622174D01*
X152316000Y-58753826D01*
X152350075Y-58880993D01*
X152382988Y-58938000D01*
X151438145Y-58938000D01*
X135481855Y-58938000D01*
X134537012Y-58938000D01*
X134569925Y-58880993D01*
X134604000Y-58753826D01*
X134604000Y-58622174D01*
X134569925Y-58495007D01*
X134537012Y-58438000D01*
X135481855Y-58438000D01*
X135469526Y-58360164D01*
X135469526Y-58360161D01*
X135401432Y-58150589D01*
X135301386Y-57954239D01*
X135171857Y-57775958D01*
X135016041Y-57620142D01*
X134837760Y-57490613D01*
X134641410Y-57390567D01*
X134431835Y-57322473D01*
X134214181Y-57288000D01*
X133854000Y-57288000D01*
X133854000Y-58188000D01*
X133354000Y-58188000D01*
X133354000Y-57288000D01*
X132993819Y-57288000D01*
X132776164Y-57322473D01*
X132566589Y-57390567D01*
X132370239Y-57490613D01*
X132191958Y-57620142D01*
X132036142Y-57775958D01*
X131906613Y-57954239D01*
X131806567Y-58150589D01*
X131738473Y-58360161D01*
X131738473Y-58360164D01*
X131726145Y-58438000D01*
X132670988Y-58438000D01*
X132638075Y-58495007D01*
X132604000Y-58622174D01*
X132604000Y-58753826D01*
X132638075Y-58880993D01*
X132670988Y-58938000D01*
X131726145Y-58938000D01*
X115569508Y-58938000D01*
X115568624Y-58931853D01*
X115568889Y-58930102D01*
X115569855Y-58924000D01*
X114625012Y-58924000D01*
X114657925Y-58866993D01*
X114692000Y-58739826D01*
X114692000Y-58608174D01*
X114657925Y-58481007D01*
X114625012Y-58424000D01*
X115569855Y-58424000D01*
X115557526Y-58346164D01*
X115557526Y-58346161D01*
X115489432Y-58136589D01*
X115389386Y-57940239D01*
X115259857Y-57761958D01*
X115104041Y-57606142D01*
X114925760Y-57476613D01*
X114729410Y-57376567D01*
X114519835Y-57308473D01*
X114302181Y-57274000D01*
X113942000Y-57274000D01*
X113942000Y-58174000D01*
X113442000Y-58174000D01*
X113442000Y-57274000D01*
X113081819Y-57274000D01*
X112864164Y-57308473D01*
X112654589Y-57376567D01*
X112458239Y-57476613D01*
X112279958Y-57606142D01*
X112124142Y-57761958D01*
X111994613Y-57940239D01*
X111894567Y-58136589D01*
X111826473Y-58346161D01*
X111826473Y-58346164D01*
X111814145Y-58424000D01*
X112758988Y-58424000D01*
X112726075Y-58481007D01*
X112692000Y-58608174D01*
X112692000Y-58739826D01*
X112726075Y-58866993D01*
X112758988Y-58924000D01*
X111814145Y-58924000D01*
X103886000Y-58924000D01*
X103886000Y-52824000D01*
X111814145Y-52824000D01*
X111826473Y-52901835D01*
X111826473Y-52901838D01*
X111894567Y-53111410D01*
X111994613Y-53307760D01*
X112124142Y-53486041D01*
X112279958Y-53641857D01*
X112458239Y-53771386D01*
X112654589Y-53871432D01*
X112864164Y-53939526D01*
X113081819Y-53974000D01*
X113442000Y-53974000D01*
X113442000Y-53074000D01*
X113942000Y-53074000D01*
X113942000Y-53974000D01*
X113944065Y-53974000D01*
X114011104Y-53993685D01*
X114056859Y-54046489D01*
X114066803Y-54115647D01*
X114044383Y-54170885D01*
X113994187Y-54239974D01*
X113894104Y-54436393D01*
X113894103Y-54436396D01*
X113825985Y-54646047D01*
X113791500Y-54863778D01*
X113791500Y-55084222D01*
X113808742Y-55193086D01*
X113825985Y-55301952D01*
X113894103Y-55511603D01*
X113894104Y-55511606D01*
X113994187Y-55708025D01*
X114123752Y-55886358D01*
X114123756Y-55886363D01*
X114279636Y-56042243D01*
X114279641Y-56042247D01*
X114298911Y-56056247D01*
X114457978Y-56171815D01*
X114586375Y-56237237D01*
X114654393Y-56271895D01*
X114654396Y-56271896D01*
X114697482Y-56285895D01*
X114864049Y-56340015D01*
X115081778Y-56374500D01*
X115081779Y-56374500D01*
X116302221Y-56374500D01*
X116302222Y-56374500D01*
X116519951Y-56340015D01*
X116729606Y-56271895D01*
X116926022Y-56171815D01*
X117104365Y-56042242D01*
X117260242Y-55886365D01*
X117389815Y-55708022D01*
X117489895Y-55511606D01*
X117558015Y-55301951D01*
X117592500Y-55084222D01*
X117592500Y-54863778D01*
X117558015Y-54646049D01*
X117523955Y-54541221D01*
X117489896Y-54436396D01*
X117489895Y-54436393D01*
X117396946Y-54253974D01*
X117389815Y-54239978D01*
X117339616Y-54170885D01*
X117260247Y-54061641D01*
X117260243Y-54061636D01*
X117104363Y-53905756D01*
X117104358Y-53905752D01*
X116926025Y-53776187D01*
X116926024Y-53776186D01*
X116926022Y-53776185D01*
X116863096Y-53744122D01*
X116729606Y-53676104D01*
X116729603Y-53676103D01*
X116519952Y-53607985D01*
X116390614Y-53587500D01*
X116302222Y-53573500D01*
X115439679Y-53573500D01*
X115372640Y-53553815D01*
X115326885Y-53501011D01*
X115316941Y-53431853D01*
X115339361Y-53376614D01*
X115389386Y-53307760D01*
X115489432Y-53111410D01*
X115557526Y-52901838D01*
X115557526Y-52901835D01*
X115567637Y-52838000D01*
X131726145Y-52838000D01*
X131738473Y-52915835D01*
X131738473Y-52915838D01*
X131806567Y-53125410D01*
X131906613Y-53321760D01*
X132036142Y-53500041D01*
X132191958Y-53655857D01*
X132370239Y-53785386D01*
X132566589Y-53885432D01*
X132776164Y-53953526D01*
X132993819Y-53988000D01*
X133354000Y-53988000D01*
X133354000Y-53088000D01*
X133854000Y-53088000D01*
X133854000Y-53988000D01*
X133856065Y-53988000D01*
X133923104Y-54007685D01*
X133968859Y-54060489D01*
X133978803Y-54129647D01*
X133956383Y-54184885D01*
X133906187Y-54253974D01*
X133806104Y-54450393D01*
X133806103Y-54450396D01*
X133737985Y-54660047D01*
X133703500Y-54877778D01*
X133703500Y-55098221D01*
X133737985Y-55315952D01*
X133806103Y-55525603D01*
X133806104Y-55525606D01*
X133873249Y-55657382D01*
X133905708Y-55721086D01*
X133906187Y-55722025D01*
X134035752Y-55900358D01*
X134035756Y-55900363D01*
X134191636Y-56056243D01*
X134191641Y-56056247D01*
X134347192Y-56169260D01*
X134369978Y-56185815D01*
X134498375Y-56251237D01*
X134566393Y-56285895D01*
X134566396Y-56285896D01*
X134671221Y-56319955D01*
X134776049Y-56354015D01*
X134993778Y-56388500D01*
X134993779Y-56388500D01*
X136214221Y-56388500D01*
X136214222Y-56388500D01*
X136431951Y-56354015D01*
X136641606Y-56285895D01*
X136838022Y-56185815D01*
X137016365Y-56056242D01*
X137172242Y-55900365D01*
X137301815Y-55722022D01*
X137401895Y-55525606D01*
X137470015Y-55315951D01*
X137504500Y-55098222D01*
X137504500Y-54877778D01*
X137470015Y-54660049D01*
X137401895Y-54450394D01*
X137401895Y-54450393D01*
X137367237Y-54382375D01*
X137301815Y-54253978D01*
X137211484Y-54129647D01*
X137172247Y-54075641D01*
X137172243Y-54075636D01*
X137016363Y-53919756D01*
X137016358Y-53919752D01*
X136838025Y-53790187D01*
X136838024Y-53790186D01*
X136838022Y-53790185D01*
X136775096Y-53758122D01*
X136641606Y-53690104D01*
X136641603Y-53690103D01*
X136431952Y-53621985D01*
X136323086Y-53604742D01*
X136214222Y-53587500D01*
X135351679Y-53587500D01*
X135284640Y-53567815D01*
X135238885Y-53515011D01*
X135228941Y-53445853D01*
X135251361Y-53390614D01*
X135301386Y-53321760D01*
X135401432Y-53125410D01*
X135469526Y-52915838D01*
X135469526Y-52915835D01*
X135481855Y-52838000D01*
X151438145Y-52838000D01*
X151450473Y-52915835D01*
X151450473Y-52915838D01*
X151518567Y-53125410D01*
X151618613Y-53321760D01*
X151748142Y-53500041D01*
X151903958Y-53655857D01*
X152082239Y-53785386D01*
X152278589Y-53885432D01*
X152488164Y-53953526D01*
X152705819Y-53988000D01*
X153066000Y-53988000D01*
X153066000Y-53088000D01*
X153566000Y-53088000D01*
X153566000Y-53988000D01*
X153568065Y-53988000D01*
X153635104Y-54007685D01*
X153680859Y-54060489D01*
X153690803Y-54129647D01*
X153668383Y-54184885D01*
X153618187Y-54253974D01*
X153518104Y-54450393D01*
X153518103Y-54450396D01*
X153449985Y-54660047D01*
X153415500Y-54877778D01*
X153415500Y-55098221D01*
X153449985Y-55315952D01*
X153518103Y-55525603D01*
X153518104Y-55525606D01*
X153585249Y-55657382D01*
X153617708Y-55721086D01*
X153618187Y-55722025D01*
X153747752Y-55900358D01*
X153747756Y-55900363D01*
X153903636Y-56056243D01*
X153903641Y-56056247D01*
X154059192Y-56169260D01*
X154081978Y-56185815D01*
X154210375Y-56251237D01*
X154278393Y-56285895D01*
X154278396Y-56285896D01*
X154383221Y-56319955D01*
X154488049Y-56354015D01*
X154705778Y-56388500D01*
X154705779Y-56388500D01*
X155926221Y-56388500D01*
X155926222Y-56388500D01*
X156143951Y-56354015D01*
X156353606Y-56285895D01*
X156550022Y-56185815D01*
X156728365Y-56056242D01*
X156884242Y-55900365D01*
X157013815Y-55722022D01*
X157113895Y-55525606D01*
X157182015Y-55315951D01*
X157216500Y-55098222D01*
X157216500Y-54877778D01*
X157182015Y-54660049D01*
X157113895Y-54450394D01*
X157113895Y-54450393D01*
X157079237Y-54382375D01*
X157013815Y-54253978D01*
X156923484Y-54129647D01*
X156884247Y-54075641D01*
X156884243Y-54075636D01*
X156728363Y-53919756D01*
X156728358Y-53919752D01*
X156550025Y-53790187D01*
X156550024Y-53790186D01*
X156550022Y-53790185D01*
X156487096Y-53758122D01*
X156353606Y-53690104D01*
X156353603Y-53690103D01*
X156143952Y-53621985D01*
X156035086Y-53604742D01*
X155926222Y-53587500D01*
X155063679Y-53587500D01*
X154996640Y-53567815D01*
X154950885Y-53515011D01*
X154940941Y-53445853D01*
X154963361Y-53390614D01*
X155013386Y-53321760D01*
X155113432Y-53125410D01*
X155181526Y-52915838D01*
X155181526Y-52915835D01*
X155193855Y-52838000D01*
X171223145Y-52838000D01*
X171235473Y-52915835D01*
X171235473Y-52915838D01*
X171303567Y-53125410D01*
X171403613Y-53321760D01*
X171533142Y-53500041D01*
X171688958Y-53655857D01*
X171867239Y-53785386D01*
X172063589Y-53885432D01*
X172273164Y-53953526D01*
X172490819Y-53988000D01*
X172851000Y-53988000D01*
X172851000Y-53088000D01*
X173351000Y-53088000D01*
X173351000Y-53988000D01*
X173353065Y-53988000D01*
X173420104Y-54007685D01*
X173465859Y-54060489D01*
X173475803Y-54129647D01*
X173453383Y-54184885D01*
X173403187Y-54253974D01*
X173303104Y-54450393D01*
X173303103Y-54450396D01*
X173234985Y-54660047D01*
X173200500Y-54877778D01*
X173200500Y-55098221D01*
X173234985Y-55315952D01*
X173303103Y-55525603D01*
X173303104Y-55525606D01*
X173370249Y-55657382D01*
X173402708Y-55721086D01*
X173403187Y-55722025D01*
X173532752Y-55900358D01*
X173532756Y-55900363D01*
X173688636Y-56056243D01*
X173688641Y-56056247D01*
X173844192Y-56169260D01*
X173866978Y-56185815D01*
X173995375Y-56251237D01*
X174063393Y-56285895D01*
X174063396Y-56285896D01*
X174168221Y-56319955D01*
X174273049Y-56354015D01*
X174490778Y-56388500D01*
X174490779Y-56388500D01*
X175711221Y-56388500D01*
X175711222Y-56388500D01*
X175928951Y-56354015D01*
X176138606Y-56285895D01*
X176335022Y-56185815D01*
X176513365Y-56056242D01*
X176669242Y-55900365D01*
X176798815Y-55722022D01*
X176898895Y-55525606D01*
X176967015Y-55315951D01*
X177001500Y-55098222D01*
X177001500Y-54877778D01*
X176967015Y-54660049D01*
X176898895Y-54450394D01*
X176898895Y-54450393D01*
X176864237Y-54382375D01*
X176798815Y-54253978D01*
X176708484Y-54129647D01*
X176669247Y-54075641D01*
X176669243Y-54075636D01*
X176513363Y-53919756D01*
X176513358Y-53919752D01*
X176335025Y-53790187D01*
X176335024Y-53790186D01*
X176335022Y-53790185D01*
X176272096Y-53758122D01*
X176138606Y-53690104D01*
X176138603Y-53690103D01*
X175928952Y-53621985D01*
X175820086Y-53604742D01*
X175711222Y-53587500D01*
X174848679Y-53587500D01*
X174781640Y-53567815D01*
X174735885Y-53515011D01*
X174725941Y-53445853D01*
X174748361Y-53390614D01*
X174798386Y-53321760D01*
X174898432Y-53125410D01*
X174966526Y-52915838D01*
X174966526Y-52915835D01*
X174978855Y-52838000D01*
X191062145Y-52838000D01*
X191074473Y-52915835D01*
X191074473Y-52915838D01*
X191142567Y-53125410D01*
X191242613Y-53321760D01*
X191372142Y-53500041D01*
X191527958Y-53655857D01*
X191706239Y-53785386D01*
X191902589Y-53885432D01*
X192112164Y-53953526D01*
X192329819Y-53988000D01*
X192690000Y-53988000D01*
X192690000Y-53088000D01*
X193190000Y-53088000D01*
X193190000Y-53988000D01*
X193192065Y-53988000D01*
X193259104Y-54007685D01*
X193304859Y-54060489D01*
X193314803Y-54129647D01*
X193292383Y-54184885D01*
X193242187Y-54253974D01*
X193142104Y-54450393D01*
X193142103Y-54450396D01*
X193073985Y-54660047D01*
X193039500Y-54877778D01*
X193039500Y-55098221D01*
X193073985Y-55315952D01*
X193142103Y-55525603D01*
X193142104Y-55525606D01*
X193209249Y-55657382D01*
X193241708Y-55721086D01*
X193242187Y-55722025D01*
X193371752Y-55900358D01*
X193371756Y-55900363D01*
X193527636Y-56056243D01*
X193527641Y-56056247D01*
X193683192Y-56169260D01*
X193705978Y-56185815D01*
X193834375Y-56251237D01*
X193902393Y-56285895D01*
X193902396Y-56285896D01*
X194007221Y-56319955D01*
X194112049Y-56354015D01*
X194329778Y-56388500D01*
X195227770Y-56388500D01*
X195294809Y-56408185D01*
X195315451Y-56424819D01*
X197328632Y-58438000D01*
X199213092Y-60322459D01*
X199246577Y-60383782D01*
X199241593Y-60453474D01*
X199199721Y-60509407D01*
X199159275Y-60527800D01*
X199159630Y-60528871D01*
X198986668Y-60586185D01*
X198986663Y-60586187D01*
X198837342Y-60678289D01*
X198713289Y-60802342D01*
X198621187Y-60951663D01*
X198621185Y-60951668D01*
X198612195Y-60978799D01*
X198566001Y-61118203D01*
X198566001Y-61118204D01*
X198566000Y-61118204D01*
X198555500Y-61220983D01*
X198555500Y-62146001D01*
X198555501Y-62146019D01*
X198566000Y-62248796D01*
X198566001Y-62248799D01*
X198621185Y-62415331D01*
X198621187Y-62415336D01*
X198637132Y-62441187D01*
X198713288Y-62564656D01*
X198837344Y-62688712D01*
X198986666Y-62780814D01*
X199153203Y-62835999D01*
X199255991Y-62846500D01*
X201556008Y-62846499D01*
X201658797Y-62835999D01*
X201825334Y-62780814D01*
X201974656Y-62688712D01*
X202098712Y-62564656D01*
X202190814Y-62415334D01*
X202245999Y-62248797D01*
X202256500Y-62146009D01*
X202256499Y-61220992D01*
X202255174Y-61208025D01*
X202245999Y-61118203D01*
X202245998Y-61118200D01*
X202210675Y-61011603D01*
X202190814Y-60951666D01*
X202098712Y-60802344D01*
X201974656Y-60678288D01*
X201825334Y-60586186D01*
X201658797Y-60531001D01*
X201658795Y-60531000D01*
X201556016Y-60520500D01*
X201556009Y-60520500D01*
X201153500Y-60520500D01*
X201086461Y-60500815D01*
X201040706Y-60448011D01*
X201029500Y-60396500D01*
X201029500Y-60253079D01*
X201000659Y-60108092D01*
X201000658Y-60108091D01*
X201000658Y-60108087D01*
X200949853Y-59985432D01*
X200944087Y-59971511D01*
X200944080Y-59971498D01*
X200861952Y-59848585D01*
X200825991Y-59812624D01*
X200757416Y-59744049D01*
X196734454Y-55721086D01*
X196700969Y-55659763D01*
X196705953Y-55590071D01*
X196711644Y-55577124D01*
X196737895Y-55525606D01*
X196806015Y-55315951D01*
X196840500Y-55098222D01*
X196840500Y-54877778D01*
X196806015Y-54660049D01*
X196737895Y-54450394D01*
X196737895Y-54450393D01*
X196703237Y-54382375D01*
X196637815Y-54253978D01*
X196547484Y-54129647D01*
X196508247Y-54075641D01*
X196508243Y-54075636D01*
X196352363Y-53919756D01*
X196352358Y-53919752D01*
X196174025Y-53790187D01*
X196174024Y-53790186D01*
X196174022Y-53790185D01*
X196111096Y-53758122D01*
X195977606Y-53690104D01*
X195977603Y-53690103D01*
X195767952Y-53621985D01*
X195659086Y-53604742D01*
X195550222Y-53587500D01*
X194687679Y-53587500D01*
X194620640Y-53567815D01*
X194574885Y-53515011D01*
X194564941Y-53445853D01*
X194587361Y-53390614D01*
X194637386Y-53321760D01*
X194737432Y-53125410D01*
X194805526Y-52915838D01*
X194805526Y-52915835D01*
X194817855Y-52838000D01*
X193873012Y-52838000D01*
X193905925Y-52780993D01*
X193940000Y-52653826D01*
X193940000Y-52522174D01*
X193905925Y-52395007D01*
X193873012Y-52338000D01*
X194817855Y-52338000D01*
X194805526Y-52260164D01*
X194805526Y-52260161D01*
X194737432Y-52050589D01*
X194637386Y-51854239D01*
X194507857Y-51675958D01*
X194352041Y-51520142D01*
X194173760Y-51390613D01*
X193977410Y-51290567D01*
X193767835Y-51222473D01*
X193550181Y-51188000D01*
X193190000Y-51188000D01*
X193190000Y-52088000D01*
X192690000Y-52088000D01*
X192690000Y-51188000D01*
X192329819Y-51188000D01*
X192112164Y-51222473D01*
X191902589Y-51290567D01*
X191706239Y-51390613D01*
X191527958Y-51520142D01*
X191372142Y-51675958D01*
X191242613Y-51854239D01*
X191142567Y-52050589D01*
X191074473Y-52260161D01*
X191074473Y-52260164D01*
X191062145Y-52338000D01*
X192006988Y-52338000D01*
X191974075Y-52395007D01*
X191940000Y-52522174D01*
X191940000Y-52653826D01*
X191974075Y-52780993D01*
X192006988Y-52838000D01*
X191062145Y-52838000D01*
X174978855Y-52838000D01*
X174034012Y-52838000D01*
X174066925Y-52780993D01*
X174101000Y-52653826D01*
X174101000Y-52522174D01*
X174066925Y-52395007D01*
X174034012Y-52338000D01*
X174978855Y-52338000D01*
X174966526Y-52260164D01*
X174966526Y-52260161D01*
X174898432Y-52050589D01*
X174798386Y-51854239D01*
X174668857Y-51675958D01*
X174513041Y-51520142D01*
X174334760Y-51390613D01*
X174138410Y-51290567D01*
X173928835Y-51222473D01*
X173711181Y-51188000D01*
X173351000Y-51188000D01*
X173351000Y-52088000D01*
X172851000Y-52088000D01*
X172851000Y-51188000D01*
X172490819Y-51188000D01*
X172273164Y-51222473D01*
X172063589Y-51290567D01*
X171867239Y-51390613D01*
X171688958Y-51520142D01*
X171533142Y-51675958D01*
X171403613Y-51854239D01*
X171303567Y-52050589D01*
X171235473Y-52260161D01*
X171235473Y-52260164D01*
X171223145Y-52338000D01*
X172167988Y-52338000D01*
X172135075Y-52395007D01*
X172101000Y-52522174D01*
X172101000Y-52653826D01*
X172135075Y-52780993D01*
X172167988Y-52838000D01*
X171223145Y-52838000D01*
X155193855Y-52838000D01*
X154249012Y-52838000D01*
X154281925Y-52780993D01*
X154316000Y-52653826D01*
X154316000Y-52522174D01*
X154281925Y-52395007D01*
X154249012Y-52338000D01*
X155193855Y-52338000D01*
X155181526Y-52260164D01*
X155181526Y-52260161D01*
X155113432Y-52050589D01*
X155013386Y-51854239D01*
X154883857Y-51675958D01*
X154728041Y-51520142D01*
X154549760Y-51390613D01*
X154353410Y-51290567D01*
X154143835Y-51222473D01*
X153926181Y-51188000D01*
X153566000Y-51188000D01*
X153566000Y-52088000D01*
X153066000Y-52088000D01*
X153066000Y-51188000D01*
X152705819Y-51188000D01*
X152488164Y-51222473D01*
X152278589Y-51290567D01*
X152082239Y-51390613D01*
X151903958Y-51520142D01*
X151748142Y-51675958D01*
X151618613Y-51854239D01*
X151518567Y-52050589D01*
X151450473Y-52260161D01*
X151450473Y-52260164D01*
X151438145Y-52338000D01*
X152382988Y-52338000D01*
X152350075Y-52395007D01*
X152316000Y-52522174D01*
X152316000Y-52653826D01*
X152350075Y-52780993D01*
X152382988Y-52838000D01*
X151438145Y-52838000D01*
X135481855Y-52838000D01*
X134537012Y-52838000D01*
X134569925Y-52780993D01*
X134604000Y-52653826D01*
X134604000Y-52522174D01*
X134569925Y-52395007D01*
X134537012Y-52338000D01*
X135481855Y-52338000D01*
X135469526Y-52260164D01*
X135469526Y-52260161D01*
X135401432Y-52050589D01*
X135301386Y-51854239D01*
X135171857Y-51675958D01*
X135016041Y-51520142D01*
X134837760Y-51390613D01*
X134641410Y-51290567D01*
X134431835Y-51222473D01*
X134214181Y-51188000D01*
X133854000Y-51188000D01*
X133854000Y-52088000D01*
X133354000Y-52088000D01*
X133354000Y-51188000D01*
X132993819Y-51188000D01*
X132776164Y-51222473D01*
X132566589Y-51290567D01*
X132370239Y-51390613D01*
X132191958Y-51520142D01*
X132036142Y-51675958D01*
X131906613Y-51854239D01*
X131806567Y-52050589D01*
X131738473Y-52260161D01*
X131738473Y-52260164D01*
X131726145Y-52338000D01*
X132670988Y-52338000D01*
X132638075Y-52395007D01*
X132604000Y-52522174D01*
X132604000Y-52653826D01*
X132638075Y-52780993D01*
X132670988Y-52838000D01*
X131726145Y-52838000D01*
X115567637Y-52838000D01*
X115569855Y-52824000D01*
X114625012Y-52824000D01*
X114657925Y-52766993D01*
X114692000Y-52639826D01*
X114692000Y-52508174D01*
X114657925Y-52381007D01*
X114625012Y-52324000D01*
X115569855Y-52324000D01*
X115557526Y-52246164D01*
X115557526Y-52246161D01*
X115489432Y-52036589D01*
X115389386Y-51840239D01*
X115259857Y-51661958D01*
X115104041Y-51506142D01*
X114925760Y-51376613D01*
X114729410Y-51276567D01*
X114519835Y-51208473D01*
X114302181Y-51174000D01*
X113942000Y-51174000D01*
X113942000Y-52074000D01*
X113442000Y-52074000D01*
X113442000Y-51174000D01*
X113081819Y-51174000D01*
X112864164Y-51208473D01*
X112654589Y-51276567D01*
X112458239Y-51376613D01*
X112279958Y-51506142D01*
X112124142Y-51661958D01*
X111994613Y-51840239D01*
X111894567Y-52036589D01*
X111826473Y-52246161D01*
X111826473Y-52246164D01*
X111814145Y-52324000D01*
X112758988Y-52324000D01*
X112726075Y-52381007D01*
X112692000Y-52508174D01*
X112692000Y-52639826D01*
X112726075Y-52766993D01*
X112758988Y-52824000D01*
X111814145Y-52824000D01*
X103886000Y-52824000D01*
X103886000Y-50797000D01*
X103905685Y-50729961D01*
X103958489Y-50684206D01*
X104010000Y-50673000D01*
X202822000Y-50673000D01*
X202889039Y-50692685D01*
G37*
%TD.AperFunction*%
%TD*%
%TA.AperFunction,Conductor*%
%TO.N,Net-(J8-Pin_1)*%
G36*
X185870439Y-83992085D02*
G01*
X185916194Y-84044889D01*
X185927400Y-84096400D01*
X185927400Y-99383500D01*
X185907715Y-99450539D01*
X185854911Y-99496294D01*
X185803400Y-99507500D01*
X185395118Y-99507500D01*
X185314609Y-99513954D01*
X185275614Y-99520245D01*
X185238160Y-99529409D01*
X185199315Y-99538914D01*
X185182454Y-99541825D01*
X185179215Y-99542156D01*
X185166609Y-99542798D01*
X184657398Y-99542798D01*
X184644800Y-99542156D01*
X184641559Y-99541825D01*
X184624687Y-99538914D01*
X184548392Y-99520246D01*
X184509390Y-99513954D01*
X184428881Y-99507500D01*
X184428871Y-99507500D01*
X184020000Y-99507500D01*
X184007251Y-99508870D01*
X183938494Y-99496464D01*
X183887357Y-99448853D01*
X183870000Y-99385581D01*
X183870000Y-84096400D01*
X183889685Y-84029361D01*
X183942489Y-83983606D01*
X183994000Y-83972400D01*
X185803400Y-83972400D01*
X185870439Y-83992085D01*
G37*
%TD.AperFunction*%
%TD*%
%TA.AperFunction,Conductor*%
%TO.N,Net-(U6-NFB)*%
G36*
X193197995Y-97434892D02*
G01*
X193318826Y-97469997D01*
X193318829Y-97469997D01*
X193318831Y-97469998D01*
X193355706Y-97472900D01*
X193355714Y-97472900D01*
X194439400Y-97472900D01*
X194506439Y-97492585D01*
X194552194Y-97545389D01*
X194563400Y-97596900D01*
X194563400Y-99342400D01*
X194543715Y-99409439D01*
X194490911Y-99455194D01*
X194439400Y-99466400D01*
X193163400Y-99466400D01*
X193096361Y-99446715D01*
X193050606Y-99393911D01*
X193039400Y-99342400D01*
X193039400Y-97553968D01*
X193059085Y-97486929D01*
X193111889Y-97441174D01*
X193181047Y-97431230D01*
X193197995Y-97434892D01*
G37*
%TD.AperFunction*%
%TD*%
%TA.AperFunction,Conductor*%
%TO.N,Net-(D1-A)*%
G36*
X191458439Y-88564085D02*
G01*
X191504194Y-88616889D01*
X191515400Y-88668400D01*
X191515400Y-94386400D01*
X187067400Y-94386400D01*
X187000361Y-94366715D01*
X186954606Y-94313911D01*
X186943400Y-94262400D01*
X186943400Y-88762500D01*
X186963085Y-88695461D01*
X187015889Y-88649706D01*
X187067400Y-88638500D01*
X190375390Y-88638500D01*
X190375400Y-88638500D01*
X190482856Y-88626947D01*
X190534367Y-88615741D01*
X190568597Y-88604347D01*
X190636897Y-88581616D01*
X190636901Y-88581613D01*
X190636904Y-88581613D01*
X190664178Y-88564085D01*
X190731218Y-88544400D01*
X191391400Y-88544400D01*
X191458439Y-88564085D01*
G37*
%TD.AperFunction*%
%TD*%
%TA.AperFunction,Conductor*%
%TO.N,Net-(D1-A)*%
G36*
X191515400Y-96294400D02*
G01*
X191495715Y-96361439D01*
X191442911Y-96407194D01*
X191391400Y-96418400D01*
X189099400Y-96418400D01*
X189032361Y-96398715D01*
X188986606Y-96345911D01*
X188975400Y-96294400D01*
X188975400Y-94386400D01*
X191515400Y-94386400D01*
X191515400Y-96294400D01*
G37*
%TD.AperFunction*%
%TD*%
%TA.AperFunction,Conductor*%
%TO.N,Net-(U6-NFB)*%
G36*
X190442439Y-83961685D02*
G01*
X190488194Y-84014489D01*
X190499400Y-84066000D01*
X190499400Y-88009000D01*
X190479715Y-88076039D01*
X190426911Y-88121794D01*
X190375400Y-88133000D01*
X186559400Y-88133000D01*
X186492361Y-88113315D01*
X186446606Y-88060511D01*
X186435400Y-88009000D01*
X186435400Y-84066000D01*
X186455085Y-83998961D01*
X186507889Y-83953206D01*
X186559400Y-83942000D01*
X190375400Y-83942000D01*
X190442439Y-83961685D01*
G37*
%TD.AperFunction*%
%TD*%
%TA.AperFunction,Conductor*%
%TO.N,Net-(U6-~{SHDN})*%
G36*
X197058402Y-96607685D02*
G01*
X197104157Y-96660489D01*
X197115360Y-96712635D01*
X197098379Y-100024206D01*
X197091633Y-101339636D01*
X197071605Y-101406574D01*
X197018567Y-101452057D01*
X196967635Y-101463000D01*
X184020000Y-101463000D01*
X183952961Y-101443315D01*
X183907206Y-101390511D01*
X183896000Y-101339000D01*
X183896000Y-100137000D01*
X183915685Y-100069961D01*
X183968489Y-100024206D01*
X184020000Y-100013000D01*
X184428871Y-100013000D01*
X184467874Y-100019293D01*
X184524247Y-100037974D01*
X184625323Y-100048300D01*
X185198676Y-100048299D01*
X185198684Y-100048298D01*
X185198687Y-100048298D01*
X185254030Y-100042644D01*
X185299753Y-100037974D01*
X185356126Y-100019293D01*
X185395129Y-100013000D01*
X195266000Y-100013000D01*
X195266000Y-96712000D01*
X195285685Y-96644961D01*
X195338489Y-96599206D01*
X195390000Y-96588000D01*
X196991363Y-96588000D01*
X197058402Y-96607685D01*
G37*
%TD.AperFunction*%
%TD*%
M02*
