%TF.GenerationSoftware,KiCad,Pcbnew,7.0.11-7.0.11~ubuntu22.04.1*%
%TF.CreationDate,2024-03-17T14:49:54+00:00*%
%TF.ProjectId,Tiny4xPoweredStereoMixer,54696e79-3478-4506-9f77-657265645374,rev?*%
%TF.SameCoordinates,Original*%
%TF.FileFunction,Copper,L4,Bot*%
%TF.FilePolarity,Positive*%
%FSLAX46Y46*%
G04 Gerber Fmt 4.6, Leading zero omitted, Abs format (unit mm)*
G04 Created by KiCad (PCBNEW 7.0.11-7.0.11~ubuntu22.04.1) date 2024-03-17 14:49:54*
%MOMM*%
%LPD*%
G01*
G04 APERTURE LIST*
G04 Aperture macros list*
%AMRoundRect*
0 Rectangle with rounded corners*
0 $1 Rounding radius*
0 $2 $3 $4 $5 $6 $7 $8 $9 X,Y pos of 4 corners*
0 Add a 4 corners polygon primitive as box body*
4,1,4,$2,$3,$4,$5,$6,$7,$8,$9,$2,$3,0*
0 Add four circle primitives for the rounded corners*
1,1,$1+$1,$2,$3*
1,1,$1+$1,$4,$5*
1,1,$1+$1,$6,$7*
1,1,$1+$1,$8,$9*
0 Add four rect primitives between the rounded corners*
20,1,$1+$1,$2,$3,$4,$5,0*
20,1,$1+$1,$4,$5,$6,$7,0*
20,1,$1+$1,$6,$7,$8,$9,0*
20,1,$1+$1,$8,$9,$2,$3,0*%
G04 Aperture macros list end*
%TA.AperFunction,ComponentPad*%
%ADD10R,1.800000X1.800000*%
%TD*%
%TA.AperFunction,ComponentPad*%
%ADD11C,1.800000*%
%TD*%
%TA.AperFunction,ComponentPad*%
%ADD12RoundRect,0.500000X-1.000000X0.500000X-1.000000X-0.500000X1.000000X-0.500000X1.000000X0.500000X0*%
%TD*%
%TA.AperFunction,ComponentPad*%
%ADD13C,2.400000*%
%TD*%
%TA.AperFunction,ComponentPad*%
%ADD14R,1.700000X1.700000*%
%TD*%
%TA.AperFunction,ComponentPad*%
%ADD15O,1.700000X1.700000*%
%TD*%
%TA.AperFunction,ViaPad*%
%ADD16C,0.800000*%
%TD*%
%TA.AperFunction,Conductor*%
%ADD17C,0.200000*%
%TD*%
%TA.AperFunction,Conductor*%
%ADD18C,0.500000*%
%TD*%
G04 APERTURE END LIST*
D10*
%TO.P,RV4,1,1*%
%TO.N,Net-(U4B--)*%
X150535000Y-149860000D03*
D11*
%TO.P,RV4,2,2*%
%TO.N,/BufferOpAmp4/right_channel_buffered*%
X153035000Y-149860000D03*
%TO.P,RV4,3,3*%
%TO.N,GND*%
X155535000Y-149860000D03*
%TO.P,RV4,4,4*%
%TO.N,Net-(U4A--)*%
X150535000Y-147360000D03*
%TO.P,RV4,5,5*%
%TO.N,/BufferOpAmp4/left_channel_buffered*%
X153035000Y-147360000D03*
%TO.P,RV4,6,6*%
%TO.N,GND*%
X155535000Y-147360000D03*
D12*
%TO.P,RV4,MP*%
%TO.N,N/C*%
X148285000Y-144060000D03*
X157785000Y-144060000D03*
%TD*%
D10*
%TO.P,RV3,1,1*%
%TO.N,Net-(U3B--)*%
X130850000Y-149860000D03*
D11*
%TO.P,RV3,2,2*%
%TO.N,/BufferOpAmp3/right_channel_buffered*%
X133350000Y-149860000D03*
%TO.P,RV3,3,3*%
%TO.N,GND*%
X135850000Y-149860000D03*
%TO.P,RV3,4,4*%
%TO.N,Net-(U3A--)*%
X130850000Y-147360000D03*
%TO.P,RV3,5,5*%
%TO.N,/BufferOpAmp3/left_channel_buffered*%
X133350000Y-147360000D03*
%TO.P,RV3,6,6*%
%TO.N,GND*%
X135850000Y-147360000D03*
D12*
%TO.P,RV3,MP*%
%TO.N,N/C*%
X128600000Y-144060000D03*
X138100000Y-144060000D03*
%TD*%
D10*
%TO.P,RV2,1,1*%
%TO.N,Net-(U2B--)*%
X111038000Y-149860000D03*
D11*
%TO.P,RV2,2,2*%
%TO.N,/BufferOpAmp2/right_channel_buffered*%
X113538000Y-149860000D03*
%TO.P,RV2,3,3*%
%TO.N,GND*%
X116038000Y-149860000D03*
%TO.P,RV2,4,4*%
%TO.N,Net-(U2A--)*%
X111038000Y-147360000D03*
%TO.P,RV2,5,5*%
%TO.N,/BufferOpAmp2/left_channel_buffered*%
X113538000Y-147360000D03*
%TO.P,RV2,6,6*%
%TO.N,GND*%
X116038000Y-147360000D03*
D12*
%TO.P,RV2,MP*%
%TO.N,N/C*%
X108788000Y-144060000D03*
X118288000Y-144060000D03*
%TD*%
D10*
%TO.P,RV1,1,1*%
%TO.N,Net-(U1B--)*%
X91310667Y-149860000D03*
D11*
%TO.P,RV1,2,2*%
%TO.N,/BufferOpAmp1/right_channel_buffered*%
X93810667Y-149860000D03*
%TO.P,RV1,3,3*%
%TO.N,GND*%
X96310667Y-149860000D03*
%TO.P,RV1,4,4*%
%TO.N,Net-(U1A--)*%
X91310667Y-147360000D03*
%TO.P,RV1,5,5*%
%TO.N,/BufferOpAmp1/left_channel_buffered*%
X93810667Y-147360000D03*
%TO.P,RV1,6,6*%
%TO.N,GND*%
X96310667Y-147360000D03*
D12*
%TO.P,RV1,MP*%
%TO.N,N/C*%
X89060667Y-144060000D03*
X98560667Y-144060000D03*
%TD*%
D13*
%TO.P,J5,3,Pin_3*%
%TO.N,/MixerOpAmp/left_channel_mix_out*%
X176784000Y-110947200D03*
%TO.P,J5,2,Pin_2*%
%TO.N,/MixerOpAmp/right_channel_mix_out*%
X168656000Y-109702600D03*
%TO.P,J5,1,Pin_1*%
%TO.N,GND*%
X172720000Y-106426000D03*
%TD*%
%TO.P,J4,3,Pin_3*%
%TO.N,/BufferOpAmp4/left_channel_input*%
X157099000Y-110947200D03*
%TO.P,J4,2,Pin_2*%
%TO.N,/BufferOpAmp4/right_channel_input*%
X148971000Y-109702600D03*
%TO.P,J4,1,Pin_1*%
%TO.N,GND*%
X153035000Y-106426000D03*
%TD*%
%TO.P,J3,3,Pin_3*%
%TO.N,/BufferOpAmp3/left_channel_input*%
X137414000Y-110947200D03*
%TO.P,J3,2,Pin_2*%
%TO.N,/BufferOpAmp3/right_channel_input*%
X129286000Y-109702600D03*
%TO.P,J3,1,Pin_1*%
%TO.N,GND*%
X133350000Y-106426000D03*
%TD*%
%TO.P,J2,3,Pin_3*%
%TO.N,/BufferOpAmp2/left_channel_input*%
X117602000Y-110947200D03*
%TO.P,J2,2,Pin_2*%
%TO.N,/BufferOpAmp2/right_channel_input*%
X109474000Y-109702600D03*
%TO.P,J2,1,Pin_1*%
%TO.N,GND*%
X113538000Y-106426000D03*
%TD*%
%TO.P,J1,3,Pin_3*%
%TO.N,/BufferOpAmp1/left_channel_input*%
X97874667Y-110947200D03*
%TO.P,J1,2,Pin_2*%
%TO.N,/BufferOpAmp1/right_channel_input*%
X89746667Y-109702600D03*
%TO.P,J1,1,Pin_1*%
%TO.N,GND*%
X93810667Y-106426000D03*
%TD*%
D14*
%TO.P,J8,1,Pin_1*%
%TO.N,Net-(J8-Pin_1)*%
X161925000Y-135387000D03*
D15*
%TO.P,J8,2,Pin_2*%
%TO.N,-12V*%
X161925000Y-132847000D03*
%TD*%
D14*
%TO.P,J7,1,Pin_1*%
%TO.N,Net-(J6-Pin_2)*%
X179070000Y-135056800D03*
D15*
%TO.P,J7,2,Pin_2*%
%TO.N,+12V*%
X179070000Y-132516800D03*
%TD*%
D14*
%TO.P,J6,1,Pin_1*%
%TO.N,GND*%
X170434000Y-150368000D03*
D15*
%TO.P,J6,2,Pin_2*%
%TO.N,Net-(J6-Pin_2)*%
X172974000Y-150368000D03*
%TD*%
D16*
%TO.N,+12V*%
X148336000Y-129540000D03*
X129286000Y-129540000D03*
X89535000Y-129540000D03*
X108712000Y-129540000D03*
X169640000Y-128492000D03*
%TO.N,Net-(U6-NFB)*%
X169417400Y-131694000D03*
X173735400Y-147345400D03*
%TO.N,-12V*%
X137541000Y-125730000D03*
X97917000Y-125730000D03*
X175133000Y-121666000D03*
X156591000Y-125730000D03*
X117094000Y-125730000D03*
%TO.N,/BufferOpAmp1/left_channel_buffered*%
X181229000Y-116840000D03*
%TO.N,/BufferOpAmp2/left_channel_buffered*%
X181229000Y-119126000D03*
%TO.N,/BufferOpAmp3/left_channel_buffered*%
X181229000Y-121412000D03*
%TO.N,/BufferOpAmp4/left_channel_buffered*%
X181229000Y-123698000D03*
%TO.N,/BufferOpAmp1/right_channel_buffered*%
X161544000Y-115570000D03*
%TO.N,/BufferOpAmp2/right_channel_buffered*%
X161544000Y-117856000D03*
%TO.N,/BufferOpAmp3/right_channel_buffered*%
X161544000Y-120142000D03*
%TO.N,/BufferOpAmp4/right_channel_buffered*%
X161544000Y-122428000D03*
%TD*%
D17*
%TO.N,/BufferOpAmp1/left_channel_buffered*%
X93810667Y-147360000D02*
X93810667Y-134789333D01*
X93810667Y-134789333D02*
X97790000Y-130810000D01*
X97790000Y-130810000D02*
X114300000Y-130810000D01*
X114300000Y-130810000D02*
X130810000Y-114300000D01*
X130810000Y-114300000D02*
X178689000Y-114300000D01*
X178689000Y-114300000D02*
X181229000Y-116840000D01*
%TO.N,/BufferOpAmp1/right_channel_buffered*%
X161544000Y-115570000D02*
X160674000Y-116440000D01*
X95110667Y-135902333D02*
X95110667Y-148560000D01*
X95110667Y-148560000D02*
X93810667Y-149860000D01*
X160674000Y-116440000D02*
X131054157Y-116440000D01*
X131054157Y-116440000D02*
X115414157Y-132080000D01*
X115414157Y-132080000D02*
X98933000Y-132080000D01*
X98933000Y-132080000D02*
X95110667Y-135902333D01*
%TO.N,/BufferOpAmp4/right_channel_buffered*%
X153035000Y-149860000D02*
X154305000Y-148590000D01*
X154305000Y-148590000D02*
X154305000Y-145034000D01*
X154305000Y-145034000D02*
X152273000Y-143002000D01*
X152273000Y-143002000D02*
X152273000Y-131699000D01*
X152273000Y-131699000D02*
X161544000Y-122428000D01*
%TO.N,/BufferOpAmp4/left_channel_buffered*%
X181229000Y-123698000D02*
X174371000Y-123698000D01*
X174371000Y-123698000D02*
X171958000Y-121285000D01*
X151257000Y-130074050D02*
X151257000Y-145582000D01*
X171958000Y-121285000D02*
X160046050Y-121285000D01*
X160046050Y-121285000D02*
X151257000Y-130074050D01*
X151257000Y-145582000D02*
X153035000Y-147360000D01*
%TO.N,/BufferOpAmp2/left_channel_buffered*%
X133604000Y-116840000D02*
X178943000Y-116840000D01*
X178943000Y-116840000D02*
X181229000Y-119126000D01*
X113538000Y-147360000D02*
X113538000Y-136906000D01*
X113538000Y-136906000D02*
X133604000Y-116840000D01*
%TO.N,/BufferOpAmp3/left_channel_buffered*%
X152273000Y-119126000D02*
X133350000Y-138049000D01*
X181229000Y-121412000D02*
X178943000Y-119126000D01*
X178943000Y-119126000D02*
X152273000Y-119126000D01*
X133350000Y-138049000D02*
X133350000Y-147360000D01*
%TO.N,/BufferOpAmp2/right_channel_buffered*%
X134239000Y-117856000D02*
X161544000Y-117856000D01*
X114838000Y-137257000D02*
X134239000Y-117856000D01*
X113538000Y-149860000D02*
X114838000Y-148560000D01*
X114838000Y-148560000D02*
X114838000Y-137257000D01*
%TO.N,/BufferOpAmp3/right_channel_buffered*%
X133350000Y-149860000D02*
X134650000Y-148560000D01*
X153035000Y-120142000D02*
X161544000Y-120142000D01*
X134650000Y-148560000D02*
X134650000Y-138527000D01*
X134650000Y-138527000D02*
X153035000Y-120142000D01*
D18*
%TO.N,/BufferOpAmp4/right_channel_buffered*%
X161417000Y-122428000D02*
X161544000Y-122428000D01*
%TD*%
%TA.AperFunction,Conductor*%
%TO.N,Net-(U6-NFB)*%
G36*
X168560115Y-130373692D02*
G01*
X174408120Y-132079360D01*
X174466966Y-132117028D01*
X174496106Y-132180531D01*
X174497400Y-132198400D01*
X174497400Y-147729400D01*
X174477715Y-147796439D01*
X174424911Y-147842194D01*
X174373400Y-147853400D01*
X173097400Y-147853400D01*
X173030361Y-147833715D01*
X172984606Y-147780911D01*
X172973400Y-147729400D01*
X172973400Y-133629400D01*
X172973399Y-133629399D01*
X168492212Y-132384625D01*
X168432887Y-132347716D01*
X168402934Y-132284592D01*
X168401400Y-132265149D01*
X168401400Y-130492733D01*
X168421085Y-130425694D01*
X168473889Y-130379939D01*
X168543047Y-130369995D01*
X168560115Y-130373692D01*
G37*
%TD.AperFunction*%
%TD*%
%TA.AperFunction,Conductor*%
%TO.N,GND*%
G36*
X182822539Y-99080185D02*
G01*
X182868294Y-99132989D01*
X182879500Y-99184500D01*
X182879500Y-155450500D01*
X182859815Y-155517539D01*
X182807011Y-155563294D01*
X182755500Y-155574500D01*
X83944500Y-155574500D01*
X83877461Y-155554815D01*
X83831706Y-155502011D01*
X83820500Y-155450500D01*
X83820500Y-151265844D01*
X169084000Y-151265844D01*
X169090401Y-151325372D01*
X169090403Y-151325379D01*
X169140645Y-151460086D01*
X169140649Y-151460093D01*
X169226809Y-151575187D01*
X169226812Y-151575190D01*
X169341906Y-151661350D01*
X169341913Y-151661354D01*
X169476620Y-151711596D01*
X169476627Y-151711598D01*
X169536155Y-151717999D01*
X169536172Y-151718000D01*
X170184000Y-151718000D01*
X170184000Y-150803501D01*
X170291685Y-150852680D01*
X170398237Y-150868000D01*
X170469763Y-150868000D01*
X170576315Y-150852680D01*
X170684000Y-150803501D01*
X170684000Y-151718000D01*
X171331828Y-151718000D01*
X171331844Y-151717999D01*
X171391372Y-151711598D01*
X171391379Y-151711596D01*
X171526086Y-151661354D01*
X171526093Y-151661350D01*
X171641187Y-151575190D01*
X171641190Y-151575187D01*
X171727350Y-151460093D01*
X171727354Y-151460086D01*
X171776422Y-151328529D01*
X171818293Y-151272595D01*
X171883757Y-151248178D01*
X171952030Y-151263030D01*
X171980285Y-151284181D01*
X172102599Y-151406495D01*
X172179135Y-151460086D01*
X172296165Y-151542032D01*
X172296167Y-151542033D01*
X172296170Y-151542035D01*
X172510337Y-151641903D01*
X172738592Y-151703063D01*
X172909319Y-151718000D01*
X172973999Y-151723659D01*
X172974000Y-151723659D01*
X172974001Y-151723659D01*
X173038681Y-151718000D01*
X173209408Y-151703063D01*
X173437663Y-151641903D01*
X173651830Y-151542035D01*
X173845401Y-151406495D01*
X174012495Y-151239401D01*
X174148035Y-151045830D01*
X174247903Y-150831663D01*
X174309063Y-150603408D01*
X174329659Y-150368000D01*
X174309063Y-150132592D01*
X174258275Y-149943048D01*
X174247905Y-149904344D01*
X174247904Y-149904343D01*
X174247903Y-149904337D01*
X174148035Y-149690171D01*
X174120017Y-149650156D01*
X174012494Y-149496597D01*
X173845402Y-149329506D01*
X173845395Y-149329501D01*
X173651834Y-149193967D01*
X173651830Y-149193965D01*
X173580727Y-149160809D01*
X173437663Y-149094097D01*
X173437659Y-149094096D01*
X173437655Y-149094094D01*
X173209413Y-149032938D01*
X173209403Y-149032936D01*
X172974001Y-149012341D01*
X172973999Y-149012341D01*
X172738596Y-149032936D01*
X172738586Y-149032938D01*
X172510344Y-149094094D01*
X172510335Y-149094098D01*
X172296171Y-149193964D01*
X172296169Y-149193965D01*
X172102600Y-149329503D01*
X171980284Y-149451819D01*
X171918961Y-149485303D01*
X171849269Y-149480319D01*
X171793336Y-149438447D01*
X171776421Y-149407470D01*
X171727354Y-149275913D01*
X171727350Y-149275906D01*
X171641190Y-149160812D01*
X171641187Y-149160809D01*
X171526093Y-149074649D01*
X171526086Y-149074645D01*
X171391379Y-149024403D01*
X171391372Y-149024401D01*
X171331844Y-149018000D01*
X170684000Y-149018000D01*
X170684000Y-149932498D01*
X170576315Y-149883320D01*
X170469763Y-149868000D01*
X170398237Y-149868000D01*
X170291685Y-149883320D01*
X170184000Y-149932498D01*
X170184000Y-149018000D01*
X169536155Y-149018000D01*
X169476627Y-149024401D01*
X169476620Y-149024403D01*
X169341913Y-149074645D01*
X169341906Y-149074649D01*
X169226812Y-149160809D01*
X169226809Y-149160812D01*
X169140649Y-149275906D01*
X169140645Y-149275913D01*
X169090403Y-149410620D01*
X169090401Y-149410627D01*
X169084000Y-149470155D01*
X169084000Y-150118000D01*
X170000314Y-150118000D01*
X169974507Y-150158156D01*
X169934000Y-150296111D01*
X169934000Y-150439889D01*
X169974507Y-150577844D01*
X170000314Y-150618000D01*
X169084000Y-150618000D01*
X169084000Y-151265844D01*
X83820500Y-151265844D01*
X83820500Y-147360006D01*
X89905367Y-147360006D01*
X89924531Y-147591297D01*
X89924533Y-147591308D01*
X89981509Y-147816300D01*
X90074742Y-148028848D01*
X90158882Y-148157633D01*
X90201688Y-148223153D01*
X90202678Y-148224228D01*
X90269058Y-148296337D01*
X90299980Y-148358991D01*
X90292119Y-148428417D01*
X90247972Y-148482573D01*
X90221161Y-148496501D01*
X90168338Y-148516202D01*
X90168331Y-148516206D01*
X90053122Y-148602452D01*
X90053119Y-148602455D01*
X89966873Y-148717664D01*
X89966869Y-148717671D01*
X89916575Y-148852517D01*
X89910168Y-148912116D01*
X89910167Y-148912135D01*
X89910167Y-150807870D01*
X89910168Y-150807876D01*
X89916575Y-150867483D01*
X89966869Y-151002328D01*
X89966873Y-151002335D01*
X90053119Y-151117544D01*
X90053122Y-151117547D01*
X90168331Y-151203793D01*
X90168338Y-151203797D01*
X90303184Y-151254091D01*
X90303183Y-151254091D01*
X90310111Y-151254835D01*
X90362794Y-151260500D01*
X92258539Y-151260499D01*
X92318150Y-151254091D01*
X92452998Y-151203796D01*
X92568213Y-151117546D01*
X92654463Y-151002331D01*
X92672759Y-150953274D01*
X92714628Y-150897342D01*
X92780092Y-150872924D01*
X92848366Y-150887775D01*
X92865103Y-150898755D01*
X93042032Y-151036464D01*
X93042038Y-151036468D01*
X93042041Y-151036470D01*
X93191852Y-151117544D01*
X93245319Y-151146479D01*
X93246164Y-151146936D01*
X93360154Y-151186068D01*
X93465682Y-151222297D01*
X93465684Y-151222297D01*
X93465686Y-151222298D01*
X93694618Y-151260500D01*
X93694619Y-151260500D01*
X93926715Y-151260500D01*
X93926716Y-151260500D01*
X94155648Y-151222298D01*
X94375170Y-151146936D01*
X94579293Y-151036470D01*
X94579837Y-151036047D01*
X94686180Y-150953277D01*
X94762451Y-150893913D01*
X94919646Y-150723153D01*
X94957158Y-150665736D01*
X95010301Y-150620382D01*
X95079532Y-150610957D01*
X95142868Y-150640458D01*
X95157581Y-150657436D01*
X95159478Y-150657633D01*
X95827589Y-149989522D01*
X95851174Y-150069844D01*
X95928906Y-150190798D01*
X96037567Y-150284952D01*
X96168352Y-150344680D01*
X96178133Y-150346086D01*
X95511868Y-151012351D01*
X95542316Y-151036050D01*
X95746364Y-151146476D01*
X95746373Y-151146479D01*
X95965806Y-151221811D01*
X96194660Y-151260000D01*
X96426674Y-151260000D01*
X96655527Y-151221811D01*
X96874960Y-151146479D01*
X96874968Y-151146476D01*
X97079022Y-151036047D01*
X97109464Y-151012351D01*
X97109465Y-151012350D01*
X96443201Y-150346086D01*
X96452982Y-150344680D01*
X96583767Y-150284952D01*
X96692428Y-150190798D01*
X96770160Y-150069844D01*
X96793743Y-149989523D01*
X97461853Y-150657633D01*
X97546149Y-150528611D01*
X97639349Y-150316135D01*
X97696305Y-150091218D01*
X97715465Y-149860005D01*
X97715465Y-149859994D01*
X97696305Y-149628781D01*
X97639349Y-149403864D01*
X97546151Y-149191393D01*
X97461853Y-149062365D01*
X96793743Y-149730475D01*
X96770160Y-149650156D01*
X96692428Y-149529202D01*
X96583767Y-149435048D01*
X96452982Y-149375320D01*
X96443199Y-149373913D01*
X97109464Y-148707647D01*
X97109453Y-148707469D01*
X97068916Y-148651141D01*
X97065243Y-148581368D01*
X97099874Y-148520685D01*
X97109463Y-148512376D01*
X97109465Y-148512351D01*
X96443200Y-147846086D01*
X96452982Y-147844680D01*
X96583767Y-147784952D01*
X96692428Y-147690798D01*
X96770160Y-147569844D01*
X96793743Y-147489523D01*
X97461853Y-148157633D01*
X97546149Y-148028611D01*
X97639349Y-147816135D01*
X97696305Y-147591218D01*
X97715465Y-147360005D01*
X97715465Y-147359994D01*
X97696305Y-147128781D01*
X97639349Y-146903864D01*
X97546151Y-146691393D01*
X97461853Y-146562365D01*
X96793743Y-147230475D01*
X96770160Y-147150156D01*
X96692428Y-147029202D01*
X96583767Y-146935048D01*
X96452982Y-146875320D01*
X96443199Y-146873913D01*
X97109464Y-146207647D01*
X97109464Y-146207645D01*
X97079027Y-146183955D01*
X97079021Y-146183951D01*
X96874969Y-146073523D01*
X96874960Y-146073520D01*
X96655527Y-145998188D01*
X96426674Y-145960000D01*
X96194660Y-145960000D01*
X95965809Y-145998187D01*
X95875429Y-146029215D01*
X95805631Y-146032364D01*
X95745209Y-145997277D01*
X95713349Y-145935094D01*
X95711167Y-145911933D01*
X95711167Y-144618028D01*
X96560167Y-144618028D01*
X96560168Y-144618034D01*
X96570780Y-144737415D01*
X96626756Y-144933045D01*
X96626757Y-144933048D01*
X96626758Y-144933049D01*
X96720969Y-145113407D01*
X96720971Y-145113409D01*
X96849557Y-145271109D01*
X96894481Y-145307739D01*
X97007260Y-145399698D01*
X97187618Y-145493909D01*
X97383249Y-145549886D01*
X97502630Y-145560500D01*
X99618703Y-145560499D01*
X99738085Y-145549886D01*
X99933716Y-145493909D01*
X100114074Y-145399698D01*
X100271776Y-145271109D01*
X100400365Y-145113407D01*
X100494576Y-144933049D01*
X100550553Y-144737418D01*
X100561167Y-144618037D01*
X100561167Y-144618028D01*
X106787500Y-144618028D01*
X106787501Y-144618034D01*
X106798113Y-144737415D01*
X106854089Y-144933045D01*
X106854090Y-144933048D01*
X106854091Y-144933049D01*
X106948302Y-145113407D01*
X106948304Y-145113409D01*
X107076890Y-145271109D01*
X107121814Y-145307739D01*
X107234593Y-145399698D01*
X107414951Y-145493909D01*
X107610582Y-145549886D01*
X107729963Y-145560500D01*
X109846036Y-145560499D01*
X109965418Y-145549886D01*
X110161049Y-145493909D01*
X110341407Y-145399698D01*
X110499109Y-145271109D01*
X110627698Y-145113407D01*
X110721909Y-144933049D01*
X110777886Y-144737418D01*
X110788500Y-144618037D01*
X110788499Y-143501964D01*
X110777886Y-143382582D01*
X110721909Y-143186951D01*
X110627698Y-143006593D01*
X110575684Y-142942803D01*
X110499109Y-142848890D01*
X110341409Y-142720304D01*
X110341410Y-142720304D01*
X110341407Y-142720302D01*
X110161049Y-142626091D01*
X110161048Y-142626090D01*
X110161045Y-142626089D01*
X110043829Y-142592550D01*
X109965418Y-142570114D01*
X109965415Y-142570113D01*
X109965413Y-142570113D01*
X109899102Y-142564217D01*
X109846037Y-142559500D01*
X109846032Y-142559500D01*
X107729971Y-142559500D01*
X107729965Y-142559500D01*
X107729964Y-142559501D01*
X107718316Y-142560536D01*
X107610584Y-142570113D01*
X107414954Y-142626089D01*
X107324772Y-142673196D01*
X107234593Y-142720302D01*
X107234591Y-142720303D01*
X107234590Y-142720304D01*
X107076890Y-142848890D01*
X106948304Y-143006590D01*
X106854089Y-143186954D01*
X106798114Y-143382583D01*
X106798113Y-143382586D01*
X106787500Y-143501966D01*
X106787500Y-144618028D01*
X100561167Y-144618028D01*
X100561166Y-143501964D01*
X100550553Y-143382582D01*
X100494576Y-143186951D01*
X100400365Y-143006593D01*
X100348351Y-142942803D01*
X100271776Y-142848890D01*
X100114076Y-142720304D01*
X100114077Y-142720304D01*
X100114074Y-142720302D01*
X99933716Y-142626091D01*
X99933715Y-142626090D01*
X99933712Y-142626089D01*
X99816496Y-142592550D01*
X99738085Y-142570114D01*
X99738082Y-142570113D01*
X99738080Y-142570113D01*
X99671769Y-142564217D01*
X99618704Y-142559500D01*
X99618699Y-142559500D01*
X97502638Y-142559500D01*
X97502632Y-142559500D01*
X97502631Y-142559501D01*
X97490983Y-142560536D01*
X97383251Y-142570113D01*
X97187621Y-142626089D01*
X97097439Y-142673196D01*
X97007260Y-142720302D01*
X97007258Y-142720303D01*
X97007257Y-142720304D01*
X96849557Y-142848890D01*
X96720971Y-143006590D01*
X96626756Y-143186954D01*
X96570781Y-143382583D01*
X96570780Y-143382586D01*
X96560167Y-143501966D01*
X96560167Y-144618028D01*
X95711167Y-144618028D01*
X95711167Y-137291187D01*
X98579500Y-137291187D01*
X98599794Y-137425823D01*
X98618604Y-137550615D01*
X98618605Y-137550617D01*
X98618606Y-137550623D01*
X98695938Y-137801326D01*
X98809767Y-138037696D01*
X98809768Y-138037697D01*
X98809770Y-138037700D01*
X98809772Y-138037704D01*
X98849850Y-138096487D01*
X98957567Y-138254479D01*
X99136014Y-138446801D01*
X99136018Y-138446804D01*
X99136019Y-138446805D01*
X99341143Y-138610386D01*
X99568357Y-138741568D01*
X99812584Y-138837420D01*
X100068370Y-138895802D01*
X100068376Y-138895802D01*
X100068379Y-138895803D01*
X100264484Y-138910499D01*
X100264503Y-138910499D01*
X100264506Y-138910500D01*
X100264508Y-138910500D01*
X100395492Y-138910500D01*
X100395494Y-138910500D01*
X100395496Y-138910499D01*
X100395515Y-138910499D01*
X100591620Y-138895803D01*
X100591622Y-138895802D01*
X100591630Y-138895802D01*
X100847416Y-138837420D01*
X101091643Y-138741568D01*
X101318857Y-138610386D01*
X101523981Y-138446805D01*
X101702433Y-138254479D01*
X101850228Y-138037704D01*
X101964063Y-137801323D01*
X102041396Y-137550615D01*
X102080500Y-137291182D01*
X102080500Y-137028818D01*
X102041396Y-136769385D01*
X101964063Y-136518677D01*
X101932699Y-136453548D01*
X101850232Y-136282303D01*
X101850231Y-136282302D01*
X101850230Y-136282301D01*
X101850228Y-136282296D01*
X101702433Y-136065521D01*
X101654891Y-136014283D01*
X101523985Y-135873198D01*
X101484533Y-135841736D01*
X101318857Y-135709614D01*
X101091643Y-135578432D01*
X100847416Y-135482580D01*
X100847411Y-135482578D01*
X100847402Y-135482576D01*
X100629818Y-135432914D01*
X100591630Y-135424198D01*
X100591629Y-135424197D01*
X100591625Y-135424197D01*
X100591620Y-135424196D01*
X100395515Y-135409500D01*
X100395494Y-135409500D01*
X100264506Y-135409500D01*
X100264484Y-135409500D01*
X100068379Y-135424196D01*
X100068374Y-135424197D01*
X99812597Y-135482576D01*
X99812578Y-135482582D01*
X99568356Y-135578432D01*
X99341143Y-135709614D01*
X99136014Y-135873198D01*
X98957567Y-136065520D01*
X98899242Y-136151068D01*
X98822012Y-136264344D01*
X98809768Y-136282302D01*
X98809767Y-136282303D01*
X98695938Y-136518673D01*
X98618606Y-136769376D01*
X98618605Y-136769381D01*
X98618604Y-136769385D01*
X98603853Y-136867247D01*
X98579500Y-137028812D01*
X98579500Y-137291187D01*
X95711167Y-137291187D01*
X95711167Y-136202430D01*
X95730852Y-136135391D01*
X95747486Y-136114749D01*
X99145416Y-132716819D01*
X99206739Y-132683334D01*
X99233097Y-132680500D01*
X115366670Y-132680500D01*
X115382854Y-132681560D01*
X115414157Y-132685682D01*
X115414158Y-132685682D01*
X115466411Y-132678802D01*
X115570919Y-132665044D01*
X115716998Y-132604536D01*
X115769274Y-132564423D01*
X115842439Y-132508282D01*
X115861667Y-132483222D01*
X115872346Y-132471044D01*
X131266573Y-117076819D01*
X131327896Y-117043334D01*
X131354254Y-117040500D01*
X132254903Y-117040500D01*
X132321942Y-117060185D01*
X132367697Y-117112989D01*
X132377641Y-117182147D01*
X132348616Y-117245703D01*
X132342584Y-117252181D01*
X113146965Y-136447798D01*
X113134775Y-136458489D01*
X113109716Y-136477718D01*
X113020073Y-136594545D01*
X113013466Y-136603155D01*
X113013461Y-136603163D01*
X112952957Y-136749234D01*
X112952955Y-136749239D01*
X112932318Y-136905998D01*
X112932318Y-136905999D01*
X112936439Y-136937301D01*
X112937500Y-136953487D01*
X112937500Y-146018655D01*
X112917815Y-146085694D01*
X112872519Y-146127709D01*
X112769376Y-146183528D01*
X112769365Y-146183535D01*
X112586222Y-146326081D01*
X112586219Y-146326084D01*
X112429015Y-146496854D01*
X112391808Y-146553804D01*
X112338662Y-146599161D01*
X112269430Y-146608584D01*
X112206095Y-146579082D01*
X112184192Y-146553804D01*
X112146984Y-146496854D01*
X112146982Y-146496852D01*
X112146979Y-146496847D01*
X111989784Y-146326087D01*
X111989779Y-146326083D01*
X111989777Y-146326081D01*
X111806634Y-146183535D01*
X111806628Y-146183531D01*
X111602504Y-146073064D01*
X111602495Y-146073061D01*
X111382984Y-145997702D01*
X111211282Y-145969050D01*
X111154049Y-145959500D01*
X110921951Y-145959500D01*
X110876164Y-145967140D01*
X110693015Y-145997702D01*
X110473504Y-146073061D01*
X110473495Y-146073064D01*
X110269371Y-146183531D01*
X110269365Y-146183535D01*
X110086222Y-146326081D01*
X110086219Y-146326084D01*
X109929016Y-146496852D01*
X109802075Y-146691151D01*
X109708842Y-146903699D01*
X109651866Y-147128691D01*
X109651864Y-147128702D01*
X109632700Y-147359993D01*
X109632700Y-147360006D01*
X109651864Y-147591297D01*
X109651866Y-147591308D01*
X109708842Y-147816300D01*
X109802075Y-148028848D01*
X109886215Y-148157633D01*
X109929021Y-148223153D01*
X109930011Y-148224228D01*
X109996391Y-148296337D01*
X110027313Y-148358991D01*
X110019452Y-148428417D01*
X109975305Y-148482573D01*
X109948494Y-148496501D01*
X109895671Y-148516202D01*
X109895664Y-148516206D01*
X109780455Y-148602452D01*
X109780452Y-148602455D01*
X109694206Y-148717664D01*
X109694202Y-148717671D01*
X109643908Y-148852517D01*
X109637501Y-148912116D01*
X109637500Y-148912135D01*
X109637500Y-150807870D01*
X109637501Y-150807876D01*
X109643908Y-150867483D01*
X109694202Y-151002328D01*
X109694206Y-151002335D01*
X109780452Y-151117544D01*
X109780455Y-151117547D01*
X109895664Y-151203793D01*
X109895671Y-151203797D01*
X110030517Y-151254091D01*
X110030516Y-151254091D01*
X110037444Y-151254835D01*
X110090127Y-151260500D01*
X111985872Y-151260499D01*
X112045483Y-151254091D01*
X112180331Y-151203796D01*
X112295546Y-151117546D01*
X112381796Y-151002331D01*
X112400092Y-150953274D01*
X112441961Y-150897342D01*
X112507425Y-150872924D01*
X112575699Y-150887775D01*
X112592436Y-150898755D01*
X112769365Y-151036464D01*
X112769371Y-151036468D01*
X112769374Y-151036470D01*
X112919185Y-151117544D01*
X112972652Y-151146479D01*
X112973497Y-151146936D01*
X113087487Y-151186068D01*
X113193015Y-151222297D01*
X113193017Y-151222297D01*
X113193019Y-151222298D01*
X113421951Y-151260500D01*
X113421952Y-151260500D01*
X113654048Y-151260500D01*
X113654049Y-151260500D01*
X113882981Y-151222298D01*
X114102503Y-151146936D01*
X114306626Y-151036470D01*
X114307170Y-151036047D01*
X114413513Y-150953277D01*
X114489784Y-150893913D01*
X114646979Y-150723153D01*
X114684491Y-150665736D01*
X114737634Y-150620382D01*
X114806865Y-150610957D01*
X114870201Y-150640458D01*
X114884914Y-150657436D01*
X114886811Y-150657633D01*
X115554922Y-149989522D01*
X115578507Y-150069844D01*
X115656239Y-150190798D01*
X115764900Y-150284952D01*
X115895685Y-150344680D01*
X115905466Y-150346086D01*
X115239201Y-151012351D01*
X115269649Y-151036050D01*
X115473697Y-151146476D01*
X115473706Y-151146479D01*
X115693139Y-151221811D01*
X115921993Y-151260000D01*
X116154007Y-151260000D01*
X116382860Y-151221811D01*
X116602293Y-151146479D01*
X116602301Y-151146476D01*
X116806355Y-151036047D01*
X116836797Y-151012351D01*
X116836798Y-151012350D01*
X116170534Y-150346086D01*
X116180315Y-150344680D01*
X116311100Y-150284952D01*
X116419761Y-150190798D01*
X116497493Y-150069844D01*
X116521076Y-149989523D01*
X117189186Y-150657633D01*
X117273482Y-150528611D01*
X117366682Y-150316135D01*
X117423638Y-150091218D01*
X117442798Y-149860005D01*
X117442798Y-149859994D01*
X117423638Y-149628781D01*
X117366682Y-149403864D01*
X117273484Y-149191393D01*
X117189186Y-149062365D01*
X116521076Y-149730475D01*
X116497493Y-149650156D01*
X116419761Y-149529202D01*
X116311100Y-149435048D01*
X116180315Y-149375320D01*
X116170532Y-149373913D01*
X116836797Y-148707647D01*
X116836786Y-148707469D01*
X116796249Y-148651141D01*
X116792576Y-148581368D01*
X116827207Y-148520685D01*
X116836796Y-148512376D01*
X116836798Y-148512351D01*
X116170533Y-147846086D01*
X116180315Y-147844680D01*
X116311100Y-147784952D01*
X116419761Y-147690798D01*
X116497493Y-147569844D01*
X116521076Y-147489523D01*
X117189186Y-148157633D01*
X117273482Y-148028611D01*
X117366682Y-147816135D01*
X117423638Y-147591218D01*
X117442798Y-147360005D01*
X117442798Y-147359994D01*
X117423638Y-147128781D01*
X117366682Y-146903864D01*
X117273484Y-146691393D01*
X117189186Y-146562365D01*
X116521076Y-147230475D01*
X116497493Y-147150156D01*
X116419761Y-147029202D01*
X116311100Y-146935048D01*
X116180315Y-146875320D01*
X116170532Y-146873913D01*
X116836797Y-146207647D01*
X116836797Y-146207645D01*
X116806360Y-146183955D01*
X116806354Y-146183951D01*
X116602302Y-146073523D01*
X116602293Y-146073520D01*
X116382860Y-145998188D01*
X116154007Y-145960000D01*
X115921993Y-145960000D01*
X115693142Y-145998187D01*
X115602762Y-146029215D01*
X115532964Y-146032364D01*
X115472542Y-145997277D01*
X115440682Y-145935094D01*
X115438500Y-145911933D01*
X115438500Y-144618028D01*
X116287500Y-144618028D01*
X116287501Y-144618034D01*
X116298113Y-144737415D01*
X116354089Y-144933045D01*
X116354090Y-144933048D01*
X116354091Y-144933049D01*
X116448302Y-145113407D01*
X116448304Y-145113409D01*
X116576890Y-145271109D01*
X116621814Y-145307739D01*
X116734593Y-145399698D01*
X116914951Y-145493909D01*
X117110582Y-145549886D01*
X117229963Y-145560500D01*
X119346036Y-145560499D01*
X119465418Y-145549886D01*
X119661049Y-145493909D01*
X119841407Y-145399698D01*
X119999109Y-145271109D01*
X120127698Y-145113407D01*
X120221909Y-144933049D01*
X120277886Y-144737418D01*
X120288500Y-144618037D01*
X120288500Y-144618028D01*
X126599500Y-144618028D01*
X126599501Y-144618034D01*
X126610113Y-144737415D01*
X126666089Y-144933045D01*
X126666090Y-144933048D01*
X126666091Y-144933049D01*
X126760302Y-145113407D01*
X126760304Y-145113409D01*
X126888890Y-145271109D01*
X126933814Y-145307739D01*
X127046593Y-145399698D01*
X127226951Y-145493909D01*
X127422582Y-145549886D01*
X127541963Y-145560500D01*
X129658036Y-145560499D01*
X129777418Y-145549886D01*
X129973049Y-145493909D01*
X130153407Y-145399698D01*
X130311109Y-145271109D01*
X130439698Y-145113407D01*
X130533909Y-144933049D01*
X130589886Y-144737418D01*
X130600500Y-144618037D01*
X130600499Y-143501964D01*
X130589886Y-143382582D01*
X130533909Y-143186951D01*
X130439698Y-143006593D01*
X130387684Y-142942803D01*
X130311109Y-142848890D01*
X130153409Y-142720304D01*
X130153410Y-142720304D01*
X130153407Y-142720302D01*
X129973049Y-142626091D01*
X129973048Y-142626090D01*
X129973045Y-142626089D01*
X129855829Y-142592550D01*
X129777418Y-142570114D01*
X129777415Y-142570113D01*
X129777413Y-142570113D01*
X129711102Y-142564217D01*
X129658037Y-142559500D01*
X129658032Y-142559500D01*
X127541971Y-142559500D01*
X127541965Y-142559500D01*
X127541964Y-142559501D01*
X127530316Y-142560536D01*
X127422584Y-142570113D01*
X127226954Y-142626089D01*
X127136772Y-142673196D01*
X127046593Y-142720302D01*
X127046591Y-142720303D01*
X127046590Y-142720304D01*
X126888890Y-142848890D01*
X126760304Y-143006590D01*
X126666089Y-143186954D01*
X126610114Y-143382583D01*
X126610113Y-143382586D01*
X126599500Y-143501966D01*
X126599500Y-144618028D01*
X120288500Y-144618028D01*
X120288499Y-143501964D01*
X120277886Y-143382582D01*
X120221909Y-143186951D01*
X120127698Y-143006593D01*
X120075684Y-142942803D01*
X119999109Y-142848890D01*
X119841409Y-142720304D01*
X119841410Y-142720304D01*
X119841407Y-142720302D01*
X119661049Y-142626091D01*
X119661048Y-142626090D01*
X119661045Y-142626089D01*
X119543829Y-142592550D01*
X119465418Y-142570114D01*
X119465415Y-142570113D01*
X119465413Y-142570113D01*
X119399102Y-142564217D01*
X119346037Y-142559500D01*
X119346032Y-142559500D01*
X117229971Y-142559500D01*
X117229965Y-142559500D01*
X117229964Y-142559501D01*
X117218316Y-142560536D01*
X117110584Y-142570113D01*
X116914954Y-142626089D01*
X116824772Y-142673196D01*
X116734593Y-142720302D01*
X116734591Y-142720303D01*
X116734590Y-142720304D01*
X116576890Y-142848890D01*
X116448304Y-143006590D01*
X116354089Y-143186954D01*
X116298114Y-143382583D01*
X116298113Y-143382586D01*
X116287500Y-143501966D01*
X116287500Y-144618028D01*
X115438500Y-144618028D01*
X115438500Y-137557097D01*
X115458185Y-137490058D01*
X115474819Y-137469416D01*
X123404235Y-129540000D01*
X128380540Y-129540000D01*
X128400326Y-129728256D01*
X128400327Y-129728259D01*
X128458818Y-129908277D01*
X128458821Y-129908284D01*
X128553467Y-130072216D01*
X128597876Y-130121537D01*
X128680129Y-130212888D01*
X128833265Y-130324148D01*
X128833270Y-130324151D01*
X129006192Y-130401142D01*
X129006197Y-130401144D01*
X129191354Y-130440500D01*
X129191355Y-130440500D01*
X129380644Y-130440500D01*
X129380646Y-130440500D01*
X129565803Y-130401144D01*
X129738730Y-130324151D01*
X129891871Y-130212888D01*
X130018533Y-130072216D01*
X130113179Y-129908284D01*
X130171674Y-129728256D01*
X130191460Y-129540000D01*
X130171674Y-129351744D01*
X130113179Y-129171716D01*
X130018533Y-129007784D01*
X129891871Y-128867112D01*
X129882473Y-128860284D01*
X129738734Y-128755851D01*
X129738729Y-128755848D01*
X129565807Y-128678857D01*
X129565802Y-128678855D01*
X129420001Y-128647865D01*
X129380646Y-128639500D01*
X129191354Y-128639500D01*
X129158897Y-128646398D01*
X129006197Y-128678855D01*
X129006192Y-128678857D01*
X128833270Y-128755848D01*
X128833265Y-128755851D01*
X128680129Y-128867111D01*
X128553466Y-129007785D01*
X128458821Y-129171715D01*
X128458818Y-129171722D01*
X128400327Y-129351740D01*
X128400326Y-129351744D01*
X128380540Y-129540000D01*
X123404235Y-129540000D01*
X127214235Y-125730000D01*
X136635540Y-125730000D01*
X136655326Y-125918256D01*
X136655327Y-125918259D01*
X136713818Y-126098277D01*
X136713821Y-126098284D01*
X136808467Y-126262216D01*
X136924139Y-126390682D01*
X136935129Y-126402888D01*
X137088265Y-126514148D01*
X137088270Y-126514151D01*
X137261192Y-126591142D01*
X137261197Y-126591144D01*
X137446354Y-126630500D01*
X137446355Y-126630500D01*
X137635644Y-126630500D01*
X137635646Y-126630500D01*
X137820803Y-126591144D01*
X137993730Y-126514151D01*
X138146871Y-126402888D01*
X138273533Y-126262216D01*
X138368179Y-126098284D01*
X138426674Y-125918256D01*
X138446460Y-125730000D01*
X138426674Y-125541744D01*
X138368179Y-125361716D01*
X138273533Y-125197784D01*
X138146871Y-125057112D01*
X138146870Y-125057111D01*
X137993734Y-124945851D01*
X137993729Y-124945848D01*
X137820807Y-124868857D01*
X137820802Y-124868855D01*
X137675001Y-124837865D01*
X137635646Y-124829500D01*
X137446354Y-124829500D01*
X137413897Y-124836398D01*
X137261197Y-124868855D01*
X137261192Y-124868857D01*
X137088270Y-124945848D01*
X137088265Y-124945851D01*
X136935129Y-125057111D01*
X136808466Y-125197785D01*
X136713821Y-125361715D01*
X136713818Y-125361722D01*
X136665347Y-125510902D01*
X136655326Y-125541744D01*
X136635540Y-125730000D01*
X127214235Y-125730000D01*
X130893048Y-122051187D01*
X141759500Y-122051187D01*
X141760786Y-122059716D01*
X141798604Y-122310615D01*
X141798605Y-122310617D01*
X141798606Y-122310623D01*
X141875938Y-122561326D01*
X141989767Y-122797696D01*
X141989768Y-122797697D01*
X141989770Y-122797700D01*
X141989772Y-122797704D01*
X142068960Y-122913851D01*
X142137567Y-123014479D01*
X142316014Y-123206801D01*
X142316018Y-123206804D01*
X142316019Y-123206805D01*
X142521143Y-123370386D01*
X142748357Y-123501568D01*
X142992584Y-123597420D01*
X143248370Y-123655802D01*
X143248376Y-123655802D01*
X143248379Y-123655803D01*
X143444484Y-123670499D01*
X143444503Y-123670499D01*
X143444506Y-123670500D01*
X143444508Y-123670500D01*
X143575492Y-123670500D01*
X143575494Y-123670500D01*
X143575496Y-123670499D01*
X143575515Y-123670499D01*
X143771620Y-123655803D01*
X143771622Y-123655802D01*
X143771630Y-123655802D01*
X144027416Y-123597420D01*
X144271643Y-123501568D01*
X144498857Y-123370386D01*
X144703981Y-123206805D01*
X144882433Y-123014479D01*
X145030228Y-122797704D01*
X145144063Y-122561323D01*
X145221396Y-122310615D01*
X145260500Y-122051182D01*
X145260500Y-121788818D01*
X145221396Y-121529385D01*
X145144063Y-121278677D01*
X145074287Y-121133785D01*
X145030232Y-121042303D01*
X145030231Y-121042302D01*
X145030230Y-121042301D01*
X145030228Y-121042296D01*
X144882433Y-120825521D01*
X144822069Y-120760464D01*
X144703985Y-120633198D01*
X144600730Y-120550855D01*
X144498857Y-120469614D01*
X144271643Y-120338432D01*
X144027416Y-120242580D01*
X144027411Y-120242578D01*
X144027402Y-120242576D01*
X143809818Y-120192914D01*
X143771630Y-120184198D01*
X143771629Y-120184197D01*
X143771625Y-120184197D01*
X143771620Y-120184196D01*
X143575515Y-120169500D01*
X143575494Y-120169500D01*
X143444506Y-120169500D01*
X143444484Y-120169500D01*
X143248379Y-120184196D01*
X143248374Y-120184197D01*
X142992597Y-120242576D01*
X142992578Y-120242582D01*
X142748356Y-120338432D01*
X142521143Y-120469614D01*
X142316014Y-120633198D01*
X142137567Y-120825520D01*
X141989768Y-121042302D01*
X141989767Y-121042303D01*
X141875938Y-121278673D01*
X141798606Y-121529376D01*
X141798605Y-121529381D01*
X141798604Y-121529385D01*
X141787922Y-121600256D01*
X141759500Y-121788812D01*
X141759500Y-122051187D01*
X130893048Y-122051187D01*
X134451416Y-118492819D01*
X134512739Y-118459334D01*
X134539097Y-118456500D01*
X151793788Y-118456500D01*
X151860827Y-118476185D01*
X151906582Y-118528989D01*
X151916526Y-118598147D01*
X151887501Y-118661703D01*
X151869276Y-118678873D01*
X151854850Y-118689942D01*
X151844715Y-118697720D01*
X151825495Y-118722769D01*
X151814800Y-118734964D01*
X132958965Y-137590798D01*
X132946775Y-137601489D01*
X132921716Y-137620718D01*
X132853632Y-137709449D01*
X132825464Y-137746158D01*
X132825461Y-137746163D01*
X132764957Y-137892234D01*
X132764955Y-137892239D01*
X132745806Y-138037696D01*
X132744318Y-138049000D01*
X132748439Y-138080301D01*
X132749500Y-138096487D01*
X132749500Y-146018655D01*
X132729815Y-146085694D01*
X132684519Y-146127709D01*
X132581376Y-146183528D01*
X132581365Y-146183535D01*
X132398222Y-146326081D01*
X132398219Y-146326084D01*
X132241015Y-146496854D01*
X132203808Y-146553804D01*
X132150662Y-146599161D01*
X132081430Y-146608584D01*
X132018095Y-146579082D01*
X131996192Y-146553804D01*
X131958984Y-146496854D01*
X131958982Y-146496852D01*
X131958979Y-146496847D01*
X131801784Y-146326087D01*
X131801779Y-146326083D01*
X131801777Y-146326081D01*
X131618634Y-146183535D01*
X131618628Y-146183531D01*
X131414504Y-146073064D01*
X131414495Y-146073061D01*
X131194984Y-145997702D01*
X131023282Y-145969050D01*
X130966049Y-145959500D01*
X130733951Y-145959500D01*
X130688164Y-145967140D01*
X130505015Y-145997702D01*
X130285504Y-146073061D01*
X130285495Y-146073064D01*
X130081371Y-146183531D01*
X130081365Y-146183535D01*
X129898222Y-146326081D01*
X129898219Y-146326084D01*
X129741016Y-146496852D01*
X129614075Y-146691151D01*
X129520842Y-146903699D01*
X129463866Y-147128691D01*
X129463864Y-147128702D01*
X129444700Y-147359993D01*
X129444700Y-147360006D01*
X129463864Y-147591297D01*
X129463866Y-147591308D01*
X129520842Y-147816300D01*
X129614075Y-148028848D01*
X129698215Y-148157633D01*
X129741021Y-148223153D01*
X129742011Y-148224228D01*
X129808391Y-148296337D01*
X129839313Y-148358991D01*
X129831452Y-148428417D01*
X129787305Y-148482573D01*
X129760494Y-148496501D01*
X129707671Y-148516202D01*
X129707664Y-148516206D01*
X129592455Y-148602452D01*
X129592452Y-148602455D01*
X129506206Y-148717664D01*
X129506202Y-148717671D01*
X129455908Y-148852517D01*
X129449501Y-148912116D01*
X129449500Y-148912135D01*
X129449500Y-150807870D01*
X129449501Y-150807876D01*
X129455908Y-150867483D01*
X129506202Y-151002328D01*
X129506206Y-151002335D01*
X129592452Y-151117544D01*
X129592455Y-151117547D01*
X129707664Y-151203793D01*
X129707671Y-151203797D01*
X129842517Y-151254091D01*
X129842516Y-151254091D01*
X129849444Y-151254835D01*
X129902127Y-151260500D01*
X131797872Y-151260499D01*
X131857483Y-151254091D01*
X131992331Y-151203796D01*
X132107546Y-151117546D01*
X132193796Y-151002331D01*
X132212092Y-150953274D01*
X132253961Y-150897342D01*
X132319425Y-150872924D01*
X132387699Y-150887775D01*
X132404436Y-150898755D01*
X132581365Y-151036464D01*
X132581371Y-151036468D01*
X132581374Y-151036470D01*
X132731185Y-151117544D01*
X132784652Y-151146479D01*
X132785497Y-151146936D01*
X132899487Y-151186068D01*
X133005015Y-151222297D01*
X133005017Y-151222297D01*
X133005019Y-151222298D01*
X133233951Y-151260500D01*
X133233952Y-151260500D01*
X133466048Y-151260500D01*
X133466049Y-151260500D01*
X133694981Y-151222298D01*
X133914503Y-151146936D01*
X134118626Y-151036470D01*
X134119170Y-151036047D01*
X134225513Y-150953277D01*
X134301784Y-150893913D01*
X134458979Y-150723153D01*
X134496491Y-150665736D01*
X134549634Y-150620382D01*
X134618865Y-150610957D01*
X134682201Y-150640458D01*
X134696914Y-150657436D01*
X134698811Y-150657633D01*
X135366922Y-149989522D01*
X135390507Y-150069844D01*
X135468239Y-150190798D01*
X135576900Y-150284952D01*
X135707685Y-150344680D01*
X135717466Y-150346086D01*
X135051201Y-151012351D01*
X135081649Y-151036050D01*
X135285697Y-151146476D01*
X135285706Y-151146479D01*
X135505139Y-151221811D01*
X135733993Y-151260000D01*
X135966007Y-151260000D01*
X136194860Y-151221811D01*
X136414293Y-151146479D01*
X136414301Y-151146476D01*
X136618355Y-151036047D01*
X136648797Y-151012351D01*
X136648798Y-151012350D01*
X135982534Y-150346086D01*
X135992315Y-150344680D01*
X136123100Y-150284952D01*
X136231761Y-150190798D01*
X136309493Y-150069844D01*
X136333076Y-149989523D01*
X137001186Y-150657633D01*
X137085482Y-150528611D01*
X137178682Y-150316135D01*
X137235638Y-150091218D01*
X137254798Y-149860005D01*
X137254798Y-149859994D01*
X137235638Y-149628781D01*
X137178682Y-149403864D01*
X137085484Y-149191393D01*
X137001186Y-149062365D01*
X136333076Y-149730475D01*
X136309493Y-149650156D01*
X136231761Y-149529202D01*
X136123100Y-149435048D01*
X135992315Y-149375320D01*
X135982532Y-149373913D01*
X136648797Y-148707647D01*
X136648786Y-148707469D01*
X136608249Y-148651141D01*
X136604576Y-148581368D01*
X136639207Y-148520685D01*
X136648796Y-148512376D01*
X136648798Y-148512351D01*
X135982533Y-147846086D01*
X135992315Y-147844680D01*
X136123100Y-147784952D01*
X136231761Y-147690798D01*
X136309493Y-147569844D01*
X136333076Y-147489523D01*
X137001186Y-148157633D01*
X137085482Y-148028611D01*
X137178682Y-147816135D01*
X137235638Y-147591218D01*
X137254798Y-147360005D01*
X137254798Y-147359994D01*
X137235638Y-147128781D01*
X137178682Y-146903864D01*
X137085484Y-146691393D01*
X137001186Y-146562365D01*
X136333076Y-147230475D01*
X136309493Y-147150156D01*
X136231761Y-147029202D01*
X136123100Y-146935048D01*
X135992315Y-146875320D01*
X135982532Y-146873913D01*
X136648797Y-146207647D01*
X136648797Y-146207645D01*
X136618360Y-146183955D01*
X136618354Y-146183951D01*
X136414302Y-146073523D01*
X136414293Y-146073520D01*
X136194860Y-145998188D01*
X135966007Y-145960000D01*
X135733993Y-145960000D01*
X135505142Y-145998187D01*
X135414762Y-146029215D01*
X135344964Y-146032364D01*
X135284542Y-145997277D01*
X135252682Y-145935094D01*
X135250500Y-145911933D01*
X135250500Y-144618028D01*
X136099500Y-144618028D01*
X136099501Y-144618034D01*
X136110113Y-144737415D01*
X136166089Y-144933045D01*
X136166090Y-144933048D01*
X136166091Y-144933049D01*
X136260302Y-145113407D01*
X136260304Y-145113409D01*
X136388890Y-145271109D01*
X136433814Y-145307739D01*
X136546593Y-145399698D01*
X136726951Y-145493909D01*
X136922582Y-145549886D01*
X137041963Y-145560500D01*
X139158036Y-145560499D01*
X139277418Y-145549886D01*
X139473049Y-145493909D01*
X139653407Y-145399698D01*
X139811109Y-145271109D01*
X139939698Y-145113407D01*
X140033909Y-144933049D01*
X140089886Y-144737418D01*
X140100500Y-144618037D01*
X140100500Y-144618028D01*
X146284500Y-144618028D01*
X146284501Y-144618034D01*
X146295113Y-144737415D01*
X146351089Y-144933045D01*
X146351090Y-144933048D01*
X146351091Y-144933049D01*
X146445302Y-145113407D01*
X146445304Y-145113409D01*
X146573890Y-145271109D01*
X146618814Y-145307739D01*
X146731593Y-145399698D01*
X146911951Y-145493909D01*
X147107582Y-145549886D01*
X147226963Y-145560500D01*
X149343036Y-145560499D01*
X149462418Y-145549886D01*
X149658049Y-145493909D01*
X149838407Y-145399698D01*
X149996109Y-145271109D01*
X150124698Y-145113407D01*
X150218909Y-144933049D01*
X150274886Y-144737418D01*
X150285500Y-144618037D01*
X150285499Y-143501964D01*
X150274886Y-143382582D01*
X150218909Y-143186951D01*
X150124698Y-143006593D01*
X150072684Y-142942803D01*
X149996109Y-142848890D01*
X149838409Y-142720304D01*
X149838410Y-142720304D01*
X149838407Y-142720302D01*
X149658049Y-142626091D01*
X149658048Y-142626090D01*
X149658045Y-142626089D01*
X149540829Y-142592550D01*
X149462418Y-142570114D01*
X149462415Y-142570113D01*
X149462413Y-142570113D01*
X149396102Y-142564217D01*
X149343037Y-142559500D01*
X149343032Y-142559500D01*
X147226971Y-142559500D01*
X147226965Y-142559500D01*
X147226964Y-142559501D01*
X147215316Y-142560536D01*
X147107584Y-142570113D01*
X146911954Y-142626089D01*
X146821772Y-142673196D01*
X146731593Y-142720302D01*
X146731591Y-142720303D01*
X146731590Y-142720304D01*
X146573890Y-142848890D01*
X146445304Y-143006590D01*
X146351089Y-143186954D01*
X146295114Y-143382583D01*
X146295113Y-143382586D01*
X146284500Y-143501966D01*
X146284500Y-144618028D01*
X140100500Y-144618028D01*
X140100499Y-143501964D01*
X140089886Y-143382582D01*
X140033909Y-143186951D01*
X139939698Y-143006593D01*
X139887684Y-142942803D01*
X139811109Y-142848890D01*
X139653409Y-142720304D01*
X139653410Y-142720304D01*
X139653407Y-142720302D01*
X139473049Y-142626091D01*
X139473048Y-142626090D01*
X139473045Y-142626089D01*
X139355829Y-142592550D01*
X139277418Y-142570114D01*
X139277415Y-142570113D01*
X139277413Y-142570113D01*
X139211102Y-142564217D01*
X139158037Y-142559500D01*
X139158032Y-142559500D01*
X137041971Y-142559500D01*
X137041965Y-142559500D01*
X137041964Y-142559501D01*
X137030316Y-142560536D01*
X136922584Y-142570113D01*
X136726954Y-142626089D01*
X136636772Y-142673196D01*
X136546593Y-142720302D01*
X136546591Y-142720303D01*
X136546590Y-142720304D01*
X136388890Y-142848890D01*
X136260304Y-143006590D01*
X136166089Y-143186954D01*
X136110114Y-143382583D01*
X136110113Y-143382586D01*
X136099500Y-143501966D01*
X136099500Y-144618028D01*
X135250500Y-144618028D01*
X135250500Y-138827097D01*
X135270185Y-138760058D01*
X135286819Y-138739416D01*
X144486235Y-129540000D01*
X147430540Y-129540000D01*
X147450326Y-129728256D01*
X147450327Y-129728259D01*
X147508818Y-129908277D01*
X147508821Y-129908284D01*
X147603467Y-130072216D01*
X147647876Y-130121537D01*
X147730129Y-130212888D01*
X147883265Y-130324148D01*
X147883270Y-130324151D01*
X148056192Y-130401142D01*
X148056197Y-130401144D01*
X148241354Y-130440500D01*
X148241355Y-130440500D01*
X148430644Y-130440500D01*
X148430646Y-130440500D01*
X148615803Y-130401144D01*
X148788730Y-130324151D01*
X148941871Y-130212888D01*
X149068533Y-130072216D01*
X149163179Y-129908284D01*
X149221674Y-129728256D01*
X149241460Y-129540000D01*
X149221674Y-129351744D01*
X149163179Y-129171716D01*
X149068533Y-129007784D01*
X148941871Y-128867112D01*
X148932473Y-128860284D01*
X148788734Y-128755851D01*
X148788729Y-128755848D01*
X148615807Y-128678857D01*
X148615802Y-128678855D01*
X148470001Y-128647865D01*
X148430646Y-128639500D01*
X148241354Y-128639500D01*
X148208897Y-128646398D01*
X148056197Y-128678855D01*
X148056192Y-128678857D01*
X147883270Y-128755848D01*
X147883265Y-128755851D01*
X147730129Y-128867111D01*
X147603466Y-129007785D01*
X147508821Y-129171715D01*
X147508818Y-129171722D01*
X147450327Y-129351740D01*
X147450326Y-129351744D01*
X147430540Y-129540000D01*
X144486235Y-129540000D01*
X153247416Y-120778819D01*
X153308739Y-120745334D01*
X153335097Y-120742500D01*
X159439952Y-120742500D01*
X159506991Y-120762185D01*
X159552746Y-120814989D01*
X159562690Y-120884147D01*
X159533665Y-120947703D01*
X159527633Y-120954181D01*
X150865965Y-129615848D01*
X150853774Y-129626540D01*
X150828718Y-129645767D01*
X150804549Y-129677263D01*
X150804550Y-129677264D01*
X150732464Y-129771208D01*
X150732461Y-129771213D01*
X150671957Y-129917284D01*
X150671955Y-129917289D01*
X150651318Y-130074048D01*
X150651318Y-130074049D01*
X150655439Y-130105351D01*
X150656500Y-130121537D01*
X150656500Y-145534512D01*
X150655439Y-145550697D01*
X150651318Y-145581998D01*
X150651318Y-145582000D01*
X150656500Y-145621360D01*
X150656500Y-145621361D01*
X150671955Y-145738760D01*
X150671956Y-145738762D01*
X150692371Y-145788047D01*
X150699840Y-145857516D01*
X150668565Y-145919996D01*
X150608476Y-145955648D01*
X150577810Y-145959500D01*
X150418951Y-145959500D01*
X150373164Y-145967140D01*
X150190015Y-145997702D01*
X149970504Y-146073061D01*
X149970495Y-146073064D01*
X149766371Y-146183531D01*
X149766365Y-146183535D01*
X149583222Y-146326081D01*
X149583219Y-146326084D01*
X149426016Y-146496852D01*
X149299075Y-146691151D01*
X149205842Y-146903699D01*
X149148866Y-147128691D01*
X149148864Y-147128702D01*
X149129700Y-147359993D01*
X149129700Y-147360006D01*
X149148864Y-147591297D01*
X149148866Y-147591308D01*
X149205842Y-147816300D01*
X149299075Y-148028848D01*
X149383215Y-148157633D01*
X149426021Y-148223153D01*
X149427011Y-148224228D01*
X149493391Y-148296337D01*
X149524313Y-148358991D01*
X149516452Y-148428417D01*
X149472305Y-148482573D01*
X149445494Y-148496501D01*
X149392671Y-148516202D01*
X149392664Y-148516206D01*
X149277455Y-148602452D01*
X149277452Y-148602455D01*
X149191206Y-148717664D01*
X149191202Y-148717671D01*
X149140908Y-148852517D01*
X149134501Y-148912116D01*
X149134500Y-148912135D01*
X149134500Y-150807870D01*
X149134501Y-150807876D01*
X149140908Y-150867483D01*
X149191202Y-151002328D01*
X149191206Y-151002335D01*
X149277452Y-151117544D01*
X149277455Y-151117547D01*
X149392664Y-151203793D01*
X149392671Y-151203797D01*
X149527517Y-151254091D01*
X149527516Y-151254091D01*
X149534444Y-151254835D01*
X149587127Y-151260500D01*
X151482872Y-151260499D01*
X151542483Y-151254091D01*
X151677331Y-151203796D01*
X151792546Y-151117546D01*
X151878796Y-151002331D01*
X151897092Y-150953274D01*
X151938961Y-150897342D01*
X152004425Y-150872924D01*
X152072699Y-150887775D01*
X152089436Y-150898755D01*
X152266365Y-151036464D01*
X152266371Y-151036468D01*
X152266374Y-151036470D01*
X152416185Y-151117544D01*
X152469652Y-151146479D01*
X152470497Y-151146936D01*
X152584487Y-151186068D01*
X152690015Y-151222297D01*
X152690017Y-151222297D01*
X152690019Y-151222298D01*
X152918951Y-151260500D01*
X152918952Y-151260500D01*
X153151048Y-151260500D01*
X153151049Y-151260500D01*
X153379981Y-151222298D01*
X153599503Y-151146936D01*
X153803626Y-151036470D01*
X153804170Y-151036047D01*
X153910513Y-150953277D01*
X153986784Y-150893913D01*
X154143979Y-150723153D01*
X154181491Y-150665736D01*
X154234634Y-150620382D01*
X154303865Y-150610957D01*
X154367201Y-150640458D01*
X154381914Y-150657436D01*
X154383811Y-150657633D01*
X155051922Y-149989522D01*
X155075507Y-150069844D01*
X155153239Y-150190798D01*
X155261900Y-150284952D01*
X155392685Y-150344680D01*
X155402466Y-150346086D01*
X154736201Y-151012351D01*
X154766649Y-151036050D01*
X154970697Y-151146476D01*
X154970706Y-151146479D01*
X155190139Y-151221811D01*
X155418993Y-151260000D01*
X155651007Y-151260000D01*
X155879860Y-151221811D01*
X156099293Y-151146479D01*
X156099301Y-151146476D01*
X156303355Y-151036047D01*
X156333797Y-151012351D01*
X156333798Y-151012350D01*
X155667534Y-150346086D01*
X155677315Y-150344680D01*
X155808100Y-150284952D01*
X155916761Y-150190798D01*
X155994493Y-150069844D01*
X156018076Y-149989523D01*
X156686186Y-150657633D01*
X156770482Y-150528611D01*
X156863682Y-150316135D01*
X156920638Y-150091218D01*
X156939798Y-149860005D01*
X156939798Y-149859994D01*
X156920638Y-149628781D01*
X156863682Y-149403864D01*
X156770484Y-149191393D01*
X156686186Y-149062365D01*
X156018076Y-149730475D01*
X155994493Y-149650156D01*
X155916761Y-149529202D01*
X155808100Y-149435048D01*
X155677315Y-149375320D01*
X155667532Y-149373913D01*
X156333797Y-148707647D01*
X156333786Y-148707469D01*
X156293249Y-148651141D01*
X156289576Y-148581368D01*
X156324207Y-148520685D01*
X156333796Y-148512376D01*
X156333798Y-148512351D01*
X155667533Y-147846086D01*
X155677315Y-147844680D01*
X155808100Y-147784952D01*
X155916761Y-147690798D01*
X155994493Y-147569844D01*
X156018076Y-147489523D01*
X156686186Y-148157633D01*
X156770482Y-148028611D01*
X156863682Y-147816135D01*
X156920638Y-147591218D01*
X156939798Y-147360005D01*
X156939798Y-147359994D01*
X156920638Y-147128781D01*
X156863682Y-146903864D01*
X156770484Y-146691393D01*
X156686186Y-146562365D01*
X156018076Y-147230475D01*
X155994493Y-147150156D01*
X155916761Y-147029202D01*
X155808100Y-146935048D01*
X155677315Y-146875320D01*
X155667532Y-146873913D01*
X156333797Y-146207647D01*
X156333797Y-146207645D01*
X156303360Y-146183955D01*
X156303354Y-146183951D01*
X156099302Y-146073523D01*
X156099293Y-146073520D01*
X155879860Y-145998188D01*
X155651007Y-145960000D01*
X155418993Y-145960000D01*
X155190138Y-145998188D01*
X155190136Y-145998188D01*
X155069762Y-146039513D01*
X154999964Y-146042663D01*
X154939543Y-146007576D01*
X154907682Y-145945394D01*
X154905500Y-145922232D01*
X154905500Y-145081487D01*
X154906561Y-145065301D01*
X154910682Y-145034000D01*
X154910682Y-145033998D01*
X154890044Y-144877239D01*
X154890044Y-144877238D01*
X154829536Y-144731159D01*
X154742728Y-144618028D01*
X155784500Y-144618028D01*
X155784501Y-144618034D01*
X155795113Y-144737415D01*
X155851089Y-144933045D01*
X155851090Y-144933048D01*
X155851091Y-144933049D01*
X155945302Y-145113407D01*
X155945304Y-145113409D01*
X156073890Y-145271109D01*
X156118814Y-145307739D01*
X156231593Y-145399698D01*
X156411951Y-145493909D01*
X156607582Y-145549886D01*
X156726963Y-145560500D01*
X158843036Y-145560499D01*
X158962418Y-145549886D01*
X159158049Y-145493909D01*
X159338407Y-145399698D01*
X159496109Y-145271109D01*
X159624698Y-145113407D01*
X159718909Y-144933049D01*
X159774886Y-144737418D01*
X159785500Y-144618037D01*
X159785499Y-143501964D01*
X159774886Y-143382582D01*
X159718909Y-143186951D01*
X159624698Y-143006593D01*
X159572684Y-142942803D01*
X159496109Y-142848890D01*
X159338409Y-142720304D01*
X159338410Y-142720304D01*
X159338407Y-142720302D01*
X159158049Y-142626091D01*
X159158048Y-142626090D01*
X159158045Y-142626089D01*
X159040829Y-142592550D01*
X158962418Y-142570114D01*
X158962415Y-142570113D01*
X158962413Y-142570113D01*
X158896102Y-142564217D01*
X158843037Y-142559500D01*
X158843032Y-142559500D01*
X156726971Y-142559500D01*
X156726965Y-142559500D01*
X156726964Y-142559501D01*
X156715316Y-142560536D01*
X156607584Y-142570113D01*
X156411954Y-142626089D01*
X156321772Y-142673196D01*
X156231593Y-142720302D01*
X156231591Y-142720303D01*
X156231590Y-142720304D01*
X156073890Y-142848890D01*
X155945304Y-143006590D01*
X155851089Y-143186954D01*
X155795114Y-143382583D01*
X155795113Y-143382586D01*
X155784500Y-143501966D01*
X155784500Y-144618028D01*
X154742728Y-144618028D01*
X154733282Y-144605718D01*
X154733280Y-144605716D01*
X154733279Y-144605715D01*
X154708228Y-144586493D01*
X154696034Y-144575799D01*
X152909819Y-142789584D01*
X152876334Y-142728261D01*
X152873500Y-142701903D01*
X152873500Y-137291187D01*
X154459500Y-137291187D01*
X154479794Y-137425823D01*
X154498604Y-137550615D01*
X154498605Y-137550617D01*
X154498606Y-137550623D01*
X154575938Y-137801326D01*
X154689767Y-138037696D01*
X154689768Y-138037697D01*
X154689770Y-138037700D01*
X154689772Y-138037704D01*
X154729850Y-138096487D01*
X154837567Y-138254479D01*
X155016014Y-138446801D01*
X155016018Y-138446804D01*
X155016019Y-138446805D01*
X155221143Y-138610386D01*
X155448357Y-138741568D01*
X155692584Y-138837420D01*
X155948370Y-138895802D01*
X155948376Y-138895802D01*
X155948379Y-138895803D01*
X156144484Y-138910499D01*
X156144503Y-138910499D01*
X156144506Y-138910500D01*
X156144508Y-138910500D01*
X156275492Y-138910500D01*
X156275494Y-138910500D01*
X156275496Y-138910499D01*
X156275515Y-138910499D01*
X156471620Y-138895803D01*
X156471622Y-138895802D01*
X156471630Y-138895802D01*
X156727416Y-138837420D01*
X156971643Y-138741568D01*
X157198857Y-138610386D01*
X157403981Y-138446805D01*
X157582433Y-138254479D01*
X157730228Y-138037704D01*
X157844063Y-137801323D01*
X157921396Y-137550615D01*
X157960500Y-137291182D01*
X157960500Y-137028818D01*
X157921396Y-136769385D01*
X157844063Y-136518677D01*
X157812699Y-136453548D01*
X157730232Y-136282303D01*
X157730231Y-136282302D01*
X157730230Y-136282301D01*
X157730228Y-136282296D01*
X157582433Y-136065521D01*
X157534891Y-136014283D01*
X157403985Y-135873198D01*
X157364533Y-135841736D01*
X157198857Y-135709614D01*
X156971643Y-135578432D01*
X156727416Y-135482580D01*
X156727411Y-135482578D01*
X156727402Y-135482576D01*
X156509818Y-135432914D01*
X156471630Y-135424198D01*
X156471629Y-135424197D01*
X156471625Y-135424197D01*
X156471620Y-135424196D01*
X156275515Y-135409500D01*
X156275494Y-135409500D01*
X156144506Y-135409500D01*
X156144484Y-135409500D01*
X155948379Y-135424196D01*
X155948374Y-135424197D01*
X155692597Y-135482576D01*
X155692578Y-135482582D01*
X155448356Y-135578432D01*
X155221143Y-135709614D01*
X155016014Y-135873198D01*
X154837567Y-136065520D01*
X154779242Y-136151068D01*
X154702012Y-136264344D01*
X154689768Y-136282302D01*
X154689767Y-136282303D01*
X154575938Y-136518673D01*
X154498606Y-136769376D01*
X154498605Y-136769381D01*
X154498604Y-136769385D01*
X154483853Y-136867247D01*
X154459500Y-137028812D01*
X154459500Y-137291187D01*
X152873500Y-137291187D01*
X152873500Y-132847000D01*
X160569341Y-132847000D01*
X160589936Y-133082403D01*
X160589938Y-133082413D01*
X160651094Y-133310655D01*
X160651096Y-133310659D01*
X160651097Y-133310663D01*
X160687254Y-133388201D01*
X160750965Y-133524830D01*
X160750967Y-133524834D01*
X160808258Y-133606653D01*
X160886501Y-133718396D01*
X160886506Y-133718402D01*
X161008430Y-133840326D01*
X161041915Y-133901649D01*
X161036931Y-133971341D01*
X160995059Y-134027274D01*
X160964083Y-134044189D01*
X160832669Y-134093203D01*
X160832664Y-134093206D01*
X160717455Y-134179452D01*
X160717452Y-134179455D01*
X160631206Y-134294664D01*
X160631202Y-134294671D01*
X160580908Y-134429517D01*
X160574783Y-134486492D01*
X160574501Y-134489123D01*
X160574500Y-134489135D01*
X160574500Y-136284870D01*
X160574501Y-136284876D01*
X160580908Y-136344483D01*
X160631202Y-136479328D01*
X160631206Y-136479335D01*
X160717452Y-136594544D01*
X160717455Y-136594547D01*
X160832664Y-136680793D01*
X160832671Y-136680797D01*
X160967517Y-136731091D01*
X160967516Y-136731091D01*
X160974444Y-136731835D01*
X161027127Y-136737500D01*
X162822872Y-136737499D01*
X162882483Y-136731091D01*
X163017331Y-136680796D01*
X163132546Y-136594546D01*
X163218796Y-136479331D01*
X163269091Y-136344483D01*
X163275500Y-136284873D01*
X163275499Y-134489128D01*
X163269091Y-134429517D01*
X163232395Y-134331131D01*
X163218797Y-134294671D01*
X163218793Y-134294664D01*
X163132547Y-134179455D01*
X163132544Y-134179452D01*
X163017335Y-134093206D01*
X163017328Y-134093202D01*
X162885917Y-134044189D01*
X162829983Y-134002318D01*
X162805566Y-133936853D01*
X162820418Y-133868580D01*
X162841563Y-133840332D01*
X162963495Y-133718401D01*
X163099035Y-133524830D01*
X163198903Y-133310663D01*
X163260063Y-133082408D01*
X163280659Y-132847000D01*
X163260063Y-132611592D01*
X163198903Y-132383337D01*
X163143790Y-132265147D01*
X167895900Y-132265147D01*
X167897465Y-132304905D01*
X167899001Y-132324365D01*
X167903684Y-132363842D01*
X167903686Y-132363852D01*
X167903687Y-132363854D01*
X167936872Y-132471036D01*
X167940648Y-132483235D01*
X167946241Y-132501298D01*
X167953596Y-132516799D01*
X167972196Y-132555998D01*
X167974404Y-132561726D01*
X168002813Y-132604538D01*
X168055747Y-132684310D01*
X168165853Y-132776928D01*
X168225178Y-132813837D01*
X168225181Y-132813838D01*
X168225184Y-132813840D01*
X168300702Y-132846999D01*
X168356918Y-132871683D01*
X172377088Y-133988396D01*
X172436412Y-134025305D01*
X172466365Y-134088428D01*
X172467899Y-134107872D01*
X172467899Y-147729389D01*
X172467901Y-147729409D01*
X172479452Y-147836850D01*
X172479454Y-147836862D01*
X172490660Y-147888372D01*
X172524783Y-147990897D01*
X172524786Y-147990903D01*
X172602571Y-148111937D01*
X172602579Y-148111948D01*
X172648323Y-148164740D01*
X172648326Y-148164743D01*
X172648330Y-148164747D01*
X172757064Y-148258967D01*
X172757067Y-148258968D01*
X172757068Y-148258969D01*
X172851325Y-148302016D01*
X172887941Y-148318738D01*
X172954980Y-148338423D01*
X172954984Y-148338424D01*
X173097400Y-148358900D01*
X173097403Y-148358900D01*
X174373390Y-148358900D01*
X174373400Y-148358900D01*
X174480856Y-148347347D01*
X174532367Y-148336141D01*
X174566597Y-148324747D01*
X174634897Y-148302016D01*
X174634901Y-148302013D01*
X174634904Y-148302013D01*
X174755943Y-148224225D01*
X174808747Y-148178470D01*
X174902967Y-148069736D01*
X174962738Y-147938859D01*
X174982423Y-147871820D01*
X174982424Y-147871816D01*
X175002900Y-147729400D01*
X175002900Y-132516800D01*
X177714341Y-132516800D01*
X177734936Y-132752203D01*
X177734938Y-132752213D01*
X177796094Y-132980455D01*
X177796096Y-132980459D01*
X177796097Y-132980463D01*
X177843633Y-133082403D01*
X177895965Y-133194630D01*
X177895967Y-133194634D01*
X177977212Y-133310663D01*
X178031501Y-133388196D01*
X178031506Y-133388202D01*
X178153430Y-133510126D01*
X178186915Y-133571449D01*
X178181931Y-133641141D01*
X178140059Y-133697074D01*
X178109083Y-133713989D01*
X177977669Y-133763003D01*
X177977664Y-133763006D01*
X177862455Y-133849252D01*
X177862452Y-133849255D01*
X177776206Y-133964464D01*
X177776202Y-133964471D01*
X177725908Y-134099317D01*
X177719501Y-134158916D01*
X177719501Y-134158923D01*
X177719500Y-134158935D01*
X177719500Y-135954670D01*
X177719501Y-135954676D01*
X177725908Y-136014283D01*
X177776202Y-136149128D01*
X177776206Y-136149135D01*
X177862452Y-136264344D01*
X177862455Y-136264347D01*
X177977664Y-136350593D01*
X177977671Y-136350597D01*
X178112517Y-136400891D01*
X178112516Y-136400891D01*
X178119444Y-136401635D01*
X178172127Y-136407300D01*
X179967872Y-136407299D01*
X180027483Y-136400891D01*
X180162331Y-136350596D01*
X180277546Y-136264346D01*
X180363796Y-136149131D01*
X180414091Y-136014283D01*
X180420500Y-135954673D01*
X180420499Y-134158928D01*
X180414091Y-134099317D01*
X180411810Y-134093202D01*
X180363797Y-133964471D01*
X180363793Y-133964464D01*
X180277547Y-133849255D01*
X180277544Y-133849252D01*
X180162335Y-133763006D01*
X180162328Y-133763002D01*
X180030917Y-133713989D01*
X179974983Y-133672118D01*
X179950566Y-133606653D01*
X179965418Y-133538380D01*
X179986563Y-133510132D01*
X180108495Y-133388201D01*
X180244035Y-133194630D01*
X180343903Y-132980463D01*
X180405063Y-132752208D01*
X180425659Y-132516800D01*
X180424302Y-132501295D01*
X180413982Y-132383335D01*
X180405063Y-132281392D01*
X180343903Y-132053137D01*
X180244035Y-131838971D01*
X180222704Y-131808506D01*
X180108494Y-131645397D01*
X179941402Y-131478306D01*
X179941395Y-131478301D01*
X179914994Y-131459815D01*
X179872679Y-131430185D01*
X179747834Y-131342767D01*
X179747830Y-131342765D01*
X179601000Y-131274297D01*
X179533663Y-131242897D01*
X179533659Y-131242896D01*
X179533655Y-131242894D01*
X179305413Y-131181738D01*
X179305403Y-131181736D01*
X179070001Y-131161141D01*
X179069999Y-131161141D01*
X178834596Y-131181736D01*
X178834586Y-131181738D01*
X178606344Y-131242894D01*
X178606337Y-131242896D01*
X178606337Y-131242897D01*
X178592816Y-131249201D01*
X178392171Y-131342764D01*
X178392169Y-131342765D01*
X178198597Y-131478305D01*
X178031505Y-131645397D01*
X177895965Y-131838969D01*
X177895964Y-131838971D01*
X177796098Y-132053135D01*
X177796094Y-132053144D01*
X177734938Y-132281386D01*
X177734936Y-132281396D01*
X177714341Y-132516799D01*
X177714341Y-132516800D01*
X175002900Y-132516800D01*
X175002900Y-132198400D01*
X175001580Y-132161889D01*
X175000286Y-132144020D01*
X174996330Y-132107685D01*
X174955544Y-131969706D01*
X174926404Y-131906203D01*
X174848399Y-131785306D01*
X174848397Y-131785303D01*
X174739497Y-131691285D01*
X174710877Y-131672965D01*
X174680645Y-131653613D01*
X174680643Y-131653612D01*
X174680638Y-131653609D01*
X174549663Y-131594081D01*
X174477721Y-131573098D01*
X169606760Y-130152401D01*
X168701662Y-129888414D01*
X168701660Y-129888413D01*
X168701655Y-129888412D01*
X168690401Y-129885556D01*
X168667117Y-129879646D01*
X168650059Y-129875951D01*
X168614983Y-129869640D01*
X168471106Y-129869640D01*
X168440246Y-129874077D01*
X168401945Y-129879585D01*
X168401940Y-129879586D01*
X168401936Y-129879587D01*
X168263898Y-129920119D01*
X168263892Y-129920122D01*
X168142862Y-129997904D01*
X168142851Y-129997912D01*
X168090059Y-130043656D01*
X167995833Y-130152397D01*
X167995830Y-130152401D01*
X167936064Y-130283267D01*
X167916376Y-130350315D01*
X167895900Y-130492734D01*
X167895900Y-132265147D01*
X163143790Y-132265147D01*
X163099035Y-132169171D01*
X163093937Y-132161889D01*
X162963494Y-131975597D01*
X162796402Y-131808506D01*
X162796395Y-131808501D01*
X162602834Y-131672967D01*
X162602830Y-131672965D01*
X162602828Y-131672964D01*
X162388663Y-131573097D01*
X162388659Y-131573096D01*
X162388655Y-131573094D01*
X162160413Y-131511938D01*
X162160403Y-131511936D01*
X161925001Y-131491341D01*
X161924999Y-131491341D01*
X161689596Y-131511936D01*
X161689586Y-131511938D01*
X161461344Y-131573094D01*
X161461335Y-131573098D01*
X161247171Y-131672964D01*
X161247169Y-131672965D01*
X161053597Y-131808505D01*
X160886505Y-131975597D01*
X160750965Y-132169169D01*
X160750964Y-132169171D01*
X160651098Y-132383335D01*
X160651094Y-132383344D01*
X160589938Y-132611586D01*
X160589936Y-132611596D01*
X160569341Y-132846999D01*
X160569341Y-132847000D01*
X152873500Y-132847000D01*
X152873500Y-131999097D01*
X152893185Y-131932058D01*
X152909819Y-131911416D01*
X156329235Y-128492000D01*
X168734540Y-128492000D01*
X168754326Y-128680256D01*
X168754327Y-128680259D01*
X168812818Y-128860277D01*
X168812821Y-128860284D01*
X168907467Y-129024216D01*
X169034129Y-129164888D01*
X169187265Y-129276148D01*
X169187270Y-129276151D01*
X169360192Y-129353142D01*
X169360197Y-129353144D01*
X169545354Y-129392500D01*
X169545355Y-129392500D01*
X169734644Y-129392500D01*
X169734646Y-129392500D01*
X169919803Y-129353144D01*
X170092730Y-129276151D01*
X170245871Y-129164888D01*
X170372533Y-129024216D01*
X170467179Y-128860284D01*
X170525674Y-128680256D01*
X170545460Y-128492000D01*
X170525674Y-128303744D01*
X170467179Y-128123716D01*
X170372533Y-127959784D01*
X170245871Y-127819112D01*
X170245870Y-127819111D01*
X170092734Y-127707851D01*
X170092729Y-127707848D01*
X169919807Y-127630857D01*
X169919802Y-127630855D01*
X169774001Y-127599865D01*
X169734646Y-127591500D01*
X169545354Y-127591500D01*
X169512897Y-127598398D01*
X169360197Y-127630855D01*
X169360192Y-127630857D01*
X169187270Y-127707848D01*
X169187265Y-127707851D01*
X169034129Y-127819111D01*
X168907466Y-127959785D01*
X168812821Y-128123715D01*
X168812818Y-128123722D01*
X168754327Y-128303740D01*
X168754326Y-128303744D01*
X168734540Y-128492000D01*
X156329235Y-128492000D01*
X161456416Y-123364819D01*
X161517739Y-123331334D01*
X161544097Y-123328500D01*
X161638644Y-123328500D01*
X161638646Y-123328500D01*
X161823803Y-123289144D01*
X161996730Y-123212151D01*
X162149871Y-123100888D01*
X162276533Y-122960216D01*
X162371179Y-122796284D01*
X162429674Y-122616256D01*
X162449460Y-122428000D01*
X162429674Y-122239744D01*
X162371179Y-122059716D01*
X162369171Y-122053535D01*
X162370368Y-122053145D01*
X162361990Y-121990697D01*
X162391613Y-121927417D01*
X162450744Y-121890199D01*
X162484556Y-121885500D01*
X171657903Y-121885500D01*
X171724942Y-121905185D01*
X171745584Y-121921819D01*
X173912799Y-124089034D01*
X173923493Y-124101228D01*
X173942715Y-124126279D01*
X173942716Y-124126280D01*
X173942718Y-124126282D01*
X174068159Y-124222536D01*
X174214238Y-124283044D01*
X174292619Y-124293363D01*
X174370999Y-124303682D01*
X174371000Y-124303682D01*
X174402302Y-124299560D01*
X174418487Y-124298500D01*
X180502742Y-124298500D01*
X180569781Y-124318185D01*
X180594891Y-124339527D01*
X180623128Y-124370887D01*
X180623135Y-124370893D01*
X180776265Y-124482148D01*
X180776270Y-124482151D01*
X180949192Y-124559142D01*
X180949197Y-124559144D01*
X181134354Y-124598500D01*
X181134355Y-124598500D01*
X181323644Y-124598500D01*
X181323646Y-124598500D01*
X181508803Y-124559144D01*
X181681730Y-124482151D01*
X181834871Y-124370888D01*
X181961533Y-124230216D01*
X182056179Y-124066284D01*
X182114674Y-123886256D01*
X182134460Y-123698000D01*
X182114674Y-123509744D01*
X182056179Y-123329716D01*
X181961533Y-123165784D01*
X181834871Y-123025112D01*
X181820236Y-123014479D01*
X181681734Y-122913851D01*
X181681729Y-122913848D01*
X181508807Y-122836857D01*
X181508802Y-122836855D01*
X181363001Y-122805865D01*
X181323646Y-122797500D01*
X181134354Y-122797500D01*
X181101897Y-122804398D01*
X180949197Y-122836855D01*
X180949192Y-122836857D01*
X180776270Y-122913848D01*
X180776265Y-122913851D01*
X180623135Y-123025106D01*
X180623128Y-123025112D01*
X180594891Y-123056473D01*
X180535405Y-123093121D01*
X180502742Y-123097500D01*
X174671097Y-123097500D01*
X174604058Y-123077815D01*
X174583416Y-123061181D01*
X173188235Y-121666000D01*
X174227540Y-121666000D01*
X174247326Y-121854256D01*
X174247327Y-121854259D01*
X174305818Y-122034277D01*
X174305821Y-122034284D01*
X174400467Y-122198216D01*
X174467931Y-122273142D01*
X174527129Y-122338888D01*
X174680265Y-122450148D01*
X174680270Y-122450151D01*
X174853192Y-122527142D01*
X174853197Y-122527144D01*
X175038354Y-122566500D01*
X175038355Y-122566500D01*
X175227644Y-122566500D01*
X175227646Y-122566500D01*
X175412803Y-122527144D01*
X175585730Y-122450151D01*
X175738871Y-122338888D01*
X175865533Y-122198216D01*
X175960179Y-122034284D01*
X176018674Y-121854256D01*
X176038460Y-121666000D01*
X176018674Y-121477744D01*
X175960179Y-121297716D01*
X175865533Y-121133784D01*
X175738871Y-120993112D01*
X175738870Y-120993111D01*
X175585734Y-120881851D01*
X175585729Y-120881848D01*
X175412807Y-120804857D01*
X175412802Y-120804855D01*
X175267001Y-120773865D01*
X175227646Y-120765500D01*
X175038354Y-120765500D01*
X175005897Y-120772398D01*
X174853197Y-120804855D01*
X174853192Y-120804857D01*
X174680270Y-120881848D01*
X174680265Y-120881851D01*
X174527129Y-120993111D01*
X174400466Y-121133785D01*
X174305821Y-121297715D01*
X174305818Y-121297722D01*
X174247327Y-121477740D01*
X174247326Y-121477744D01*
X174227540Y-121666000D01*
X173188235Y-121666000D01*
X172416199Y-120893964D01*
X172405504Y-120881769D01*
X172386283Y-120856719D01*
X172345625Y-120825521D01*
X172260841Y-120760464D01*
X172209290Y-120739111D01*
X172114762Y-120699956D01*
X172114760Y-120699955D01*
X171997361Y-120684500D01*
X171958000Y-120679318D01*
X171926697Y-120683439D01*
X171910513Y-120684500D01*
X162484556Y-120684500D01*
X162417517Y-120664815D01*
X162371762Y-120612011D01*
X162361818Y-120542853D01*
X162369409Y-120516542D01*
X162369171Y-120516465D01*
X162384394Y-120469614D01*
X162429674Y-120330256D01*
X162449460Y-120142000D01*
X162429674Y-119953744D01*
X162408577Y-119888817D01*
X162406583Y-119818977D01*
X162442663Y-119759144D01*
X162505364Y-119728316D01*
X162526509Y-119726500D01*
X178642903Y-119726500D01*
X178709942Y-119746185D01*
X178730584Y-119762819D01*
X180287221Y-121319456D01*
X180320706Y-121380779D01*
X180323540Y-121407137D01*
X180323540Y-121411997D01*
X180323540Y-121412000D01*
X180343326Y-121600256D01*
X180343327Y-121600259D01*
X180401818Y-121780277D01*
X180401821Y-121780284D01*
X180496467Y-121944216D01*
X180594828Y-122053457D01*
X180623129Y-122084888D01*
X180776265Y-122196148D01*
X180776270Y-122196151D01*
X180949192Y-122273142D01*
X180949197Y-122273144D01*
X181134354Y-122312500D01*
X181134355Y-122312500D01*
X181323644Y-122312500D01*
X181323646Y-122312500D01*
X181508803Y-122273144D01*
X181681730Y-122196151D01*
X181834871Y-122084888D01*
X181961533Y-121944216D01*
X182056179Y-121780284D01*
X182114674Y-121600256D01*
X182134460Y-121412000D01*
X182114674Y-121223744D01*
X182056179Y-121043716D01*
X181961533Y-120879784D01*
X181834871Y-120739112D01*
X181834870Y-120739111D01*
X181681734Y-120627851D01*
X181681729Y-120627848D01*
X181508807Y-120550857D01*
X181508802Y-120550855D01*
X181347367Y-120516542D01*
X181323646Y-120511500D01*
X181323645Y-120511500D01*
X181229097Y-120511500D01*
X181162058Y-120491815D01*
X181141416Y-120475181D01*
X180869534Y-120203299D01*
X180836049Y-120141976D01*
X180841033Y-120072284D01*
X180882905Y-120016351D01*
X180948369Y-119991934D01*
X180982995Y-119994327D01*
X181134354Y-120026500D01*
X181134355Y-120026500D01*
X181323644Y-120026500D01*
X181323646Y-120026500D01*
X181508803Y-119987144D01*
X181681730Y-119910151D01*
X181834871Y-119798888D01*
X181961533Y-119658216D01*
X182056179Y-119494284D01*
X182114674Y-119314256D01*
X182134460Y-119126000D01*
X182114674Y-118937744D01*
X182056179Y-118757716D01*
X181961533Y-118593784D01*
X181834871Y-118453112D01*
X181834732Y-118453011D01*
X181681734Y-118341851D01*
X181681729Y-118341848D01*
X181508807Y-118264857D01*
X181508802Y-118264855D01*
X181363001Y-118233865D01*
X181323646Y-118225500D01*
X181323645Y-118225500D01*
X181229097Y-118225500D01*
X181162058Y-118205815D01*
X181141416Y-118189181D01*
X180869534Y-117917299D01*
X180836049Y-117855976D01*
X180841033Y-117786284D01*
X180882905Y-117730351D01*
X180948369Y-117705934D01*
X180982995Y-117708327D01*
X181134354Y-117740500D01*
X181134355Y-117740500D01*
X181323644Y-117740500D01*
X181323646Y-117740500D01*
X181508803Y-117701144D01*
X181681730Y-117624151D01*
X181834871Y-117512888D01*
X181961533Y-117372216D01*
X182056179Y-117208284D01*
X182114674Y-117028256D01*
X182134460Y-116840000D01*
X182114674Y-116651744D01*
X182056179Y-116471716D01*
X181961533Y-116307784D01*
X181834871Y-116167112D01*
X181834732Y-116167011D01*
X181681734Y-116055851D01*
X181681729Y-116055848D01*
X181508807Y-115978857D01*
X181508802Y-115978855D01*
X181363001Y-115947865D01*
X181323646Y-115939500D01*
X181323645Y-115939500D01*
X181229098Y-115939500D01*
X181162059Y-115919815D01*
X181141417Y-115903181D01*
X179147199Y-113908964D01*
X179136504Y-113896769D01*
X179117283Y-113871719D01*
X179117279Y-113871716D01*
X178991841Y-113775464D01*
X178845762Y-113714956D01*
X178845760Y-113714955D01*
X178728361Y-113699500D01*
X178689000Y-113694318D01*
X178657697Y-113698439D01*
X178641513Y-113699500D01*
X130857487Y-113699500D01*
X130841302Y-113698439D01*
X130810000Y-113694318D01*
X130770639Y-113699500D01*
X130653239Y-113714955D01*
X130653237Y-113714956D01*
X130507157Y-113775464D01*
X130381718Y-113871716D01*
X130362489Y-113896775D01*
X130351798Y-113908965D01*
X118170257Y-126090506D01*
X118108934Y-126123991D01*
X118039242Y-126119007D01*
X117983309Y-126077135D01*
X117958892Y-126011671D01*
X117964645Y-125964508D01*
X117979674Y-125918256D01*
X117999460Y-125730000D01*
X117979674Y-125541744D01*
X117921179Y-125361716D01*
X117826533Y-125197784D01*
X117699871Y-125057112D01*
X117699870Y-125057111D01*
X117546734Y-124945851D01*
X117546729Y-124945848D01*
X117373807Y-124868857D01*
X117373802Y-124868855D01*
X117228001Y-124837865D01*
X117188646Y-124829500D01*
X116999354Y-124829500D01*
X116966897Y-124836398D01*
X116814197Y-124868855D01*
X116814192Y-124868857D01*
X116641270Y-124945848D01*
X116641265Y-124945851D01*
X116488129Y-125057111D01*
X116361466Y-125197785D01*
X116266821Y-125361715D01*
X116266818Y-125361722D01*
X116218347Y-125510902D01*
X116208326Y-125541744D01*
X116188540Y-125730000D01*
X116208326Y-125918256D01*
X116208327Y-125918259D01*
X116266818Y-126098277D01*
X116266821Y-126098284D01*
X116361467Y-126262216D01*
X116477139Y-126390682D01*
X116488129Y-126402888D01*
X116641265Y-126514148D01*
X116641270Y-126514151D01*
X116814192Y-126591142D01*
X116814197Y-126591144D01*
X116999354Y-126630500D01*
X116999355Y-126630500D01*
X117188644Y-126630500D01*
X117188646Y-126630500D01*
X117340004Y-126598328D01*
X117409670Y-126603644D01*
X117465404Y-126645781D01*
X117489509Y-126711361D01*
X117474332Y-126779562D01*
X117453465Y-126807299D01*
X114087584Y-130173181D01*
X114026261Y-130206666D01*
X113999903Y-130209500D01*
X109580046Y-130209500D01*
X109513007Y-130189815D01*
X109467252Y-130137011D01*
X109457308Y-130067853D01*
X109472659Y-130023500D01*
X109487432Y-129997912D01*
X109539179Y-129908284D01*
X109597674Y-129728256D01*
X109617460Y-129540000D01*
X109597674Y-129351744D01*
X109539179Y-129171716D01*
X109444533Y-129007784D01*
X109317871Y-128867112D01*
X109308473Y-128860284D01*
X109164734Y-128755851D01*
X109164729Y-128755848D01*
X108991807Y-128678857D01*
X108991802Y-128678855D01*
X108846001Y-128647865D01*
X108806646Y-128639500D01*
X108617354Y-128639500D01*
X108584897Y-128646398D01*
X108432197Y-128678855D01*
X108432192Y-128678857D01*
X108259270Y-128755848D01*
X108259265Y-128755851D01*
X108106129Y-128867111D01*
X107979466Y-129007785D01*
X107884821Y-129171715D01*
X107884818Y-129171722D01*
X107826327Y-129351740D01*
X107826326Y-129351744D01*
X107806540Y-129540000D01*
X107826326Y-129728256D01*
X107826327Y-129728259D01*
X107884818Y-129908277D01*
X107884821Y-129908284D01*
X107951341Y-130023500D01*
X107967814Y-130091400D01*
X107944961Y-130157427D01*
X107890040Y-130200618D01*
X107843954Y-130209500D01*
X97837487Y-130209500D01*
X97821302Y-130208439D01*
X97790000Y-130204318D01*
X97750639Y-130209500D01*
X97633239Y-130224955D01*
X97633237Y-130224956D01*
X97487160Y-130285463D01*
X97361714Y-130381721D01*
X97342495Y-130406769D01*
X97331800Y-130418964D01*
X93419632Y-134331131D01*
X93407442Y-134341822D01*
X93382383Y-134361051D01*
X93304279Y-134462841D01*
X93304278Y-134462842D01*
X93286131Y-134486490D01*
X93225623Y-134632570D01*
X93225622Y-134632572D01*
X93204985Y-134789331D01*
X93204985Y-134789332D01*
X93209106Y-134820634D01*
X93210167Y-134836820D01*
X93210167Y-146018655D01*
X93190482Y-146085694D01*
X93145186Y-146127709D01*
X93042043Y-146183528D01*
X93042032Y-146183535D01*
X92858889Y-146326081D01*
X92858886Y-146326084D01*
X92701682Y-146496854D01*
X92664475Y-146553804D01*
X92611329Y-146599161D01*
X92542097Y-146608584D01*
X92478762Y-146579082D01*
X92456859Y-146553804D01*
X92419651Y-146496854D01*
X92419649Y-146496852D01*
X92419646Y-146496847D01*
X92262451Y-146326087D01*
X92262446Y-146326083D01*
X92262444Y-146326081D01*
X92079301Y-146183535D01*
X92079295Y-146183531D01*
X91875171Y-146073064D01*
X91875162Y-146073061D01*
X91655651Y-145997702D01*
X91483949Y-145969050D01*
X91426716Y-145959500D01*
X91194618Y-145959500D01*
X91148831Y-145967140D01*
X90965682Y-145997702D01*
X90746171Y-146073061D01*
X90746162Y-146073064D01*
X90542038Y-146183531D01*
X90542032Y-146183535D01*
X90358889Y-146326081D01*
X90358886Y-146326084D01*
X90201683Y-146496852D01*
X90074742Y-146691151D01*
X89981509Y-146903699D01*
X89924533Y-147128691D01*
X89924531Y-147128702D01*
X89905367Y-147359993D01*
X89905367Y-147360006D01*
X83820500Y-147360006D01*
X83820500Y-144618028D01*
X87060167Y-144618028D01*
X87060168Y-144618034D01*
X87070780Y-144737415D01*
X87126756Y-144933045D01*
X87126757Y-144933048D01*
X87126758Y-144933049D01*
X87220969Y-145113407D01*
X87220971Y-145113409D01*
X87349557Y-145271109D01*
X87394481Y-145307739D01*
X87507260Y-145399698D01*
X87687618Y-145493909D01*
X87883249Y-145549886D01*
X88002630Y-145560500D01*
X90118703Y-145560499D01*
X90238085Y-145549886D01*
X90433716Y-145493909D01*
X90614074Y-145399698D01*
X90771776Y-145271109D01*
X90900365Y-145113407D01*
X90994576Y-144933049D01*
X91050553Y-144737418D01*
X91061167Y-144618037D01*
X91061166Y-143501964D01*
X91050553Y-143382582D01*
X90994576Y-143186951D01*
X90900365Y-143006593D01*
X90848351Y-142942803D01*
X90771776Y-142848890D01*
X90614076Y-142720304D01*
X90614077Y-142720304D01*
X90614074Y-142720302D01*
X90433716Y-142626091D01*
X90433715Y-142626090D01*
X90433712Y-142626089D01*
X90316496Y-142592550D01*
X90238085Y-142570114D01*
X90238082Y-142570113D01*
X90238080Y-142570113D01*
X90171769Y-142564217D01*
X90118704Y-142559500D01*
X90118699Y-142559500D01*
X88002638Y-142559500D01*
X88002632Y-142559500D01*
X88002631Y-142559501D01*
X87990983Y-142560536D01*
X87883251Y-142570113D01*
X87687621Y-142626089D01*
X87597439Y-142673196D01*
X87507260Y-142720302D01*
X87507258Y-142720303D01*
X87507257Y-142720304D01*
X87349557Y-142848890D01*
X87220971Y-143006590D01*
X87126756Y-143186954D01*
X87070781Y-143382583D01*
X87070780Y-143382586D01*
X87060167Y-143501966D01*
X87060167Y-144618028D01*
X83820500Y-144618028D01*
X83820500Y-129540000D01*
X88629540Y-129540000D01*
X88649326Y-129728256D01*
X88649327Y-129728259D01*
X88707818Y-129908277D01*
X88707821Y-129908284D01*
X88802467Y-130072216D01*
X88846876Y-130121537D01*
X88929129Y-130212888D01*
X89082265Y-130324148D01*
X89082270Y-130324151D01*
X89255192Y-130401142D01*
X89255197Y-130401144D01*
X89440354Y-130440500D01*
X89440355Y-130440500D01*
X89629644Y-130440500D01*
X89629646Y-130440500D01*
X89814803Y-130401144D01*
X89987730Y-130324151D01*
X90140871Y-130212888D01*
X90267533Y-130072216D01*
X90362179Y-129908284D01*
X90420674Y-129728256D01*
X90440460Y-129540000D01*
X90420674Y-129351744D01*
X90362179Y-129171716D01*
X90267533Y-129007784D01*
X90140871Y-128867112D01*
X90131473Y-128860284D01*
X89987734Y-128755851D01*
X89987729Y-128755848D01*
X89814807Y-128678857D01*
X89814802Y-128678855D01*
X89669001Y-128647865D01*
X89629646Y-128639500D01*
X89440354Y-128639500D01*
X89407897Y-128646398D01*
X89255197Y-128678855D01*
X89255192Y-128678857D01*
X89082270Y-128755848D01*
X89082265Y-128755851D01*
X88929129Y-128867111D01*
X88802466Y-129007785D01*
X88707821Y-129171715D01*
X88707818Y-129171722D01*
X88649327Y-129351740D01*
X88649326Y-129351744D01*
X88629540Y-129540000D01*
X83820500Y-129540000D01*
X83820500Y-125730000D01*
X97011540Y-125730000D01*
X97031326Y-125918256D01*
X97031327Y-125918259D01*
X97089818Y-126098277D01*
X97089821Y-126098284D01*
X97184467Y-126262216D01*
X97300139Y-126390682D01*
X97311129Y-126402888D01*
X97464265Y-126514148D01*
X97464270Y-126514151D01*
X97637192Y-126591142D01*
X97637197Y-126591144D01*
X97822354Y-126630500D01*
X97822355Y-126630500D01*
X98011644Y-126630500D01*
X98011646Y-126630500D01*
X98196803Y-126591144D01*
X98369730Y-126514151D01*
X98522871Y-126402888D01*
X98649533Y-126262216D01*
X98744179Y-126098284D01*
X98802674Y-125918256D01*
X98822460Y-125730000D01*
X98802674Y-125541744D01*
X98744179Y-125361716D01*
X98649533Y-125197784D01*
X98522871Y-125057112D01*
X98522870Y-125057111D01*
X98369734Y-124945851D01*
X98369729Y-124945848D01*
X98196807Y-124868857D01*
X98196802Y-124868855D01*
X98051001Y-124837865D01*
X98011646Y-124829500D01*
X97822354Y-124829500D01*
X97789897Y-124836398D01*
X97637197Y-124868855D01*
X97637192Y-124868857D01*
X97464270Y-124945848D01*
X97464265Y-124945851D01*
X97311129Y-125057111D01*
X97184466Y-125197785D01*
X97089821Y-125361715D01*
X97089818Y-125361722D01*
X97041347Y-125510902D01*
X97031326Y-125541744D01*
X97011540Y-125730000D01*
X83820500Y-125730000D01*
X83820500Y-122051187D01*
X102389500Y-122051187D01*
X102390786Y-122059716D01*
X102428604Y-122310615D01*
X102428605Y-122310617D01*
X102428606Y-122310623D01*
X102505938Y-122561326D01*
X102619767Y-122797696D01*
X102619768Y-122797697D01*
X102619770Y-122797700D01*
X102619772Y-122797704D01*
X102698960Y-122913851D01*
X102767567Y-123014479D01*
X102946014Y-123206801D01*
X102946018Y-123206804D01*
X102946019Y-123206805D01*
X103151143Y-123370386D01*
X103378357Y-123501568D01*
X103622584Y-123597420D01*
X103878370Y-123655802D01*
X103878376Y-123655802D01*
X103878379Y-123655803D01*
X104074484Y-123670499D01*
X104074503Y-123670499D01*
X104074506Y-123670500D01*
X104074508Y-123670500D01*
X104205492Y-123670500D01*
X104205494Y-123670500D01*
X104205496Y-123670499D01*
X104205515Y-123670499D01*
X104401620Y-123655803D01*
X104401622Y-123655802D01*
X104401630Y-123655802D01*
X104657416Y-123597420D01*
X104901643Y-123501568D01*
X105128857Y-123370386D01*
X105333981Y-123206805D01*
X105512433Y-123014479D01*
X105660228Y-122797704D01*
X105774063Y-122561323D01*
X105851396Y-122310615D01*
X105890500Y-122051182D01*
X105890500Y-121788818D01*
X105851396Y-121529385D01*
X105774063Y-121278677D01*
X105704287Y-121133785D01*
X105660232Y-121042303D01*
X105660231Y-121042302D01*
X105660230Y-121042301D01*
X105660228Y-121042296D01*
X105512433Y-120825521D01*
X105452069Y-120760464D01*
X105333985Y-120633198D01*
X105230730Y-120550855D01*
X105128857Y-120469614D01*
X104901643Y-120338432D01*
X104657416Y-120242580D01*
X104657411Y-120242578D01*
X104657402Y-120242576D01*
X104439818Y-120192914D01*
X104401630Y-120184198D01*
X104401629Y-120184197D01*
X104401625Y-120184197D01*
X104401620Y-120184196D01*
X104205515Y-120169500D01*
X104205494Y-120169500D01*
X104074506Y-120169500D01*
X104074484Y-120169500D01*
X103878379Y-120184196D01*
X103878374Y-120184197D01*
X103622597Y-120242576D01*
X103622578Y-120242582D01*
X103378356Y-120338432D01*
X103151143Y-120469614D01*
X102946014Y-120633198D01*
X102767567Y-120825520D01*
X102619768Y-121042302D01*
X102619767Y-121042303D01*
X102505938Y-121278673D01*
X102428606Y-121529376D01*
X102428605Y-121529381D01*
X102428604Y-121529385D01*
X102417922Y-121600256D01*
X102389500Y-121788812D01*
X102389500Y-122051187D01*
X83820500Y-122051187D01*
X83820500Y-109702604D01*
X88041399Y-109702604D01*
X88060444Y-109956754D01*
X88067253Y-109986588D01*
X88117159Y-110205237D01*
X88210274Y-110442488D01*
X88337708Y-110663212D01*
X88496617Y-110862477D01*
X88683450Y-111035832D01*
X88894033Y-111179405D01*
X88894038Y-111179407D01*
X88894039Y-111179408D01*
X88894040Y-111179409D01*
X89015995Y-111238138D01*
X89123659Y-111289987D01*
X89123660Y-111289987D01*
X89123663Y-111289989D01*
X89367209Y-111365113D01*
X89619232Y-111403100D01*
X89874102Y-111403100D01*
X90126125Y-111365113D01*
X90369671Y-111289989D01*
X90599301Y-111179405D01*
X90809884Y-111035832D01*
X90905403Y-110947204D01*
X96169399Y-110947204D01*
X96188444Y-111201354D01*
X96234491Y-111403100D01*
X96245159Y-111449837D01*
X96338274Y-111687088D01*
X96465708Y-111907812D01*
X96624617Y-112107077D01*
X96811450Y-112280432D01*
X97022033Y-112424005D01*
X97022038Y-112424007D01*
X97022039Y-112424008D01*
X97022040Y-112424009D01*
X97143995Y-112482738D01*
X97251659Y-112534587D01*
X97251660Y-112534587D01*
X97251663Y-112534589D01*
X97495209Y-112609713D01*
X97747232Y-112647700D01*
X98002102Y-112647700D01*
X98254125Y-112609713D01*
X98497671Y-112534589D01*
X98727301Y-112424005D01*
X98937884Y-112280432D01*
X99124717Y-112107077D01*
X99283626Y-111907812D01*
X99411060Y-111687088D01*
X99504175Y-111449837D01*
X99560889Y-111201357D01*
X99579935Y-110947200D01*
X99560889Y-110693043D01*
X99504175Y-110444563D01*
X99411060Y-110207312D01*
X99283626Y-109986588D01*
X99124717Y-109787323D01*
X99033411Y-109702604D01*
X107768732Y-109702604D01*
X107787777Y-109956754D01*
X107794586Y-109986588D01*
X107844492Y-110205237D01*
X107937607Y-110442488D01*
X108065041Y-110663212D01*
X108223950Y-110862477D01*
X108410783Y-111035832D01*
X108621366Y-111179405D01*
X108621371Y-111179407D01*
X108621372Y-111179408D01*
X108621373Y-111179409D01*
X108743328Y-111238138D01*
X108850992Y-111289987D01*
X108850993Y-111289987D01*
X108850996Y-111289989D01*
X109094542Y-111365113D01*
X109346565Y-111403100D01*
X109601435Y-111403100D01*
X109853458Y-111365113D01*
X110097004Y-111289989D01*
X110326634Y-111179405D01*
X110537217Y-111035832D01*
X110632736Y-110947204D01*
X115896732Y-110947204D01*
X115915777Y-111201354D01*
X115961824Y-111403100D01*
X115972492Y-111449837D01*
X116065607Y-111687088D01*
X116193041Y-111907812D01*
X116351950Y-112107077D01*
X116538783Y-112280432D01*
X116749366Y-112424005D01*
X116749371Y-112424007D01*
X116749372Y-112424008D01*
X116749373Y-112424009D01*
X116871328Y-112482738D01*
X116978992Y-112534587D01*
X116978993Y-112534587D01*
X116978996Y-112534589D01*
X117222542Y-112609713D01*
X117474565Y-112647700D01*
X117729435Y-112647700D01*
X117981458Y-112609713D01*
X118225004Y-112534589D01*
X118454634Y-112424005D01*
X118665217Y-112280432D01*
X118852050Y-112107077D01*
X119010959Y-111907812D01*
X119138393Y-111687088D01*
X119231508Y-111449837D01*
X119288222Y-111201357D01*
X119307268Y-110947200D01*
X119288222Y-110693043D01*
X119231508Y-110444563D01*
X119138393Y-110207312D01*
X119010959Y-109986588D01*
X118852050Y-109787323D01*
X118760744Y-109702604D01*
X127580732Y-109702604D01*
X127599777Y-109956754D01*
X127606586Y-109986588D01*
X127656492Y-110205237D01*
X127749607Y-110442488D01*
X127877041Y-110663212D01*
X128035950Y-110862477D01*
X128222783Y-111035832D01*
X128433366Y-111179405D01*
X128433371Y-111179407D01*
X128433372Y-111179408D01*
X128433373Y-111179409D01*
X128555328Y-111238138D01*
X128662992Y-111289987D01*
X128662993Y-111289987D01*
X128662996Y-111289989D01*
X128906542Y-111365113D01*
X129158565Y-111403100D01*
X129413435Y-111403100D01*
X129665458Y-111365113D01*
X129909004Y-111289989D01*
X130138634Y-111179405D01*
X130349217Y-111035832D01*
X130444736Y-110947204D01*
X135708732Y-110947204D01*
X135727777Y-111201354D01*
X135773824Y-111403100D01*
X135784492Y-111449837D01*
X135877607Y-111687088D01*
X136005041Y-111907812D01*
X136163950Y-112107077D01*
X136350783Y-112280432D01*
X136561366Y-112424005D01*
X136561371Y-112424007D01*
X136561372Y-112424008D01*
X136561373Y-112424009D01*
X136683328Y-112482738D01*
X136790992Y-112534587D01*
X136790993Y-112534587D01*
X136790996Y-112534589D01*
X137034542Y-112609713D01*
X137286565Y-112647700D01*
X137541435Y-112647700D01*
X137793458Y-112609713D01*
X138037004Y-112534589D01*
X138266634Y-112424005D01*
X138477217Y-112280432D01*
X138664050Y-112107077D01*
X138822959Y-111907812D01*
X138950393Y-111687088D01*
X139043508Y-111449837D01*
X139100222Y-111201357D01*
X139119268Y-110947200D01*
X139100222Y-110693043D01*
X139043508Y-110444563D01*
X138950393Y-110207312D01*
X138822959Y-109986588D01*
X138664050Y-109787323D01*
X138572744Y-109702604D01*
X147265732Y-109702604D01*
X147284777Y-109956754D01*
X147291586Y-109986588D01*
X147341492Y-110205237D01*
X147434607Y-110442488D01*
X147562041Y-110663212D01*
X147720950Y-110862477D01*
X147907783Y-111035832D01*
X148118366Y-111179405D01*
X148118371Y-111179407D01*
X148118372Y-111179408D01*
X148118373Y-111179409D01*
X148240328Y-111238138D01*
X148347992Y-111289987D01*
X148347993Y-111289987D01*
X148347996Y-111289989D01*
X148591542Y-111365113D01*
X148843565Y-111403100D01*
X149098435Y-111403100D01*
X149350458Y-111365113D01*
X149594004Y-111289989D01*
X149823634Y-111179405D01*
X150034217Y-111035832D01*
X150129736Y-110947204D01*
X155393732Y-110947204D01*
X155412777Y-111201354D01*
X155458824Y-111403100D01*
X155469492Y-111449837D01*
X155562607Y-111687088D01*
X155690041Y-111907812D01*
X155848950Y-112107077D01*
X156035783Y-112280432D01*
X156246366Y-112424005D01*
X156246371Y-112424007D01*
X156246372Y-112424008D01*
X156246373Y-112424009D01*
X156368328Y-112482738D01*
X156475992Y-112534587D01*
X156475993Y-112534587D01*
X156475996Y-112534589D01*
X156719542Y-112609713D01*
X156971565Y-112647700D01*
X157226435Y-112647700D01*
X157478458Y-112609713D01*
X157722004Y-112534589D01*
X157951634Y-112424005D01*
X158162217Y-112280432D01*
X158349050Y-112107077D01*
X158507959Y-111907812D01*
X158635393Y-111687088D01*
X158728508Y-111449837D01*
X158785222Y-111201357D01*
X158804268Y-110947200D01*
X158785222Y-110693043D01*
X158728508Y-110444563D01*
X158635393Y-110207312D01*
X158507959Y-109986588D01*
X158349050Y-109787323D01*
X158257744Y-109702604D01*
X166950732Y-109702604D01*
X166969777Y-109956754D01*
X166976586Y-109986588D01*
X167026492Y-110205237D01*
X167119607Y-110442488D01*
X167247041Y-110663212D01*
X167405950Y-110862477D01*
X167592783Y-111035832D01*
X167803366Y-111179405D01*
X167803371Y-111179407D01*
X167803372Y-111179408D01*
X167803373Y-111179409D01*
X167925328Y-111238138D01*
X168032992Y-111289987D01*
X168032993Y-111289987D01*
X168032996Y-111289989D01*
X168276542Y-111365113D01*
X168528565Y-111403100D01*
X168783435Y-111403100D01*
X169035458Y-111365113D01*
X169279004Y-111289989D01*
X169508634Y-111179405D01*
X169719217Y-111035832D01*
X169814736Y-110947204D01*
X175078732Y-110947204D01*
X175097777Y-111201354D01*
X175143824Y-111403100D01*
X175154492Y-111449837D01*
X175247607Y-111687088D01*
X175375041Y-111907812D01*
X175533950Y-112107077D01*
X175720783Y-112280432D01*
X175931366Y-112424005D01*
X175931371Y-112424007D01*
X175931372Y-112424008D01*
X175931373Y-112424009D01*
X176053328Y-112482738D01*
X176160992Y-112534587D01*
X176160993Y-112534587D01*
X176160996Y-112534589D01*
X176404542Y-112609713D01*
X176656565Y-112647700D01*
X176911435Y-112647700D01*
X177163458Y-112609713D01*
X177407004Y-112534589D01*
X177636634Y-112424005D01*
X177847217Y-112280432D01*
X178034050Y-112107077D01*
X178192959Y-111907812D01*
X178320393Y-111687088D01*
X178413508Y-111449837D01*
X178470222Y-111201357D01*
X178489268Y-110947200D01*
X178470222Y-110693043D01*
X178413508Y-110444563D01*
X178320393Y-110207312D01*
X178192959Y-109986588D01*
X178034050Y-109787323D01*
X177847217Y-109613968D01*
X177636634Y-109470395D01*
X177636630Y-109470393D01*
X177636627Y-109470391D01*
X177636626Y-109470390D01*
X177407006Y-109359812D01*
X177407008Y-109359812D01*
X177163466Y-109284689D01*
X177163462Y-109284688D01*
X177163458Y-109284687D01*
X177042231Y-109266414D01*
X176911440Y-109246700D01*
X176911435Y-109246700D01*
X176656565Y-109246700D01*
X176656559Y-109246700D01*
X176499609Y-109270357D01*
X176404542Y-109284687D01*
X176404539Y-109284688D01*
X176404533Y-109284689D01*
X176160992Y-109359812D01*
X175931373Y-109470390D01*
X175931372Y-109470391D01*
X175720782Y-109613968D01*
X175533952Y-109787321D01*
X175533950Y-109787323D01*
X175375041Y-109986588D01*
X175247608Y-110207309D01*
X175154492Y-110444562D01*
X175154490Y-110444569D01*
X175097777Y-110693045D01*
X175078732Y-110947195D01*
X175078732Y-110947204D01*
X169814736Y-110947204D01*
X169906050Y-110862477D01*
X170064959Y-110663212D01*
X170192393Y-110442488D01*
X170285508Y-110205237D01*
X170342222Y-109956757D01*
X170361268Y-109702600D01*
X170342222Y-109448443D01*
X170285508Y-109199963D01*
X170192393Y-108962712D01*
X170064959Y-108741988D01*
X169906050Y-108542723D01*
X169719217Y-108369368D01*
X169508634Y-108225795D01*
X169508630Y-108225793D01*
X169508627Y-108225791D01*
X169508626Y-108225790D01*
X169279006Y-108115212D01*
X169279008Y-108115212D01*
X169035466Y-108040089D01*
X169035462Y-108040088D01*
X169035458Y-108040087D01*
X168914231Y-108021814D01*
X168783440Y-108002100D01*
X168783435Y-108002100D01*
X168528565Y-108002100D01*
X168528559Y-108002100D01*
X168371609Y-108025757D01*
X168276542Y-108040087D01*
X168276539Y-108040088D01*
X168276533Y-108040089D01*
X168032992Y-108115212D01*
X167803373Y-108225790D01*
X167803372Y-108225791D01*
X167592782Y-108369368D01*
X167405952Y-108542721D01*
X167405950Y-108542723D01*
X167247041Y-108741988D01*
X167119608Y-108962709D01*
X167026492Y-109199962D01*
X167026490Y-109199969D01*
X166969777Y-109448445D01*
X166950732Y-109702595D01*
X166950732Y-109702604D01*
X158257744Y-109702604D01*
X158162217Y-109613968D01*
X157951634Y-109470395D01*
X157951630Y-109470393D01*
X157951627Y-109470391D01*
X157951626Y-109470390D01*
X157722006Y-109359812D01*
X157722008Y-109359812D01*
X157478466Y-109284689D01*
X157478462Y-109284688D01*
X157478458Y-109284687D01*
X157357231Y-109266414D01*
X157226440Y-109246700D01*
X157226435Y-109246700D01*
X156971565Y-109246700D01*
X156971559Y-109246700D01*
X156814609Y-109270357D01*
X156719542Y-109284687D01*
X156719539Y-109284688D01*
X156719533Y-109284689D01*
X156475992Y-109359812D01*
X156246373Y-109470390D01*
X156246372Y-109470391D01*
X156035782Y-109613968D01*
X155848952Y-109787321D01*
X155848950Y-109787323D01*
X155690041Y-109986588D01*
X155562608Y-110207309D01*
X155469492Y-110444562D01*
X155469490Y-110444569D01*
X155412777Y-110693045D01*
X155393732Y-110947195D01*
X155393732Y-110947204D01*
X150129736Y-110947204D01*
X150221050Y-110862477D01*
X150379959Y-110663212D01*
X150507393Y-110442488D01*
X150600508Y-110205237D01*
X150657222Y-109956757D01*
X150676268Y-109702600D01*
X150657222Y-109448443D01*
X150600508Y-109199963D01*
X150507393Y-108962712D01*
X150379959Y-108741988D01*
X150221050Y-108542723D01*
X150034217Y-108369368D01*
X149823634Y-108225795D01*
X149823630Y-108225793D01*
X149823627Y-108225791D01*
X149823626Y-108225790D01*
X149594006Y-108115212D01*
X149594008Y-108115212D01*
X149350466Y-108040089D01*
X149350462Y-108040088D01*
X149350458Y-108040087D01*
X149229231Y-108021814D01*
X149098440Y-108002100D01*
X149098435Y-108002100D01*
X148843565Y-108002100D01*
X148843559Y-108002100D01*
X148686609Y-108025757D01*
X148591542Y-108040087D01*
X148591539Y-108040088D01*
X148591533Y-108040089D01*
X148347992Y-108115212D01*
X148118373Y-108225790D01*
X148118372Y-108225791D01*
X147907782Y-108369368D01*
X147720952Y-108542721D01*
X147720950Y-108542723D01*
X147562041Y-108741988D01*
X147434608Y-108962709D01*
X147341492Y-109199962D01*
X147341490Y-109199969D01*
X147284777Y-109448445D01*
X147265732Y-109702595D01*
X147265732Y-109702604D01*
X138572744Y-109702604D01*
X138477217Y-109613968D01*
X138266634Y-109470395D01*
X138266630Y-109470393D01*
X138266627Y-109470391D01*
X138266626Y-109470390D01*
X138037006Y-109359812D01*
X138037008Y-109359812D01*
X137793466Y-109284689D01*
X137793462Y-109284688D01*
X137793458Y-109284687D01*
X137672231Y-109266414D01*
X137541440Y-109246700D01*
X137541435Y-109246700D01*
X137286565Y-109246700D01*
X137286559Y-109246700D01*
X137129609Y-109270357D01*
X137034542Y-109284687D01*
X137034539Y-109284688D01*
X137034533Y-109284689D01*
X136790992Y-109359812D01*
X136561373Y-109470390D01*
X136561372Y-109470391D01*
X136350782Y-109613968D01*
X136163952Y-109787321D01*
X136163950Y-109787323D01*
X136005041Y-109986588D01*
X135877608Y-110207309D01*
X135784492Y-110444562D01*
X135784490Y-110444569D01*
X135727777Y-110693045D01*
X135708732Y-110947195D01*
X135708732Y-110947204D01*
X130444736Y-110947204D01*
X130536050Y-110862477D01*
X130694959Y-110663212D01*
X130822393Y-110442488D01*
X130915508Y-110205237D01*
X130972222Y-109956757D01*
X130991268Y-109702600D01*
X130972222Y-109448443D01*
X130915508Y-109199963D01*
X130822393Y-108962712D01*
X130694959Y-108741988D01*
X130536050Y-108542723D01*
X130349217Y-108369368D01*
X130138634Y-108225795D01*
X130138630Y-108225793D01*
X130138627Y-108225791D01*
X130138626Y-108225790D01*
X129909006Y-108115212D01*
X129909008Y-108115212D01*
X129665466Y-108040089D01*
X129665462Y-108040088D01*
X129665458Y-108040087D01*
X129544231Y-108021814D01*
X129413440Y-108002100D01*
X129413435Y-108002100D01*
X129158565Y-108002100D01*
X129158559Y-108002100D01*
X129001609Y-108025757D01*
X128906542Y-108040087D01*
X128906539Y-108040088D01*
X128906533Y-108040089D01*
X128662992Y-108115212D01*
X128433373Y-108225790D01*
X128433372Y-108225791D01*
X128222782Y-108369368D01*
X128035952Y-108542721D01*
X128035950Y-108542723D01*
X127877041Y-108741988D01*
X127749608Y-108962709D01*
X127656492Y-109199962D01*
X127656490Y-109199969D01*
X127599777Y-109448445D01*
X127580732Y-109702595D01*
X127580732Y-109702604D01*
X118760744Y-109702604D01*
X118665217Y-109613968D01*
X118454634Y-109470395D01*
X118454630Y-109470393D01*
X118454627Y-109470391D01*
X118454626Y-109470390D01*
X118225006Y-109359812D01*
X118225008Y-109359812D01*
X117981466Y-109284689D01*
X117981462Y-109284688D01*
X117981458Y-109284687D01*
X117860231Y-109266414D01*
X117729440Y-109246700D01*
X117729435Y-109246700D01*
X117474565Y-109246700D01*
X117474559Y-109246700D01*
X117317609Y-109270357D01*
X117222542Y-109284687D01*
X117222539Y-109284688D01*
X117222533Y-109284689D01*
X116978992Y-109359812D01*
X116749373Y-109470390D01*
X116749372Y-109470391D01*
X116538782Y-109613968D01*
X116351952Y-109787321D01*
X116351950Y-109787323D01*
X116193041Y-109986588D01*
X116065608Y-110207309D01*
X115972492Y-110444562D01*
X115972490Y-110444569D01*
X115915777Y-110693045D01*
X115896732Y-110947195D01*
X115896732Y-110947204D01*
X110632736Y-110947204D01*
X110724050Y-110862477D01*
X110882959Y-110663212D01*
X111010393Y-110442488D01*
X111103508Y-110205237D01*
X111160222Y-109956757D01*
X111179268Y-109702600D01*
X111160222Y-109448443D01*
X111103508Y-109199963D01*
X111010393Y-108962712D01*
X110882959Y-108741988D01*
X110724050Y-108542723D01*
X110537217Y-108369368D01*
X110326634Y-108225795D01*
X110326630Y-108225793D01*
X110326627Y-108225791D01*
X110326626Y-108225790D01*
X110097006Y-108115212D01*
X110097008Y-108115212D01*
X109853466Y-108040089D01*
X109853462Y-108040088D01*
X109853458Y-108040087D01*
X109732231Y-108021814D01*
X109601440Y-108002100D01*
X109601435Y-108002100D01*
X109346565Y-108002100D01*
X109346559Y-108002100D01*
X109189609Y-108025757D01*
X109094542Y-108040087D01*
X109094539Y-108040088D01*
X109094533Y-108040089D01*
X108850992Y-108115212D01*
X108621373Y-108225790D01*
X108621372Y-108225791D01*
X108410782Y-108369368D01*
X108223952Y-108542721D01*
X108223950Y-108542723D01*
X108065041Y-108741988D01*
X107937608Y-108962709D01*
X107844492Y-109199962D01*
X107844490Y-109199969D01*
X107787777Y-109448445D01*
X107768732Y-109702595D01*
X107768732Y-109702604D01*
X99033411Y-109702604D01*
X98937884Y-109613968D01*
X98727301Y-109470395D01*
X98727297Y-109470393D01*
X98727294Y-109470391D01*
X98727293Y-109470390D01*
X98497673Y-109359812D01*
X98497675Y-109359812D01*
X98254133Y-109284689D01*
X98254129Y-109284688D01*
X98254125Y-109284687D01*
X98132898Y-109266414D01*
X98002107Y-109246700D01*
X98002102Y-109246700D01*
X97747232Y-109246700D01*
X97747226Y-109246700D01*
X97590276Y-109270357D01*
X97495209Y-109284687D01*
X97495206Y-109284688D01*
X97495200Y-109284689D01*
X97251659Y-109359812D01*
X97022040Y-109470390D01*
X97022039Y-109470391D01*
X96811449Y-109613968D01*
X96624619Y-109787321D01*
X96624617Y-109787323D01*
X96465708Y-109986588D01*
X96338275Y-110207309D01*
X96245159Y-110444562D01*
X96245157Y-110444569D01*
X96188444Y-110693045D01*
X96169399Y-110947195D01*
X96169399Y-110947204D01*
X90905403Y-110947204D01*
X90996717Y-110862477D01*
X91155626Y-110663212D01*
X91283060Y-110442488D01*
X91376175Y-110205237D01*
X91432889Y-109956757D01*
X91451935Y-109702600D01*
X91432889Y-109448443D01*
X91376175Y-109199963D01*
X91283060Y-108962712D01*
X91155626Y-108741988D01*
X90996717Y-108542723D01*
X90809884Y-108369368D01*
X90599301Y-108225795D01*
X90599297Y-108225793D01*
X90599294Y-108225791D01*
X90599293Y-108225790D01*
X90369673Y-108115212D01*
X90369675Y-108115212D01*
X90126133Y-108040089D01*
X90126129Y-108040088D01*
X90126125Y-108040087D01*
X90004898Y-108021814D01*
X89874107Y-108002100D01*
X89874102Y-108002100D01*
X89619232Y-108002100D01*
X89619226Y-108002100D01*
X89462276Y-108025757D01*
X89367209Y-108040087D01*
X89367206Y-108040088D01*
X89367200Y-108040089D01*
X89123659Y-108115212D01*
X88894040Y-108225790D01*
X88894039Y-108225791D01*
X88683449Y-108369368D01*
X88496619Y-108542721D01*
X88496617Y-108542723D01*
X88337708Y-108741988D01*
X88210275Y-108962709D01*
X88117159Y-109199962D01*
X88117157Y-109199969D01*
X88060444Y-109448445D01*
X88041399Y-109702595D01*
X88041399Y-109702604D01*
X83820500Y-109702604D01*
X83820500Y-107636425D01*
X84582167Y-107636425D01*
X84597139Y-107793218D01*
X84656351Y-107994875D01*
X84705686Y-108090572D01*
X84752658Y-108181686D01*
X84882572Y-108346883D01*
X84882576Y-108346887D01*
X85041413Y-108484521D01*
X85223417Y-108589601D01*
X85223419Y-108589601D01*
X85223423Y-108589604D01*
X85422034Y-108658344D01*
X85630065Y-108688254D01*
X85839997Y-108678254D01*
X86044243Y-108628704D01*
X86129866Y-108589601D01*
X86235410Y-108541401D01*
X86235413Y-108541399D01*
X86235420Y-108541396D01*
X86406619Y-108419486D01*
X86475846Y-108346883D01*
X86551652Y-108267379D01*
X86551653Y-108267378D01*
X86665280Y-108090572D01*
X86743392Y-107895457D01*
X86783167Y-107689085D01*
X86783167Y-106426004D01*
X92105900Y-106426004D01*
X92124940Y-106680079D01*
X92181635Y-106928477D01*
X92181640Y-106928494D01*
X92274725Y-107165671D01*
X92274724Y-107165671D01*
X92402121Y-107386327D01*
X92402128Y-107386338D01*
X92444119Y-107438991D01*
X92444120Y-107438992D01*
X93247893Y-106635219D01*
X93286568Y-106728588D01*
X93382742Y-106853925D01*
X93508079Y-106950099D01*
X93601446Y-106988772D01*
X92797480Y-107792738D01*
X92958283Y-107902371D01*
X92958291Y-107902376D01*
X93187843Y-108012921D01*
X93187841Y-108012921D01*
X93431319Y-108088024D01*
X93431325Y-108088026D01*
X93683262Y-108125999D01*
X93683271Y-108126000D01*
X93938063Y-108126000D01*
X93938071Y-108125999D01*
X94190008Y-108088026D01*
X94190014Y-108088024D01*
X94433491Y-108012921D01*
X94663043Y-107902376D01*
X94663044Y-107902375D01*
X94823852Y-107792738D01*
X94667539Y-107636425D01*
X100838167Y-107636425D01*
X100853139Y-107793218D01*
X100912351Y-107994875D01*
X100961686Y-108090572D01*
X101008658Y-108181686D01*
X101138572Y-108346883D01*
X101138576Y-108346887D01*
X101297413Y-108484521D01*
X101479417Y-108589601D01*
X101479419Y-108589601D01*
X101479423Y-108589604D01*
X101678034Y-108658344D01*
X101886065Y-108688254D01*
X102095997Y-108678254D01*
X102300243Y-108628704D01*
X102385866Y-108589601D01*
X102491410Y-108541401D01*
X102491413Y-108541399D01*
X102491420Y-108541396D01*
X102662619Y-108419486D01*
X102731846Y-108346883D01*
X102807652Y-108267379D01*
X102807653Y-108267378D01*
X102921280Y-108090572D01*
X102999392Y-107895457D01*
X103039167Y-107689085D01*
X103039167Y-107636425D01*
X104309500Y-107636425D01*
X104324472Y-107793218D01*
X104383684Y-107994875D01*
X104433019Y-108090572D01*
X104479991Y-108181686D01*
X104609905Y-108346883D01*
X104609909Y-108346887D01*
X104768746Y-108484521D01*
X104950750Y-108589601D01*
X104950752Y-108589601D01*
X104950756Y-108589604D01*
X105149367Y-108658344D01*
X105357398Y-108688254D01*
X105567330Y-108678254D01*
X105771576Y-108628704D01*
X105857199Y-108589601D01*
X105962743Y-108541401D01*
X105962746Y-108541399D01*
X105962753Y-108541396D01*
X106133952Y-108419486D01*
X106203179Y-108346883D01*
X106278985Y-108267379D01*
X106278986Y-108267378D01*
X106392613Y-108090572D01*
X106470725Y-107895457D01*
X106510500Y-107689085D01*
X106510500Y-106426004D01*
X111833233Y-106426004D01*
X111852273Y-106680079D01*
X111908968Y-106928477D01*
X111908973Y-106928494D01*
X112002058Y-107165671D01*
X112002057Y-107165671D01*
X112129454Y-107386327D01*
X112129461Y-107386338D01*
X112171452Y-107438991D01*
X112171453Y-107438992D01*
X112975226Y-106635219D01*
X113013901Y-106728588D01*
X113110075Y-106853925D01*
X113235412Y-106950099D01*
X113328779Y-106988772D01*
X112524813Y-107792738D01*
X112685616Y-107902371D01*
X112685624Y-107902376D01*
X112915176Y-108012921D01*
X112915174Y-108012921D01*
X113158652Y-108088024D01*
X113158658Y-108088026D01*
X113410595Y-108125999D01*
X113410604Y-108126000D01*
X113665396Y-108126000D01*
X113665404Y-108125999D01*
X113917341Y-108088026D01*
X113917347Y-108088024D01*
X114160824Y-108012921D01*
X114390376Y-107902376D01*
X114390377Y-107902375D01*
X114551185Y-107792738D01*
X114394872Y-107636425D01*
X120565500Y-107636425D01*
X120580472Y-107793218D01*
X120639684Y-107994875D01*
X120689019Y-108090572D01*
X120735991Y-108181686D01*
X120865905Y-108346883D01*
X120865909Y-108346887D01*
X121024746Y-108484521D01*
X121206750Y-108589601D01*
X121206752Y-108589601D01*
X121206756Y-108589604D01*
X121405367Y-108658344D01*
X121613398Y-108688254D01*
X121823330Y-108678254D01*
X122027576Y-108628704D01*
X122113199Y-108589601D01*
X122218743Y-108541401D01*
X122218746Y-108541399D01*
X122218753Y-108541396D01*
X122389952Y-108419486D01*
X122459179Y-108346883D01*
X122534985Y-108267379D01*
X122534986Y-108267378D01*
X122648613Y-108090572D01*
X122726725Y-107895457D01*
X122766500Y-107689085D01*
X122766500Y-107636425D01*
X124121500Y-107636425D01*
X124136472Y-107793218D01*
X124195684Y-107994875D01*
X124245019Y-108090572D01*
X124291991Y-108181686D01*
X124421905Y-108346883D01*
X124421909Y-108346887D01*
X124580746Y-108484521D01*
X124762750Y-108589601D01*
X124762752Y-108589601D01*
X124762756Y-108589604D01*
X124961367Y-108658344D01*
X125169398Y-108688254D01*
X125379330Y-108678254D01*
X125583576Y-108628704D01*
X125669199Y-108589601D01*
X125774743Y-108541401D01*
X125774746Y-108541399D01*
X125774753Y-108541396D01*
X125945952Y-108419486D01*
X126015179Y-108346883D01*
X126090985Y-108267379D01*
X126090986Y-108267378D01*
X126204613Y-108090572D01*
X126282725Y-107895457D01*
X126322500Y-107689085D01*
X126322500Y-106426004D01*
X131645233Y-106426004D01*
X131664273Y-106680079D01*
X131720968Y-106928477D01*
X131720973Y-106928494D01*
X131814058Y-107165671D01*
X131814057Y-107165671D01*
X131941454Y-107386327D01*
X131941461Y-107386338D01*
X131983452Y-107438991D01*
X131983453Y-107438992D01*
X132787226Y-106635219D01*
X132825901Y-106728588D01*
X132922075Y-106853925D01*
X133047412Y-106950099D01*
X133140779Y-106988772D01*
X132336813Y-107792738D01*
X132497616Y-107902371D01*
X132497624Y-107902376D01*
X132727176Y-108012921D01*
X132727174Y-108012921D01*
X132970652Y-108088024D01*
X132970658Y-108088026D01*
X133222595Y-108125999D01*
X133222604Y-108126000D01*
X133477396Y-108126000D01*
X133477404Y-108125999D01*
X133729341Y-108088026D01*
X133729347Y-108088024D01*
X133972824Y-108012921D01*
X134202376Y-107902376D01*
X134202377Y-107902375D01*
X134363185Y-107792738D01*
X134206872Y-107636425D01*
X140377500Y-107636425D01*
X140392472Y-107793218D01*
X140451684Y-107994875D01*
X140501019Y-108090572D01*
X140547991Y-108181686D01*
X140677905Y-108346883D01*
X140677909Y-108346887D01*
X140836746Y-108484521D01*
X141018750Y-108589601D01*
X141018752Y-108589601D01*
X141018756Y-108589604D01*
X141217367Y-108658344D01*
X141425398Y-108688254D01*
X141635330Y-108678254D01*
X141839576Y-108628704D01*
X141925199Y-108589601D01*
X142030743Y-108541401D01*
X142030746Y-108541399D01*
X142030753Y-108541396D01*
X142201952Y-108419486D01*
X142271179Y-108346883D01*
X142346985Y-108267379D01*
X142346986Y-108267378D01*
X142460613Y-108090572D01*
X142538725Y-107895457D01*
X142578500Y-107689085D01*
X142578500Y-107636425D01*
X143806500Y-107636425D01*
X143821472Y-107793218D01*
X143880684Y-107994875D01*
X143930019Y-108090572D01*
X143976991Y-108181686D01*
X144106905Y-108346883D01*
X144106909Y-108346887D01*
X144265746Y-108484521D01*
X144447750Y-108589601D01*
X144447752Y-108589601D01*
X144447756Y-108589604D01*
X144646367Y-108658344D01*
X144854398Y-108688254D01*
X145064330Y-108678254D01*
X145268576Y-108628704D01*
X145354199Y-108589601D01*
X145459743Y-108541401D01*
X145459746Y-108541399D01*
X145459753Y-108541396D01*
X145630952Y-108419486D01*
X145700179Y-108346883D01*
X145775985Y-108267379D01*
X145775986Y-108267378D01*
X145889613Y-108090572D01*
X145967725Y-107895457D01*
X146007500Y-107689085D01*
X146007500Y-106426004D01*
X151330233Y-106426004D01*
X151349273Y-106680079D01*
X151405968Y-106928477D01*
X151405973Y-106928494D01*
X151499058Y-107165671D01*
X151499057Y-107165671D01*
X151626454Y-107386327D01*
X151626461Y-107386338D01*
X151668452Y-107438991D01*
X151668453Y-107438992D01*
X152472226Y-106635219D01*
X152510901Y-106728588D01*
X152607075Y-106853925D01*
X152732412Y-106950099D01*
X152825779Y-106988772D01*
X152021813Y-107792738D01*
X152182616Y-107902371D01*
X152182624Y-107902376D01*
X152412176Y-108012921D01*
X152412174Y-108012921D01*
X152655652Y-108088024D01*
X152655658Y-108088026D01*
X152907595Y-108125999D01*
X152907604Y-108126000D01*
X153162396Y-108126000D01*
X153162404Y-108125999D01*
X153414341Y-108088026D01*
X153414347Y-108088024D01*
X153657824Y-108012921D01*
X153887376Y-107902376D01*
X153887377Y-107902375D01*
X154048185Y-107792738D01*
X153891872Y-107636425D01*
X160062500Y-107636425D01*
X160077472Y-107793218D01*
X160136684Y-107994875D01*
X160186019Y-108090572D01*
X160232991Y-108181686D01*
X160362905Y-108346883D01*
X160362909Y-108346887D01*
X160521746Y-108484521D01*
X160703750Y-108589601D01*
X160703752Y-108589601D01*
X160703756Y-108589604D01*
X160902367Y-108658344D01*
X161110398Y-108688254D01*
X161320330Y-108678254D01*
X161524576Y-108628704D01*
X161610199Y-108589601D01*
X161715743Y-108541401D01*
X161715746Y-108541399D01*
X161715753Y-108541396D01*
X161886952Y-108419486D01*
X161956179Y-108346883D01*
X162031985Y-108267379D01*
X162031986Y-108267378D01*
X162145613Y-108090572D01*
X162223725Y-107895457D01*
X162263500Y-107689085D01*
X162263500Y-107636425D01*
X163491500Y-107636425D01*
X163506472Y-107793218D01*
X163565684Y-107994875D01*
X163615019Y-108090572D01*
X163661991Y-108181686D01*
X163791905Y-108346883D01*
X163791909Y-108346887D01*
X163950746Y-108484521D01*
X164132750Y-108589601D01*
X164132752Y-108589601D01*
X164132756Y-108589604D01*
X164331367Y-108658344D01*
X164539398Y-108688254D01*
X164749330Y-108678254D01*
X164953576Y-108628704D01*
X165039199Y-108589601D01*
X165144743Y-108541401D01*
X165144746Y-108541399D01*
X165144753Y-108541396D01*
X165315952Y-108419486D01*
X165385179Y-108346883D01*
X165460985Y-108267379D01*
X165460986Y-108267378D01*
X165574613Y-108090572D01*
X165652725Y-107895457D01*
X165692500Y-107689085D01*
X165692500Y-106426004D01*
X171015233Y-106426004D01*
X171034273Y-106680079D01*
X171090968Y-106928477D01*
X171090973Y-106928494D01*
X171184058Y-107165671D01*
X171184057Y-107165671D01*
X171311454Y-107386327D01*
X171311461Y-107386338D01*
X171353452Y-107438991D01*
X171353453Y-107438992D01*
X172157226Y-106635219D01*
X172195901Y-106728588D01*
X172292075Y-106853925D01*
X172417412Y-106950099D01*
X172510779Y-106988772D01*
X171706813Y-107792738D01*
X171867616Y-107902371D01*
X171867624Y-107902376D01*
X172097176Y-108012921D01*
X172097174Y-108012921D01*
X172340652Y-108088024D01*
X172340658Y-108088026D01*
X172592595Y-108125999D01*
X172592604Y-108126000D01*
X172847396Y-108126000D01*
X172847404Y-108125999D01*
X173099341Y-108088026D01*
X173099347Y-108088024D01*
X173342824Y-108012921D01*
X173572376Y-107902376D01*
X173572377Y-107902375D01*
X173733185Y-107792738D01*
X173576872Y-107636425D01*
X179747500Y-107636425D01*
X179762472Y-107793218D01*
X179821684Y-107994875D01*
X179871019Y-108090572D01*
X179917991Y-108181686D01*
X180047905Y-108346883D01*
X180047909Y-108346887D01*
X180206746Y-108484521D01*
X180388750Y-108589601D01*
X180388752Y-108589601D01*
X180388756Y-108589604D01*
X180587367Y-108658344D01*
X180795398Y-108688254D01*
X181005330Y-108678254D01*
X181209576Y-108628704D01*
X181295199Y-108589601D01*
X181400743Y-108541401D01*
X181400746Y-108541399D01*
X181400753Y-108541396D01*
X181571952Y-108419486D01*
X181641179Y-108346883D01*
X181716985Y-108267379D01*
X181716986Y-108267378D01*
X181830613Y-108090572D01*
X181908725Y-107895457D01*
X181948500Y-107689085D01*
X181948500Y-106231575D01*
X181933528Y-106074782D01*
X181874316Y-105873125D01*
X181778011Y-105686318D01*
X181778009Y-105686316D01*
X181778008Y-105686313D01*
X181648094Y-105521116D01*
X181648090Y-105521112D01*
X181489253Y-105383478D01*
X181307249Y-105278398D01*
X181307245Y-105278396D01*
X181307244Y-105278396D01*
X181108633Y-105209656D01*
X180900602Y-105179746D01*
X180900598Y-105179746D01*
X180690672Y-105189745D01*
X180486421Y-105239296D01*
X180486417Y-105239298D01*
X180295256Y-105326598D01*
X180295251Y-105326601D01*
X180124046Y-105448515D01*
X180124040Y-105448520D01*
X179979014Y-105600620D01*
X179865388Y-105777425D01*
X179787274Y-105972544D01*
X179758197Y-106123412D01*
X179747500Y-106178915D01*
X179747500Y-107636425D01*
X173576872Y-107636425D01*
X172929220Y-106988772D01*
X173022588Y-106950099D01*
X173147925Y-106853925D01*
X173244099Y-106728589D01*
X173282773Y-106635220D01*
X174086544Y-107438992D01*
X174086546Y-107438991D01*
X174128544Y-107386330D01*
X174255941Y-107165671D01*
X174349026Y-106928494D01*
X174349031Y-106928477D01*
X174405726Y-106680079D01*
X174424767Y-106426004D01*
X174424767Y-106425995D01*
X174405726Y-106171920D01*
X174349031Y-105923522D01*
X174349026Y-105923505D01*
X174255941Y-105686328D01*
X174255942Y-105686328D01*
X174128545Y-105465672D01*
X174086545Y-105413006D01*
X173282772Y-106216779D01*
X173244099Y-106123412D01*
X173147925Y-105998075D01*
X173022588Y-105901901D01*
X172929219Y-105863226D01*
X173733185Y-105059260D01*
X173572384Y-104949628D01*
X173572376Y-104949623D01*
X173342823Y-104839078D01*
X173342825Y-104839078D01*
X173099347Y-104763975D01*
X173099341Y-104763973D01*
X172847404Y-104726000D01*
X172592595Y-104726000D01*
X172340658Y-104763973D01*
X172340652Y-104763975D01*
X172097175Y-104839078D01*
X171867622Y-104949625D01*
X171867609Y-104949632D01*
X171706813Y-105059259D01*
X172510780Y-105863226D01*
X172417412Y-105901901D01*
X172292075Y-105998075D01*
X172195901Y-106123411D01*
X172157226Y-106216780D01*
X171353452Y-105413006D01*
X171311457Y-105465667D01*
X171184058Y-105686328D01*
X171090973Y-105923505D01*
X171090968Y-105923522D01*
X171034273Y-106171920D01*
X171015233Y-106425995D01*
X171015233Y-106426004D01*
X165692500Y-106426004D01*
X165692500Y-106231575D01*
X165677528Y-106074782D01*
X165618316Y-105873125D01*
X165522011Y-105686318D01*
X165522009Y-105686316D01*
X165522008Y-105686313D01*
X165392094Y-105521116D01*
X165392090Y-105521112D01*
X165233253Y-105383478D01*
X165051249Y-105278398D01*
X165051245Y-105278396D01*
X165051244Y-105278396D01*
X164852633Y-105209656D01*
X164644602Y-105179746D01*
X164644598Y-105179746D01*
X164434672Y-105189745D01*
X164230421Y-105239296D01*
X164230417Y-105239298D01*
X164039256Y-105326598D01*
X164039251Y-105326601D01*
X163868046Y-105448515D01*
X163868040Y-105448520D01*
X163723014Y-105600620D01*
X163609388Y-105777425D01*
X163531274Y-105972544D01*
X163502197Y-106123412D01*
X163491500Y-106178915D01*
X163491500Y-107636425D01*
X162263500Y-107636425D01*
X162263500Y-106231575D01*
X162248528Y-106074782D01*
X162189316Y-105873125D01*
X162093011Y-105686318D01*
X162093009Y-105686316D01*
X162093008Y-105686313D01*
X161963094Y-105521116D01*
X161963090Y-105521112D01*
X161804253Y-105383478D01*
X161622249Y-105278398D01*
X161622245Y-105278396D01*
X161622244Y-105278396D01*
X161423633Y-105209656D01*
X161215602Y-105179746D01*
X161215598Y-105179746D01*
X161005672Y-105189745D01*
X160801421Y-105239296D01*
X160801417Y-105239298D01*
X160610256Y-105326598D01*
X160610251Y-105326601D01*
X160439046Y-105448515D01*
X160439040Y-105448520D01*
X160294014Y-105600620D01*
X160180388Y-105777425D01*
X160102274Y-105972544D01*
X160073197Y-106123412D01*
X160062500Y-106178915D01*
X160062500Y-107636425D01*
X153891872Y-107636425D01*
X153244220Y-106988772D01*
X153337588Y-106950099D01*
X153462925Y-106853925D01*
X153559099Y-106728589D01*
X153597773Y-106635220D01*
X154401544Y-107438992D01*
X154401546Y-107438991D01*
X154443544Y-107386330D01*
X154570941Y-107165671D01*
X154664026Y-106928494D01*
X154664031Y-106928477D01*
X154720726Y-106680079D01*
X154739767Y-106426004D01*
X154739767Y-106425995D01*
X154720726Y-106171920D01*
X154664031Y-105923522D01*
X154664026Y-105923505D01*
X154570941Y-105686328D01*
X154570942Y-105686328D01*
X154443545Y-105465672D01*
X154401545Y-105413006D01*
X153597772Y-106216779D01*
X153559099Y-106123412D01*
X153462925Y-105998075D01*
X153337588Y-105901901D01*
X153244219Y-105863226D01*
X154048185Y-105059260D01*
X153887384Y-104949628D01*
X153887376Y-104949623D01*
X153657823Y-104839078D01*
X153657825Y-104839078D01*
X153414347Y-104763975D01*
X153414341Y-104763973D01*
X153162404Y-104726000D01*
X152907595Y-104726000D01*
X152655658Y-104763973D01*
X152655652Y-104763975D01*
X152412175Y-104839078D01*
X152182622Y-104949625D01*
X152182609Y-104949632D01*
X152021813Y-105059259D01*
X152825780Y-105863226D01*
X152732412Y-105901901D01*
X152607075Y-105998075D01*
X152510901Y-106123411D01*
X152472226Y-106216780D01*
X151668452Y-105413006D01*
X151626457Y-105465667D01*
X151499058Y-105686328D01*
X151405973Y-105923505D01*
X151405968Y-105923522D01*
X151349273Y-106171920D01*
X151330233Y-106425995D01*
X151330233Y-106426004D01*
X146007500Y-106426004D01*
X146007500Y-106231575D01*
X145992528Y-106074782D01*
X145933316Y-105873125D01*
X145837011Y-105686318D01*
X145837009Y-105686316D01*
X145837008Y-105686313D01*
X145707094Y-105521116D01*
X145707090Y-105521112D01*
X145548253Y-105383478D01*
X145366249Y-105278398D01*
X145366245Y-105278396D01*
X145366244Y-105278396D01*
X145167633Y-105209656D01*
X144959602Y-105179746D01*
X144959598Y-105179746D01*
X144749672Y-105189745D01*
X144545421Y-105239296D01*
X144545417Y-105239298D01*
X144354256Y-105326598D01*
X144354251Y-105326601D01*
X144183046Y-105448515D01*
X144183040Y-105448520D01*
X144038014Y-105600620D01*
X143924388Y-105777425D01*
X143846274Y-105972544D01*
X143817197Y-106123412D01*
X143806500Y-106178915D01*
X143806500Y-107636425D01*
X142578500Y-107636425D01*
X142578500Y-106231575D01*
X142563528Y-106074782D01*
X142504316Y-105873125D01*
X142408011Y-105686318D01*
X142408009Y-105686316D01*
X142408008Y-105686313D01*
X142278094Y-105521116D01*
X142278090Y-105521112D01*
X142119253Y-105383478D01*
X141937249Y-105278398D01*
X141937245Y-105278396D01*
X141937244Y-105278396D01*
X141738633Y-105209656D01*
X141530602Y-105179746D01*
X141530598Y-105179746D01*
X141320672Y-105189745D01*
X141116421Y-105239296D01*
X141116417Y-105239298D01*
X140925256Y-105326598D01*
X140925251Y-105326601D01*
X140754046Y-105448515D01*
X140754040Y-105448520D01*
X140609014Y-105600620D01*
X140495388Y-105777425D01*
X140417274Y-105972544D01*
X140388197Y-106123412D01*
X140377500Y-106178915D01*
X140377500Y-107636425D01*
X134206872Y-107636425D01*
X133559220Y-106988772D01*
X133652588Y-106950099D01*
X133777925Y-106853925D01*
X133874099Y-106728589D01*
X133912773Y-106635220D01*
X134716544Y-107438992D01*
X134716546Y-107438991D01*
X134758544Y-107386330D01*
X134885941Y-107165671D01*
X134979026Y-106928494D01*
X134979031Y-106928477D01*
X135035726Y-106680079D01*
X135054767Y-106426004D01*
X135054767Y-106425995D01*
X135035726Y-106171920D01*
X134979031Y-105923522D01*
X134979026Y-105923505D01*
X134885941Y-105686328D01*
X134885942Y-105686328D01*
X134758545Y-105465672D01*
X134716545Y-105413006D01*
X133912772Y-106216779D01*
X133874099Y-106123412D01*
X133777925Y-105998075D01*
X133652588Y-105901901D01*
X133559219Y-105863226D01*
X134363185Y-105059260D01*
X134202384Y-104949628D01*
X134202376Y-104949623D01*
X133972823Y-104839078D01*
X133972825Y-104839078D01*
X133729347Y-104763975D01*
X133729341Y-104763973D01*
X133477404Y-104726000D01*
X133222595Y-104726000D01*
X132970658Y-104763973D01*
X132970652Y-104763975D01*
X132727175Y-104839078D01*
X132497622Y-104949625D01*
X132497609Y-104949632D01*
X132336813Y-105059259D01*
X133140780Y-105863226D01*
X133047412Y-105901901D01*
X132922075Y-105998075D01*
X132825901Y-106123411D01*
X132787226Y-106216780D01*
X131983452Y-105413006D01*
X131941457Y-105465667D01*
X131814058Y-105686328D01*
X131720973Y-105923505D01*
X131720968Y-105923522D01*
X131664273Y-106171920D01*
X131645233Y-106425995D01*
X131645233Y-106426004D01*
X126322500Y-106426004D01*
X126322500Y-106231575D01*
X126307528Y-106074782D01*
X126248316Y-105873125D01*
X126152011Y-105686318D01*
X126152009Y-105686316D01*
X126152008Y-105686313D01*
X126022094Y-105521116D01*
X126022090Y-105521112D01*
X125863253Y-105383478D01*
X125681249Y-105278398D01*
X125681245Y-105278396D01*
X125681244Y-105278396D01*
X125482633Y-105209656D01*
X125274602Y-105179746D01*
X125274598Y-105179746D01*
X125064672Y-105189745D01*
X124860421Y-105239296D01*
X124860417Y-105239298D01*
X124669256Y-105326598D01*
X124669251Y-105326601D01*
X124498046Y-105448515D01*
X124498040Y-105448520D01*
X124353014Y-105600620D01*
X124239388Y-105777425D01*
X124161274Y-105972544D01*
X124132197Y-106123412D01*
X124121500Y-106178915D01*
X124121500Y-107636425D01*
X122766500Y-107636425D01*
X122766500Y-106231575D01*
X122751528Y-106074782D01*
X122692316Y-105873125D01*
X122596011Y-105686318D01*
X122596009Y-105686316D01*
X122596008Y-105686313D01*
X122466094Y-105521116D01*
X122466090Y-105521112D01*
X122307253Y-105383478D01*
X122125249Y-105278398D01*
X122125245Y-105278396D01*
X122125244Y-105278396D01*
X121926633Y-105209656D01*
X121718602Y-105179746D01*
X121718598Y-105179746D01*
X121508672Y-105189745D01*
X121304421Y-105239296D01*
X121304417Y-105239298D01*
X121113256Y-105326598D01*
X121113251Y-105326601D01*
X120942046Y-105448515D01*
X120942040Y-105448520D01*
X120797014Y-105600620D01*
X120683388Y-105777425D01*
X120605274Y-105972544D01*
X120576197Y-106123412D01*
X120565500Y-106178915D01*
X120565500Y-107636425D01*
X114394872Y-107636425D01*
X113747220Y-106988772D01*
X113840588Y-106950099D01*
X113965925Y-106853925D01*
X114062099Y-106728589D01*
X114100773Y-106635220D01*
X114904545Y-107438992D01*
X114904546Y-107438991D01*
X114946544Y-107386330D01*
X115073941Y-107165671D01*
X115167026Y-106928494D01*
X115167031Y-106928477D01*
X115223726Y-106680079D01*
X115242767Y-106426004D01*
X115242767Y-106425995D01*
X115223726Y-106171920D01*
X115167031Y-105923522D01*
X115167026Y-105923505D01*
X115073941Y-105686328D01*
X115073942Y-105686328D01*
X114946545Y-105465672D01*
X114904545Y-105413006D01*
X114100772Y-106216779D01*
X114062099Y-106123412D01*
X113965925Y-105998075D01*
X113840588Y-105901901D01*
X113747219Y-105863226D01*
X114551185Y-105059260D01*
X114390384Y-104949628D01*
X114390376Y-104949623D01*
X114160823Y-104839078D01*
X114160825Y-104839078D01*
X113917347Y-104763975D01*
X113917341Y-104763973D01*
X113665404Y-104726000D01*
X113410595Y-104726000D01*
X113158658Y-104763973D01*
X113158652Y-104763975D01*
X112915175Y-104839078D01*
X112685622Y-104949625D01*
X112685609Y-104949632D01*
X112524813Y-105059259D01*
X113328780Y-105863226D01*
X113235412Y-105901901D01*
X113110075Y-105998075D01*
X113013901Y-106123411D01*
X112975226Y-106216780D01*
X112171452Y-105413006D01*
X112129457Y-105465667D01*
X112002058Y-105686328D01*
X111908973Y-105923505D01*
X111908968Y-105923522D01*
X111852273Y-106171920D01*
X111833233Y-106425995D01*
X111833233Y-106426004D01*
X106510500Y-106426004D01*
X106510500Y-106231575D01*
X106495528Y-106074782D01*
X106436316Y-105873125D01*
X106340011Y-105686318D01*
X106340009Y-105686316D01*
X106340008Y-105686313D01*
X106210094Y-105521116D01*
X106210090Y-105521112D01*
X106051253Y-105383478D01*
X105869249Y-105278398D01*
X105869245Y-105278396D01*
X105869244Y-105278396D01*
X105670633Y-105209656D01*
X105462602Y-105179746D01*
X105462598Y-105179746D01*
X105252672Y-105189745D01*
X105048421Y-105239296D01*
X105048417Y-105239298D01*
X104857256Y-105326598D01*
X104857251Y-105326601D01*
X104686046Y-105448515D01*
X104686040Y-105448520D01*
X104541014Y-105600620D01*
X104427388Y-105777425D01*
X104349274Y-105972544D01*
X104320197Y-106123412D01*
X104309500Y-106178915D01*
X104309500Y-107636425D01*
X103039167Y-107636425D01*
X103039167Y-106231575D01*
X103024195Y-106074782D01*
X102964983Y-105873125D01*
X102868678Y-105686318D01*
X102868676Y-105686316D01*
X102868675Y-105686313D01*
X102738761Y-105521116D01*
X102738757Y-105521112D01*
X102579920Y-105383478D01*
X102397916Y-105278398D01*
X102397912Y-105278396D01*
X102397911Y-105278396D01*
X102199300Y-105209656D01*
X101991269Y-105179746D01*
X101991265Y-105179746D01*
X101781339Y-105189745D01*
X101577088Y-105239296D01*
X101577084Y-105239298D01*
X101385923Y-105326598D01*
X101385918Y-105326601D01*
X101214713Y-105448515D01*
X101214707Y-105448520D01*
X101069681Y-105600620D01*
X100956055Y-105777425D01*
X100877941Y-105972544D01*
X100848864Y-106123412D01*
X100838167Y-106178915D01*
X100838167Y-107636425D01*
X94667539Y-107636425D01*
X94019887Y-106988772D01*
X94113255Y-106950099D01*
X94238592Y-106853925D01*
X94334766Y-106728589D01*
X94373440Y-106635220D01*
X95177211Y-107438992D01*
X95177213Y-107438991D01*
X95219211Y-107386330D01*
X95346608Y-107165671D01*
X95439693Y-106928494D01*
X95439698Y-106928477D01*
X95496393Y-106680079D01*
X95515434Y-106426004D01*
X95515434Y-106425995D01*
X95496393Y-106171920D01*
X95439698Y-105923522D01*
X95439693Y-105923505D01*
X95346608Y-105686328D01*
X95346609Y-105686328D01*
X95219212Y-105465672D01*
X95177212Y-105413006D01*
X94373439Y-106216779D01*
X94334766Y-106123412D01*
X94238592Y-105998075D01*
X94113255Y-105901901D01*
X94019886Y-105863226D01*
X94823852Y-105059260D01*
X94663051Y-104949628D01*
X94663043Y-104949623D01*
X94433490Y-104839078D01*
X94433492Y-104839078D01*
X94190014Y-104763975D01*
X94190008Y-104763973D01*
X93938071Y-104726000D01*
X93683262Y-104726000D01*
X93431325Y-104763973D01*
X93431319Y-104763975D01*
X93187842Y-104839078D01*
X92958289Y-104949625D01*
X92958276Y-104949632D01*
X92797480Y-105059259D01*
X93601447Y-105863226D01*
X93508079Y-105901901D01*
X93382742Y-105998075D01*
X93286568Y-106123411D01*
X93247893Y-106216780D01*
X92444119Y-105413006D01*
X92402124Y-105465667D01*
X92274725Y-105686328D01*
X92181640Y-105923505D01*
X92181635Y-105923522D01*
X92124940Y-106171920D01*
X92105900Y-106425995D01*
X92105900Y-106426004D01*
X86783167Y-106426004D01*
X86783167Y-106231575D01*
X86768195Y-106074782D01*
X86708983Y-105873125D01*
X86612678Y-105686318D01*
X86612676Y-105686316D01*
X86612675Y-105686313D01*
X86482761Y-105521116D01*
X86482757Y-105521112D01*
X86323920Y-105383478D01*
X86141916Y-105278398D01*
X86141912Y-105278396D01*
X86141911Y-105278396D01*
X85943300Y-105209656D01*
X85735269Y-105179746D01*
X85735265Y-105179746D01*
X85525339Y-105189745D01*
X85321088Y-105239296D01*
X85321084Y-105239298D01*
X85129923Y-105326598D01*
X85129918Y-105326601D01*
X84958713Y-105448515D01*
X84958707Y-105448520D01*
X84813681Y-105600620D01*
X84700055Y-105777425D01*
X84621941Y-105972544D01*
X84592864Y-106123412D01*
X84582167Y-106178915D01*
X84582167Y-107636425D01*
X83820500Y-107636425D01*
X83820500Y-99184500D01*
X83840185Y-99117461D01*
X83892989Y-99071706D01*
X83944500Y-99060500D01*
X182755500Y-99060500D01*
X182822539Y-99080185D01*
G37*
%TD.AperFunction*%
%TD*%
M02*
