%TF.GenerationSoftware,KiCad,Pcbnew,7.0.11-7.0.11~ubuntu22.04.1*%
%TF.CreationDate,2024-03-17T14:49:55+00:00*%
%TF.ProjectId,Tiny4xPoweredStereoMixer,54696e79-3478-4506-9f77-657265645374,rev?*%
%TF.SameCoordinates,Original*%
%TF.FileFunction,Legend,Top*%
%TF.FilePolarity,Positive*%
%FSLAX46Y46*%
G04 Gerber Fmt 4.6, Leading zero omitted, Abs format (unit mm)*
G04 Created by KiCad (PCBNEW 7.0.11-7.0.11~ubuntu22.04.1) date 2024-03-17 14:49:55*
%MOMM*%
%LPD*%
G01*
G04 APERTURE LIST*
%ADD10C,0.300000*%
%ADD11C,0.150000*%
%ADD12C,0.120000*%
%ADD13C,0.100000*%
G04 APERTURE END LIST*
D10*
X109099844Y-115423638D02*
X110242701Y-115423638D01*
X109671272Y-117423638D02*
X109671272Y-115423638D01*
X110909368Y-117423638D02*
X110909368Y-116090304D01*
X110909368Y-115423638D02*
X110814130Y-115518876D01*
X110814130Y-115518876D02*
X110909368Y-115614114D01*
X110909368Y-115614114D02*
X111004606Y-115518876D01*
X111004606Y-115518876D02*
X110909368Y-115423638D01*
X110909368Y-115423638D02*
X110909368Y-115614114D01*
X111861749Y-116090304D02*
X111861749Y-117423638D01*
X111861749Y-116280780D02*
X111956987Y-116185542D01*
X111956987Y-116185542D02*
X112147463Y-116090304D01*
X112147463Y-116090304D02*
X112433178Y-116090304D01*
X112433178Y-116090304D02*
X112623654Y-116185542D01*
X112623654Y-116185542D02*
X112718892Y-116376019D01*
X112718892Y-116376019D02*
X112718892Y-117423638D01*
X113480797Y-116090304D02*
X113956987Y-117423638D01*
X114433178Y-116090304D02*
X113956987Y-117423638D01*
X113956987Y-117423638D02*
X113766511Y-117899828D01*
X113766511Y-117899828D02*
X113671273Y-117995066D01*
X113671273Y-117995066D02*
X113480797Y-118090304D01*
X117576036Y-116090304D02*
X117576036Y-117423638D01*
X117099845Y-115328400D02*
X116623655Y-116756971D01*
X116623655Y-116756971D02*
X117861750Y-116756971D01*
X118433179Y-117423638D02*
X119480798Y-116090304D01*
X118433179Y-116090304D02*
X119480798Y-117423638D01*
X121766513Y-117423638D02*
X121766513Y-115423638D01*
X121766513Y-115423638D02*
X122528418Y-115423638D01*
X122528418Y-115423638D02*
X122718894Y-115518876D01*
X122718894Y-115518876D02*
X122814132Y-115614114D01*
X122814132Y-115614114D02*
X122909370Y-115804590D01*
X122909370Y-115804590D02*
X122909370Y-116090304D01*
X122909370Y-116090304D02*
X122814132Y-116280780D01*
X122814132Y-116280780D02*
X122718894Y-116376019D01*
X122718894Y-116376019D02*
X122528418Y-116471257D01*
X122528418Y-116471257D02*
X121766513Y-116471257D01*
X124052227Y-117423638D02*
X123861751Y-117328400D01*
X123861751Y-117328400D02*
X123766513Y-117233161D01*
X123766513Y-117233161D02*
X123671275Y-117042685D01*
X123671275Y-117042685D02*
X123671275Y-116471257D01*
X123671275Y-116471257D02*
X123766513Y-116280780D01*
X123766513Y-116280780D02*
X123861751Y-116185542D01*
X123861751Y-116185542D02*
X124052227Y-116090304D01*
X124052227Y-116090304D02*
X124337942Y-116090304D01*
X124337942Y-116090304D02*
X124528418Y-116185542D01*
X124528418Y-116185542D02*
X124623656Y-116280780D01*
X124623656Y-116280780D02*
X124718894Y-116471257D01*
X124718894Y-116471257D02*
X124718894Y-117042685D01*
X124718894Y-117042685D02*
X124623656Y-117233161D01*
X124623656Y-117233161D02*
X124528418Y-117328400D01*
X124528418Y-117328400D02*
X124337942Y-117423638D01*
X124337942Y-117423638D02*
X124052227Y-117423638D01*
X125385561Y-116090304D02*
X125766513Y-117423638D01*
X125766513Y-117423638D02*
X126147466Y-116471257D01*
X126147466Y-116471257D02*
X126528418Y-117423638D01*
X126528418Y-117423638D02*
X126909370Y-116090304D01*
X128433180Y-117328400D02*
X128242704Y-117423638D01*
X128242704Y-117423638D02*
X127861751Y-117423638D01*
X127861751Y-117423638D02*
X127671275Y-117328400D01*
X127671275Y-117328400D02*
X127576037Y-117137923D01*
X127576037Y-117137923D02*
X127576037Y-116376019D01*
X127576037Y-116376019D02*
X127671275Y-116185542D01*
X127671275Y-116185542D02*
X127861751Y-116090304D01*
X127861751Y-116090304D02*
X128242704Y-116090304D01*
X128242704Y-116090304D02*
X128433180Y-116185542D01*
X128433180Y-116185542D02*
X128528418Y-116376019D01*
X128528418Y-116376019D02*
X128528418Y-116566495D01*
X128528418Y-116566495D02*
X127576037Y-116756971D01*
X129385561Y-117423638D02*
X129385561Y-116090304D01*
X129385561Y-116471257D02*
X129480799Y-116280780D01*
X129480799Y-116280780D02*
X129576037Y-116185542D01*
X129576037Y-116185542D02*
X129766513Y-116090304D01*
X129766513Y-116090304D02*
X129956990Y-116090304D01*
X131385561Y-117328400D02*
X131195085Y-117423638D01*
X131195085Y-117423638D02*
X130814132Y-117423638D01*
X130814132Y-117423638D02*
X130623656Y-117328400D01*
X130623656Y-117328400D02*
X130528418Y-117137923D01*
X130528418Y-117137923D02*
X130528418Y-116376019D01*
X130528418Y-116376019D02*
X130623656Y-116185542D01*
X130623656Y-116185542D02*
X130814132Y-116090304D01*
X130814132Y-116090304D02*
X131195085Y-116090304D01*
X131195085Y-116090304D02*
X131385561Y-116185542D01*
X131385561Y-116185542D02*
X131480799Y-116376019D01*
X131480799Y-116376019D02*
X131480799Y-116566495D01*
X131480799Y-116566495D02*
X130528418Y-116756971D01*
X133195085Y-117423638D02*
X133195085Y-115423638D01*
X133195085Y-117328400D02*
X133004609Y-117423638D01*
X133004609Y-117423638D02*
X132623656Y-117423638D01*
X132623656Y-117423638D02*
X132433180Y-117328400D01*
X132433180Y-117328400D02*
X132337942Y-117233161D01*
X132337942Y-117233161D02*
X132242704Y-117042685D01*
X132242704Y-117042685D02*
X132242704Y-116471257D01*
X132242704Y-116471257D02*
X132337942Y-116280780D01*
X132337942Y-116280780D02*
X132433180Y-116185542D01*
X132433180Y-116185542D02*
X132623656Y-116090304D01*
X132623656Y-116090304D02*
X133004609Y-116090304D01*
X133004609Y-116090304D02*
X133195085Y-116185542D01*
X135576038Y-117328400D02*
X135861752Y-117423638D01*
X135861752Y-117423638D02*
X136337943Y-117423638D01*
X136337943Y-117423638D02*
X136528419Y-117328400D01*
X136528419Y-117328400D02*
X136623657Y-117233161D01*
X136623657Y-117233161D02*
X136718895Y-117042685D01*
X136718895Y-117042685D02*
X136718895Y-116852209D01*
X136718895Y-116852209D02*
X136623657Y-116661733D01*
X136623657Y-116661733D02*
X136528419Y-116566495D01*
X136528419Y-116566495D02*
X136337943Y-116471257D01*
X136337943Y-116471257D02*
X135956990Y-116376019D01*
X135956990Y-116376019D02*
X135766514Y-116280780D01*
X135766514Y-116280780D02*
X135671276Y-116185542D01*
X135671276Y-116185542D02*
X135576038Y-115995066D01*
X135576038Y-115995066D02*
X135576038Y-115804590D01*
X135576038Y-115804590D02*
X135671276Y-115614114D01*
X135671276Y-115614114D02*
X135766514Y-115518876D01*
X135766514Y-115518876D02*
X135956990Y-115423638D01*
X135956990Y-115423638D02*
X136433181Y-115423638D01*
X136433181Y-115423638D02*
X136718895Y-115518876D01*
X137290324Y-116090304D02*
X138052228Y-116090304D01*
X137576038Y-115423638D02*
X137576038Y-117137923D01*
X137576038Y-117137923D02*
X137671276Y-117328400D01*
X137671276Y-117328400D02*
X137861752Y-117423638D01*
X137861752Y-117423638D02*
X138052228Y-117423638D01*
X139480800Y-117328400D02*
X139290324Y-117423638D01*
X139290324Y-117423638D02*
X138909371Y-117423638D01*
X138909371Y-117423638D02*
X138718895Y-117328400D01*
X138718895Y-117328400D02*
X138623657Y-117137923D01*
X138623657Y-117137923D02*
X138623657Y-116376019D01*
X138623657Y-116376019D02*
X138718895Y-116185542D01*
X138718895Y-116185542D02*
X138909371Y-116090304D01*
X138909371Y-116090304D02*
X139290324Y-116090304D01*
X139290324Y-116090304D02*
X139480800Y-116185542D01*
X139480800Y-116185542D02*
X139576038Y-116376019D01*
X139576038Y-116376019D02*
X139576038Y-116566495D01*
X139576038Y-116566495D02*
X138623657Y-116756971D01*
X140433181Y-117423638D02*
X140433181Y-116090304D01*
X140433181Y-116471257D02*
X140528419Y-116280780D01*
X140528419Y-116280780D02*
X140623657Y-116185542D01*
X140623657Y-116185542D02*
X140814133Y-116090304D01*
X140814133Y-116090304D02*
X141004610Y-116090304D01*
X142433181Y-117328400D02*
X142242705Y-117423638D01*
X142242705Y-117423638D02*
X141861752Y-117423638D01*
X141861752Y-117423638D02*
X141671276Y-117328400D01*
X141671276Y-117328400D02*
X141576038Y-117137923D01*
X141576038Y-117137923D02*
X141576038Y-116376019D01*
X141576038Y-116376019D02*
X141671276Y-116185542D01*
X141671276Y-116185542D02*
X141861752Y-116090304D01*
X141861752Y-116090304D02*
X142242705Y-116090304D01*
X142242705Y-116090304D02*
X142433181Y-116185542D01*
X142433181Y-116185542D02*
X142528419Y-116376019D01*
X142528419Y-116376019D02*
X142528419Y-116566495D01*
X142528419Y-116566495D02*
X141576038Y-116756971D01*
X143671276Y-117423638D02*
X143480800Y-117328400D01*
X143480800Y-117328400D02*
X143385562Y-117233161D01*
X143385562Y-117233161D02*
X143290324Y-117042685D01*
X143290324Y-117042685D02*
X143290324Y-116471257D01*
X143290324Y-116471257D02*
X143385562Y-116280780D01*
X143385562Y-116280780D02*
X143480800Y-116185542D01*
X143480800Y-116185542D02*
X143671276Y-116090304D01*
X143671276Y-116090304D02*
X143956991Y-116090304D01*
X143956991Y-116090304D02*
X144147467Y-116185542D01*
X144147467Y-116185542D02*
X144242705Y-116280780D01*
X144242705Y-116280780D02*
X144337943Y-116471257D01*
X144337943Y-116471257D02*
X144337943Y-117042685D01*
X144337943Y-117042685D02*
X144242705Y-117233161D01*
X144242705Y-117233161D02*
X144147467Y-117328400D01*
X144147467Y-117328400D02*
X143956991Y-117423638D01*
X143956991Y-117423638D02*
X143671276Y-117423638D01*
X146718896Y-117423638D02*
X146718896Y-115423638D01*
X146718896Y-115423638D02*
X147385563Y-116852209D01*
X147385563Y-116852209D02*
X148052229Y-115423638D01*
X148052229Y-115423638D02*
X148052229Y-117423638D01*
X149004610Y-117423638D02*
X149004610Y-116090304D01*
X149004610Y-115423638D02*
X148909372Y-115518876D01*
X148909372Y-115518876D02*
X149004610Y-115614114D01*
X149004610Y-115614114D02*
X149099848Y-115518876D01*
X149099848Y-115518876D02*
X149004610Y-115423638D01*
X149004610Y-115423638D02*
X149004610Y-115614114D01*
X149766515Y-117423638D02*
X150814134Y-116090304D01*
X149766515Y-116090304D02*
X150814134Y-117423638D01*
X152337944Y-117328400D02*
X152147468Y-117423638D01*
X152147468Y-117423638D02*
X151766515Y-117423638D01*
X151766515Y-117423638D02*
X151576039Y-117328400D01*
X151576039Y-117328400D02*
X151480801Y-117137923D01*
X151480801Y-117137923D02*
X151480801Y-116376019D01*
X151480801Y-116376019D02*
X151576039Y-116185542D01*
X151576039Y-116185542D02*
X151766515Y-116090304D01*
X151766515Y-116090304D02*
X152147468Y-116090304D01*
X152147468Y-116090304D02*
X152337944Y-116185542D01*
X152337944Y-116185542D02*
X152433182Y-116376019D01*
X152433182Y-116376019D02*
X152433182Y-116566495D01*
X152433182Y-116566495D02*
X151480801Y-116756971D01*
X153290325Y-117423638D02*
X153290325Y-116090304D01*
X153290325Y-116471257D02*
X153385563Y-116280780D01*
X153385563Y-116280780D02*
X153480801Y-116185542D01*
X153480801Y-116185542D02*
X153671277Y-116090304D01*
X153671277Y-116090304D02*
X153861754Y-116090304D01*
X110528415Y-120643638D02*
X109861748Y-119691257D01*
X109385558Y-120643638D02*
X109385558Y-118643638D01*
X109385558Y-118643638D02*
X110147463Y-118643638D01*
X110147463Y-118643638D02*
X110337939Y-118738876D01*
X110337939Y-118738876D02*
X110433177Y-118834114D01*
X110433177Y-118834114D02*
X110528415Y-119024590D01*
X110528415Y-119024590D02*
X110528415Y-119310304D01*
X110528415Y-119310304D02*
X110433177Y-119500780D01*
X110433177Y-119500780D02*
X110337939Y-119596019D01*
X110337939Y-119596019D02*
X110147463Y-119691257D01*
X110147463Y-119691257D02*
X109385558Y-119691257D01*
X112147463Y-120548400D02*
X111956987Y-120643638D01*
X111956987Y-120643638D02*
X111576034Y-120643638D01*
X111576034Y-120643638D02*
X111385558Y-120548400D01*
X111385558Y-120548400D02*
X111290320Y-120357923D01*
X111290320Y-120357923D02*
X111290320Y-119596019D01*
X111290320Y-119596019D02*
X111385558Y-119405542D01*
X111385558Y-119405542D02*
X111576034Y-119310304D01*
X111576034Y-119310304D02*
X111956987Y-119310304D01*
X111956987Y-119310304D02*
X112147463Y-119405542D01*
X112147463Y-119405542D02*
X112242701Y-119596019D01*
X112242701Y-119596019D02*
X112242701Y-119786495D01*
X112242701Y-119786495D02*
X111290320Y-119976971D01*
X112909368Y-119310304D02*
X113385558Y-120643638D01*
X113385558Y-120643638D02*
X113861749Y-119310304D01*
X114528416Y-120072209D02*
X115480797Y-120072209D01*
X114337940Y-120643638D02*
X115004606Y-118643638D01*
X115004606Y-118643638D02*
X115671273Y-120643638D01*
X118909369Y-120643638D02*
X117766512Y-120643638D01*
X118337940Y-120643638D02*
X118337940Y-118643638D01*
X118337940Y-118643638D02*
X118147464Y-118929352D01*
X118147464Y-118929352D02*
X117956988Y-119119828D01*
X117956988Y-119119828D02*
X117766512Y-119215066D01*
X120814131Y-120643638D02*
X119671274Y-120643638D01*
X120242702Y-120643638D02*
X120242702Y-118643638D01*
X120242702Y-118643638D02*
X120052226Y-118929352D01*
X120052226Y-118929352D02*
X119861750Y-119119828D01*
X119861750Y-119119828D02*
X119671274Y-119215066D01*
X123099845Y-118548400D02*
X121385560Y-121119828D01*
X123671274Y-118834114D02*
X123766512Y-118738876D01*
X123766512Y-118738876D02*
X123956988Y-118643638D01*
X123956988Y-118643638D02*
X124433179Y-118643638D01*
X124433179Y-118643638D02*
X124623655Y-118738876D01*
X124623655Y-118738876D02*
X124718893Y-118834114D01*
X124718893Y-118834114D02*
X124814131Y-119024590D01*
X124814131Y-119024590D02*
X124814131Y-119215066D01*
X124814131Y-119215066D02*
X124718893Y-119500780D01*
X124718893Y-119500780D02*
X123576036Y-120643638D01*
X123576036Y-120643638D02*
X124814131Y-120643638D01*
X126528417Y-119310304D02*
X126528417Y-120643638D01*
X126052226Y-118548400D02*
X125576036Y-119976971D01*
X125576036Y-119976971D02*
X126814131Y-119976971D01*
D11*
X150606428Y-141329580D02*
X150558809Y-141377200D01*
X150558809Y-141377200D02*
X150415952Y-141424819D01*
X150415952Y-141424819D02*
X150320714Y-141424819D01*
X150320714Y-141424819D02*
X150177857Y-141377200D01*
X150177857Y-141377200D02*
X150082619Y-141281961D01*
X150082619Y-141281961D02*
X150035000Y-141186723D01*
X150035000Y-141186723D02*
X149987381Y-140996247D01*
X149987381Y-140996247D02*
X149987381Y-140853390D01*
X149987381Y-140853390D02*
X150035000Y-140662914D01*
X150035000Y-140662914D02*
X150082619Y-140567676D01*
X150082619Y-140567676D02*
X150177857Y-140472438D01*
X150177857Y-140472438D02*
X150320714Y-140424819D01*
X150320714Y-140424819D02*
X150415952Y-140424819D01*
X150415952Y-140424819D02*
X150558809Y-140472438D01*
X150558809Y-140472438D02*
X150606428Y-140520057D01*
X151035000Y-141424819D02*
X151035000Y-140424819D01*
X151035000Y-140901009D02*
X151606428Y-140901009D01*
X151606428Y-141424819D02*
X151606428Y-140424819D01*
X152511190Y-140758152D02*
X152511190Y-141424819D01*
X152273095Y-140377200D02*
X152035000Y-141091485D01*
X152035000Y-141091485D02*
X152654047Y-141091485D01*
X153654048Y-140424819D02*
X153987381Y-141424819D01*
X153987381Y-141424819D02*
X154320714Y-140424819D01*
X154844524Y-140424819D02*
X155035000Y-140424819D01*
X155035000Y-140424819D02*
X155130238Y-140472438D01*
X155130238Y-140472438D02*
X155225476Y-140567676D01*
X155225476Y-140567676D02*
X155273095Y-140758152D01*
X155273095Y-140758152D02*
X155273095Y-141091485D01*
X155273095Y-141091485D02*
X155225476Y-141281961D01*
X155225476Y-141281961D02*
X155130238Y-141377200D01*
X155130238Y-141377200D02*
X155035000Y-141424819D01*
X155035000Y-141424819D02*
X154844524Y-141424819D01*
X154844524Y-141424819D02*
X154749286Y-141377200D01*
X154749286Y-141377200D02*
X154654048Y-141281961D01*
X154654048Y-141281961D02*
X154606429Y-141091485D01*
X154606429Y-141091485D02*
X154606429Y-140758152D01*
X154606429Y-140758152D02*
X154654048Y-140567676D01*
X154654048Y-140567676D02*
X154749286Y-140472438D01*
X154749286Y-140472438D02*
X154844524Y-140424819D01*
X156177857Y-141424819D02*
X155701667Y-141424819D01*
X155701667Y-141424819D02*
X155701667Y-140424819D01*
X130810285Y-141329580D02*
X130762666Y-141377200D01*
X130762666Y-141377200D02*
X130619809Y-141424819D01*
X130619809Y-141424819D02*
X130524571Y-141424819D01*
X130524571Y-141424819D02*
X130381714Y-141377200D01*
X130381714Y-141377200D02*
X130286476Y-141281961D01*
X130286476Y-141281961D02*
X130238857Y-141186723D01*
X130238857Y-141186723D02*
X130191238Y-140996247D01*
X130191238Y-140996247D02*
X130191238Y-140853390D01*
X130191238Y-140853390D02*
X130238857Y-140662914D01*
X130238857Y-140662914D02*
X130286476Y-140567676D01*
X130286476Y-140567676D02*
X130381714Y-140472438D01*
X130381714Y-140472438D02*
X130524571Y-140424819D01*
X130524571Y-140424819D02*
X130619809Y-140424819D01*
X130619809Y-140424819D02*
X130762666Y-140472438D01*
X130762666Y-140472438D02*
X130810285Y-140520057D01*
X131238857Y-141424819D02*
X131238857Y-140424819D01*
X131238857Y-140901009D02*
X131810285Y-140901009D01*
X131810285Y-141424819D02*
X131810285Y-140424819D01*
X132191238Y-140424819D02*
X132810285Y-140424819D01*
X132810285Y-140424819D02*
X132476952Y-140805771D01*
X132476952Y-140805771D02*
X132619809Y-140805771D01*
X132619809Y-140805771D02*
X132715047Y-140853390D01*
X132715047Y-140853390D02*
X132762666Y-140901009D01*
X132762666Y-140901009D02*
X132810285Y-140996247D01*
X132810285Y-140996247D02*
X132810285Y-141234342D01*
X132810285Y-141234342D02*
X132762666Y-141329580D01*
X132762666Y-141329580D02*
X132715047Y-141377200D01*
X132715047Y-141377200D02*
X132619809Y-141424819D01*
X132619809Y-141424819D02*
X132334095Y-141424819D01*
X132334095Y-141424819D02*
X132238857Y-141377200D01*
X132238857Y-141377200D02*
X132191238Y-141329580D01*
X133857905Y-140424819D02*
X134191238Y-141424819D01*
X134191238Y-141424819D02*
X134524571Y-140424819D01*
X135048381Y-140424819D02*
X135238857Y-140424819D01*
X135238857Y-140424819D02*
X135334095Y-140472438D01*
X135334095Y-140472438D02*
X135429333Y-140567676D01*
X135429333Y-140567676D02*
X135476952Y-140758152D01*
X135476952Y-140758152D02*
X135476952Y-141091485D01*
X135476952Y-141091485D02*
X135429333Y-141281961D01*
X135429333Y-141281961D02*
X135334095Y-141377200D01*
X135334095Y-141377200D02*
X135238857Y-141424819D01*
X135238857Y-141424819D02*
X135048381Y-141424819D01*
X135048381Y-141424819D02*
X134953143Y-141377200D01*
X134953143Y-141377200D02*
X134857905Y-141281961D01*
X134857905Y-141281961D02*
X134810286Y-141091485D01*
X134810286Y-141091485D02*
X134810286Y-140758152D01*
X134810286Y-140758152D02*
X134857905Y-140567676D01*
X134857905Y-140567676D02*
X134953143Y-140472438D01*
X134953143Y-140472438D02*
X135048381Y-140424819D01*
X136048381Y-141424819D02*
X135953143Y-141377200D01*
X135953143Y-141377200D02*
X135905524Y-141281961D01*
X135905524Y-141281961D02*
X135905524Y-140424819D01*
X110982428Y-141329580D02*
X110934809Y-141377200D01*
X110934809Y-141377200D02*
X110791952Y-141424819D01*
X110791952Y-141424819D02*
X110696714Y-141424819D01*
X110696714Y-141424819D02*
X110553857Y-141377200D01*
X110553857Y-141377200D02*
X110458619Y-141281961D01*
X110458619Y-141281961D02*
X110411000Y-141186723D01*
X110411000Y-141186723D02*
X110363381Y-140996247D01*
X110363381Y-140996247D02*
X110363381Y-140853390D01*
X110363381Y-140853390D02*
X110411000Y-140662914D01*
X110411000Y-140662914D02*
X110458619Y-140567676D01*
X110458619Y-140567676D02*
X110553857Y-140472438D01*
X110553857Y-140472438D02*
X110696714Y-140424819D01*
X110696714Y-140424819D02*
X110791952Y-140424819D01*
X110791952Y-140424819D02*
X110934809Y-140472438D01*
X110934809Y-140472438D02*
X110982428Y-140520057D01*
X111411000Y-141424819D02*
X111411000Y-140424819D01*
X111411000Y-140901009D02*
X111982428Y-140901009D01*
X111982428Y-141424819D02*
X111982428Y-140424819D01*
X112411000Y-140520057D02*
X112458619Y-140472438D01*
X112458619Y-140472438D02*
X112553857Y-140424819D01*
X112553857Y-140424819D02*
X112791952Y-140424819D01*
X112791952Y-140424819D02*
X112887190Y-140472438D01*
X112887190Y-140472438D02*
X112934809Y-140520057D01*
X112934809Y-140520057D02*
X112982428Y-140615295D01*
X112982428Y-140615295D02*
X112982428Y-140710533D01*
X112982428Y-140710533D02*
X112934809Y-140853390D01*
X112934809Y-140853390D02*
X112363381Y-141424819D01*
X112363381Y-141424819D02*
X112982428Y-141424819D01*
X114030048Y-140424819D02*
X114363381Y-141424819D01*
X114363381Y-141424819D02*
X114696714Y-140424819D01*
X115220524Y-140424819D02*
X115411000Y-140424819D01*
X115411000Y-140424819D02*
X115506238Y-140472438D01*
X115506238Y-140472438D02*
X115601476Y-140567676D01*
X115601476Y-140567676D02*
X115649095Y-140758152D01*
X115649095Y-140758152D02*
X115649095Y-141091485D01*
X115649095Y-141091485D02*
X115601476Y-141281961D01*
X115601476Y-141281961D02*
X115506238Y-141377200D01*
X115506238Y-141377200D02*
X115411000Y-141424819D01*
X115411000Y-141424819D02*
X115220524Y-141424819D01*
X115220524Y-141424819D02*
X115125286Y-141377200D01*
X115125286Y-141377200D02*
X115030048Y-141281961D01*
X115030048Y-141281961D02*
X114982429Y-141091485D01*
X114982429Y-141091485D02*
X114982429Y-140758152D01*
X114982429Y-140758152D02*
X115030048Y-140567676D01*
X115030048Y-140567676D02*
X115125286Y-140472438D01*
X115125286Y-140472438D02*
X115220524Y-140424819D01*
X116553857Y-141424819D02*
X116077667Y-141424819D01*
X116077667Y-141424819D02*
X116077667Y-140424819D01*
X91932428Y-141329580D02*
X91884809Y-141377200D01*
X91884809Y-141377200D02*
X91741952Y-141424819D01*
X91741952Y-141424819D02*
X91646714Y-141424819D01*
X91646714Y-141424819D02*
X91503857Y-141377200D01*
X91503857Y-141377200D02*
X91408619Y-141281961D01*
X91408619Y-141281961D02*
X91361000Y-141186723D01*
X91361000Y-141186723D02*
X91313381Y-140996247D01*
X91313381Y-140996247D02*
X91313381Y-140853390D01*
X91313381Y-140853390D02*
X91361000Y-140662914D01*
X91361000Y-140662914D02*
X91408619Y-140567676D01*
X91408619Y-140567676D02*
X91503857Y-140472438D01*
X91503857Y-140472438D02*
X91646714Y-140424819D01*
X91646714Y-140424819D02*
X91741952Y-140424819D01*
X91741952Y-140424819D02*
X91884809Y-140472438D01*
X91884809Y-140472438D02*
X91932428Y-140520057D01*
X92361000Y-141424819D02*
X92361000Y-140424819D01*
X92361000Y-140901009D02*
X92932428Y-140901009D01*
X92932428Y-141424819D02*
X92932428Y-140424819D01*
X93932428Y-141424819D02*
X93361000Y-141424819D01*
X93646714Y-141424819D02*
X93646714Y-140424819D01*
X93646714Y-140424819D02*
X93551476Y-140567676D01*
X93551476Y-140567676D02*
X93456238Y-140662914D01*
X93456238Y-140662914D02*
X93361000Y-140710533D01*
X94980048Y-140424819D02*
X95313381Y-141424819D01*
X95313381Y-141424819D02*
X95646714Y-140424819D01*
X96170524Y-140424819D02*
X96361000Y-140424819D01*
X96361000Y-140424819D02*
X96456238Y-140472438D01*
X96456238Y-140472438D02*
X96551476Y-140567676D01*
X96551476Y-140567676D02*
X96599095Y-140758152D01*
X96599095Y-140758152D02*
X96599095Y-141091485D01*
X96599095Y-141091485D02*
X96551476Y-141281961D01*
X96551476Y-141281961D02*
X96456238Y-141377200D01*
X96456238Y-141377200D02*
X96361000Y-141424819D01*
X96361000Y-141424819D02*
X96170524Y-141424819D01*
X96170524Y-141424819D02*
X96075286Y-141377200D01*
X96075286Y-141377200D02*
X95980048Y-141281961D01*
X95980048Y-141281961D02*
X95932429Y-141091485D01*
X95932429Y-141091485D02*
X95932429Y-140758152D01*
X95932429Y-140758152D02*
X95980048Y-140567676D01*
X95980048Y-140567676D02*
X96075286Y-140472438D01*
X96075286Y-140472438D02*
X96170524Y-140424819D01*
X97503857Y-141424819D02*
X97027667Y-141424819D01*
X97027667Y-141424819D02*
X97027667Y-140424819D01*
X170116857Y-114119819D02*
X170116857Y-113119819D01*
X170116857Y-113119819D02*
X170450190Y-113834104D01*
X170450190Y-113834104D02*
X170783523Y-113119819D01*
X170783523Y-113119819D02*
X170783523Y-114119819D01*
X171259714Y-114119819D02*
X171259714Y-113119819D01*
X171640666Y-113119819D02*
X172307332Y-114119819D01*
X172307332Y-113119819D02*
X171640666Y-114119819D01*
X173640666Y-113119819D02*
X173831142Y-113119819D01*
X173831142Y-113119819D02*
X173926380Y-113167438D01*
X173926380Y-113167438D02*
X174021618Y-113262676D01*
X174021618Y-113262676D02*
X174069237Y-113453152D01*
X174069237Y-113453152D02*
X174069237Y-113786485D01*
X174069237Y-113786485D02*
X174021618Y-113976961D01*
X174021618Y-113976961D02*
X173926380Y-114072200D01*
X173926380Y-114072200D02*
X173831142Y-114119819D01*
X173831142Y-114119819D02*
X173640666Y-114119819D01*
X173640666Y-114119819D02*
X173545428Y-114072200D01*
X173545428Y-114072200D02*
X173450190Y-113976961D01*
X173450190Y-113976961D02*
X173402571Y-113786485D01*
X173402571Y-113786485D02*
X173402571Y-113453152D01*
X173402571Y-113453152D02*
X173450190Y-113262676D01*
X173450190Y-113262676D02*
X173545428Y-113167438D01*
X173545428Y-113167438D02*
X173640666Y-113119819D01*
X174497809Y-113119819D02*
X174497809Y-113929342D01*
X174497809Y-113929342D02*
X174545428Y-114024580D01*
X174545428Y-114024580D02*
X174593047Y-114072200D01*
X174593047Y-114072200D02*
X174688285Y-114119819D01*
X174688285Y-114119819D02*
X174878761Y-114119819D01*
X174878761Y-114119819D02*
X174973999Y-114072200D01*
X174973999Y-114072200D02*
X175021618Y-114024580D01*
X175021618Y-114024580D02*
X175069237Y-113929342D01*
X175069237Y-113929342D02*
X175069237Y-113119819D01*
X175402571Y-113119819D02*
X175973999Y-113119819D01*
X175688285Y-114119819D02*
X175688285Y-113119819D01*
X151201666Y-114151580D02*
X151154047Y-114199200D01*
X151154047Y-114199200D02*
X151011190Y-114246819D01*
X151011190Y-114246819D02*
X150915952Y-114246819D01*
X150915952Y-114246819D02*
X150773095Y-114199200D01*
X150773095Y-114199200D02*
X150677857Y-114103961D01*
X150677857Y-114103961D02*
X150630238Y-114008723D01*
X150630238Y-114008723D02*
X150582619Y-113818247D01*
X150582619Y-113818247D02*
X150582619Y-113675390D01*
X150582619Y-113675390D02*
X150630238Y-113484914D01*
X150630238Y-113484914D02*
X150677857Y-113389676D01*
X150677857Y-113389676D02*
X150773095Y-113294438D01*
X150773095Y-113294438D02*
X150915952Y-113246819D01*
X150915952Y-113246819D02*
X151011190Y-113246819D01*
X151011190Y-113246819D02*
X151154047Y-113294438D01*
X151154047Y-113294438D02*
X151201666Y-113342057D01*
X151630238Y-114246819D02*
X151630238Y-113246819D01*
X151630238Y-113723009D02*
X152201666Y-113723009D01*
X152201666Y-114246819D02*
X152201666Y-113246819D01*
X153106428Y-113580152D02*
X153106428Y-114246819D01*
X152868333Y-113199200D02*
X152630238Y-113913485D01*
X152630238Y-113913485D02*
X153249285Y-113913485D01*
X154392143Y-114246819D02*
X154392143Y-113246819D01*
X154868333Y-114246819D02*
X154868333Y-113246819D01*
X154868333Y-113246819D02*
X155439761Y-114246819D01*
X155439761Y-114246819D02*
X155439761Y-113246819D01*
X131516666Y-114024580D02*
X131469047Y-114072200D01*
X131469047Y-114072200D02*
X131326190Y-114119819D01*
X131326190Y-114119819D02*
X131230952Y-114119819D01*
X131230952Y-114119819D02*
X131088095Y-114072200D01*
X131088095Y-114072200D02*
X130992857Y-113976961D01*
X130992857Y-113976961D02*
X130945238Y-113881723D01*
X130945238Y-113881723D02*
X130897619Y-113691247D01*
X130897619Y-113691247D02*
X130897619Y-113548390D01*
X130897619Y-113548390D02*
X130945238Y-113357914D01*
X130945238Y-113357914D02*
X130992857Y-113262676D01*
X130992857Y-113262676D02*
X131088095Y-113167438D01*
X131088095Y-113167438D02*
X131230952Y-113119819D01*
X131230952Y-113119819D02*
X131326190Y-113119819D01*
X131326190Y-113119819D02*
X131469047Y-113167438D01*
X131469047Y-113167438D02*
X131516666Y-113215057D01*
X131945238Y-114119819D02*
X131945238Y-113119819D01*
X131945238Y-113596009D02*
X132516666Y-113596009D01*
X132516666Y-114119819D02*
X132516666Y-113119819D01*
X132897619Y-113119819D02*
X133516666Y-113119819D01*
X133516666Y-113119819D02*
X133183333Y-113500771D01*
X133183333Y-113500771D02*
X133326190Y-113500771D01*
X133326190Y-113500771D02*
X133421428Y-113548390D01*
X133421428Y-113548390D02*
X133469047Y-113596009D01*
X133469047Y-113596009D02*
X133516666Y-113691247D01*
X133516666Y-113691247D02*
X133516666Y-113929342D01*
X133516666Y-113929342D02*
X133469047Y-114024580D01*
X133469047Y-114024580D02*
X133421428Y-114072200D01*
X133421428Y-114072200D02*
X133326190Y-114119819D01*
X133326190Y-114119819D02*
X133040476Y-114119819D01*
X133040476Y-114119819D02*
X132945238Y-114072200D01*
X132945238Y-114072200D02*
X132897619Y-114024580D01*
X134707143Y-114119819D02*
X134707143Y-113119819D01*
X135183333Y-114119819D02*
X135183333Y-113119819D01*
X135183333Y-113119819D02*
X135754761Y-114119819D01*
X135754761Y-114119819D02*
X135754761Y-113119819D01*
X111704666Y-114024580D02*
X111657047Y-114072200D01*
X111657047Y-114072200D02*
X111514190Y-114119819D01*
X111514190Y-114119819D02*
X111418952Y-114119819D01*
X111418952Y-114119819D02*
X111276095Y-114072200D01*
X111276095Y-114072200D02*
X111180857Y-113976961D01*
X111180857Y-113976961D02*
X111133238Y-113881723D01*
X111133238Y-113881723D02*
X111085619Y-113691247D01*
X111085619Y-113691247D02*
X111085619Y-113548390D01*
X111085619Y-113548390D02*
X111133238Y-113357914D01*
X111133238Y-113357914D02*
X111180857Y-113262676D01*
X111180857Y-113262676D02*
X111276095Y-113167438D01*
X111276095Y-113167438D02*
X111418952Y-113119819D01*
X111418952Y-113119819D02*
X111514190Y-113119819D01*
X111514190Y-113119819D02*
X111657047Y-113167438D01*
X111657047Y-113167438D02*
X111704666Y-113215057D01*
X112133238Y-114119819D02*
X112133238Y-113119819D01*
X112133238Y-113596009D02*
X112704666Y-113596009D01*
X112704666Y-114119819D02*
X112704666Y-113119819D01*
X113133238Y-113215057D02*
X113180857Y-113167438D01*
X113180857Y-113167438D02*
X113276095Y-113119819D01*
X113276095Y-113119819D02*
X113514190Y-113119819D01*
X113514190Y-113119819D02*
X113609428Y-113167438D01*
X113609428Y-113167438D02*
X113657047Y-113215057D01*
X113657047Y-113215057D02*
X113704666Y-113310295D01*
X113704666Y-113310295D02*
X113704666Y-113405533D01*
X113704666Y-113405533D02*
X113657047Y-113548390D01*
X113657047Y-113548390D02*
X113085619Y-114119819D01*
X113085619Y-114119819D02*
X113704666Y-114119819D01*
X114895143Y-114119819D02*
X114895143Y-113119819D01*
X115371333Y-114119819D02*
X115371333Y-113119819D01*
X115371333Y-113119819D02*
X115942761Y-114119819D01*
X115942761Y-114119819D02*
X115942761Y-113119819D01*
X91977333Y-114024580D02*
X91929714Y-114072200D01*
X91929714Y-114072200D02*
X91786857Y-114119819D01*
X91786857Y-114119819D02*
X91691619Y-114119819D01*
X91691619Y-114119819D02*
X91548762Y-114072200D01*
X91548762Y-114072200D02*
X91453524Y-113976961D01*
X91453524Y-113976961D02*
X91405905Y-113881723D01*
X91405905Y-113881723D02*
X91358286Y-113691247D01*
X91358286Y-113691247D02*
X91358286Y-113548390D01*
X91358286Y-113548390D02*
X91405905Y-113357914D01*
X91405905Y-113357914D02*
X91453524Y-113262676D01*
X91453524Y-113262676D02*
X91548762Y-113167438D01*
X91548762Y-113167438D02*
X91691619Y-113119819D01*
X91691619Y-113119819D02*
X91786857Y-113119819D01*
X91786857Y-113119819D02*
X91929714Y-113167438D01*
X91929714Y-113167438D02*
X91977333Y-113215057D01*
X92405905Y-114119819D02*
X92405905Y-113119819D01*
X92405905Y-113596009D02*
X92977333Y-113596009D01*
X92977333Y-114119819D02*
X92977333Y-113119819D01*
X93977333Y-114119819D02*
X93405905Y-114119819D01*
X93691619Y-114119819D02*
X93691619Y-113119819D01*
X93691619Y-113119819D02*
X93596381Y-113262676D01*
X93596381Y-113262676D02*
X93501143Y-113357914D01*
X93501143Y-113357914D02*
X93405905Y-113405533D01*
X95167810Y-114119819D02*
X95167810Y-113119819D01*
X95644000Y-114119819D02*
X95644000Y-113119819D01*
X95644000Y-113119819D02*
X96215428Y-114119819D01*
X96215428Y-114119819D02*
X96215428Y-113119819D01*
X160077761Y-130248866D02*
X160839666Y-130248866D01*
X161792047Y-130629819D02*
X161220618Y-130629819D01*
X161506333Y-130629819D02*
X161631333Y-129629819D01*
X161631333Y-129629819D02*
X161518237Y-129772676D01*
X161518237Y-129772676D02*
X161411095Y-129867914D01*
X161411095Y-129867914D02*
X161309904Y-129915533D01*
X162286095Y-129725057D02*
X162339666Y-129677438D01*
X162339666Y-129677438D02*
X162440856Y-129629819D01*
X162440856Y-129629819D02*
X162678952Y-129629819D01*
X162678952Y-129629819D02*
X162768237Y-129677438D01*
X162768237Y-129677438D02*
X162809904Y-129725057D01*
X162809904Y-129725057D02*
X162845618Y-129820295D01*
X162845618Y-129820295D02*
X162833714Y-129915533D01*
X162833714Y-129915533D02*
X162768237Y-130058390D01*
X162768237Y-130058390D02*
X162125380Y-130629819D01*
X162125380Y-130629819D02*
X162744428Y-130629819D01*
X163155142Y-129629819D02*
X163363476Y-130629819D01*
X163363476Y-130629819D02*
X163821809Y-129629819D01*
X170307095Y-121247819D02*
X170307095Y-122057342D01*
X170307095Y-122057342D02*
X170354714Y-122152580D01*
X170354714Y-122152580D02*
X170402333Y-122200200D01*
X170402333Y-122200200D02*
X170497571Y-122247819D01*
X170497571Y-122247819D02*
X170688047Y-122247819D01*
X170688047Y-122247819D02*
X170783285Y-122200200D01*
X170783285Y-122200200D02*
X170830904Y-122152580D01*
X170830904Y-122152580D02*
X170878523Y-122057342D01*
X170878523Y-122057342D02*
X170878523Y-121247819D01*
X171830904Y-121247819D02*
X171354714Y-121247819D01*
X171354714Y-121247819D02*
X171307095Y-121724009D01*
X171307095Y-121724009D02*
X171354714Y-121676390D01*
X171354714Y-121676390D02*
X171449952Y-121628771D01*
X171449952Y-121628771D02*
X171688047Y-121628771D01*
X171688047Y-121628771D02*
X171783285Y-121676390D01*
X171783285Y-121676390D02*
X171830904Y-121724009D01*
X171830904Y-121724009D02*
X171878523Y-121819247D01*
X171878523Y-121819247D02*
X171878523Y-122057342D01*
X171878523Y-122057342D02*
X171830904Y-122152580D01*
X171830904Y-122152580D02*
X171783285Y-122200200D01*
X171783285Y-122200200D02*
X171688047Y-122247819D01*
X171688047Y-122247819D02*
X171449952Y-122247819D01*
X171449952Y-122247819D02*
X171354714Y-122200200D01*
X171354714Y-122200200D02*
X171307095Y-122152580D01*
X151700095Y-130518819D02*
X151700095Y-131328342D01*
X151700095Y-131328342D02*
X151747714Y-131423580D01*
X151747714Y-131423580D02*
X151795333Y-131471200D01*
X151795333Y-131471200D02*
X151890571Y-131518819D01*
X151890571Y-131518819D02*
X152081047Y-131518819D01*
X152081047Y-131518819D02*
X152176285Y-131471200D01*
X152176285Y-131471200D02*
X152223904Y-131423580D01*
X152223904Y-131423580D02*
X152271523Y-131328342D01*
X152271523Y-131328342D02*
X152271523Y-130518819D01*
X153176285Y-130852152D02*
X153176285Y-131518819D01*
X152938190Y-130471200D02*
X152700095Y-131185485D01*
X152700095Y-131185485D02*
X153319142Y-131185485D01*
X112203095Y-130518819D02*
X112203095Y-131328342D01*
X112203095Y-131328342D02*
X112250714Y-131423580D01*
X112250714Y-131423580D02*
X112298333Y-131471200D01*
X112298333Y-131471200D02*
X112393571Y-131518819D01*
X112393571Y-131518819D02*
X112584047Y-131518819D01*
X112584047Y-131518819D02*
X112679285Y-131471200D01*
X112679285Y-131471200D02*
X112726904Y-131423580D01*
X112726904Y-131423580D02*
X112774523Y-131328342D01*
X112774523Y-131328342D02*
X112774523Y-130518819D01*
X113203095Y-130614057D02*
X113250714Y-130566438D01*
X113250714Y-130566438D02*
X113345952Y-130518819D01*
X113345952Y-130518819D02*
X113584047Y-130518819D01*
X113584047Y-130518819D02*
X113679285Y-130566438D01*
X113679285Y-130566438D02*
X113726904Y-130614057D01*
X113726904Y-130614057D02*
X113774523Y-130709295D01*
X113774523Y-130709295D02*
X113774523Y-130804533D01*
X113774523Y-130804533D02*
X113726904Y-130947390D01*
X113726904Y-130947390D02*
X113155476Y-131518819D01*
X113155476Y-131518819D02*
X113774523Y-131518819D01*
X177222761Y-129994866D02*
X177984666Y-129994866D01*
X177556095Y-130375819D02*
X177651333Y-129613914D01*
X178937047Y-130375819D02*
X178365618Y-130375819D01*
X178651333Y-130375819D02*
X178776333Y-129375819D01*
X178776333Y-129375819D02*
X178663237Y-129518676D01*
X178663237Y-129518676D02*
X178556095Y-129613914D01*
X178556095Y-129613914D02*
X178454904Y-129661533D01*
X179431095Y-129471057D02*
X179484666Y-129423438D01*
X179484666Y-129423438D02*
X179585856Y-129375819D01*
X179585856Y-129375819D02*
X179823952Y-129375819D01*
X179823952Y-129375819D02*
X179913237Y-129423438D01*
X179913237Y-129423438D02*
X179954904Y-129471057D01*
X179954904Y-129471057D02*
X179990618Y-129566295D01*
X179990618Y-129566295D02*
X179978714Y-129661533D01*
X179978714Y-129661533D02*
X179913237Y-129804390D01*
X179913237Y-129804390D02*
X179270380Y-130375819D01*
X179270380Y-130375819D02*
X179889428Y-130375819D01*
X180300142Y-129375819D02*
X180508476Y-130375819D01*
X180508476Y-130375819D02*
X180966809Y-129375819D01*
X177419095Y-143345819D02*
X177419095Y-144155342D01*
X177419095Y-144155342D02*
X177466714Y-144250580D01*
X177466714Y-144250580D02*
X177514333Y-144298200D01*
X177514333Y-144298200D02*
X177609571Y-144345819D01*
X177609571Y-144345819D02*
X177800047Y-144345819D01*
X177800047Y-144345819D02*
X177895285Y-144298200D01*
X177895285Y-144298200D02*
X177942904Y-144250580D01*
X177942904Y-144250580D02*
X177990523Y-144155342D01*
X177990523Y-144155342D02*
X177990523Y-143345819D01*
X178895285Y-143345819D02*
X178704809Y-143345819D01*
X178704809Y-143345819D02*
X178609571Y-143393438D01*
X178609571Y-143393438D02*
X178561952Y-143441057D01*
X178561952Y-143441057D02*
X178466714Y-143583914D01*
X178466714Y-143583914D02*
X178419095Y-143774390D01*
X178419095Y-143774390D02*
X178419095Y-144155342D01*
X178419095Y-144155342D02*
X178466714Y-144250580D01*
X178466714Y-144250580D02*
X178514333Y-144298200D01*
X178514333Y-144298200D02*
X178609571Y-144345819D01*
X178609571Y-144345819D02*
X178800047Y-144345819D01*
X178800047Y-144345819D02*
X178895285Y-144298200D01*
X178895285Y-144298200D02*
X178942904Y-144250580D01*
X178942904Y-144250580D02*
X178990523Y-144155342D01*
X178990523Y-144155342D02*
X178990523Y-143917247D01*
X178990523Y-143917247D02*
X178942904Y-143822009D01*
X178942904Y-143822009D02*
X178895285Y-143774390D01*
X178895285Y-143774390D02*
X178800047Y-143726771D01*
X178800047Y-143726771D02*
X178609571Y-143726771D01*
X178609571Y-143726771D02*
X178514333Y-143774390D01*
X178514333Y-143774390D02*
X178466714Y-143822009D01*
X178466714Y-143822009D02*
X178419095Y-143917247D01*
X160433238Y-150441866D02*
X161195143Y-150441866D01*
X160814190Y-150822819D02*
X160814190Y-150060914D01*
X162195142Y-150822819D02*
X161623714Y-150822819D01*
X161909428Y-150822819D02*
X161909428Y-149822819D01*
X161909428Y-149822819D02*
X161814190Y-149965676D01*
X161814190Y-149965676D02*
X161718952Y-150060914D01*
X161718952Y-150060914D02*
X161623714Y-150108533D01*
X162576095Y-149918057D02*
X162623714Y-149870438D01*
X162623714Y-149870438D02*
X162718952Y-149822819D01*
X162718952Y-149822819D02*
X162957047Y-149822819D01*
X162957047Y-149822819D02*
X163052285Y-149870438D01*
X163052285Y-149870438D02*
X163099904Y-149918057D01*
X163099904Y-149918057D02*
X163147523Y-150013295D01*
X163147523Y-150013295D02*
X163147523Y-150108533D01*
X163147523Y-150108533D02*
X163099904Y-150251390D01*
X163099904Y-150251390D02*
X162528476Y-150822819D01*
X162528476Y-150822819D02*
X163147523Y-150822819D01*
X163433238Y-149822819D02*
X163766571Y-150822819D01*
X163766571Y-150822819D02*
X164099904Y-149822819D01*
X164433238Y-150822819D02*
X164433238Y-149822819D01*
X164433238Y-149822819D02*
X164671333Y-149822819D01*
X164671333Y-149822819D02*
X164814190Y-149870438D01*
X164814190Y-149870438D02*
X164909428Y-149965676D01*
X164909428Y-149965676D02*
X164957047Y-150060914D01*
X164957047Y-150060914D02*
X165004666Y-150251390D01*
X165004666Y-150251390D02*
X165004666Y-150394247D01*
X165004666Y-150394247D02*
X164957047Y-150584723D01*
X164957047Y-150584723D02*
X164909428Y-150679961D01*
X164909428Y-150679961D02*
X164814190Y-150775200D01*
X164814190Y-150775200D02*
X164671333Y-150822819D01*
X164671333Y-150822819D02*
X164433238Y-150822819D01*
X166004666Y-150727580D02*
X165957047Y-150775200D01*
X165957047Y-150775200D02*
X165814190Y-150822819D01*
X165814190Y-150822819D02*
X165718952Y-150822819D01*
X165718952Y-150822819D02*
X165576095Y-150775200D01*
X165576095Y-150775200D02*
X165480857Y-150679961D01*
X165480857Y-150679961D02*
X165433238Y-150584723D01*
X165433238Y-150584723D02*
X165385619Y-150394247D01*
X165385619Y-150394247D02*
X165385619Y-150251390D01*
X165385619Y-150251390D02*
X165433238Y-150060914D01*
X165433238Y-150060914D02*
X165480857Y-149965676D01*
X165480857Y-149965676D02*
X165576095Y-149870438D01*
X165576095Y-149870438D02*
X165718952Y-149822819D01*
X165718952Y-149822819D02*
X165814190Y-149822819D01*
X165814190Y-149822819D02*
X165957047Y-149870438D01*
X165957047Y-149870438D02*
X166004666Y-149918057D01*
X167195143Y-150822819D02*
X167195143Y-149822819D01*
X167671333Y-150822819D02*
X167671333Y-149822819D01*
X167671333Y-149822819D02*
X168242761Y-150822819D01*
X168242761Y-150822819D02*
X168242761Y-149822819D01*
X92862495Y-130518819D02*
X92862495Y-131328342D01*
X92862495Y-131328342D02*
X92910114Y-131423580D01*
X92910114Y-131423580D02*
X92957733Y-131471200D01*
X92957733Y-131471200D02*
X93052971Y-131518819D01*
X93052971Y-131518819D02*
X93243447Y-131518819D01*
X93243447Y-131518819D02*
X93338685Y-131471200D01*
X93338685Y-131471200D02*
X93386304Y-131423580D01*
X93386304Y-131423580D02*
X93433923Y-131328342D01*
X93433923Y-131328342D02*
X93433923Y-130518819D01*
X94433923Y-131518819D02*
X93862495Y-131518819D01*
X94148209Y-131518819D02*
X94148209Y-130518819D01*
X94148209Y-130518819D02*
X94052971Y-130661676D01*
X94052971Y-130661676D02*
X93957733Y-130756914D01*
X93957733Y-130756914D02*
X93862495Y-130804533D01*
X132739395Y-130529469D02*
X132739395Y-131338992D01*
X132739395Y-131338992D02*
X132787014Y-131434230D01*
X132787014Y-131434230D02*
X132834633Y-131481850D01*
X132834633Y-131481850D02*
X132929871Y-131529469D01*
X132929871Y-131529469D02*
X133120347Y-131529469D01*
X133120347Y-131529469D02*
X133215585Y-131481850D01*
X133215585Y-131481850D02*
X133263204Y-131434230D01*
X133263204Y-131434230D02*
X133310823Y-131338992D01*
X133310823Y-131338992D02*
X133310823Y-130529469D01*
X133691776Y-130529469D02*
X134310823Y-130529469D01*
X134310823Y-130529469D02*
X133977490Y-130910421D01*
X133977490Y-130910421D02*
X134120347Y-130910421D01*
X134120347Y-130910421D02*
X134215585Y-130958040D01*
X134215585Y-130958040D02*
X134263204Y-131005659D01*
X134263204Y-131005659D02*
X134310823Y-131100897D01*
X134310823Y-131100897D02*
X134310823Y-131338992D01*
X134310823Y-131338992D02*
X134263204Y-131434230D01*
X134263204Y-131434230D02*
X134215585Y-131481850D01*
X134215585Y-131481850D02*
X134120347Y-131529469D01*
X134120347Y-131529469D02*
X133834633Y-131529469D01*
X133834633Y-131529469D02*
X133739395Y-131481850D01*
X133739395Y-131481850D02*
X133691776Y-131434230D01*
D12*
%TO.C,RV4*%
X156155000Y-169980000D02*
X149915000Y-169980000D01*
X149915000Y-159980000D02*
X149915000Y-169980000D01*
X156155000Y-159980000D02*
X156155000Y-169980000D01*
X157655000Y-159980000D02*
X148415000Y-159980000D01*
X148415000Y-154980000D02*
X148415000Y-159980000D01*
X157655000Y-154980000D02*
X157655000Y-159980000D01*
X159205000Y-154980000D02*
X146865000Y-154980000D01*
X146865000Y-146101000D02*
X146865000Y-154980000D01*
X159205000Y-146101000D02*
X159205000Y-154980000D01*
X155429000Y-145599000D02*
X150640000Y-145599000D01*
%TO.C,RV3*%
X136470000Y-169980000D02*
X130230000Y-169980000D01*
X130230000Y-159980000D02*
X130230000Y-169980000D01*
X136470000Y-159980000D02*
X136470000Y-169980000D01*
X137970000Y-159980000D02*
X128730000Y-159980000D01*
X128730000Y-154980000D02*
X128730000Y-159980000D01*
X137970000Y-154980000D02*
X137970000Y-159980000D01*
X139520000Y-154980000D02*
X127180000Y-154980000D01*
X127180000Y-146101000D02*
X127180000Y-154980000D01*
X139520000Y-146101000D02*
X139520000Y-154980000D01*
X135744000Y-145599000D02*
X130955000Y-145599000D01*
%TO.C,RV2*%
X116658000Y-169980000D02*
X110418000Y-169980000D01*
X110418000Y-159980000D02*
X110418000Y-169980000D01*
X116658000Y-159980000D02*
X116658000Y-169980000D01*
X118158000Y-159980000D02*
X108918000Y-159980000D01*
X108918000Y-154980000D02*
X108918000Y-159980000D01*
X118158000Y-154980000D02*
X118158000Y-159980000D01*
X119708000Y-154980000D02*
X107368000Y-154980000D01*
X107368000Y-146101000D02*
X107368000Y-154980000D01*
X119708000Y-146101000D02*
X119708000Y-154980000D01*
X115932000Y-145599000D02*
X111143000Y-145599000D01*
%TO.C,RV1*%
X96930667Y-169980000D02*
X90690667Y-169980000D01*
X90690667Y-159980000D02*
X90690667Y-169980000D01*
X96930667Y-159980000D02*
X96930667Y-169980000D01*
X98430667Y-159980000D02*
X89190667Y-159980000D01*
X89190667Y-154980000D02*
X89190667Y-159980000D01*
X98430667Y-154980000D02*
X98430667Y-159980000D01*
X99980667Y-154980000D02*
X87640667Y-154980000D01*
X87640667Y-146101000D02*
X87640667Y-154980000D01*
X99980667Y-146101000D02*
X99980667Y-154980000D01*
X96204667Y-145599000D02*
X91415667Y-145599000D01*
D13*
%TO.C,J5*%
X163576000Y-99314000D02*
X181864000Y-99314000D01*
X181864000Y-99314000D02*
X181864000Y-112903000D01*
X181864000Y-112903000D02*
X163576000Y-112903000D01*
X163576000Y-112903000D02*
X163576000Y-99314000D01*
%TO.C,J4*%
X143891000Y-99314000D02*
X162179000Y-99314000D01*
X162179000Y-99314000D02*
X162179000Y-112903000D01*
X162179000Y-112903000D02*
X143891000Y-112903000D01*
X143891000Y-112903000D02*
X143891000Y-99314000D01*
%TO.C,J3*%
X124206000Y-99314000D02*
X142494000Y-99314000D01*
X142494000Y-99314000D02*
X142494000Y-112903000D01*
X142494000Y-112903000D02*
X124206000Y-112903000D01*
X124206000Y-112903000D02*
X124206000Y-99314000D01*
%TO.C,J2*%
X104394000Y-99314000D02*
X122682000Y-99314000D01*
X122682000Y-99314000D02*
X122682000Y-112903000D01*
X122682000Y-112903000D02*
X104394000Y-112903000D01*
X104394000Y-112903000D02*
X104394000Y-99314000D01*
%TO.C,J1*%
X84666667Y-99314000D02*
X102954667Y-99314000D01*
X102954667Y-99314000D02*
X102954667Y-112903000D01*
X102954667Y-112903000D02*
X84666667Y-112903000D01*
X84666667Y-112903000D02*
X84666667Y-99314000D01*
D12*
%TO.C,R4*%
X178487064Y-117575000D02*
X178032936Y-117575000D01*
X178487064Y-116105000D02*
X178032936Y-116105000D01*
%TO.C,RFB2*%
X170714336Y-134647000D02*
X171168464Y-134647000D01*
X170714336Y-136117000D02*
X171168464Y-136117000D01*
%TO.C,C9*%
X166230267Y-127764000D02*
X165937733Y-127764000D01*
X166230267Y-126744000D02*
X165937733Y-126744000D01*
%TO.C,C11*%
X130243967Y-132600650D02*
X129951433Y-132600650D01*
X130243967Y-131580650D02*
X129951433Y-131580650D01*
%TO.C,C15*%
X176659000Y-148697733D02*
X176659000Y-148990267D01*
X175639000Y-148697733D02*
X175639000Y-148990267D01*
%TO.C,R2*%
X178487064Y-122147000D02*
X178032936Y-122147000D01*
X178487064Y-120677000D02*
X178032936Y-120677000D01*
%TO.C,J8*%
X163255000Y-135387000D02*
X163255000Y-136717000D01*
X163255000Y-131517000D02*
X160595000Y-131517000D01*
X163255000Y-134117000D02*
X163255000Y-131517000D01*
X163255000Y-134117000D02*
X160595000Y-134117000D01*
X163255000Y-136717000D02*
X161925000Y-136717000D01*
X160595000Y-134117000D02*
X160595000Y-131517000D01*
%TO.C,C13*%
X149269667Y-132590000D02*
X148977133Y-132590000D01*
X149269667Y-131570000D02*
X148977133Y-131570000D01*
%TO.C,C10*%
X174623000Y-119272267D02*
X174623000Y-118979733D01*
X175643000Y-119272267D02*
X175643000Y-118979733D01*
%TO.C,U5*%
X172115000Y-122789000D02*
X170165000Y-122789000D01*
X172115000Y-122789000D02*
X174065000Y-122789000D01*
X172115000Y-127909000D02*
X170165000Y-127909000D01*
X172115000Y-127909000D02*
X174065000Y-127909000D01*
X175055000Y-128144000D02*
X174575000Y-128144000D01*
X174815000Y-127814000D01*
X175055000Y-128144000D01*
G36*
X175055000Y-128144000D02*
G01*
X174575000Y-128144000D01*
X174815000Y-127814000D01*
X175055000Y-128144000D01*
G37*
%TO.C,U4*%
X152462000Y-125075000D02*
X150512000Y-125075000D01*
X152462000Y-125075000D02*
X154412000Y-125075000D01*
X152462000Y-130195000D02*
X150512000Y-130195000D01*
X152462000Y-130195000D02*
X154412000Y-130195000D01*
X155402000Y-130430000D02*
X154922000Y-130430000D01*
X155162000Y-130100000D01*
X155402000Y-130430000D01*
G36*
X155402000Y-130430000D02*
G01*
X154922000Y-130430000D01*
X155162000Y-130100000D01*
X155402000Y-130430000D01*
G37*
%TO.C,C8*%
X96805533Y-122680000D02*
X97098067Y-122680000D01*
X96805533Y-123700000D02*
X97098067Y-123700000D01*
%TO.C,C5*%
X109758467Y-132590000D02*
X109465933Y-132590000D01*
X109758467Y-131570000D02*
X109465933Y-131570000D01*
%TO.C,R3*%
X178487064Y-119861000D02*
X178032936Y-119861000D01*
X178487064Y-118391000D02*
X178032936Y-118391000D01*
%TO.C,C6*%
X116171533Y-122680000D02*
X116464067Y-122680000D01*
X116171533Y-123700000D02*
X116464067Y-123700000D01*
%TO.C,U2*%
X112965000Y-125075000D02*
X111015000Y-125075000D01*
X112965000Y-125075000D02*
X114915000Y-125075000D01*
X112965000Y-130195000D02*
X111015000Y-130195000D01*
X112965000Y-130195000D02*
X114915000Y-130195000D01*
X115905000Y-130430000D02*
X115425000Y-130430000D01*
X115665000Y-130100000D01*
X115905000Y-130430000D01*
G36*
X115905000Y-130430000D02*
G01*
X115425000Y-130430000D01*
X115665000Y-130100000D01*
X115905000Y-130430000D01*
G37*
%TO.C,C14*%
X155656233Y-122680000D02*
X155948767Y-122680000D01*
X155656233Y-123700000D02*
X155948767Y-123700000D01*
%TO.C,J7*%
X180400000Y-135056800D02*
X180400000Y-136386800D01*
X180400000Y-131186800D02*
X177740000Y-131186800D01*
X180400000Y-133786800D02*
X180400000Y-131186800D01*
X180400000Y-133786800D02*
X177740000Y-133786800D01*
X180400000Y-136386800D02*
X179070000Y-136386800D01*
X177740000Y-133786800D02*
X177740000Y-131186800D01*
%TO.C,U6*%
X175005400Y-146619400D02*
X175805400Y-146619400D01*
X175005400Y-146619400D02*
X174205400Y-146619400D01*
X175005400Y-143499400D02*
X175805400Y-143499400D01*
X175005400Y-143499400D02*
X174205400Y-143499400D01*
X173705400Y-143549400D02*
X173465400Y-143219400D01*
X173945400Y-143219400D01*
X173705400Y-143549400D01*
G36*
X173705400Y-143549400D02*
G01*
X173465400Y-143219400D01*
X173945400Y-143219400D01*
X173705400Y-143549400D01*
G37*
%TO.C,C2*%
X172668652Y-141339400D02*
X171246148Y-141339400D01*
X172668652Y-138619400D02*
X171246148Y-138619400D01*
%TO.C,R9*%
X178032936Y-125249000D02*
X178487064Y-125249000D01*
X178032936Y-126719000D02*
X178487064Y-126719000D01*
%TO.C,R10*%
X166073064Y-125449000D02*
X165618936Y-125449000D01*
X166073064Y-123979000D02*
X165618936Y-123979000D01*
%TO.C,C7*%
X90417867Y-132590000D02*
X90125333Y-132590000D01*
X90417867Y-131570000D02*
X90125333Y-131570000D01*
%TO.C,J6*%
X170434000Y-151698000D02*
X169104000Y-151698000D01*
X174304000Y-151698000D02*
X174304000Y-149038000D01*
X171704000Y-151698000D02*
X174304000Y-151698000D01*
X171704000Y-151698000D02*
X171704000Y-149038000D01*
X169104000Y-151698000D02*
X169104000Y-150368000D01*
X171704000Y-149038000D02*
X174304000Y-149038000D01*
%TO.C,C1*%
X177964000Y-148056652D02*
X177964000Y-146634148D01*
X180684000Y-148056652D02*
X180684000Y-146634148D01*
%TO.C,RFB1*%
X165904336Y-134647000D02*
X166358464Y-134647000D01*
X165904336Y-136117000D02*
X166358464Y-136117000D01*
%TO.C,R7*%
X165618936Y-117121000D02*
X166073064Y-117121000D01*
X165618936Y-118591000D02*
X166073064Y-118591000D01*
%TO.C,D1*%
X171189400Y-148018000D02*
X169169400Y-148018000D01*
X169169400Y-144708000D02*
X169169400Y-148018000D01*
X171189400Y-148018000D02*
X171189400Y-144708000D01*
%TO.C,R5*%
X165618936Y-121693000D02*
X166073064Y-121693000D01*
X165618936Y-123163000D02*
X166073064Y-123163000D01*
%TO.C,U1*%
X93624400Y-125075000D02*
X91674400Y-125075000D01*
X93624400Y-125075000D02*
X95574400Y-125075000D01*
X93624400Y-130195000D02*
X91674400Y-130195000D01*
X93624400Y-130195000D02*
X95574400Y-130195000D01*
X96564400Y-130430000D02*
X96084400Y-130430000D01*
X96324400Y-130100000D01*
X96564400Y-130430000D01*
G36*
X96564400Y-130430000D02*
G01*
X96084400Y-130430000D01*
X96324400Y-130100000D01*
X96564400Y-130430000D01*
G37*
%TO.C,L2*%
X166919400Y-137869400D02*
X165819400Y-137869400D01*
X166919400Y-142089400D02*
X165819400Y-142089400D01*
%TO.C,L1*%
X178095400Y-137869400D02*
X176995400Y-137869400D01*
X178095400Y-142089400D02*
X176995400Y-142089400D01*
%TO.C,C4*%
X166788752Y-147918000D02*
X165366248Y-147918000D01*
X166788752Y-145198000D02*
X165366248Y-145198000D01*
%TO.C,R6*%
X165618936Y-119407000D02*
X166073064Y-119407000D01*
X165618936Y-120877000D02*
X166073064Y-120877000D01*
%TO.C,C3*%
X166392652Y-132307000D02*
X165870148Y-132307000D01*
X166392652Y-130837000D02*
X165870148Y-130837000D01*
%TO.C,C12*%
X136606233Y-122690650D02*
X136898767Y-122690650D01*
X136606233Y-123710650D02*
X136898767Y-123710650D01*
%TO.C,R1*%
X178487064Y-124433000D02*
X178032936Y-124433000D01*
X178487064Y-122963000D02*
X178032936Y-122963000D01*
%TO.C,U3*%
X133436300Y-125085650D02*
X131486300Y-125085650D01*
X133436300Y-125085650D02*
X135386300Y-125085650D01*
X133436300Y-130205650D02*
X131486300Y-130205650D01*
X133436300Y-130205650D02*
X135386300Y-130205650D01*
X136376300Y-130440650D02*
X135896300Y-130440650D01*
X136136300Y-130110650D01*
X136376300Y-130440650D01*
G36*
X136376300Y-130440650D02*
G01*
X135896300Y-130440650D01*
X136136300Y-130110650D01*
X136376300Y-130440650D01*
G37*
%TO.C,R8*%
X165618936Y-114835000D02*
X166073064Y-114835000D01*
X165618936Y-116305000D02*
X166073064Y-116305000D01*
%TD*%
M02*
