M48
; DRILL file {KiCad 8.0.1} date 2024-04-01T22:35:26+0100
; FORMAT={-:-/ absolute / inch / decimal}
; #@! TF.CreationDate,2024-04-01T22:35:26+01:00
; #@! TF.GenerationSoftware,Kicad,Pcbnew,8.0.1
; #@! TF.FileFunction,Plated,1,4,PTH
FMAT,2
INCH
; #@! TA.AperFunction,Plated,PTH,ViaDrill
T1C0.0157
; #@! TA.AperFunction,Plated,PTH,ComponentDrill
T2C0.0315
; #@! TA.AperFunction,Plated,PTH,ComponentDrill
T3C0.0394
; #@! TA.AperFunction,Plated,PTH,ComponentDrill
T4C0.0469
; #@! TA.AperFunction,Plated,PTH,ComponentDrill
T5C0.0630
%
G90
G05
T1
X4.19Y-2.06
X4.26Y-2.8
X4.26Y-3.22
X4.52Y-3.38
X4.86Y-2.06
X4.86Y-3.75
X4.97Y-3.46
X4.99Y-2.99
X5.3Y-3.38
X5.63Y-3.76
X5.67Y-2.06
X5.76Y-3.07
X5.76Y-3.44
X6.07Y-3.37
X6.34Y-3.45
X6.39Y-3.06
X6.42Y-3.77
X6.44Y-2.06
X6.89Y-3.32
X6.984Y-2.724
X7.1Y-3.7
X7.22Y-2.06
X7.22Y-2.87
X7.289Y-2.9626
X7.39Y-3.89
X7.43Y-2.71
X7.46Y-3.34
X7.52Y-2.786
X7.5636Y-3.8332
X7.63Y-3.896
X7.76Y-3.2
X7.8Y-2.8685
X7.885Y-3.095
X7.925Y-4.175
T2
X4.2831Y-4.085
X4.3619Y-4.085
X4.4406Y-4.085
X4.5194Y-4.085
X4.5981Y-4.085
X4.6769Y-4.085
X5.0627Y-4.085
X5.1414Y-4.085
X5.2202Y-4.085
X5.2989Y-4.085
X5.3776Y-4.085
X5.4564Y-4.085
X5.84Y-4.085
X5.9187Y-4.085
X5.9975Y-4.085
X6.0762Y-4.085
X6.155Y-4.085
X6.2337Y-4.085
X6.6181Y-4.085
X6.6969Y-4.085
X6.7756Y-4.085
X6.8544Y-4.085
X6.9331Y-4.085
X7.0119Y-4.085
T3
X7.15Y-3.4248
X7.15Y-3.5248
X7.745Y-3.415
X7.845Y-3.415
T4
X7.455Y-4.0808
X7.555Y-4.0808
T5
X5.85Y-3.26
T3
G00X4.4564Y-2.0698
M15
G01X4.4957Y-2.0698
M16
G05
G00X4.4564Y-2.31
M15
G01X4.4957Y-2.31
M16
G05
G00X4.4564Y-2.5265
M15
G01X4.4957Y-2.5265
M16
G05
G00X4.5351Y-2.1643
M15
G01X4.5745Y-2.1643
M16
G05
G00X4.5351Y-2.3809
M15
G01X4.5745Y-2.3809
M16
G05
G00X5.2403Y-2.0704
M15
G01X5.2797Y-2.0704
M16
G05
G00X5.2403Y-2.3106
M15
G01X5.2797Y-2.3106
M16
G05
G00X5.2403Y-2.5271
M15
G01X5.2797Y-2.5271
M16
G05
G00X5.3191Y-2.1649
M15
G01X5.3584Y-2.1649
M16
G05
G00X5.3191Y-2.3814
M15
G01X5.3584Y-2.3814
M16
G05
G00X6.0164Y-2.0704
M15
G01X6.0557Y-2.0704
M16
G05
G00X6.0164Y-2.3106
M15
G01X6.0557Y-2.3106
M16
G05
G00X6.0164Y-2.5271
M15
G01X6.0557Y-2.5271
M16
G05
G00X6.0951Y-2.1649
M15
G01X6.1345Y-2.1649
M16
G05
G00X6.0951Y-2.3814
M15
G01X6.1345Y-2.3814
M16
G05
G00X6.7953Y-2.0704
M15
G01X6.8347Y-2.0704
M16
G05
G00X6.7953Y-2.3106
M15
G01X6.8347Y-2.3106
M16
G05
G00X6.7953Y-2.5271
M15
G01X6.8347Y-2.5271
M16
G05
G00X6.8741Y-2.1649
M15
G01X6.9134Y-2.1649
M16
G05
G00X6.8741Y-2.3814
M15
G01X6.9134Y-2.3814
M16
G05
G00X7.5764Y-2.0704
M15
G01X7.6157Y-2.0704
M16
G05
G00X7.5764Y-2.3106
M15
G01X7.6157Y-2.3106
M16
G05
G00X7.5764Y-2.5271
M15
G01X7.6157Y-2.5271
M16
G05
G00X7.6551Y-2.1649
M15
G01X7.6945Y-2.1649
M16
G05
G00X7.6551Y-2.3814
M15
G01X7.6945Y-2.3814
M16
G05
M30
