%TF.GenerationSoftware,KiCad,Pcbnew,8.0.1*%
%TF.CreationDate,2024-11-05T21:38:58+00:00*%
%TF.ProjectId,Tiny4xPoweredStereoMixer,54696e79-3478-4506-9f77-657265645374,C*%
%TF.SameCoordinates,Original*%
%TF.FileFunction,Legend,Bot*%
%TF.FilePolarity,Positive*%
%FSLAX46Y46*%
G04 Gerber Fmt 4.6, Leading zero omitted, Abs format (unit mm)*
G04 Created by KiCad (PCBNEW 8.0.1) date 2024-11-05 21:38:58*
%MOMM*%
%LPD*%
G01*
G04 APERTURE LIST*
%ADD10C,0.153000*%
G04 APERTURE END LIST*
D10*
X163935424Y-78097142D02*
X163983044Y-78049523D01*
X163983044Y-78049523D02*
X164030663Y-77906666D01*
X164030663Y-77906666D02*
X164030663Y-77811428D01*
X164030663Y-77811428D02*
X163983044Y-77668571D01*
X163983044Y-77668571D02*
X163887805Y-77573333D01*
X163887805Y-77573333D02*
X163792567Y-77525714D01*
X163792567Y-77525714D02*
X163602091Y-77478095D01*
X163602091Y-77478095D02*
X163459234Y-77478095D01*
X163459234Y-77478095D02*
X163268758Y-77525714D01*
X163268758Y-77525714D02*
X163173520Y-77573333D01*
X163173520Y-77573333D02*
X163078282Y-77668571D01*
X163078282Y-77668571D02*
X163030663Y-77811428D01*
X163030663Y-77811428D02*
X163030663Y-77906666D01*
X163030663Y-77906666D02*
X163078282Y-78049523D01*
X163078282Y-78049523D02*
X163125901Y-78097142D01*
X164030663Y-79049523D02*
X164030663Y-78478095D01*
X164030663Y-78763809D02*
X163030663Y-78763809D01*
X163030663Y-78763809D02*
X163173520Y-78668571D01*
X163173520Y-78668571D02*
X163268758Y-78573333D01*
X163268758Y-78573333D02*
X163316377Y-78478095D01*
X163030663Y-79906666D02*
X163030663Y-79716190D01*
X163030663Y-79716190D02*
X163078282Y-79620952D01*
X163078282Y-79620952D02*
X163125901Y-79573333D01*
X163125901Y-79573333D02*
X163268758Y-79478095D01*
X163268758Y-79478095D02*
X163459234Y-79430476D01*
X163459234Y-79430476D02*
X163840186Y-79430476D01*
X163840186Y-79430476D02*
X163935424Y-79478095D01*
X163935424Y-79478095D02*
X163983044Y-79525714D01*
X163983044Y-79525714D02*
X164030663Y-79620952D01*
X164030663Y-79620952D02*
X164030663Y-79811428D01*
X164030663Y-79811428D02*
X163983044Y-79906666D01*
X163983044Y-79906666D02*
X163935424Y-79954285D01*
X163935424Y-79954285D02*
X163840186Y-80001904D01*
X163840186Y-80001904D02*
X163602091Y-80001904D01*
X163602091Y-80001904D02*
X163506853Y-79954285D01*
X163506853Y-79954285D02*
X163459234Y-79906666D01*
X163459234Y-79906666D02*
X163411615Y-79811428D01*
X163411615Y-79811428D02*
X163411615Y-79620952D01*
X163411615Y-79620952D02*
X163459234Y-79525714D01*
X163459234Y-79525714D02*
X163506853Y-79478095D01*
X163506853Y-79478095D02*
X163602091Y-79430476D01*
X120849424Y-54697333D02*
X120897044Y-54649714D01*
X120897044Y-54649714D02*
X120944663Y-54506857D01*
X120944663Y-54506857D02*
X120944663Y-54411619D01*
X120944663Y-54411619D02*
X120897044Y-54268762D01*
X120897044Y-54268762D02*
X120801805Y-54173524D01*
X120801805Y-54173524D02*
X120706567Y-54125905D01*
X120706567Y-54125905D02*
X120516091Y-54078286D01*
X120516091Y-54078286D02*
X120373234Y-54078286D01*
X120373234Y-54078286D02*
X120182758Y-54125905D01*
X120182758Y-54125905D02*
X120087520Y-54173524D01*
X120087520Y-54173524D02*
X119992282Y-54268762D01*
X119992282Y-54268762D02*
X119944663Y-54411619D01*
X119944663Y-54411619D02*
X119944663Y-54506857D01*
X119944663Y-54506857D02*
X119992282Y-54649714D01*
X119992282Y-54649714D02*
X120039901Y-54697333D01*
X119944663Y-55602095D02*
X119944663Y-55125905D01*
X119944663Y-55125905D02*
X120420853Y-55078286D01*
X120420853Y-55078286D02*
X120373234Y-55125905D01*
X120373234Y-55125905D02*
X120325615Y-55221143D01*
X120325615Y-55221143D02*
X120325615Y-55459238D01*
X120325615Y-55459238D02*
X120373234Y-55554476D01*
X120373234Y-55554476D02*
X120420853Y-55602095D01*
X120420853Y-55602095D02*
X120516091Y-55649714D01*
X120516091Y-55649714D02*
X120754186Y-55649714D01*
X120754186Y-55649714D02*
X120849424Y-55602095D01*
X120849424Y-55602095D02*
X120897044Y-55554476D01*
X120897044Y-55554476D02*
X120944663Y-55459238D01*
X120944663Y-55459238D02*
X120944663Y-55221143D01*
X120944663Y-55221143D02*
X120897044Y-55125905D01*
X120897044Y-55125905D02*
X120849424Y-55078286D01*
X165744833Y-84730575D02*
X165697214Y-84682956D01*
X165697214Y-84682956D02*
X165554357Y-84635336D01*
X165554357Y-84635336D02*
X165459119Y-84635336D01*
X165459119Y-84635336D02*
X165316262Y-84682956D01*
X165316262Y-84682956D02*
X165221024Y-84778194D01*
X165221024Y-84778194D02*
X165173405Y-84873432D01*
X165173405Y-84873432D02*
X165125786Y-85063908D01*
X165125786Y-85063908D02*
X165125786Y-85206765D01*
X165125786Y-85206765D02*
X165173405Y-85397241D01*
X165173405Y-85397241D02*
X165221024Y-85492479D01*
X165221024Y-85492479D02*
X165316262Y-85587717D01*
X165316262Y-85587717D02*
X165459119Y-85635336D01*
X165459119Y-85635336D02*
X165554357Y-85635336D01*
X165554357Y-85635336D02*
X165697214Y-85587717D01*
X165697214Y-85587717D02*
X165744833Y-85540098D01*
X166601976Y-85302003D02*
X166601976Y-84635336D01*
X166363881Y-85682956D02*
X166125786Y-84968670D01*
X166125786Y-84968670D02*
X166744833Y-84968670D01*
X149805424Y-54221142D02*
X149853044Y-54173523D01*
X149853044Y-54173523D02*
X149900663Y-54030666D01*
X149900663Y-54030666D02*
X149900663Y-53935428D01*
X149900663Y-53935428D02*
X149853044Y-53792571D01*
X149853044Y-53792571D02*
X149757805Y-53697333D01*
X149757805Y-53697333D02*
X149662567Y-53649714D01*
X149662567Y-53649714D02*
X149472091Y-53602095D01*
X149472091Y-53602095D02*
X149329234Y-53602095D01*
X149329234Y-53602095D02*
X149138758Y-53649714D01*
X149138758Y-53649714D02*
X149043520Y-53697333D01*
X149043520Y-53697333D02*
X148948282Y-53792571D01*
X148948282Y-53792571D02*
X148900663Y-53935428D01*
X148900663Y-53935428D02*
X148900663Y-54030666D01*
X148900663Y-54030666D02*
X148948282Y-54173523D01*
X148948282Y-54173523D02*
X148995901Y-54221142D01*
X149900663Y-55173523D02*
X149900663Y-54602095D01*
X149900663Y-54887809D02*
X148900663Y-54887809D01*
X148900663Y-54887809D02*
X149043520Y-54792571D01*
X149043520Y-54792571D02*
X149138758Y-54697333D01*
X149138758Y-54697333D02*
X149186377Y-54602095D01*
X148995901Y-55554476D02*
X148948282Y-55602095D01*
X148948282Y-55602095D02*
X148900663Y-55697333D01*
X148900663Y-55697333D02*
X148900663Y-55935428D01*
X148900663Y-55935428D02*
X148948282Y-56030666D01*
X148948282Y-56030666D02*
X148995901Y-56078285D01*
X148995901Y-56078285D02*
X149091139Y-56125904D01*
X149091139Y-56125904D02*
X149186377Y-56125904D01*
X149186377Y-56125904D02*
X149329234Y-56078285D01*
X149329234Y-56078285D02*
X149900663Y-55506857D01*
X149900663Y-55506857D02*
X149900663Y-56125904D01*
X135581424Y-59655642D02*
X135629044Y-59608023D01*
X135629044Y-59608023D02*
X135676663Y-59465166D01*
X135676663Y-59465166D02*
X135676663Y-59369928D01*
X135676663Y-59369928D02*
X135629044Y-59227071D01*
X135629044Y-59227071D02*
X135533805Y-59131833D01*
X135533805Y-59131833D02*
X135438567Y-59084214D01*
X135438567Y-59084214D02*
X135248091Y-59036595D01*
X135248091Y-59036595D02*
X135105234Y-59036595D01*
X135105234Y-59036595D02*
X134914758Y-59084214D01*
X134914758Y-59084214D02*
X134819520Y-59131833D01*
X134819520Y-59131833D02*
X134724282Y-59227071D01*
X134724282Y-59227071D02*
X134676663Y-59369928D01*
X134676663Y-59369928D02*
X134676663Y-59465166D01*
X134676663Y-59465166D02*
X134724282Y-59608023D01*
X134724282Y-59608023D02*
X134771901Y-59655642D01*
X135676663Y-60608023D02*
X135676663Y-60036595D01*
X135676663Y-60322309D02*
X134676663Y-60322309D01*
X134676663Y-60322309D02*
X134819520Y-60227071D01*
X134819520Y-60227071D02*
X134914758Y-60131833D01*
X134914758Y-60131833D02*
X134962377Y-60036595D01*
X135676663Y-61560404D02*
X135676663Y-60988976D01*
X135676663Y-61274690D02*
X134676663Y-61274690D01*
X134676663Y-61274690D02*
X134819520Y-61179452D01*
X134819520Y-61179452D02*
X134914758Y-61084214D01*
X134914758Y-61084214D02*
X134962377Y-60988976D01*
X164537424Y-54221142D02*
X164585044Y-54173523D01*
X164585044Y-54173523D02*
X164632663Y-54030666D01*
X164632663Y-54030666D02*
X164632663Y-53935428D01*
X164632663Y-53935428D02*
X164585044Y-53792571D01*
X164585044Y-53792571D02*
X164489805Y-53697333D01*
X164489805Y-53697333D02*
X164394567Y-53649714D01*
X164394567Y-53649714D02*
X164204091Y-53602095D01*
X164204091Y-53602095D02*
X164061234Y-53602095D01*
X164061234Y-53602095D02*
X163870758Y-53649714D01*
X163870758Y-53649714D02*
X163775520Y-53697333D01*
X163775520Y-53697333D02*
X163680282Y-53792571D01*
X163680282Y-53792571D02*
X163632663Y-53935428D01*
X163632663Y-53935428D02*
X163632663Y-54030666D01*
X163632663Y-54030666D02*
X163680282Y-54173523D01*
X163680282Y-54173523D02*
X163727901Y-54221142D01*
X164632663Y-55173523D02*
X164632663Y-54602095D01*
X164632663Y-54887809D02*
X163632663Y-54887809D01*
X163632663Y-54887809D02*
X163775520Y-54792571D01*
X163775520Y-54792571D02*
X163870758Y-54697333D01*
X163870758Y-54697333D02*
X163918377Y-54602095D01*
X163632663Y-55506857D02*
X163632663Y-56173523D01*
X163632663Y-56173523D02*
X164632663Y-55744952D01*
X135581424Y-54221142D02*
X135629044Y-54173523D01*
X135629044Y-54173523D02*
X135676663Y-54030666D01*
X135676663Y-54030666D02*
X135676663Y-53935428D01*
X135676663Y-53935428D02*
X135629044Y-53792571D01*
X135629044Y-53792571D02*
X135533805Y-53697333D01*
X135533805Y-53697333D02*
X135438567Y-53649714D01*
X135438567Y-53649714D02*
X135248091Y-53602095D01*
X135248091Y-53602095D02*
X135105234Y-53602095D01*
X135105234Y-53602095D02*
X134914758Y-53649714D01*
X134914758Y-53649714D02*
X134819520Y-53697333D01*
X134819520Y-53697333D02*
X134724282Y-53792571D01*
X134724282Y-53792571D02*
X134676663Y-53935428D01*
X134676663Y-53935428D02*
X134676663Y-54030666D01*
X134676663Y-54030666D02*
X134724282Y-54173523D01*
X134724282Y-54173523D02*
X134771901Y-54221142D01*
X135676663Y-55173523D02*
X135676663Y-54602095D01*
X135676663Y-54887809D02*
X134676663Y-54887809D01*
X134676663Y-54887809D02*
X134819520Y-54792571D01*
X134819520Y-54792571D02*
X134914758Y-54697333D01*
X134914758Y-54697333D02*
X134962377Y-54602095D01*
X134676663Y-55792571D02*
X134676663Y-55887809D01*
X134676663Y-55887809D02*
X134724282Y-55983047D01*
X134724282Y-55983047D02*
X134771901Y-56030666D01*
X134771901Y-56030666D02*
X134867139Y-56078285D01*
X134867139Y-56078285D02*
X135057615Y-56125904D01*
X135057615Y-56125904D02*
X135295710Y-56125904D01*
X135295710Y-56125904D02*
X135486186Y-56078285D01*
X135486186Y-56078285D02*
X135581424Y-56030666D01*
X135581424Y-56030666D02*
X135629044Y-55983047D01*
X135629044Y-55983047D02*
X135676663Y-55887809D01*
X135676663Y-55887809D02*
X135676663Y-55792571D01*
X135676663Y-55792571D02*
X135629044Y-55697333D01*
X135629044Y-55697333D02*
X135581424Y-55649714D01*
X135581424Y-55649714D02*
X135486186Y-55602095D01*
X135486186Y-55602095D02*
X135295710Y-55554476D01*
X135295710Y-55554476D02*
X135057615Y-55554476D01*
X135057615Y-55554476D02*
X134867139Y-55602095D01*
X134867139Y-55602095D02*
X134771901Y-55649714D01*
X134771901Y-55649714D02*
X134724282Y-55697333D01*
X134724282Y-55697333D02*
X134676663Y-55792571D01*
X164760642Y-82228575D02*
X164713023Y-82180956D01*
X164713023Y-82180956D02*
X164570166Y-82133336D01*
X164570166Y-82133336D02*
X164474928Y-82133336D01*
X164474928Y-82133336D02*
X164332071Y-82180956D01*
X164332071Y-82180956D02*
X164236833Y-82276194D01*
X164236833Y-82276194D02*
X164189214Y-82371432D01*
X164189214Y-82371432D02*
X164141595Y-82561908D01*
X164141595Y-82561908D02*
X164141595Y-82704765D01*
X164141595Y-82704765D02*
X164189214Y-82895241D01*
X164189214Y-82895241D02*
X164236833Y-82990479D01*
X164236833Y-82990479D02*
X164332071Y-83085717D01*
X164332071Y-83085717D02*
X164474928Y-83133336D01*
X164474928Y-83133336D02*
X164570166Y-83133336D01*
X164570166Y-83133336D02*
X164713023Y-83085717D01*
X164713023Y-83085717D02*
X164760642Y-83038098D01*
X165713023Y-82133336D02*
X165141595Y-82133336D01*
X165427309Y-82133336D02*
X165427309Y-83133336D01*
X165427309Y-83133336D02*
X165332071Y-82990479D01*
X165332071Y-82990479D02*
X165236833Y-82895241D01*
X165236833Y-82895241D02*
X165141595Y-82847622D01*
X166617785Y-83133336D02*
X166141595Y-83133336D01*
X166141595Y-83133336D02*
X166093976Y-82657146D01*
X166093976Y-82657146D02*
X166141595Y-82704765D01*
X166141595Y-82704765D02*
X166236833Y-82752384D01*
X166236833Y-82752384D02*
X166474928Y-82752384D01*
X166474928Y-82752384D02*
X166570166Y-82704765D01*
X166570166Y-82704765D02*
X166617785Y-82657146D01*
X166617785Y-82657146D02*
X166665404Y-82561908D01*
X166665404Y-82561908D02*
X166665404Y-82323813D01*
X166665404Y-82323813D02*
X166617785Y-82228575D01*
X166617785Y-82228575D02*
X166570166Y-82180956D01*
X166570166Y-82180956D02*
X166474928Y-82133336D01*
X166474928Y-82133336D02*
X166236833Y-82133336D01*
X166236833Y-82133336D02*
X166141595Y-82180956D01*
X166141595Y-82180956D02*
X166093976Y-82228575D01*
X164537424Y-59655642D02*
X164585044Y-59608023D01*
X164585044Y-59608023D02*
X164632663Y-59465166D01*
X164632663Y-59465166D02*
X164632663Y-59369928D01*
X164632663Y-59369928D02*
X164585044Y-59227071D01*
X164585044Y-59227071D02*
X164489805Y-59131833D01*
X164489805Y-59131833D02*
X164394567Y-59084214D01*
X164394567Y-59084214D02*
X164204091Y-59036595D01*
X164204091Y-59036595D02*
X164061234Y-59036595D01*
X164061234Y-59036595D02*
X163870758Y-59084214D01*
X163870758Y-59084214D02*
X163775520Y-59131833D01*
X163775520Y-59131833D02*
X163680282Y-59227071D01*
X163680282Y-59227071D02*
X163632663Y-59369928D01*
X163632663Y-59369928D02*
X163632663Y-59465166D01*
X163632663Y-59465166D02*
X163680282Y-59608023D01*
X163680282Y-59608023D02*
X163727901Y-59655642D01*
X164632663Y-60608023D02*
X164632663Y-60036595D01*
X164632663Y-60322309D02*
X163632663Y-60322309D01*
X163632663Y-60322309D02*
X163775520Y-60227071D01*
X163775520Y-60227071D02*
X163870758Y-60131833D01*
X163870758Y-60131833D02*
X163918377Y-60036595D01*
X164061234Y-61179452D02*
X164013615Y-61084214D01*
X164013615Y-61084214D02*
X163965996Y-61036595D01*
X163965996Y-61036595D02*
X163870758Y-60988976D01*
X163870758Y-60988976D02*
X163823139Y-60988976D01*
X163823139Y-60988976D02*
X163727901Y-61036595D01*
X163727901Y-61036595D02*
X163680282Y-61084214D01*
X163680282Y-61084214D02*
X163632663Y-61179452D01*
X163632663Y-61179452D02*
X163632663Y-61369928D01*
X163632663Y-61369928D02*
X163680282Y-61465166D01*
X163680282Y-61465166D02*
X163727901Y-61512785D01*
X163727901Y-61512785D02*
X163823139Y-61560404D01*
X163823139Y-61560404D02*
X163870758Y-61560404D01*
X163870758Y-61560404D02*
X163965996Y-61512785D01*
X163965996Y-61512785D02*
X164013615Y-61465166D01*
X164013615Y-61465166D02*
X164061234Y-61369928D01*
X164061234Y-61369928D02*
X164061234Y-61179452D01*
X164061234Y-61179452D02*
X164108853Y-61084214D01*
X164108853Y-61084214D02*
X164156472Y-61036595D01*
X164156472Y-61036595D02*
X164251710Y-60988976D01*
X164251710Y-60988976D02*
X164442186Y-60988976D01*
X164442186Y-60988976D02*
X164537424Y-61036595D01*
X164537424Y-61036595D02*
X164585044Y-61084214D01*
X164585044Y-61084214D02*
X164632663Y-61179452D01*
X164632663Y-61179452D02*
X164632663Y-61369928D01*
X164632663Y-61369928D02*
X164585044Y-61465166D01*
X164585044Y-61465166D02*
X164537424Y-61512785D01*
X164537424Y-61512785D02*
X164442186Y-61560404D01*
X164442186Y-61560404D02*
X164251710Y-61560404D01*
X164251710Y-61560404D02*
X164156472Y-61512785D01*
X164156472Y-61512785D02*
X164108853Y-61465166D01*
X164108853Y-61465166D02*
X164061234Y-61369928D01*
X149805424Y-59655642D02*
X149853044Y-59608023D01*
X149853044Y-59608023D02*
X149900663Y-59465166D01*
X149900663Y-59465166D02*
X149900663Y-59369928D01*
X149900663Y-59369928D02*
X149853044Y-59227071D01*
X149853044Y-59227071D02*
X149757805Y-59131833D01*
X149757805Y-59131833D02*
X149662567Y-59084214D01*
X149662567Y-59084214D02*
X149472091Y-59036595D01*
X149472091Y-59036595D02*
X149329234Y-59036595D01*
X149329234Y-59036595D02*
X149138758Y-59084214D01*
X149138758Y-59084214D02*
X149043520Y-59131833D01*
X149043520Y-59131833D02*
X148948282Y-59227071D01*
X148948282Y-59227071D02*
X148900663Y-59369928D01*
X148900663Y-59369928D02*
X148900663Y-59465166D01*
X148900663Y-59465166D02*
X148948282Y-59608023D01*
X148948282Y-59608023D02*
X148995901Y-59655642D01*
X149900663Y-60608023D02*
X149900663Y-60036595D01*
X149900663Y-60322309D02*
X148900663Y-60322309D01*
X148900663Y-60322309D02*
X149043520Y-60227071D01*
X149043520Y-60227071D02*
X149138758Y-60131833D01*
X149138758Y-60131833D02*
X149186377Y-60036595D01*
X149233996Y-61465166D02*
X149900663Y-61465166D01*
X148853044Y-61227071D02*
X149567329Y-60988976D01*
X149567329Y-60988976D02*
X149567329Y-61608023D01*
X120849424Y-60131833D02*
X120897044Y-60084214D01*
X120897044Y-60084214D02*
X120944663Y-59941357D01*
X120944663Y-59941357D02*
X120944663Y-59846119D01*
X120944663Y-59846119D02*
X120897044Y-59703262D01*
X120897044Y-59703262D02*
X120801805Y-59608024D01*
X120801805Y-59608024D02*
X120706567Y-59560405D01*
X120706567Y-59560405D02*
X120516091Y-59512786D01*
X120516091Y-59512786D02*
X120373234Y-59512786D01*
X120373234Y-59512786D02*
X120182758Y-59560405D01*
X120182758Y-59560405D02*
X120087520Y-59608024D01*
X120087520Y-59608024D02*
X119992282Y-59703262D01*
X119992282Y-59703262D02*
X119944663Y-59846119D01*
X119944663Y-59846119D02*
X119944663Y-59941357D01*
X119944663Y-59941357D02*
X119992282Y-60084214D01*
X119992282Y-60084214D02*
X120039901Y-60131833D01*
X119944663Y-60465167D02*
X119944663Y-61131833D01*
X119944663Y-61131833D02*
X120944663Y-60703262D01*
%TO.C,C16*%
X164619000Y-79133752D02*
X164619000Y-78611248D01*
X166089000Y-79133752D02*
X166089000Y-78611248D01*
%TO.C,C5*%
X121410000Y-55010267D02*
X121410000Y-54717733D01*
X122430000Y-55010267D02*
X122430000Y-54717733D01*
%TO.C,C4*%
X168698248Y-84355000D02*
X169220752Y-84355000D01*
X168698248Y-85825000D02*
X169220752Y-85825000D01*
%TO.C,C12*%
X150366000Y-55010267D02*
X150366000Y-54717733D01*
X151386000Y-55010267D02*
X151386000Y-54717733D01*
%TO.C,C11*%
X136142000Y-60444767D02*
X136142000Y-60152233D01*
X137162000Y-60444767D02*
X137162000Y-60152233D01*
%TO.C,C17*%
X165098000Y-55010267D02*
X165098000Y-54717733D01*
X166118000Y-55010267D02*
X166118000Y-54717733D01*
%TO.C,C10*%
X136142000Y-55010267D02*
X136142000Y-54717733D01*
X137162000Y-55010267D02*
X137162000Y-54717733D01*
%TO.C,C15*%
X168698248Y-81815000D02*
X169220752Y-81815000D01*
X168698248Y-83285000D02*
X169220752Y-83285000D01*
%TO.C,C18*%
X165098000Y-60444767D02*
X165098000Y-60152233D01*
X166118000Y-60444767D02*
X166118000Y-60152233D01*
%TO.C,C14*%
X150366000Y-60444767D02*
X150366000Y-60152233D01*
X151386000Y-60444767D02*
X151386000Y-60152233D01*
%TO.C,C7*%
X121410000Y-60444767D02*
X121410000Y-60152233D01*
X122430000Y-60444767D02*
X122430000Y-60152233D01*
%TD*%
M02*
