M48
; DRILL file {KiCad 8.0.1} date 2024-11-05T21:39:01+0000
; FORMAT={-:-/ absolute / inch / decimal}
; #@! TF.CreationDate,2024-11-05T21:39:01+00:00
; #@! TF.GenerationSoftware,Kicad,Pcbnew,8.0.1
; #@! TF.FileFunction,Plated,1,4,PTH
FMAT,2
INCH
; #@! TA.AperFunction,Plated,PTH,ViaDrill
T1C0.0157
; #@! TA.AperFunction,Plated,PTH,ComponentDrill
T2C0.0315
; #@! TA.AperFunction,Plated,PTH,ComponentDrill
T3C0.0394
; #@! TA.AperFunction,Plated,PTH,ComponentDrill
T4C0.0469
%
G90
G05
T1
X4.348Y-3.2985
X4.362Y-3.474
X4.478Y-3.248
X4.52Y-3.875
X4.52Y-3.975
X4.528Y-3.068
X4.672Y-3.298
X4.68Y-3.1485
X5.3Y-3.875
X5.3Y-3.975
X5.308Y-3.25
X5.308Y-3.3
X5.325Y-3.475
X5.514Y-3.072
X5.638Y-3.15
X5.638Y-3.3
X6.09Y-3.875
X6.09Y-3.975
X6.21Y-2.93
X6.21Y-2.97
X6.21Y-3.03
X6.21Y-3.07
X6.21Y-3.13
X6.21Y-3.17
X6.21Y-3.23
X6.21Y-3.27
X6.21Y-3.33
X6.21Y-3.37
X6.21Y-3.43
X6.21Y-3.47
X6.3514Y-2.888
X6.51Y-3.24
X6.57Y-3.7
X6.576Y-3.062
X6.61Y-3.7
X6.616Y-3.2016
X6.65Y-3.7
X6.69Y-3.2
X6.69Y-3.7
X6.73Y-3.7
X6.9889Y-3.08
X7.1489Y-2.93
X7.1489Y-2.97
X7.1489Y-3.13
X7.1489Y-3.17
X7.1489Y-3.23
X7.1489Y-3.27
X7.1489Y-3.33
X7.1489Y-3.37
T2
X4.2777Y-4.4792
X4.3564Y-4.4792
X4.4352Y-4.4792
X4.5139Y-4.4792
X4.5926Y-4.4792
X4.6714Y-4.4792
X5.0649Y-4.4792
X5.1436Y-4.4792
X5.2224Y-4.4792
X5.3011Y-4.4792
X5.3798Y-4.4792
X5.4586Y-4.4792
X5.8521Y-4.4792
X5.9308Y-4.4792
X6.0096Y-4.4792
X6.0883Y-4.4792
X6.1671Y-4.4792
X6.2458Y-4.4792
X6.6393Y-4.4792
X6.718Y-4.4792
X6.7968Y-4.4792
X6.8755Y-4.4792
X6.9543Y-4.4792
X7.033Y-4.4792
T4
X7.0008Y-3.554
X7.1008Y-3.554
T3
G00X4.4934Y-2.044
M15
G01X4.5327Y-2.044
M16
G05
G00X4.4934Y-2.2842
M15
G01X4.5327Y-2.2842
M16
G05
G00X4.4934Y-2.5007
M15
G01X4.5327Y-2.5007
M16
G05
G00X4.5721Y-2.1385
M15
G01X4.6115Y-2.1385
M16
G05
G00X4.5721Y-2.355
M15
G01X4.6115Y-2.355
M16
G05
G00X5.0634Y-2.044
M15
G01X5.1027Y-2.044
M16
G05
G00X5.0634Y-2.2842
M15
G01X5.1027Y-2.2842
M16
G05
G00X5.0634Y-2.5007
M15
G01X5.1027Y-2.5007
M16
G05
G00X5.1421Y-2.1385
M15
G01X5.1815Y-2.1385
M16
G05
G00X5.1421Y-2.355
M15
G01X5.1815Y-2.355
M16
G05
G00X5.6334Y-2.044
M15
G01X5.6727Y-2.044
M16
G05
G00X5.6334Y-2.2842
M15
G01X5.6727Y-2.2842
M16
G05
G00X5.6334Y-2.5007
M15
G01X5.6727Y-2.5007
M16
G05
G00X5.7121Y-2.1385
M15
G01X5.7515Y-2.1385
M16
G05
G00X5.7121Y-2.355
M15
G01X5.7515Y-2.355
M16
G05
G00X6.2034Y-2.044
M15
G01X6.2427Y-2.044
M16
G05
G00X6.2034Y-2.2842
M15
G01X6.2427Y-2.2842
M16
G05
G00X6.2034Y-2.5007
M15
G01X6.2427Y-2.5007
M16
G05
G00X6.2821Y-2.1385
M15
G01X6.3215Y-2.1385
M16
G05
G00X6.2821Y-2.355
M15
G01X6.3215Y-2.355
M16
G05
G00X6.7734Y-2.044
M15
G01X6.8127Y-2.044
M16
G05
G00X6.7734Y-2.2842
M15
G01X6.8127Y-2.2842
M16
G05
G00X6.7734Y-2.5007
M15
G01X6.8127Y-2.5007
M16
G05
G00X6.8521Y-2.1385
M15
G01X6.8915Y-2.1385
M16
G05
G00X6.8521Y-2.355
M15
G01X6.8915Y-2.355
M16
G05
M30
